<?xml version="1.0" standalone="no"?>
<!DOCTYPE svg PUBLIC "-//W3C//DTD SVG 20010904//EN"
 "http://www.w3.org/TR/2001/REC-SVG-20010904/DTD/svg10.dtd">
<svg version="1.0" xmlns="http://www.w3.org/2000/svg"
 width="56.000000pt" height="56.000000pt" viewBox="0 0 56.000000 56.000000"
 preserveAspectRatio="xMidYMid meet">
<metadata>
Created by potrace 1.16, written by Peter Selinger 2001-2019
</metadata>
<g transform="translate(0.000000,56.000000) scale(0.100000,-0.100000)"
fill="#000000" stroke="none">
<path d="M339 426 c-8 -7 -34 -18 -59 -25 -48 -14 -90 -46 -90 -69 0 -12 -3
-12 -15 -2 -19 16 -47 5 -44 -17 1 -10 -4 -34 -11 -53 -8 -19 -13 -37 -13 -40
1 -3 -3 -8 -9 -11 -13 -8 39 -49 62 -49 10 0 20 -9 23 -20 3 -11 18 -25 34
-31 15 -6 36 -15 46 -21 23 -11 51 8 42 30 -3 8 11 2 31 -13 42 -32 62 -27 79
19 7 21 5 35 -8 58 -17 30 -17 32 3 53 28 29 26 77 -5 113 -14 17 -25 39 -25
50 0 29 -23 45 -41 28z m35 -57 c15 -55 8 -89 -18 -89 -22 0 -24 9 -10 48 7
20 13 48 13 62 l0 25 -15 -27 c-8 -15 -25 -30 -37 -33 -50 -11 -62 -10 -59 4
3 12 1 12 -14 0 -15 -12 -17 -12 -13 0 3 8 22 20 42 27 29 10 36 10 30 1 -4
-7 9 0 28 14 18 15 35 26 37 24 1 -1 9 -26 16 -56z m-84 -38 c0 -5 -6 -14 -14
-20 -16 -13 -32 2 -21 19 8 12 35 13 35 1z m-120 -10 c0 -6 15 -7 34 -4 41 6
55 -11 31 -37 -15 -16 -15 -22 -5 -35 11 -13 5 -15 -51 -15 -53 -1 -61 -3 -44
-12 26 -15 36 -31 26 -41 -16 -16 -51 12 -47 36 3 12 5 26 5 30 1 5 6 5 12 1
7 -4 9 0 5 14 -4 11 -3 23 3 26 5 3 7 15 4 26 -4 14 0 20 11 20 9 0 16 -4 16
-9z m239 -67 c-6 -8 -16 -14 -22 -14 -5 0 -3 8 6 18 10 10 18 29 18 43 2 21 2
21 6 -4 3 -16 -1 -35 -8 -43z m-141 -2 c6 -18 -15 -14 -22 4 -4 10 -1 14 6 12
6 -2 14 -10 16 -16z m22 -37 c11 -13 9 -20 -10 -40 -28 -30 -50 -31 -81 -5
l-24 19 32 1 c17 0 35 -4 38 -10 3 -5 11 -10 18 -10 6 0 2 6 -8 14 -11 8 -16
19 -12 30 8 20 31 21 47 1z m-72 -12 c-10 -2 -26 -2 -35 0 -10 3 -2 5 17 5 19
0 27 -2 18 -5z m156 -26 c22 -16 18 -50 -7 -55 -30 -6 -48 16 -35 44 13 28 18
29 42 11z m-132 -59 c-13 -13 -52 7 -52 28 0 13 4 12 31 -2 21 -10 28 -19 21
-26z"/>
<path d="M263 373 c4 -3 10 -3 14 0 3 4 0 7 -7 7 -7 0 -10 -3 -7 -7z"/>
<path d="M205 290 c-3 -5 -2 -10 4 -10 5 0 13 5 16 10 3 6 2 10 -4 10 -5 0
-13 -4 -16 -10z"/>
<path d="M147 273 c-3 -5 -2 -15 2 -22 7 -10 10 -10 16 -1 4 6 3 16 -3 22 -5
5 -12 6 -15 1z m13 -8 c0 -3 -2 -5 -5 -5 -3 0 -5 2 -5 5 0 3 2 5 5 5 3 0 5 -2
5 -5z"/>
</g>
</svg>
