<?xml version="1.0" standalone="no"?>
<!DOCTYPE svg PUBLIC "-//W3C//DTD SVG 20010904//EN"
 "http://www.w3.org/TR/2001/REC-SVG-20010904/DTD/svg10.dtd">
<svg version="1.0" xmlns="http://www.w3.org/2000/svg"
 width="56.000000pt" height="56.000000pt" viewBox="0 0 56.000000 56.000000"
 preserveAspectRatio="xMidYMid meet">
<metadata>
Created by potrace 1.16, written by Peter Selinger 2001-2019
</metadata>
<g transform="translate(0.000000,56.000000) scale(0.100000,-0.100000)"
fill="#000000" stroke="none">
<path d="M320 432 c-20 -9 -41 -31 -50 -49 -13 -27 -21 -33 -49 -33 -19 0 -42
7 -52 16 -23 21 -42 9 -35 -21 3 -13 2 -26 -3 -29 -5 -3 -12 -18 -15 -32 -5
-20 -1 -33 16 -51 l23 -24 -23 -18 -23 -17 20 -26 c12 -14 21 -30 21 -35 0 -5
6 -15 13 -22 6 -6 12 -17 12 -24 0 -19 58 -16 75 4 14 16 18 16 45 3 17 -8 22
-12 12 -9 -10 3 -16 1 -13 -4 3 -5 26 -8 50 -7 81 2 110 75 60 148 -22 31 -24
40 -14 53 13 16 55 21 46 6 -3 -5 2 -8 12 -7 10 0 16 -6 16 -16 -1 -10 3 -16
9 -15 6 1 12 -8 13 -20 1 -13 0 -23 -2 -23 -2 0 -22 19 -45 43 -22 23 -38 37
-35 30 3 -6 3 -13 -1 -16 -5 -2 -3 -3 3 -1 21 5 35 -18 21 -35 -10 -14 -10
-14 4 -4 9 7 19 10 22 6 9 -9 9 -24 -1 -20 -4 1 -7 -2 -7 -8 0 -5 5 -10 10
-11 6 -1 18 -5 28 -9 15 -6 17 -3 13 19 -2 14 0 28 5 31 5 3 -9 24 -31 46
l-39 40 16 33 c21 45 11 82 -30 106 -39 24 -52 25 -97 2z m72 -29 c19 -39 12
-53 -25 -53 -20 0 -77 39 -77 52 0 9 57 37 75 37 6 0 18 -16 27 -36z m18 23
c0 -3 -4 -8 -10 -11 -5 -3 -10 -1 -10 4 0 6 5 11 10 11 6 0 10 -2 10 -4z m40
-61 c0 -14 -8 -29 -19 -35 -35 -18 -41 -11 -20 25 25 41 39 45 39 10z m-282
-13 c6 -18 -15 -14 -22 4 -4 10 -1 14 6 12 6 -2 14 -10 16 -16z m120 -5 c-15
-12 -15 -14 3 -25 10 -7 19 -19 19 -26 0 -8 11 -23 24 -34 23 -18 24 -20 8
-35 -11 -12 -12 -17 -3 -17 28 0 5 -33 -26 -36 -38 -4 -51 11 -29 35 21 24 20
31 -5 31 -17 0 -19 -3 -10 -14 8 -10 9 -16 1 -21 -15 -9 -12 -45 5 -51 21 -8
19 -21 -6 -34 -17 -9 -25 -8 -41 7 -35 32 -43 55 -22 70 13 10 14 13 3 13 -8
1 -27 7 -44 15 -21 10 -23 13 -7 9 24 -6 119 13 127 25 2 4 -24 0 -57 -8 -44
-12 -62 -13 -65 -5 -2 7 -13 10 -23 7 -22 -6 -26 12 -10 37 8 13 10 12 10 -2
0 -10 5 -18 10 -18 14 0 13 27 -2 36 -18 11 21 34 60 34 24 0 31 -4 26 -12 -4
-7 1 -6 12 3 17 15 40 27 54 28 3 0 -3 -5 -12 -12z m-123 -173 c12 -12 13 -19
4 -30 -9 -11 -7 -14 9 -14 12 0 28 -10 37 -22 14 -21 14 -23 -1 -27 -14 -2
-14 -5 -3 -12 10 -6 8 -8 -8 -6 -20 1 -21 3 -8 17 18 20 8 35 -11 19 -11 -9
-16 -5 -23 14 -5 14 -14 28 -19 31 -9 5 -5 46 3 46 2 0 11 -7 20 -16z m-35 1
c0 -3 -2 -5 -5 -5 -3 0 -5 2 -5 5 0 3 2 5 5 5 3 0 5 -2 5 -5z m320 0 c0 -3 -2
-5 -5 -5 -3 0 -5 2 -5 5 0 3 2 5 5 5 3 0 5 -2 5 -5z m20 0 c0 -3 -2 -5 -5 -5
-3 0 -5 2 -5 5 0 3 2 5 5 5 3 0 5 -2 5 -5z m-190 -10 c0 -3 -2 -5 -5 -5 -3 0
-5 2 -5 5 0 3 2 5 5 5 3 0 5 -2 5 -5z m40 -5 c-8 -5 -19 -10 -25 -10 -5 0 -3
5 5 10 8 5 20 10 25 10 6 0 3 -5 -5 -10z m68 -6 c27 -19 28 -36 2 -59 -16 -14
-17 -20 -8 -26 8 -5 4 -8 -12 -7 -30 2 -70 35 -70 59 0 16 35 47 55 48 6 1 21
-6 33 -15z m102 11 c0 -3 -2 -5 -5 -5 -3 0 -5 2 -5 5 0 3 2 5 5 5 3 0 5 -2 5
-5z m-250 -100 c0 -3 -2 -5 -5 -5 -3 0 -5 2 -5 5 0 3 2 5 5 5 3 0 5 -2 5 -5z"/>
<path d="M170 315 c0 -3 2 -5 5 -5 3 0 5 2 5 5 0 3 -2 5 -5 5 -3 0 -5 -2 -5
-5z"/>
<path d="M207 303 c-14 -13 -6 -33 13 -33 11 0 20 5 20 11 0 5 5 7 10 4 6 -3
10 1 10 9 0 19 -21 21 -39 4 -11 -10 -13 -10 -7 0 8 13 4 16 -7 5z"/>
<path d="M180 255 c0 -3 2 -5 5 -5 3 0 5 2 5 5 0 3 -2 5 -5 5 -3 0 -5 -2 -5
-5z"/>
<path d="M145 150 c4 -6 11 -8 16 -5 14 9 11 15 -7 15 -8 0 -12 -5 -9 -10z"/>
<path d="M380 129 c0 -5 5 -7 10 -4 6 3 10 8 10 11 0 2 -4 4 -10 4 -5 0 -10
-5 -10 -11z"/>
<path d="M343 73 c4 -3 10 -3 14 0 3 4 0 7 -7 7 -7 0 -10 -3 -7 -7z"/>
<path d="M403 213 c4 -3 10 -3 14 0 3 4 0 7 -7 7 -7 0 -10 -3 -7 -7z"/>
</g>
</svg>
