<?xml version="1.0" standalone="no"?>
<!DOCTYPE svg PUBLIC "-//W3C//DTD SVG 20010904//EN"
 "http://www.w3.org/TR/2001/REC-SVG-20010904/DTD/svg10.dtd">
<svg version="1.0" xmlns="http://www.w3.org/2000/svg"
 width="56.000000pt" height="56.000000pt" viewBox="0 0 56.000000 56.000000"
 preserveAspectRatio="xMidYMid meet">
<metadata>
Created by potrace 1.16, written by Peter Selinger 2001-2019
</metadata>
<g transform="translate(0.000000,56.000000) scale(0.100000,-0.100000)"
fill="#000000" stroke="none">
<path d="M184 495 c-10 -8 -37 -20 -59 -26 -49 -13 -85 -35 -85 -52 0 -7 7
-22 16 -33 15 -18 15 -18 5 3 -17 34 -13 43 24 59 42 17 94 18 132 2 15 -6 31
-11 36 -10 4 1 7 -2 7 -7 0 -4 18 -8 40 -8 22 0 40 4 40 8 0 5 3 8 8 7 4 -1
20 4 35 10 16 7 44 12 63 12 42 0 104 -24 104 -41 0 -7 3 -9 6 -6 13 13 -19
37 -67 51 -27 8 -59 22 -71 30 -29 20 -67 20 -96 0 -20 -14 -24 -14 -44 0 -28
20 -68 20 -94 1z m94 -11 c20 -14 24 -14 44 0 28 20 68 20 93 3 17 -13 15 -15
-16 -22 -54 -13 -69 -13 -69 -1 0 7 -3 7 -8 1 -4 -5 -14 -10 -22 -10 -8 0 -18
5 -22 10 -5 6 -8 6 -8 -1 0 -12 -15 -12 -69 1 -31 7 -33 9 -16 22 25 17 65 17
93 -3z"/>
<path d="M225 480 c-3 -5 1 -10 9 -10 9 0 16 5 16 10 0 6 -4 10 -9 10 -6 0
-13 -4 -16 -10z"/>
<path d="M353 473 c4 -3 10 -3 14 0 3 4 0 7 -7 7 -7 0 -10 -3 -7 -7z"/>
<path d="M130 440 c0 -5 7 -10 15 -10 8 0 15 5 15 10 0 6 -7 10 -15 10 -8 0
-15 -4 -15 -10z"/>
<path d="M440 440 c0 -5 7 -10 15 -10 8 0 15 5 15 10 0 6 -7 10 -15 10 -8 0
-15 -4 -15 -10z"/>
<path d="M192 427 c-6 -7 -35 -21 -64 -32 -29 -10 -47 -20 -40 -23 7 -2 10 -8
7 -13 -3 -4 3 -14 15 -21 22 -14 27 -31 7 -26 -16 4 -87 -38 -87 -51 0 -6 9
-15 20 -21 l21 -11 -21 -26 c-24 -30 -25 -46 -6 -62 8 -7 12 -20 9 -31 -3 -11
5 -35 17 -55 24 -39 59 -46 97 -20 19 13 22 13 27 0 3 -8 11 -15 18 -15 9 0 9
3 -2 10 -12 7 -10 9 7 7 12 0 20 -4 17 -8 -8 -13 48 -20 62 -8 8 7 17 9 21 5
3 -3 0 -6 -7 -6 -7 0 -11 -3 -8 -6 4 -3 18 2 33 12 22 15 30 15 47 5 11 -7 23
-10 26 -7 3 3 -1 6 -8 6 -7 0 -11 3 -8 6 3 3 15 0 27 -8 16 -10 23 -10 33 0 6
6 17 12 23 12 5 0 3 -5 -5 -11 -13 -9 -13 -10 0 -6 8 2 15 12 15 23 0 10 4 29
8 41 5 14 2 33 -8 53 -8 16 -12 30 -8 31 5 1 21 2 37 3 33 1 41 15 32 51 -9
34 -57 58 -128 64 -21 2 -3 19 32 31 37 12 74 40 54 40 -5 0 -3 4 4 9 9 5 -2
13 -35 26 -26 10 -55 24 -64 32 -15 13 -49 9 -49 -6 0 -3 -14 -12 -31 -20 -32
-14 -63 -6 -97 27 -17 15 -27 15 -40 -1z m65 -28 l28 -11 -31 -13 c-17 -7 -38
-22 -45 -32 -22 -30 -35 -34 -55 -15 -10 9 -25 17 -33 17 -8 0 -15 8 -17 17
-1 10 1 17 4 16 4 -1 23 6 42 15 42 19 69 21 107 6z m191 -6 c20 -9 40 -16 44
-15 3 1 5 -6 4 -16 -2 -9 -9 -17 -17 -17 -8 0 -20 -6 -27 -12 -7 -7 -21 -13
-30 -14 -9 0 -26 -2 -38 -3 -15 -2 -24 6 -32 26 -9 25 -9 27 8 18 11 -6 24
-18 29 -28 6 -9 11 -12 11 -6 0 15 -30 41 -60 52 l-25 10 25 10 c36 15 66 14
108 -5z m-198 -43 c-6 -11 -18 -20 -28 -20 -14 1 -13 4 7 20 29 25 34 25 21 0z
m97 -35 c-6 -16 -32 -17 -68 -2 l-34 14 52 -1 c31 -1 52 -5 50 -11z m-112 -9
c17 -12 17 -13 -8 -18 -15 -3 -27 -2 -27 3 0 4 -16 1 -36 -7 -20 -8 -39 -12
-42 -9 -3 3 4 8 17 12 17 4 20 8 9 15 -9 7 -7 8 8 5 12 -2 28 -1 35 4 19 12
22 11 44 -5z m120 -16 c-3 -5 -16 -10 -28 -9 -21 0 -21 1 -2 9 28 12 37 12 30
0z m121 -23 c11 -11 -45 -39 -66 -32 -34 11 -23 26 15 19 22 -4 35 -2 35 5 0
6 -6 8 -13 5 -7 -2 -24 0 -38 5 -21 9 -18 10 19 7 23 -2 45 -6 48 -9z m-371
-8 c4 -5 12 -8 18 -6 7 2 18 -3 25 -10 9 -8 23 -11 36 -7 11 4 28 7 36 8 8 1
26 7 39 15 22 12 26 11 38 -5 18 -25 17 -64 -3 -64 -8 0 -12 -5 -9 -10 4 -6
12 -9 19 -8 6 2 11 -1 11 -7 0 -10 -27 -13 -153 -14 -67 -1 -73 -3 -84 -27
-10 -21 -9 -27 8 -42 10 -9 13 -10 6 -3 -6 8 -12 19 -12 25 0 5 6 2 13 -9 9
-11 19 -15 27 -10 9 6 11 4 5 -5 -6 -10 6 -12 61 -8 50 4 62 3 44 -4 -14 -5
-49 -8 -77 -6 -29 3 -53 1 -53 -4 0 -18 -21 -7 -32 17 -8 19 -8 31 0 50 10 23
10 25 -5 23 -27 -5 -26 27 2 60 15 18 23 36 19 46 -7 18 11 22 21 5z m330 -97
c15 -11 18 -48 5 -72 -12 -22 -31 -25 -60 -10 -19 10 -18 12 8 50 29 42 32 44
47 32z m-215 -26 c0 -11 -19 -15 -25 -6 -3 5 1 10 9 10 9 0 16 -2 16 -4z m-26
-32 c19 -19 20 -25 4 -20 -7 3 -26 7 -43 11 -27 7 -28 8 -10 15 29 12 32 12
49 -6z m66 1 c0 -3 -2 -5 -5 -5 -3 0 -5 2 -5 5 0 3 2 5 5 5 3 0 5 -2 5 -5z
m40 -44 c0 -9 -24 -21 -42 -21 -6 0 -6 6 2 15 14 16 40 20 40 6z m-193 -28
c-4 -3 -10 -3 -14 0 -3 4 0 7 7 7 7 0 10 -3 7 -7z m40 0 c-4 -3 -10 -3 -14 0
-3 4 0 7 7 7 7 0 10 -3 7 -7z m130 -10 c-4 -3 -10 -3 -14 0 -3 4 0 7 7 7 7 0
10 -3 7 -7z"/>
<path d="M185 380 c-3 -5 3 -10 15 -10 12 0 18 5 15 10 -3 6 -10 10 -15 10 -5
0 -12 -4 -15 -10z"/>
<path d="M140 365 c0 -3 2 -5 5 -5 3 0 5 2 5 5 0 3 -2 5 -5 5 -3 0 -5 -2 -5
-5z"/>
<path d="M385 380 c-3 -5 3 -10 15 -10 12 0 18 5 15 10 -3 6 -10 10 -15 10 -5
0 -12 -4 -15 -10z"/>
<path d="M450 365 c0 -3 2 -5 5 -5 3 0 5 2 5 5 0 3 -2 5 -5 5 -3 0 -5 -2 -5
-5z"/>
<path d="M203 303 c4 -3 10 -3 14 0 3 4 0 7 -7 7 -7 0 -10 -3 -7 -7z"/>
<path d="M270 240 c0 -5 7 -10 16 -10 8 0 12 5 9 10 -3 6 -10 10 -16 10 -5 0
-9 -4 -9 -10z"/>
<path d="M228 222 c11 -7 8 -11 -11 -16 -31 -7 -42 -31 -15 -33 13 -1 18 3 14
13 -3 8 1 14 10 14 11 0 14 -5 9 -17 -5 -14 -3 -15 5 -7 15 15 9 46 -10 51
-12 4 -12 3 -2 -5z"/>
<path d="M135 210 c-3 -5 1 -10 9 -10 8 0 18 5 21 10 3 6 -1 10 -9 10 -8 0
-18 -4 -21 -10z"/>
<path d="M67 204 c-4 -4 -7 -14 -6 -23 0 -12 3 -11 9 4 7 17 9 17 9 3 1 -10 6
-18 12 -18 13 0 8 32 -7 37 -5 2 -13 0 -17 -3z"/>
<path d="M110 165 c0 -3 2 -5 5 -5 3 0 5 2 5 5 0 3 -2 5 -5 5 -3 0 -5 -2 -5
-5z"/>
<path d="M140 165 c0 -3 2 -5 5 -5 3 0 5 2 5 5 0 3 -2 5 -5 5 -3 0 -5 -2 -5
-5z"/>
<path d="M76 423 c-11 -11 -6 -23 9 -23 8 0 15 4 15 9 0 13 -16 22 -24 14z"/>
<path d="M506 423 c-11 -11 -6 -23 9 -23 8 0 15 4 15 9 0 13 -16 22 -24 14z"/>
<path d="M536 383 c-6 -14 -5 -15 5 -6 7 7 10 15 7 18 -3 3 -9 -2 -12 -12z"/>
</g>
</svg>
