<?xml version="1.0" standalone="no"?>
<!DOCTYPE svg PUBLIC "-//W3C//DTD SVG 20010904//EN"
 "http://www.w3.org/TR/2001/REC-SVG-20010904/DTD/svg10.dtd">
<svg version="1.0" xmlns="http://www.w3.org/2000/svg"
 width="56.000000pt" height="56.000000pt" viewBox="0 0 56.000000 56.000000"
 preserveAspectRatio="xMidYMid meet">
<metadata>
Created by potrace 1.16, written by Peter Selinger 2001-2019
</metadata>
<g transform="translate(0.000000,56.000000) scale(0.100000,-0.100000)"
fill="#000000" stroke="none">
<path d="M178 463 c6 -2 18 -2 25 0 6 3 1 5 -13 5 -14 0 -19 -2 -12 -5z"/>
<path d="M135 437 c-31 -48 -8 -137 37 -137 26 0 23 -11 -14 -41 -36 -30 -34
-66 3 -56 15 4 28 -2 45 -21 l23 -27 -31 -26 c-36 -31 -31 -49 16 -49 40 0 71
21 63 43 -3 9 1 18 10 21 9 4 17 5 17 4 1 -2 6 -16 12 -33 8 -24 16 -31 43
-33 52 -5 60 12 23 51 l-32 33 30 23 c17 12 38 38 47 56 15 32 15 37 -2 74
-10 22 -26 48 -37 57 -18 17 -18 16 -3 -26 8 -23 15 -50 15 -60 0 -16 -36 -58
-44 -49 -32 38 -69 103 -81 142 -16 53 -31 77 -49 77 -6 0 -5 -4 3 -9 17 -11
25 -51 11 -51 -6 0 -10 5 -10 11 0 15 -18 2 -31 -23 -10 -18 -9 -20 7 -14 10
4 15 4 11 0 -4 -4 -2 -13 5 -21 9 -11 7 -18 -8 -31 -10 -9 -13 -10 -6 -3 6 8
12 20 12 25 0 6 -7 0 -16 -12 -18 -27 -51 -26 -68 1 -9 14 -7 20 6 28 16 9 16
12 3 32 -13 20 -13 26 1 45 8 12 13 22 10 22 -3 0 -12 -10 -21 -23z m149 -139
c13 -21 -19 -72 -40 -64 -10 4 -13 2 -8 -7 5 -9 4 -9 -6 0 -12 11 -10 18 9 44
12 17 21 33 18 35 -9 9 -49 -66 -43 -81 7 -18 28 -19 44 -3 9 9 12 8 12 -7 1
-14 5 -11 14 11 19 42 36 51 53 29 17 -24 17 -56 -1 -80 -14 -19 -15 -19 -37
0 -13 11 -18 13 -11 4 30 -39 -30 -39 -69 0 -42 43 -41 92 4 119 36 23 46 23
61 0z m-113 -81 c-8 -8 -14 -7 -23 2 -11 10 -9 15 7 27 18 13 20 13 23 -2 2
-9 -1 -21 -7 -27z m181 -84 c10 -9 18 -23 18 -31 0 -12 -2 -12 -17 -1 -11 10
-14 10 -9 2 4 -7 3 -13 -2 -13 -11 0 -22 24 -22 46 0 18 9 18 32 -3z m-106 -5
c4 -6 2 -14 -4 -16 -7 -2 -10 -7 -8 -11 3 -4 -8 -7 -25 -7 -35 0 -37 8 -6 29
27 20 34 20 43 5z"/>
<path d="M150 225 c0 -3 2 -5 5 -5 3 0 5 2 5 5 0 3 -2 5 -5 5 -3 0 -5 -2 -5
-5z"/>
</g>
</svg>
