<?xml version="1.0" standalone="no"?>
<!DOCTYPE svg PUBLIC "-//W3C//DTD SVG 20010904//EN"
 "http://www.w3.org/TR/2001/REC-SVG-20010904/DTD/svg10.dtd">
<svg version="1.0" xmlns="http://www.w3.org/2000/svg"
 width="56.000000pt" height="56.000000pt" viewBox="0 0 56.000000 56.000000"
 preserveAspectRatio="xMidYMid meet">
<metadata>
Created by potrace 1.16, written by Peter Selinger 2001-2019
</metadata>
<g transform="translate(0.000000,56.000000) scale(0.100000,-0.100000)"
fill="#000000" stroke="none">
<path d="M245 462 c-39 -22 -51 -35 -60 -64 -5 -20 -13 -40 -17 -44 -14 -13
-9 -42 10 -56 9 -7 23 -29 29 -48 18 -48 3 -60 -45 -35 -30 16 -39 29 -51 70
-13 45 -15 48 -22 25 -12 -42 -10 -89 6 -119 16 -33 65 -77 95 -86 16 -5 19
-10 10 -20 -9 -10 -7 -16 9 -24 11 -6 26 -11 33 -10 7 0 4 4 -7 9 -16 6 -14 8
13 7 22 0 29 -3 20 -8 -10 -7 -10 -9 2 -9 9 0 24 14 33 30 20 33 28 35 58 19
16 -8 18 -14 9 -24 -14 -17 -1 -26 49 -31 28 -2 43 2 55 15 15 16 14 22 -19
87 -20 38 -43 81 -53 96 -24 38 -8 45 32 14 l35 -26 28 24 c25 21 26 25 13 41
-22 26 -110 65 -147 65 -27 0 -33 4 -33 21 0 11 -5 30 -12 42 -7 12 -11 32 -9
45 3 28 -2 27 -64 -6z m45 3 c-10 -12 -10 -19 -2 -27 16 -16 15 -28 -2 -28 -8
0 -21 -9 -29 -20 -8 -11 -16 -19 -18 -17 -2 1 2 -3 9 -10 30 -26 -18 -75 -59
-61 -16 5 -21 41 -7 49 10 6 14 23 17 66 1 7 22 23 49 37 57 30 58 30 42 11z
m0 -81 c0 -8 -5 -12 -10 -9 -6 4 -8 11 -5 16 9 14 15 11 15 -7z m146 -60 c27
-7 32 -29 8 -38 -19 -7 -77 31 -68 45 3 6 13 8 21 5 8 -4 26 -9 39 -12z m-100
-18 c3 -8 11 -13 19 -10 14 6 29 -22 19 -37 -3 -5 0 -9 6 -9 6 0 8 -4 5 -10
-3 -5 -11 -10 -16 -10 -6 0 -8 4 -5 9 3 5 -3 19 -13 32 -16 20 -21 21 -35 10
-9 -7 -23 -10 -32 -7 -15 6 -15 8 1 26 21 23 43 26 51 6z m154 -38 c0 -16 -3
-19 -11 -11 -6 6 -8 16 -5 22 11 17 16 13 16 -11z m20 7 c0 -3 -2 -5 -5 -5 -3
0 -5 2 -5 5 0 3 2 5 5 5 3 0 5 -2 5 -5z m-40 -26 c0 -6 -4 -7 -10 -4 -5 3 -10
11 -10 16 0 6 5 7 10 4 6 -3 10 -11 10 -16z m-135 -11 c12 -11 -11 -28 -38
-28 -27 0 -57 19 -57 35 0 12 9 14 43 9 23 -4 46 -11 52 -16z m-191 -62 c10
-15 16 -29 13 -33 -9 -9 -36 16 -53 49 -17 33 -8 61 10 30 6 -11 19 -31 30
-46z m196 23 c0 -15 -32 -31 -54 -27 -14 3 -24 2 -23 -1 3 -12 -28 -51 -40
-51 -7 0 -15 11 -19 25 -10 41 15 60 80 60 31 0 56 -3 56 -6z m74 -25 c20 -19
20 -23 -1 -46 -22 -24 -60 -23 -73 3 -23 42 40 78 74 43z m-204 -99 c0 -3 -2
-5 -5 -5 -3 0 -5 2 -5 5 0 3 2 5 5 5 3 0 5 -2 5 -5z m177 -12 c-4 -3 -10 -3
-14 0 -3 4 0 7 7 7 7 0 10 -3 7 -7z m78 -3 c-3 -5 -11 -10 -16 -10 -6 0 -7 5
-4 10 3 6 11 10 16 10 6 0 7 -4 4 -10z m-38 -6 c-3 -3 -12 -4 -19 -1 -8 3 -5
6 6 6 11 1 17 -2 13 -5z"/>
<path d="M200 315 c0 -3 2 -5 5 -5 3 0 5 2 5 5 0 3 -2 5 -5 5 -3 0 -5 -2 -5
-5z"/>
<path d="M360 275 c0 -3 2 -5 5 -5 3 0 5 2 5 5 0 3 -2 5 -5 5 -3 0 -5 -2 -5
-5z"/>
</g>
</svg>
