<?xml version="1.0" standalone="no"?>
<!DOCTYPE svg PUBLIC "-//W3C//DTD SVG 20010904//EN"
 "http://www.w3.org/TR/2001/REC-SVG-20010904/DTD/svg10.dtd">
<svg version="1.0" xmlns="http://www.w3.org/2000/svg"
 width="56.000000pt" height="56.000000pt" viewBox="0 0 56.000000 56.000000"
 preserveAspectRatio="xMidYMid meet">
<metadata>
Created by potrace 1.16, written by Peter Selinger 2001-2019
</metadata>
<g transform="translate(0.000000,56.000000) scale(0.100000,-0.100000)"
fill="#000000" stroke="none">
<path d="M176 532 c-3 -5 1 -15 9 -22 17 -14 21 -70 5 -70 -5 0 -10 6 -10 14
0 24 -21 30 -27 8 -4 -17 -50 -48 -58 -40 -2 2 -10 23 -18 48 -8 25 -19 45
-23 45 -23 0 -46 -113 -47 -227 -2 -111 -1 -118 22 -140 l24 -23 -8 25 c-14
44 -18 151 -6 163 8 8 11 1 11 -23 1 -19 7 -52 14 -72 11 -30 11 -38 0 -42
-18 -7 -6 -44 27 -86 l27 -36 -21 -9 c-12 -6 -22 -17 -22 -25 0 -11 14 -16 58
-18 50 -3 64 1 92 22 19 15 41 26 50 26 9 0 24 4 34 10 23 12 56 -10 56 -37 0
-15 9 -18 67 -20 39 0 71 3 75 9 3 6 -8 23 -26 37 -34 29 -42 71 -18 106 26
38 47 119 46 179 l0 61 -17 -42 c-9 -24 -19 -43 -22 -43 -3 0 -13 20 -23 44
-22 53 -101 130 -160 156 -56 24 -104 33 -111 22z m43 -11 c10 -6 10 -10 1
-16 -7 -4 -19 0 -28 9 -14 13 -14 16 -2 16 8 0 21 -4 29 -9z m-159 -26 c0 -8
-4 -15 -10 -15 -5 0 -7 7 -4 15 4 8 8 15 10 15 2 0 4 -7 4 -15z m-19 -58 c-8
-8 -11 -7 -11 4 0 20 13 34 18 19 3 -7 -1 -17 -7 -23z m139 -72 c2 -5 -3 -23
-10 -38 -10 -20 -16 -24 -22 -15 -5 9 -8 8 -8 -5 0 -11 11 -22 29 -28 24 -9
29 -15 27 -37 -4 -40 -46 -42 -67 -3 -12 20 -14 32 -6 40 7 7 2 14 -16 22 -30
14 -43 39 -25 50 9 6 6 14 -12 34 l-24 25 -12 -27 -12 -28 -1 30 c-1 42 32 44
61 5 19 -26 23 -28 33 -13 7 10 19 14 29 10 13 -5 16 1 17 41 l2 47 7 -50 c4
-27 8 -54 10 -60z m135 55 c9 -10 22 -18 29 -17 6 1 23 -24 39 -57 21 -43 25
-61 17 -71 -9 -11 -21 -4 -60 33 -26 26 -63 59 -81 75 -33 26 -33 28 -15 42
27 20 49 19 71 -5z m4 -97 c50 -39 49 -103 -1 -103 -17 0 -18 -3 -8 -15 10
-12 9 -15 -8 -15 -11 0 -25 7 -32 15 -8 10 -9 15 -1 15 6 0 18 11 27 25 14 21
14 30 4 55 -7 17 -15 29 -17 26 -3 -2 0 -14 7 -26 15 -29 4 -57 -31 -75 -16
-9 -29 -21 -29 -29 0 -17 34 -48 50 -44 7 2 13 -11 14 -35 5 -66 -55 -78 -110
-23 -50 50 -46 70 23 124 20 16 21 22 14 92 -5 41 -6 79 -4 83 3 4 20 -5 38
-20 19 -15 47 -38 64 -50z m-109 5 c0 -18 -2 -20 -9 -8 -6 8 -7 18 -5 22 9 14
14 9 14 -14z m-113 -59 c20 -22 23 -31 14 -47 -6 -11 -8 -27 -5 -36 7 -19 -4
-38 -17 -30 -6 4 -6 11 2 20 8 9 8 14 1 14 -13 0 -32 64 -31 105 0 17 3 23 6
15 3 -8 17 -27 30 -41z m7 15 c5 -14 4 -15 -9 -4 -17 14 -19 20 -6 20 5 0 12
-7 15 -16z m386 -12 c0 -17 -42 -52 -62 -52 -17 0 -14 5 18 29 45 34 44 34 44
23z m-230 -71 c0 -6 -4 -13 -10 -16 -5 -3 -10 1 -10 9 0 9 5 16 10 16 6 0 10
-4 10 -9z m20 -26 c0 -8 -4 -15 -10 -15 -5 0 -10 7 -10 15 0 8 5 15 10 15 6 0
10 -7 10 -15z m103 -5 c34 -27 51 -76 30 -85 -14 -5 -14 -7 3 -20 24 -17 8
-37 -24 -28 -17 4 -21 10 -17 24 5 14 2 17 -9 13 -22 -8 -66 22 -66 45 0 19
36 71 49 71 5 0 20 -9 34 -20z m-73 0 c0 -5 -4 -10 -10 -10 -5 0 -10 5 -10 10
0 6 5 10 10 10 6 0 10 -4 10 -10z m-230 -35 c0 -3 -2 -5 -5 -5 -3 0 -5 2 -5 5
0 3 2 5 5 5 3 0 5 -2 5 -5z m35 -23 c8 8 65 -54 59 -63 -6 -11 -41 1 -57 19
-8 10 -18 28 -21 42 -6 18 -5 21 3 10 5 -8 13 -12 16 -8z m45 -88 c0 -12 -4
-14 -12 -7 -7 6 -20 13 -28 16 -9 3 -3 6 13 6 19 1 27 -4 27 -15z m331 0 c12
-14 11 -16 -5 -13 -11 2 -21 10 -24 17 -5 17 13 15 29 -4z m-352 -11 c3 -2 -9
-3 -27 -1 -18 1 -32 6 -32 10 0 8 49 0 59 -9z m266 7 c3 -6 -3 -10 -14 -10
-12 0 -21 5 -21 10 0 13 27 13 35 0z m40 0 c3 -5 -1 -10 -9 -10 -9 0 -16 5
-16 10 0 6 4 10 9 10 6 0 13 -4 16 -10z"/>
<path d="M155 230 c3 -5 8 -10 11 -10 3 0 2 5 -1 10 -3 6 -8 10 -11 10 -3 0
-2 -4 1 -10z"/>
<path d="M346 385 c27 -78 43 -117 44 -100 0 11 -12 43 -25 70 -14 28 -22 41
-19 30z"/>
</g>
</svg>
