<?xml version="1.0" standalone="no"?>
<!DOCTYPE svg PUBLIC "-//W3C//DTD SVG 20010904//EN"
 "http://www.w3.org/TR/2001/REC-SVG-20010904/DTD/svg10.dtd">
<svg version="1.0" xmlns="http://www.w3.org/2000/svg"
 width="56.000000pt" height="56.000000pt" viewBox="0 0 56.000000 56.000000"
 preserveAspectRatio="xMidYMid meet">
<metadata>
Created by potrace 1.16, written by Peter Selinger 2001-2019
</metadata>
<g transform="translate(0.000000,56.000000) scale(0.100000,-0.100000)"
fill="#000000" stroke="none">
<path d="M213 403 c26 -3 42 -12 54 -29 15 -23 15 -26 -3 -40 -17 -14 -17 -15
-1 -10 9 3 17 2 17 -3 0 -14 -36 -41 -55 -41 -14 0 -15 3 -5 15 11 13 7 15
-25 15 -32 0 -36 -2 -25 -15 9 -11 9 -15 1 -15 -7 0 -9 -5 -5 -12 4 -7 3 -8
-4 -4 -14 8 -52 -10 -52 -25 0 -5 10 -14 23 -19 17 -7 18 -9 4 -9 -10 -1 -20
-8 -24 -16 -7 -19 25 -56 46 -54 51 5 72 -2 81 -26 12 -30 45 -33 60 -5 9 17
14 18 30 8 15 -10 22 -9 38 5 10 9 28 17 39 17 11 0 28 9 38 20 17 18 17 21 1
45 -26 39 -46 42 -73 11 -21 -25 -23 -25 -23 -7 0 22 -36 97 -51 107 -5 3 -9
13 -9 23 0 10 -9 30 -21 45 -16 20 -28 26 -57 24 l-37 -1 38 -4z m92 -114 c0
-7 -8 -15 -17 -17 -18 -3 -25 18 -11 32 10 10 28 1 28 -15z m21 -31 c4 -7 3
-8 -4 -4 -8 5 -12 -6 -13 -36 l-1 -43 -8 40 c-5 27 -4 42 4 47 14 10 14 10 22
-4z m-184 -20 c-6 -6 -15 -8 -19 -4 -4 4 -1 11 7 16 19 12 27 3 12 -12z m118
3 c0 -4 -22 -8 -50 -7 -27 0 -50 4 -50 8 0 4 16 7 35 6 19 -1 38 2 41 5 8 8
24 -1 24 -12z m95 -55 c6 1 15 -6 22 -15 9 -13 8 -20 -4 -33 -9 -10 -22 -18
-30 -18 -15 0 -18 26 -3 35 5 3 6 13 3 21 -4 11 -8 12 -13 4 -4 -7 -8 0 -8 16
0 42 12 54 18 19 3 -16 10 -30 15 -29z m-155 29 c0 -8 -9 -15 -20 -15 -22 0
-27 15 -7 23 21 9 27 7 27 -8z m56 5 c8 0 14 -7 14 -16 0 -11 -5 -14 -16 -10
-9 3 -22 6 -30 6 -8 0 -14 7 -14 16 0 11 5 14 16 10 9 -3 22 -6 30 -6z m180
-16 c16 -24 16 -26 -1 -42 -10 -9 -15 -12 -11 -6 3 7 -1 15 -10 18 -8 3 -12 2
-9 -4 3 -6 2 -10 -4 -10 -19 0 -34 40 -20 56 17 21 36 17 55 -12z m-281 -24
c0 -22 -29 -18 -33 3 -3 14 1 18 15 15 10 -2 18 -10 18 -18z m89 6 c15 -5 16
-9 6 -21 -18 -22 -40 -18 -41 8 -1 21 -1 21 -9 -3 -6 -22 -8 -23 -15 -6 -5 11
-3 21 5 26 13 8 17 8 54 -4z m66 -21 c0 -3 -2 -5 -5 -5 -3 0 -5 2 -5 5 0 3 2
5 5 5 3 0 5 -2 5 -5z m-30 -34 c14 -27 13 -31 -9 -31 -10 0 -21 9 -24 19 -9
35 16 43 33 12z"/>
<path d="M385 200 c-4 -6 1 -7 11 -3 11 4 22 -1 30 -12 8 -10 14 -14 14 -9 0
26 -42 44 -55 24z"/>
<path d="M146 378 c-20 -28 -20 -59 -1 -84 13 -17 13 -16 2 14 -10 28 -9 38 5
63 20 34 16 39 -6 7z"/>
<path d="M150 336 c0 -12 9 -16 33 -15 21 1 25 3 12 6 -11 3 -26 10 -32 15
-10 8 -13 6 -13 -6z"/>
<path d="M220 336 c0 -9 5 -16 10 -16 6 0 10 4 10 9 0 6 -4 13 -10 16 -5 3
-10 -1 -10 -9z"/>
</g>
</svg>
