<?xml version="1.0" standalone="no"?>
<!DOCTYPE svg PUBLIC "-//W3C//DTD SVG 20010904//EN"
 "http://www.w3.org/TR/2001/REC-SVG-20010904/DTD/svg10.dtd">
<svg version="1.0" xmlns="http://www.w3.org/2000/svg"
 width="56.000000pt" height="56.000000pt" viewBox="0 0 56.000000 56.000000"
 preserveAspectRatio="xMidYMid meet">
<metadata>
Created by potrace 1.16, written by Peter Selinger 2001-2019
</metadata>
<g transform="translate(0.000000,56.000000) scale(0.100000,-0.100000)"
fill="#000000" stroke="none">
<path d="M165 476 c-9 -13 -17 -36 -19 -52 -6 -42 -16 -64 -31 -64 -21 0 -65
-40 -65 -60 0 -9 7 -23 14 -30 13 -10 13 -16 -2 -46 -15 -32 -15 -38 -1 -62 8
-15 29 -32 46 -37 26 -9 30 -14 22 -28 -6 -9 -7 -22 -4 -27 11 -17 68 -11 90
10 22 21 80 27 147 15 47 -9 61 14 30 48 -26 27 -27 97 -1 97 20 0 49 31 49
52 0 8 -9 23 -20 33 -18 16 -25 17 -54 7 -42 -15 -46 -15 -46 3 0 8 4 15 8 15
9 0 67 85 78 113 12 33 -47 16 -93 -25 -17 -16 -25 -18 -41 -9 -12 6 -30 11
-41 11 -17 0 -21 6 -21 30 0 37 -23 40 -45 6z m35 -3 c0 -18 -20 -56 -20 -39
0 6 -7 1 -15 -10 -8 -10 -15 -14 -15 -8 0 6 3 14 8 18 4 4 8 12 8 17 3 22 5
23 15 9 8 -12 9 -10 4 8 -4 13 -2 22 4 22 6 0 11 -8 11 -17z m190 -18 c-7 -8
-18 -15 -26 -15 -7 0 -26 -11 -41 -25 l-28 -25 23 -6 c12 -3 22 -10 22 -15 0
-15 -16 -10 -35 11 -15 17 -16 22 -4 36 18 22 70 54 88 54 11 0 11 -3 1 -15z
m-118 -56 c30 -39 16 -76 -34 -91 -34 -10 -45 -9 -67 3 -14 9 -25 21 -23 28 1
7 -2 10 -8 6 -5 -3 -10 -1 -10 4 0 6 5 11 11 11 5 0 7 5 3 12 -4 7 -3 8 4 4 7
-4 12 -13 12 -21 0 -8 5 -17 10 -20 14 -9 7 29 -8 48 -11 13 -9 18 10 31 32
23 77 16 100 -15z m93 11 c-10 -11 -28 -20 -39 -20 -20 1 -20 1 3 20 13 11 30
20 39 20 13 0 12 -3 -3 -20z m-235 -85 c5 -14 12 -25 15 -25 4 0 3 4 0 10 -3
5 8 2 24 -8 17 -9 26 -19 20 -20 -5 -2 -16 1 -23 7 -21 18 -56 -32 -56 -79 0
-43 -25 -74 -41 -49 -12 19 -11 46 1 54 6 3 10 -3 10 -14 0 -11 4 -22 9 -26 6
-3 5 10 0 31 -8 28 -7 41 6 60 16 25 13 44 -8 44 -7 0 -6 -4 3 -10 11 -7 12
-12 3 -21 -15 -15 -33 -3 -33 21 0 18 34 50 52 50 5 0 13 -11 18 -25z m281 -5
c21 -12 25 -40 8 -57 -9 -9 -18 -8 -35 4 -27 17 -30 33 -12 51 15 15 15 15 39
2z m-161 -25 c0 -3 -2 -5 -5 -5 -3 0 -5 2 -5 5 0 3 2 5 5 5 3 0 5 -2 5 -5z
m76 -26 c10 -17 -13 -36 -27 -22 -12 12 -4 33 11 33 5 0 12 -5 16 -11z m-166
-13 c0 -16 -18 -31 -27 -22 -8 8 5 36 17 36 5 0 10 -6 10 -14z m110 -27 c0
-12 -21 -11 -40 1 -13 9 -13 11 0 19 15 10 40 -3 40 -20z m-51 -8 c27 -21 23
-51 -7 -51 -26 0 -54 33 -46 54 8 21 23 20 53 -3z m135 2 c5 -11 0 -22 -11
-31 -16 -11 -19 -10 -24 10 -8 34 23 53 35 21z m-51 -43 c-9 -13 -9 -21 -2
-25 16 -10 -10 -35 -37 -35 -35 0 -39 19 -6 26 28 6 29 8 21 36 -11 39 -2 55
19 34 14 -13 14 -20 5 -36z m-153 9 c0 -11 -4 -17 -10 -14 -5 3 -10 13 -10 21
0 8 5 14 10 14 6 0 10 -9 10 -21z m195 -19 c-3 -5 -12 -10 -18 -10 -7 0 -6 4
3 10 19 12 23 12 15 0z m-157 -66 c29 -20 20 -34 -24 -34 -37 0 -39 2 -24 31
13 23 19 24 48 3z m202 6 c0 -5 -9 -10 -21 -10 -11 0 -17 5 -14 10 3 6 13 10
21 10 8 0 14 -4 14 -10z"/>
<path d="M220 374 c-11 -12 -11 -18 2 -30 14 -14 17 -13 31 15 14 29 14 31 -3
31 -9 0 -23 -7 -30 -16z m20 -19 c0 -3 -2 -5 -5 -5 -3 0 -5 2 -5 5 0 3 2 5 5
5 3 0 5 -2 5 -5z"/>
</g>
</svg>
