<?xml version="1.0" standalone="no"?>
<!DOCTYPE svg PUBLIC "-//W3C//DTD SVG 20010904//EN"
 "http://www.w3.org/TR/2001/REC-SVG-20010904/DTD/svg10.dtd">
<svg version="1.0" xmlns="http://www.w3.org/2000/svg"
 width="56.000000pt" height="56.000000pt" viewBox="0 0 56.000000 56.000000"
 preserveAspectRatio="xMidYMid meet">
<metadata>
Created by potrace 1.16, written by Peter Selinger 2001-2019
</metadata>
<g transform="translate(0.000000,56.000000) scale(0.100000,-0.100000)"
fill="#000000" stroke="none">
<path d="M154 525 c-4 -8 -4 -24 -1 -35 3 -11 2 -18 -3 -15 -4 3 -10 -2 -14
-10 -3 -8 -12 -12 -20 -9 -37 14 -72 -36 -45 -63 13 -13 -7 -89 -32 -118 -24
-28 -30 -55 -21 -89 8 -29 32 -49 32 -26 0 6 -4 8 -10 5 -5 -3 -10 -1 -10 5 0
7 6 10 13 7 6 -2 11 -14 10 -26 -2 -12 2 -31 8 -42 8 -16 7 -25 -6 -39 -16
-17 -15 -19 2 -28 10 -5 35 -12 55 -15 32 -5 41 -2 57 19 28 35 107 30 99 -6
-2 -8 6 -15 17 -17 11 -2 30 -9 43 -16 17 -8 28 -8 41 0 9 6 29 9 43 6 31 -6
45 12 26 34 -10 12 -10 17 -1 20 29 10 64 48 88 94 21 43 24 61 22 129 -2 63
-7 85 -25 109 -12 17 -22 35 -22 40 0 17 -45 41 -71 39 -16 -2 -23 2 -21 11 3
16 -16 41 -32 41 -7 0 -21 -7 -32 -16 -18 -15 -18 -15 3 -5 35 17 47 13 22 -8
-23 -19 -24 -19 -53 6 -23 20 -38 24 -77 22 -27 -2 -52 0 -55 4 -12 11 -24 8
-30 -8z m16 0 c0 -3 -2 -5 -5 -5 -3 0 -5 2 -5 5 0 3 2 5 5 5 3 0 5 -2 5 -5z
m90 -23 c-21 -11 -38 -14 -42 -8 -12 17 2 26 40 26 l37 0 -35 -18z m27 -19 c2
-6 -7 -10 -21 -9 -18 1 -22 4 -14 14 12 14 30 12 35 -5z m-82 -23 c-4 -7 2 -9
17 -5 16 4 33 -1 51 -15 15 -12 31 -19 36 -15 14 8 25 -15 13 -27 -8 -8 -23
-6 -52 6 -52 21 -89 20 -112 -1 -13 -12 -22 -13 -29 -6 -15 15 -7 48 11 48 8
0 21 6 28 13 16 15 46 16 37 2z m199 -5 c-6 -16 -24 -21 -24 -7 0 11 11 22 21
22 5 0 6 -7 3 -15z m30 0 c-4 -8 -1 -22 5 -29 9 -11 9 -19 -1 -35 -15 -24 -28
-26 -48 -8 -8 6 -7 3 3 -9 19 -23 12 -40 -10 -23 -19 16 -17 25 17 75 32 45
44 56 34 29z m-320 -65 c17 -16 28 -32 23 -36 -11 -12 -67 47 -66 70 0 13 3
16 6 7 3 -7 20 -26 37 -41z m121 3 c43 -21 43 -47 -1 -51 -38 -4 -80 27 -71
51 8 21 27 21 72 0z m136 -57 c13 -14 11 -26 -5 -26 -7 0 -25 -9 -39 -20 -38
-30 -42 -7 -7 33 16 19 31 41 31 48 1 8 3 5 6 -6 3 -11 9 -24 14 -29z m159 25
c5 -11 10 -32 9 -48 -1 -27 -1 -27 -13 7 l-13 35 -23 -53 c-21 -48 -25 -52
-38 -38 -13 13 -14 20 -3 43 33 73 60 91 81 54z m-442 -49 c-9 -12 -5 -11 10
2 20 17 27 18 56 8 18 -7 44 -12 58 -12 14 0 31 -7 39 -16 18 -22 -4 -34 -66
-34 -72 0 -138 44 -109 73 14 14 24 -6 12 -21z m320 -24 c-3 -7 -11 -13 -18
-13 -7 0 -15 6 -17 13 -3 7 4 12 17 12 13 0 20 -5 18 -12z m-41 -24 c3 -8 1
-20 -6 -27 -6 -6 -11 -20 -11 -31 0 -20 0 -20 -22 1 -20 21 -20 23 -4 47 19
30 34 33 43 10z m-174 -31 c23 2 48 6 56 8 8 2 16 -4 19 -13 5 -24 -57 -48
-105 -41 -42 6 -88 27 -98 43 -4 6 -2 17 5 25 9 11 17 10 46 -7 26 -15 46 -19
77 -15z m-156 -8 c-1 -19 -5 -31 -10 -26 -7 7 0 61 8 61 2 0 3 -16 2 -35z
m372 2 c8 -11 6 -18 -8 -31 -22 -20 -41 -14 -41 13 0 32 28 42 49 18z m121
-17 c0 -17 -48 -60 -67 -60 -13 0 -9 8 17 35 35 36 50 43 50 25z m-342 -47
c67 7 100 -5 108 -38 9 -38 -15 -62 -45 -43 -24 15 -26 30 -9 61 7 14 1 11
-19 -11 -17 -17 -41 -32 -53 -32 -34 0 -78 28 -95 60 -24 46 -18 51 23 24 32
-22 44 -25 90 -21z m292 37 c0 -5 -4 -10 -9 -10 -6 0 -13 5 -16 10 -3 6 1 10
9 10 9 0 16 -4 16 -10z m-20 -20 c0 -5 -4 -10 -10 -10 -5 0 -10 5 -10 10 0 6
5 10 10 10 6 0 10 -4 10 -10z m-50 -49 c0 -5 -7 -14 -15 -21 -13 -10 -19 -10
-35 5 -20 18 -26 46 -14 58 8 7 64 -30 64 -42z m20 29 c0 -5 -4 -10 -10 -10
-5 0 -10 5 -10 10 0 6 5 10 10 10 6 0 10 -4 10 -10z m-301 -95 c13 -14 21 -28
18 -32 -7 -7 -53 34 -68 60 -9 16 -8 17 8 8 10 -6 29 -22 42 -36z m-39 -11 c0
-16 -2 -16 -24 -8 -13 5 -14 9 -5 20 13 16 29 9 29 -12z m210 -14 c0 -5 -7
-10 -16 -10 -8 0 -12 5 -9 10 3 6 10 10 16 10 5 0 9 -4 9 -10z m54 -6 c22 -9
20 -24 -3 -24 -21 0 -34 13 -24 24 8 7 8 7 27 0z m71 -4 c3 -5 -1 -10 -9 -10
-9 0 -16 5 -16 10 0 6 4 10 9 10 6 0 13 -4 16 -10z"/>
</g>
</svg>
