<?xml version="1.0" standalone="no"?>
<!DOCTYPE svg PUBLIC "-//W3C//DTD SVG 20010904//EN"
 "http://www.w3.org/TR/2001/REC-SVG-20010904/DTD/svg10.dtd">
<svg version="1.0" xmlns="http://www.w3.org/2000/svg"
 width="56.000000pt" height="56.000000pt" viewBox="0 0 56.000000 56.000000"
 preserveAspectRatio="xMidYMid meet">
<metadata>
Created by potrace 1.16, written by Peter Selinger 2001-2019
</metadata>
<g transform="translate(0.000000,56.000000) scale(0.100000,-0.100000)"
fill="#000000" stroke="none">
<path d="M205 326 c-11 -8 -25 -11 -32 -9 -10 4 -13 -5 -9 -39 5 -55 20 -85
46 -93 11 -3 20 -11 20 -16 0 -13 -18 -11 -23 4 -4 9 -6 9 -6 -1 -1 -7 6 -15
14 -18 12 -5 13 -10 4 -20 -13 -16 -2 -37 16 -30 7 2 17 0 22 -5 6 -6 33 -12
61 -14 43 -4 55 -1 71 16 23 25 38 96 23 111 -16 16 -34 -1 -31 -30 2 -15 -2
-36 -8 -47 -11 -19 -12 -19 -22 6 -16 42 -16 53 -2 77 38 69 -79 156 -144 108z
m96 -6 c10 -6 19 -18 19 -26 0 -13 -5 -12 -26 5 -15 12 -32 21 -39 21 -12 0
-50 -37 -50 -48 0 -4 -6 -7 -13 -8 -6 -1 -10 2 -7 6 3 5 1 11 -5 15 -5 3 -10
11 -10 17 0 5 8 2 18 -9 9 -10 13 -13 7 -5 -21 31 61 56 106 32z m-27 -20 c14
-5 26 -17 26 -25 0 -17 -37 -35 -57 -28 -16 6 -23 39 -10 52 13 13 10 13 41 1z
m-62 -67 c-13 -3 -19 -9 -16 -15 4 -7 2 -8 -4 -4 -21 13 -13 26 16 25 23 -2
24 -2 4 -6z m108 -37 c-13 -13 -35 7 -25 24 5 8 11 8 21 -1 10 -8 12 -15 4
-23z m90 -11 c0 -14 -4 -25 -10 -25 -5 0 -10 11 -10 25 0 14 5 25 10 25 6 0
10 -11 10 -25z m-170 10 c0 -3 -2 -5 -5 -5 -3 0 -5 2 -5 5 0 3 2 5 5 5 3 0 5
-2 5 -5z m30 -22 c0 -15 2 -16 10 -3 5 8 12 11 17 7 9 -10 -16 -27 -39 -27
-18 0 -24 20 -11 33 12 12 23 7 23 -10z m14 -49 c9 -8 16 -11 16 -5 0 6 5 11
11 11 6 0 8 -7 5 -16 -5 -13 -3 -14 6 -6 9 7 18 6 32 -3 17 -13 17 -14 -5 -13
-32 1 -79 18 -79 29 0 11 -23 7 -32 -6 -4 -5 -10 -6 -15 -2 -8 9 15 27 34 27
6 0 19 -7 27 -16z"/>
<path d="M237 294 c-3 -4 -2 -15 3 -24 11 -21 50 -16 50 6 0 19 -17 17 -30 -3
-10 -16 -11 -15 -7 5 5 21 -3 29 -16 16z"/>
</g>
</svg>
