<?xml version="1.0" standalone="no"?>
<!DOCTYPE svg PUBLIC "-//W3C//DTD SVG 20010904//EN"
 "http://www.w3.org/TR/2001/REC-SVG-20010904/DTD/svg10.dtd">
<svg version="1.0" xmlns="http://www.w3.org/2000/svg"
 width="56.000000pt" height="56.000000pt" viewBox="0 0 56.000000 56.000000"
 preserveAspectRatio="xMidYMid meet">
<metadata>
Created by potrace 1.16, written by Peter Selinger 2001-2019
</metadata>
<g transform="translate(0.000000,56.000000) scale(0.100000,-0.100000)"
fill="#000000" stroke="none">
<path d="M237 433 c-12 -21 -17 -86 -8 -97 6 -7 12 -39 13 -72 l3 -59 -44 0
c-27 0 -46 -5 -49 -13 -5 -17 26 -63 41 -61 7 1 20 -1 30 -6 28 -12 87 2 115
27 31 29 52 78 52 123 0 24 5 35 14 35 31 0 23 18 -22 50 -45 33 -126 80 -136
80 -3 0 -7 -3 -9 -7z m63 -29 c52 -27 65 -40 30 -29 -11 3 -20 2 -20 -4 0 -5
6 -11 13 -14 6 -2 5 -3 -3 -3 -8 1 -14 9 -14 19 2 16 -13 21 -53 20 -7 -1 -13
8 -13 18 0 24 1 24 60 -7z m95 -64 c24 -16 26 -20 11 -20 -21 0 -56 -27 -56
-43 0 -5 7 -4 15 3 13 11 15 8 15 -14 0 -36 -23 -87 -49 -110 -30 -27 -114
-29 -119 -3 -5 23 46 23 65 0 13 -16 13 -16 4 4 -9 18 -8 23 9 28 34 11 54 50
42 83 -19 48 -18 66 3 79 27 15 26 15 60 -7z m-195 -185 c0 -21 -17 -18 -30 4
-15 28 -13 33 10 21 11 -6 20 -17 20 -25z"/>
</g>
</svg>
