<?xml version="1.0" standalone="no"?>
<!DOCTYPE svg PUBLIC "-//W3C//DTD SVG 20010904//EN"
 "http://www.w3.org/TR/2001/REC-SVG-20010904/DTD/svg10.dtd">
<svg version="1.0" xmlns="http://www.w3.org/2000/svg"
 width="56.000000pt" height="56.000000pt" viewBox="0 0 56.000000 56.000000"
 preserveAspectRatio="xMidYMid meet">
<metadata>
Created by potrace 1.16, written by Peter Selinger 2001-2019
</metadata>
<g transform="translate(0.000000,56.000000) scale(0.100000,-0.100000)"
fill="#000000" stroke="none">
<path d="M153 525 c-18 -13 -26 -13 -41 -4 -21 13 -52 6 -52 -12 0 -7 12 -10
30 -7 25 4 30 2 24 -11 -3 -9 -10 -27 -15 -41 -8 -22 -14 -25 -44 -22 -26 3
-36 0 -41 -12 -10 -26 4 -31 26 -11 36 33 55 6 63 -90 1 -20 9 -33 25 -40 27
-12 27 -17 3 -39 -12 -11 -21 -14 -26 -7 -3 6 1 11 9 11 8 0 17 4 20 9 3 5
-15 3 -42 -3 -56 -15 -64 -34 -25 -67 16 -13 35 -44 43 -69 26 -78 72 -104 91
-52 5 15 12 34 15 42 4 11 10 7 21 -15 44 -85 97 -98 158 -41 28 27 36 41 33
63 -2 23 3 31 32 48 79 45 110 191 62 297 -26 60 -51 67 -135 42 -47 -14 -75
-31 -115 -68 l-53 -49 7 56 c5 44 3 62 -10 82 -19 29 -33 31 -63 10z m65 -56
c1 -19 -4 -52 -12 -74 -9 -22 -15 -31 -14 -20 1 11 -4 31 -11 43 -15 28 -5 44
13 20 10 -14 12 -10 11 22 l0 39 -22 -27 c-14 -16 -22 -21 -23 -13 0 19 31 52
44 48 6 -2 12 -19 14 -38z m220 -3 l24 -13 -26 -16 c-38 -26 -51 -21 -32 11
l17 27 -23 -27 c-13 -16 -29 -28 -35 -28 -5 0 -27 -13 -48 -30 -43 -34 -53
-36 -62 -14 -7 19 40 71 82 90 38 17 73 17 103 0z m-272 -37 c13 -26 14 -33 2
-40 -19 -12 -23 -11 -41 9 -18 20 -12 62 9 62 7 0 21 -14 30 -31z m313 -2 c14
-18 -5 -37 -36 -37 -27 0 -31 24 -5 39 23 14 28 13 41 -2z m-344 -47 c18 -20
18 -21 -1 -38 -10 -9 -13 -10 -6 -2 16 19 15 35 -1 21 -16 -13 -27 -5 -27 21
0 24 12 23 35 -2z m250 9 c17 -27 -84 -84 -108 -60 -13 13 8 33 58 56 37 17
42 18 50 4z m83 -25 c23 -16 29 -39 13 -49 -16 -9 -80 35 -74 51 7 18 33 18
61 -2z m-249 -30 c-6 -7 -15 -11 -21 -8 -5 3 -4 12 3 20 6 7 15 11 21 8 5 -3
4 -12 -3 -20z m222 -16 c44 -24 47 -33 20 -47 -14 -8 -29 -4 -66 21 -41 27
-45 33 -29 39 29 11 33 11 75 -13z m-54 -30 c28 -18 59 -38 70 -44 14 -9 15
-15 6 -25 -10 -10 -24 -7 -70 14 -32 14 -70 29 -85 32 -32 8 -39 41 -10 48 32
9 38 7 89 -25z m-212 2 c3 -6 -4 -10 -17 -10 -18 0 -20 2 -8 10 19 12 18 12
25 0z m15 -25 c-7 -8 -18 -15 -24 -15 -6 0 -2 7 8 15 25 19 32 19 16 0z m193
-37 c52 -23 60 -43 21 -58 -43 -17 -132 38 -118 74 7 18 19 16 97 -16z m-113
-7 c7 -14 4 -17 -14 -17 -16 0 -23 6 -24 23 -2 26 22 22 38 -6z m-170 -22 c12
-16 19 -33 16 -36 -9 -10 -60 31 -64 51 -6 27 25 18 48 -15z m108 9 c16 -16
15 -43 -3 -58 -12 -10 -17 -8 -26 13 -19 41 1 73 29 45z m85 -80 c4 -24 9 -56
13 -73 5 -24 4 -28 -7 -18 -7 7 -18 39 -26 70 l-13 58 5 -50 c4 -46 3 -49 -11
-30 -15 21 -12 59 8 82 16 19 25 8 31 -39z m69 26 c20 -10 27 -19 20 -26 -11
-11 -41 1 -62 26 -17 21 1 21 42 0z m-22 -60 c12 -35 8 -64 -8 -64 -8 0 -32
78 -32 106 0 27 27 -2 40 -42z m-174 -8 l-5 -31 15 28 c20 38 28 34 8 -4 -14
-29 -17 -30 -32 -16 -13 13 -13 19 -2 32 7 8 10 18 6 22 -3 3 -6 1 -6 -5 0 -7
-5 -12 -11 -12 -8 0 -8 5 1 15 18 22 33 7 26 -29z m216 7 c3 -5 3 -3 2 4 -2 6
4 14 12 17 21 8 17 -9 -9 -40 l-23 -26 -11 36 c-10 33 -10 35 7 26 10 -5 20
-13 22 -17z"/>
<path d="M204 338 c-4 -7 -3 -8 4 -4 12 7 16 16 8 16 -3 0 -8 -5 -12 -12z"/>
</g>
</svg>
