<?xml version="1.0" standalone="no"?>
<!DOCTYPE svg PUBLIC "-//W3C//DTD SVG 20010904//EN"
 "http://www.w3.org/TR/2001/REC-SVG-20010904/DTD/svg10.dtd">
<svg version="1.0" xmlns="http://www.w3.org/2000/svg"
 width="56.000000pt" height="56.000000pt" viewBox="0 0 56.000000 56.000000"
 preserveAspectRatio="xMidYMid meet">
<metadata>
Created by potrace 1.16, written by Peter Selinger 2001-2019
</metadata>
<g transform="translate(0.000000,56.000000) scale(0.100000,-0.100000)"
fill="#000000" stroke="none">
<path d="M188 410 c-53 -54 -60 -82 -28 -123 11 -14 17 -32 14 -41 -10 -25 15
-84 47 -111 38 -31 90 -33 129 -5 31 22 35 45 17 93 l-10 29 -13 -24 c-7 -12
-13 -27 -13 -33 0 -5 6 1 13 14 11 20 14 21 19 6 11 -28 8 -31 -30 -30 -34 0
-38 3 -43 30 -5 23 0 37 22 63 37 44 36 76 -4 113 -18 16 -42 38 -53 48 -20
18 -21 18 -67 -29z m62 3 c0 -7 -7 -13 -15 -13 -16 0 -19 9 -9 35 5 13 8 14
15 3 5 -7 9 -19 9 -25z m-32 -15 c10 -10 17 -10 33 0 17 11 25 11 45 -3 27
-17 29 -28 13 -76 -15 -45 -35 -59 -80 -59 -42 0 -79 35 -79 75 0 22 34 75 49
75 4 0 13 -6 19 -12z m20 -169 c2 -5 7 -7 12 -4 4 3 6 -4 3 -15 -9 -35 -73
-16 -73 21 0 18 4 20 28 14 15 -3 29 -11 30 -16z m18 -78 c26 -30 24 -36 -7
-26 -17 6 -19 9 -8 16 11 6 8 9 -8 9 -12 0 -27 9 -34 21 -10 19 -9 20 12 14
12 -4 32 -19 45 -34z m114 5 c0 -3 -5 -8 -12 -12 -7 -4 -8 -3 -4 4 7 12 16 16
16 8z m-35 -26 c-3 -5 -13 -10 -21 -10 -8 0 -12 5 -9 10 3 6 13 10 21 10 8 0
12 -4 9 -10z"/>
<path d="M187 373 c-12 -12 -7 -23 10 -23 15 0 14 -2 -3 -14 -26 -20 -8 -50
33 -54 59 -6 71 53 13 64 -16 4 -30 13 -30 20 0 15 -12 18 -23 7z m51 -45 c-5
-16 -48 -24 -48 -10 0 11 17 20 38 21 8 1 12 -5 10 -11z"/>
<path d="M277 373 c-12 -11 -8 -23 8 -23 8 0 15 7 15 15 0 16 -12 20 -23 8z"/>
</g>
</svg>
