<?xml version="1.0" standalone="no"?>
<!DOCTYPE svg PUBLIC "-//W3C//DTD SVG 20010904//EN"
 "http://www.w3.org/TR/2001/REC-SVG-20010904/DTD/svg10.dtd">
<svg version="1.0" xmlns="http://www.w3.org/2000/svg"
 width="56.000000pt" height="56.000000pt" viewBox="0 0 56.000000 56.000000"
 preserveAspectRatio="xMidYMid meet">
<metadata>
Created by potrace 1.16, written by Peter Selinger 2001-2019
</metadata>
<g transform="translate(0.000000,56.000000) scale(0.100000,-0.100000)"
fill="#000000" stroke="none">
<path d="M244 457 c-19 -17 -28 -35 -30 -61 -3 -33 -2 -35 16 -26 22 12 26 40
9 57 -8 8 -4 15 12 27 25 17 47 20 73 10 24 -9 19 -22 -13 -39 -17 -8 -31 -25
-33 -37 -2 -15 -10 -23 -23 -24 -11 -1 -24 -3 -30 -4 -5 -2 -18 0 -28 5 -37
16 -87 -41 -87 -102 l0 -25 40 36 c22 20 41 36 43 36 1 0 2 -24 2 -53 1 -65
29 -114 79 -141 50 -27 68 -17 63 36 -1 24 3 57 10 75 24 60 34 124 22 139 -9
11 -9 18 0 28 15 18 2 47 -31 70 -32 22 -63 20 -94 -7z m-10 -63 c3 -8 2 -12
-4 -9 -6 3 -10 10 -10 16 0 14 7 11 14 -7z m101 -34 c-3 -5 -11 -10 -16 -10
-6 0 -7 5 -4 10 3 6 11 10 16 10 6 0 7 -4 4 -10z m-145 -8 c0 -4 -16 -24 -36
-43 -34 -32 -36 -33 -29 -9 10 36 65 80 65 52z m77 -9 c-4 -3 -10 -3 -14 0 -3
4 0 7 7 7 7 0 10 -3 7 -7z m93 -2 c0 -12 -20 -25 -27 -18 -7 7 6 27 18 27 5 0
9 -4 9 -9z m-60 -20 c0 -5 -14 -26 -31 -47 l-31 -39 7 35 c8 38 33 73 46 64 5
-3 9 -9 9 -13z m-70 -29 c0 -5 -7 -17 -15 -28 -14 -19 -14 -19 -15 2 0 11 3
24 7 27 9 10 23 9 23 -1z m104 -36 c-7 -18 -25 -17 -31 1 -2 6 4 13 14 15 23
5 25 4 17 -16z m-32 -38 c-16 -16 -37 4 -28 28 6 16 8 16 23 1 13 -13 15 -19
5 -29z m-80 -10 c-7 -7 -12 -8 -12 -2 0 6 3 14 7 17 3 4 9 5 12 2 2 -3 -1 -11
-7 -17z m48 4 c0 -4 -12 -15 -26 -26 l-26 -18 17 31 c13 27 36 35 35 13z m7
-38 c8 -21 -13 -42 -28 -27 -13 13 -5 43 11 43 6 0 13 -7 17 -16z m41 -48 c3
-13 -1 -17 -14 -14 -11 2 -20 11 -22 22 -3 13 1 17 14 14 11 -2 20 -11 22 -22z"/>
</g>
</svg>
