<?xml version="1.0" standalone="no"?>
<!DOCTYPE svg PUBLIC "-//W3C//DTD SVG 20010904//EN"
 "http://www.w3.org/TR/2001/REC-SVG-20010904/DTD/svg10.dtd">
<svg version="1.0" xmlns="http://www.w3.org/2000/svg"
 width="56.000000pt" height="56.000000pt" viewBox="0 0 56.000000 56.000000"
 preserveAspectRatio="xMidYMid meet">
<metadata>
Created by potrace 1.16, written by Peter Selinger 2001-2019
</metadata>
<g transform="translate(0.000000,56.000000) scale(0.100000,-0.100000)"
fill="#000000" stroke="none">
<path d="M385 541 c-48 -22 -79 -54 -100 -104 -16 -39 -21 -42 -43 -28 -12 7
-12 12 -1 29 15 24 0 50 -20 38 -17 -11 -13 -29 4 -22 18 6 20 -5 4 -21 -9 -9
-17 -1 -33 30 -22 41 -76 87 -103 87 -20 0 -53 -60 -53 -97 0 -44 16 -83 50
-118 30 -32 53 -79 43 -89 -4 -3 -16 -6 -28 -6 -32 0 -44 -19 -66 -102 -30
-117 -27 -121 40 -54 53 52 61 57 80 46 16 -8 20 -17 16 -31 -11 -35 34 -70
108 -83 l39 -7 -36 35 c-20 20 -45 36 -58 36 -22 0 -22 1 6 23 26 21 33 22 61
12 18 -6 39 -15 46 -21 8 -5 43 -23 79 -38 36 -16 73 -33 84 -38 14 -8 12 0
-10 31 -30 42 -59 57 -94 48 -12 -3 -20 0 -20 8 0 10 11 12 40 8 31 -4 40 -2
40 9 0 9 -7 21 -15 28 -8 7 -15 17 -15 22 0 5 22 -9 49 -31 27 -23 52 -41 55
-41 13 0 5 32 -28 107 -51 118 -52 121 -22 144 71 56 73 159 5 195 -36 18 -56
17 -104 -5z m-236 -47 c12 -15 21 -38 21 -52 0 -25 0 -25 -20 -7 -20 18 -21
18 -42 -3 -12 -12 -18 -25 -14 -29 4 -4 15 3 25 15 15 20 19 22 29 9 10 -12 8
-22 -10 -50 -27 -43 -42 -46 -63 -13 -32 49 -32 128 1 160 19 19 42 9 73 -30z
m347 38 c34 -22 43 -85 19 -132 -22 -43 -52 -61 -81 -48 -18 9 -31 6 -64 -11
-47 -24 -60 -20 -80 30 -12 27 -10 34 17 72 44 63 152 114 189 89z m-285 -134
c0 -10 2 -10 6 0 4 10 9 10 24 -4 17 -15 17 -19 4 -45 -18 -33 -19 -61 -4 -76
8 -8 4 -16 -15 -28 -25 -17 -28 -17 -46 0 -13 11 -18 25 -14 39 3 12 -2 38
-10 58 -16 37 -16 37 12 51 35 19 42 20 43 5z m59 -69 c-10 -17 -30 -27 -30
-13 0 15 22 44 31 39 5 -4 5 -13 -1 -26z m-120 0 c0 -6 -4 -7 -10 -4 -5 3 -10
11 -10 16 0 6 5 7 10 4 6 -3 10 -11 10 -16z m327 -94 c29 -55 52 -106 53 -113
0 -7 -43 22 -95 64 -52 42 -95 83 -95 91 0 21 48 65 68 61 10 -2 38 -43 69
-103z m-197 41 c0 -3 -5 -8 -12 -12 -7 -4 -8 -3 -4 4 7 12 16 16 16 8z m-145
-66 c17 -19 16 -21 -41 -84 -33 -35 -60 -63 -61 -62 -3 3 34 143 41 155 11 17
41 13 61 -9z m75 -8 l30 -19 -29 -27 c-18 -17 -34 -24 -44 -20 -19 7 -22 20
-7 29 6 4 10 14 9 23 -3 38 -1 39 41 14z m170 3 c9 -11 10 -19 3 -26 -6 -6
-13 -1 -21 16 -13 28 -2 34 18 10z m-70 -35 c0 -25 -27 -37 -43 -21 -9 10 -8
16 7 27 27 19 36 18 36 -6z m27 -22 c-3 -8 -6 -5 -6 6 -1 11 2 17 5 13 3 -3 4
-12 1 -19z m-107 -3 c0 -3 -2 -5 -5 -5 -3 0 -5 2 -5 5 0 3 2 5 5 5 3 0 5 -2 5
-5z m211 -11 c9 -11 7 -14 -15 -14 -14 0 -26 5 -26 11 0 5 -5 7 -12 3 -6 -4
-8 -3 -5 2 9 15 45 14 58 -2z m-21 -49 c0 -3 -2 -5 -5 -5 -3 0 -5 2 -5 5 0 3
2 5 5 5 3 0 5 -2 5 -5z m20 -10 c0 -3 -2 -5 -5 -5 -3 0 -5 2 -5 5 0 3 2 5 5 5
3 0 5 -2 5 -5z m-220 -20 c0 -3 -2 -5 -5 -5 -3 0 -5 2 -5 5 0 3 2 5 5 5 3 0 5
-2 5 -5z m20 -10 c0 -3 -2 -5 -5 -5 -3 0 -5 2 -5 5 0 3 2 5 5 5 3 0 5 -2 5 -5z"/>
</g>
</svg>
