<?xml version="1.0" standalone="no"?>
<!DOCTYPE svg PUBLIC "-//W3C//DTD SVG 20010904//EN"
 "http://www.w3.org/TR/2001/REC-SVG-20010904/DTD/svg10.dtd">
<svg version="1.0" xmlns="http://www.w3.org/2000/svg"
 width="56.000000pt" height="56.000000pt" viewBox="0 0 56.000000 56.000000"
 preserveAspectRatio="xMidYMid meet">
<metadata>
Created by potrace 1.16, written by Peter Selinger 2001-2019
</metadata>
<g transform="translate(0.000000,56.000000) scale(0.100000,-0.100000)"
fill="#000000" stroke="none">
<path d="M186 356 c-8 -14 -13 -31 -10 -39 3 -8 1 -18 -4 -21 -12 -7 3 -82 24
-114 9 -13 20 -20 27 -16 7 4 9 3 4 -2 -5 -5 -22 -14 -40 -20 -33 -11 -49 -34
-24 -34 9 0 17 -4 19 -10 2 -6 19 -4 44 5 23 8 54 12 70 10 16 -2 33 -4 38 -4
5 -1 6 -4 2 -8 -11 -12 -56 -11 -49 1 3 5 1 6 -5 2 -19 -12 -14 -25 11 -24 12
0 37 7 55 15 18 8 41 11 52 8 22 -7 26 5 9 22 -13 13 11 55 50 89 l25 21 -27
27 c-18 17 -37 26 -59 26 -18 0 -48 9 -66 20 -27 17 -31 24 -22 35 15 18 -10
31 -66 34 -34 1 -44 -3 -58 -23z m44 11 c0 -2 -10 -12 -22 -23 l-23 -19 19 23
c18 21 26 27 26 19z m65 -7 c3 -5 3 -10 -2 -10 -4 0 -19 -3 -33 -6 -24 -5 -24
-5 -6 10 23 19 32 20 41 6z m-65 -45 c0 -3 -2 -5 -5 -5 -3 0 -5 2 -5 5 0 3 2
5 5 5 3 0 5 -2 5 -5z m-30 -25 c0 -5 -7 -10 -16 -10 -8 0 -12 5 -9 10 3 6 10
10 16 10 5 0 9 -4 9 -10z m47 -14 c-4 -9 11 -32 34 -55 21 -23 39 -43 39 -46
0 -11 -37 -4 -60 12 -24 16 -24 16 -11 0 12 -15 11 -17 -2 -17 -9 0 -21 8 -26
18 -8 13 -11 14 -12 2 -1 -19 -28 39 -29 63 0 10 4 15 10 12 5 -3 20 1 32 9
28 20 32 20 25 2z m39 -27 c1 -25 -1 -28 -8 -15 -5 10 -7 24 -4 32 8 21 11 17
12 -17z m117 24 c-7 -2 -19 -2 -25 0 -7 3 -2 5 12 5 14 0 19 -2 13 -5z m51
-12 c4 -5 -2 -7 -13 -4 -10 3 -22 0 -25 -6 -9 -13 -53 -15 -61 -2 -3 6 12 12
32 14 21 2 43 4 50 5 6 1 14 -2 17 -7z m-29 -36 c-30 -14 -94 -21 -82 -8 7 6
71 20 97 21 8 0 2 -6 -15 -13z m45 10 c0 -3 -2 -5 -5 -5 -3 0 -5 2 -5 5 0 3 2
5 5 5 3 0 5 -2 5 -5z m-131 -79 c35 -22 -34 -35 -83 -16 -18 6 -25 6 -23 -1 1
-6 -9 -17 -23 -26 -23 -14 -24 -14 -6 1 20 16 20 16 0 16 -12 1 -6 7 19 19 38
17 93 21 116 7z m-162 -33 c-4 -3 -10 -3 -14 0 -3 4 0 7 7 7 7 0 10 -3 7 -7z
m203 -3 c-20 -13 -43 -13 -35 0 3 6 16 10 28 10 18 0 19 -2 7 -10z m30 -5 c0
-3 -2 -5 -5 -5 -3 0 -5 2 -5 5 0 3 2 5 5 5 3 0 5 -2 5 -5z"/>
<path d="M310 105 c0 -3 2 -5 5 -5 3 0 5 2 5 5 0 3 -2 5 -5 5 -3 0 -5 -2 -5
-5z"/>
</g>
</svg>
