<?xml version="1.0" standalone="no"?>
<!DOCTYPE svg PUBLIC "-//W3C//DTD SVG 20010904//EN"
 "http://www.w3.org/TR/2001/REC-SVG-20010904/DTD/svg10.dtd">
<svg version="1.0" xmlns="http://www.w3.org/2000/svg"
 width="56.000000pt" height="56.000000pt" viewBox="0 0 56.000000 56.000000"
 preserveAspectRatio="xMidYMid meet">
<metadata>
Created by potrace 1.16, written by Peter Selinger 2001-2019
</metadata>
<g transform="translate(0.000000,56.000000) scale(0.100000,-0.100000)"
fill="#000000" stroke="none">
<path d="M260 473 c-19 -8 -59 -19 -90 -24 -63 -10 -100 -42 -100 -88 0 -16
-7 -34 -15 -41 -18 -15 -10 -30 16 -30 17 0 19 -5 14 -33 -7 -36 13 -97 42
-129 15 -17 14 -18 -9 -18 -28 0 -53 -23 -43 -40 3 -6 10 -8 15 -5 5 3 11 1
14 -3 3 -5 28 -5 58 0 77 14 108 16 113 8 3 -4 -4 -10 -15 -13 -10 -3 -21 -2
-23 2 -2 3 -3 2 -2 -4 2 -12 60 -10 113 4 32 9 47 9 57 1 10 -8 15 -8 20 0 13
21 -10 30 -48 18 -35 -11 -58 -6 -44 9 8 7 62 13 124 12 53 0 61 14 31 54 -37
49 -39 62 -12 88 28 26 31 39 8 39 -10 0 -14 5 -10 15 3 8 9 22 13 31 5 14 2
16 -21 10 -25 -6 -26 -5 -17 13 17 32 14 54 -6 46 -10 -4 -26 -7 -35 -7 -9 0
-22 -6 -28 -14 -7 -7 -16 -11 -21 -8 -5 3 -15 -8 -22 -24 l-12 -30 -44 17
c-60 22 -62 37 -6 44 62 6 84 27 30 27 l-38 0 22 24 c21 23 22 24 2 29 -10 2
-23 1 -28 -4 -4 -4 -35 -11 -68 -13 -55 -5 -56 -5 -15 3 25 5 57 14 71 19 15
6 29 9 32 6 2 -3 7 2 10 11 4 8 5 15 4 14 -1 0 -18 -7 -37 -16z m11 -53 c-13
-11 -37 -20 -55 -19 l-31 0 40 19 c54 25 77 25 46 0z m-151 6 c0 -2 -8 -10
-17 -17 -16 -13 -17 -12 -4 4 13 16 21 21 21 13z m38 -16 c-14 -4 -32 -11 -40
-15 -7 -3 -4 1 6 9 11 9 29 16 40 15 17 -1 16 -2 -6 -9z m135 -27 c-7 -2 -21
-2 -30 0 -10 3 -4 5 12 5 17 0 24 -2 18 -5z m130 -51 c-16 -19 -34 -37 -41
-40 -21 -7 8 57 36 79 38 29 41 5 5 -39z m-36 14 c-12 -18 -24 -29 -25 -24 -5
11 26 58 38 58 5 0 -1 -15 -13 -34z m-219 12 c-7 -19 -38 -22 -38 -4 0 10 9
16 21 16 12 0 19 -5 17 -12z m183 -29 c-5 -13 -10 -19 -10 -12 -1 15 10 45 15
40 3 -2 0 -15 -5 -28z m-231 16 c0 -3 -2 -5 -5 -5 -3 0 -5 2 -5 5 0 3 2 5 5 5
3 0 5 -2 5 -5z m-30 -30 c-7 -8 -19 -15 -27 -15 -13 0 -13 3 -3 15 7 8 19 15
27 15 13 0 13 -3 3 -15z m75 5 c10 -16 -15 -40 -41 -40 -25 0 -32 14 -14 25 6
4 8 11 5 16 -4 5 5 9 19 9 14 0 28 -5 31 -10z m304 -14 c-17 -36 -69 -55 -69
-24 0 8 59 48 72 48 4 0 3 -11 -3 -24z m-22 -103 c-4 -4 -63 22 -76 33 -2 2 2
11 10 20 12 15 16 13 42 -16 16 -18 26 -34 24 -37z m24 47 c-12 -11 -28 -17
-34 -13 -12 8 20 33 42 33 12 -1 10 -6 -8 -20z m-193 -35 c-16 -7 -23 -5 -34
10 -23 30 -16 36 20 17 32 -16 33 -18 14 -27z m125 -6 c81 -41 103 -76 40 -64
-58 11 -86 29 -89 59 -3 31 -4 31 49 5z m-55 -9 c3 -9 -1 -11 -14 -7 -13 5
-11 0 9 -17 29 -27 84 -46 130 -46 15 0 27 -4 27 -10 0 -16 -52 -12 -117 11
-63 21 -78 37 -67 71 6 21 25 20 32 -2z m-174 -4 c36 -15 96 -73 96 -93 0 -17
-24 -15 -85 6 -35 13 -55 27 -68 49 -29 50 -7 65 57 38z m130 -22 c3 -8 3 -14
0 -14 -12 0 -44 21 -44 29 0 14 38 1 44 -15z m-194 -84 c0 -5 8 -10 18 -10 14
0 15 2 2 10 -12 8 -12 10 5 9 11 0 29 -4 40 -9 19 -8 19 -9 -3 -9 -13 -1 -32
-6 -43 -11 -14 -8 -19 -7 -19 1 0 6 -7 9 -15 5 -15 -5 -20 5 -8 17 10 10 23 8
23 -3z m204 -30 c-10 -4 -21 -6 -24 -3 -8 7 24 22 34 16 5 -4 1 -10 -10 -13z
m106 10 c0 -5 -2 -10 -4 -10 -3 0 -8 5 -11 10 -3 6 -1 10 4 10 6 0 11 -4 11
-10z"/>
</g>
</svg>
