<?xml version="1.0" standalone="no"?>
<!DOCTYPE svg PUBLIC "-//W3C//DTD SVG 20010904//EN"
 "http://www.w3.org/TR/2001/REC-SVG-20010904/DTD/svg10.dtd">
<svg version="1.0" xmlns="http://www.w3.org/2000/svg"
 width="56.000000pt" height="56.000000pt" viewBox="0 0 56.000000 56.000000"
 preserveAspectRatio="xMidYMid meet">
<metadata>
Created by potrace 1.16, written by Peter Selinger 2001-2019
</metadata>
<g transform="translate(0.000000,56.000000) scale(0.100000,-0.100000)"
fill="#000000" stroke="none">
<path d="M258 544 c12 -8 22 -24 22 -35 0 -46 -55 -112 -106 -129 -49 -16 -90
-70 -105 -134 -7 -31 -20 -63 -31 -72 -25 -23 -23 -34 8 -34 20 0 24 -4 19
-19 -5 -18 -2 -19 52 -15 57 5 57 5 31 -11 -16 -9 -28 -22 -28 -30 0 -21 11
-19 50 10 44 32 49 32 17 -1 -31 -31 -26 -53 6 -30 62 44 106 64 154 68 60 6
63 -6 4 -16 -23 -3 -44 -14 -50 -24 -8 -15 -4 -17 30 -16 45 1 101 22 93 35
-3 5 -16 1 -30 -8 -20 -13 -27 -14 -37 -3 -10 10 -9 12 5 7 9 -3 24 0 34 8 13
9 24 10 36 4 13 -7 18 -6 18 2 0 7 7 17 16 24 13 9 14 16 6 31 -8 16 -5 28 19
64 59 88 72 200 29 253 -18 21 -18 22 -39 3 -16 -15 -21 -16 -21 -4 0 8 -7 23
-16 34 -8 10 -13 14 -10 7 3 -6 3 -19 0 -28 -5 -12 -11 -7 -24 23 -10 21 -24
42 -33 45 -13 5 -13 1 1 -33 17 -45 10 -60 -41 -87 -28 -14 -29 -14 -22 3 21
49 17 70 -15 97 -17 15 -39 27 -48 27 -13 0 -12 -3 6 -16z m62 -60 c0 -13 -13
-33 -31 -48 -43 -37 -53 -32 -23 12 17 24 24 46 21 64 -3 27 -3 27 15 11 10
-9 18 -26 18 -39z m70 51 c0 -3 -2 -5 -5 -5 -3 0 -5 2 -5 5 0 3 2 5 5 5 3 0 5
-2 5 -5z m20 -61 c0 -34 -40 -61 -132 -89 -50 -15 -102 -38 -120 -53 -17 -15
-33 -26 -35 -24 -2 1 -3 0 -3 -3 0 -3 0 -9 0 -14 0 -5 15 6 33 24 23 23 55 39
106 55 41 12 81 24 90 27 14 4 14 3 1 -6 -8 -6 -45 -20 -82 -31 -80 -24 -120
-56 -153 -119 -13 -25 -24 -39 -25 -31 0 13 -1 13 -11 0 -9 -13 -10 -13 -6 0
2 8 10 14 16 12 14 -3 14 4 0 30 -8 16 -8 19 1 13 9 -5 10 -2 6 12 -13 40 81
113 145 113 28 0 122 44 142 68 13 14 17 28 12 44 -5 18 -4 20 4 8 6 -8 11
-24 11 -36z m5 -63 l-37 -36 31 46 c17 26 32 53 32 60 1 8 4 3 6 -10 4 -18 -5
-33 -32 -60z m114 12 c11 -44 11 -57 -3 -104 -8 -30 -25 -69 -37 -88 -18 -29
-22 -32 -35 -20 -12 12 -8 29 27 118 22 57 38 105 36 108 -2 2 -19 -36 -37
-84 -32 -85 -50 -120 -50 -95 0 7 -23 26 -51 44 l-51 31 23 20 c20 15 17 15
-14 -3 -34 -20 -127 -50 -152 -50 -5 1 1 7 15 15 29 17 160 59 175 57 6 -1 35
23 65 53 30 30 59 54 65 52 5 -2 16 -26 24 -54z m-185 -112 c3 -5 -1 -11 -9
-15 -22 -8 -55 -67 -55 -99 0 -16 10 -38 24 -51 l23 -24 -28 -6 c-16 -3 -65
-3 -109 1 -75 6 -80 7 -80 29 0 18 7 24 34 29 27 6 38 2 59 -19 14 -14 33 -26
41 -26 8 0 22 -3 31 -6 11 -4 7 3 -9 19 -38 38 -36 95 5 142 30 34 62 45 73
26z m-214 -6 c0 -3 -2 -5 -5 -5 -3 0 -5 2 -5 5 0 3 2 5 5 5 3 0 5 -2 5 -5z
m40 -95 c8 -5 11 -12 7 -16 -4 -4 -15 0 -24 9 -18 18 -8 23 17 7z m-40 -15 c0
-3 -2 -5 -5 -5 -3 0 -5 2 -5 5 0 3 2 5 5 5 3 0 5 -2 5 -5z m-35 -14 c7 -12
-26 -31 -51 -31 -16 0 -16 1 1 20 19 21 40 26 50 11z m364 -52 c-8 -5 -23 -9
-33 -9 -18 0 -18 2 4 25 21 23 25 24 33 9 6 -11 5 -19 -4 -25z m-359 -3 c0 -3
-5 -8 -12 -12 -7 -4 -8 -3 -4 4 7 12 16 16 16 8z m237 -52 c-3 -3 -12 -4 -19
-1 -8 3 -5 6 6 6 11 1 17 -2 13 -5z"/>
<path d="M103 270 c0 -23 3 -28 9 -16 5 9 5 23 0 32 -6 12 -9 7 -9 -16z"/>
<path d="M454 397 c-49 -70 -73 -107 -62 -97 13 11 119 163 116 165 -2 2 -26
-29 -54 -68z"/>
<path d="M470 110 c-13 -9 -13 -10 0 -10 8 0 -11 -12 -42 -27 -32 -14 -55 -30
-52 -34 3 -5 -2 -9 -11 -9 -10 0 -13 5 -9 12 5 8 0 7 -11 -2 -37 -31 14 -23
83 12 37 19 75 33 85 31 20 -5 22 8 5 25 -14 14 -28 15 -48 2z m45 -10 c3 -5
2 -10 -4 -10 -5 0 -13 5 -16 10 -3 6 -2 10 4 10 5 0 13 -4 16 -10z"/>
</g>
</svg>
