<?xml version="1.0" standalone="no"?>
<!DOCTYPE svg PUBLIC "-//W3C//DTD SVG 20010904//EN"
 "http://www.w3.org/TR/2001/REC-SVG-20010904/DTD/svg10.dtd">
<svg version="1.0" xmlns="http://www.w3.org/2000/svg"
 width="56.000000pt" height="56.000000pt" viewBox="0 0 56.000000 56.000000"
 preserveAspectRatio="xMidYMid meet">
<metadata>
Created by potrace 1.16, written by Peter Selinger 2001-2019
</metadata>
<g transform="translate(0.000000,56.000000) scale(0.100000,-0.100000)"
fill="#000000" stroke="none">
<path d="M109 414 c-11 -14 -10 -19 10 -35 28 -23 67 -25 78 -5 7 13 13 12 46
-2 l38 -17 -35 -27 c-29 -24 -36 -25 -46 -13 -7 8 -18 15 -24 15 -6 0 -3 -5 7
-11 14 -8 16 -14 6 -25 -14 -17 -26 -18 -32 -1 -2 6 -2 1 0 -12 4 -21 2 -23
-10 -12 -10 7 -17 8 -21 2 -4 -5 -2 -12 2 -15 5 -3 8 -22 6 -41 -1 -24 2 -38
12 -42 11 -4 11 -9 -1 -33 -8 -15 -11 -30 -8 -34 13 -13 43 -5 53 14 6 10 17
17 24 14 8 -3 17 -1 21 5 10 17 21 13 33 -14 11 -24 45 -34 56 -16 3 4 1 22
-3 39 -12 39 12 80 35 61 9 -7 12 -20 9 -33 -5 -17 -4 -18 4 -6 17 24 13 47
-13 64 -23 15 -25 14 -31 -5 -5 -16 -10 -18 -20 -9 -11 9 -11 17 -3 35 6 13 8
31 5 39 -7 18 -38 21 -54 5 -7 -7 -13 -7 -17 0 -10 16 39 43 71 39 23 -2 34
-15 65 -73 36 -69 47 -102 29 -90 -5 3 -12 1 -16 -5 -3 -5 1 -10 10 -10 28 0
27 26 -6 91 -44 86 -92 135 -156 159 -65 24 -106 25 -124 4z m125 -14 c30 -12
60 -27 66 -35 17 -20 8 -19 -32 4 -50 29 -117 46 -129 34 -8 -8 -7 -13 2 -18
8 -6 10 -4 4 4 -5 9 0 12 16 9 31 -4 37 -28 7 -28 -31 0 -63 23 -54 38 11 18
59 14 120 -8z m21 -110 c4 6 15 10 26 10 20 0 25 -25 9 -50 -14 -22 -23 -5
-10 19 6 12 8 21 6 21 -3 0 -10 -9 -16 -19 -13 -24 -4 -48 20 -54 11 -3 18
-13 17 -28 -1 -13 2 -36 6 -50 9 -36 -20 -35 -39 2 -13 27 -13 30 7 50 l22 22
-24 -6 c-13 -4 -28 -7 -34 -7 -5 0 -3 -5 5 -10 13 -8 12 -12 -7 -31 -21 -22
-22 -22 -17 -2 6 23 -36 63 -67 63 -11 0 -19 5 -19 11 0 5 6 7 13 3 6 -4 3 3
-8 17 -11 13 -13 18 -4 11 13 -10 20 -8 40 11 18 17 30 21 46 15 13 -4 25 -3
28 2z m-71 -89 c3 -5 -1 -11 -9 -15 -8 -3 -15 0 -15 7 0 8 -4 6 -10 -3 -5 -8
-10 -10 -10 -4 0 22 33 34 44 15z m2 -52 c7 -12 -9 -32 -30 -35 -12 -2 -13 3
-4 22 12 26 23 30 34 13z"/>
<path d="M215 250 c-17 -19 -17 -20 10 -30 16 -6 33 -9 39 -6 6 2 4 5 -6 5
-11 1 -15 7 -11 20 7 27 -11 34 -32 11z m25 -3 c0 -8 -7 -14 -15 -14 -11 0
-12 4 -4 14 6 7 13 13 15 13 2 0 4 -6 4 -13z"/>
</g>
</svg>
