<?xml version="1.0" standalone="no"?>
<!DOCTYPE svg PUBLIC "-//W3C//DTD SVG 20010904//EN"
 "http://www.w3.org/TR/2001/REC-SVG-20010904/DTD/svg10.dtd">
<svg version="1.0" xmlns="http://www.w3.org/2000/svg"
 width="56.000000pt" height="56.000000pt" viewBox="0 0 56.000000 56.000000"
 preserveAspectRatio="xMidYMid meet">
<metadata>
Created by potrace 1.16, written by Peter Selinger 2001-2019
</metadata>
<g transform="translate(0.000000,56.000000) scale(0.100000,-0.100000)"
fill="#000000" stroke="none">
<path d="M430 496 c0 -8 5 -18 10 -21 6 -3 10 -11 10 -16 0 -5 -11 -2 -25 7
-14 9 -34 14 -47 11 -12 -4 -27 -2 -33 3 -7 6 -11 3 -11 -9 0 -13 6 -17 21
-13 19 4 18 3 -2 -12 -25 -19 -31 -45 -10 -47 6 -1 -1 -5 -18 -9 -19 -5 0 -6
50 -4 l80 3 -75 -11 c-73 -10 -74 -10 -45 -24 l30 -14 -30 5 c-25 4 -27 3 -12
-6 21 -13 48 -5 45 13 -6 25 39 20 56 -6 9 -15 12 -26 6 -26 -6 0 -1 -19 11
-41 37 -74 5 -146 -75 -169 -75 -21 -158 9 -182 65 -8 19 -27 41 -44 50 -39
20 -38 33 0 27 36 -5 70 20 70 52 0 18 2 19 11 6 14 -20 2 53 -16 97 -25 60
-106 50 -90 -11 6 -20 5 -20 -6 -2 -29 46 55 101 120 78 19 -7 33 -7 36 -1 4
5 13 5 25 -1 13 -7 21 -7 26 2 4 7 4 10 -1 6 -4 -4 -14 -3 -22 4 -9 7 -17 8
-24 1 -7 -7 -22 -7 -47 0 -31 8 -45 6 -81 -11 -34 -17 -48 -19 -63 -11 -32 17
-43 -5 -13 -25 25 -17 26 -18 9 -31 -17 -12 -15 -14 19 -28 34 -15 51 -37 28
-37 -5 0 -13 -9 -16 -20 -4 -11 -20 -27 -36 -35 -16 -9 -29 -20 -29 -26 0 -9
17 -7 59 9 9 4 12 1 7 -7 -4 -6 -2 -19 5 -27 11 -13 9 -14 -14 -9 -23 6 -28 3
-38 -21 -10 -29 -2 -59 17 -59 5 0 15 -4 22 -8 7 -5 14 -2 18 7 3 9 10 13 15
10 5 -2 17 -1 27 5 14 7 21 5 30 -10 17 -27 17 -28 -33 -40 -25 -6 -48 -16
-51 -21 -8 -13 17 -40 32 -34 7 3 16 1 19 -4 3 -5 30 3 60 19 44 24 62 28 100
23 35 -3 45 -8 41 -19 -9 -23 3 -34 24 -23 12 6 21 6 25 1 3 -6 18 -9 33 -8
34 3 41 32 13 58 -12 11 -21 21 -21 23 0 2 16 32 34 68 50 93 61 145 46 208
-16 68 -80 144 -80 96z m71 -101 c14 -63 4 -102 -21 -84 -9 7 -11 12 -4 15 10
4 2 109 -10 121 -3 3 -3 -17 1 -45 3 -28 1 -64 -5 -81 -9 -24 -8 -29 3 -25 19
8 37 -5 28 -19 -4 -7 -8 -18 -9 -25 -4 -21 -14 -27 -14 -9 0 26 -2 31 -18 43
-8 6 -12 16 -8 22 4 6 0 22 -9 35 -15 23 -14 25 6 30 17 5 20 9 12 19 -11 13
-10 30 2 59 3 10 2 20 -4 24 -6 3 -11 12 -11 18 1 30 50 -48 61 -98z m-98 68
c-7 -2 -19 -2 -25 0 -7 3 -2 5 12 5 14 0 19 -2 13 -5z m-317 -19 c18 -14 18
-14 -6 -3 -31 14 -36 19 -24 19 6 0 19 -7 30 -16z m349 -16 c-1 -19 -8 -24
-40 -26 -70 -6 -73 32 -3 47 41 10 45 8 43 -21z m-265 2 c18 -10 18 -11 -4
-35 -28 -30 -40 -32 -33 -5 3 11 1 18 -4 14 -13 -8 -11 10 3 24 15 15 15 15
38 2z m-83 -37 c-4 -3 -10 -3 -14 0 -3 4 0 7 7 7 7 0 10 -3 7 -7z m53 -78 c0
16 2 17 9 5 5 -8 12 -25 15 -37 6 -20 4 -23 -18 -23 -19 0 -27 7 -32 24 -8 32
6 58 17 30 7 -18 8 -18 9 1z m-45 -35 c-3 -5 -12 -10 -18 -10 -7 0 -6 4 3 10
19 12 23 12 15 0z m-35 -15 c0 -3 -2 -5 -5 -5 -3 0 -5 2 -5 5 0 3 2 5 5 5 3 0
5 -2 5 -5z m64 -71 c15 -14 25 -28 22 -32 -4 -3 -11 0 -16 8 -7 12 -11 12 -26
-1 -15 -13 -16 -12 -10 11 6 19 5 21 -3 10 -6 -8 -11 -12 -11 -8 0 3 -3 13 -6
22 -9 24 17 19 50 -10z m-44 -30 c0 -8 -4 -12 -10 -9 -5 3 -10 13 -10 21 0 8
5 12 10 9 6 -3 10 -13 10 -21z m30 -19 c0 -3 -2 -5 -5 -5 -3 0 -5 2 -5 5 0 3
2 5 5 5 3 0 5 -2 5 -5z m100 -45 c13 -9 13 -11 0 -20 -8 -5 -23 -7 -33 -4 -10
3 -24 0 -32 -6 -12 -10 -15 -10 -15 -1 0 7 -4 9 -10 6 -5 -3 -10 -1 -10 5 0 7
8 9 20 5 11 -3 20 -2 20 4 0 8 12 14 40 20 3 0 12 -4 20 -9z m250 -34 c0 -15
-3 -16 -15 -6 -11 9 -15 9 -15 1 0 -8 -5 -9 -17 -2 -11 6 -24 6 -35 0 -10 -5
-18 -6 -18 -1 0 11 30 38 50 44 21 7 50 -14 50 -36z m-280 0 c0 -3 -4 -8 -10
-11 -5 -3 -10 -1 -10 4 0 6 5 11 10 11 6 0 10 -2 10 -4z"/>
<path d="M420 445 c0 -3 2 -5 5 -5 3 0 5 2 5 5 0 3 -2 5 -5 5 -3 0 -5 -2 -5
-5z"/>
<path d="M185 460 c-3 -5 -1 -10 4 -10 6 0 11 5 11 10 0 6 -2 10 -4 10 -3 0
-8 -4 -11 -10z"/>
<path d="M235 439 c-4 -6 3 -20 15 -31 23 -22 24 -21 51 25 8 15 5 17 -25 17
-19 0 -38 -5 -41 -11z m15 -4 c0 -3 -2 -5 -5 -5 -3 0 -5 2 -5 5 0 3 2 5 5 5 3
0 5 -2 5 -5z m38 -7 c-6 -18 -28 -21 -28 -4 0 9 7 16 16 16 9 0 14 -5 12 -12z"/>
<path d="M295 314 c17 -15 22 -24 13 -20 -50 17 -48 14 12 -17 36 -19 69 -33
73 -30 12 7 0 18 -68 58 -49 29 -55 30 -30 9z m65 -39 c17 -9 30 -18 30 -21 0
-4 -59 23 -69 32 -10 9 13 3 39 -11z"/>
<path d="M300 235 c-7 -8 -18 -15 -26 -15 -28 0 -25 -23 7 -50 42 -36 48 -36
79 -2 13 15 20 24 16 20 -5 -4 -16 7 -26 24 -20 38 -33 44 -50 23z m38 -20
c15 -32 15 -35 1 -35 -5 0 -7 5 -3 12 5 7 3 8 -5 3 -9 -5 -10 -10 -2 -18 16
-16 14 -27 -5 -27 -8 0 -12 5 -9 10 3 6 -1 10 -9 10 -9 0 -13 6 -10 14 4 11 0
13 -15 9 -13 -3 -21 -1 -21 7 0 7 7 10 15 6 8 -3 15 0 15 6 0 7 4 7 14 -1 11
-9 16 -9 22 0 4 8 3 9 -4 5 -7 -4 -12 -1 -12 8 0 24 15 19 28 -9z"/>
</g>
</svg>
