<?xml version="1.0" standalone="no"?>
<!DOCTYPE svg PUBLIC "-//W3C//DTD SVG 20010904//EN"
 "http://www.w3.org/TR/2001/REC-SVG-20010904/DTD/svg10.dtd">
<svg version="1.0" xmlns="http://www.w3.org/2000/svg"
 width="56.000000pt" height="56.000000pt" viewBox="0 0 56.000000 56.000000"
 preserveAspectRatio="xMidYMid meet">
<metadata>
Created by potrace 1.16, written by Peter Selinger 2001-2019
</metadata>
<g transform="translate(0.000000,56.000000) scale(0.100000,-0.100000)"
fill="#000000" stroke="none">
<path d="M192 387 c-17 -18 -22 -31 -17 -47 5 -16 1 -26 -15 -37 -31 -22 -24
-59 12 -55 22 2 26 -1 21 -13 -3 -9 3 -29 15 -45 24 -33 16 -46 -33 -52 -18
-2 -31 -10 -33 -20 -3 -14 3 -16 33 -11 21 3 46 1 60 -7 18 -9 31 -10 55 -1
21 7 38 7 50 1 24 -13 50 -13 50 0 0 6 -10 15 -22 20 l-23 9 23 0 c31 1 85 40
78 56 -2 7 0 17 6 23 8 8 8 15 0 25 -9 10 -8 17 1 26 9 10 9 15 -3 24 -8 7
-14 22 -12 35 4 29 -12 28 -35 -2 -17 -22 -20 -22 -30 -8 -9 15 -12 15 -27 3
-27 -22 -32 -3 -7 29 19 27 20 31 6 36 -9 4 -28 1 -42 -5 -33 -15 -41 -7 -18
19 18 19 17 20 -1 20 -11 0 -29 -7 -41 -15 -19 -14 -22 -13 -25 1 -2 13 -7 11
-26 -9z m47 -21 c-44 -34 -59 -37 -59 -12 0 20 27 40 35 26 4 -7 13 -5 28 5
42 30 39 14 -4 -19z m94 -16 c-10 -11 -29 -32 -43 -46 -30 -31 -34 -62 -11
-89 16 -20 16 -20 -6 -2 -21 18 -21 18 -28 -2 -8 -27 -32 -27 -40 0 -5 15 1
28 24 48 17 15 28 31 23 36 -4 4 -2 5 4 2 7 -4 14 2 17 14 5 19 3 21 -29 16
-82 -14 1 22 99 41 4 1 -1 -7 -10 -18z m83 -58 c-22 -23 -29 -10 -9 18 11 16
18 19 21 11 2 -7 -3 -20 -12 -29z m-220 19 c-3 -5 3 -11 13 -14 12 -3 22 1 25
9 3 8 10 14 16 14 5 0 -1 -13 -16 -29 -28 -32 -74 -47 -74 -25 0 23 4 29 17
26 7 -2 13 1 12 5 -2 13 1 23 7 23 3 0 3 -4 0 -9z m178 -17 c4 -9 4 -19 2 -21
-8 -8 -26 8 -26 23 0 19 16 18 24 -2z m76 -23 c0 -5 -8 -12 -18 -15 -21 -7
-80 -66 -66 -66 5 0 21 7 34 16 22 14 22 12 -3 -10 -29 -26 -21 -34 14 -16 10
6 19 8 19 6 0 -3 -14 -13 -31 -22 -59 -30 -110 7 -69 51 11 12 20 27 20 33 0
7 5 12 10 12 7 0 7 -6 0 -20 -16 -29 1 -24 33 10 28 29 57 40 57 21z m-150
-102 c0 -12 -33 -20 -42 -11 -5 5 -6 16 -2 25 5 13 9 14 25 4 10 -6 19 -15 19
-18z m7 -26 c-4 -3 -10 -3 -14 0 -3 4 0 7 7 7 7 0 10 -3 7 -7z m-72 -13 c4 -6
-9 -10 -32 -9 -34 1 -35 2 -13 9 35 11 38 11 45 0z m35 0 c0 -5 -2 -10 -4 -10
-3 0 -8 5 -11 10 -3 6 -1 10 4 10 6 0 11 -4 11 -10z m-113 -17 c-4 -3 -7 0 -7
7 0 7 3 10 7 7 3 -4 3 -10 0 -14z m100 -10 c-4 -3 -10 -3 -14 0 -3 4 0 7 7 7
7 0 10 -3 7 -7z m123 2 c0 -3 -2 -5 -5 -5 -3 0 -5 2 -5 5 0 3 2 5 5 5 3 0 5
-2 5 -5z"/>
<path d="M200 370 c0 -5 5 -10 11 -10 5 0 7 5 4 10 -3 6 -8 10 -11 10 -2 0 -4
-4 -4 -10z"/>
<path d="M160 285 c0 -3 2 -5 5 -5 3 0 5 2 5 5 0 3 -2 5 -5 5 -3 0 -5 -2 -5
-5z"/>
</g>
</svg>
