<?xml version="1.0" standalone="no"?>
<!DOCTYPE svg PUBLIC "-//W3C//DTD SVG 20010904//EN"
 "http://www.w3.org/TR/2001/REC-SVG-20010904/DTD/svg10.dtd">
<svg version="1.0" xmlns="http://www.w3.org/2000/svg"
 width="56.000000pt" height="56.000000pt" viewBox="0 0 56.000000 56.000000"
 preserveAspectRatio="xMidYMid meet">
<metadata>
Created by potrace 1.16, written by Peter Selinger 2001-2019
</metadata>
<g transform="translate(0.000000,56.000000) scale(0.100000,-0.100000)"
fill="#000000" stroke="none">
<path d="M95 497 c-32 -15 -57 -40 -54 -53 2 -5 -3 -21 -11 -36 -15 -31 -7
-90 15 -108 9 -8 28 -10 49 -6 40 8 75 -2 54 -15 -7 -5 -17 -9 -23 -9 -5 0 -3
5 5 10 8 5 10 10 4 10 -5 0 -18 -6 -28 -13 -15 -11 -14 -13 16 -15 32 -3 79
-36 75 -54 -1 -6 9 -12 23 -14 13 -3 35 -12 48 -20 l24 -16 -37 -38 c-21 -21
-35 -43 -31 -48 3 -5 -4 -12 -15 -15 -12 -3 -18 -10 -14 -17 7 -12 157 -7 211
7 43 11 98 61 124 111 20 37 21 48 11 86 -6 25 -16 57 -23 73 -7 15 -12 35
-12 43 -1 20 -72 58 -126 66 -31 5 -53 16 -73 37 -16 17 -38 32 -50 34 -77 12
-135 12 -162 0z m45 -14 c1 -5 7 -11 12 -14 6 -4 0 -10 -12 -14 -33 -10 -98
-73 -103 -99 -3 -14 -5 -11 -6 11 -1 21 8 42 26 65 15 18 19 26 9 18 -17 -13
-19 -13 -15 0 3 8 21 23 40 32 32 17 44 17 49 1z m100 2 c31 -18 43 -19 34 -2
-4 6 8 -5 27 -26 27 -30 43 -39 76 -42 39 -4 123 -38 123 -50 0 -3 -12 -3 -27
1 -27 6 -27 5 5 -15 17 -11 32 -25 32 -30 0 -11 -38 -2 -46 10 -3 5 -13 9 -22
9 -11 0 -5 -8 16 -20 18 -11 40 -36 48 -55 20 -48 17 -66 -5 -30 -21 34 -71
83 -71 69 0 -5 9 -22 20 -39 33 -50 22 -63 -16 -17 -20 23 -41 42 -47 42 -7 0
-4 -5 6 -11 17 -10 22 -44 11 -74 -5 -12 -11 -7 -24 23 -10 22 -24 43 -31 47
-11 6 -12 5 -1 -6 22 -24 14 -49 -23 -65 -42 -17 -59 -18 -49 -1 6 9 4 9 -8
-1 -11 -9 -18 -10 -23 -2 -8 13 14 22 64 23 33 2 38 4 30 19 -5 9 -17 23 -27
30 -25 19 -20 60 11 102 16 20 26 36 23 36 -2 0 -12 3 -22 7 -11 4 -15 3 -11
-4 4 -6 -1 -17 -11 -24 -15 -13 -16 -12 -3 4 12 15 11 17 -3 17 -9 0 -19 6
-22 13 -3 9 -16 12 -36 9 -20 -3 -29 -1 -24 6 3 6 -2 13 -11 15 -10 2 -2 3 17
1 l34 -3 -32 19 c-18 11 -32 22 -32 25 0 9 25 4 50 -10z m-10 -80 c0 -2 -6 -8
-13 -14 -10 -8 -14 -7 -14 2 0 8 6 14 14 14 7 0 13 -1 13 -2z m-118 -28 c-26
-27 -20 -39 17 -32 14 3 1 -4 -29 -15 -35 -12 -42 -17 -20 -13 19 4 47 7 62 8
14 0 24 3 21 8 -2 4 0 7 6 7 5 0 13 -5 16 -10 4 -6 12 -7 18 -4 8 5 9 4 2 -3
-5 -6 -42 -13 -82 -17 -92 -8 -101 4 -43 56 47 42 65 51 32 15z m138 18 c0 -3
-2 -5 -5 -5 -3 0 -5 2 -5 5 0 3 2 5 5 5 3 0 5 -2 5 -5z m-5 -75 c-3 -5 -10
-10 -16 -10 -5 0 -9 5 -9 10 0 6 7 10 16 10 8 0 12 -4 9 -10z m45 -5 c0 -8
-14 -24 -31 -34 -31 -19 -31 -19 -8 -23 l24 -5 -25 -10 c-17 -7 -31 -7 -45 0
-19 10 -19 10 0 18 16 6 17 8 3 8 -31 2 -30 21 1 27 17 4 36 13 42 20 15 19
39 18 39 -1z m30 -65 c8 -5 11 -10 5 -10 -5 0 -17 5 -25 10 -8 5 -10 10 -5 10
6 0 17 -5 25 -10z m171 -67 c14 4 19 0 18 -16 0 -12 -4 -31 -9 -42 -8 -18 -9
-18 -10 5 l-1 25 -10 -25 c-12 -28 -48 -70 -62 -70 -5 0 1 16 13 35 12 19 19
41 17 48 -4 8 -6 7 -6 -3 -2 -25 -64 -89 -93 -96 l-27 -6 33 35 c40 42 68 100
60 121 -5 14 -3 14 26 0 17 -9 40 -14 51 -11z m-151 -3 c0 -6 11 -15 25 -20
14 -5 25 -13 25 -18 0 -5 -18 -28 -39 -51 -32 -34 -44 -41 -62 -36 -12 4 -19
3 -16 -1 3 -5 -14 -10 -37 -11 l-41 -1 40 14 c31 11 40 19 41 39 1 16 -2 22
-10 18 -6 -4 -5 1 3 10 8 10 19 16 25 14 6 -3 20 0 31 6 20 10 20 10 1 -12
-13 -14 -22 -18 -26 -10 -4 6 -10 1 -13 -12 -9 -33 -4 -33 32 5 34 35 34 62 0
51 -25 -8 -46 4 -28 16 19 12 49 11 49 -1z m187 -12 c-3 -8 -6 -5 -6 6 -1 11
2 17 5 13 3 -3 4 -12 1 -19z m-270 -94 c-9 -9 -28 6 -21 18 4 6 10 6 17 -1 6
-6 8 -13 4 -17z"/>
<path d="M306 75 c-11 -8 -15 -15 -9 -15 6 0 16 7 23 15 16 19 11 19 -14 0z"/>
<path d="M240 85 c0 -3 2 -5 5 -5 3 0 5 2 5 5 0 3 -2 5 -5 5 -3 0 -5 -2 -5 -5z"/>
<path d="M159 200 c-17 -13 -20 -22 -12 -27 6 -5 12 -12 12 -18 2 -20 18 -15
42 12 13 16 20 25 15 21 -11 -10 -38 11 -30 23 9 15 -2 10 -27 -11z m5 -12
c-5 -8 -2 -9 9 -5 9 3 19 2 21 -2 4 -7 -28 -8 -42 -2 -5 2 8 21 14 21 3 0 2
-5 -2 -12z m13 -35 c-4 -3 -10 -3 -14 0 -3 4 0 7 7 7 7 0 10 -3 7 -7z"/>
</g>
</svg>
