<?xml version="1.0" standalone="no"?>
<!DOCTYPE svg PUBLIC "-//W3C//DTD SVG 20010904//EN"
 "http://www.w3.org/TR/2001/REC-SVG-20010904/DTD/svg10.dtd">
<svg version="1.0" xmlns="http://www.w3.org/2000/svg"
 width="56.000000pt" height="56.000000pt" viewBox="0 0 56.000000 56.000000"
 preserveAspectRatio="xMidYMid meet">
<metadata>
Created by potrace 1.16, written by Peter Selinger 2001-2019
</metadata>
<g transform="translate(0.000000,56.000000) scale(0.100000,-0.100000)"
fill="#000000" stroke="none">
<path d="M246 414 c-57 -15 -69 -26 -85 -73 -11 -33 -9 -37 16 -58 16 -12 33
-22 39 -23 12 0 54 43 79 83 11 17 26 27 41 27 55 0 38 -43 -30 -76 -51 -24
-98 -57 -149 -103 -27 -24 -35 -55 -18 -65 4 -3 6 5 4 18 -5 26 13 44 29 28 6
-6 6 -12 -1 -16 -23 -15 -12 -53 19 -66 47 -20 160 -9 194 18 42 32 74 102 72
154 -1 24 1 51 6 60 11 22 -1 55 -13 36 -5 -7 -6 -22 -3 -33 4 -15 3 -17 -4
-6 -8 11 -11 10 -15 -5 -3 -10 -3 -3 -1 16 4 27 0 42 -16 60 l-21 25 16 -27
c17 -28 13 -48 -8 -48 -7 0 -18 9 -25 20 -7 11 -18 20 -25 20 -7 0 -18 10 -25
21 -13 20 -12 21 21 17 20 -2 33 0 31 4 -7 12 -71 8 -128 -8z m70 -15 c8 -13
-16 -30 -30 -22 -5 3 -6 1 -2 -5 14 -22 -44 -102 -73 -102 -10 0 -7 5 8 13 30
15 43 44 15 32 -11 -4 -32 -10 -48 -13 -26 -4 -28 -3 -21 19 10 31 25 41 50
33 38 -10 50 -9 50 6 0 12 -10 14 -45 12 -35 -3 -42 -1 -33 8 23 24 117 37
129 19z m-76 -34 c0 -3 -2 -5 -5 -5 -3 0 -5 2 -5 5 0 3 2 5 5 5 3 0 5 -2 5 -5z
m17 -12 c-4 -3 -7 0 -7 7 0 7 3 10 7 7 3 -4 3 -10 0 -14z m200 -20 c-4 -3 -7
0 -7 7 0 7 3 10 7 7 3 -4 3 -10 0 -14z m-47 -13 c0 -4 -8 -18 -18 -30 -16 -19
-21 -21 -38 -10 l-21 13 21 21 c19 20 56 24 56 6z m8 -71 c-13 -39 -24 -44
-55 -24 l-25 17 30 18 c16 10 33 24 37 30 14 22 24 -11 13 -41z m32 41 c0 -5
-4 -10 -10 -10 -5 0 -10 5 -10 10 0 6 5 10 10 10 6 0 10 -4 10 -10z m-105 -14
c18 -13 17 -14 -13 -21 -17 -3 -34 -11 -37 -16 -4 -5 2 -6 12 -3 15 5 16 4 3
-5 -8 -6 -27 -11 -42 -11 -39 0 -36 25 5 50 38 24 47 24 72 6z m105 -16 c0 -5
-4 -10 -10 -10 -5 0 -10 5 -10 10 0 6 5 10 10 10 6 0 10 -4 10 -10z m0 -35 c0
-8 -7 -15 -15 -15 -8 0 -15 7 -15 15 0 8 7 15 15 15 8 0 15 -7 15 -15z m-233
-13 c-10 -10 -17 -24 -17 -30 0 -7 -4 -12 -10 -12 -20 0 -10 41 13 50 31 12
32 12 14 -8z m151 -1 c10 -6 8 -13 -7 -32 -20 -24 -20 -24 -21 -2 0 12 -4 25
-10 28 -6 4 -7 -1 -3 -11 9 -24 -23 -44 -68 -44 -29 0 -39 5 -44 21 -10 29 2
37 60 42 28 2 57 4 65 5 8 1 21 -2 28 -7z m60 -25 c3 -15 1 -16 -17 -6 -12 6
-19 16 -15 21 9 15 28 5 32 -15z m-223 -26 c-3 -5 -3 -10 2 -10 4 0 8 -13 8
-30 0 -34 0 -34 -26 -20 -24 13 -25 46 -1 59 22 13 25 13 17 1z m195 -12 c11
-23 11 -23 -5 -3 -17 20 -17 20 -11 -2 4 -12 2 -24 -4 -28 -5 -3 -10 1 -10 9
0 8 -4 18 -10 21 -6 4 -7 -1 -3 -11 4 -11 -1 -22 -12 -30 -31 -23 -44 -18 -36
13 6 24 15 30 78 52 1 1 7 -9 13 -21z m-102 -30 c-2 -19 -9 -23 -38 -23 -29 0
-36 4 -38 23 -3 20 1 22 38 22 37 0 41 -2 38 -22z"/>
<path d="M200 325 c0 -3 2 -5 5 -5 3 0 5 2 5 5 0 3 -2 5 -5 5 -3 0 -5 -2 -5
-5z"/>
</g>
</svg>
