<?xml version="1.0" standalone="no"?>
<!DOCTYPE svg PUBLIC "-//W3C//DTD SVG 20010904//EN"
 "http://www.w3.org/TR/2001/REC-SVG-20010904/DTD/svg10.dtd">
<svg version="1.0" xmlns="http://www.w3.org/2000/svg"
 width="56.000000pt" height="56.000000pt" viewBox="0 0 56.000000 56.000000"
 preserveAspectRatio="xMidYMid meet">
<metadata>
Created by potrace 1.16, written by Peter Selinger 2001-2019
</metadata>
<g transform="translate(0.000000,56.000000) scale(0.100000,-0.100000)"
fill="#000000" stroke="none">
<path d="M103 508 c-61 -58 -83 -98 -83 -153 0 -43 12 -69 51 -111 l29 -30
-34 -17 c-28 -13 -37 -25 -47 -59 -15 -56 1 -85 61 -115 75 -38 148 -28 206
28 30 29 33 30 60 16 16 -8 31 -14 34 -13 3 0 18 -9 34 -22 41 -32 64 -28 108
19 37 39 39 43 32 87 -3 26 -11 53 -16 59 -7 8 -4 31 7 67 34 108 4 224 -61
240 -39 10 -41 0 -5 -33 26 -24 31 -37 31 -73 0 -43 -5 -54 -48 -119 -24 -37
-22 -80 4 -110 8 -9 12 -23 8 -32 -5 -15 -12 -13 -53 10 -25 15 -48 28 -50 30
-3 2 9 18 27 36 82 84 82 209 1 269 -19 14 -56 33 -84 43 -27 10 -54 22 -60
27 -5 4 -29 8 -53 8 -38 0 -49 -6 -99 -52z m210 5 c68 -28 94 -44 108 -67 61
-100 14 -214 -115 -279 l-56 -28 -47 23 c-87 43 -173 136 -173 185 0 36 22 94
45 120 23 26 24 27 25 7 0 -12 7 -28 17 -35 15 -13 15 -12 3 7 -28 45 17 103
80 104 13 0 64 -17 113 -37z m164 -20 c-4 -3 -10 -3 -14 0 -3 4 0 7 7 7 7 0
10 -3 7 -7z m30 -10 c-4 -3 -10 -3 -14 0 -3 4 0 7 7 7 7 0 10 -3 7 -7z m31
-42 c3 -8 -1 -12 -9 -9 -7 2 -15 10 -17 17 -3 8 1 12 9 9 7 -2 15 -10 17 -17z
m12 -37 c0 -17 -22 -14 -28 4 -2 7 3 12 12 12 9 0 16 -7 16 -16z m-6 -48 c-5
-13 -34 -31 -34 -22 0 16 14 36 26 36 7 0 11 -6 8 -14z m-4 -45 c0 -16 -27
-31 -44 -25 -13 5 -14 9 -5 20 13 15 49 19 49 5z m-31 -40 c18 -12 7 -27 -29
-39 -33 -12 -37 -5 -20 29 12 21 27 24 49 10z m2 -61 c21 -12 25 -35 8 -46
-14 -8 -53 31 -45 45 9 14 12 14 37 1z m-400 -21 c16 -8 18 -13 8 -25 -14 -17
-55 -19 -65 -2 -4 6 1 17 11 25 23 16 21 16 46 2z m238 -45 c-14 -18 -24 -11
-15 11 3 9 11 13 16 10 8 -5 7 -11 -1 -21z m71 -14 c13 -25 -13 -48 -35 -30
-15 13 -20 42 -9 53 9 9 34 -4 44 -23z m-250 8 c0 -7 -5 -20 -10 -28 -8 -13
-11 -13 -26 2 -9 9 -13 21 -10 27 10 15 46 14 46 -1z m354 -4 c12 -5 13 -10 5
-26 -8 -15 -13 -17 -25 -7 -29 24 -15 47 20 33z m-412 -17 c7 -7 31 -22 53
-33 46 -22 53 -48 13 -52 -32 -4 -71 30 -62 53 9 23 -12 18 -28 -7 -17 -25
-48 -19 -48 10 0 37 45 56 72 29z m152 -7 c19 15 31 8 23 -14 -9 -23 -56 -32
-74 -13 -21 21 -8 40 17 25 14 -9 22 -9 34 2z m226 -15 c10 -12 10 -18 0 -30
-16 -19 -34 -19 -50 0 -10 12 -10 18 0 30 7 8 18 15 25 15 7 0 18 -7 25 -15z"/>
<path d="M278 494 c7 -36 -52 -87 -92 -81 -59 9 -81 17 -92 32 -16 22 -38 -54
-25 -87 21 -56 113 -101 127 -63 6 15 49 12 68 -6 15 -13 68 -10 95 5 13 7 30
24 37 37 l12 24 7 -27 c4 -16 1 -36 -10 -55 -15 -26 -15 -26 -9 -3 4 14 9 32
12 40 3 8 -9 3 -27 -13 -43 -36 -68 -41 -116 -24 -35 12 -44 12 -72 -1 -29
-14 -34 -13 -77 11 -25 14 -46 24 -46 22 0 -43 114 -125 174 -125 42 0 96 22
120 49 10 11 23 18 28 15 11 -7 48 74 48 106 0 50 -41 103 -106 136 l-61 31 5
-23z m97 -125 c-4 -11 -15 -24 -26 -30 -20 -10 -20 -9 -5 20 22 41 21 42 -24
20 -24 -12 -40 -26 -40 -37 1 -16 1 -16 11 1 13 22 28 22 26 -1 -1 -12 -8 -18
-21 -17 -36 3 -24 36 24 70 43 31 45 31 53 12 4 -11 5 -28 2 -38z m-202 3 c21
-19 21 -26 1 -46 -21 -22 -31 -20 -59 9 -16 15 -25 36 -25 55 l0 31 33 -17
c17 -9 40 -23 50 -32z m-33 43 c0 -3 -2 -5 -5 -5 -3 0 -5 2 -5 5 0 3 2 5 5 5
3 0 5 -2 5 -5z m110 -20 c0 -3 -2 -5 -5 -5 -3 0 -5 2 -5 5 0 3 2 5 5 5 3 0 5
-2 5 -5z"/>
<path d="M125 360 c17 -33 42 -54 32 -26 -5 14 -3 17 8 12 26 -10 16 1 -20 23
l-35 20 15 -29z"/>
<path d="M131 501 c-12 -8 -13 -14 -3 -35 6 -14 16 -26 22 -26 13 0 13 37 0
45 -6 4 -8 11 -5 16 8 11 4 11 -14 0z m6 -28 c-4 -3 -7 0 -7 7 0 7 3 10 7 7 3
-4 3 -10 0 -14z"/>
<path d="M232 490 c-15 -24 -16 -50 -2 -50 6 0 16 11 22 25 15 32 -2 53 -20
25z m15 -17 c-4 -3 -7 0 -7 7 0 7 3 10 7 7 3 -4 3 -10 0 -14z"/>
<path d="M170 430 c0 -7 3 -10 7 -7 3 4 3 10 0 14 -4 3 -7 0 -7 -7z"/>
<path d="M200 430 c0 -7 3 -10 7 -7 3 4 3 10 0 14 -4 3 -7 0 -7 -7z"/>
</g>
</svg>
