<?xml version="1.0" standalone="no"?>
<!DOCTYPE svg PUBLIC "-//W3C//DTD SVG 20010904//EN"
 "http://www.w3.org/TR/2001/REC-SVG-20010904/DTD/svg10.dtd">
<svg version="1.0" xmlns="http://www.w3.org/2000/svg"
 width="56.000000pt" height="56.000000pt" viewBox="0 0 56.000000 56.000000"
 preserveAspectRatio="xMidYMid meet">
<metadata>
Created by potrace 1.16, written by Peter Selinger 2001-2019
</metadata>
<g transform="translate(0.000000,56.000000) scale(0.100000,-0.100000)"
fill="#000000" stroke="none">
<path d="M407 432 c-48 -49 -49 -50 -28 -64 l21 -15 -20 -18 c-20 -18 -20 -18
6 -46 l27 -29 -18 -40 c-20 -44 -35 -52 -35 -17 0 28 -24 106 -44 145 -15 28
-14 30 20 62 41 40 42 50 8 50 -15 0 -38 -12 -56 -30 -20 -20 -39 -30 -60 -30
-19 0 -43 11 -65 30 -18 17 -43 30 -55 30 -20 0 -18 -4 15 -38 33 -33 36 -40
23 -51 -22 -18 -50 -97 -40 -113 11 -17 5 -61 -9 -70 -14 -9 20 -48 41 -48 9
0 31 -5 49 -12 26 -9 38 -10 53 -1 14 10 21 9 30 -2 7 -8 17 -15 23 -15 5 0
15 -7 22 -17 15 -20 38 -8 30 17 -4 13 5 27 35 51 46 38 71 98 52 129 -9 14
-7 21 9 36 17 15 18 19 4 34 -13 14 -13 18 1 32 10 10 14 28 12 52 l-3 37 -48
-49z m28 -42 c-12 -13 -13 -20 -5 -25 9 -6 9 -10 -1 -16 -19 -12 -32 -11 -24
0 3 6 -4 15 -16 21 -21 12 -20 13 17 52 l39 39 3 -26 c2 -15 -4 -35 -13 -45z
m-116 31 c10 -7 8 -12 -9 -24 -21 -15 -21 -16 -5 -48 10 -18 21 -46 26 -63 8
-26 5 -33 -19 -53 l-27 -23 33 6 c25 5 32 3 32 -9 0 -9 -8 -20 -17 -26 -17 -9
-17 -10 -1 -16 27 -11 2 -57 -26 -49 -31 9 -58 45 -53 71 2 12 0 20 -4 17 -5
-3 -9 -14 -9 -25 0 -28 -43 -46 -75 -31 -37 17 -52 56 -37 95 8 21 8 35 2 41
-12 12 -13 27 -2 25 19 -3 23 2 12 16 -9 11 -7 19 12 38 l24 24 -20 13 c-15 9
-17 15 -8 18 7 2 21 -3 30 -11 9 -8 34 -17 54 -19 31 -3 38 0 47 19 11 25 19
27 40 14z"/>
<path d="M155 360 c-4 -6 -3 -16 3 -22 6 -6 12 -6 17 2 4 6 3 16 -3 22 -6 6
-12 6 -17 -2z m15 -5 c0 -3 -2 -5 -5 -5 -3 0 -5 2 -5 5 0 3 2 5 5 5 3 0 5 -2
5 -5z"/>
<path d="M244 359 c-10 -17 13 -36 27 -22 12 12 4 33 -11 33 -5 0 -12 -5 -16
-11z m16 -4 c0 -3 -2 -5 -5 -5 -3 0 -5 2 -5 5 0 3 2 5 5 5 3 0 5 -2 5 -5z"/>
<path d="M190 325 c0 -3 2 -5 5 -5 3 0 5 2 5 5 0 3 -2 5 -5 5 -3 0 -5 -2 -5
-5z"/>
<path d="M275 321 c-7 -12 12 -24 25 -16 11 7 4 25 -10 25 -5 0 -11 -4 -15 -9z
m25 -6 c0 -3 -2 -5 -5 -5 -3 0 -5 2 -5 5 0 3 2 5 5 5 3 0 5 -2 5 -5z"/>
<path d="M166 300 c8 -7 73 -9 78 -2 2 4 -15 7 -39 7 -24 0 -42 -2 -39 -5z"/>
<path d="M269 273 c-12 -14 -12 -16 0 -8 11 6 13 4 7 -10 -7 -18 -6 -18 13 -1
11 10 18 23 15 27 -8 14 -20 11 -35 -8z"/>
</g>
</svg>
