<?xml version="1.0" standalone="no"?>
<!DOCTYPE svg PUBLIC "-//W3C//DTD SVG 20010904//EN"
 "http://www.w3.org/TR/2001/REC-SVG-20010904/DTD/svg10.dtd">
<svg version="1.0" xmlns="http://www.w3.org/2000/svg"
 width="56.000000pt" height="56.000000pt" viewBox="0 0 56.000000 56.000000"
 preserveAspectRatio="xMidYMid meet">
<metadata>
Created by potrace 1.16, written by Peter Selinger 2001-2019
</metadata>
<g transform="translate(0.000000,56.000000) scale(0.100000,-0.100000)"
fill="#000000" stroke="none">
<path d="M255 526 c-56 -26 -80 -49 -69 -67 4 -7 3 -9 -4 -5 -12 7 -52 -39
-52 -62 0 -8 -16 -32 -35 -53 -39 -43 -45 -69 -16 -69 15 0 20 -10 26 -45 5
-39 16 -55 77 -116 39 -38 69 -72 66 -74 -6 -6 -110 24 -125 37 -8 6 -15 3
-23 -11 -6 -12 -15 -21 -20 -21 -12 0 -49 121 -56 180 l-5 45 42 -78 c23 -44
49 -81 56 -84 8 -3 22 3 31 13 14 14 14 15 1 6 -18 -13 -38 9 -101 118 l-38
65 0 -44 c0 -46 21 -139 47 -203 l16 -39 22 21 c21 19 24 20 66 5 24 -9 78
-20 119 -25 61 -7 77 -6 86 6 6 8 25 14 43 14 76 0 141 55 141 119 0 45 -20
74 -70 106 -49 31 -58 57 -31 91 12 15 21 35 21 46 0 15 5 18 23 12 34 -10 48
-25 45 -48 -2 -15 -10 -21 -28 -21 -30 0 -35 28 -6 33 15 3 17 0 12 -14 -6
-15 -5 -17 5 -6 19 18 -5 41 -29 26 -22 -14 -22 -34 1 -48 46 -29 76 62 37
116 -11 15 -16 30 -11 33 6 3 14 -3 20 -12 10 -17 10 -16 11 3 0 11 -9 29 -20
39 -18 16 -27 17 -60 8 -33 -8 -44 -7 -67 8 -38 25 -88 24 -148 -5z m147 -11
c-4 -17 -53 -25 -76 -13 -20 11 -20 11 -1 19 27 11 81 7 77 -6z m108 -20 c0
-3 -10 -10 -22 -15 l-23 -9 22 0 c21 -1 62 -46 51 -57 -10 -9 -103 32 -103 46
0 8 11 20 25 27 26 13 50 17 50 8z m-200 -40 c0 -3 -2 -5 -5 -5 -3 0 -5 2 -5
5 0 3 2 5 5 5 3 0 5 -2 5 -5z m74 -38 c9 -15 7 -21 -9 -33 -22 -16 -34 -14
-49 8 -7 12 -6 21 4 33 16 19 39 16 54 -8z m-227 -24 c-17 -18 -22 -8 -11 22
5 12 10 13 17 6 8 -8 6 -16 -6 -28z m273 33 c0 -3 -4 -8 -10 -11 -5 -3 -10 -1
-10 4 0 6 5 11 10 11 6 0 10 -2 10 -4z m-193 -33 c-4 -3 -10 -3 -14 0 -3 4 0
7 7 7 7 0 10 -3 7 -7z m44 -31 l22 -19 -23 1 c-38 2 -48 -41 -28 -117 9 -34
14 -65 11 -69 -7 -13 -62 -9 -93 7 -83 43 -81 139 5 195 38 25 76 25 106 2z
m37 -95 c29 -30 37 -77 19 -101 -14 -19 -16 -19 -39 -4 -30 20 -53 95 -36 115
15 19 32 16 56 -10z m191 -80 c14 -27 4 -63 -26 -89 -25 -23 -113 -36 -113
-18 0 8 -10 24 -21 36 l-21 23 35 14 c19 8 47 31 62 51 25 33 28 34 49 21 13
-9 28 -25 35 -38z m-230 -106 c22 -23 23 -26 6 -29 -11 -3 -34 12 -59 37 l-41
42 35 -12 c19 -6 46 -23 59 -38z m55 14 c3 -9 -1 -18 -9 -21 -18 -7 -47 14
-39 27 9 15 41 10 48 -6z"/>
</g>
</svg>
