<?xml version="1.0" standalone="no"?>
<!DOCTYPE svg PUBLIC "-//W3C//DTD SVG 20010904//EN"
 "http://www.w3.org/TR/2001/REC-SVG-20010904/DTD/svg10.dtd">
<svg version="1.0" xmlns="http://www.w3.org/2000/svg"
 width="56.000000pt" height="56.000000pt" viewBox="0 0 56.000000 56.000000"
 preserveAspectRatio="xMidYMid meet">
<metadata>
Created by potrace 1.16, written by Peter Selinger 2001-2019
</metadata>
<g transform="translate(0.000000,56.000000) scale(0.100000,-0.100000)"
fill="#000000" stroke="none">
<path d="M165 407 c-30 -33 -55 -73 -55 -88 0 -5 12 -17 28 -27 25 -15 27 -20
17 -48 -9 -28 -13 -30 -33 -21 -32 15 -37 3 -17 -45 27 -68 40 -78 92 -71 28
4 53 1 68 -7 30 -16 90 -7 125 18 39 29 70 82 70 119 0 53 -46 133 -78 133
-10 0 -12 -6 -7 -17 24 -59 28 -72 21 -89 -6 -15 -11 -11 -34 26 -14 25 -26
61 -27 80 0 34 -1 35 -49 42 -27 4 -54 12 -59 17 -17 17 -30 13 -62 -22z m55
19 c0 -2 -7 -6 -15 -10 -8 -3 -15 -1 -15 4 0 6 7 10 15 10 8 0 15 -2 15 -4z
m73 -27 c30 1 37 -2 37 -18 0 -11 -5 -23 -12 -27 -8 -5 -9 0 -6 14 7 25 -4 29
-21 8 -8 -10 -9 -16 -1 -21 6 -3 8 -10 5 -15 -3 -5 3 -11 14 -15 11 -3 29 -26
40 -50 25 -53 25 -56 6 -49 -8 4 -15 16 -16 28 0 20 -1 20 -8 1 -5 -11 -12
-19 -17 -18 -5 0 -16 -3 -25 -8 -11 -6 -21 -4 -28 5 -14 17 2 31 23 23 8 -3
16 3 20 15 8 33 -2 38 -33 20 -27 -15 -33 -15 -86 2 -42 13 -55 22 -53 34 2
10 11 16 23 14 14 -2 16 0 7 6 -10 6 -6 15 13 36 21 23 31 27 53 21 15 -4 44
-6 65 -6z m-143 -24 c0 -3 -2 -5 -5 -5 -3 0 -5 2 -5 5 0 3 2 5 5 5 3 0 5 -2 5
-5z m272 -56 c21 -43 22 -50 2 -42 -8 3 -13 12 -10 19 3 8 2 14 -3 14 -4 0
-13 12 -20 26 -18 41 10 25 31 -17z m17 -63 c10 -12 8 -13 -8 -9 -12 3 -21 9
-21 14 0 14 16 11 29 -5z m-249 -11 c0 -8 -7 -15 -15 -15 -16 0 -20 12 -8 23
11 12 23 8 23 -8z m249 -19 c10 -12 9 -14 -6 -11 -10 2 -21 4 -25 4 -5 1 -8 6
-8 11 0 15 26 12 39 -4z m-229 -12 c0 -8 -4 -12 -10 -9 -5 3 -10 10 -10 16 0
5 5 9 10 9 6 0 10 -7 10 -16z m56 5 c3 -6 -2 -18 -11 -27 -17 -16 -17 -15 -12
8 6 24 5 24 -8 6 -12 -15 -15 -16 -15 -5 0 28 32 41 46 18z m-131 -12 c12 -10
15 -16 6 -21 -6 -4 -18 -1 -26 8 -27 27 -13 36 20 13z m50 2 c11 -17 -1 -21
-15 -4 -8 9 -8 15 -2 15 6 0 14 -5 17 -11z m188 -7 c3 7 6 3 6 -9 1 -32 -20
-39 -41 -14 -22 28 -13 49 12 26 14 -13 19 -13 23 -3z m-86 -9 c-4 -3 -7 0 -7
7 0 7 3 10 7 7 3 -4 3 -10 0 -14z m31 -30 c0 -56 -30 -85 -43 -43 -9 28 3 60
20 54 10 -4 12 0 8 17 -4 14 -2 20 4 16 6 -4 11 -24 11 -44z m102 37 c0 -5 -4
-10 -9 -10 -6 0 -13 5 -16 10 -3 6 1 10 9 10 9 0 16 -4 16 -10z m-231 -19 c7
-5 10 -14 6 -20 -5 -9 -10 -9 -20 -1 -11 9 -12 7 -8 -9 7 -27 -3 -27 -18 0 -9
17 -8 23 2 30 17 11 21 11 38 0z"/>
<path d="M213 393 c4 -3 10 -3 14 0 3 4 0 7 -7 7 -7 0 -10 -3 -7 -7z"/>
<path d="M190 385 c0 -3 2 -5 5 -5 3 0 5 2 5 5 0 3 -2 5 -5 5 -3 0 -5 -2 -5
-5z"/>
<path d="M240 386 c0 -2 7 -7 16 -10 8 -3 12 -2 9 4 -6 10 -25 14 -25 6z"/>
<path d="M219 378 c-12 -43 2 -71 24 -48 9 9 8 14 -5 24 -10 7 -15 16 -11 19
3 4 3 7 0 7 -4 0 -7 -1 -8 -2z m11 -33 c0 -3 -2 -5 -5 -5 -3 0 -5 2 -5 5 0 3
2 5 5 5 3 0 5 -2 5 -5z"/>
<path d="M184 348 c-4 -7 -3 -8 4 -4 7 4 12 9 12 12 0 8 -9 4 -16 -8z"/>
<path d="M400 335 c0 -3 2 -5 5 -5 3 0 5 2 5 5 0 3 -2 5 -5 5 -3 0 -5 -2 -5
-5z"/>
</g>
</svg>
