<?xml version="1.0" standalone="no"?>
<!DOCTYPE svg PUBLIC "-//W3C//DTD SVG 20010904//EN"
 "http://www.w3.org/TR/2001/REC-SVG-20010904/DTD/svg10.dtd">
<svg version="1.0" xmlns="http://www.w3.org/2000/svg"
 width="56.000000pt" height="56.000000pt" viewBox="0 0 56.000000 56.000000"
 preserveAspectRatio="xMidYMid meet">
<metadata>
Created by potrace 1.16, written by Peter Selinger 2001-2019
</metadata>
<g transform="translate(0.000000,56.000000) scale(0.100000,-0.100000)"
fill="#000000" stroke="none">
<path d="M216 498 c-10 -16 -14 -33 -10 -40 6 -10 5 -10 -8 0 -14 11 -20 9
-39 -17 -17 -24 -28 -29 -46 -25 -18 5 -25 1 -33 -21 -5 -14 -10 -36 -9 -48 1
-12 5 -3 11 21 7 33 14 42 26 40 9 -3 15 -11 13 -19 -12 -48 -9 -48 14 -2 14
28 32 57 40 63 13 11 15 7 15 -26 -1 -22 -7 -50 -15 -64 -8 -14 -14 -29 -14
-35 0 -5 8 6 19 25 l19 35 1 -37 c0 -23 -5 -38 -12 -38 -6 0 -8 -3 -5 -6 13
-13 39 20 34 43 -2 13 -2 22 0 19 2 -2 20 12 38 32 42 45 46 27 10 -44 -14
-27 -25 -50 -25 -52 0 -2 15 13 34 32 40 43 66 47 66 10 0 -15 -12 -36 -29
-52 -16 -15 -32 -37 -36 -50 -3 -12 -24 -31 -45 -42 -21 -11 -41 -24 -45 -30
-3 -5 -15 -10 -25 -10 -22 0 -60 76 -60 121 0 15 -3 30 -8 33 -4 2 -6 -12 -4
-33 3 -25 -1 -41 -12 -50 -16 -14 -22 -3 -8 15 4 5 1 4 -7 -3 -12 -10 -12 -17
-2 -39 9 -20 15 -24 23 -16 18 18 32 14 43 -10 12 -28 41 -35 63 -15 15 14 19
13 41 -4 17 -14 19 -19 8 -19 -9 0 -18 -4 -21 -8 -6 -10 24 -9 41 1 6 4 14 3
17 -2 9 -14 -4 -18 -47 -18 -20 0 -40 -3 -44 -6 -3 -4 23 -7 60 -7 40 0 71 5
79 13 22 22 47 27 72 15 21 -9 23 -14 13 -35 -8 -19 -7 -27 5 -39 13 -13 16
-13 28 1 12 14 15 14 30 0 15 -14 19 -14 30 0 9 11 9 22 2 45 -9 23 -7 40 5
74 10 27 13 50 8 62 -4 10 -7 28 -6 39 1 12 -10 38 -23 58 l-26 38 22 8 c20 7
19 9 -12 19 -18 7 -42 12 -54 12 -17 1 -14 5 14 20 l35 19 -55 1 -55 0 30 20
30 20 -40 -1 c-23 -1 -31 -4 -20 -6 15 -4 9 -9 -25 -19 -39 -12 -46 -12 -56 1
-12 16 -29 21 -20 6 3 -5 -7 -16 -22 -25 -26 -17 -26 -17 -7 1 15 13 19 26 15
48 l-6 30 -18 -27z m14 -3 c0 -3 -2 -5 -5 -5 -3 0 -5 2 -5 5 0 3 2 5 5 5 3 0
5 -2 5 -5z m-10 -20 c0 -3 -2 -5 -5 -5 -3 0 -5 2 -5 5 0 3 2 5 5 5 3 0 5 -2 5
-5z m50 -30 c0 -3 -2 -5 -5 -5 -3 0 -5 2 -5 5 0 3 2 5 5 5 3 0 5 -2 5 -5z
m133 -12 c-13 -2 -33 -2 -45 0 -13 2 -3 4 22 4 25 0 35 -2 23 -4z m-193 -18
c0 -3 -2 -5 -5 -5 -3 0 -5 2 -5 5 0 3 2 5 5 5 3 0 5 -2 5 -5z m30 -9 c0 -2 -6
-9 -14 -15 -11 -9 -16 -9 -22 0 -4 7 -3 9 4 5 6 -3 13 -2 17 4 6 10 15 14 15
6z m188 -78 c7 -7 12 -19 12 -27 0 -11 -4 -10 -14 5 -8 10 -18 16 -22 11 -4
-4 -2 -7 4 -7 19 0 14 -47 -9 -91 -11 -23 -22 -39 -24 -37 -1 1 2 29 8 61 8
43 7 61 -1 69 -9 9 -15 9 -24 -1 -11 -10 -9 -11 6 -5 18 7 19 4 12 -46 -10
-78 -23 -95 -29 -40 -7 54 -5 91 6 108 10 15 59 16 75 0z m-88 -134 c7 -19 15
-33 18 -30 3 3 11 1 18 -5 10 -8 17 -3 29 21 17 33 32 35 49 7 8 -13 6 -22
-12 -39 -22 -22 -24 -22 -52 -6 -17 9 -30 13 -30 8 0 -14 -70 -11 -105 4 l-30
12 33 7 c25 5 37 14 45 36 13 36 22 32 37 -15z m-236 28 c2 -4 -4 -13 -15 -20
-15 -10 -19 -10 -19 1 0 24 23 36 34 19z m386 -68 c0 -8 -5 -12 -10 -9 -6 4
-8 11 -5 16 9 14 15 11 15 -7z m-25 -44 c0 -22 -29 -18 -33 3 -3 14 1 18 15
15 10 -2 18 -10 18 -18z m-21 -29 c3 -5 -1 -14 -8 -20 -16 -13 -32 2 -21 19 8
12 22 13 29 1z m56 -4 c0 -8 -3 -17 -7 -20 -9 -9 -34 13 -27 24 8 14 34 11 34
-4z"/>
<path d="M290 470 c-18 -12 -2 -12 25 0 13 6 15 9 5 9 -8 0 -22 -4 -30 -9z"/>
<path d="M292 338 c-7 -7 -12 -21 -12 -31 0 -16 2 -17 16 -7 24 21 37 50 21
50 -7 0 -18 -5 -25 -12z"/>
<path d="M116 293 c-11 -11 -6 -40 9 -53 13 -11 15 -8 15 18 0 31 -11 47 -24
35z m14 -18 c0 -3 -2 -5 -5 -5 -3 0 -5 2 -5 5 0 3 2 5 5 5 3 0 5 -2 5 -5z"/>
<path d="M202 258 c-14 -14 -16 -38 -3 -38 20 0 42 13 52 31 8 16 6 19 -14 19
-12 0 -28 -5 -35 -12z m35 -5 c-4 -3 -10 -3 -14 0 -3 4 0 7 7 7 7 0 10 -3 7
-7z"/>
</g>
</svg>
