<?xml version="1.0" standalone="no"?>
<!DOCTYPE svg PUBLIC "-//W3C//DTD SVG 20010904//EN"
 "http://www.w3.org/TR/2001/REC-SVG-20010904/DTD/svg10.dtd">
<svg version="1.0" xmlns="http://www.w3.org/2000/svg"
 width="56.000000pt" height="56.000000pt" viewBox="0 0 56.000000 56.000000"
 preserveAspectRatio="xMidYMid meet">
<metadata>
Created by potrace 1.16, written by Peter Selinger 2001-2019
</metadata>
<g transform="translate(0.000000,56.000000) scale(0.100000,-0.100000)"
fill="#000000" stroke="none">
<path d="M163 291 c-35 -32 -63 -65 -63 -74 0 -8 11 -29 25 -45 22 -26 23 -31
10 -42 -8 -7 -15 -16 -15 -21 0 -12 44 -11 56 1 7 7 18 7 35 0 22 -10 23 -10
2 -6 -13 2 -23 0 -23 -5 0 -13 26 -11 67 6 43 18 80 19 86 3 9 -25 42 7 42 40
0 17 6 37 13 43 16 17 15 29 -3 29 -12 0 -13 4 -5 19 15 29 13 34 -14 29 -20
-4 -26 0 -28 16 -2 12 -13 25 -25 31 -13 5 -23 15 -23 22 0 16 -5 16 -31 1
-17 -10 -23 -10 -26 0 -7 19 -14 15 -80 -47z m62 39 c-3 -5 1 -10 11 -10 13 0
14 -3 4 -15 -7 -8 -24 -15 -38 -15 l-25 0 23 25 c24 26 36 33 25 15z m61 -5
c-4 -11 1 -15 19 -15 13 0 26 -4 29 -8 2 -4 -10 -6 -28 -4 -21 2 -37 -2 -45
-12 -11 -13 -10 -15 8 -11 11 2 24 -1 27 -7 4 -6 3 -8 -2 -5 -6 3 -16 1 -24
-4 -11 -8 -1 -9 32 -5 56 7 62 0 72 -81 8 -65 -7 -78 -43 -37 -15 18 -22 22
-18 10 6 -15 4 -17 -13 -13 -11 3 -20 1 -20 -3 0 -15 -39 -22 -57 -11 -10 6
-13 11 -7 11 5 0 19 6 29 14 18 13 18 14 -9 9 -20 -4 -31 -1 -38 11 -6 10 -22
16 -44 16 -21 0 -33 4 -29 10 3 6 1 10 -4 10 -19 0 -12 30 14 56 19 19 34 24
58 22 26 -2 38 3 61 30 30 35 41 41 32 17z m98 -80 c-4 -8 -7 -15 -9 -15 -2 0
-5 7 -9 15 -3 9 0 15 9 15 9 0 12 -6 9 -15z m16 -39 c0 -3 -4 -8 -10 -11 -5
-3 -10 -1 -10 4 0 6 5 11 10 11 6 0 10 -2 10 -4z m-230 -46 c0 -5 -4 -10 -9
-10 -6 0 -13 5 -16 10 -3 6 1 10 9 10 9 0 16 -4 16 -10z m7 -36 c-16 -8 -34
-13 -40 -10 -7 2 -4 5 6 5 10 1 15 6 12 11 -4 6 6 10 22 10 l28 -1 -28 -15z"/>
<path d="M182 228 c-19 -19 -14 -28 13 -28 19 0 23 4 18 17 -5 12 -3 14 7 8 9
-5 11 -4 6 3 -9 15 -29 15 -44 0z m8 -13 c0 -3 -2 -5 -5 -5 -3 0 -5 2 -5 5 0
3 2 5 5 5 3 0 5 -2 5 -5z"/>
<path d="M295 211 c-7 -12 12 -24 25 -16 11 7 4 25 -10 25 -5 0 -11 -4 -15 -9z"/>
<path d="M140 195 c0 -3 2 -5 5 -5 3 0 5 2 5 5 0 3 -2 5 -5 5 -3 0 -5 -2 -5
-5z"/>
<path d="M220 190 c-8 -5 -10 -10 -5 -10 6 0 17 5 25 10 8 5 11 10 5 10 -5 0
-17 -5 -25 -10z"/>
<path d="M270 170 c0 -5 5 -10 10 -10 6 0 10 5 10 10 0 6 -4 10 -10 10 -5 0
-10 -4 -10 -10z"/>
<path d="M337 174 c-8 -8 1 -24 14 -24 5 0 9 7 9 15 0 15 -12 20 -23 9z"/>
<path d="M223 163 c4 -3 10 -3 14 0 3 4 0 7 -7 7 -7 0 -10 -3 -7 -7z"/>
<path d="M353 123 c4 -3 10 -3 14 0 3 4 0 7 -7 7 -7 0 -10 -3 -7 -7z"/>
</g>
</svg>
