<?xml version="1.0" standalone="no"?>
<!DOCTYPE svg PUBLIC "-//W3C//DTD SVG 20010904//EN"
 "http://www.w3.org/TR/2001/REC-SVG-20010904/DTD/svg10.dtd">
<svg version="1.0" xmlns="http://www.w3.org/2000/svg"
 width="56.000000pt" height="56.000000pt" viewBox="0 0 56.000000 56.000000"
 preserveAspectRatio="xMidYMid meet">
<metadata>
Created by potrace 1.16, written by Peter Selinger 2001-2019
</metadata>
<g transform="translate(0.000000,56.000000) scale(0.100000,-0.100000)"
fill="#000000" stroke="none">
<path d="M294 398 c-9 -21 -21 -35 -25 -32 -5 2 -16 -10 -26 -28 -15 -28 -18
-30 -21 -13 -2 11 -11 28 -19 37 -8 9 -12 21 -9 27 10 16 -12 23 -34 11 -16
-9 -25 -8 -36 1 -11 9 -16 6 -27 -20 -7 -17 -16 -28 -20 -25 -15 15 -17 -27
-3 -54 18 -34 13 -58 -15 -73 -30 -16 -23 -53 15 -83 19 -14 42 -26 51 -26 12
0 15 -5 10 -17 -15 -37 -17 -53 -6 -53 7 0 9 5 5 13 -6 9 -4 9 8 -1 13 -11 21
-8 46 13 34 29 63 35 41 9 -22 -27 -19 -44 7 -44 32 0 89 24 100 42 14 22 64
50 80 44 8 -3 18 -16 24 -30 9 -24 23 -28 49 -12 14 9 13 14 -7 171 -7 60 -34
116 -72 150 -11 10 -23 15 -27 12 -3 -4 -12 -2 -19 4 -11 9 -15 7 -20 -5 -6
-15 -7 -15 -19 1 -12 16 -15 14 -31 -19z m36 -10 c0 -5 -7 -8 -15 -8 -17 0
-18 2 -9 25 5 13 8 14 15 3 5 -7 9 -16 9 -20z m47 -8 c-3 41 25 30 61 -24 25
-38 32 -59 31 -90 -1 -23 4 -54 10 -69 13 -33 12 -105 -2 -114 -6 -4 -8 0 -4
10 5 12 1 17 -12 17 -22 0 -71 53 -72 78 0 10 -3 12 -5 5 -3 -7 0 -21 5 -32 9
-16 7 -23 -11 -35 -20 -14 -22 -14 -32 6 -25 48 -68 49 -86 2 -10 -25 -13 -26
-61 -19 -27 4 -62 11 -77 15 -24 8 -23 8 14 9 37 1 64 15 64 33 0 4 -7 8 -15
8 -10 0 -12 -6 -8 -17 6 -15 4 -16 -9 -5 -9 7 -36 11 -64 10 -47 -3 -49 -2
-52 24 -3 22 2 29 22 34 14 3 23 11 20 18 -6 17 67 56 105 56 19 0 30 -4 26
-10 -3 -5 -4 -10 -1 -10 4 0 13 18 22 40 9 22 19 39 22 38 4 -1 17 1 29 6 16
5 35 0 65 -18 24 -14 37 -26 31 -26 -7 0 -13 -12 -13 -26 0 -35 -16 -61 -48
-78 -15 -9 -21 -15 -14 -16 22 0 72 57 72 82 0 13 5 29 11 35 8 8 0 17 -29 33
-37 21 -39 25 -29 47 l11 25 13 -33 c10 -28 12 -29 10 -9z m-222 8 c33 15 40
15 27 -1 -8 -10 -6 -16 9 -25 27 -17 25 -52 -3 -52 -13 0 -38 -9 -55 -20 l-33
-20 -15 30 c-20 39 -20 57 0 40 12 -10 15 -9 15 8 0 33 11 56 21 41 6 -10 13
-10 34 -1z m174 -242 c15 -18 4 -64 -18 -75 -24 -13 -80 -20 -86 -11 -3 4 3
14 12 21 9 8 22 29 30 47 14 34 42 42 62 18z m-152 -62 c2 -6 -3 -14 -12 -18
-9 -3 -13 -2 -10 4 3 6 1 10 -4 10 -6 0 -11 5 -11 11 0 14 32 8 37 -7z m280
-1 c-4 -3 -7 0 -7 7 0 7 3 10 7 7 3 -4 3 -10 0 -14z"/>
<path d="M280 320 c-44 -44 -35 -107 15 -103 55 4 88 57 61 98 -20 30 -49 32
-76 5z"/>
<path d="M172 243 c-6 -2 -10 -8 -7 -13 3 -4 -3 -7 -12 -6 -9 0 -18 -5 -20
-11 -6 -16 46 -17 67 -2 13 9 12 10 -2 5 -12 -3 -18 0 -18 9 0 7 10 16 23 18
18 4 19 4 2 5 -11 0 -26 -2 -33 -5z"/>
<path d="M438 243 c7 -3 16 -2 19 1 4 3 -2 6 -13 5 -11 0 -14 -3 -6 -6z"/>
<path d="M424 219 c-10 -17 13 -36 27 -22 12 12 4 33 -11 33 -5 0 -12 -5 -16
-11z"/>
<path d="M83 183 c4 -3 10 -3 14 0 3 4 0 7 -7 7 -7 0 -10 -3 -7 -7z"/>
<path d="M430 150 c0 -5 5 -10 10 -10 6 0 10 5 10 10 0 6 -4 10 -10 10 -5 0
-10 -4 -10 -10z"/>
<path d="M230 65 c0 -3 2 -5 5 -5 3 0 5 2 5 5 0 3 -2 5 -5 5 -3 0 -5 -2 -5 -5z"/>
<path d="M250 65 c0 -3 2 -5 5 -5 3 0 5 2 5 5 0 3 -2 5 -5 5 -3 0 -5 -2 -5 -5z"/>
</g>
</svg>
