<?xml version="1.0" standalone="no"?>
<!DOCTYPE svg PUBLIC "-//W3C//DTD SVG 20010904//EN"
 "http://www.w3.org/TR/2001/REC-SVG-20010904/DTD/svg10.dtd">
<svg version="1.0" xmlns="http://www.w3.org/2000/svg"
 width="56.000000pt" height="56.000000pt" viewBox="0 0 56.000000 56.000000"
 preserveAspectRatio="xMidYMid meet">
<metadata>
Created by potrace 1.16, written by Peter Selinger 2001-2019
</metadata>
<g transform="translate(0.000000,56.000000) scale(0.100000,-0.100000)"
fill="#000000" stroke="none">
<path d="M99 539 c-6 -12 -9 -32 -6 -44 3 -17 -4 -29 -24 -44 -16 -12 -35 -21
-43 -21 -23 0 -30 -20 -13 -37 11 -12 12 -21 4 -43 -11 -30 2 -60 28 -60 7 0
18 -6 24 -14 9 -10 7 -16 -5 -27 -21 -17 -54 -83 -54 -109 0 -26 22 -35 49
-20 12 6 21 7 22 3 0 -4 2 -19 3 -33 2 -15 -4 -30 -16 -38 -10 -7 -16 -17 -13
-21 10 -17 82 -20 138 -7 61 14 91 12 117 -9 17 -14 118 -17 126 -4 2 5 25 17
49 28 49 22 78 59 73 93 -3 20 -8 23 -45 20 -42 -3 -43 -2 -43 27 0 38 -16 48
-41 25 -23 -21 -24 -15 -2 31 21 43 13 52 -23 28 -28 -18 -28 -18 -20 2 19 44
13 60 -24 65 l-35 5 33 23 c39 28 40 39 7 54 -20 9 -25 18 -25 48 0 24 -7 43
-19 54 -11 10 -17 24 -14 32 7 19 -11 18 -57 -6 -35 -18 -43 -19 -63 -6 -42
26 -75 28 -88 5z m84 -11 c9 -5 17 -13 17 -19 0 -6 -9 -5 -22 2 -19 10 -24 9
-36 -10 -27 -41 -55 -16 -36 33 6 16 38 14 77 -6z m113 13 c-3 -4 3 -16 14
-26 21 -19 27 -60 11 -69 -5 -4 -7 2 -4 12 2 10 -4 29 -15 42 -32 40 -86 12
-106 -56 -6 -18 1 -25 44 -43 55 -24 59 -30 33 -53 -20 -16 -31 -17 -51 -4 -7
4 -18 3 -25 -2 -7 -5 -45 -17 -85 -27 -85 -22 -104 -15 -85 34 8 24 8 32 -5
45 -20 20 -11 29 22 20 28 -7 35 -31 11 -40 -17 -7 -20 -24 -5 -24 6 0 16 12
22 26 10 22 10 28 -6 40 -18 12 -17 14 14 31 19 10 44 28 57 41 13 12 25 22
27 22 11 0 15 -34 6 -45 -8 -9 -8 -15 0 -20 9 -6 14 10 13 42 -1 7 3 11 7 8 5
-3 11 -1 15 5 7 11 74 49 88 50 5 0 6 -4 3 -9z m84 -151 c0 -4 -11 -15 -25
-24 -28 -19 -30 -17 -14 18 10 22 39 27 39 6z m-152 -62 c7 -7 12 -8 12 -4 0
5 7 3 15 -4 11 -9 12 -16 5 -25 -8 -9 -2 -12 26 -11 50 1 54 -20 7 -39 -21 -9
-40 -15 -43 -13 -3 2 -5 17 -5 33 0 35 -7 37 -54 18 -36 -15 -126 -10 -116 7
3 5 30 14 61 21 30 7 57 16 60 21 7 11 18 10 32 -4z m162 -24 c0 -14 -3 -14
-15 -4 -8 7 -15 14 -15 16 0 2 7 4 15 4 8 0 15 -7 15 -16z m-157 -53 c-3 -10
0 -22 6 -25 19 -12 12 -43 -15 -61 -20 -13 -28 -14 -40 -4 -19 16 -18 23 12
69 28 43 45 52 37 21z m189 -3 c-7 -7 -12 -8 -12 -2 0 14 12 26 19 19 2 -3 -1
-11 -7 -17z m-302 -35 c-6 -51 -23 -66 -40 -34 -8 16 -7 28 5 51 24 47 42 39
35 -17z m53 -4 c-16 -27 -16 -29 6 -52 19 -22 20 -25 6 -31 -9 -3 -25 -6 -35
-6 -22 0 -46 35 -30 45 5 3 10 21 10 39 0 40 4 44 35 38 24 -4 25 -5 8 -33z
m-103 11 c0 -5 -4 -10 -10 -10 -5 0 -10 5 -10 10 0 6 5 10 10 10 6 0 10 -4 10
-10z m240 1 c0 -9 -41 -23 -48 -16 -2 2 -1 8 3 14 8 13 45 15 45 2z m150 -26
c0 -8 -4 -15 -9 -15 -13 0 -22 16 -14 24 11 11 23 6 23 -9z m-389 -28 c6 -21
3 -29 -12 -38 -21 -11 -39 -5 -39 14 0 7 4 6 10 -3 6 -9 10 -10 10 -3 0 6 -5
15 -10 18 -13 8 7 48 23 42 6 -2 14 -15 18 -30z m254 16 c16 -15 16 -17 -2
-26 -10 -5 -28 -19 -40 -29 -26 -24 -55 -20 -59 7 -2 13 8 28 29 43 38 26 50
27 72 5z m85 -28 c0 -23 -27 -48 -45 -41 -14 5 -16 13 -11 38 8 40 27 53 44
31 6 -9 12 -22 12 -28z m97 -13 c42 11 53 4 30 -20 -14 -13 -21 -14 -36 -5
-15 10 -20 10 -24 0 -3 -9 -8 -9 -20 2 -22 18 -22 35 0 23 10 -6 29 -6 50 0z
m-402 -11 c3 -5 1 -12 -5 -16 -5 -3 -10 1 -10 9 0 18 6 21 15 7z m25 -51 c0
-23 -10 -26 -28 -8 -18 18 -15 28 8 28 13 0 20 -7 20 -20z m232 0 c17 -1 12
-5 -17 -15 -22 -8 -41 -15 -41 -15 -1 0 -5 7 -8 16 -9 24 2 36 24 24 10 -5 29
-10 42 -10z m-112 0 c0 -19 -31 -23 -48 -6 -15 15 -14 16 16 16 18 0 32 -5 32
-10z m-119 -40 l24 -19 -23 -1 c-13 0 -21 4 -17 9 3 5 1 12 -4 15 -5 4 -12 2
-16 -4 -3 -5 -13 -10 -21 -10 -8 0 -12 5 -9 10 4 6 11 8 16 5 5 -4 9 -1 9 4 0
16 15 13 41 -9z m257 1 c3 -10 -3 -12 -26 -6 -17 3 -33 2 -37 -4 -3 -7 0 -8 9
-5 9 3 16 1 16 -5 0 -15 -27 -14 -36 1 -9 15 25 40 50 36 11 -2 21 -9 24 -17z
m37 -21 c3 -5 -3 -10 -15 -10 -12 0 -18 5 -15 10 3 6 10 10 15 10 5 0 12 -4
15 -10z"/>
<path d="M138 389 c-36 -26 -36 -49 -2 -49 23 0 25 3 20 26 -6 23 -4 26 14 21
17 -4 19 -3 9 9 -6 8 -12 14 -13 14 0 0 -13 -10 -28 -21z m-8 -34 c0 -3 -2 -5
-5 -5 -3 0 -5 2 -5 5 0 3 2 5 5 5 3 0 5 -2 5 -5z"/>
<path d="M170 355 c0 -3 2 -5 5 -5 3 0 5 2 5 5 0 3 -2 5 -5 5 -3 0 -5 -2 -5
-5z"/>
<path d="M60 319 c0 -5 5 -7 10 -4 6 3 10 8 10 11 0 2 -4 4 -10 4 -5 0 -10 -5
-10 -11z"/>
<path d="M245 310 c3 -5 8 -10 11 -10 3 0 2 5 -1 10 -3 6 -8 10 -11 10 -3 0
-2 -4 1 -10z"/>
</g>
</svg>
