<?xml version="1.0" standalone="no"?>
<!DOCTYPE svg PUBLIC "-//W3C//DTD SVG 20010904//EN"
 "http://www.w3.org/TR/2001/REC-SVG-20010904/DTD/svg10.dtd">
<svg version="1.0" xmlns="http://www.w3.org/2000/svg"
 width="56.000000pt" height="56.000000pt" viewBox="0 0 56.000000 56.000000"
 preserveAspectRatio="xMidYMid meet">
<metadata>
Created by potrace 1.16, written by Peter Selinger 2001-2019
</metadata>
<g transform="translate(0.000000,56.000000) scale(0.100000,-0.100000)"
fill="#000000" stroke="none">
<path d="M186 406 c-14 -19 -22 -37 -18 -41 4 -3 -1 -11 -11 -17 -12 -6 -15
-13 -8 -21 13 -16 12 -29 -4 -47 -8 -9 -13 -35 -11 -69 1 -31 -4 -61 -12 -72
-11 -16 -11 -20 3 -25 8 -4 21 -2 28 4 6 5 29 20 51 31 35 20 38 20 32 4 -13
-31 -12 -37 7 -41 11 -2 31 7 45 20 50 44 87 65 126 71 52 8 64 21 43 45 -13
14 -14 21 -5 30 10 10 8 14 -10 19 -17 4 -21 10 -16 25 5 17 3 19 -15 13 -19
-6 -21 -4 -15 19 6 27 -8 36 -23 14 -5 -9 -10 -1 -13 22 -4 30 -9 35 -33 35
-16 1 -31 -3 -33 -7 -3 -5 -10 -6 -15 -3 -5 4 -9 1 -9 -6 0 -9 -4 -8 -12 3
-25 30 -45 28 -72 -6z m68 -3 c5 -13 -5 -30 -55 -90 -5 -7 -17 -13 -26 -13 -9
0 -13 3 -10 7 4 3 2 12 -3 18 -8 9 -6 14 6 19 9 4 14 13 10 21 -3 8 -2 15 3
15 4 0 13 11 19 24 12 27 46 26 56 -1z m95 -12 c-1 -16 -3 -20 -6 -8 -5 21 -7
21 -43 2 -18 -9 -40 -36 -56 -66 -26 -51 -26 -71 -1 -51 8 7 16 9 19 7 3 -3
22 13 42 35 20 22 36 35 36 29 0 -5 5 -7 10 -4 6 4 7 12 4 18 -4 7 -4 9 1 5 4
-4 14 -3 22 3 15 13 17 5 3 -21 -7 -13 -5 -21 7 -31 9 -8 14 -9 10 -3 -4 7 0
14 8 17 9 4 12 1 8 -9 -4 -10 2 -17 16 -21 11 -3 18 -10 15 -15 -3 -5 -13 -7
-23 -3 -9 3 -2 -5 14 -19 17 -13 27 -28 23 -32 -5 -4 -8 -1 -8 6 0 9 -6 8 -20
-5 -13 -12 -27 -15 -45 -11 -21 5 -36 -1 -76 -34 -59 -50 -80 -49 -45 3 26 37
37 105 15 92 -6 -4 -7 -19 -4 -35 5 -23 2 -31 -15 -40 -11 -6 -18 -15 -15 -20
3 -6 -1 -7 -9 -4 -9 3 -16 2 -16 -3 0 -6 -16 -7 -37 -4 -36 6 -38 8 -40 46 -1
22 1 32 4 22 2 -10 10 -16 16 -14 17 5 21 48 5 58 -8 6 -9 9 -1 9 6 0 18 2 26
5 10 5 13 -1 9 -25 -2 -16 -8 -33 -13 -36 -5 -3 -9 -16 -9 -30 0 -52 61 -19
76 41 7 27 6 29 -9 17 -24 -20 -39 -5 -31 31 8 38 54 106 72 107 6 0 12 3 12
8 0 4 11 8 25 8 21 2 25 -2 24 -25z m41 -66 c0 -3 -2 -5 -5 -5 -3 0 -5 2 -5 5
0 3 2 5 5 5 3 0 5 -2 5 -5z m-223 -61 c-3 -3 -12 -4 -19 -1 -8 3 -5 6 6 6 11
1 17 -2 13 -5z m73 -38 c0 -7 -7 -19 -15 -26 -12 -10 -15 -10 -15 1 0 11 -2
11 -10 -1 -5 -8 -10 -11 -10 -6 0 12 31 46 42 46 4 0 8 -6 8 -14z m-63 -83
c-4 -3 -10 -3 -14 0 -3 4 0 7 7 7 7 0 10 -3 7 -7z m-30 -19 c-3 -3 -12 -4 -19
-1 -8 3 -5 6 6 6 11 1 17 -2 13 -5z m110 0 c-3 -3 -12 -4 -19 -1 -8 3 -5 6 6
6 11 1 17 -2 13 -5z"/>
<path d="M311 306 c-25 -26 -7 -32 22 -8 13 11 16 10 20 -5 4 -15 5 -15 6 -2
0 9 -5 22 -12 28 -11 8 -19 5 -36 -13z m29 10 c0 -2 -8 -10 -17 -17 -16 -13
-17 -12 -4 4 13 16 21 21 21 13z"/>
<path d="M370 260 c0 -5 5 -10 10 -10 6 0 10 5 10 10 0 6 -4 10 -10 10 -5 0
-10 -4 -10 -10z"/>
<path d="M315 250 c-8 -13 3 -30 20 -30 8 0 11 7 8 20 -6 22 -18 26 -28 10z"/>
<path d="M410 240 c0 -5 5 -10 10 -10 6 0 10 5 10 10 0 6 -4 10 -10 10 -5 0
-10 -4 -10 -10z"/>
</g>
</svg>
