<?xml version="1.0" standalone="no"?>
<!DOCTYPE svg PUBLIC "-//W3C//DTD SVG 20010904//EN"
 "http://www.w3.org/TR/2001/REC-SVG-20010904/DTD/svg10.dtd">
<svg version="1.0" xmlns="http://www.w3.org/2000/svg"
 width="56.000000pt" height="56.000000pt" viewBox="0 0 56.000000 56.000000"
 preserveAspectRatio="xMidYMid meet">
<metadata>
Created by potrace 1.16, written by Peter Selinger 2001-2019
</metadata>
<g transform="translate(0.000000,56.000000) scale(0.100000,-0.100000)"
fill="#000000" stroke="none">
<path d="M230 454 c-19 -8 -42 -22 -52 -31 -17 -15 -19 -15 -32 2 -17 23 -31
3 -16 -24 14 -27 13 -36 -4 -22 -25 21 -28 -6 -5 -38 22 -30 19 -51 -7 -51
-19 0 -18 -17 3 -29 16 -8 16 -14 6 -42 -10 -27 -10 -37 1 -54 12 -19 11 -25
-14 -62 -16 -23 -26 -44 -23 -47 16 -15 51 -3 86 32 30 28 38 32 35 17 -3 -11
-7 -27 -9 -35 -6 -24 47 -24 86 -1 l35 20 16 -23 c13 -22 23 -24 84 -24 79 0
96 11 86 58 -3 18 0 39 7 51 10 17 9 22 -7 34 -10 8 -24 16 -29 18 -7 2 -2 18
11 41 28 47 28 50 -3 42 -24 -6 -35 7 -15 19 20 12 10 27 -15 21 -23 -6 -24
-5 -14 21 6 16 20 38 31 51 19 19 19 22 4 22 -13 0 -15 4 -6 19 17 32 -6 34
-66 7 -31 -14 -60 -24 -64 -21 -5 3 -12 0 -17 -7 -4 -7 -18 -14 -31 -14 -18
-1 -22 2 -16 15 19 47 6 57 -46 35z m50 -1 c0 -26 -63 -112 -89 -123 -28 -11
-33 -10 -56 11 -26 25 -35 50 -11 30 20 -17 30 3 16 30 -7 11 -9 23 -7 26 3 2
8 -5 12 -17 l7 -22 22 21 c19 18 80 50 99 51 4 0 7 -3 7 -7z m179 -14 c-8 -16
-8 -23 0 -29 9 -5 8 -10 -2 -19 -12 -9 -16 -8 -21 4 -10 26 -47 16 -87 -23
-21 -21 -41 -51 -45 -67 -6 -24 -2 -32 27 -56 30 -24 32 -29 19 -45 -13 -18
-13 -18 5 -2 15 14 16 20 6 32 -10 12 -8 16 11 22 18 5 29 -1 59 -36 l38 -44
-29 -34 c-26 -32 -31 -62 -9 -62 12 0 11 18 -1 22 -5 2 1 17 15 33 21 25 26
28 35 15 5 -8 7 -23 4 -33 -3 -10 0 -25 7 -33 17 -21 -1 -36 -37 -32 -28 3
-41 21 -73 101 -6 15 -15 27 -20 27 -13 0 -83 -61 -78 -67 3 -2 18 10 35 27
17 16 35 30 40 30 9 0 26 -31 20 -35 -2 0 -22 -9 -46 -18 -58 -22 -77 -14 -46
20 18 20 21 29 13 44 -5 11 -15 19 -22 18 -9 0 -9 -2 1 -6 6 -2 12 -9 12 -15
0 -7 -5 -6 -14 1 -10 9 -25 7 -61 -9 -25 -11 -53 -20 -60 -20 -21 0 -40 39
-26 53 6 6 11 19 11 28 0 12 6 16 20 12 24 -6 38 21 21 41 -9 11 -3 18 34 36
40 20 48 30 48 66 0 5 10 10 22 10 15 0 21 -5 18 -13 -9 -24 6 -13 21 15 13
23 15 24 16 7 1 -13 4 -15 7 -6 5 12 97 61 116 61 4 0 3 -10 -4 -21z m-212
-96 c-4 -3 -7 0 -7 7 0 7 3 10 7 7 3 -4 3 -10 0 -14z m207 -48 c-20 -31 -14
-41 16 -25 32 17 35 5 4 -19 -34 -26 -36 -26 -63 3 l-23 25 33 20 c45 28 53
26 33 -4z m-274 -30 c0 -19 -17 -19 -50 0 l-25 14 38 1 c26 0 37 -4 37 -15z
m280 10 c0 -3 -2 -5 -5 -5 -3 0 -5 2 -5 5 0 3 2 5 5 5 3 0 5 -2 5 -5z m50
-111 c0 -25 -16 -22 -32 6 l-16 29 24 -11 c13 -6 24 -17 24 -24z m-340 -44
c13 -8 10 -14 -14 -37 -16 -15 -26 -22 -22 -15 4 7 1 12 -8 12 -13 0 -14 4 -4
25 12 27 24 30 48 15z m222 -40 c2 -8 8 -18 13 -22 6 -4 2 -8 -7 -8 -10 0 -18
5 -18 10 0 6 -8 10 -19 10 -10 0 -24 7 -31 15 -13 15 -13 15 30 28 15 4 26 -7
32 -33z m-135 -3 c-2 -7 -16 -13 -31 -15 -19 -2 -26 0 -21 8 4 6 16 8 28 5 19
-5 20 -5 5 5 -26 16 -23 33 3 20 11 -6 18 -17 16 -23z m-140 -13 c-3 -3 -12
-4 -19 -1 -8 3 -5 6 6 6 11 1 17 -2 13 -5z m253 -9 c0 -3 -2 -5 -5 -5 -3 0 -5
2 -5 5 0 3 2 5 5 5 3 0 5 -2 5 -5z"/>
<path d="M278 365 c-4 -16 -9 -39 -12 -50 -4 -11 1 -5 9 14 9 18 14 41 13 50
-2 9 -7 3 -10 -14z"/>
<path d="M237 240 c-15 -21 -27 -40 -27 -43 0 -11 50 7 65 23 15 16 15 22 3
38 -13 19 -15 18 -41 -18z m38 -10 c-6 -9 -9 -9 -16 1 -10 17 0 34 13 21 6 -6
7 -16 3 -22z m-25 -5 c0 -3 -2 -5 -5 -5 -3 0 -5 2 -5 5 0 3 2 5 5 5 3 0 5 -2
5 -5z"/>
<path d="M165 180 c-3 -5 -1 -10 4 -10 6 0 11 5 11 10 0 6 -2 10 -4 10 -3 0
-8 -4 -11 -10z"/>
<path d="M420 185 c0 -3 2 -5 5 -5 3 0 5 2 5 5 0 3 -2 5 -5 5 -3 0 -5 -2 -5
-5z"/>
<path d="M400 144 c0 -8 5 -12 10 -9 6 3 10 10 10 16 0 5 -4 9 -10 9 -5 0 -10
-7 -10 -16z"/>
<path d="M443 63 c9 -2 25 -2 35 0 9 3 1 5 -18 5 -19 0 -27 -2 -17 -5z"/>
</g>
</svg>
