<?xml version="1.0" standalone="no"?>
<!DOCTYPE svg PUBLIC "-//W3C//DTD SVG 20010904//EN"
 "http://www.w3.org/TR/2001/REC-SVG-20010904/DTD/svg10.dtd">
<svg version="1.0" xmlns="http://www.w3.org/2000/svg"
 width="56.000000pt" height="56.000000pt" viewBox="0 0 56.000000 56.000000"
 preserveAspectRatio="xMidYMid meet">
<metadata>
Created by potrace 1.16, written by Peter Selinger 2001-2019
</metadata>
<g transform="translate(0.000000,56.000000) scale(0.100000,-0.100000)"
fill="#000000" stroke="none">
<path d="M115 551 c-3 -5 -1 -12 4 -15 5 -4 5 -19 -1 -40 l-11 -34 -44 30
c-60 41 -75 24 -23 -27 l39 -39 -40 -34 c-37 -32 -40 -38 -34 -71 9 -47 16
-54 48 -42 42 16 81 4 100 -32 32 -63 31 -97 -1 -65 -8 8 -15 8 -27 -2 -24
-20 -64 2 -72 40 -3 17 -10 33 -15 36 -10 7 -38 -57 -38 -88 0 -28 52 -94 80
-103 20 -6 20 -7 -2 -25 -22 -17 -22 -19 -4 -26 10 -4 48 -2 85 3 49 8 102 7
205 -4 134 -14 141 -14 165 5 20 15 26 29 28 70 2 33 -2 63 -12 82 -12 24 -13
35 -4 51 8 16 8 27 -2 45 -10 20 -10 27 4 42 19 21 13 32 -15 32 -17 0 -17 2
-1 35 9 19 14 37 11 41 -4 3 -24 -5 -46 -18 -23 -12 -43 -20 -47 -16 -3 3 1
23 9 43 16 37 13 61 -5 49 -5 -3 -7 -9 -4 -14 7 -11 -53 -80 -69 -80 -6 0 -4
5 5 10 17 10 16 17 -2 89 -2 8 4 17 13 19 23 4 34 -38 18 -70 -11 -23 -11 -23
8 2 19 23 19 26 4 55 -9 16 -17 37 -17 45 0 18 -62 32 -73 16 -4 -6 -23 -24
-42 -40 l-34 -28 -11 33 c-14 41 -26 40 -42 -4 -6 -17 -12 -25 -12 -16 -1 8
-18 25 -38 37 -21 12 -31 22 -22 22 9 0 29 -9 45 -21 l29 -21 -28 26 c-29 27
-52 33 -62 17z m248 -30 c-92 -48 -113 -63 -113 -76 0 -8 9 -15 19 -15 11 0
32 -11 48 -24 22 -19 25 -26 15 -38 -15 -18 -72 -12 -72 8 0 26 -29 26 -63 0
-19 -14 -37 -23 -40 -19 -4 3 -7 3 -7 -1 0 -15 51 -26 72 -15 11 6 22 8 25 5
10 -10 -69 -36 -92 -30 -13 3 -26 0 -30 -6 -5 -9 -1 -10 16 -5 19 5 21 4 9 -4
-19 -14 -47 -14 -55 -1 -4 6 -1 27 5 46 8 22 15 32 20 25 11 -18 47 18 54 54
3 17 3 24 0 18 -3 -7 -10 -13 -15 -13 -5 0 -4 9 3 19 13 21 38 17 38 -5 0 -17
16 -18 26 -3 3 6 1 15 -5 19 -9 5 -10 19 -5 46 7 36 8 37 16 14 5 -13 6 -30 4
-37 -3 -7 0 -13 7 -13 15 0 97 60 97 71 0 3 12 4 27 1 l26 -5 -30 -16z m-203
-3 c0 -2 -6 -20 -14 -42 -8 -23 -16 -34 -20 -27 -11 18 4 71 20 71 8 0 14 -1
14 -2z m-107 -30 c53 -37 81 -68 71 -78 -6 -6 -29 10 -64 45 -57 58 -59 70 -7
33z m407 -23 c0 -3 -2 -5 -5 -5 -3 0 -5 2 -5 5 0 3 2 5 5 5 3 0 5 -2 5 -5z
m49 -84 c-12 -17 -28 -27 -35 -24 -19 7 -18 8 19 32 41 27 42 26 16 -8z m-434
-16 c0 -11 -7 -21 -16 -23 -18 -3 -33 23 -23 39 10 17 39 5 39 -16z m175 13
c0 -7 14 -26 30 -43 20 -20 28 -38 24 -48 -8 -22 -69 -57 -99 -57 -27 0 -41
15 -24 26 8 4 9 3 5 -4 -12 -20 39 -14 66 8 23 17 48 67 29 55 -5 -2 -13 7
-20 21 -7 17 -17 24 -26 20 -15 -5 -21 15 -8 27 10 11 23 8 23 -5z m-220 -32
c0 -8 -4 -18 -10 -21 -5 -3 -10 3 -10 14 0 12 5 21 10 21 6 0 10 -6 10 -14z
m180 9 c0 -3 -2 -5 -5 -5 -3 0 -5 2 -5 5 0 3 2 5 5 5 3 0 5 -2 5 -5z m206 -30
c2 -5 -5 -21 -16 -35 -15 -20 -22 -22 -31 -13 -17 17 5 66 28 61 9 -2 18 -7
19 -13z m-336 -11 c0 -8 -4 -12 -10 -9 -5 3 -10 10 -10 16 0 5 5 9 10 9 6 0
10 -7 10 -16z m460 11 c0 -2 -9 -9 -20 -15 -16 -9 -20 -8 -20 5 0 8 9 15 20
15 11 0 20 -2 20 -5z m-275 -25 c3 -5 4 -10 1 -10 -3 0 -8 5 -11 10 -3 6 -4
10 -1 10 3 0 8 -4 11 -10z m209 1 c3 -5 -8 -11 -24 -13 -29 -4 -37 1 -23 15 9
10 41 9 47 -2z m-439 -11 c3 -5 1 -10 -4 -10 -6 0 -11 5 -11 10 0 6 2 10 4 10
3 0 8 -4 11 -10z m145 -5 c0 -3 -2 -5 -5 -5 -3 0 -5 2 -5 5 0 3 2 5 5 5 3 0 5
-2 5 -5z m-20 -10 c0 -3 -2 -5 -5 -5 -3 0 -5 2 -5 5 0 3 2 5 5 5 3 0 5 -2 5
-5z m90 0 c0 -3 -2 -5 -5 -5 -3 0 -5 2 -5 5 0 3 2 5 5 5 3 0 5 -2 5 -5z m238
-27 c5 -46 -62 -76 -98 -43 -9 8 -31 18 -49 21 -32 7 -33 6 -22 -14 9 -16 8
-26 -1 -42 -15 -24 -24 -25 -32 -4 -11 28 -6 45 17 65 25 21 47 25 47 7 0 -6
6 -4 13 5 14 20 61 37 97 34 19 -2 26 -8 28 -29z m35 17 c19 -14 16 -55 -4
-55 -5 0 -9 1 -9 3 0 1 -4 17 -9 35 -10 35 -6 39 22 17z m-293 1 c0 -3 -4 -8
-10 -11 -5 -3 -10 -1 -10 4 0 6 5 11 10 11 6 0 10 -2 10 -4z m-190 -31 c0 -8
-4 -15 -10 -15 -5 0 -7 7 -4 15 8 19 14 19 14 0z m230 -46 c0 -32 -31 -55 -58
-43 -9 4 -19 7 -22 6 -3 0 -6 15 -7 33 -1 31 1 34 30 37 47 5 57 -1 57 -33z
m-236 6 c-16 -13 -16 -14 -1 -9 9 3 24 1 31 -6 13 -10 12 -14 -6 -32 -22 -22
-32 -16 -42 23 -6 29 0 39 23 39 11 0 10 -3 -5 -15z m346 5 c0 -5 -9 -10 -21
-10 -11 0 -17 5 -14 10 3 6 13 10 21 10 8 0 14 -4 14 -10z m-216 -49 c17 -31
6 -51 -27 -51 -10 0 -15 -4 -12 -10 3 -5 15 -10 25 -10 13 0 17 -5 14 -15 -6
-15 -43 -21 -45 -7 -7 32 -5 90 3 105 13 24 25 21 42 -12z m213 22 c-4 -3 -10
-3 -14 0 -3 4 0 7 7 7 7 0 10 -3 7 -7z m88 -12 c41 -9 40 -39 -2 -64 l-33 -19
-12 27 c-11 24 -10 29 7 41 18 13 17 14 -9 14 -17 0 -25 4 -21 11 4 6 14 7 24
3 9 -3 30 -9 46 -13z m-105 -1 c13 -8 13 -10 -2 -10 -9 0 -20 5 -23 10 -8 13
5 13 25 0z m-273 -25 c7 -20 -2 -29 -21 -22 -9 4 -13 13 -10 22 8 19 23 19 31
0z m189 -16 c-26 -6 -43 -6 -50 1 -7 7 6 10 40 9 l49 -1 -39 -9z m147 -68
c-14 -23 -38 -27 -29 -6 3 10 1 23 -5 31 -6 7 -8 23 -4 35 7 20 8 19 27 -12
14 -23 17 -38 11 -48z m-94 40 c15 -10 6 -31 -13 -31 -8 0 -24 9 -37 20 l-24
19 30 1 c17 0 36 -4 44 -9z m197 -38 c-10 -10 -19 5 -10 18 6 11 8 11 12 0 2
-7 1 -15 -2 -18z m-310 6 c10 -17 -13 -36 -27 -22 -12 12 -4 33 11 33 5 0 12
-5 16 -11z m-92 -15 c29 -11 17 -24 -21 -24 -36 1 -37 2 -19 15 23 17 20 17
40 9z m380 -10 c24 -9 9 -24 -24 -24 -33 0 -49 16 -23 23 28 7 30 7 47 1z"/>
</g>
</svg>
