<?xml version="1.0" standalone="no"?>
<!DOCTYPE svg PUBLIC "-//W3C//DTD SVG 20010904//EN"
 "http://www.w3.org/TR/2001/REC-SVG-20010904/DTD/svg10.dtd">
<svg version="1.0" xmlns="http://www.w3.org/2000/svg"
 width="56.000000pt" height="56.000000pt" viewBox="0 0 56.000000 56.000000"
 preserveAspectRatio="xMidYMid meet">
<metadata>
Created by potrace 1.16, written by Peter Selinger 2001-2019
</metadata>
<g transform="translate(0.000000,56.000000) scale(0.100000,-0.100000)"
fill="#000000" stroke="none">
<path d="M198 421 c-14 -12 -32 -21 -40 -21 -8 0 -23 -6 -34 -14 -19 -14 -19
-15 4 -45 27 -37 28 -57 2 -64 -26 -7 -25 -32 2 -51 l22 -16 -21 0 c-12 0 -25
-5 -28 -10 -9 -14 19 -56 51 -76 21 -15 28 -15 50 -4 21 12 29 11 54 -4 38
-22 55 -13 34 19 -18 28 -11 67 12 58 8 -3 20 0 28 6 20 17 40 -42 25 -72 -9
-19 -8 -20 3 -6 7 8 21 18 31 22 26 10 44 54 28 70 -10 9 -11 8 -6 -5 7 -17
-10 -58 -24 -58 -4 0 -3 20 3 44 15 66 65 73 66 9 0 -63 -54 -109 -115 -97
-23 4 -35 2 -35 -5 0 -16 66 -13 100 4 32 17 60 61 60 95 0 26 -26 77 -41 82
-9 3 -9 9 0 25 14 27 0 38 -29 23 -27 -14 -26 2 1 39 12 16 19 37 17 47 -3 19
-14 20 -108 14 -14 0 -39 2 -55 5 -22 5 -37 1 -57 -14z m102 -3 c8 -1 28 2 43
7 27 7 27 7 16 -19 -7 -14 -16 -26 -21 -26 -16 0 -8 -39 12 -53 34 -24 53
-111 31 -146 -7 -11 -10 -9 -16 8 -4 12 -18 27 -31 33 -33 15 -58 -9 -58 -57
0 -38 -2 -40 -40 -26 -18 7 -28 6 -36 -5 -17 -20 -27 -18 -33 7 -4 14 -11 20
-20 16 -24 -9 -29 5 -7 20 16 11 24 11 42 2 13 -6 4 6 -19 28 -48 44 -53 58
-23 66 11 3 20 13 20 22 0 9 5 25 10 36 9 16 14 17 30 6 15 -9 25 -9 38 -1 21
14 23 46 2 51 -9 2 -10 1 -2 -3 6 -3 12 -12 12 -19 0 -19 -38 -29 -55 -15 -38
32 6 86 60 75 17 -3 37 -6 45 -7z m-134 -76 c-4 -3 -11 -1 -18 6 -8 8 -8 15 3
28 13 16 14 16 17 -5 2 -13 1 -25 -2 -29z m253 -33 c-8 -15 -8 -24 0 -32 15
-15 14 -27 -3 -27 -8 0 -19 13 -24 30 -9 24 -8 31 6 40 27 15 34 12 21 -11z
m-89 -99 c0 -5 -7 -10 -15 -10 -8 0 -15 5 -15 10 0 6 7 10 15 10 8 0 15 -4 15
-10z m-185 -20 c-3 -5 -13 -10 -21 -10 -8 0 -14 5 -14 10 0 6 9 10 21 10 11 0
17 -4 14 -10z"/>
<path d="M240 310 c0 -7 3 -10 7 -7 3 4 3 10 0 14 -4 3 -7 0 -7 -7z"/>
<path d="M200 300 c0 -7 3 -10 7 -7 3 4 3 10 0 14 -4 3 -7 0 -7 -7z"/>
<path d="M307 303 c-4 -3 -7 -11 -7 -17 0 -6 4 -5 9 3 15 23 44 5 39 -24 -3
-13 -1 -22 3 -19 5 3 9 13 9 23 0 30 -35 53 -53 34z"/>
<path d="M222 268 c6 -18 28 -21 28 -4 0 9 -7 16 -16 16 -9 0 -14 -5 -12 -12z"/>
<path d="M313 154 c-8 -21 13 -42 28 -27 13 13 5 43 -11 43 -6 0 -13 -7 -17
-16z"/>
</g>
</svg>
