<?xml version="1.0" standalone="no"?>
<!DOCTYPE svg PUBLIC "-//W3C//DTD SVG 20010904//EN"
 "http://www.w3.org/TR/2001/REC-SVG-20010904/DTD/svg10.dtd">
<svg version="1.0" xmlns="http://www.w3.org/2000/svg"
 width="56.000000pt" height="56.000000pt" viewBox="0 0 56.000000 56.000000"
 preserveAspectRatio="xMidYMid meet">
<metadata>
Created by potrace 1.16, written by Peter Selinger 2001-2019
</metadata>
<g transform="translate(0.000000,56.000000) scale(0.100000,-0.100000)"
fill="#000000" stroke="none">
<path d="M40 500 c0 -19 28 -64 54 -89 14 -14 26 -29 26 -34 0 -6 -8 -3 -18 6
-26 24 -41 21 -53 -10 -8 -21 -6 -30 11 -48 l21 -22 -23 -7 c-22 -6 -22 -7 -4
-21 10 -8 24 -16 30 -18 6 -3 3 -11 -9 -21 -20 -16 -20 -16 1 -21 21 -7 78
-120 72 -146 -5 -24 55 -23 77 1 23 25 55 26 102 0 51 -27 63 -25 105 13 43
39 56 78 39 115 -11 23 -10 28 9 42 24 18 17 30 -17 30 -34 0 -28 17 17 42 22
13 40 26 40 30 0 16 -20 17 -60 3 -51 -18 -50 -18 -50 -2 0 6 23 24 51 40 112
62 57 96 -101 62 -55 -11 -68 -11 -92 1 -15 8 -40 14 -55 13 -16 -1 -54 10
-86 25 -61 28 -87 32 -87 16z m104 -36 c29 -14 33 -20 24 -34 -15 -23 -4 -48
26 -62 30 -13 56 3 56 33 0 20 -34 27 -44 10 -4 -5 3 -7 14 -4 24 6 29 -24 6
-33 -22 -8 -56 14 -56 37 0 33 43 45 87 25 35 -15 44 -16 110 -2 73 16 103 13
103 -8 -1 -30 -49 -61 -81 -51 -15 5 -22 -1 -35 -30 -8 -20 -13 -42 -11 -48 2
-7 7 3 11 21 4 18 12 30 17 27 5 -4 6 2 2 11 -4 12 -2 15 8 12 10 -3 14 -26
15 -90 1 -48 5 -91 8 -97 5 -7 -2 -11 -18 -11 -27 0 -56 -32 -56 -62 0 -15 -6
-17 -43 -12 -34 5 -45 2 -60 -14 -28 -30 -61 -9 -92 59 -29 65 -33 150 -10
214 15 41 20 87 6 51 -7 -17 -9 -17 -29 9 -22 28 -27 46 -15 58 10 10 19 9 57
-9z m-42 -100 c10 -21 9 -31 -4 -55 -10 -16 -13 -29 -8 -29 6 0 10 -4 10 -10
0 -6 -10 -5 -26 2 -25 12 -25 12 -5 20 25 9 25 9 6 55 -18 44 -18 43 0 43 9 0
21 -12 27 -26z m-38 -20 c3 -8 2 -12 -4 -9 -6 3 -10 10 -10 16 0 14 7 11 14
-7z m446 1 c0 -4 -88 -45 -96 -45 -2 0 -4 4 -4 9 0 5 19 16 43 24 46 17 57 19
57 12z m-77 -65 c-3 -11 -12 -20 -19 -20 -20 0 -17 28 4 33 9 3 18 5 19 6 0 0
-1 -8 -4 -19z m44 -31 c-10 -6 -24 -8 -32 -5 -9 3 -7 -6 7 -30 22 -37 20 -65
-7 -99 -15 -19 -16 -17 -10 31 4 33 3 54 -4 58 -7 5 -9 -4 -6 -26 4 -26 3 -29
-4 -13 -14 29 -13 83 2 88 6 3 26 6 42 6 26 0 27 -1 12 -10z m-377 -19 c0 -5
-8 -10 -17 -10 -15 0 -16 2 -3 10 19 12 20 12 20 0z m280 -80 c0 -5 -4 -10
-10 -10 -5 0 -10 5 -10 10 0 6 5 10 10 10 6 0 10 -4 10 -10z m30 0 c0 -5 -4
-10 -10 -10 -5 0 -10 5 -10 10 0 6 5 10 10 10 6 0 10 -4 10 -10z m8 -48 c-6
-49 -67 -56 -76 -8 -7 32 5 42 43 38 32 -4 36 -7 33 -30z m-258 -37 c0 -3 -2
-5 -5 -5 -3 0 -5 2 -5 5 0 3 2 5 5 5 3 0 5 -2 5 -5z m27 -2 c-4 -3 -10 -3 -14
0 -3 4 0 7 7 7 7 0 10 -3 7 -7z"/>
<path d="M180 344 c0 -16 -2 -17 -10 -4 -6 9 -10 10 -10 3 0 -19 20 -26 26 -8
4 9 4 19 0 22 -3 4 -6 -2 -6 -13z"/>
<path d="M253 345 c3 -23 19 -27 24 -5 4 12 3 13 -5 1 -8 -11 -11 -10 -15 5
-5 17 -6 17 -4 -1z"/>
<path d="M187 289 c7 -7 15 -10 18 -7 3 3 -2 9 -12 12 -14 6 -15 5 -6 -5z"/>
<path d="M234 288 c-4 -7 -3 -8 4 -4 7 4 12 9 12 12 0 8 -9 4 -16 -8z"/>
<path d="M80 375 c0 -3 2 -5 5 -5 3 0 5 2 5 5 0 3 -2 5 -5 5 -3 0 -5 -2 -5 -5z"/>
<path d="M365 110 c-4 -7 -3 -16 3 -22 14 -14 45 -2 40 15 -6 16 -34 21 -43 7z
m15 -5 c0 -3 -2 -5 -5 -5 -3 0 -5 2 -5 5 0 3 2 5 5 5 3 0 5 -2 5 -5z"/>
</g>
</svg>
