<?xml version="1.0" standalone="no"?>
<!DOCTYPE svg PUBLIC "-//W3C//DTD SVG 20010904//EN"
 "http://www.w3.org/TR/2001/REC-SVG-20010904/DTD/svg10.dtd">
<svg version="1.0" xmlns="http://www.w3.org/2000/svg"
 width="56.000000pt" height="56.000000pt" viewBox="0 0 56.000000 56.000000"
 preserveAspectRatio="xMidYMid meet">
<metadata>
Created by potrace 1.16, written by Peter Selinger 2001-2019
</metadata>
<g transform="translate(0.000000,56.000000) scale(0.100000,-0.100000)"
fill="#000000" stroke="none">
<path d="M106 488 c-9 -12 -16 -28 -16 -35 0 -7 -4 -13 -9 -13 -4 0 -8 -33 -7
-74 1 -57 6 -79 20 -95 13 -14 16 -28 12 -48 -5 -22 -2 -34 13 -47 16 -15 18
-23 10 -38 -6 -11 -8 -26 -5 -34 10 -27 41 -14 69 28 25 39 27 40 27 16 0 -14
-9 -37 -20 -51 -28 -35 -25 -49 7 -45 20 2 34 14 49 41 23 42 40 36 46 -18 2
-24 8 -30 28 -30 23 0 25 4 30 53 l5 54 21 -24 c12 -12 24 -31 27 -41 16 -45
87 -20 87 31 0 15 2 52 5 83 4 51 1 60 -26 98 -17 22 -37 41 -44 41 -7 0 -18
7 -26 16 -9 11 -22 14 -43 10 -17 -4 -38 -7 -46 -7 -32 -3 -50 -31 -48 -74 0
-23 -2 -47 -6 -53 -5 -8 0 -12 14 -12 31 0 70 -44 70 -79 0 -35 -9 -61 -21
-61 -12 0 -39 55 -39 82 0 17 -3 19 -9 9 -7 -10 -13 -11 -30 -2 -12 7 -19 16
-17 20 3 4 -1 17 -9 27 -14 18 -14 18 -15 -6 0 -32 -35 -90 -55 -90 -20 0 -19
13 5 57 11 21 20 45 19 53 0 11 -2 10 -8 -3 -7 -18 -8 -18 -31 1 -29 23 -19
42 21 42 17 0 39 5 50 11 16 8 25 7 42 -8 21 -17 21 -17 0 8 -29 32 -29 40 2
69 30 28 32 50 5 57 -12 3 -20 14 -20 27 0 26 -18 46 -41 46 -9 0 -22 7 -29
15 -18 22 -46 18 -64 -7z m59 -8 c0 -8 -6 -14 -14 -12 -8 2 -11 -3 -8 -12 7
-17 -18 -41 -33 -31 -13 8 -13 31 1 56 12 23 54 22 54 -1z m59 -19 c11 -17 -6
-42 -23 -37 -11 4 -10 2 3 -9 19 -14 19 -15 -6 -15 -14 0 -31 7 -38 15 -10 13
-10 19 5 35 19 21 50 26 59 11z m-124 -57 c0 -8 -4 -14 -10 -14 -5 0 -10 9
-10 21 0 11 5 17 10 14 6 -3 10 -13 10 -21z m170 -16 c0 -17 -31 -48 -47 -48
-8 0 -12 -4 -8 -10 6 -9 -33 -39 -57 -44 -7 -2 -21 -7 -31 -11 -31 -13 -51 16
-41 61 9 38 34 60 34 30 0 -21 8 -20 46 3 49 30 104 40 104 19z m115 -44 c-11
-8 -27 -24 -36 -35 -13 -18 -17 -19 -28 -5 -10 12 -9 18 8 35 12 12 33 21 49
21 26 -1 26 -1 7 -16z m-79 -28 c-11 -35 -26 -39 -26 -7 0 17 18 41 31 41 3 0
1 -15 -5 -34z m147 4 c11 -10 -68 -24 -84 -14 -9 5 -7 11 7 21 19 14 60 10 77
-7z m31 -42 c15 -22 22 -58 11 -58 -12 0 -84 41 -91 51 -3 6 0 15 7 20 25 15
57 10 73 -13z m-16 -58 c31 -19 38 -34 26 -63 -4 -11 -15 -4 -45 28 -21 23
-39 45 -39 49 0 12 25 6 58 -14z m-330 -18 c2 -7 -3 -12 -12 -12 -9 0 -16 7
-16 16 0 17 22 14 28 -4z m331 -51 c27 -37 27 -57 0 -71 -25 -14 -49 -6 -49
14 0 21 21 31 31 15 7 -11 9 -11 9 -1 0 7 -11 17 -25 22 -15 6 -25 17 -25 30
0 30 35 25 59 -9z"/>
<path d="M221 377 c-6 -8 -8 -17 -4 -20 7 -8 33 11 33 24 0 13 -16 11 -29 -4z"/>
<path d="M97 336 c-4 -9 2 -17 14 -21 28 -9 33 -1 10 19 -16 15 -19 15 -24 2z"/>
<path d="M150 326 c0 -9 5 -16 10 -16 6 0 10 4 10 9 0 6 -4 13 -10 16 -5 3
-10 -1 -10 -9z"/>
<path d="M90 295 c0 -3 2 -5 5 -5 3 0 5 2 5 5 0 3 -2 5 -5 5 -3 0 -5 -2 -5 -5z"/>
</g>
</svg>
