<?xml version="1.0" standalone="no"?>
<!DOCTYPE svg PUBLIC "-//W3C//DTD SVG 20010904//EN"
 "http://www.w3.org/TR/2001/REC-SVG-20010904/DTD/svg10.dtd">
<svg version="1.0" xmlns="http://www.w3.org/2000/svg"
 width="56.000000pt" height="56.000000pt" viewBox="0 0 56.000000 56.000000"
 preserveAspectRatio="xMidYMid meet">
<metadata>
Created by potrace 1.16, written by Peter Selinger 2001-2019
</metadata>
<g transform="translate(0.000000,56.000000) scale(0.100000,-0.100000)"
fill="#000000" stroke="none">
<path d="M110 547 c-14 -7 -29 -22 -34 -33 l-10 -22 -18 22 c-17 21 -18 20
-17 -29 1 -27 -4 -63 -10 -78 -18 -46 -14 -59 17 -55 18 2 26 -1 24 -10 -1 -8
2 -11 9 -6 15 9 1 -36 -18 -58 -8 -9 -13 -25 -11 -35 4 -18 24 -21 64 -8 30 9
56 -20 52 -57 -2 -25 -10 -32 -43 -44 -46 -15 -95 -65 -95 -95 0 -19 1 -19 22
-5 29 21 55 22 39 2 -19 -23 2 -27 91 -17 53 6 101 6 133 0 58 -12 129 -4 145
15 6 8 19 12 29 9 12 -3 29 8 50 33 30 34 33 41 26 78 -4 23 -6 58 -6 80 1 21
-5 48 -13 60 -8 12 -12 34 -9 49 4 23 -5 37 -65 97 -39 38 -77 70 -85 70 -7 0
-24 -11 -37 -25 -13 -14 -29 -25 -36 -25 -7 0 -21 -10 -31 -22 -37 -46 -51
-53 -73 -33 -27 24 -25 35 5 35 30 0 85 26 85 40 0 5 -4 12 -10 15 -6 3 -7 -1
-4 -9 10 -26 -5 -18 -58 29 -53 48 -68 52 -108 32z m87 -23 c18 -14 31 -30 28
-35 -9 -14 -23 -11 -46 12 l-21 21 -27 -27 c-24 -25 -24 -26 -3 -16 12 7 22
10 23 9 0 -2 2 -14 3 -27 2 -14 30 -50 69 -88 39 -38 64 -70 60 -77 -4 -7 -1
-7 8 1 13 11 20 9 38 -11 32 -34 24 -66 -24 -93 -47 -26 -69 -16 -63 29 4 21
2 25 -8 17 -9 -7 -14 -4 -17 13 -2 13 -5 -5 -6 -39 -1 -54 -4 -63 -20 -63 -15
0 -20 10 -25 49 -4 27 -4 67 -1 88 5 27 2 44 -10 58 -16 20 -16 20 -6 -2 17
-34 14 -48 -6 -32 -15 12 -16 12 -8 -1 14 -23 17 -60 5 -60 -22 0 -62 50 -55
68 4 9 11 31 16 47 8 27 7 28 -6 11 -8 -10 -12 -24 -9 -30 3 -6 -1 -3 -9 7 -8
9 -21 15 -30 11 -8 -3 -18 -1 -21 4 -8 13 13 73 34 97 10 11 20 29 22 40 3 20
41 45 67 45 8 0 29 -12 48 -26z m203 -34 c11 -6 24 -19 30 -30 8 -16 5 -21
-17 -34 -76 -41 -74 -41 -84 -25 -12 18 -2 58 18 82 19 20 27 21 53 7z m-200
-21 c0 -4 -7 -6 -15 -3 -8 4 -15 10 -15 15 0 4 7 6 15 3 8 -4 15 -10 15 -15z
m-140 7 c0 -3 -4 -8 -10 -11 -5 -3 -10 -1 -10 4 0 6 5 11 10 11 6 0 10 -2 10
-4z m254 -40 c-6 -16 -34 -30 -42 -21 -8 7 19 35 34 35 7 0 11 -6 8 -14z m177
-35 c16 -16 29 -39 29 -50 0 -23 -14 -28 -26 -10 -4 7 -22 9 -45 6 -64 -8 -94
50 -37 73 37 14 48 12 79 -19z m-231 -15 c0 -8 -4 -17 -9 -21 -12 -7 -24 12
-16 25 9 15 25 12 25 -4z m254 -77 c24 -28 37 -89 19 -89 -14 0 -83 69 -83 82
0 15 19 38 31 38 4 0 19 -14 33 -31z m-414 -55 c0 -8 -3 -14 -7 -15 -5 0 -16
-2 -25 -4 -21 -4 -25 24 -6 43 14 14 38 -2 38 -24z m60 31 c0 -3 -2 -5 -5 -5
-3 0 -5 2 -5 5 0 3 2 5 5 5 3 0 5 -2 5 -5z m380 -101 c16 -41 11 -71 -16 -103
-36 -43 -49 -39 -50 12 -1 23 -5 55 -9 70 -10 37 18 71 47 56 10 -6 23 -21 28
-35z m-82 -39 c17 -37 15 -69 -6 -96 -20 -24 -40 -26 -192 -19 -36 2 -92 0
-125 -4 l-60 -7 28 24 c44 37 211 100 247 92 16 -4 32 -11 35 -15 6 -9 -57
-53 -98 -70 -13 -5 -16 -9 -7 -9 31 -1 110 58 124 94 18 41 38 45 54 10z
m-243 -24 c0 -9 -24 -22 -57 -33 -32 -11 -58 -24 -58 -29 0 -4 -6 -6 -14 -3
-8 3 -24 1 -35 -6 -28 -14 -27 2 2 35 39 46 162 73 162 36z"/>
<path d="M91 431 c-10 -17 -9 -21 3 -21 20 0 31 19 18 32 -7 7 -14 3 -21 -11z"/>
<path d="M21 301 c-7 -12 -7 -22 -2 -26 5 -3 13 4 16 16 9 28 -1 36 -14 10z"/>
</g>
</svg>
