<?xml version="1.0" standalone="no"?>
<!DOCTYPE svg PUBLIC "-//W3C//DTD SVG 20010904//EN"
 "http://www.w3.org/TR/2001/REC-SVG-20010904/DTD/svg10.dtd">
<svg version="1.0" xmlns="http://www.w3.org/2000/svg"
 width="56.000000pt" height="56.000000pt" viewBox="0 0 56.000000 56.000000"
 preserveAspectRatio="xMidYMid meet">
<metadata>
Created by potrace 1.16, written by Peter Selinger 2001-2019
</metadata>
<g transform="translate(0.000000,56.000000) scale(0.100000,-0.100000)"
fill="#000000" stroke="none">
<path d="M362 398 c-13 -13 -142 -16 -162 -3 -15 9 -40 -19 -40 -46 0 -35 -30
-88 -52 -91 -29 -4 -34 -25 -8 -33 11 -3 27 -19 35 -35 8 -15 26 -37 39 -48
18 -13 23 -25 19 -41 -7 -26 17 -28 57 -5 26 16 29 16 51 0 40 -28 86 -14 59
19 -9 10 -7 15 9 20 29 9 61 53 61 84 0 15 5 32 12 39 9 9 8 15 -7 25 -12 9
-18 26 -17 48 1 33 -20 79 -36 79 -5 0 -13 -5 -20 -12z m39 -19 c6 -12 8 -30
5 -42 -3 -11 -1 -29 5 -39 8 -15 5 -20 -16 -28 -14 -5 -25 -12 -25 -15 0 -2
12 0 26 5 55 21 55 3 0 -31 -17 -10 -25 -19 -18 -19 19 0 14 -19 -12 -45 -33
-33 -120 -43 -169 -20 -39 18 -63 61 -54 97 3 13 8 33 11 46 2 12 8 27 11 33
4 5 8 21 10 35 3 30 10 38 25 29 8 -5 5 -11 -7 -21 -10 -7 -15 -14 -11 -14 4
0 3 -11 -2 -25 -7 -18 -6 -25 2 -25 7 0 4 -6 -7 -13 -11 -9 -15 -19 -10 -27 6
-9 4 -11 -5 -5 -9 5 -11 4 -6 -3 14 -24 45 -11 81 32 28 34 41 43 57 38 l22
-5 -23 -9 c-26 -9 -25 -41 2 -46 10 -2 21 5 26 20 7 15 10 17 10 7 1 -22 -25
-43 -44 -35 -9 3 -20 16 -25 28 -5 15 -9 17 -9 7 -1 -26 37 -55 56 -43 32 20
38 41 19 63 -11 12 -25 21 -33 21 -7 0 -13 7 -13 15 0 11 -6 10 -25 -7 -14
-12 -25 -30 -25 -40 0 -22 -13 -23 -30 -3 -17 20 -9 48 18 61 12 6 19 14 14
19 -4 4 21 5 56 3 44 -3 66 0 74 9 15 18 26 16 39 -8z m-201 -24 c0 -3 -2 -5
-5 -5 -3 0 -5 2 -5 5 0 3 2 5 5 5 3 0 5 -2 5 -5z m120 -49 c0 -3 -5 -8 -12
-12 -7 -4 -8 -3 -4 4 7 12 16 16 16 8z m-119 -48 c-10 -11 -11 -9 -5 6 6 15 4
17 -6 11 -9 -6 -11 -4 -5 4 5 9 10 10 18 2 8 -8 7 -14 -2 -23z m-71 -17 c0 -5
-9 -7 -20 -4 -11 3 -20 7 -20 9 0 2 9 4 20 4 11 0 20 -4 20 -9z m100 -141 c0
-5 -7 -10 -15 -10 -8 0 -15 5 -15 10 0 6 7 10 15 10 8 0 15 -4 15 -10z m130 0
c0 -5 -9 -10 -19 -10 -11 0 -23 5 -26 10 -4 6 5 10 19 10 14 0 26 -4 26 -10z"/>
<path d="M360 365 c-11 -13 -11 -19 3 -33 20 -19 41 -5 35 24 -4 24 -22 28
-38 9z"/>
<path d="M264 308 c-4 -7 -3 -8 4 -4 12 7 16 16 8 16 -3 0 -8 -5 -12 -12z"/>
<path d="M160 295 c0 -3 2 -5 5 -5 3 0 5 2 5 5 0 3 -2 5 -5 5 -3 0 -5 -2 -5
-5z"/>
<path d="M222 210 c15 -24 24 -25 32 -4 9 23 8 24 -19 24 -23 0 -24 -2 -13
-20z"/>
</g>
</svg>
