<?xml version="1.0" standalone="no"?>
<!DOCTYPE svg PUBLIC "-//W3C//DTD SVG 20010904//EN"
 "http://www.w3.org/TR/2001/REC-SVG-20010904/DTD/svg10.dtd">
<svg version="1.0" xmlns="http://www.w3.org/2000/svg"
 width="56.000000pt" height="56.000000pt" viewBox="0 0 56.000000 56.000000"
 preserveAspectRatio="xMidYMid meet">
<metadata>
Created by potrace 1.16, written by Peter Selinger 2001-2019
</metadata>
<g transform="translate(0.000000,56.000000) scale(0.100000,-0.100000)"
fill="#000000" stroke="none">
<path d="M211 501 c-10 -10 -20 -24 -23 -31 -3 -9 -18 -5 -56 14 -51 26 -82
33 -82 19 0 -19 41 -72 59 -78 l21 -6 -20 -39 c-14 -27 -25 -38 -35 -34 -8 4
-17 -1 -21 -10 -6 -16 31 -187 47 -218 7 -14 3 -20 -21 -33 -45 -23 -33 -41
26 -37 27 1 107 2 179 2 72 0 152 -1 179 -2 64 -4 73 17 17 39 -40 16 -40 16
-26 44 8 15 15 42 15 59 0 17 10 54 21 81 17 38 19 53 10 62 -9 9 -16 9 -31
-1 -16 -10 -20 -10 -20 0 0 7 -7 25 -14 40 -14 27 -14 28 27 56 40 26 69 74
54 88 -10 11 -79 -13 -119 -40 -38 -25 -88 -25 -88 0 0 16 -39 44 -62 44 -10
0 -26 -8 -37 -19z m74 -4 c20 -15 13 -37 -12 -37 -10 0 -13 6 -8 18 5 14 4 15
-6 4 -11 -10 -10 -15 3 -29 14 -13 20 -14 32 -3 13 10 16 10 16 -3 0 -32 -73
-50 -98 -25 -28 28 -3 88 37 88 9 0 25 -6 36 -13z m225 -1 c0 -23 -32 -53 -85
-80 -27 -14 -42 -26 -32 -26 20 0 41 -45 34 -72 -4 -12 -1 -16 6 -11 7 4 14 8
17 9 3 0 13 4 23 9 27 11 30 1 12 -35 -9 -18 -23 -54 -31 -81 -16 -55 -53
-103 -95 -124 -66 -35 -208 -6 -245 49 -15 23 -53 158 -54 189 0 9 5 17 10 17
6 0 10 -19 11 -42 l0 -43 18 60 c9 33 23 70 29 83 11 20 10 23 -13 34 -27 12
-64 68 -46 68 20 0 100 -44 95 -52 -3 -4 -18 -1 -34 7 -40 21 -50 18 -20 -5
14 -11 36 -20 49 -20 13 0 36 -11 53 -25 16 -14 39 -25 52 -25 27 0 66 27 66
46 0 17 12 18 27 3 8 -8 13 -5 18 11 4 13 27 31 58 46 60 27 77 30 77 10z"/>
<path d="M455 481 c-61 -29 -82 -47 -69 -61 14 -14 87 28 104 60 13 24 15 24
-35 1z"/>
<path d="M136 368 c-9 -12 -16 -29 -16 -38 0 -26 30 -60 53 -60 12 0 28 -9 35
-20 15 -25 48 -26 64 -1 9 15 19 18 44 14 36 -6 74 23 74 57 0 50 -79 79 -113
42 -19 -21 -23 -67 -7 -77 17 -11 0 -25 -29 -25 -38 0 -42 7 -23 41 15 26 16
31 2 56 -21 37 -62 42 -84 11z m76 -13 c15 -32 -3 -75 -31 -75 -23 0 -51 25
-51 46 0 53 61 75 82 29z m152 -1 c46 -46 -15 -106 -75 -74 -22 12 -26 59 -7
78 17 17 64 15 82 -4z"/>
<path d="M150 355 c-26 -31 13 -82 44 -56 19 16 21 42 4 59 -16 16 -33 15 -48
-3z m45 -5 c3 -5 1 -10 -4 -10 -6 0 -11 5 -11 10 0 6 2 10 4 10 3 0 8 -4 11
-10z"/>
<path d="M292 348 c-28 -28 -3 -72 39 -66 30 4 47 33 33 56 -14 21 -55 27 -72
10z m63 -8 c3 -5 1 -10 -4 -10 -6 0 -11 5 -11 10 0 6 2 10 4 10 3 0 8 -4 11
-10z"/>
</g>
</svg>
