<?xml version="1.0" standalone="no"?>
<!DOCTYPE svg PUBLIC "-//W3C//DTD SVG 20010904//EN"
 "http://www.w3.org/TR/2001/REC-SVG-20010904/DTD/svg10.dtd">
<svg version="1.0" xmlns="http://www.w3.org/2000/svg"
 width="56.000000pt" height="56.000000pt" viewBox="0 0 56.000000 56.000000"
 preserveAspectRatio="xMidYMid meet">
<metadata>
Created by potrace 1.16, written by Peter Selinger 2001-2019
</metadata>
<g transform="translate(0.000000,56.000000) scale(0.100000,-0.100000)"
fill="#000000" stroke="none">
<path d="M343 445 c-3 -9 -3 -19 1 -22 3 -4 6 1 6 10 0 10 4 17 10 17 5 0 7
-6 4 -14 -3 -7 4 -29 15 -47 12 -19 21 -41 20 -49 0 -10 -3 -9 -10 5 -8 17 -9
17 -4 -5 2 -14 5 -36 6 -50 1 -20 3 -19 10 10 6 29 7 25 5 -23 -2 -42 0 -54 7
-42 5 10 7 43 4 74 l-6 56 18 -37 c31 -61 33 -84 11 -145 -25 -71 -20 -80 9
-14 40 95 20 206 -48 264 -37 31 -49 33 -58 12z m64 -27 c11 -13 26 -34 32
-48 10 -21 10 -22 -1 -5 -7 10 -25 32 -40 47 -14 15 -23 28 -19 28 4 0 17 -10
28 -22z"/>
<path d="M136 420 c-37 -45 -61 -131 -46 -173 14 -43 68 -109 66 -81 -1 10
-10 32 -20 47 -11 16 -19 43 -19 60 1 76 12 130 28 145 17 16 17 16 2 -8 -15
-23 -15 -32 -2 -88 14 -60 40 -122 51 -122 2 0 -2 12 -10 28 -21 40 -39 114
-29 121 4 3 34 -20 65 -51 l57 -57 -20 -23 c-18 -20 -20 -21 -14 -3 8 24 7 23
-49 -53 -28 -37 -39 -59 -28 -53 21 11 82 77 107 115 29 44 36 30 30 -56 -5
-78 -4 -81 9 -52 18 37 41 198 32 220 -4 11 1 18 14 21 23 6 25 13 7 37 -12
16 -14 16 -27 -11 -11 -24 -14 -25 -18 -9 -2 10 1 22 7 25 9 6 5 51 -6 51 -2
0 -18 -7 -35 -16 -30 -16 -55 -13 -114 12 -6 3 -23 -9 -38 -26z m114 -10 c11
0 33 8 48 17 l27 17 -18 -21 c-14 -16 -16 -26 -9 -40 5 -10 6 -27 1 -38 -6
-15 -8 -16 -8 -4 -1 22 -31 48 -31 28 0 -11 -2 -11 -10 1 -9 13 -11 13 -20 0
-7 -11 -10 -11 -10 -2 0 7 -4 10 -10 7 -5 -3 -10 -15 -10 -26 0 -11 5 -17 10
-14 6 3 10 1 10 -4 0 -6 9 -11 20 -11 11 0 20 4 20 10 0 5 7 7 15 4 8 -4 12
-11 9 -18 -3 -6 4 -1 15 12 l20 23 7 -25 c3 -14 4 -33 0 -41 -7 -19 -56 -19
-82 0 -18 14 -18 14 6 16 19 1 17 3 -10 8 -41 7 -70 52 -52 81 8 13 6 22 -6
35 -16 16 -15 16 15 1 18 -9 41 -16 53 -16z m-140 -90 c-12 -45 -1 -98 26
-120 7 -7 14 -17 14 -23 0 -15 -38 37 -50 69 -8 20 -8 41 1 77 6 26 13 46 16
44 2 -3 -1 -24 -7 -47z m215 -130 c-4 -28 -9 -49 -12 -47 -2 3 -1 28 3 56 4
28 9 50 11 47 3 -3 2 -28 -2 -56z m-109 -28 l-29 -27 23 32 c13 18 26 30 29
28 3 -3 -8 -18 -23 -33z"/>
<path d="M250 245 c0 -3 2 -5 5 -5 3 0 5 2 5 5 0 3 -2 5 -5 5 -3 0 -5 -2 -5
-5z"/>
</g>
</svg>
