<?xml version="1.0" standalone="no"?>
<!DOCTYPE svg PUBLIC "-//W3C//DTD SVG 20010904//EN"
 "http://www.w3.org/TR/2001/REC-SVG-20010904/DTD/svg10.dtd">
<svg version="1.0" xmlns="http://www.w3.org/2000/svg"
 width="56.000000pt" height="56.000000pt" viewBox="0 0 56.000000 56.000000"
 preserveAspectRatio="xMidYMid meet">
<metadata>
Created by potrace 1.16, written by Peter Selinger 2001-2019
</metadata>
<g transform="translate(0.000000,56.000000) scale(0.100000,-0.100000)"
fill="#000000" stroke="none">
<path d="M387 545 c-49 -17 -84 -49 -99 -91 l-12 -33 -18 41 -18 41 -23 -21
c-13 -12 -29 -22 -36 -22 -7 0 -9 -5 -5 -12 4 -7 -2 -4 -14 6 -24 21 -30 34
-9 20 7 -5 -1 4 -18 19 -35 33 -85 57 -117 57 -13 -1 -1 -8 30 -19 30 -10 61
-26 70 -35 16 -16 16 -19 0 -46 -13 -24 -14 -31 -4 -37 24 -15 25 -76 2 -161
l-22 -82 -12 44 c-8 30 -21 51 -42 66 -17 12 -34 20 -37 17 -2 -3 9 -13 26
-21 23 -12 34 -28 44 -63 12 -40 19 -49 43 -54 16 -3 40 -11 53 -18 l24 -13
-23 -18 c-12 -9 -20 -22 -16 -28 3 -5 -10 -20 -30 -32 -27 -15 -34 -24 -26
-32 9 -9 18 -8 37 0 15 7 37 9 49 6 24 -6 50 16 28 24 -17 5 -15 23 6 38 15
12 15 12 -5 7 -25 -6 -30 -32 -11 -52 11 -10 8 -11 -12 -6 -14 3 -39 1 -54 -5
-42 -15 -42 -6 -2 18 23 14 34 26 30 36 -6 16 29 31 48 20 7 -4 2 4 -10 19
-13 14 -37 31 -53 37 -33 14 -33 15 -15 90 12 54 13 54 19 22 4 -19 11 -31 17
-27 5 3 7 0 4 -8 -3 -8 8 -41 24 -73 16 -33 29 -61 28 -64 0 -3 18 -23 41 -44
51 -46 81 -46 103 1 12 25 19 30 30 23 13 -8 12 -11 -4 -23 -29 -22 -12 -34
46 -33 55 1 67 13 32 31 -12 6 -19 15 -17 21 5 14 -43 54 -63 54 -26 0 -14 18
18 29 34 12 36 11 64 -35 8 -14 12 -15 19 -4 5 8 4 11 -3 6 -6 -3 -13 2 -17
13 -13 41 -31 45 -91 21 -44 -18 -55 -27 -51 -41 3 -11 1 -21 -4 -24 -14 -9
-22 41 -9 65 6 11 26 30 43 40 18 11 27 20 21 20 -6 0 -30 -14 -52 -30 -28
-20 -42 -25 -42 -16 0 21 38 64 63 71 12 4 46 18 74 32 64 30 87 25 81 -17 -3
-19 -1 -29 6 -27 6 2 11 15 11 28 0 13 4 27 9 31 5 3 -5 28 -22 54 -18 26 -32
60 -32 76 0 38 25 87 58 115 l27 23 -70 0 c-38 -1 -87 -7 -108 -15z m131 -12
c-43 -49 -59 -114 -38 -153 9 -17 5 -16 -32 5 -24 14 -62 27 -85 31 -26 4 -43
12 -43 19 0 44 36 68 134 91 l61 14 -58 -4 c-76 -6 -117 -31 -144 -86 -23 -50
-23 -52 10 -56 12 -1 25 -3 29 -3 7 -1 -5 -52 -17 -71 -4 -7 -17 8 -31 33 -20
38 -22 50 -13 81 21 75 85 115 188 116 51 0 53 -1 39 -17z m-268 -77 c0 -5 -7
-3 -15 4 -8 7 -12 17 -9 22 7 10 24 -9 24 -26z m-40 -26 c-11 -7 -11 -10 -2
-10 7 0 10 -4 7 -10 -3 -5 -15 -10 -26 -10 -11 0 -18 4 -15 9 4 5 3 11 -1 14
-5 2 -3 2 4 1 7 -2 15 1 18 6 4 6 12 10 18 10 7 0 6 -4 -3 -10z m47 3 c-4 -3
-10 -3 -14 0 -3 4 0 7 7 7 7 0 10 -3 7 -7z m-120 -10 c-4 -3 -10 -3 -14 0 -3
4 0 7 7 7 7 0 10 -3 7 -7z m113 -18 c0 -3 -2 -5 -5 -5 -3 0 -5 2 -5 5 0 3 2 5
5 5 3 0 5 -2 5 -5z m-7 -54 l-6 -25 -9 23 c-9 25 -1 48 13 34 5 -5 6 -19 2
-32z m32 29 c3 -5 4 -10 1 -10 -3 0 -8 5 -11 10 -3 6 -4 10 -1 10 3 0 8 -4 11
-10z m-82 -30 c-7 -28 -13 -25 -13 6 0 14 4 23 9 20 5 -3 7 -15 4 -26z m240
19 c12 -6 34 -23 50 -37 24 -23 38 -21 20 4 -5 5 0 1 9 -9 21 -22 14 -44 -8
-26 -8 6 -25 8 -39 5 -18 -5 -25 -2 -25 7 0 8 -9 26 -21 41 -22 28 -19 32 14
15z m-28 -29 c8 -16 15 -36 15 -44 0 -15 -56 -40 -70 -31 -7 4 0 46 15 93 7
21 24 13 40 -18z m-81 -57 c9 -18 14 -33 12 -33 -6 0 -36 55 -36 66 0 11 5 3
24 -33z m-157 -20 c-4 -3 -7 0 -7 7 0 7 3 10 7 7 3 -4 3 -10 0 -14z m102 -128
c1 -17 -1 -17 -9 -5 -5 8 -9 26 -9 40 0 23 1 23 9 5 5 -11 9 -29 9 -40z m77
-81 c-14 -14 -16 -14 -16 0 0 8 5 18 10 21 6 3 11 18 12 33 1 23 2 23 5 -6 3
-20 -1 -38 -11 -48z m82 50 c17 -11 20 -19 13 -33 -8 -13 -5 -17 11 -18 12 -1
25 -6 31 -12 6 -6 -9 -9 -42 -8 -28 1 -51 4 -51 6 0 2 8 10 18 18 16 13 16 14
-5 29 -13 9 -23 20 -23 25 0 14 23 11 48 -7z m-148 -29 c0 -3 -2 -5 -5 -5 -3
0 -5 2 -5 5 0 3 2 5 5 5 3 0 5 -2 5 -5z m17 -17 c-3 -8 -6 -5 -6 6 -1 11 2 17
5 13 3 -3 4 -12 1 -19z m20 -15 c-4 -3 -7 0 -7 7 0 7 3 10 7 7 3 -4 3 -10 0
-14z"/>
<path d="M331 383 c0 -6 -4 -20 -7 -30 -5 -14 -4 -15 5 -7 7 7 11 20 8 30 -3
11 -5 14 -6 7z"/>
<path d="M510 305 c0 -3 2 -5 5 -5 3 0 5 2 5 5 0 3 -2 5 -5 5 -3 0 -5 -2 -5
-5z"/>
<path d="M17 508 c3 -13 9 -38 15 -56 7 -23 6 -48 -2 -83 -18 -74 -10 -83 45
-53 49 28 62 51 18 32 -16 -7 -34 -16 -41 -21 -20 -15 -22 -5 -10 42 8 33 8
55 -1 89 -6 25 -9 47 -6 51 4 3 24 -4 46 -16 21 -12 37 -17 33 -12 -6 11 -49
33 -81 43 -18 6 -21 4 -16 -16z"/>
<path d="M455 249 c-16 -10 -25 -19 -19 -19 7 0 22 9 35 20 30 24 23 24 -16
-1z"/>
<path d="M403 223 c4 -3 10 -3 14 0 3 4 0 7 -7 7 -7 0 -10 -3 -7 -7z"/>
<path d="M478 206 c-27 -20 -22 -29 6 -11 16 11 26 13 31 5 8 -12 25 -4 25 13
0 8 -3 8 -9 -2 -6 -9 -11 -10 -15 -2 -9 14 -17 14 -38 -3z"/>
<path d="M514 169 c-10 -17 13 -36 27 -22 12 12 4 33 -11 33 -5 0 -12 -5 -16
-11z m26 -9 c0 -5 -4 -10 -10 -10 -5 0 -10 5 -10 10 0 6 5 10 10 10 6 0 10 -4
10 -10z"/>
</g>
</svg>
