<?xml version="1.0" standalone="no"?>
<!DOCTYPE svg PUBLIC "-//W3C//DTD SVG 20010904//EN"
 "http://www.w3.org/TR/2001/REC-SVG-20010904/DTD/svg10.dtd">
<svg version="1.0" xmlns="http://www.w3.org/2000/svg"
 width="56.000000pt" height="56.000000pt" viewBox="0 0 56.000000 56.000000"
 preserveAspectRatio="xMidYMid meet">
<metadata>
Created by potrace 1.16, written by Peter Selinger 2001-2019
</metadata>
<g transform="translate(0.000000,56.000000) scale(0.100000,-0.100000)"
fill="#000000" stroke="none">
<path d="M245 398 c-17 -21 -23 -23 -46 -14 -20 7 -31 6 -43 -3 -20 -17 -21
-32 -2 -25 8 3 17 1 21 -5 3 -6 0 -11 -8 -11 -8 0 -21 -8 -30 -18 -13 -14 -14
-19 -4 -19 7 0 27 -10 45 -23 25 -19 30 -28 25 -50 -4 -23 1 -32 26 -51 29
-21 30 -24 15 -40 -18 -20 -12 -49 9 -49 22 0 40 27 34 50 -8 31 11 24 28 -11
9 -16 22 -29 28 -26 19 6 21 50 2 63 -10 8 -12 14 -6 19 15 8 14 48 -1 63 -6
6 -10 13 -7 15 50 39 63 46 73 40 6 -3 1 5 -11 17 -14 15 -34 23 -52 23 -18 0
-31 6 -31 13 0 17 28 26 37 11 9 -13 43 -19 43 -7 0 20 -32 33 -58 24 -23 -8
-30 -6 -48 15 l-21 24 -18 -25z m49 -62 c-8 -38 -12 -46 -26 -46 -7 0 -9 15
-5 43 4 32 3 38 -5 23 -6 -10 -8 -33 -5 -52 4 -24 2 -34 -8 -34 -31 0 -33 62
-4 110 l21 34 20 -23 c14 -18 17 -32 12 -55z m-94 24 c0 -11 -2 -20 -3 -20 -2
0 -12 9 -22 20 -18 19 -17 20 3 20 15 0 22 -6 22 -20z m-13 -49 c11 -18 10
-18 -17 -8 -16 6 -27 15 -24 19 9 14 29 9 41 -11z m173 11 c0 -5 -11 -19 -25
-32 -28 -26 -33 -16 -9 18 15 22 34 30 34 14z m-130 -77 c0 -3 -2 -5 -5 -5 -3
0 -5 2 -5 5 0 3 2 5 5 5 3 0 5 -2 5 -5z m60 0 c0 -3 -2 -5 -5 -5 -3 0 -5 2 -5
5 0 3 2 5 5 5 3 0 5 -2 5 -5z m-15 -25 c-3 -5 -10 -10 -16 -10 -5 0 -9 5 -9
10 0 6 7 10 16 10 8 0 12 -4 9 -10z"/>
</g>
</svg>
