<?xml version="1.0" standalone="no"?>
<!DOCTYPE svg PUBLIC "-//W3C//DTD SVG 20010904//EN"
 "http://www.w3.org/TR/2001/REC-SVG-20010904/DTD/svg10.dtd">
<svg version="1.0" xmlns="http://www.w3.org/2000/svg"
 width="56.000000pt" height="56.000000pt" viewBox="0 0 56.000000 56.000000"
 preserveAspectRatio="xMidYMid meet">
<metadata>
Created by potrace 1.16, written by Peter Selinger 2001-2019
</metadata>
<g transform="translate(0.000000,56.000000) scale(0.100000,-0.100000)"
fill="#000000" stroke="none">
<path d="M290 495 c0 -3 2 -5 5 -5 3 0 5 2 5 5 0 3 -2 5 -5 5 -3 0 -5 -2 -5
-5z"/>
<path d="M200 485 c0 -3 2 -5 5 -5 3 0 5 2 5 5 0 3 -2 5 -5 5 -3 0 -5 -2 -5
-5z"/>
<path d="M120 465 c0 -3 2 -5 5 -5 3 0 5 2 5 5 0 3 -2 5 -5 5 -3 0 -5 -2 -5
-5z"/>
<path d="M150 455 c0 -3 2 -5 5 -5 3 0 5 2 5 5 0 3 -2 5 -5 5 -3 0 -5 -2 -5
-5z"/>
<path d="M193 440 c-29 -13 -44 -27 -49 -44 -3 -15 -10 -26 -14 -26 -14 0 -41
50 -34 62 4 7 3 8 -4 4 -32 -20 5 -116 53 -138 26 -12 30 -19 18 -32 -4 -4
-15 3 -25 16 -13 18 -20 20 -29 11 -16 -16 -4 -41 24 -52 14 -5 27 -21 31 -35
3 -14 19 -34 34 -43 37 -24 43 -34 36 -66 -4 -22 -2 -27 13 -27 10 0 25 5 33
10 13 8 13 13 -3 40 -27 44 4 41 39 -5 29 -39 64 -47 64 -15 0 10 -8 24 -17
29 -46 26 -46 28 -24 50 11 11 21 27 21 35 0 13 44 32 64 27 16 -4 36 22 36
46 0 27 -49 83 -73 83 -27 0 -27 37 0 49 31 14 53 14 53 -1 0 -6 3 -9 6 -6 3
4 1 16 -6 27 -13 25 -66 29 -95 7 -17 -12 -23 -12 -47 0 -35 18 -53 17 -105
-6z m208 -6 c-38 -16 -78 -11 -51 6 8 6 31 10 50 9 l35 0 -34 -15z m-141 -4
c11 -7 7 -10 -18 -10 -20 0 -31 4 -27 10 8 13 26 13 45 0z m30 -5 c0 -3 -2 -5
-5 -5 -3 0 -5 2 -5 5 0 3 2 5 5 5 3 0 5 -2 5 -5z m-95 -35 c-5 -8 -11 -8 -17
-2 -6 6 -7 16 -3 22 5 8 11 8 17 2 6 -6 7 -16 3 -22z m138 -1 c-17 -17 -37 -1
-22 17 8 10 15 12 23 4 7 -7 7 -13 -1 -21z m-58 -19 c3 -5 0 -7 -8 -4 -8 3
-18 0 -23 -7 -5 -8 -3 -10 6 -4 8 5 11 4 7 -3 -4 -5 -13 -9 -20 -8 -21 3 -38
17 -32 27 8 12 62 12 70 -1z m-123 -26 c22 -11 27 -19 19 -27 -14 -14 -61 7
-61 28 0 19 4 19 42 -1z m148 11 c0 -3 -2 -5 -5 -5 -3 0 -5 2 -5 5 0 3 2 5 5
5 3 0 5 -2 5 -5z m118 -11 c27 -19 31 -50 5 -38 -10 4 -30 8 -46 9 -35 2 -43
11 -27 30 16 19 40 19 68 -1z m2 -52 c14 -11 20 -24 16 -31 -6 -9 -11 -8 -20
5 -9 12 -20 15 -39 10 -29 -7 -48 11 -26 25 22 14 45 11 69 -9z m-210 -17 c-7
-8 -16 -15 -21 -15 -5 0 -1 8 9 18 20 22 31 19 12 -3z m96 -1 c15 6 17 5 6 -6
-14 -14 -43 -2 -50 23 -2 8 2 5 10 -5 10 -13 21 -17 34 -12z m-27 -38 c8 -10
8 -20 -4 -42 -8 -16 -15 -22 -15 -14 0 10 -10 17 -27 18 -36 3 -49 17 -33 37
15 19 64 20 79 1z"/>
<path d="M220 355 c0 -3 2 -5 5 -5 3 0 5 2 5 5 0 3 -2 5 -5 5 -3 0 -5 -2 -5
-5z"/>
<path d="M207 234 c-16 -16 -5 -24 34 -24 28 0 39 4 37 13 -5 13 -60 22 -71
11z"/>
<path d="M130 425 c0 -3 2 -5 5 -5 3 0 5 2 5 5 0 3 -2 5 -5 5 -3 0 -5 -2 -5
-5z"/>
<path d="M400 395 c0 -3 2 -5 5 -5 3 0 5 2 5 5 0 3 -2 5 -5 5 -3 0 -5 -2 -5
-5z"/>
<path d="M420 385 c0 -3 2 -5 5 -5 3 0 5 2 5 5 0 3 -2 5 -5 5 -3 0 -5 -2 -5
-5z"/>
<path d="M60 315 c0 -3 2 -5 5 -5 3 0 5 2 5 5 0 3 -2 5 -5 5 -3 0 -5 -2 -5 -5z"/>
<path d="M80 295 c0 -3 2 -5 5 -5 3 0 5 2 5 5 0 3 -2 5 -5 5 -3 0 -5 -2 -5 -5z"/>
<path d="M60 265 c0 -3 2 -5 5 -5 3 0 5 2 5 5 0 3 -2 5 -5 5 -3 0 -5 -2 -5 -5z"/>
<path d="M420 215 c0 -3 2 -5 5 -5 3 0 5 2 5 5 0 3 -2 5 -5 5 -3 0 -5 -2 -5
-5z"/>
<path d="M390 205 c0 -3 2 -5 5 -5 3 0 5 2 5 5 0 3 -2 5 -5 5 -3 0 -5 -2 -5
-5z"/>
<path d="M450 175 c0 -3 2 -5 5 -5 3 0 5 2 5 5 0 3 -2 5 -5 5 -3 0 -5 -2 -5
-5z"/>
</g>
</svg>
