<?xml version="1.0" standalone="no"?>
<!DOCTYPE svg PUBLIC "-//W3C//DTD SVG 20010904//EN"
 "http://www.w3.org/TR/2001/REC-SVG-20010904/DTD/svg10.dtd">
<svg version="1.0" xmlns="http://www.w3.org/2000/svg"
 width="56.000000pt" height="56.000000pt" viewBox="0 0 56.000000 56.000000"
 preserveAspectRatio="xMidYMid meet">
<metadata>
Created by potrace 1.16, written by Peter Selinger 2001-2019
</metadata>
<g transform="translate(0.000000,56.000000) scale(0.100000,-0.100000)"
fill="#000000" stroke="none">
<path d="M234 540 c-12 -5 -25 -13 -29 -19 -4 -8 -12 -8 -27 0 -30 16 -104 2
-136 -26 -24 -21 -26 -26 -14 -46 12 -18 12 -26 1 -46 -16 -30 -5 -51 39 -72
24 -12 32 -23 32 -43 0 -30 31 -68 55 -68 8 0 15 -7 15 -15 0 -8 9 -23 21 -33
l20 -19 -36 -22 c-20 -11 -33 -26 -30 -31 12 -20 44 -9 73 25 34 42 52 39 81
-11 24 -40 47 -52 64 -34 9 9 8 15 -7 24 -11 6 -28 19 -39 30 -16 15 -17 20
-6 27 8 5 24 9 37 9 37 0 38 28 2 65 l-32 33 31 18 c17 10 31 22 31 26 0 4 11
8 24 8 32 0 90 41 94 66 4 27 -34 73 -72 89 -17 7 -48 27 -70 44 -40 32 -79
39 -122 21z m46 -5 c0 -3 -2 -5 -5 -5 -3 0 -5 2 -5 5 0 3 2 5 5 5 3 0 5 -2 5
-5z m40 -10 c0 -3 -2 -5 -5 -5 -3 0 -5 2 -5 5 0 3 2 5 5 5 3 0 5 -2 5 -5z m-8
-41 c18 -15 20 -16 9 -1 -8 9 -12 19 -10 22 3 2 10 -4 16 -15 10 -14 9 -21 -2
-30 -15 -12 -76 8 -90 31 -5 7 -4 10 3 5 6 -3 13 -2 16 3 9 14 32 8 58 -15z
m38 21 c0 -3 -2 -5 -5 -5 -3 0 -5 2 -5 5 0 3 2 5 5 5 3 0 5 -2 5 -5z m-270
-20 c0 -3 -2 -5 -5 -5 -3 0 -5 2 -5 5 0 3 2 5 5 5 3 0 5 -2 5 -5z m123 -4 c17
-2 5 -19 -22 -31 -34 -14 -51 -8 -46 18 2 9 4 17 4 18 1 1 46 -3 64 -5z m-83
-6 c0 -3 -2 -5 -5 -5 -3 0 -5 2 -5 5 0 3 2 5 5 5 3 0 5 -2 5 -5z m260 -35 c0
13 1 13 10 0 6 -10 3 -21 -12 -37 -24 -26 -38 -22 -38 12 0 25 20 39 32 21 5
-7 8 -6 8 4z m36 -28 c-2 -8 -11 -16 -20 -18 -16 -2 -16 -1 -3 14 8 9 12 24
10 32 -4 12 -3 13 5 1 5 -7 9 -21 8 -29z m-111 18 c23 -37 -78 -56 -109 -21
-13 15 -14 20 -4 24 24 10 107 7 113 -3z m155 5 c0 -3 -2 -5 -5 -5 -3 0 -5 2
-5 5 0 3 2 5 5 5 3 0 5 -2 5 -5z m-298 -38 c5 -9 5 -17 1 -18 -4 0 -16 -2 -26
-4 -9 -2 -15 1 -12 5 3 5 1 11 -5 15 -6 4 -8 10 -5 15 8 13 36 5 47 -13z m278
8 c0 -3 -2 -5 -5 -5 -3 0 -5 2 -5 5 0 3 2 5 5 5 3 0 5 -2 5 -5z m-360 -20 c0
-3 -2 -5 -5 -5 -3 0 -5 2 -5 5 0 3 2 5 5 5 3 0 5 -2 5 -5z m230 -14 c0 -24
-55 -48 -67 -29 -4 7 -1 8 7 3 9 -6 11 -4 5 4 -5 9 -10 10 -18 2 -7 -7 -14 -7
-24 0 -25 21 -13 29 42 29 30 0 55 -4 55 -9z m70 4 c0 -3 -2 -5 -5 -5 -3 0 -5
2 -5 5 0 3 2 5 5 5 3 0 5 -2 5 -5z m40 1 c0 -3 -5 -8 -12 -12 -7 -4 -8 -3 -4
4 7 12 16 16 16 8z m40 -1 c0 -3 -2 -5 -5 -5 -3 0 -5 2 -5 5 0 3 2 5 5 5 3 0
5 -2 5 -5z m-370 -10 c0 -3 -2 -5 -5 -5 -3 0 -5 2 -5 5 0 3 2 5 5 5 3 0 5 -2
5 -5z m20 -10 c0 -3 -2 -5 -5 -5 -3 0 -5 2 -5 5 0 3 2 5 5 5 3 0 5 -2 5 -5z
m80 -10 c0 -3 -2 -5 -5 -5 -3 0 -5 2 -5 5 0 3 2 5 5 5 3 0 5 -2 5 -5z m130
-10 c0 -3 -2 -5 -5 -5 -3 0 -5 2 -5 5 0 3 2 5 5 5 3 0 5 -2 5 -5z m-80 -10 c0
-3 -2 -5 -5 -5 -3 0 -5 2 -5 5 0 3 2 5 5 5 3 0 5 -2 5 -5z m30 -20 c0 -3 -2
-5 -5 -5 -3 0 -5 2 -5 5 0 3 2 5 5 5 3 0 5 -2 5 -5z m-87 -52 c-7 -19 -20 -16
-37 9 -24 34 -19 41 13 22 17 -10 27 -23 24 -31z m42 7 c3 -5 4 -10 1 -10 -3
0 -8 5 -11 10 -3 6 -4 10 -1 10 3 0 8 -4 11 -10z m70 -10 c3 -5 4 -10 1 -10
-3 0 -8 5 -11 10 -3 6 -4 10 -1 10 3 0 8 -4 11 -10z m-48 -37 c-4 -3 -10 -3
-14 0 -3 4 0 7 7 7 7 0 10 -3 7 -7z m113 -14 c0 -5 -7 -9 -15 -9 -8 0 -15 7
-15 15 0 9 6 12 15 9 8 -4 15 -10 15 -15z"/>
<path d="M254 488 c-4 -7 -3 -8 4 -4 7 4 12 9 12 12 0 8 -9 4 -16 -8z"/>
<path d="M280 495 c0 -3 2 -5 5 -5 3 0 5 2 5 5 0 3 -2 5 -5 5 -3 0 -5 -2 -5
-5z"/>
<path d="M140 475 c0 -3 2 -5 5 -5 3 0 5 2 5 5 0 3 -2 5 -5 5 -3 0 -5 -2 -5
-5z"/>
<path d="M350 395 c0 -3 2 -5 5 -5 3 0 5 2 5 5 0 3 -2 5 -5 5 -3 0 -5 -2 -5
-5z"/>
<path d="M400 405 c0 -3 2 -5 5 -5 3 0 5 2 5 5 0 3 -2 5 -5 5 -3 0 -5 -2 -5
-5z"/>
<path d="M205 420 c3 -5 24 -10 45 -10 21 0 42 5 45 10 4 6 -13 10 -45 10 -32
0 -49 -4 -45 -10z"/>
<path d="M120 406 c0 -2 8 -10 18 -17 15 -13 16 -12 3 4 -13 16 -21 21 -21 13z"/>
<path d="M215 360 c3 -5 8 -10 11 -10 3 0 2 5 -1 10 -3 6 -8 10 -11 10 -3 0
-2 -4 1 -10z"/>
<path d="M279 353 c-13 -16 -12 -17 4 -4 16 13 21 21 13 21 -2 0 -10 -8 -17
-17z"/>
</g>
</svg>
