<?xml version="1.0" standalone="no"?>
<!DOCTYPE svg PUBLIC "-//W3C//DTD SVG 20010904//EN"
 "http://www.w3.org/TR/2001/REC-SVG-20010904/DTD/svg10.dtd">
<svg version="1.0" xmlns="http://www.w3.org/2000/svg"
 width="56.000000pt" height="56.000000pt" viewBox="0 0 56.000000 56.000000"
 preserveAspectRatio="xMidYMid meet">
<metadata>
Created by potrace 1.16, written by Peter Selinger 2001-2019
</metadata>
<g transform="translate(0.000000,56.000000) scale(0.100000,-0.100000)"
fill="#000000" stroke="none">
<path d="M202 388 c-15 -15 -15 -31 -1 -45 9 -9 18 -7 37 5 21 14 24 14 17 2
-8 -13 -7 -13 11 0 10 8 24 21 30 29 13 16 49 7 38 -10 -5 -8 -8 -8 -14 0 -5
9 -10 8 -19 -3 -8 -10 -9 -16 -1 -21 6 -3 8 -10 6 -14 -6 -9 -104 -5 -148 5
-48 11 -73 -63 -40 -122 10 -17 11 -17 17 8 9 36 31 54 48 40 7 -6 24 -9 38
-6 24 5 24 5 -3 -10 -30 -18 -42 -46 -33 -77 7 -20 9 -18 29 16 11 21 28 41
36 43 12 4 12 1 -1 -19 -16 -23 -15 -25 8 -43 25 -18 25 -18 19 2 -5 15 -1 21
20 26 16 4 31 2 38 -5 8 -9 8 -10 0 -6 -7 4 -14 -2 -17 -13 -7 -27 8 -25 31 5
26 33 32 32 32 -7 l1 -33 20 25 c15 17 19 33 15 55 -17 91 -17 99 -1 85 38
-32 65 39 27 73 -35 32 -89 15 -79 -23 5 -18 3 -20 -6 -11 -6 6 -12 19 -12 28
0 28 -29 38 -63 20 -27 -13 -33 -13 -43 -1 -14 17 -21 18 -37 2z m16 -18 c-14
-22 -24 -19 -15 5 4 8 11 15 17 15 6 0 6 -7 -2 -20z m217 -15 c0 -25 -37 -32
-54 -11 -18 21 -4 38 27 34 19 -2 27 -9 27 -23z m-265 -33 c0 -12 -39 -52 -50
-52 -13 0 -13 16 0 41 10 18 50 27 50 11z m100 -12 c0 -6 -7 -13 -15 -16 -20
-8 -48 3 -40 16 8 13 55 13 55 0z m78 -2 c19 -19 14 -46 -13 -64 -20 -13 -28
-14 -40 -4 -20 16 -19 22 6 54 23 29 30 31 47 14z m102 2 c0 -5 -4 -10 -10
-10 -5 0 -10 5 -10 10 0 6 5 10 10 10 6 0 10 -4 10 -10z m-250 -41 c0 -6 -4
-7 -10 -4 -5 3 -10 11 -10 16 0 6 5 7 10 4 6 -3 10 -11 10 -16z m-70 -34 c0
-8 -2 -15 -4 -15 -2 0 -6 7 -10 15 -3 8 -1 15 4 15 6 0 10 -7 10 -15z m81 -31
c-14 -18 -21 -22 -21 -11 0 17 29 51 37 43 3 -3 -4 -17 -16 -32z m69 1 c-7 -8
-17 -15 -23 -15 -5 0 -2 9 8 20 21 23 35 19 15 -5z m120 -2 c0 -22 -2 -25 -10
-13 -13 20 -13 40 0 40 6 0 10 -12 10 -27z m-53 0 c-4 -3 -7 0 -7 7 0 7 3 10
7 7 3 -4 3 -10 0 -14z"/>
</g>
</svg>
