<?xml version="1.0" standalone="no"?>
<!DOCTYPE svg PUBLIC "-//W3C//DTD SVG 20010904//EN"
 "http://www.w3.org/TR/2001/REC-SVG-20010904/DTD/svg10.dtd">
<svg version="1.0" xmlns="http://www.w3.org/2000/svg"
 width="56.000000pt" height="56.000000pt" viewBox="0 0 56.000000 56.000000"
 preserveAspectRatio="xMidYMid meet">
<metadata>
Created by potrace 1.16, written by Peter Selinger 2001-2019
</metadata>
<g transform="translate(0.000000,56.000000) scale(0.100000,-0.100000)"
fill="#000000" stroke="none">
<path d="M215 548 c-11 -6 -46 -35 -77 -64 -31 -30 -61 -54 -66 -54 -6 0 -24
-12 -41 -26 l-31 -26 7 -106 c6 -105 30 -199 56 -220 9 -8 12 7 12 63 0 41 3
77 7 81 4 4 19 -1 32 -10 14 -9 36 -16 48 -16 56 -1 60 -39 10 -93 -14 -15
-21 -27 -15 -27 20 0 51 50 74 117 20 62 55 113 78 113 17 0 23 -57 10 -100
-20 -65 -133 -152 -176 -136 -9 4 -11 2 -7 -6 5 -7 2 -9 -8 -6 -8 4 -21 2 -29
-3 -10 -6 -7 -9 13 -9 50 0 141 41 185 84 27 27 52 42 73 44 31 3 32 2 26 -25
-4 -15 -21 -41 -38 -56 -25 -23 -37 -28 -62 -23 -29 5 -30 5 -12 -9 36 -28 76
-19 123 27 47 46 52 62 26 90 -17 19 -16 19 10 13 17 -5 27 -3 27 4 0 6 5 11
12 11 9 0 9 -3 0 -12 -8 -8 -8 -17 -1 -30 9 -17 7 -50 -7 -100 -3 -9 -15 -18
-27 -21 -20 -3 -20 -4 6 -11 36 -11 52 4 66 59 18 74 15 91 -24 115 l-35 22
39 29 c46 33 61 56 61 96 0 37 -23 69 -63 89 -18 9 -43 26 -57 38 l-25 21 20
-24 c11 -13 37 -32 57 -42 33 -17 36 -22 26 -38 -14 -23 -3 -55 17 -47 32 12
10 -55 -24 -73 -15 -9 -17 -7 -14 13 6 28 -14 44 -30 26 -10 -10 -8 -12 8 -6
17 5 17 3 -4 -14 -14 -12 -21 -26 -17 -35 8 -22 -24 -32 -36 -12 -13 23 -33
21 -51 -6 l-16 -22 0 30 c-1 20 6 35 19 43 37 23 16 91 -24 76 -9 -3 -19 -17
-22 -30 -3 -13 -12 -24 -18 -24 -7 0 -17 -5 -24 -12 -6 -6 -28 -13 -49 -15
-21 -2 -43 -10 -49 -18 -9 -11 -18 -12 -47 -3 -33 10 -36 14 -30 37 3 14 15
38 26 53 11 15 17 34 14 42 -8 20 -41 21 -56 2 -18 -21 -59 -26 -66 -7 -7 17
19 41 45 41 9 0 25 9 35 20 18 20 41 18 29 -3 -4 -7 -3 -8 1 -4 14 12 15 38 2
30 -7 -3 -4 3 7 15 10 12 23 19 29 15 6 -3 7 -1 3 5 -9 15 35 45 48 32 17 -17
55 -11 68 9 11 17 15 18 38 6 14 -7 31 -25 38 -39 12 -26 26 -33 36 -18 6 10
-38 54 -71 71 -28 14 -92 14 -118 -1z m-135 -309 c-11 -41 -20 -92 -21 -114
l-1 -40 -14 55 c-11 44 -12 66 -2 113 6 32 18 65 26 74 28 27 32 -8 12 -88z
m72 -21 c-11 -11 -32 -3 -32 12 0 4 9 6 21 3 13 -4 17 -9 11 -15z m63 -8 c-3
-5 -12 -10 -20 -10 -8 0 -17 5 -20 10 -4 6 5 10 20 10 15 0 24 -4 20 -10z m-2
-27 c-7 -2 -19 -2 -25 0 -7 3 -2 5 12 5 14 0 19 -2 13 -5z m307 -49 c0 -33
-20 -113 -30 -119 -5 -3 -1 16 7 43 8 26 12 59 10 75 -2 15 0 27 5 27 4 0 8
-12 8 -26z m-99 -47 c-12 -12 -21 -16 -21 -10 0 6 7 16 15 23 8 7 16 20 16 29
1 12 2 12 6 -3 3 -11 -4 -27 -16 -39z m-31 -31 c0 -2 -8 -10 -17 -17 -16 -13
-17 -12 -4 4 13 16 21 21 21 13z"/>
<path d="M198 485 c-3 -4 -14 -8 -24 -9 -13 -2 -19 -12 -19 -33 -1 -27 2 -30
24 -26 19 3 22 1 15 -9 -5 -8 3 0 18 17 15 16 27 37 25 45 -2 15 -28 25 -39
15z m-28 -20 c0 -3 -2 -5 -5 -5 -3 0 -5 2 -5 5 0 3 2 5 5 5 3 0 5 -2 5 -5z"/>
<path d="M280 454 c-10 -11 -11 -23 -4 -42 8 -21 16 -27 39 -26 17 0 34 -4 38
-10 4 -6 5 3 1 19 -11 56 -12 57 -46 50 -31 -6 -32 -5 -14 10 11 8 15 15 9 15
-6 0 -16 -7 -23 -16z"/>
<path d="M414 433 c3 -19 10 -23 20 -12 4 3 0 12 -8 18 -12 10 -14 9 -12 -6z
m16 -8 c0 -3 -2 -5 -5 -5 -3 0 -5 2 -5 5 0 3 2 5 5 5 3 0 5 -2 5 -5z"/>
<path d="M226 415 c-9 -26 -7 -32 5 -12 6 10 9 21 6 23 -2 3 -7 -2 -11 -11z"/>
<path d="M380 426 c0 -2 8 -10 18 -17 15 -13 16 -12 3 4 -13 16 -21 21 -21 13z"/>
<path d="M360 415 c0 -5 5 -17 10 -25 5 -8 10 -10 10 -5 0 6 -5 17 -10 25 -5
8 -10 11 -10 5z"/>
<path d="M412 388 c-19 -19 -14 -36 13 -54 31 -20 55 -12 55 19 0 27 -17 47
-40 47 -9 0 -21 -5 -28 -12z"/>
<path d="M203 345 c-26 -18 -30 -53 -9 -61 23 -9 67 26 64 50 -4 26 -27 31
-55 11z"/>
</g>
</svg>
