<?xml version="1.0" standalone="no"?>
<!DOCTYPE svg PUBLIC "-//W3C//DTD SVG 20010904//EN"
 "http://www.w3.org/TR/2001/REC-SVG-20010904/DTD/svg10.dtd">
<svg version="1.0" xmlns="http://www.w3.org/2000/svg"
 width="56.000000pt" height="56.000000pt" viewBox="0 0 56.000000 56.000000"
 preserveAspectRatio="xMidYMid meet">
<metadata>
Created by potrace 1.16, written by Peter Selinger 2001-2019
</metadata>
<g transform="translate(0.000000,56.000000) scale(0.100000,-0.100000)"
fill="#000000" stroke="none">
<path d="M151 466 c-10 -11 -10 -20 0 -38 7 -13 16 -26 22 -29 19 -13 -32 -20
-55 -8 l-23 12 23 -26 23 -25 -20 -42 c-17 -35 -18 -44 -7 -56 8 -7 11 -24 8
-39 -7 -38 42 -88 79 -80 21 5 35 -1 64 -26 31 -27 40 -31 63 -23 17 6 28 20
34 42 9 36 11 36 39 22 21 -12 24 -7 9 20 -13 25 7 70 31 70 10 0 21 5 25 12
4 7 3 8 -4 4 -11 -7 -19 6 -36 60 -6 19 -3 21 21 17 25 -4 23 -1 -17 26 -25
17 -50 31 -57 31 -6 0 -15 5 -19 12 -5 8 3 9 29 5 41 -6 57 7 35 30 -13 12
-23 13 -57 3 -23 -6 -39 -15 -37 -19 3 -4 -9 -21 -27 -37 l-32 -29 29 33 c25
27 27 32 12 32 -15 0 -16 3 -6 15 7 8 8 15 2 15 -5 0 -15 -7 -22 -15 -10 -12
-16 -13 -24 -5 -8 8 -7 13 4 20 11 7 11 10 2 10 -7 0 -17 -10 -22 -22 -6 -17
-9 -18 -9 -6 -1 18 -37 48 -57 48 -6 0 -17 -6 -23 -14z m46 -11 c27 -19 20
-47 -11 -43 -24 3 -19 23 6 22 9 0 14 4 11 9 -3 5 -16 6 -29 3 -23 -6 -32 3
-17 17 9 10 16 9 40 -8z m221 -35 c3 -9 -1 -11 -12 -7 -10 4 -27 7 -39 8 -20
1 -20 2 3 9 31 10 42 8 48 -10z m-164 -46 c3 -8 2 -12 -4 -9 -6 3 -10 10 -10
16 0 14 7 11 14 -7z m-25 -7 c8 -11 6 -18 -9 -32 -11 -10 -20 -14 -20 -10 0 4
-9 0 -20 -10 -18 -16 -20 -16 -26 -1 -8 22 22 66 45 66 10 0 24 -6 30 -13z
m127 -12 c0 -11 -6 -28 -14 -38 -14 -16 -16 -16 -34 -1 -10 10 -18 22 -18 29
0 36 64 46 66 10z m-66 -61 c11 -12 10 -18 -3 -31 -9 -9 -19 -14 -22 -11 -3 3
1 13 10 22 15 15 14 16 -20 16 -34 0 -35 -1 -20 -16 9 -9 13 -19 10 -22 -3 -3
-13 2 -22 11 -13 13 -14 19 -3 31 7 9 23 16 35 16 12 0 28 -7 35 -16z m-102
-26 c14 -14 -2 -38 -27 -38 -12 0 -13 2 -3 9 11 7 10 9 -3 15 -9 3 -13 10 -10
16 8 13 28 13 43 -2z m129 -44 c3 -8 0 -21 -7 -27 -9 -8 -11 -9 -7 -1 9 15
-20 27 -29 12 -5 -7 -2 -8 6 -3 9 6 11 4 5 -4 -5 -9 -10 -10 -18 -2 -7 7 -6
15 3 26 16 19 39 19 47 -1z m-153 -20 c9 -23 8 -24 -14 -24 -19 0 -27 20 -13
33 11 11 20 8 27 -9z m141 -93 c10 -17 -12 -21 -25 -6 -10 12 -10 15 3 15 9 0
18 -4 22 -9z"/>
<path d="M205 360 c-4 -6 -10 -8 -15 -5 -9 6 -23 -12 -26 -33 -2 -10 2 -10 15
2 10 9 20 14 23 11 3 -3 11 1 17 9 8 9 8 16 2 20 -5 4 -12 2 -16 -4z m15 -4
c0 -3 -5 -8 -12 -12 -7 -4 -8 -3 -4 4 7 12 16 16 16 8z m-30 -10 c0 -3 -5 -8
-12 -12 -7 -4 -8 -3 -4 4 7 12 16 16 16 8z"/>
<path d="M316 351 c-14 -16 -15 -20 -2 -30 11 -9 16 -9 22 1 22 35 6 58 -20
29z m19 -8 c-2 -10 -4 -19 -4 -21 -1 -2 -6 0 -11 3 -8 5 -7 11 1 21 15 18 18
18 14 -3z"/>
<path d="M320 335 c0 -3 2 -5 5 -5 3 0 5 2 5 5 0 3 -2 5 -5 5 -3 0 -5 -2 -5
-5z"/>
<path d="M153 263 c4 -3 10 -3 14 0 3 4 0 7 -7 7 -7 0 -10 -3 -7 -7z"/>
<path d="M80 265 c0 -3 2 -5 5 -5 3 0 5 2 5 5 0 3 -2 5 -5 5 -3 0 -5 -2 -5 -5z"/>
</g>
</svg>
