<?xml version="1.0" standalone="no"?>
<!DOCTYPE svg PUBLIC "-//W3C//DTD SVG 20010904//EN"
 "http://www.w3.org/TR/2001/REC-SVG-20010904/DTD/svg10.dtd">
<svg version="1.0" xmlns="http://www.w3.org/2000/svg"
 width="56.000000pt" height="56.000000pt" viewBox="0 0 56.000000 56.000000"
 preserveAspectRatio="xMidYMid meet">
<metadata>
Created by potrace 1.16, written by Peter Selinger 2001-2019
</metadata>
<g transform="translate(0.000000,56.000000) scale(0.100000,-0.100000)"
fill="#000000" stroke="none">
<path d="M211 525 c-17 -20 -42 -57 -55 -83 -21 -41 -22 -50 -11 -66 12 -16
16 -10 36 58 12 42 24 74 26 72 6 -5 -16 -93 -33 -134 l-15 -36 -19 29 c-10
16 -17 32 -14 36 5 9 -15 23 -22 16 -3 -3 2 -17 12 -32 19 -30 11 -56 -19 -61
-24 -3 -21 5 5 16 18 8 19 9 4 7 -33 -4 -43 -33 -23 -66 18 -31 11 -45 -28
-53 -32 -6 -23 -23 15 -28 27 -4 35 -10 35 -25 0 -12 -8 -21 -20 -22 l-20 -3
20 10 20 10 -20 -3 c-33 -4 -13 -22 22 -19 38 3 51 -13 29 -37 -23 -25 -20
-48 9 -76 32 -33 50 -31 87 5 23 24 29 36 24 56 -11 43 4 46 45 9 30 -27 48
-35 77 -35 30 0 45 -7 67 -30 30 -32 70 -37 70 -10 0 15 -60 60 -79 60 -6 0 7
-10 28 -23 44 -25 58 -47 29 -47 -28 0 -79 56 -65 72 5 7 13 29 17 48 5 28 2
42 -13 60 -17 21 -18 27 -7 40 7 8 22 42 34 75 11 34 31 81 45 105 34 59 34
104 1 126 -42 27 -135 3 -192 -49 l-23 -20 0 29 c0 31 -15 54 -36 54 -7 0 -26
-16 -43 -35z m290 15 c10 -6 19 -19 19 -30 0 -35 -37 -105 -83 -156 -42 -47
-51 -52 -101 -58 -64 -7 -75 -4 -99 30 -18 24 -18 25 13 60 17 20 29 42 26 49
-5 14 45 66 83 85 57 29 110 37 142 20z m-238 -124 c-10 -18 -68 -66 -79 -66
-8 0 75 78 84 80 2 0 -1 -6 -5 -14z m-143 -11 c0 -3 -2 -5 -5 -5 -3 0 -5 2 -5
5 0 3 2 5 5 5 3 0 5 -2 5 -5z m108 -121 c-12 -13 -20 -14 -37 -5 -25 14 -26
24 -5 46 16 15 18 15 38 -4 19 -19 19 -22 4 -37z m-131 19 c-4 -3 -10 -3 -14
0 -3 4 0 7 7 7 7 0 10 -3 7 -7z m293 -23 c0 -18 -47 -33 -84 -26 -47 9 -46 24
2 29 72 7 82 7 82 -3z m-180 -25 c17 -9 30 -18 30 -20 0 -6 -52 16 -64 27 -16
13 3 9 34 -7z m48 -20 c-3 -3 -9 2 -12 12 -6 14 -5 15 5 6 7 -7 10 -15 7 -18z
m-90 -18 c4 -20 -25 -34 -40 -19 -15 15 -1 44 19 40 10 -2 19 -11 21 -21z
m220 -7 c31 -29 40 -89 17 -107 -29 -21 -79 -16 -102 10 -35 39 -36 46 -8 82
30 40 61 45 93 15z m-300 3 c-10 -2 -26 -2 -35 0 -10 3 -2 5 17 5 19 0 27 -2
18 -5z m157 -2 c6 -10 -32 -41 -50 -41 -5 0 3 9 19 19 l29 19 -34 5 -34 4 32
1 c17 1 34 -2 38 -7z m22 -8 c-4 -3 -7 0 -7 7 0 7 3 10 7 7 3 -4 3 -10 0 -14z
m-125 -120 c-3 -16 -7 -22 -10 -15 -4 13 4 42 11 42 2 0 2 -12 -1 -27z m68 9
c0 -20 -27 -62 -40 -62 -15 0 -22 38 -10 60 13 25 50 27 50 2z m31 -31 c-6
-11 -20 -25 -30 -31 -18 -9 -18 -7 2 30 12 21 26 35 30 31 5 -5 4 -18 -2 -30z"/>
<path d="M185 310 c-3 -4 1 -13 9 -19 10 -8 16 -8 25 3 9 11 7 15 -9 19 -11 3
-22 2 -25 -3z"/>
<path d="M35 271 c-7 -13 32 -34 47 -25 7 5 5 11 -7 21 -22 15 -32 16 -40 4z
m35 -11 c8 -5 11 -10 5 -10 -5 0 -17 5 -25 10 -8 5 -10 10 -5 10 6 0 17 -5 25
-10z"/>
</g>
</svg>
