<?xml version="1.0" standalone="no"?>
<!DOCTYPE svg PUBLIC "-//W3C//DTD SVG 20010904//EN"
 "http://www.w3.org/TR/2001/REC-SVG-20010904/DTD/svg10.dtd">
<svg version="1.0" xmlns="http://www.w3.org/2000/svg"
 width="56.000000pt" height="56.000000pt" viewBox="0 0 56.000000 56.000000"
 preserveAspectRatio="xMidYMid meet">
<metadata>
Created by potrace 1.16, written by Peter Selinger 2001-2019
</metadata>
<g transform="translate(0.000000,56.000000) scale(0.100000,-0.100000)"
fill="#000000" stroke="none">
<path d="M130 422 c-29 -30 -48 -80 -52 -144 -2 -20 -6 -34 -9 -32 -4 2 -9 -5
-12 -16 -7 -26 13 -38 28 -16 11 14 13 13 13 -10 0 -18 -3 -22 -9 -13 -6 10
-9 10 -9 2 0 -7 -6 -11 -12 -9 -7 1 -10 1 -5 -1 4 -3 5 -9 2 -14 -4 -5 2 -6
12 -3 17 5 17 5 -1 -10 -21 -17 -13 -36 16 -36 16 0 19 -5 15 -22 -5 -21 -5
-21 7 -6 7 10 16 14 21 10 4 -4 4 4 1 18 l-7 25 13 -23 c9 -14 17 -19 23 -13
7 7 11 1 12 -16 0 -14 -2 -21 -5 -16 -5 7 -11 6 -20 -3 -11 -12 -9 -13 7 -11
11 2 29 14 41 27 11 12 20 17 20 10 0 -10 3 -10 14 -1 10 8 16 9 21 1 7 -11 5
-12 -24 -14 -11 0 -23 -4 -27 -8 -3 -4 3 -6 15 -3 11 2 21 -1 21 -6 0 -6 8 -6
20 1 14 8 26 8 40 0 12 -7 20 -7 20 -1 0 5 10 8 21 6 12 -3 18 -1 15 3 -4 4
-16 7 -27 7 -10 0 -19 3 -19 8 0 4 0 10 0 13 0 4 7 1 15 -6 12 -10 15 -10 15
0 0 7 9 2 20 -10 12 -13 30 -25 41 -27 16 -2 18 -1 7 11 -9 9 -15 10 -20 3 -3
-5 -5 2 -5 16 1 17 5 23 12 16 6 -6 14 -1 23 13 l13 23 -7 -25 c-3 -14 -3 -22
1 -18 5 4 14 0 21 -10 12 -15 12 -15 7 6 -4 17 -1 22 15 22 29 0 37 19 16 36
-18 15 -18 15 -1 10 10 -3 16 -2 12 3 -3 5 -2 11 2 14 5 2 2 2 -4 1 -7 -2 -13
2 -13 9 0 8 -3 8 -9 -2 -6 -9 -8 -5 -8 13 -1 23 1 24 12 10 6 -10 16 -14 21
-11 12 7 11 52 -3 69 -5 7 -15 40 -22 72 -16 73 -46 106 -96 106 -35 0 -85
-35 -85 -60 0 -18 -18 -11 -25 10 -7 23 -54 50 -85 50 -12 0 -34 -13 -50 -28z
m94 6 c47 -21 44 -59 -8 -107 -24 -23 -26 -23 -52 -6 -14 9 -35 15 -45 12 -24
-6 -26 21 -4 63 25 48 61 61 109 38z m205 -7 c22 -22 37 -82 27 -106 -4 -13
-9 -13 -25 -3 -15 9 -26 9 -44 1 -22 -10 -24 -9 -20 8 6 20 -12 49 -30 49 -5
0 -2 -9 7 -19 10 -11 13 -21 7 -25 -11 -7 -51 40 -51 60 0 48 92 72 129 35z
m-99 -109 c31 -32 57 -109 44 -130 -5 -7 -21 -20 -35 -29 -25 -15 -27 -15 -48
6 -26 26 -67 25 -65 -2 2 -18 -21 -24 -31 -7 -3 6 -11 10 -16 10 -6 0 -7 -4
-4 -10 10 -16 -1 -11 -16 7 -11 13 -11 15 -1 9 9 -5 15 -1 19 12 3 14 11 19
21 16 16 -5 16 -5 1 5 -13 8 -15 18 -10 44 22 95 84 125 141 69z m-183 -9 c-4
-3 -10 -3 -14 0 -3 4 0 7 7 7 7 0 10 -3 7 -7z m273 3 c0 -2 -7 -7 -16 -10 -8
-3 -12 -2 -9 4 6 10 25 14 25 6z m80 -50 c0 -3 -5 -8 -12 -12 -7 -4 -8 -3 -4
4 7 12 16 16 16 8z m-370 -41 c0 -3 -2 -5 -5 -5 -3 0 -5 2 -5 5 0 3 2 5 5 5 3
0 5 -2 5 -5z m310 0 c0 -3 -2 -5 -5 -5 -3 0 -5 2 -5 5 0 3 2 5 5 5 3 0 5 -2 5
-5z m-290 -20 c0 -3 -2 -5 -5 -5 -3 0 -5 2 -5 5 0 3 2 5 5 5 3 0 5 -2 5 -5z
m270 0 c0 -3 -2 -5 -5 -5 -3 0 -5 2 -5 5 0 3 2 5 5 5 3 0 5 -2 5 -5z m-286
-23 c2 -4 -5 -9 -17 -9 -17 -2 -19 0 -7 7 18 12 18 12 24 2z m326 -7 c0 -2 -9
-3 -19 -2 -11 0 -18 5 -15 9 4 6 34 0 34 -7z m-213 -2 c-4 -3 -10 -3 -14 0 -3
4 0 7 7 7 7 0 10 -3 7 -7z m163 3 c0 -2 -8 -10 -17 -17 -16 -13 -17 -12 -4 4
13 16 21 21 21 13z m-290 -37 c0 -4 -7 -6 -15 -3 -8 4 -15 10 -15 15 0 4 7 6
15 3 8 -4 15 -10 15 -15z m340 1 c-8 -5 -17 -7 -19 -4 -3 3 1 9 9 14 8 5 17 7
19 4 3 -3 -1 -9 -9 -14z m-380 5 c0 -3 -2 -5 -5 -5 -3 0 -5 2 -5 5 0 3 2 5 5
5 3 0 5 -2 5 -5z m410 0 c0 -3 -2 -5 -5 -5 -3 0 -5 2 -5 5 0 3 2 5 5 5 3 0 5
-2 5 -5z m-290 -10 c0 -3 -2 -5 -5 -5 -3 0 -5 2 -5 5 0 3 2 5 5 5 3 0 5 -2 5
-5z m20 0 c0 -3 -2 -5 -5 -5 -3 0 -5 2 -5 5 0 3 2 5 5 5 3 0 5 -2 5 -5z m130
0 c0 -3 -2 -5 -5 -5 -3 0 -5 2 -5 5 0 3 2 5 5 5 3 0 5 -2 5 -5z m20 0 c0 -3
-2 -5 -5 -5 -3 0 -5 2 -5 5 0 3 2 5 5 5 3 0 5 -2 5 -5z m-83 -22 c-4 -3 -10
-3 -14 0 -3 4 0 7 7 7 7 0 10 -3 7 -7z"/>
<path d="M121 374 c0 -11 3 -14 6 -6 3 7 2 16 -1 19 -3 4 -6 -2 -5 -13z"/>
<path d="M198 356 c-20 -15 -24 -46 -7 -46 6 0 8 7 5 16 -3 8 -2 13 2 10 4 -3
13 4 20 15 14 22 5 24 -20 5z"/>
<path d="M120 345 c0 -3 2 -5 5 -5 3 0 5 2 5 5 0 3 -2 5 -5 5 -3 0 -5 -2 -5
-5z"/>
<path d="M426 381 c-4 -7 -5 -15 -2 -18 9 -9 19 4 14 18 -4 11 -6 11 -12 0z"/>
<path d="M420 340 c0 -7 3 -10 7 -7 3 4 3 10 0 14 -4 3 -7 0 -7 -7z"/>
<path d="M213 257 c4 -10 7 -30 7 -43 0 -13 4 -24 9 -24 16 0 9 59 -7 73 -13
10 -15 9 -9 -6z"/>
<path d="M315 246 c-20 -15 -32 -66 -15 -66 5 0 10 8 10 17 0 9 7 25 17 35 20
23 13 32 -12 14z"/>
<path d="M340 190 c-8 -5 -10 -10 -5 -10 6 0 17 5 25 10 8 5 11 10 5 10 -5 0
-17 -5 -25 -10z"/>
<path d="M60 95 c0 -3 2 -5 5 -5 3 0 5 2 5 5 0 3 -2 5 -5 5 -3 0 -5 -2 -5 -5z"/>
<path d="M240 95 c0 -3 2 -5 5 -5 3 0 5 2 5 5 0 3 -2 5 -5 5 -3 0 -5 -2 -5 -5z"/>
<path d="M310 95 c0 -3 2 -5 5 -5 3 0 5 2 5 5 0 3 -2 5 -5 5 -3 0 -5 -2 -5 -5z"/>
<path d="M490 95 c0 -3 2 -5 5 -5 3 0 5 2 5 5 0 3 -2 5 -5 5 -3 0 -5 -2 -5 -5z"/>
<path d="M140 85 c0 -3 2 -5 5 -5 3 0 5 2 5 5 0 3 -2 5 -5 5 -3 0 -5 -2 -5 -5z"/>
<path d="M410 85 c0 -3 2 -5 5 -5 3 0 5 2 5 5 0 3 -2 5 -5 5 -3 0 -5 -2 -5 -5z"/>
<path d="M273 63 c4 -3 10 -3 14 0 3 4 0 7 -7 7 -7 0 -10 -3 -7 -7z"/>
<path d="M190 55 c0 -3 2 -5 5 -5 3 0 5 2 5 5 0 3 -2 5 -5 5 -3 0 -5 -2 -5 -5z"/>
<path d="M220 55 c0 -3 2 -5 5 -5 3 0 5 2 5 5 0 3 -2 5 -5 5 -3 0 -5 -2 -5 -5z"/>
<path d="M330 55 c0 -3 2 -5 5 -5 3 0 5 2 5 5 0 3 -2 5 -5 5 -3 0 -5 -2 -5 -5z"/>
<path d="M360 55 c0 -3 2 -5 5 -5 3 0 5 2 5 5 0 3 -2 5 -5 5 -3 0 -5 -2 -5 -5z"/>
<path d="M160 45 c0 -3 2 -5 5 -5 3 0 5 2 5 5 0 3 -2 5 -5 5 -3 0 -5 -2 -5 -5z"/>
<path d="M260 45 c0 -3 2 -5 5 -5 3 0 5 2 5 5 0 3 -2 5 -5 5 -3 0 -5 -2 -5 -5z"/>
<path d="M290 45 c0 -3 2 -5 5 -5 3 0 5 2 5 5 0 3 -2 5 -5 5 -3 0 -5 -2 -5 -5z"/>
<path d="M390 45 c0 -3 2 -5 5 -5 3 0 5 2 5 5 0 3 -2 5 -5 5 -3 0 -5 -2 -5 -5z"/>
</g>
</svg>
