<?xml version="1.0" standalone="no"?>
<!DOCTYPE svg PUBLIC "-//W3C//DTD SVG 20010904//EN"
 "http://www.w3.org/TR/2001/REC-SVG-20010904/DTD/svg10.dtd">
<svg version="1.0" xmlns="http://www.w3.org/2000/svg"
 width="56.000000pt" height="56.000000pt" viewBox="0 0 56.000000 56.000000"
 preserveAspectRatio="xMidYMid meet">
<metadata>
Created by potrace 1.16, written by Peter Selinger 2001-2019
</metadata>
<g transform="translate(0.000000,56.000000) scale(0.100000,-0.100000)"
fill="#000000" stroke="none">
<path d="M334 416 c-3 -9 -14 -16 -24 -16 -11 0 -22 -5 -26 -12 -5 -7 -10 -3
-16 13 -9 22 -11 22 -22 7 -9 -13 -22 -15 -56 -11 l-43 6 6 -34 c8 -54 11 -64
22 -71 6 -5 -6 -6 -25 -3 -27 4 -29 3 -10 -3 38 -12 36 -36 -6 -56 -25 -11
-34 -20 -27 -27 7 -7 19 -6 37 2 19 9 23 15 14 21 -10 6 -10 8 -1 8 16 0 45
-56 41 -77 -2 -8 -23 -23 -48 -32 -25 -9 -45 -23 -45 -31 0 -19 56 -25 97 -11
21 8 43 8 75 0 31 -8 47 -9 55 -1 7 7 19 7 38 0 62 -21 117 10 64 37 l-21 10
23 18 c36 27 46 75 22 116 -17 31 -18 34 -2 46 20 14 4 28 -21 19 -12 -5 -13
-9 -5 -14 8 -5 7 -9 -5 -13 -9 -4 -13 -3 -10 3 3 6 2 10 -3 10 -7 0 -6 13 0
34 14 45 4 70 -24 63 -12 -4 -28 -1 -35 5 -9 7 -14 6 -19 -6z m26 -70 c5 -5 7
0 4 11 -4 13 0 22 10 26 20 8 30 -8 18 -29 -14 -26 17 -91 51 -105 15 -6 26
-14 23 -16 -2 -2 -18 2 -34 11 -26 14 -31 14 -36 1 -3 -8 -10 -15 -17 -15 -6
0 -9 7 -6 15 4 8 2 17 -3 20 -6 4 -10 16 -10 28 1 22 1 22 15 3 8 -11 15 -15
15 -9 0 15 -27 36 -39 29 -11 -7 -2 -48 12 -57 10 -7 -71 -18 -111 -16 -36 2
-23 32 15 32 23 0 29 3 22 12 -7 8 -2 15 18 25 22 11 28 21 29 48 2 55 7 68
11 30 3 -19 8 -39 13 -44z m-98 39 c3 -13 1 -22 -3 -19 -9 5 -13 44 -5 44 2 0
6 -11 8 -25z m63 -29 c0 -37 -18 -43 -34 -12 -15 28 -7 49 17 44 11 -2 17 -13
17 -32z m-110 4 c3 -5 12 -7 20 -4 20 8 55 -14 55 -34 0 -15 -2 -15 -10 -2 -8
12 -10 11 -10 -7 0 -13 -6 -23 -14 -23 -9 0 -13 8 -10 23 4 20 4 20 -6 -3 -9
-20 -13 -22 -20 -10 -6 9 -10 10 -10 3 0 -6 4 -14 10 -18 5 -3 7 -12 4 -20 -3
-7 -1 -22 5 -32 6 -11 11 -13 11 -5 0 7 5 10 10 7 6 -4 8 -10 5 -15 -6 -10 51
-23 75 -18 10 2 14 -4 12 -17 -2 -11 -4 -36 -5 -55 -2 -29 -7 -35 -26 -36 -30
-2 -36 17 -16 56 9 18 14 34 12 36 -3 3 -13 -15 -23 -40 -16 -38 -21 -43 -37
-34 -13 6 -23 6 -33 -3 -11 -9 -17 -9 -28 0 -11 10 -21 9 -45 -4 -17 -8 -31
-11 -31 -6 0 15 86 41 98 29 6 -6 9 4 8 30 0 22 -4 38 -8 36 -15 -9 -31 73
-20 104 5 16 6 35 2 43 -9 14 -4 29 10 29 5 0 11 -4 15 -10z m242 -37 c-4 -3
-10 -3 -14 0 -3 4 0 7 7 7 7 0 10 -3 7 -7z m-89 -97 c7 -4 19 -3 26 3 30 25
35 -20 6 -49 -26 -26 -37 -25 -42 5 -3 14 -1 25 4 25 5 0 6 5 3 10 -4 7 -12 7
-25 0 -25 -13 -57 -13 -66 2 -4 6 -3 9 2 6 5 -3 18 -2 29 2 23 9 44 8 63 -4z
m-228 -6 c-8 -5 -19 -10 -25 -10 -5 0 -3 5 5 10 8 5 20 10 25 10 6 0 3 -5 -5
-10z m290 -62 c-12 -10 -34 -18 -48 -18 -24 0 -24 1 9 23 41 28 75 24 39 -5z
m-40 -43 c-7 -8 -19 -15 -26 -15 -8 0 -14 7 -14 15 0 10 10 15 26 15 22 0 25
-2 14 -15z m47 -1 c-3 -3 -12 -4 -19 -1 -8 3 -5 6 6 6 11 1 17 -2 13 -5z"/>
<path d="M330 280 c0 -7 3 -10 7 -7 3 4 3 10 0 14 -4 3 -7 0 -7 -7z"/>
<path d="M200 345 c0 -3 2 -5 5 -5 3 0 5 2 5 5 0 3 -2 5 -5 5 -3 0 -5 -2 -5
-5z"/>
<path d="M106 312 c-3 -5 8 -6 25 -4 16 2 29 6 29 8 0 8 -49 4 -54 -4z"/>
</g>
</svg>
