<?xml version="1.0" standalone="no"?>
<!DOCTYPE svg PUBLIC "-//W3C//DTD SVG 20010904//EN"
 "http://www.w3.org/TR/2001/REC-SVG-20010904/DTD/svg10.dtd">
<svg version="1.0" xmlns="http://www.w3.org/2000/svg"
 width="56.000000pt" height="56.000000pt" viewBox="0 0 56.000000 56.000000"
 preserveAspectRatio="xMidYMid meet">
<metadata>
Created by potrace 1.16, written by Peter Selinger 2001-2019
</metadata>
<g transform="translate(0.000000,56.000000) scale(0.100000,-0.100000)"
fill="#000000" stroke="none">
<path d="M400 530 c-42 -42 -8 -129 45 -116 30 8 38 -23 29 -103 l-6 -57 -33
33 c-18 18 -46 36 -63 39 -21 4 -34 16 -46 40 -9 19 -29 42 -45 51 l-28 17 19
43 c10 24 16 47 13 53 -3 5 -25 1 -51 -10 -58 -25 -83 -25 -156 1 -32 12 -61
19 -64 16 -3 -3 4 -23 15 -46 28 -53 28 -81 1 -74 -27 7 -25 -13 2 -28 l22
-12 -24 -9 c-28 -10 -15 -29 23 -31 14 -1 23 -6 20 -10 -2 -4 -13 -5 -23 -2
-10 3 -21 1 -24 -4 -12 -18 13 -22 43 -6 35 17 28 24 87 -95 65 -134 64 -130
5 -130 -44 0 -52 -4 -71 -30 -12 -16 -19 -34 -16 -38 7 -12 69 -2 78 12 4 6
10 7 14 3 4 -3 2 -12 -4 -19 -8 -10 11 -13 94 -13 90 0 104 2 104 17 0 28 11
48 28 48 13 0 12 3 -4 15 -41 28 -38 131 3 163 9 6 12 12 6 12 -18 0 -36 -29
-48 -78 l-12 -47 -8 45 c-4 25 -11 52 -16 60 -10 17 -6 -9 17 -100 9 -36 10
-56 3 -59 -5 -1 -2 -9 7 -16 16 -12 16 -13 -5 -20 -12 -4 -34 -4 -49 0 -24 6
-25 8 -11 18 15 11 14 19 -13 89 -23 58 -37 79 -57 87 l-26 12 22 -18 c13 -10
34 -47 49 -82 22 -55 24 -68 13 -88 -14 -27 -59 -31 -82 -9 -10 11 -17 12 -25
4 -13 -13 -42 -4 -42 13 0 14 86 5 106 -11 22 -19 -4 66 -47 152 -22 44 -39
81 -37 82 46 34 51 35 81 20 19 -11 33 -12 39 -6 12 12 -27 37 -41 27 -16 -10
-40 6 -35 23 5 15 4 15 -6 0 -13 -22 -52 -25 -44 -4 3 8 -3 19 -15 26 -12 6
-21 19 -21 30 0 10 -5 22 -10 25 -6 3 -10 -3 -10 -14 0 -26 -15 -35 -37 -21
-16 9 -15 10 5 5 18 -5 22 -2 22 15 0 36 44 70 89 70 48 0 86 -39 76 -77 -5
-21 -3 -23 22 -18 22 4 21 2 -7 -9 -29 -11 -32 -14 -15 -18 15 -4 13 -6 -8 -7
-42 -2 -25 -16 20 -16 42 0 57 17 21 26 l-23 5 24 6 c13 4 20 11 16 17 -3 6
-2 11 4 11 14 0 40 -41 57 -88 7 -20 13 -29 14 -19 0 23 20 21 61 -6 64 -43
75 -134 23 -197 l-26 -30 27 0 c15 0 24 -4 20 -10 -3 -5 -24 -10 -46 -10 -34
0 -39 -3 -39 -22 0 -21 5 -23 50 -23 39 0 51 4 56 18 3 9 10 14 16 11 6 -4 5
-10 -3 -15 -11 -7 -10 -9 4 -9 24 0 21 12 -12 44 l-29 28 23 33 c12 19 32 78
45 132 20 87 21 105 11 162 -14 74 -33 116 -60 131 -29 15 -49 12 -71 -10z
m79 -9 c20 -20 35 -64 47 -137 6 -39 -25 -207 -45 -243 -9 -15 -5 152 4 180 4
11 3 44 0 74 -8 60 -34 103 -54 90 -11 -6 -10 -9 0 -16 11 -6 11 -11 2 -20
-19 -19 -43 -3 -43 30 0 56 51 80 89 42z m-417 -50 c-5 -13 -6 -13 -10 0 -3 7
-9 23 -15 34 l-10 20 20 -20 c11 -11 18 -27 15 -34z m187 -13 c-8 -14 -14 -18
-17 -10 -4 13 17 46 25 38 3 -2 -1 -15 -8 -28z m21 -42 c0 -2 -9 -6 -20 -9
-11 -3 -18 -1 -14 4 5 9 34 13 34 5z m-166 -58 c8 -16 21 -23 39 -23 22 1 25
-1 14 -12 -14 -14 -47 -8 -47 8 0 5 -6 9 -14 9 -19 0 -29 17 -22 37 7 18 14
14 30 -19z m-51 -5 c-7 -2 -19 -2 -26 0 -6 3 -1 5 13 5 14 0 19 -2 13 -5z
m220 0 c-7 -2 -19 -2 -25 0 -7 3 -2 5 12 5 14 0 19 -2 13 -5z m-33 -33 c8 -5
11 -10 5 -10 -5 0 -17 5 -25 10 -8 5 -10 10 -5 10 6 0 17 -5 25 -10z m-193 -7
c-4 -3 -10 -3 -14 0 -3 4 0 7 7 7 7 0 10 -3 7 -7z m63 -277 c0 -2 -7 -6 -15
-10 -8 -3 -15 -1 -15 4 0 6 7 10 15 10 8 0 15 -2 15 -4z m290 -5 c0 -6 -4 -13
-10 -16 -5 -3 -10 1 -10 9 0 9 5 16 10 16 6 0 10 -4 10 -9z m58 -9 c2 -7 -2
-10 -12 -6 -9 3 -16 11 -16 16 0 13 23 5 28 -10z m-238 4 c0 -3 -4 -8 -10 -11
-5 -3 -10 -1 -10 4 0 6 5 11 10 11 6 0 10 -2 10 -4z m60 0 c0 -3 -4 -8 -10
-11 -5 -3 -10 -1 -10 4 0 6 5 11 10 11 6 0 10 -2 10 -4z m40 0 c0 -3 -4 -8
-10 -11 -5 -3 -10 -1 -10 4 0 6 5 11 10 11 6 0 10 -2 10 -4z m30 -6 c0 -5 -2
-10 -4 -10 -3 0 -8 5 -11 10 -3 6 -1 10 4 10 6 0 11 -4 11 -10z"/>
<path d="M104 449 c-10 -17 13 -36 27 -22 12 12 4 33 -11 33 -5 0 -12 -5 -16
-11z m26 -3 c0 -3 -5 -8 -12 -12 -7 -4 -8 -3 -4 4 7 12 16 16 16 8z"/>
<path d="M168 429 c-16 -11 -28 -28 -27 -37 0 -12 2 -13 6 -3 5 11 7 11 14 0
7 -12 10 -12 21 0 10 10 10 12 1 7 -8 -5 -13 -1 -13 9 0 11 5 15 15 11 10 -4
15 1 15 14 0 24 1 24 -32 -1z"/>
</g>
</svg>
