<?xml version="1.0" standalone="no"?>
<!DOCTYPE svg PUBLIC "-//W3C//DTD SVG 20010904//EN"
 "http://www.w3.org/TR/2001/REC-SVG-20010904/DTD/svg10.dtd">
<svg version="1.0" xmlns="http://www.w3.org/2000/svg"
 width="56.000000pt" height="56.000000pt" viewBox="0 0 56.000000 56.000000"
 preserveAspectRatio="xMidYMid meet">
<metadata>
Created by potrace 1.16, written by Peter Selinger 2001-2019
</metadata>
<g transform="translate(0.000000,56.000000) scale(0.100000,-0.100000)"
fill="#000000" stroke="none">
<path d="M109 471 c-6 -2 -3 -11 7 -22 14 -16 15 -21 3 -36 -8 -9 4 -5 26 10
22 15 48 27 59 27 18 0 18 -1 1 -20 -19 -21 -14 -50 9 -50 11 0 10 -6 -7 -22
-20 -21 -23 -22 -29 -5 -13 31 -52 13 -72 -33 -3 -8 -4 5 -2 29 3 30 2 40 -5
30 -29 -46 14 -209 56 -209 7 0 18 -6 24 -14 10 -11 4 -18 -26 -32 -21 -11
-36 -23 -33 -29 5 -11 110 -11 176 0 26 4 44 3 48 -4 9 -14 126 -15 126 -1 0
5 -9 15 -20 22 -19 12 -19 13 2 46 17 28 20 44 15 94 -3 33 -12 67 -20 76 -8
9 -18 27 -21 39 -4 11 -14 27 -23 35 -27 22 -145 61 -190 62 -24 0 -43 3 -43
7 0 7 -41 7 -61 0z m21 -6 c0 -3 -2 -5 -5 -5 -3 0 -5 2 -5 5 0 3 2 5 5 5 3 0
5 -2 5 -5z m120 -38 c0 -7 -6 -19 -12 -27 -7 -8 -3 -6 10 4 22 19 22 19 23 0
1 -10 1 -25 0 -31 -1 -7 6 -13 16 -13 27 0 80 -36 88 -59 12 -39 -36 -104 -87
-116 -32 -8 -73 27 -84 72 -4 15 -11 31 -16 34 -17 11 15 60 51 79 24 13 29
19 16 18 -54 -3 -71 12 -43 40 16 16 38 15 38 -1z m165 -75 c13 -22 26 -58 30
-80 11 -69 -36 -131 -118 -153 -50 -13 -117 9 -137 46 -7 14 -22 27 -32 31
-10 3 -27 23 -38 44 -18 36 -18 41 -4 75 14 33 38 54 50 42 3 -2 5 -15 6 -28
0 -13 5 -34 11 -46 15 -33 3 -38 -38 -14 -34 20 -35 20 -25 1 6 -11 15 -20 20
-20 5 0 16 -8 26 -17 10 -10 20 -18 23 -18 3 0 22 -10 41 -21 19 -12 52 -25
73 -28 36 -7 42 -4 78 34 44 46 46 55 22 106 -12 25 -32 43 -65 60 -43 22 -58
41 -42 56 3 3 25 -2 50 -11 34 -13 51 -28 69 -59z m33 -248 c10 -9 3 -11 -30
-10 -51 1 -62 13 -28 31 18 10 27 10 35 1 5 -6 16 -16 23 -22z m-213 -3 c-7
-6 -105 -11 -105 -5 0 3 14 11 32 18 23 10 38 11 55 3 13 -6 21 -13 18 -16z"/>
<path d="M210 405 c0 -3 2 -5 5 -5 3 0 5 2 5 5 0 3 -2 5 -5 5 -3 0 -5 -2 -5
-5z"/>
<path d="M240 335 c0 -3 2 -5 5 -5 3 0 5 2 5 5 0 3 -2 5 -5 5 -3 0 -5 -2 -5
-5z"/>
<path d="M220 315 c0 -3 2 -5 5 -5 3 0 5 2 5 5 0 3 -2 5 -5 5 -3 0 -5 -2 -5
-5z"/>
<path d="M300 415 c0 -3 2 -5 5 -5 3 0 5 2 5 5 0 3 -2 5 -5 5 -3 0 -5 -2 -5
-5z"/>
<path d="M130 325 c0 -3 2 -5 5 -5 3 0 5 2 5 5 0 3 -2 5 -5 5 -3 0 -5 -2 -5
-5z"/>
<path d="M140 314 c-17 -9 -20 -14 -9 -14 9 0 22 7 29 15 15 18 13 18 -20 -1z"/>
</g>
</svg>
