<?xml version="1.0" standalone="no"?>
<!DOCTYPE svg PUBLIC "-//W3C//DTD SVG 20010904//EN"
 "http://www.w3.org/TR/2001/REC-SVG-20010904/DTD/svg10.dtd">
<svg version="1.0" xmlns="http://www.w3.org/2000/svg"
 width="56.000000pt" height="56.000000pt" viewBox="0 0 56.000000 56.000000"
 preserveAspectRatio="xMidYMid meet">
<metadata>
Created by potrace 1.16, written by Peter Selinger 2001-2019
</metadata>
<g transform="translate(0.000000,56.000000) scale(0.100000,-0.100000)"
fill="#000000" stroke="none">
<path d="M315 550 c-3 -5 -12 -7 -21 -3 -8 3 -24 -3 -34 -12 -19 -17 -21 -17
-40 0 -20 18 -20 17 -20 -24 0 -60 -24 -65 -67 -15 l-34 39 6 -67 c4 -38 4
-68 0 -68 -3 0 -20 7 -36 16 -38 19 -45 14 -26 -23 19 -36 41 -55 94 -82 28
-14 43 -28 43 -41 0 -10 10 -26 22 -34 21 -15 21 -16 2 -16 -23 0 -64 -26 -64
-42 0 -6 11 -8 28 -4 l27 7 -32 -26 c-61 -49 -38 -73 79 -87 46 -5 85 -12 87
-14 2 -2 -2 -10 -8 -18 -13 -16 -45 -10 -35 6 4 6 -1 6 -13 0 -11 -6 -25 -7
-32 -2 -12 7 -12 9 0 13 8 2 3 2 -11 0 -14 -3 -29 -8 -34 -13 -5 -5 1 -7 15
-4 20 5 21 4 9 -6 -13 -10 -12 -11 3 -6 11 3 24 3 30 -1 7 -4 24 -8 40 -9 30
-2 63 31 73 73 7 27 39 31 72 7 28 -19 28 -35 1 -52 -34 -21 -17 -35 45 -36
66 -1 79 9 47 35 -18 15 -20 22 -12 38 16 29 13 56 -8 75 -14 13 -21 37 -26
95 -4 43 -11 84 -17 92 -7 11 -8 9 -4 -6 2 -11 7 -47 11 -80 6 -50 4 -58 -7
-47 -8 8 -13 34 -12 65 1 34 -1 43 -5 27 -7 -24 -7 -24 -18 -5 -9 16 -7 27 10
58 l22 39 -28 49 c-15 27 -27 57 -27 67 0 10 -7 27 -15 38 -12 15 -16 16 -24
5 -6 -9 -11 -10 -15 -2 -9 14 -33 14 -41 1z m17 -12 c-17 -17 -15 -33 3 -18 9
7 18 10 22 6 10 -10 0 -15 -41 -22 -33 -5 -38 -3 -33 10 4 9 4 16 1 16 -2 0
-9 -12 -14 -26 -7 -17 -15 -24 -25 -20 -8 3 -18 -1 -23 -10 -5 -10 -8 -3 -9
21 -1 19 3 32 8 29 5 -3 6 -10 3 -16 -5 -7 -2 -8 6 -3 7 4 16 2 21 -6 6 -11 9
-8 9 8 0 29 20 40 35 19 12 -15 13 -15 18 4 3 11 11 20 18 20 10 0 10 -3 1
-12z m49 -15 c-8 -15 -10 -15 -11 -2 0 17 10 32 18 25 2 -3 -1 -13 -7 -23z
m45 -82 c30 -45 30 -59 -1 -91 l-25 -27 21 -48 c17 -38 19 -53 10 -66 -9 -16
-6 -21 24 -35 49 -23 62 -41 43 -60 -14 -14 -20 -14 -57 6 -34 17 -41 25 -36
41 l7 21 -21 -21 c-17 -17 -25 -19 -50 -10 -16 6 -37 22 -47 36 -18 28 -18 29
33 59 17 10 17 13 2 45 -13 28 -13 38 -3 58 19 37 42 46 64 26 18 -16 18 -15
7 27 -5 24 -15 46 -21 50 -8 5 -7 11 2 20 6 6 13 21 13 33 1 16 3 16 6 -4 3
-14 16 -41 29 -60z m-241 9 c7 6 17 10 21 9 5 -1 17 1 26 5 22 10 72 -14 76
-36 2 -9 -6 -26 -18 -38 -17 -17 -29 -21 -58 -16 l-37 6 35 -15 c25 -11 40
-27 51 -54 16 -38 16 -39 -8 -65 -22 -24 -26 -25 -50 -12 -36 18 -54 73 -35
106 l14 25 -21 -24 c-19 -21 -24 -22 -54 -11 -43 18 -56 28 -73 62 l-14 28 37
-18 c21 -9 39 -20 41 -24 2 -4 11 -4 20 -1 15 6 15 5 3 -10 -19 -23 1 -21 30
3 l24 19 -37 1 c-33 0 -38 3 -38 23 0 12 -3 40 -7 62 l-6 40 33 -38 c24 -28
36 -35 45 -27z m175 -15 c14 -16 6 -35 -16 -35 -8 0 -14 10 -14 25 0 28 12 32
30 10z m-190 -60 c0 -3 -2 -5 -5 -5 -3 0 -5 2 -5 5 0 3 2 5 5 5 3 0 5 -2 5 -5z
m77 -172 c6 -18 -36 -37 -51 -24 -8 6 -22 8 -31 4 -13 -4 -16 -3 -11 5 7 12
64 32 80 28 6 -1 11 -7 13 -13z m3 -58 c0 -17 -23 -30 -67 -38 -28 -5 -33 -3
-33 12 0 21 33 39 73 40 17 1 27 -4 27 -14z m105 -45 c8 -13 -5 -13 -25 0 -13
8 -13 10 2 10 9 0 20 -4 23 -10z m166 -60 c10 -6 19 -16 19 -22 0 -6 -9 -3
-20 7 -19 17 -20 17 -21 -1 0 -17 -1 -17 -11 -2 -11 14 -14 15 -35 1 -15 -10
-23 -11 -23 -4 0 12 34 29 58 30 7 1 22 -4 33 -9z m-244 -17 c-4 -3 -10 -3
-14 0 -3 4 0 7 7 7 7 0 10 -3 7 -7z"/>
<path d="M235 420 c-17 -18 -17 -20 -1 -26 10 -4 22 -2 29 5 8 8 8 11 -2 11
-7 0 -9 5 -6 10 4 6 11 8 16 5 5 -4 9 -1 9 4 0 18 -26 12 -45 -9z m5 -15 c0
-3 -2 -5 -5 -5 -3 0 -5 2 -5 5 0 3 2 5 5 5 3 0 5 -2 5 -5z"/>
<path d="M185 419 c-10 -15 3 -25 16 -12 7 7 7 13 1 17 -6 3 -14 1 -17 -5z
m15 -4 c0 -3 -2 -5 -5 -5 -3 0 -5 2 -5 5 0 3 2 5 5 5 3 0 5 -2 5 -5z"/>
<path d="M230 335 c0 -3 2 -5 5 -5 3 0 5 2 5 5 0 3 -2 5 -5 5 -3 0 -5 -2 -5
-5z"/>
<path d="M200 325 c0 -3 2 -5 5 -5 3 0 5 2 5 5 0 3 -2 5 -5 5 -3 0 -5 -2 -5
-5z"/>
<path d="M205 190 c-8 -13 5 -13 25 0 13 8 13 10 -2 10 -9 0 -20 -4 -23 -10z"/>
</g>
</svg>
