<?xml version="1.0" standalone="no"?>
<!DOCTYPE svg PUBLIC "-//W3C//DTD SVG 20010904//EN"
 "http://www.w3.org/TR/2001/REC-SVG-20010904/DTD/svg10.dtd">
<svg version="1.0" xmlns="http://www.w3.org/2000/svg"
 width="56.000000pt" height="56.000000pt" viewBox="0 0 56.000000 56.000000"
 preserveAspectRatio="xMidYMid meet">
<metadata>
Created by potrace 1.16, written by Peter Selinger 2001-2019
</metadata>
<g transform="translate(0.000000,56.000000) scale(0.100000,-0.100000)"
fill="#000000" stroke="none">
<path d="M181 437 c-13 -6 -33 -25 -45 -40 -20 -27 -20 -28 -2 -75 10 -26 19
-63 20 -83 1 -20 7 -43 14 -52 10 -12 9 -16 -5 -21 -23 -9 -43 19 -43 61 0 18
-5 33 -11 33 -6 0 -8 -7 -4 -18 5 -13 3 -14 -6 -5 -14 14 -4 46 14 41 6 -3 15
-23 18 -47 3 -23 11 -47 18 -54 11 -10 11 -8 2 10 -6 12 -11 35 -11 51 0 41
-25 61 -48 38 -14 -13 -14 -20 -4 -34 6 -9 18 -31 26 -49 8 -17 25 -37 38 -44
l23 -13 -25 -6 c-14 -3 -25 -12 -25 -20 0 -12 13 -15 55 -14 38 1 54 5 52 13
-3 16 38 50 61 51 29 0 77 -32 74 -50 -1 -10 5 -14 18 -13 11 2 30 -2 42 -9
25 -12 57 -4 51 14 -2 6 -19 17 -37 23 -42 14 -57 39 -42 72 6 13 11 35 11 48
0 13 4 26 9 29 14 9 34 94 27 120 -3 14 -17 33 -31 42 -37 24 -71 11 -93 -34
-11 -24 -25 -38 -39 -40 -20 -3 -22 0 -17 26 5 23 1 33 -17 46 -28 19 -36 20
-68 3z m63 -10 c16 -12 16 -14 2 -27 -14 -11 -19 -10 -30 5 -17 23 -42 14 -58
-20 -9 -19 -8 -34 2 -65 l13 -40 17 27 c17 27 71 80 56 56 -12 -21 54 -16 70
5 10 12 13 13 10 2 -3 -8 10 -27 29 -42 l33 -28 16 34 c20 43 20 60 0 77 -14
11 -19 9 -34 -11 -14 -18 -22 -22 -30 -14 -16 16 -1 43 27 50 32 9 73 -29 73
-68 0 -15 -4 -28 -8 -28 -5 0 -21 -32 -36 -70 -21 -53 -35 -74 -56 -85 -34
-18 -93 -20 -121 -4 -18 9 -19 8 -11 -8 6 -10 9 -29 9 -43 -2 -22 -7 -25 -44
-26 -52 -2 -57 11 -8 20 41 8 43 16 14 63 -12 18 -18 41 -15 50 4 9 -4 41 -16
70 -20 50 -21 57 -7 81 14 25 52 52 75 52 5 0 18 -6 28 -13z m-31 -39 c4 -13
0 -33 -9 -46 l-16 -24 -15 22 c-12 17 -13 27 -4 46 13 30 37 31 44 2z m193
-20 c-11 -42 -22 -53 -40 -39 -21 18 -20 30 6 58 25 27 44 17 34 -19z m-41
-209 c4 -6 25 -24 47 -40 23 -16 36 -29 30 -29 -6 0 -14 5 -18 11 -3 6 -18 8
-33 5 -19 -5 -22 -4 -11 3 16 11 17 10 -30 39 -30 18 -32 22 -13 22 12 0 25
-5 28 -11z"/>
<path d="M214 316 c-3 -8 -4 -21 -1 -28 3 -7 6 -3 6 10 1 12 6 22 11 22 6 0 8
-11 4 -25 -14 -54 -11 -60 29 -63 33 -3 38 -1 35 15 -2 10 -13 22 -25 28 -12
5 -23 18 -25 29 -4 25 -26 33 -34 12z m56 -57 c0 -5 5 -7 10 -4 6 3 10 1 10
-4 0 -6 -13 -11 -30 -11 -16 0 -30 5 -30 11 0 5 5 7 10 4 6 -3 10 -1 10 4 0 6
5 11 10 11 6 0 10 -5 10 -11z"/>
<path d="M300 316 c-18 -22 -5 -48 22 -44 17 2 23 10 23 28 0 29 -26 38 -45
16z m40 -16 c0 -11 -4 -20 -10 -20 -5 0 -10 2 -10 4 0 2 -3 11 -6 20 -4 11 -1
16 10 16 9 0 16 -8 16 -20z m-30 -15 c0 -3 -2 -5 -5 -5 -3 0 -5 2 -5 5 0 3 2
5 5 5 3 0 5 -2 5 -5z"/>
</g>
</svg>
