<?xml version="1.0" standalone="no"?>
<!DOCTYPE svg PUBLIC "-//W3C//DTD SVG 20010904//EN"
 "http://www.w3.org/TR/2001/REC-SVG-20010904/DTD/svg10.dtd">
<svg version="1.0" xmlns="http://www.w3.org/2000/svg"
 width="56.000000pt" height="56.000000pt" viewBox="0 0 56.000000 56.000000"
 preserveAspectRatio="xMidYMid meet">
<metadata>
Created by potrace 1.16, written by Peter Selinger 2001-2019
</metadata>
<g transform="translate(0.000000,56.000000) scale(0.100000,-0.100000)"
fill="#000000" stroke="none">
<path d="M93 536 c-24 -21 -26 -26 -13 -41 10 -12 22 -15 43 -11 27 6 29 4 23
-20 -4 -15 -9 -39 -13 -54 -4 -22 -12 -29 -39 -35 l-35 -6 20 -28 20 -28 -22
-21 c-20 -21 -21 -22 -2 -22 18 0 18 -1 -3 -16 -39 -27 -30 -70 25 -121 52
-47 67 -51 95 -26 17 15 19 15 36 -1 18 -15 20 -15 37 4 17 18 20 19 36 4 11
-10 19 -12 24 -5 3 6 10 11 16 11 14 0 80 -71 90 -97 7 -19 15 -24 35 -21 41
5 52 30 31 73 -12 26 -25 37 -47 42 -34 6 -51 23 -24 23 11 0 15 6 11 20 -4
15 0 20 15 20 15 0 19 5 15 19 -3 14 2 21 21 26 l25 6 -27 28 -26 27 38 14 37
13 -32 14 c-38 15 -37 11 -18 57 9 20 13 47 9 60 -4 18 -1 25 15 29 35 9 38
37 7 64 -33 28 -48 29 -70 4 -14 -15 -16 -29 -11 -60 7 -44 -7 -81 -31 -81 -8
0 -24 16 -36 36 l-22 37 -21 -25 c-28 -32 -52 -41 -59 -21 -5 12 -9 13 -21 3
-22 -18 -45 15 -38 52 4 20 -1 33 -20 52 -32 32 -58 33 -94 2z m67 -2 c0 -33
-60 -58 -76 -32 -9 14 31 48 57 48 11 0 19 -7 19 -16z m330 1 c12 -15 5 -55
-10 -55 -10 0 -40 29 -40 39 0 9 22 31 31 31 4 0 12 -7 19 -15z m-323 -62 c-4
-3 -7 0 -7 7 0 7 3 10 7 7 3 -4 3 -10 0 -14z m0 -62 l-6 -36 20 35 20 35 -4
-32 c-4 -40 -1 -40 34 -7 l27 26 7 -22 c6 -18 9 -20 16 -9 7 12 9 11 9 -1 1
-10 10 -4 26 15 l25 30 20 -27 c25 -34 52 -36 73 -6 14 20 16 20 22 3 5 -11 1
-30 -9 -48 -19 -32 -15 -47 13 -47 30 0 33 -17 4 -24 l-26 -7 28 -21 c25 -20
25 -22 8 -29 -11 -4 -29 -1 -43 9 l-25 15 22 -28 c27 -35 28 -45 1 -45 -15 0
-19 -4 -15 -16 5 -13 0 -13 -28 4 l-34 20 16 -28 c13 -23 14 -32 5 -41 -9 -9
-16 -9 -28 1 -14 12 -18 11 -26 -1 -8 -12 -13 -10 -28 8 l-19 23 -16 -25 -17
-25 -29 22 c-23 16 -27 25 -19 35 9 10 8 13 -4 13 -8 0 -18 12 -21 26 -4 14
-20 33 -36 42 -17 9 -28 22 -26 29 3 8 -1 10 -12 6 -16 -6 -16 -5 0 13 14 16
15 22 3 38 -16 21 -11 36 11 36 8 0 14 -10 15 -22 1 -13 8 7 16 44 16 70 40
85 30 19z m310 32 c-4 -3 -7 0 -7 7 0 7 3 10 7 7 3 -4 3 -10 0 -14z m-345
-205 c9 -7 26 -36 36 -65 16 -43 18 -54 6 -63 -15 -14 -29 -7 -78 38 -21 19
-36 42 -36 55 0 42 39 60 72 35z m278 -143 c0 -3 -2 -5 -5 -5 -3 0 -5 2 -5 5
0 3 2 5 5 5 3 0 5 -2 5 -5z m80 -25 c16 -38 7 -60 -24 -60 -29 0 -36 22 -22
63 13 35 31 34 46 -3z"/>
<path d="M340 401 c0 -7 -4 -9 -10 -6 -6 3 -7 -1 -4 -9 4 -11 0 -16 -12 -17
-14 0 -15 -2 -5 -6 8 -3 20 2 28 13 7 10 13 12 13 6 0 -7 10 -12 23 -11 14 0
17 2 7 6 -8 3 -21 12 -27 21 -9 10 -13 12 -13 3z"/>
<path d="M369 353 c-1 -5 -1 -11 -1 -14 1 -4 -18 -14 -41 -23 -39 -15 -43 -15
-54 1 -7 9 -13 12 -13 6 0 -14 37 -46 42 -36 3 4 4 4 3 -2 -3 -18 -68 -4 -98
21 -39 32 -51 30 -32 -6 9 -16 22 -30 31 -30 8 0 12 -5 9 -10 -11 -17 15 -40
45 -40 30 0 56 23 45 40 -3 5 2 10 13 10 22 0 49 27 54 55 1 11 8 23 13 27 6
5 5 8 -2 8 -7 0 -14 -3 -14 -7z m-22 -60 c-15 -16 -17 -16 -17 -1 0 9 6 18 13
21 20 7 22 -2 4 -20z m-147 2 c0 -8 -2 -15 -4 -15 -2 0 -6 7 -10 15 -3 8 -1
15 4 15 6 0 10 -7 10 -15z m73 -30 c39 -8 29 -30 -14 -30 -23 0 -34 5 -34 15
0 8 -4 21 -9 28 -6 11 -4 11 10 3 11 -5 32 -12 47 -16z"/>
<path d="M230 250 c0 -7 3 -10 7 -7 3 4 3 10 0 14 -4 3 -7 0 -7 -7z"/>
<path d="M260 250 c0 -7 3 -10 7 -7 3 4 3 10 0 14 -4 3 -7 0 -7 -7z"/>
<path d="M310 346 c0 -2 9 -6 20 -9 11 -3 20 -1 20 4 0 5 -9 9 -20 9 -11 0
-20 -2 -20 -4z"/>
</g>
</svg>
