<?xml version="1.0" standalone="no"?>
<!DOCTYPE svg PUBLIC "-//W3C//DTD SVG 20010904//EN"
 "http://www.w3.org/TR/2001/REC-SVG-20010904/DTD/svg10.dtd">
<svg version="1.0" xmlns="http://www.w3.org/2000/svg"
 width="56.000000pt" height="56.000000pt" viewBox="0 0 56.000000 56.000000"
 preserveAspectRatio="xMidYMid meet">
<metadata>
Created by potrace 1.16, written by Peter Selinger 2001-2019
</metadata>
<g transform="translate(0.000000,56.000000) scale(0.100000,-0.100000)"
fill="#000000" stroke="none">
<path d="M323 463 c9 -2 23 -2 30 0 6 3 -1 5 -18 5 -16 0 -22 -2 -12 -5z"/>
<path d="M284 443 c-3 -10 -21 -28 -40 -41 -18 -12 -34 -29 -34 -38 0 -9 5
-12 12 -8 7 5 8 3 3 -6 -5 -8 -1 -18 10 -27 16 -11 17 -13 3 -13 -9 0 -20 5
-23 10 -3 6 -21 9 -38 9 l-32 -2 30 -4 c34 -5 57 -21 49 -34 -3 -5 -9 -7 -14
-4 -4 3 -23 -7 -41 -22 -40 -34 -41 -34 -50 -3 l-7 25 -1 -28 c-1 -21 3 -27
17 -25 19 3 19 -1 8 -53 -6 -27 -3 -45 8 -68 l17 -31 84 0 c47 0 85 4 85 9 0
6 -16 8 -35 7 -43 -5 -44 17 -2 22 15 2 25 7 22 12 -3 5 -2 11 3 14 4 2 9 -4
9 -15 3 -30 22 -49 50 -49 27 0 41 24 24 44 -9 10 -8 24 4 57 20 60 19 108 -5
163 l-20 47 30 18 30 18 -27 14 c-45 22 -50 22 -18 0 18 -13 24 -21 15 -21 -9
0 -22 6 -28 12 -10 10 -17 10 -33 0 -25 -16 -63 -6 -55 14 3 8 3 14 0 14 -3 0
-8 -8 -10 -17z m86 -17 c0 -3 -4 -8 -10 -11 -5 -3 -10 -1 -10 4 0 6 5 11 10
11 6 0 10 -2 10 -4z m-39 -43 c11 -15 11 -16 -1 -5 -18 15 -44 16 -34 0 4 -7
3 -8 -5 -4 -6 4 -9 12 -6 17 10 14 31 11 46 -8z m-101 -8 c0 -3 -2 -5 -5 -5
-3 0 -5 2 -5 5 0 3 2 5 5 5 3 0 5 -2 5 -5z m66 -11 c49 -20 49 -20 34 -39 -9
-11 -9 -15 -1 -15 7 0 9 -4 6 -10 -3 -5 2 -10 12 -10 11 0 28 -7 39 -15 18
-14 17 -14 -16 -9 -34 5 -34 5 -11 -8 14 -7 26 -19 29 -27 3 -8 0 -11 -6 -7
-6 3 -13 -3 -17 -13 -3 -11 -15 -23 -26 -26 -10 -4 -19 -11 -19 -17 0 -6 -9
-3 -21 8 -11 10 -28 19 -37 19 -22 0 -48 54 -35 73 5 8 20 17 33 19 14 2 31
10 39 18 12 12 9 16 -22 31 -22 10 -33 22 -30 30 6 17 3 17 49 -2z m-96 -243
c0 -4 11 -6 25 -3 19 3 25 0 25 -14 0 -16 -2 -17 -10 -4 -6 9 -10 10 -10 3 0
-7 -10 -10 -27 -7 -37 7 -47 15 -32 25 18 11 29 11 29 0z m197 -17 c2 -7 -6
-10 -19 -9 -30 3 -30 3 -23 16 8 13 37 8 42 -7z"/>
<path d="M278 273 c7 -3 16 -2 19 1 4 3 -2 6 -13 5 -11 0 -14 -3 -6 -6z"/>
<path d="M125 309 c-4 -6 -5 -12 -2 -15 2 -3 7 2 10 11 7 17 1 20 -8 4z"/>
</g>
</svg>
