<?xml version="1.0" standalone="no"?>
<!DOCTYPE svg PUBLIC "-//W3C//DTD SVG 20010904//EN"
 "http://www.w3.org/TR/2001/REC-SVG-20010904/DTD/svg10.dtd">
<svg version="1.0" xmlns="http://www.w3.org/2000/svg"
 width="56.000000pt" height="56.000000pt" viewBox="0 0 56.000000 56.000000"
 preserveAspectRatio="xMidYMid meet">
<metadata>
Created by potrace 1.16, written by Peter Selinger 2001-2019
</metadata>
<g transform="translate(0.000000,56.000000) scale(0.100000,-0.100000)"
fill="#000000" stroke="none">
<path d="M123 521 c-9 -11 -20 -18 -25 -15 -5 3 -16 -13 -25 -35 -9 -23 -20
-41 -25 -41 -16 0 -8 -47 12 -65 19 -17 19 -18 -10 -45 -17 -16 -30 -36 -30
-47 1 -12 5 -7 14 13 20 45 66 57 66 17 0 -13 3 -13 15 -3 8 7 22 10 30 6 9
-3 13 -2 10 4 -3 6 -15 10 -25 10 -10 0 -26 10 -34 22 -20 28 -21 44 -2 29 7
-6 20 -9 29 -5 8 3 18 1 22 -5 8 -14 46 -14 65 0 12 9 10 10 -8 6 -14 -4 -42
4 -70 19 -26 14 -55 23 -64 20 -23 -5 -23 7 -1 25 11 10 14 10 9 2 -9 -16 6
-17 21 -2 9 9 19 6 39 -10 18 -15 36 -20 51 -16 13 3 35 -2 52 -13 25 -15 28
-21 18 -32 -10 -12 -9 -12 6 -1 17 13 17 15 -4 37 l-21 22 39 36 c36 34 61 47
48 26 -4 -6 5 -5 20 2 21 9 23 13 11 20 -8 4 -26 4 -40 -2 -17 -6 -27 -6 -32
1 -3 6 -15 8 -26 6 -10 -3 -31 1 -45 8 -19 10 -31 11 -40 4 -6 -6 -17 -8 -23
-4 -5 3 -10 1 -10 -4 0 -14 27 -14 35 -1 8 13 50 -4 50 -21 0 -9 -10 -13 -25
-12 -14 1 -40 -3 -58 -9 -39 -12 -64 -5 -56 17 3 8 10 13 14 10 4 -2 15 4 25
15 10 11 21 17 26 15 4 -3 10 -1 14 5 11 18 -25 10 -42 -9z m152 -59 c-17 -15
-18 -15 -6 0 7 9 9 23 5 30 -6 10 -4 11 7 0 11 -10 10 -15 -6 -30z m-81 -8 c9
-23 7 -36 -3 -30 -12 8 -21 46 -11 46 4 0 11 -7 14 -16z m-47 -1 c-4 -3 -10
-3 -14 0 -3 4 0 7 7 7 7 0 10 -3 7 -7z m23 -8 c0 -3 -2 -5 -5 -5 -3 0 -5 2 -5
5 0 3 2 5 5 5 3 0 5 -2 5 -5z m50 -10 c0 -3 -2 -5 -5 -5 -3 0 -5 2 -5 5 0 3 2
5 5 5 3 0 5 -2 5 -5z m-153 -62 c-4 -3 -7 0 -7 7 0 7 3 10 7 7 3 -4 3 -10 0
-14z m53 13 c0 -3 -4 -8 -10 -11 -5 -3 -10 -1 -10 4 0 6 5 11 10 11 6 0 10 -2
10 -4z"/>
<path d="M420 459 c0 -9 -9 -24 -20 -34 -11 -10 -20 -22 -20 -27 0 -5 13 5 29
22 20 22 30 28 33 18 4 -11 8 -11 21 1 15 12 17 11 17 -3 0 -12 5 -16 18 -12
11 4 19 1 20 -6 1 -7 4 -26 8 -42 5 -21 0 -41 -17 -73 -24 -44 -24 -44 -4 -60
19 -15 19 -15 -7 -11 -15 3 -25 1 -22 -3 8 -13 38 -11 52 3 16 16 15 29 -2 22
-25 -9 -28 15 -7 50 23 37 26 67 11 97 -8 13 -7 19 0 19 6 0 8 5 4 11 -3 6
-15 9 -25 6 -12 -3 -20 2 -25 16 -6 19 -8 19 -19 4 -11 -15 -13 -15 -28 1 -15
14 -17 14 -17 1z"/>
<path d="M332 453 c13 -3 16 -9 9 -21 -6 -12 -4 -24 5 -37 12 -16 14 -17 14
-2 0 9 -5 17 -12 17 -6 0 -4 8 6 19 15 17 15 19 1 25 -9 3 -22 5 -28 5 -7 -1
-4 -3 5 -6z"/>
<path d="M364 356 c-3 -14 -3 -35 1 -48 5 -19 3 -17 -13 7 -15 23 -17 34 -8
45 10 13 9 13 -7 1 -13 -10 -14 -17 -7 -26 15 -18 -26 -31 -45 -15 -10 8 -15
8 -20 0 -4 -6 -13 -9 -20 -6 -8 3 -16 0 -18 -7 -3 -9 -10 -8 -28 2 -22 13 -23
13 -10 -2 16 -21 28 -21 63 -3 30 16 49 4 21 -13 -17 -10 -17 -10 2 -11 l20
-1 -20 -15 c-11 -8 -28 -13 -38 -10 -9 2 -15 0 -11 -5 3 -5 20 -9 37 -9 l32 0
-32 -20 c-18 -11 -33 -28 -33 -37 -1 -12 -8 -6 -21 17 -11 19 -17 25 -14 14 6
-24 -13 -74 -28 -74 -5 0 -15 -7 -21 -15 -9 -13 -11 -11 -13 10 -2 14 -3 33
-4 43 -1 9 1 26 5 37 4 11 -3 1 -16 -23 l-24 -43 -13 38 c-8 21 -16 32 -18 26
-3 -7 -9 -13 -14 -13 -4 0 -6 8 -3 18 5 13 4 14 -4 3 -6 -8 -15 -10 -23 -5
-12 6 -12 5 0 -9 7 -9 20 -17 27 -17 8 0 14 -7 14 -16 0 -8 -4 -12 -10 -9 -18
11 -11 -49 9 -81 14 -22 16 -35 9 -42 -6 -6 -8 -17 -5 -26 5 -12 31 -15 152
-15 127 0 150 2 181 20 56 31 124 103 123 130 0 20 -2 17 -12 -11 -21 -59
-134 -116 -182 -90 -11 6 -25 10 -31 9 -17 -5 -54 12 -54 25 0 10 9 11 38 4
49 -13 88 2 110 43 20 37 52 73 59 66 2 -3 -5 -24 -17 -48 l-22 -42 38 31 c41
34 49 35 39 2 -4 -12 -25 -30 -48 -41 -23 -10 -36 -19 -29 -19 22 0 71 29 82
49 11 22 14 61 4 61 -4 0 -13 -8 -20 -17 -17 -24 -29 -10 -14 16 7 15 7 21 0
21 -7 0 -8 6 -1 18 5 10 9 33 9 50 -1 18 6 40 15 50 10 10 17 27 16 38 0 16
-2 16 -10 -4 -5 -13 -13 -21 -19 -17 -5 3 -8 0 -5 -7 3 -7 -5 -29 -17 -48 -12
-20 -23 -30 -25 -22 -3 6 -9 10 -14 6 -5 -3 -9 0 -9 6 0 6 -4 9 -9 6 -12 -8
-24 48 -16 74 3 11 4 20 1 20 -3 0 -8 -11 -12 -24z m-57 -183 c2 -6 -5 -14
-17 -18 -12 -4 -25 -16 -30 -28 -8 -21 -9 -21 -10 -2 -1 12 -7 4 -14 -20 -7
-22 -18 -39 -25 -37 -7 1 -10 -2 -6 -8 10 -16 -4 -50 -21 -50 -18 0 -18 14 1
30 8 7 12 16 9 21 -3 5 8 30 25 56 17 26 31 40 31 32 1 -8 8 -1 16 14 15 28
34 32 41 10z m143 -18 c0 -3 -2 -5 -5 -5 -3 0 -5 2 -5 5 0 3 2 5 5 5 3 0 5 -2
5 -5z m-375 -36 c9 -17 15 -38 13 -47 -3 -13 -8 -9 -21 15 -16 30 -22 63 -12
63 2 0 12 -14 20 -31z m48 -82 c-5 -23 -33 -34 -33 -13 0 6 -5 4 -10 -4 -5 -8
-10 -10 -10 -5 0 18 18 38 28 31 6 -3 13 -2 17 4 10 16 13 12 8 -13z m119 -2
c-6 -32 -22 -32 -22 0 0 14 6 25 14 25 9 0 12 -8 8 -25z m-85 -7 c2 -18 0 -20
-7 -8 -8 12 -10 13 -10 1 0 -8 -3 -12 -6 -8 -8 8 3 37 14 37 4 0 9 -10 9 -22z
m116 2 c-3 -11 -9 -20 -14 -20 -10 0 -12 24 -2 33 13 13 21 7 16 -13z m57 0
l25 -20 -37 0 c-36 0 -50 15 -31 33 10 10 16 8 43 -13z m40 -5 c0 -3 -2 -5 -5
-5 -3 0 -5 2 -5 5 0 3 2 5 5 5 3 0 5 -2 5 -5z"/>
<path d="M30 245 c0 -3 2 -5 5 -5 3 0 5 2 5 5 0 3 -2 5 -5 5 -3 0 -5 -2 -5 -5z"/>
</g>
</svg>
