<?xml version="1.0" standalone="no"?>
<!DOCTYPE svg PUBLIC "-//W3C//DTD SVG 20010904//EN"
 "http://www.w3.org/TR/2001/REC-SVG-20010904/DTD/svg10.dtd">
<svg version="1.0" xmlns="http://www.w3.org/2000/svg"
 width="56.000000pt" height="56.000000pt" viewBox="0 0 56.000000 56.000000"
 preserveAspectRatio="xMidYMid meet">
<metadata>
Created by potrace 1.16, written by Peter Selinger 2001-2019
</metadata>
<g transform="translate(0.000000,56.000000) scale(0.100000,-0.100000)"
fill="#000000" stroke="none">
<path d="M278 413 c0 -5 -1 -15 -2 -23 -1 -8 -10 -16 -21 -17 -19 -3 -19 -3
-1 5 13 6 16 11 9 15 -12 8 -48 -32 -58 -64 -8 -24 -17 -24 -33 1 -14 22 -42
26 -60 8 -36 -36 16 -127 86 -148 70 -22 69 -21 39 -36 -33 -18 -31 -38 5 -42
18 -2 30 4 42 22 24 37 66 35 88 -4 10 -18 25 -30 37 -30 30 0 36 19 13 43
l-21 22 25 28 c37 43 40 72 13 129 -31 67 -70 98 -120 98 -21 0 -40 -3 -41 -7z
m82 -18 c0 -3 -2 -5 -5 -5 -3 0 -5 2 -5 5 0 3 2 5 5 5 3 0 5 -2 5 -5z m13 -17
c-2 -5 -10 -8 -18 -8 -8 0 -16 3 -18 8 -3 4 5 7 18 7 13 0 21 -3 18 -7z m-73
-18 c-19 -6 -21 -8 -6 -9 11 -1 17 -4 13 -7 -10 -10 -39 5 -32 16 3 5 16 10
28 9 20 -1 20 -2 -3 -9z m-128 -44 c6 -14 7 -33 4 -43 -7 -16 -9 -16 -21 7
-14 24 -14 24 -15 3 0 -12 12 -36 27 -54 24 -28 24 -30 6 -21 -47 25 -81 101
-56 125 14 15 44 6 55 -17z m197 -12 c21 -27 27 -69 13 -91 -9 -14 -56 -33
-83 -33 -27 0 -79 53 -79 80 0 64 108 96 149 44z"/>
<path d="M262 297 c-12 -13 -22 -30 -22 -38 0 -21 46 -62 62 -56 9 4 8 6 -3 6
-20 1 -49 32 -49 53 0 21 32 48 57 48 11 0 28 -9 39 -21 24 -27 8 -54 -32 -54
-24 0 -29 4 -29 25 0 18 5 25 20 25 11 0 20 -7 20 -15 0 -9 -8 -14 -19 -13
-13 1 -15 -2 -7 -10 8 -8 16 -7 28 6 16 16 16 18 0 34 -22 22 -52 7 -52 -27 0
-29 25 -45 58 -36 37 9 44 42 16 72 -28 30 -59 31 -87 1z"/>
</g>
</svg>
