<?xml version="1.0" standalone="no"?>
<!DOCTYPE svg PUBLIC "-//W3C//DTD SVG 20010904//EN"
 "http://www.w3.org/TR/2001/REC-SVG-20010904/DTD/svg10.dtd">
<svg version="1.0" xmlns="http://www.w3.org/2000/svg"
 width="56.000000pt" height="56.000000pt" viewBox="0 0 56.000000 56.000000"
 preserveAspectRatio="xMidYMid meet">
<metadata>
Created by potrace 1.16, written by Peter Selinger 2001-2019
</metadata>
<g transform="translate(0.000000,56.000000) scale(0.100000,-0.100000)"
fill="#000000" stroke="none">
<path d="M180 495 c-10 -12 -10 -22 -2 -39 9 -20 7 -27 -15 -47 -36 -35 -65
-95 -61 -132 2 -24 -3 -37 -19 -50 -28 -23 -29 -41 -3 -67 26 -26 58 -25 86 1
12 12 27 18 33 14 20 -12 11 -23 -31 -37 -22 -7 -46 -20 -52 -30 -24 -39 54
-66 100 -33 12 8 27 28 34 45 15 37 60 44 60 9 0 -11 13 -34 29 -50 24 -23 38
-29 75 -29 24 0 48 5 51 10 10 15 -22 60 -43 60 -9 1 -28 7 -41 14 l-25 14 35
18 c19 10 46 24 62 31 15 7 29 18 31 25 2 7 10 33 17 57 l13 44 -47 42 c-40
37 -44 45 -32 55 20 17 19 43 -3 63 -28 25 -67 21 -91 -9 -24 -30 -54 -26 -84
12 -21 27 -58 31 -77 9z m14 -10 c-4 -8 0 -23 7 -33 12 -16 12 -16 -5 0 -16
14 -17 48 -2 48 3 0 3 -7 0 -15z m26 0 c0 -3 -2 -5 -5 -5 -3 0 -5 2 -5 5 0 3
2 5 5 5 3 0 5 -2 5 -5z m191 -11 c17 -21 0 -49 -31 -49 -31 0 -48 28 -31 49 8
9 21 16 31 16 10 0 23 -7 31 -16z m-171 1 c0 -3 -2 -5 -5 -5 -3 0 -5 2 -5 5 0
3 2 5 5 5 3 0 5 -2 5 -5z m-10 -20 c0 -3 -2 -5 -5 -5 -3 0 -5 2 -5 5 0 3 2 5
5 5 3 0 5 -2 5 -5z m10 -20 c0 -3 -2 -5 -5 -5 -3 0 -5 2 -5 5 0 3 2 5 5 5 3 0
5 -2 5 -5z m40 -10 c0 -3 -2 -5 -5 -5 -3 0 -5 2 -5 5 0 3 2 5 5 5 3 0 5 -2 5
-5z m8 -25 c38 -23 72 -75 72 -110 0 -36 -35 -89 -68 -101 -60 -23 -162 38
-162 98 0 38 33 89 72 113 41 25 45 25 86 0z m157 -39 c3 -5 -5 -11 -17 -13
-16 -2 -23 -10 -25 -28 -1 -22 -1 -22 4 -2 2 13 12 22 22 22 10 0 26 -10 35
-22 l17 -23 -12 24 c-9 18 -8 22 2 19 7 -2 17 -12 23 -22 9 -13 7 -20 -9 -32
-44 -32 -85 -29 -108 8 -7 11 -3 24 13 46 24 32 44 40 55 23z m-304 -158 c13
-16 20 -25 15 -21 -5 5 -15 -1 -23 -12 -17 -24 -27 -25 -47 -4 -20 19 -22 52
-3 36 14 -12 58 -12 51 -1 -2 4 -13 5 -24 2 -14 -4 -20 0 -20 11 0 24 24 19
51 -11z m24 -93 c-3 -5 -11 -10 -16 -10 -6 0 -7 5 -4 10 3 6 11 10 16 10 6 0
7 -4 4 -10z m280 -20 c3 -6 -1 -7 -9 -4 -18 7 -21 14 -7 14 6 0 13 -4 16 -10z
m-295 -5 c0 -3 -2 -5 -5 -5 -3 0 -5 2 -5 5 0 3 2 5 5 5 3 0 5 -2 5 -5z"/>
<path d="M354 465 c-4 -9 -2 -21 4 -27 16 -16 47 -5 47 17 0 26 -42 34 -51 10z
m46 0 c0 -3 -2 -5 -5 -5 -3 0 -5 2 -5 5 0 3 2 5 5 5 3 0 5 -2 5 -5z"/>
<path d="M174 356 c-19 -19 -34 -41 -34 -49 0 -9 16 1 39 25 52 51 93 51 128
-1 29 -42 29 -46 -2 -76 -29 -30 -74 -32 -106 -6 -20 16 -22 23 -13 38 6 10
22 23 35 30 20 11 27 10 43 -6 10 -11 15 -24 12 -30 -11 -16 -44 -13 -54 5 -7
12 -11 13 -17 5 -9 -16 23 -51 45 -51 10 0 28 9 41 19 23 19 23 21 9 48 -32
58 -112 52 -134 -10 -12 -32 -3 -51 37 -81 23 -17 31 -18 66 -7 44 13 81 52
81 86 0 14 -16 37 -40 59 -53 48 -90 48 -136 2z"/>
</g>
</svg>
