<?xml version="1.0" standalone="no"?>
<!DOCTYPE svg PUBLIC "-//W3C//DTD SVG 20010904//EN"
 "http://www.w3.org/TR/2001/REC-SVG-20010904/DTD/svg10.dtd">
<svg version="1.0" xmlns="http://www.w3.org/2000/svg"
 width="56.000000pt" height="56.000000pt" viewBox="0 0 56.000000 56.000000"
 preserveAspectRatio="xMidYMid meet">
<metadata>
Created by potrace 1.16, written by Peter Selinger 2001-2019
</metadata>
<g transform="translate(0.000000,56.000000) scale(0.100000,-0.100000)"
fill="#000000" stroke="none">
<path d="M156 518 c-9 -12 -16 -29 -16 -38 0 -8 -14 -42 -31 -75 -35 -69 -34
-93 6 -184 31 -68 28 -79 -37 -148 -22 -22 -37 -46 -34 -52 9 -14 76 -14 111
-1 14 5 29 18 32 27 4 10 26 37 50 61 38 36 50 42 87 42 44 0 78 -21 56 -35
-18 -11 -11 -30 19 -48 53 -31 111 -16 78 21 -14 15 -13 19 4 41 10 13 19 29
19 37 0 8 6 14 13 14 22 0 49 37 45 62 -2 14 -15 29 -35 38 -35 16 -44 49 -19
69 8 7 22 28 31 47 20 42 9 88 -31 125 l-26 24 -17 -21 c-15 -19 -19 -20 -36
-8 -28 20 -51 17 -72 -10 -11 -13 -32 -26 -48 -30 -27 -5 -32 -2 -45 27 -12
26 -21 33 -52 35 -28 2 -40 -2 -52 -20z m320 -30 l-6 -43 13 38 c14 45 27 39
28 -12 1 -32 2 -33 8 -11 7 24 7 24 13 3 4 -13 -1 -29 -11 -40 -9 -10 -15 -25
-13 -34 2 -9 -9 -26 -24 -38 -62 -49 -124 -5 -63 46 22 19 29 33 29 60 0 33
14 73 26 73 3 0 3 -19 0 -42z m-292 -3 c-8 -31 13 -34 24 -4 l8 20 19 -21 c19
-22 19 -22 0 -36 -25 -19 -29 -18 -61 9 -29 25 -28 57 1 57 11 0 14 -6 9 -25z
m233 -32 c-19 -19 -47 -10 -54 18 -3 8 1 6 7 -4 14 -22 30 -13 30 16 0 20 1
20 17 4 16 -16 16 -18 0 -34z m-27 32 c0 -3 -2 -5 -5 -5 -3 0 -5 2 -5 5 0 3 2
5 5 5 3 0 5 -2 5 -5z m-70 -40 c0 -3 -2 -5 -5 -5 -3 0 -5 2 -5 5 0 3 2 5 5 5
3 0 5 -2 5 -5z m30 0 c0 -3 -2 -5 -5 -5 -3 0 -5 2 -5 5 0 3 2 5 5 5 3 0 5 -2
5 -5z m87 -12 c-4 -3 -7 0 -7 7 0 7 3 10 7 7 3 -4 3 -10 0 -14z m-51 -27 c17
-13 15 -14 -22 -9 -25 3 -44 1 -48 -6 -4 -6 -15 -11 -24 -11 -14 1 -13 4 7 20
27 24 60 26 87 6z m-49 -23 c-4 -3 -10 -3 -14 0 -3 4 0 7 7 7 7 0 10 -3 7 -7z
m133 -88 c0 -75 -119 -153 -170 -112 -22 17 -61 87 -50 87 6 0 10 -5 10 -10 0
-6 11 -22 25 -35 36 -37 86 -34 119 6 14 17 26 41 26 54 0 22 17 37 33 28 4
-2 7 -11 7 -18z m-50 -15 c0 -31 -44 -70 -80 -70 -29 0 -70 29 -70 50 0 15 16
12 30 -5 25 -30 100 -11 100 25 0 11 5 20 10 20 6 0 10 -9 10 -20z m-40 -15
c-13 -16 -65 -21 -74 -6 -9 14 6 22 20 10 10 -8 19 -7 35 5 27 18 37 13 19 -9z
m145 -5 c0 -8 -8 -14 -17 -14 -10 1 -15 -2 -12 -7 8 -13 21 -11 39 8 15 15 16
14 13 -12 -4 -38 -32 -55 -54 -33 -21 21 -10 81 14 76 10 -2 17 -10 17 -18z"/>
</g>
</svg>
