<?xml version="1.0" standalone="no"?>
<!DOCTYPE svg PUBLIC "-//W3C//DTD SVG 20010904//EN"
 "http://www.w3.org/TR/2001/REC-SVG-20010904/DTD/svg10.dtd">
<svg version="1.0" xmlns="http://www.w3.org/2000/svg"
 width="56.000000pt" height="56.000000pt" viewBox="0 0 56.000000 56.000000"
 preserveAspectRatio="xMidYMid meet">
<metadata>
Created by potrace 1.16, written by Peter Selinger 2001-2019
</metadata>
<g transform="translate(0.000000,56.000000) scale(0.100000,-0.100000)"
fill="#000000" stroke="none">
<path d="M215 450 c-3 -5 -1 -19 5 -31 9 -16 8 -24 -5 -39 -10 -11 -15 -26
-12 -35 4 -8 2 -15 -3 -15 -13 0 -13 23 1 54 9 20 9 29 -1 41 -11 13 -16 9
-36 -29 -29 -55 -29 -61 -4 -111 11 -22 20 -40 20 -41 0 -1 -10 0 -21 3 -20 6
-21 4 -13 -23 4 -16 9 -49 9 -74 1 -39 4 -45 23 -48 12 -2 24 3 27 10 5 11 21
13 83 6 42 -5 85 -13 95 -19 14 -7 25 -5 47 11 53 38 63 80 33 131 -16 28 -16
29 2 43 20 14 20 15 -1 38 -31 33 -44 62 -44 97 0 39 -12 45 -49 26 -38 -19
-91 -19 -117 0 -23 17 -31 18 -39 5z m95 -30 c19 1 46 7 60 15 35 20 46 18 20
-3 l-22 -18 26 -18 c43 -28 31 -56 -40 -93 l-62 -33 -41 40 -40 39 17 31 c9
16 21 30 26 30 5 0 1 10 -10 22 l-19 22 25 -17 c13 -9 40 -17 60 -17z m-128
-32 c-23 -44 -21 -42 -27 -37 -5 5 32 69 39 69 3 0 -3 -15 -12 -32z m-8 -64
c9 -23 7 -34 -5 -34 -6 0 -9 7 -5 15 3 8 1 15 -4 15 -6 0 -10 5 -10 10 0 16
17 12 24 -6z m282 -23 c-4 -6 -17 -11 -28 -11 -21 0 -21 1 -3 20 19 21 44 13
31 -9z m-236 9 c0 -5 -7 -10 -16 -10 -8 0 -12 5 -9 10 3 6 10 10 16 10 5 0 9
-4 9 -10z m-33 -37 c-4 -3 -10 -3 -14 0 -3 4 0 7 7 7 7 0 10 -3 7 -7z m39 -19
c-9 -8 -16 -24 -16 -35 0 -10 -4 -19 -10 -19 -15 0 -12 40 3 41 9 0 9 2 -1 6
-18 7 -5 23 19 23 19 0 19 -1 5 -16z m158 -10 c7 -19 -2 -37 -15 -29 -12 8
-12 45 0 45 5 0 12 -7 15 -16z m46 -3 c0 -20 -17 -37 -27 -28 -7 8 7 47 18 47
5 0 9 -9 9 -19z m-111 -2 c34 -12 40 -24 14 -33 -9 -4 -25 2 -38 14 -12 11
-25 20 -29 20 -5 0 2 -9 15 -20 13 -10 19 -19 12 -20 -6 0 -15 5 -18 10 -3 6
-11 10 -17 10 -5 0 0 -9 13 -20 13 -10 19 -19 13 -20 -6 0 -14 3 -18 8 -4 4
-13 7 -19 7 -20 0 -20 43 0 48 30 8 39 7 72 -4z m144 -19 c3 -11 0 -23 -5 -27
-6 -3 -8 -1 -4 5 3 6 2 13 -4 17 -5 3 -10 13 -10 21 0 21 16 9 23 -16z m-286
5 c8 -22 -6 -33 -17 -15 -13 20 -12 30 0 30 6 0 13 -7 17 -15z m137 -60 c-11
-27 -74 -32 -74 -5 0 8 18 12 67 19 7 0 10 -5 7 -14z m-134 -39 c0 -3 -4 -8
-10 -11 -5 -3 -10 -1 -10 4 0 6 5 11 10 11 6 0 10 -2 10 -4z m230 -6 c0 -5 -4
-10 -10 -10 -5 0 -10 5 -10 10 0 6 5 10 10 10 6 0 10 -4 10 -10z"/>
<path d="M257 336 c10 -13 20 -20 21 -15 5 12 -17 39 -30 39 -5 0 -1 -11 9
-24z"/>
<path d="M330 345 c-20 -25 -6 -31 17 -7 14 14 18 22 9 22 -8 0 -19 -7 -26
-15z"/>
</g>
</svg>
