<?xml version="1.0" standalone="no"?>
<!DOCTYPE svg PUBLIC "-//W3C//DTD SVG 20010904//EN"
 "http://www.w3.org/TR/2001/REC-SVG-20010904/DTD/svg10.dtd">
<svg version="1.0" xmlns="http://www.w3.org/2000/svg"
 width="56.000000pt" height="56.000000pt" viewBox="0 0 56.000000 56.000000"
 preserveAspectRatio="xMidYMid meet">
<metadata>
Created by potrace 1.16, written by Peter Selinger 2001-2019
</metadata>
<g transform="translate(0.000000,56.000000) scale(0.100000,-0.100000)"
fill="#000000" stroke="none">
<path d="M54 495 c-14 -21 -15 -30 -5 -52 7 -15 8 -30 2 -37 -21 -26 6 -142
31 -134 7 3 20 -5 30 -16 17 -21 18 -21 50 16 28 31 36 36 49 25 14 -11 13
-16 -8 -46 -26 -38 -32 -20 -7 19 l16 25 -21 -24 c-12 -13 -21 -32 -21 -42 0
-22 4 -23 30 -6 17 10 22 9 30 -2 6 -11 0 -25 -21 -48 -32 -37 -35 -52 -16
-72 10 -10 8 -16 -10 -28 -36 -24 -28 -30 42 -29 38 0 65 5 65 11 0 27 22 32
58 14 45 -24 64 -24 92 -1 19 15 21 22 11 39 -16 31 -3 56 25 50 26 -5 30 3
12 21 -18 18 -52 14 -82 -9 -14 -11 -26 -16 -26 -10 0 6 18 22 41 36 43 28 44
36 14 95 -12 23 -11 27 13 47 33 27 22 42 -37 50 -34 5 -41 9 -41 28 0 12 7
28 15 35 15 13 21 45 8 38 -5 -2 -32 -16 -61 -31 -59 -31 -76 -29 -122 10 -36
30 -48 24 -31 -13 6 -15 10 -27 9 -29 -2 -1 -17 -11 -35 -23 -31 -22 -48 -17
-37 11 3 8 1 18 -4 21 -5 3 -7 17 -4 31 4 24 -12 55 -29 55 -5 0 -16 -11 -25
-25z m44 -16 c2 -13 -4 -33 -12 -44 -14 -19 -14 -19 -26 6 -9 20 -9 32 0 48
14 28 34 22 38 -10z m162 -54 c13 -4 40 4 75 23 60 33 70 29 29 -9 -14 -13
-23 -31 -21 -41 3 -11 -8 -26 -34 -44 -32 -22 -39 -32 -38 -58 1 -17 3 -23 6
-13 2 9 12 18 21 18 15 1 15 2 0 6 -10 2 -18 9 -18 15 0 6 3 8 7 5 3 -4 12 1
20 11 13 16 14 15 9 -8 l-5 -25 18 24 c10 13 23 21 30 17 19 -12 12 -22 -27
-39 -21 -9 -45 -28 -52 -42 -7 -14 -17 -25 -21 -25 -12 0 -19 31 -13 56 4 16
1 31 -10 43 -9 9 -22 37 -30 62 -7 24 -17 53 -22 64 -7 17 -3 16 24 -7 18 -15
41 -29 52 -33z m-150 -5 c0 -5 -4 -10 -10 -10 -5 0 -10 5 -10 10 0 6 5 10 10
10 6 0 10 -4 10 -10z m-15 -25 c0 -6 -10 -11 -22 -13 -22 -3 -30 8 -16 22 10
9 38 3 38 -9z m81 -12 c-10 -10 -19 5 -10 18 6 11 8 11 12 0 2 -7 1 -15 -2
-18z m-23 -6 c3 -8 -1 -14 -8 -14 -7 0 -11 6 -8 14 3 7 6 13 8 13 2 0 5 -6 8
-13z m-73 -12 c0 -3 -2 -5 -5 -5 -3 0 -5 2 -5 5 0 3 2 5 5 5 3 0 5 -2 5 -5z
m66 -52 c-9 -22 -36 3 -36 33 l0 24 21 -21 c11 -11 18 -27 15 -36z m270 46 c3
-6 1 -16 -6 -22 -10 -9 -12 -8 -7 5 3 9 1 19 -6 22 -9 3 -9 5 0 5 6 1 15 -4
19 -10z m-206 -21 c0 -17 3 -19 9 -10 7 11 9 11 14 0 7 -19 -28 -21 -43 -3 -7
8 -9 19 -5 25 11 18 25 11 25 -12z m-120 2 c0 -5 -9 -10 -20 -10 -11 0 -20 5
-20 10 0 6 9 10 20 10 11 0 20 -4 20 -10z m0 -52 c0 -5 -4 -8 -10 -8 -5 0 -10
10 -10 23 0 18 2 19 10 7 5 -8 10 -18 10 -22z m80 12 c-6 -11 -15 -18 -21 -14
-6 4 -6 11 2 20 17 21 31 17 19 -6z m-35 -10 c14 -16 16 -23 7 -32 -15 -15
-31 -1 -37 30 -5 27 6 28 30 2z m273 -24 c9 -20 7 -25 -13 -34 -20 -9 -25 -8
-30 9 -6 19 9 49 25 49 4 0 12 -11 18 -24z m26 8 c4 -10 1 -14 -6 -12 -15 5
-23 28 -10 28 5 0 13 -7 16 -16z m-83 -25 c15 -28 -6 -23 -25 6 -14 21 -14 24
-1 19 9 -4 20 -15 26 -25z m-131 -4 c0 -3 -2 -5 -5 -5 -3 0 -5 2 -5 5 0 3 2 5
5 5 3 0 5 -2 5 -5z m211 -26 c-13 -11 -30 -18 -38 -15 -7 3 -13 0 -13 -6 0
-17 -31 -48 -47 -48 -8 0 -11 5 -8 10 4 6 1 17 -5 25 -10 12 -9 15 9 15 14 0
20 4 15 11 -4 7 0 9 12 6 11 -4 30 0 44 8 39 22 60 18 31 -6z m-111 2 c0 -6
-9 -8 -20 -6 -13 2 -20 -2 -20 -11 0 -21 -18 -17 -30 6 -10 18 -8 20 30 20 22
0 40 -4 40 -9z m-95 -61 c-16 -16 -24 -30 -17 -30 6 0 9 -7 6 -15 -7 -17 -24
-10 -24 9 0 18 39 66 53 66 6 0 -2 -13 -18 -30z m49 9 c-4 -8 1 -9 17 -4 24 8
24 8 5 -14 -14 -15 -22 -18 -32 -10 -8 7 -14 7 -19 -1 -3 -5 1 -10 9 -10 8 0
17 -4 21 -9 9 -15 -16 -59 -36 -64 -11 -3 -16 -1 -13 5 4 6 -2 8 -16 3 -22 -7
-22 -6 5 29 15 20 24 36 19 36 -4 0 3 11 16 25 25 26 36 33 24 14z m188 4
c-30 -6 -46 -37 -32 -63 8 -15 6 -21 -9 -30 -32 -17 -48 -11 -22 9 16 12 20
21 12 25 -30 19 5 67 47 65 24 -2 24 -2 4 -6z m-82 -42 c0 -15 -31 -42 -43
-38 -21 7 -18 27 5 36 30 13 38 13 38 2z m-200 -76 c0 -3 -2 -5 -5 -5 -3 0 -5
2 -5 5 0 3 2 5 5 5 3 0 5 -2 5 -5z m100 0 c0 -3 -2 -5 -5 -5 -3 0 -5 2 -5 5 0
3 2 5 5 5 3 0 5 -2 5 -5z"/>
<path d="M115 280 c3 -5 8 -10 11 -10 3 0 2 5 -1 10 -3 6 -8 10 -11 10 -3 0
-2 -4 1 -10z"/>
<path d="M260 210 c0 -7 3 -10 7 -7 3 4 3 10 0 14 -4 3 -7 0 -7 -7z"/>
<path d="M260 155 c0 -3 2 -5 5 -5 3 0 5 2 5 5 0 3 -2 5 -5 5 -3 0 -5 -2 -5
-5z"/>
</g>
</svg>
