<?xml version="1.0" standalone="no"?>
<!DOCTYPE svg PUBLIC "-//W3C//DTD SVG 20010904//EN"
 "http://www.w3.org/TR/2001/REC-SVG-20010904/DTD/svg10.dtd">
<svg version="1.0" xmlns="http://www.w3.org/2000/svg"
 width="56.000000pt" height="56.000000pt" viewBox="0 0 56.000000 56.000000"
 preserveAspectRatio="xMidYMid meet">
<metadata>
Created by potrace 1.16, written by Peter Selinger 2001-2019
</metadata>
<g transform="translate(0.000000,56.000000) scale(0.100000,-0.100000)"
fill="#000000" stroke="none">
<path d="M269 542 c-14 -12 -20 -25 -16 -36 9 -24 38 -32 51 -15 9 13 13 12
29 -3 17 -18 16 -19 -17 -33 -45 -19 -60 -19 -98 1 l-31 16 24 19 c20 15 22
21 13 36 -15 24 -42 28 -63 9 -12 -11 -21 -12 -28 -5 -12 12 -63 -5 -63 -21 0
-5 -6 -10 -12 -10 -17 0 -59 -45 -51 -54 3 -3 15 -6 25 -6 22 0 22 -4 1 -36
-20 -31 -10 -43 59 -68 31 -12 45 -22 42 -31 -3 -7 4 -18 15 -25 29 -15 26
-26 -9 -33 -16 -4 -39 -16 -50 -27 -24 -24 -36 -25 -48 -3 -9 14 -10 14 -17
-6 -3 -12 -2 -28 4 -35 6 -7 8 -15 5 -19 -10 -10 36 -28 56 -22 17 5 18 3 10
-26 -5 -18 -19 -42 -31 -55 -12 -12 -19 -27 -16 -31 9 -14 92 -6 126 12 30 15
31 16 15 40 -14 22 -14 24 5 34 29 16 46 14 66 -9 23 -25 41 -25 55 0 11 20
44 27 54 11 3 -4 1 -23 -4 -42 -8 -28 -7 -37 10 -53 15 -15 22 -17 33 -8 8 7
27 9 46 6 17 -4 31 -4 31 -2 0 5 -26 63 -40 90 -8 14 -3 17 30 23 58 10 72 41
36 83 -23 26 -36 28 -36 7 0 -21 -21 -19 -57 8 l-31 22 17 35 c11 24 30 42 60
56 59 28 69 56 36 96 -17 20 -22 34 -16 42 13 15 -34 60 -54 52 -9 -3 -15 0
-15 9 0 20 -19 29 -35 15 -10 -8 -19 -8 -34 -1 -29 16 -56 13 -82 -7z m87 -7
c14 -11 15 -14 3 -9 -10 3 -20 1 -24 -5 -3 -6 0 -11 8 -11 8 0 21 -8 28 -17
12 -15 12 -16 -4 -10 -10 4 -22 7 -27 7 -14 0 -21 33 -8 42 10 6 10 8 0 8 -7
0 -18 -11 -24 -25 -13 -29 -36 -33 -45 -9 -14 36 56 58 93 29z m54 -5 c0 -11
-7 -20 -15 -20 -15 0 -21 21 -8 33 12 13 23 7 23 -13z m-193 -5 c3 -9 2 -19
-2 -23 -9 -9 -95 -10 -89 0 2 3 0 9 -5 12 -5 4 -11 -4 -13 -16 -4 -31 -28 -35
-28 -5 0 27 39 45 52 24 5 -9 12 -8 25 6 21 21 52 22 60 2z m241 -22 c-5 -25
-28 -28 -28 -4 0 12 6 21 16 21 9 0 14 -7 12 -17z m-398 -31 c0 -12 -8 -18
-27 -19 -16 0 -20 1 -10 4 9 2 17 11 17 19 0 8 5 14 10 14 6 0 10 -8 10 -18z
m430 13 c0 -3 -2 -5 -5 -5 -3 0 -5 2 -5 5 0 3 2 5 5 5 3 0 5 -2 5 -5z m-325
-15 c3 -5 -3 -10 -15 -10 -12 0 -18 5 -15 10 3 6 10 10 15 10 5 0 12 -4 15
-10z m55 -31 c0 -4 -7 -12 -15 -19 -8 -7 -15 -17 -15 -23 0 -6 7 -1 16 11 10
15 25 22 47 22 18 0 50 9 71 19 24 13 45 17 58 12 19 -7 18 -9 -14 -37 -20
-16 -43 -43 -52 -61 -9 -18 -25 -37 -37 -43 -18 -10 -20 -17 -14 -73 l7 -62
-39 -13 c-21 -8 -53 -16 -71 -19 -26 -4 -31 -2 -26 10 9 24 61 42 78 28 19
-16 30 3 16 28 -13 25 -13 54 0 46 21 -13 9 33 -15 59 -14 15 -25 34 -25 42 0
7 -4 14 -8 14 -5 0 -16 15 -26 33 -9 17 -14 24 -12 15 3 -10 1 -18 -4 -18 -21
0 -9 30 18 43 26 12 62 4 62 -14z m245 -30 c0 -8 -16 -13 -48 -14 -42 -1 -46
1 -32 14 13 13 19 13 36 3 18 -12 19 -11 10 7 -16 30 -13 35 12 19 12 -9 22
-21 22 -29z m-397 -15 c-25 -25 -42 -14 -22 14 12 17 19 21 27 13 8 -8 7 -16
-5 -27z m72 -14 c0 -5 -4 -10 -10 -10 -5 0 -10 5 -10 10 0 6 5 10 10 10 6 0
10 -4 10 -10z m259 -17 c0 -5 -3 -9 -9 -11 -5 -2 -10 4 -10 13 0 16 16 14 19
-2z m86 -3 c4 -6 -5 -10 -19 -10 -14 0 -26 5 -26 10 0 6 9 10 19 10 11 0 23
-4 26 -10z m25 5 c0 -3 -2 -5 -5 -5 -3 0 -5 2 -5 5 0 3 2 5 5 5 3 0 5 -2 5 -5z
m-394 -21 c18 -14 18 -14 -6 -3 -31 14 -36 19 -24 19 6 0 19 -7 30 -16z m68
-29 c-4 -15 -3 -16 4 -6 7 10 11 10 17 1 14 -22 -27 -38 -55 -20 -12 8 -12 11
3 28 9 10 17 25 17 33 0 12 2 11 10 -1 5 -8 7 -24 4 -35z m192 20 c4 -8 0 -22
-7 -31 -11 -13 -14 -13 -27 0 -17 17 -9 46 13 46 9 0 18 -7 21 -15z m-69 -40
c-7 -17 -37 -21 -37 -4 0 5 4 8 9 5 5 -3 12 1 15 10 4 9 9 14 12 11 4 -3 4
-13 1 -22z m-90 -19 c-8 -8 -17 -12 -21 -9 -3 3 2 12 12 19 22 16 29 9 9 -10z
m-29 -42 c31 -9 28 -18 -13 -33 -19 -7 -39 -20 -45 -30 -12 -23 -55 -35 -78
-22 -14 8 -14 11 -2 11 12 0 11 3 -2 11 -10 5 -18 17 -18 25 0 12 3 12 21 2
17 -11 22 -10 32 3 26 33 61 44 105 33z m232 -19 c38 -28 58 -32 66 -11 5 12
9 12 24 -2 14 -12 17 -19 8 -29 -8 -10 -7 -13 3 -13 28 0 -8 -19 -48 -26 -40
-6 -44 -4 -83 35 -27 28 -50 41 -68 41 -26 1 -26 1 -8 15 29 22 68 18 106 -10z
m-42 -46 c8 -12 10 -19 5 -17 -4 3 -16 8 -26 11 -10 4 -15 11 -12 17 9 15 19
12 33 -11z m-158 -41 c-11 -4 -28 -4 -37 -1 -14 6 -12 9 12 19 23 9 32 9 37 1
4 -7 -1 -15 -12 -19z m-70 2 c0 -5 -7 -10 -15 -10 -8 0 -15 5 -15 10 0 6 7 10
15 10 8 0 15 -4 15 -10z m138 -19 c3 -8 -1 -12 -9 -9 -7 2 -15 10 -17 17 -3 8
1 12 9 9 7 -2 15 -10 17 -17z m132 -1 c0 -5 -4 -10 -10 -10 -5 0 -10 5 -10 10
0 6 5 10 10 10 6 0 10 -4 10 -10z m-264 -32 c3 -5 3 -16 0 -25 -5 -12 -9 -13
-20 -4 -7 6 -21 9 -30 5 -18 -7 -20 0 -6 26 10 18 44 18 56 -2z m258 2 c14 -5
26 -14 26 -19 0 -8 -60 -34 -66 -29 -3 4 7 58 12 58 1 0 14 -4 28 -10z m-214
-25 c0 -3 -2 -5 -5 -5 -3 0 -5 2 -5 5 0 3 2 5 5 5 3 0 5 -2 5 -5z m-110 -14
c0 -5 -7 -11 -15 -15 -15 -5 -20 5 -8 17 9 10 23 9 23 -2z m40 0 c0 -12 -20
-25 -27 -18 -7 7 6 27 18 27 5 0 9 -4 9 -9z m345 -11 c3 -5 -1 -10 -9 -10 -9
0 -16 5 -16 10 0 6 4 10 9 10 6 0 13 -4 16 -10z m-65 -10 c0 -5 -4 -10 -10
-10 -5 0 -10 5 -10 10 0 6 5 10 10 10 6 0 10 -4 10 -10z"/>
<path d="M250 200 c0 -7 3 -10 7 -7 3 4 3 10 0 14 -4 3 -7 0 -7 -7z"/>
</g>
</svg>
