<?xml version="1.0" standalone="no"?>
<!DOCTYPE svg PUBLIC "-//W3C//DTD SVG 20010904//EN"
 "http://www.w3.org/TR/2001/REC-SVG-20010904/DTD/svg10.dtd">
<svg version="1.0" xmlns="http://www.w3.org/2000/svg"
 width="56.000000pt" height="56.000000pt" viewBox="0 0 56.000000 56.000000"
 preserveAspectRatio="xMidYMid meet">
<metadata>
Created by potrace 1.16, written by Peter Selinger 2001-2019
</metadata>
<g transform="translate(0.000000,56.000000) scale(0.100000,-0.100000)"
fill="#000000" stroke="none">
<path d="M243 463 c-3 -8 -17 -26 -30 -39 -16 -17 -23 -33 -21 -52 2 -22 -2
-29 -26 -37 -16 -5 -34 -19 -40 -30 -5 -11 -19 -33 -29 -48 -15 -22 -16 -31
-7 -43 18 -21 40 -17 66 11 25 27 44 32 44 13 0 -25 -15 -36 -58 -44 -24 -5
-44 -13 -43 -19 0 -5 21 -17 47 -26 27 -10 59 -27 72 -40 24 -23 25 -23 38 -4
8 10 14 22 14 26 0 4 12 9 27 12 21 4 36 -2 61 -24 54 -48 120 -33 68 16 -44
41 -44 68 3 113 44 42 47 53 29 116 -16 58 -27 69 -60 62 -23 -4 -32 0 -50 24
-18 25 -24 27 -37 17 -8 -7 -12 -7 -8 -1 4 7 -5 11 -24 12 -18 0 -32 -5 -36
-15z m53 -25 c10 -18 18 -35 18 -38 1 -3 7 -4 14 -4 6 1 12 -7 12 -17 0 -12 7
-19 20 -19 24 0 25 4 4 24 -11 12 -12 16 -2 16 16 0 41 -51 31 -61 -12 -11
-113 -17 -119 -7 -3 4 -10 6 -15 2 -5 -3 -6 -11 -2 -17 4 -7 -1 -6 -11 2 -27
23 -38 50 -31 81 7 31 37 48 58 33 7 -4 5 -1 -5 9 -22 20 -23 28 -3 28 8 0 22
-15 31 -32z m64 -18 c0 -5 -5 -10 -11 -10 -5 0 -7 5 -4 10 3 6 8 10 11 10 2 0
4 -4 4 -10z m78 -17 c2 -8 -6 -13 -22 -13 -17 0 -26 5 -26 16 0 19 41 16 48
-3z m16 -58 c12 -46 -23 -85 -81 -92 -44 -5 -57 -13 -22 -14 22 0 23 -1 4 -9
-18 -8 -18 -9 5 -10 23 -1 23 -2 5 -10 -13 -6 -15 -9 -5 -9 15 -1 64 -80 56
-89 -3 -2 -23 10 -45 27 -35 28 -47 32 -88 29 -39 -2 -48 -6 -47 -21 2 -20 -1
-21 -27 -7 -24 14 -24 40 1 92 11 22 17 45 14 49 -6 11 -49 -11 -88 -46 -34
-29 -62 -19 -33 12 8 10 20 30 26 45 12 32 55 47 80 29 87 -63 127 -73 171
-41 19 14 29 28 26 37 -4 9 -2 11 6 7 7 -5 9 0 6 14 -5 19 2 29 23 31 4 1 10
-10 13 -24z m-111 -42 c-7 -2 -19 -2 -25 0 -7 3 -2 5 12 5 14 0 19 -2 13 -5z
m-168 -123 c-3 -5 -16 -10 -28 -10 -18 0 -19 2 -7 10 20 13 43 13 35 0z"/>
<path d="M270 411 c-15 -4 -26 -15 -28 -29 -3 -18 2 -22 21 -22 20 0 26 6 29
30 3 17 4 30 4 29 -1 -1 -12 -4 -26 -8z m10 -28 c0 -10 -4 -14 -8 -8 -4 6 -11
13 -16 18 -5 4 -2 7 7 7 10 0 17 -8 17 -17z"/>
<path d="M238 243 c12 -2 32 -2 45 0 12 2 2 4 -23 4 -25 0 -35 -2 -22 -4z"/>
<path d="M238 223 c12 -2 30 -2 40 0 9 3 -1 5 -23 4 -22 0 -30 -2 -17 -4z"/>
<path d="M233 203 c9 -2 25 -2 35 0 9 3 1 5 -18 5 -19 0 -27 -2 -17 -5z"/>
</g>
</svg>
