<?xml version="1.0" standalone="no"?>
<!DOCTYPE svg PUBLIC "-//W3C//DTD SVG 20010904//EN"
 "http://www.w3.org/TR/2001/REC-SVG-20010904/DTD/svg10.dtd">
<svg version="1.0" xmlns="http://www.w3.org/2000/svg"
 width="56.000000pt" height="56.000000pt" viewBox="0 0 56.000000 56.000000"
 preserveAspectRatio="xMidYMid meet">
<metadata>
Created by potrace 1.16, written by Peter Selinger 2001-2019
</metadata>
<g transform="translate(0.000000,56.000000) scale(0.100000,-0.100000)"
fill="#000000" stroke="none">
<path d="M191 481 c-16 -17 -32 -45 -36 -61 -5 -22 -16 -34 -39 -44 -18 -7
-42 -26 -54 -41 -41 -52 -22 -109 48 -145 49 -25 55 -35 40 -69 -8 -21 -17
-27 -33 -24 -16 3 -31 -7 -55 -37 -18 -22 -30 -45 -27 -50 5 -8 112 -8 167 -1
4 1 20 14 35 30 23 24 40 31 91 36 54 6 61 5 56 -9 -3 -9 -10 -16 -16 -16 -5
0 -8 -10 -6 -22 3 -21 9 -23 71 -26 62 -3 68 -1 65 15 -3 13 -12 18 -33 17
-17 0 -23 1 -14 3 22 6 51 60 44 83 -3 10 -19 30 -36 44 -26 23 -27 25 -10 31
24 7 91 80 91 98 0 8 -14 41 -30 74 -33 66 -64 87 -118 82 -20 -3 -41 5 -66
24 -20 16 -52 31 -71 34 -30 5 -39 1 -64 -26z m48 2 c1 9 5 17 10 17 5 0 7
-10 4 -22 -4 -21 -3 -22 10 -5 8 9 18 17 22 17 5 0 0 -9 -10 -20 -10 -11 -21
-17 -25 -15 -5 3 -11 -1 -13 -7 -3 -8 -6 -6 -6 5 -1 10 -5 16 -10 13 -5 -4 -7
4 -3 16 5 21 6 21 13 2 7 -16 8 -17 8 -1z m-39 -17 c-6 -16 -5 -28 3 -36 8 -9
5 -8 -10 1 -12 7 -19 16 -14 19 4 3 10 13 14 23 3 9 9 17 11 17 3 0 1 -11 -4
-24z m160 -86 c0 -33 -36 -52 -107 -56 -49 -2 -60 -1 -38 5 17 5 48 9 70 10
45 1 65 15 65 44 0 16 -3 15 -22 -7 -20 -22 -35 -26 -100 -32 -69 -6 -78 -5
-84 11 -5 12 0 24 14 36 16 12 18 19 10 23 -9 4 -8 5 1 3 8 -2 15 -11 17 -21
2 -13 -2 -16 -14 -11 -14 5 -15 4 -4 -7 11 -11 17 -9 31 9 10 12 21 20 24 17
3 -4 20 10 38 30 l32 37 33 -37 c19 -20 34 -44 34 -54z m96 5 c1 -8 -2 -13 -7
-10 -5 4 -6 -2 -3 -12 5 -15 4 -16 -5 -3 -9 13 -11 13 -11 0 0 -13 -1 -13 -10
0 -5 8 -10 11 -10 5 0 -5 5 -17 10 -25 9 -13 10 -13 10 0 1 20 30 -18 30 -39
0 -10 -10 -6 -30 14 -35 34 -37 46 -10 70 11 10 17 23 13 29 -3 6 0 6 7 -1 8
-7 15 -20 16 -28z m49 -27 c22 -47 22 -54 10 -79 -18 -35 -62 -69 -80 -63 -7
3 -16 0 -21 -7 -5 -8 -3 -10 7 -4 8 4 1 -4 -16 -19 -31 -26 -69 -34 -80 -15
-9 14 23 49 45 49 9 0 20 3 24 8 4 4 13 7 19 7 7 0 12 5 12 11 0 7 11 21 25
32 21 17 23 23 13 44 -6 14 -8 30 -3 37 5 9 11 3 18 -18 6 -17 13 -31 16 -31
8 0 -15 59 -25 65 -8 5 -2 35 8 35 2 0 15 -23 28 -52z m-387 -10 c7 -7 12 -24
12 -39 0 -15 9 -37 21 -50 l21 -24 -16 25 c-9 13 -16 34 -16 45 1 18 4 16 26
-10 14 -16 29 -40 34 -52 5 -13 17 -23 27 -22 16 0 16 1 -1 8 -12 4 1 7 35 8
39 1 56 5 66 19 8 11 21 18 29 16 15 -3 19 10 7 21 -3 4 -17 -3 -30 -15 -13
-12 -23 -17 -23 -11 0 36 71 50 84 17 10 -26 -4 -40 -66 -70 -72 -35 -131 -38
-173 -9 -17 11 -35 18 -41 17 -37 -8 -67 88 -37 120 19 21 25 22 41 6z m172
-73 c11 -13 8 -15 -18 -15 -36 0 -62 9 -62 21 0 15 67 10 80 -6z m130 -30 c0
-3 -2 -5 -5 -5 -3 0 -5 2 -5 5 0 3 2 5 5 5 3 0 5 -2 5 -5z m-106 -91 c9 -8 14
-20 11 -25 -10 -14 -59 -10 -81 7 -18 15 -18 15 3 5 12 -6 34 -10 50 -10 27 2
27 2 3 6 -48 8 -56 13 -40 23 22 14 36 12 54 -6z m136 6 c34 -18 44 -48 25
-76 -18 -28 -24 -29 -49 -11 -16 11 -17 17 -7 36 12 21 11 22 -8 12 -26 -14
-34 0 -15 27 17 25 27 27 54 12z m-193 -77 c6 -17 -41 -45 -79 -47 -39 -1 -46
17 -24 69 l16 37 42 -24 c23 -12 43 -28 45 -35z m-137 -1 c0 -12 -23 -32 -37
-32 -11 0 -11 4 -1 20 13 20 38 28 38 12z"/>
<path d="M270 425 c-13 -16 -10 -47 6 -52 19 -6 58 32 51 50 -8 21 -40 22 -57
2z m45 -14 c0 -8 -8 -15 -18 -17 -9 -1 -15 2 -11 7 3 5 0 9 -6 9 -6 0 -8 5 -5
11 9 14 40 7 40 -10z"/>
<path d="M429 383 c-13 -16 -12 -17 4 -4 9 7 17 15 17 17 0 8 -8 3 -21 -13z"/>
<path d="M460 345 c0 -3 2 -5 5 -5 3 0 5 2 5 5 0 3 -2 5 -5 5 -3 0 -5 -2 -5
-5z"/>
<path d="M456 242 l-19 -27 24 22 c12 12 21 24 18 27 -2 2 -13 -8 -23 -22z"/>
<path d="M440 255 c0 -3 2 -5 5 -5 3 0 5 2 5 5 0 3 -2 5 -5 5 -3 0 -5 -2 -5
-5z"/>
<path d="M90 307 c0 -4 7 -21 15 -37 18 -35 5 -40 -20 -7 -17 22 -17 22 -2 -3
8 -14 23 -25 34 -26 11 -1 27 -4 34 -8 8 -4 4 1 -7 11 -12 11 -28 32 -37 48
-9 17 -16 26 -17 22z"/>
<path d="M273 223 c4 -3 10 -3 14 0 3 4 0 7 -7 7 -7 0 -10 -3 -7 -7z"/>
<path d="M220 200 c-11 -7 -5 -8 20 -4 43 8 51 14 19 14 -13 0 -31 -5 -39 -10z"/>
</g>
</svg>
