<?xml version="1.0" standalone="no"?>
<!DOCTYPE svg PUBLIC "-//W3C//DTD SVG 20010904//EN"
 "http://www.w3.org/TR/2001/REC-SVG-20010904/DTD/svg10.dtd">
<svg version="1.0" xmlns="http://www.w3.org/2000/svg"
 width="56.000000pt" height="56.000000pt" viewBox="0 0 56.000000 56.000000"
 preserveAspectRatio="xMidYMid meet">
<metadata>
Created by potrace 1.16, written by Peter Selinger 2001-2019
</metadata>
<g transform="translate(0.000000,56.000000) scale(0.100000,-0.100000)"
fill="#000000" stroke="none">
<path d="M119 551 c-84 -17 -128 -68 -101 -118 7 -13 6 -24 -4 -38 -18 -24
-18 -59 0 -74 8 -7 12 -20 9 -31 -7 -27 49 -82 80 -78 12 1 32 -5 45 -13 22
-16 22 -16 2 -34 -28 -26 -25 -59 11 -100 37 -42 57 -44 93 -10 15 14 30 25
33 25 3 0 26 -16 50 -36 47 -39 73 -41 88 -6 5 12 15 22 21 22 14 0 54 43 54
58 0 7 11 17 25 22 25 9 33 34 16 44 -4 3 -7 16 -4 28 5 29 -30 86 -59 97 -21
7 -21 8 7 27 48 34 75 63 75 82 0 22 -64 76 -83 69 -7 -2 -20 2 -29 11 -22 19
-43 4 -52 -38 -3 -18 -12 -30 -21 -30 -9 0 -18 -7 -22 -16 -5 -13 -15 -14 -57
-9 -28 4 -59 14 -69 23 -16 14 -16 16 3 29 43 30 8 104 -47 102 -16 -1 -44 -4
-64 -8z m89 -13 c-3 -7 -15 -15 -27 -16 -16 -3 -21 0 -16 9 5 8 4 10 -3 5 -7
-4 -12 -16 -12 -26 0 -19 -38 -55 -70 -65 -26 -8 -62 12 -58 33 4 19 57 52
101 62 52 13 89 11 85 -2z m11 -39 c-25 -16 -32 -9 -13 12 12 13 20 16 22 9 3
-7 -2 -16 -9 -21z m230 -12 c15 -19 18 -59 4 -64 -14 -5 -47 53 -38 67 8 14
21 12 34 -3z m-272 -14 c-4 -3 -7 0 -7 7 0 7 3 10 7 7 3 -4 3 -10 0 -14z m333
-12 c7 -14 7 -22 0 -26 -13 -8 -40 13 -40 31 0 21 28 17 40 -5z m-283 2 c-4
-3 -10 -3 -14 0 -3 4 0 7 7 7 7 0 10 -3 7 -7z m-38 -22 c20 -11 43 -27 50 -35
11 -14 11 -16 -4 -16 -10 0 -33 -11 -52 -26 -41 -31 -46 -10 -7 36 15 17 23
30 18 28 -15 -4 -54 13 -54 23 0 13 6 12 49 -10z m361 -12 c0 -5 -4 -9 -10 -9
-5 0 -10 7 -10 16 0 8 5 12 10 9 6 -3 10 -10 10 -16z m-132 -21 c-3 -7 -19
-13 -35 -14 -22 -1 -30 3 -26 13 7 17 66 18 61 1z m-333 -5 c15 -5 14 -8 -6
-19 l-24 -13 29 -1 c24 0 27 -2 16 -15 -7 -8 -20 -15 -29 -15 -14 0 -14 -2 -1
-10 12 -8 11 -10 -6 -10 -11 0 -29 9 -39 20 -15 17 -16 24 -7 45 12 25 34 31
67 18z m59 -24 c-10 -16 -24 -9 -24 12 0 18 2 19 15 9 8 -7 12 -16 9 -21z
m196 4 c-1 -5 -6 -18 -13 -30 -12 -22 -13 -22 -25 -3 -10 16 -9 21 6 29 21 12
32 14 32 4z m76 -62 c6 -12 27 -30 45 -39 41 -21 49 -65 12 -70 -25 -4 -67 33
-57 50 4 7 3 8 -4 4 -7 -4 -12 -14 -12 -22 0 -23 -64 -84 -88 -84 -30 0 -37
19 -13 36 12 9 28 29 37 46 13 25 13 35 3 59 -10 25 -9 32 6 49 16 18 21 19
39 7 12 -8 26 -24 32 -36z m-117 10 c40 -55 27 -75 -67 -101 -59 -16 -76 -18
-92 -8 -11 7 -21 17 -24 23 -7 18 5 65 15 59 5 -3 5 -14 -1 -25 -9 -15 -7 -19
5 -19 9 0 15 9 15 24 0 34 53 76 95 76 26 0 39 -7 54 -29z m-228 -41 c23 -13
25 -38 3 -47 -18 -7 -44 20 -44 44 0 16 15 17 41 3z m326 -101 c8 -8 17 -7 32
3 26 16 54 2 59 -30 4 -24 -52 -91 -65 -79 -4 5 5 19 21 32 l29 23 -52 26
c-48 25 -62 36 -43 36 4 0 13 -5 19 -11z m143 -25 c0 -9 -7 -14 -17 -12 -25 5
-28 28 -4 28 12 0 21 -6 21 -16z m-338 -11 c25 -22 23 -40 -8 -60 -25 -16 -27
-16 -40 2 -17 23 -17 30 -4 56 13 23 28 24 52 2z m223 -3 c16 -7 13 -9 -17 -9
-21 -1 -38 4 -38 9 0 12 27 12 55 0z m-15 -40 c0 -5 -2 -10 -4 -10 -3 0 -8 5
-11 10 -3 6 -1 10 4 10 6 0 11 -4 11 -10z"/>
<path d="M200 310 c-6 -11 -15 -18 -21 -15 -5 4 -9 2 -9 -4 0 -18 36 -30 74
-24 33 5 37 9 34 32 -2 21 -9 27 -35 29 -24 2 -34 -2 -43 -18z m68 -12 c4 -22
-14 -23 -34 -4 -20 21 -17 28 8 24 13 -2 24 -11 26 -20z m-48 -12 c0 -3 -4 -8
-10 -11 -5 -3 -10 -1 -10 4 0 6 5 11 10 11 6 0 10 -2 10 -4z"/>
</g>
</svg>
