<?xml version="1.0" standalone="no"?>
<!DOCTYPE svg PUBLIC "-//W3C//DTD SVG 20010904//EN"
 "http://www.w3.org/TR/2001/REC-SVG-20010904/DTD/svg10.dtd">
<svg version="1.0" xmlns="http://www.w3.org/2000/svg"
 width="56.000000pt" height="56.000000pt" viewBox="0 0 56.000000 56.000000"
 preserveAspectRatio="xMidYMid meet">
<metadata>
Created by potrace 1.16, written by Peter Selinger 2001-2019
</metadata>
<g transform="translate(0.000000,56.000000) scale(0.100000,-0.100000)"
fill="#000000" stroke="none">
<path d="M230 443 c-18 -23 -21 -36 -16 -75 5 -38 4 -48 -8 -48 -23 0 -76 -50
-76 -72 0 -17 3 -18 14 -9 11 10 21 9 45 -3 16 -9 37 -16 46 -16 9 0 15 -6 12
-12 -4 -13 -17 -14 -53 -3 -16 5 -27 -2 -49 -32 -17 -23 -21 -31 -9 -21 16 14
23 15 34 5 12 -10 12 -9 0 6 -20 27 1 44 35 29 13 -6 32 -9 40 -6 9 4 15 0 15
-9 0 -8 9 -25 20 -39 15 -20 17 -28 7 -38 -10 -12 -9 -12 5 -1 9 7 27 10 40 7
13 -4 7 1 -12 11 -38 20 -62 65 -43 84 9 9 11 7 7 -8 -12 -46 80 -80 134 -49
23 12 23 13 -17 31 -24 10 -49 32 -61 52 l-20 33 22 44 c50 104 -45 223 -112
139z m90 2 c6 -8 16 -31 20 -51 10 -43 -3 -75 -46 -114 -24 -22 -23 -18 9 26
41 57 51 86 13 39 -33 -41 -83 -43 -88 -4 -3 19 0 26 11 25 20 -1 21 26 2 32
-9 3 -11 0 -6 -8 5 -9 4 -11 -3 -6 -16 10 -15 27 4 54 18 26 65 30 84 7z
m-105 -145 c12 -19 -13 -45 -44 -45 -38 0 -39 7 -5 34 30 23 40 26 49 11z m60
0 c3 -6 -4 -10 -17 -10 -18 0 -20 -2 -8 -10 9 -6 10 -10 3 -10 -15 0 -26 17
-18 30 3 6 12 10 20 10 8 0 17 -4 20 -10z m139 -140 c6 0 4 -5 -4 -10 -33 -21
-111 -6 -96 19 5 8 14 7 29 -4 12 -8 31 -15 42 -14 13 0 8 4 -15 12 -19 7 -36
20 -38 30 -3 15 2 14 34 -8 20 -14 42 -25 48 -25z"/>
<path d="M284 389 c-10 -17 13 -36 27 -22 12 12 4 33 -11 33 -5 0 -12 -5 -16
-11z m16 -4 c0 -3 -2 -5 -5 -5 -3 0 -5 2 -5 5 0 3 2 5 5 5 3 0 5 -2 5 -5z"/>
<path d="M188 283 c7 -3 16 -2 19 1 4 3 -2 6 -13 5 -11 0 -14 -3 -6 -6z"/>
</g>
</svg>
