<?xml version="1.0" standalone="no"?>
<!DOCTYPE svg PUBLIC "-//W3C//DTD SVG 20010904//EN"
 "http://www.w3.org/TR/2001/REC-SVG-20010904/DTD/svg10.dtd">
<svg version="1.0" xmlns="http://www.w3.org/2000/svg"
 width="56.000000pt" height="56.000000pt" viewBox="0 0 56.000000 56.000000"
 preserveAspectRatio="xMidYMid meet">
<metadata>
Created by potrace 1.16, written by Peter Selinger 2001-2019
</metadata>
<g transform="translate(0.000000,56.000000) scale(0.100000,-0.100000)"
fill="#000000" stroke="none">
<path d="M252 487 c-7 -8 -15 -28 -18 -46 -8 -41 -22 -48 -40 -22 -19 26 -50
27 -91 1 -65 -39 -67 -93 -6 -135 39 -26 53 -31 53 -17 0 5 -6 9 -13 9 -21 0
-66 33 -72 54 -4 10 -3 29 1 41 6 20 7 19 21 -13 14 -33 82 -104 91 -95 7 7
-6 37 -15 34 -17 -5 -51 23 -62 51 -10 22 -10 34 -1 50 16 32 26 25 22 -14 -4
-30 1 -40 33 -70 26 -23 36 -39 31 -50 -3 -9 -11 -15 -18 -13 -19 7 -78 -58
-78 -86 0 -27 47 -72 86 -82 40 -10 114 2 143 23 14 11 30 36 35 56 12 47 55
68 94 46 31 -17 44 -46 16 -35 -16 6 -17 5 -6 -6 11 -11 17 -9 33 11 23 28 24
69 5 116 -22 53 -80 72 -122 40 -24 -18 -34 -19 -34 -1 0 7 -9 25 -20 39 -18
22 -19 29 -8 47 25 39 -31 102 -60 67z m45 -13 c3 -10 -43 -41 -51 -33 -2 2 0
14 5 27 9 24 39 28 46 6z m-27 -79 c7 -8 16 -30 19 -48 6 -28 3 -35 -27 -59
-42 -34 -58 -35 -66 -5 -11 41 -6 65 20 96 29 35 36 37 54 16z m-180 0 c0 -3
-2 -5 -5 -5 -3 0 -5 2 -5 5 0 3 2 5 5 5 3 0 5 -2 5 -5z m110 -2 c0 -5 -5 -15
-10 -23 -7 -11 -12 -12 -21 -3 -6 6 -8 16 -5 22 8 12 36 15 36 4z m228 -79
c39 -27 24 -48 -36 -49 -55 0 -61 7 -36 43 18 26 41 28 72 6z m-103 -44 c0
-18 -6 -26 -23 -28 -24 -4 -38 18 -28 44 3 9 15 14 28 12 17 -2 23 -10 23 -28z
m104 -19 c11 -7 5 -13 -24 -25 -34 -14 -41 -15 -53 -2 -8 8 -11 19 -8 25 9 13
65 14 85 2z m-144 -37 c8 -4 15 -13 15 -20 0 -12 -5 -12 -30 1 -16 8 -41 15
-55 15 -63 0 -111 -55 -69 -78 12 -7 13 -11 5 -17 -17 -10 -51 24 -51 52 0 12
10 33 21 44 19 19 29 21 85 15 35 -4 71 -9 79 -12z m-21 -43 c17 -19 17 -20
-3 -30 -27 -15 -44 -14 -67 4 -19 15 -19 15 0 30 27 20 49 19 70 -4z"/>
<path d="M240 390 c0 -5 5 -10 10 -10 6 0 10 5 10 10 0 6 -4 10 -10 10 -5 0
-10 -4 -10 -10z"/>
<path d="M250 320 c0 -5 5 -10 10 -10 6 0 10 5 10 10 0 6 -4 10 -10 10 -5 0
-10 -4 -10 -10z"/>
<path d="M284 279 c-10 -17 13 -36 27 -22 12 12 4 33 -11 33 -5 0 -12 -5 -16
-11z"/>
</g>
</svg>
