<?xml version="1.0" standalone="no"?>
<!DOCTYPE svg PUBLIC "-//W3C//DTD SVG 20010904//EN"
 "http://www.w3.org/TR/2001/REC-SVG-20010904/DTD/svg10.dtd">
<svg version="1.0" xmlns="http://www.w3.org/2000/svg"
 width="56.000000pt" height="56.000000pt" viewBox="0 0 56.000000 56.000000"
 preserveAspectRatio="xMidYMid meet">
<metadata>
Created by potrace 1.16, written by Peter Selinger 2001-2019
</metadata>
<g transform="translate(0.000000,56.000000) scale(0.100000,-0.100000)"
fill="#000000" stroke="none">
<path d="M249 544 c-13 -13 -20 -13 -44 -2 -27 12 -29 11 -87 -52 -68 -75 -82
-102 -73 -147 5 -29 46 -75 75 -85 6 -2 12 -24 13 -50 2 -35 -3 -52 -19 -70
-50 -55 -54 -103 -9 -114 13 -3 56 -1 96 6 52 9 74 9 82 1 15 -15 53 -13 110
8 l49 17 -54 17 c-62 19 -81 21 -106 8 -48 -26 -166 -39 -177 -20 -6 10 39 89
51 89 3 0 23 -14 45 -32 34 -27 43 -30 67 -22 22 8 27 15 25 41 l-3 30 63 0
c95 0 156 12 172 37 40 57 -21 186 -88 186 -17 0 -17 -2 4 -19 20 -16 24 -29
24 -70 0 -32 -6 -56 -15 -66 -14 -14 -19 -13 -50 10 -20 15 -47 25 -68 25 -44
0 -38 15 19 56 31 22 44 38 44 55 0 29 18 43 45 34 30 -9 36 20 15 63 -10 21
-18 43 -16 50 3 18 -27 26 -54 14 -18 -8 -26 -8 -35 4 -16 19 -82 18 -101 -2z
m105 -13 c11 -12 14 -21 7 -26 -6 -3 -11 -13 -11 -22 0 -14 3 -14 25 1 30 19
35 20 35 3 0 -20 -53 -55 -96 -63 -22 -3 -44 -11 -51 -16 -14 -11 -24 111 -10
130 15 19 81 15 101 -7z m-149 -1 c4 -6 -6 -10 -22 -10 -22 0 -25 2 -13 10 19
12 27 12 35 0z m-41 -66 c-19 -19 -24 -31 -19 -47 4 -12 7 -35 6 -51 -1 -38
17 -59 44 -52 64 16 104 -142 44 -174 -16 -9 -26 -8 -44 4 -40 26 -58 72 -51
128 4 27 3 54 -1 61 -13 19 -33 80 -33 100 0 23 35 57 60 57 17 0 17 -2 -6
-26z m66 -19 c16 -19 0 -19 -26 0 -16 12 -16 14 -3 15 9 0 22 -7 29 -15z
m-148 -75 c5 -33 -7 -49 -24 -32 -11 11 -1 75 12 67 4 -3 10 -19 12 -35z m118
25 c7 -9 28 -23 47 -31 37 -18 37 -30 0 -20 -28 7 -77 43 -77 57 0 14 16 11
30 -6z m141 -11 c10 -13 10 -17 -2 -24 -9 -6 -15 -5 -18 3 -2 7 -8 18 -14 25
-15 19 18 15 34 -4z m161 -50 c14 -30 -5 -104 -27 -104 -11 0 -12 6 -5 26 14
35 12 64 -4 97 -14 26 -14 27 5 16 11 -5 25 -21 31 -35z m-322 14 c0 -18 2
-20 10 -8 5 8 12 11 16 7 12 -11 -13 -30 -30 -24 -17 7 -22 47 -6 47 6 0 10
-10 10 -22z m91 -40 c0 -10 2 -10 6 0 2 6 11 12 20 12 8 0 13 -6 11 -12 -6
-17 -50 -17 -55 0 -3 6 0 12 6 12 6 0 11 -6 12 -12z m252 -38 c-3 -11 -10 -23
-16 -27 -5 -3 -8 -2 -5 3 3 5 8 17 11 27 9 24 16 22 10 -3z m-129 -209 c15 -6
11 -9 -21 -19 -22 -7 -50 -12 -62 -12 -23 0 -29 25 -8 33 18 8 69 7 91 -2z"/>
<path d="M320 525 c0 -3 2 -5 5 -5 3 0 5 2 5 5 0 3 -2 5 -5 5 -3 0 -5 -2 -5
-5z"/>
<path d="M260 505 c0 -3 2 -5 5 -5 3 0 5 2 5 5 0 3 -2 5 -5 5 -3 0 -5 -2 -5
-5z"/>
<path d="M390 485 c0 -3 2 -5 5 -5 3 0 5 2 5 5 0 3 -2 5 -5 5 -3 0 -5 -2 -5
-5z"/>
<path d="M300 455 c0 -3 2 -5 5 -5 3 0 5 2 5 5 0 3 -2 5 -5 5 -3 0 -5 -2 -5
-5z"/>
<path d="M190 255 c0 -3 2 -5 5 -5 3 0 5 2 5 5 0 3 -2 5 -5 5 -3 0 -5 -2 -5
-5z"/>
<path d="M170 225 c0 -3 2 -5 5 -5 3 0 5 2 5 5 0 3 -2 5 -5 5 -3 0 -5 -2 -5
-5z"/>
<path d="M200 215 c0 -3 2 -5 5 -5 3 0 5 2 5 5 0 3 -2 5 -5 5 -3 0 -5 -2 -5
-5z"/>
<path d="M190 185 c0 -3 2 -5 5 -5 3 0 5 2 5 5 0 3 -2 5 -5 5 -3 0 -5 -2 -5
-5z"/>
<path d="M210 155 c0 -3 2 -5 5 -5 3 0 5 2 5 5 0 3 -2 5 -5 5 -3 0 -5 -2 -5
-5z"/>
</g>
</svg>
