<?xml version="1.0" standalone="no"?>
<!DOCTYPE svg PUBLIC "-//W3C//DTD SVG 20010904//EN"
 "http://www.w3.org/TR/2001/REC-SVG-20010904/DTD/svg10.dtd">
<svg version="1.0" xmlns="http://www.w3.org/2000/svg"
 width="56.000000pt" height="56.000000pt" viewBox="0 0 56.000000 56.000000"
 preserveAspectRatio="xMidYMid meet">
<metadata>
Created by potrace 1.16, written by Peter Selinger 2001-2019
</metadata>
<g transform="translate(0.000000,56.000000) scale(0.100000,-0.100000)"
fill="#000000" stroke="none">
<path d="M224 465 c-40 -18 -72 -94 -55 -131 6 -14 11 -31 11 -39 0 -18 -30
-24 -52 -11 -25 15 -50 -10 -27 -27 9 -7 19 -22 23 -35 11 -33 49 -55 85 -47
17 3 32 2 36 -4 8 -13 52 -14 60 -2 3 5 34 8 69 6 l64 -3 16 37 c19 44 17 116
-4 116 -8 0 -19 -10 -25 -22 -5 -13 -13 -23 -17 -23 -11 0 -10 8 3 45 10 26 8
37 -10 73 -37 73 -105 98 -177 67z m78 -7 c-24 -24 -13 -60 33 -104 67 -64 62
-72 -43 -79 -60 -4 -71 -2 -87 15 -10 11 -15 20 -11 20 4 0 0 7 -8 16 -18 17
-22 39 -6 29 6 -4 19 -3 28 1 9 4 22 8 27 8 6 1 11 21 11 46 1 25 2 48 3 53 0
4 15 7 33 7 25 0 29 -3 20 -12z m21 -32 c4 -10 1 -13 -9 -9 -15 6 -19 23 -5
23 5 0 11 -7 14 -14z m-110 -10 c4 -10 1 -13 -9 -9 -15 6 -19 23 -5 23 5 0 11
-7 14 -14z m242 -141 c0 -24 -5 -49 -10 -54 -7 -7 -10 7 -9 40 2 58 2 59 12
59 4 0 7 -20 7 -45z m-319 -12 c3 -10 11 -30 19 -45 8 -16 10 -28 6 -28 -5 0
-14 15 -21 33 -7 17 -20 38 -28 45 -14 11 -14 12 1 12 10 0 20 -8 23 -17z m48
1 c17 -7 22 -34 7 -34 -21 0 -41 13 -41 26 0 15 10 17 34 8z m229 -16 c-12
-13 -23 -32 -26 -43 -4 -18 -5 -17 -6 3 -1 15 -5 21 -13 16 -6 -4 -9 -3 -6 2
3 5 8 17 11 27 4 10 17 17 33 17 l27 0 -20 -22z m-131 0 c-9 -9 -15 -9 -24 0
-9 9 -7 12 12 12 19 0 21 -3 12 -12z m-31 -28 c9 -24 8 -24 -6 -6 -14 19 -21
12 -16 -16 2 -12 -17 -10 -24 2 -3 6 -1 10 5 10 7 0 9 8 5 21 -10 31 25 21 36
-11z m89 21 c0 -5 -7 -14 -15 -21 -12 -10 -15 -10 -15 1 0 8 -6 6 -16 -7 -8
-10 -14 -14 -11 -9 2 6 7 18 10 28 6 17 47 25 47 8z m5 -41 c-3 -5 -11 -10
-16 -10 -6 0 -7 5 -4 10 3 6 11 10 16 10 6 0 7 -4 4 -10z m-85 -20 c0 -5 -2
-10 -4 -10 -3 0 -8 5 -11 10 -3 6 -1 10 4 10 6 0 11 -4 11 -10z m40 6 c0 -2
-7 -6 -15 -10 -8 -3 -15 -1 -15 4 0 6 7 10 15 10 8 0 15 -2 15 -4z"/>
<path d="M206 345 c-11 -8 -15 -15 -9 -15 6 0 16 7 23 15 16 19 11 19 -14 0z"/>
<path d="M244 326 c-8 -21 3 -36 27 -36 13 0 19 7 19 23 0 18 2 19 11 7 8 -12
10 -12 7 -1 -6 20 -57 26 -64 7z m16 -1 c0 -3 -2 -5 -5 -5 -3 0 -5 2 -5 5 0 3
2 5 5 5 3 0 5 -2 5 -5z"/>
<path d="M335 320 c3 -5 8 -10 11 -10 3 0 2 5 -1 10 -3 6 -8 10 -11 10 -3 0
-2 -4 1 -10z"/>
</g>
</svg>
