<?xml version="1.0" standalone="no"?>
<!DOCTYPE svg PUBLIC "-//W3C//DTD SVG 20010904//EN"
 "http://www.w3.org/TR/2001/REC-SVG-20010904/DTD/svg10.dtd">
<svg version="1.0" xmlns="http://www.w3.org/2000/svg"
 width="56.000000pt" height="56.000000pt" viewBox="0 0 56.000000 56.000000"
 preserveAspectRatio="xMidYMid meet">
<metadata>
Created by potrace 1.16, written by Peter Selinger 2001-2019
</metadata>
<g transform="translate(0.000000,56.000000) scale(0.100000,-0.100000)"
fill="#000000" stroke="none">
<path d="M230 505 c-14 -8 -19 -14 -11 -15 11 0 11 -3 1 -15 -17 -21 -34 -19
-26 3 4 10 -5 5 -19 -12 -14 -15 -29 -41 -32 -57 -6 -33 -21 -48 -60 -58 -15
-4 -28 -14 -28 -21 0 -19 63 -60 92 -60 l24 0 -20 -26 c-28 -35 -26 -48 6 -72
23 -17 25 -22 14 -36 -7 -9 -21 -16 -30 -17 -10 0 -11 -2 -3 -6 6 -2 12 -11
12 -18 0 -30 20 -24 38 11 l19 37 15 -44 c8 -24 19 -44 24 -44 5 0 11 23 14
50 6 57 24 67 28 15 1 -19 5 -42 8 -50 9 -25 34 18 34 59 1 31 2 33 11 17 6
-10 9 -33 6 -51 -3 -18 -3 -36 0 -39 10 -10 33 16 34 38 0 20 1 20 10 -2 9
-25 29 -21 29 5 0 12 3 13 15 3 20 -17 35 -4 35 31 0 35 -20 76 -49 103 -28
26 -26 36 7 36 34 0 92 35 92 55 0 26 -47 37 -75 19 -35 -23 -87 -11 -120 28
-14 17 -23 33 -20 36 3 3 12 -4 21 -16 26 -38 71 -56 105 -42 l28 12 -23 47
c-28 55 -49 75 -99 96 -45 19 -74 19 -107 0z m74 -39 c-1 -24 -4 -49 -8 -55
-4 -6 9 -27 28 -48 31 -35 39 -38 85 -37 28 0 51 -3 51 -8 0 -9 -7 -11 -80
-12 -30 -1 -70 -8 -87 -16 -29 -13 -35 -12 -49 1 -14 15 -13 19 15 50 17 18
31 39 31 45 0 16 -26 36 -42 32 -20 -4 -21 3 -8 50 11 35 17 42 39 42 24 0 26
-3 25 -44z m35 -3 c-15 -18 -34 -1 -25 22 5 14 9 15 21 5 12 -10 13 -16 4 -27z
m-141 -88 c-21 -19 -42 -35 -48 -35 -5 0 7 16 28 35 20 19 42 34 47 34 6 0 -7
-15 -27 -34z m62 25 c0 -5 -4 -10 -10 -10 -5 0 -10 5 -10 10 0 6 5 10 10 10 6
0 10 -4 10 -10z m-24 -73 c-12 -9 -16 -19 -11 -27 6 -10 3 -11 -16 -5 -13 4
-35 7 -49 7 -36 -1 -100 17 -100 28 0 6 8 10 18 10 10 0 28 7 40 16 22 15 23
15 20 -1 -5 -28 17 -28 48 -1 29 25 29 25 49 6 19 -19 19 -20 1 -33z m0 -49
c5 4 4 1 -2 -6 -11 -13 -44 -6 -44 9 0 6 8 6 19 0 10 -6 22 -7 27 -3z m90 -3
c-23 -17 -50 -20 -41 -5 4 6 11 8 16 5 5 -4 9 -1 9 4 0 6 8 11 18 11 15 -1 15
-2 -2 -15z m112 -75 c24 -36 31 -105 10 -97 -8 2 -13 21 -13 45 0 31 -6 47
-25 64 l-24 23 19 -23 c20 -24 20 -24 0 -39 -24 -18 -74 -12 -136 17 -24 11
-52 20 -62 20 -10 0 -15 5 -12 10 10 16 56 11 104 -10 47 -22 96 -27 86 -10
-10 16 3 42 18 38 6 -3 22 -19 35 -38z m-226 0 c7 -1 27 -7 43 -15 28 -13 26
-13 -35 -8 -72 6 -86 13 -76 38 6 16 8 16 31 1 13 -9 30 -16 37 -16z m153 19
c11 -16 -1 -22 -30 -15 -14 4 -23 11 -20 16 8 13 42 13 50 -1z m54 -95 c-11
-41 -13 -44 -20 -26 -9 23 -3 47 14 70 17 21 18 7 6 -44z m-172 -20 l2 -49
-14 35 c-17 45 -19 73 -2 68 7 -3 13 -25 14 -54z m127 -2 c-4 -15 -11 -31 -17
-37 -7 -7 -8 -4 -3 8 3 10 6 30 6 43 0 14 4 22 10 19 6 -3 7 -18 4 -33z m-54
11 c0 -10 -5 -25 -10 -33 -7 -11 -10 -7 -10 18 0 17 5 32 10 32 6 0 10 -8 10
-17z m-153 -25 c-3 -7 -5 -2 -5 12 0 14 2 19 5 13 2 -7 2 -19 0 -25z"/>
<path d="M400 120 c0 -7 3 -10 7 -7 3 4 3 10 0 14 -4 3 -7 0 -7 -7z"/>
<path d="M59 169 c-13 -26 1 -44 36 -44 19 -1 22 2 13 13 -9 10 -13 11 -19 0
-12 -18 -32 4 -23 25 8 22 19 21 54 -5 25 -18 32 -20 43 -8 10 10 9 11 -1 5
-8 -4 -25 1 -43 14 -35 26 -45 26 -60 0z"/>
</g>
</svg>
