<?xml version="1.0" standalone="no"?>
<!DOCTYPE svg PUBLIC "-//W3C//DTD SVG 20010904//EN"
 "http://www.w3.org/TR/2001/REC-SVG-20010904/DTD/svg10.dtd">
<svg version="1.0" xmlns="http://www.w3.org/2000/svg"
 width="56.000000pt" height="56.000000pt" viewBox="0 0 56.000000 56.000000"
 preserveAspectRatio="xMidYMid meet">
<metadata>
Created by potrace 1.16, written by Peter Selinger 2001-2019
</metadata>
<g transform="translate(0.000000,56.000000) scale(0.100000,-0.100000)"
fill="#000000" stroke="none">
<path d="M211 441 c-8 -5 -20 -7 -26 -4 -21 7 -83 -24 -90 -46 -8 -26 17 -76
60 -121 19 -19 50 -52 70 -74 31 -34 39 -38 73 -34 20 3 44 8 52 12 11 4 19
-2 27 -24 15 -40 62 -43 87 -5 24 36 20 51 -19 81 -26 19 -35 34 -35 55 0 45
-46 88 -100 95 -60 8 -125 -17 -117 -45 3 -12 -3 -27 -13 -36 -18 -16 -20 -14
-49 26 -43 58 -40 79 13 99 33 12 61 6 51 -11 -4 -6 -13 -8 -21 -5 -8 3 -14 1
-14 -5 0 -6 -7 -8 -16 -5 -8 3 -13 2 -10 -3 3 -5 -1 -11 -9 -15 -16 -6 -10
-36 7 -36 5 0 19 -10 29 -22 l20 -23 -12 25 c-7 14 -17 29 -23 33 -6 5 0 5 13
2 17 -5 22 -4 16 5 -5 9 -4 11 3 6 7 -4 12 -3 12 3 0 5 16 19 35 31 36 22 42
43 14 47 -8 2 -20 -1 -28 -6z m24 -15 c-11 -8 -24 -12 -28 -9 -11 7 12 23 32
23 11 0 9 -4 -4 -14z m85 -65 c0 -6 -5 -13 -11 -16 -5 -4 -8 -12 -6 -18 2 -6
-4 -18 -13 -27 -9 -8 -10 -11 -3 -6 7 4 22 6 33 3 24 -6 26 2 3 18 -18 13 -10
35 13 35 22 0 54 -38 54 -65 0 -16 13 -34 40 -56 41 -33 52 -65 26 -75 -8 -3
-24 0 -36 6 -20 11 -21 10 -15 -9 4 -12 2 -21 -4 -21 -12 0 -27 48 -17 57 3 3
18 1 32 -6 40 -18 42 -4 3 28 -32 28 -34 28 -47 10 -17 -24 -64 -49 -92 -49
-35 0 -80 53 -80 93 0 35 10 41 38 24 6 -5 12 -4 12 1 0 5 -11 14 -25 20 -28
13 -33 37 -9 46 21 8 33 0 29 -22 -1 -9 0 -11 2 -4 3 6 11 12 18 12 7 0 16 -6
18 -12 4 -10 6 -10 6 0 1 8 -8 16 -19 19 -32 9 -23 23 15 23 19 0 35 -4 35 -9z"/>
<path d="M228 258 c16 -16 15 -31 0 -22 -10 5 -10 4 -1 -6 15 -16 18 -13 27
20 6 19 5 21 -3 10 -7 -10 -11 -11 -11 -2 0 6 -5 12 -12 12 -9 0 -9 -3 0 -12z"/>
<path d="M293 254 c-5 -13 -8 -13 -15 -2 -7 9 -8 8 -4 -5 3 -10 6 -23 6 -28 0
-5 8 -10 18 -10 9 -1 -1 -5 -23 -9 l-40 -8 40 2 c22 0 39 6 38 11 -1 6 6 19
15 30 17 20 17 20 -6 1 -28 -24 -42 -13 -17 14 11 12 13 20 6 20 -6 0 -14 -7
-18 -16z"/>
</g>
</svg>
