<?xml version="1.0" standalone="no"?>
<!DOCTYPE svg PUBLIC "-//W3C//DTD SVG 20010904//EN"
 "http://www.w3.org/TR/2001/REC-SVG-20010904/DTD/svg10.dtd">
<svg version="1.0" xmlns="http://www.w3.org/2000/svg"
 width="56.000000pt" height="56.000000pt" viewBox="0 0 56.000000 56.000000"
 preserveAspectRatio="xMidYMid meet">
<metadata>
Created by potrace 1.16, written by Peter Selinger 2001-2019
</metadata>
<g transform="translate(0.000000,56.000000) scale(0.100000,-0.100000)"
fill="#000000" stroke="none">
<path d="M399 493 c-6 -16 -14 -34 -18 -42 -8 -16 -58 -24 -66 -10 -10 15 -31
10 -58 -15 -15 -14 -29 -20 -32 -15 -11 17 -26 9 -40 -23 -18 -43 -25 -50 -42
-37 -18 16 -16 25 8 48 21 19 19 41 -4 41 -7 0 -12 14 -12 32 0 36 -24 50 -32
19 -6 -24 -14 -26 -30 -10 -6 6 -16 8 -22 5 -14 -9 -14 -63 0 -72 6 -3 8 -15
6 -25 -8 -32 12 -89 36 -100 12 -5 27 -22 34 -36 11 -22 9 -29 -13 -58 -14
-18 -22 -39 -18 -48 4 -11 -1 -16 -18 -19 -28 -4 -31 -31 -3 -36 11 -2 27 -6
35 -9 25 -11 89 -12 95 -2 3 4 -2 20 -11 34 -21 32 -9 32 40 -1 21 -14 57 -29
80 -32 22 -3 45 -11 49 -19 6 -9 19 -11 46 -7 24 4 41 2 45 -5 11 -18 34 -13
46 10 9 16 8 25 -2 37 -16 20 -16 35 0 82 6 19 12 80 12 135 1 55 2 115 2 133
2 43 -15 61 -42 44 -16 -10 -21 -9 -30 8 -15 28 -28 25 -41 -7z m27 -24 c-3
-24 -15 -51 -28 -63 -24 -23 -31 -24 -61 -11 -22 9 -69 -13 -60 -29 4 -6 0 -5
-9 1 -8 7 -18 10 -21 6 -9 -8 -9 10 -1 31 3 9 10 13 15 10 5 -3 12 2 15 10 8
20 34 21 34 1 0 -16 21 -16 32 0 5 6 12 5 20 -3 17 -17 29 -15 21 4 -4 10 2
17 17 21 14 4 18 8 10 13 -14 9 -4 50 12 50 6 0 8 -16 4 -41z m-296 6 c0 -14
-4 -25 -10 -25 -5 0 -10 11 -10 25 0 14 5 25 10 25 6 0 10 -11 10 -25z m370 6
c0 -6 -5 -13 -10 -16 -6 -4 -8 -11 -5 -16 3 -5 -1 -6 -9 -3 -16 6 -21 26 -9
37 10 10 33 8 33 -2z m-430 -26 c0 -14 -4 -25 -10 -25 -5 0 -10 11 -10 25 0
14 5 25 10 25 6 0 10 -11 10 -25z m380 10 c0 -3 -2 -5 -5 -5 -3 0 -5 2 -5 5 0
3 2 5 5 5 3 0 5 -2 5 -5z m-353 -12 c-4 -3 -10 -3 -14 0 -3 4 0 7 7 7 7 0 10
-3 7 -7z m63 -33 c0 -5 -7 -10 -15 -10 -8 0 -15 5 -15 10 0 6 7 10 15 10 8 0
15 -4 15 -10z m285 0 c3 -5 4 -10 1 -10 -3 0 -8 5 -11 10 -3 6 -4 10 -1 10 3
0 8 -4 11 -10z m-355 -21 c0 -14 -17 -10 -23 5 -4 10 -1 13 9 9 7 -3 14 -9 14
-14z m130 -3 c0 -8 -7 -21 -15 -29 -8 -8 -11 -17 -8 -21 4 -3 -1 -6 -9 -6 -14
0 -14 4 0 35 17 36 32 46 32 21z m90 -21 c-7 -9 -15 -13 -17 -11 -7 7 7 26 19
26 6 0 6 -6 -2 -15z m144 -1 c11 -28 6 -39 -9 -20 -8 11 -15 23 -15 28 0 14
18 9 24 -8z m-374 2 c0 -3 -4 -8 -10 -11 -5 -3 -10 -1 -10 4 0 6 5 11 10 11 6
0 10 -2 10 -4z m410 0 c0 -3 -4 -8 -10 -11 -5 -3 -10 -1 -10 4 0 6 5 11 10 11
6 0 10 -2 10 -4z m-225 -26 c8 -13 48 -13 62 1 6 6 16 8 23 4 8 -5 6 -13 -6
-26 -21 -23 -28 -53 -11 -42 8 4 7 1 -1 -9 -7 -8 -10 -22 -7 -30 8 -20 -25
-33 -37 -16 -4 7 -6 18 -4 24 3 7 -3 10 -15 7 -10 -3 -19 -10 -19 -15 0 -5 -5
-6 -10 -3 -6 4 -8 10 -6 14 3 4 -1 8 -8 8 -15 0 -10 -26 5 -28 5 -1 13 -2 18
-3 5 0 13 -5 18 -10 5 -5 3 -6 -4 -2 -7 4 -13 3 -13 -3 0 -5 6 -12 13 -15 6
-3 -3 -4 -21 -3 -23 3 -31 0 -28 -9 3 -7 -2 -11 -12 -10 -9 2 -17 8 -17 14 0
6 -8 21 -18 33 -10 12 -16 28 -12 37 5 14 7 14 15 2 8 -12 10 -9 10 10 0 14 4
31 9 39 7 11 11 10 20 -5 10 -18 10 -18 11 -1 0 18 19 46 32 47 4 0 10 -4 13
-10z m-180 -21 c-3 -5 1 -6 9 -3 18 7 22 -11 5 -22 -6 -3 -15 0 -20 7 -12 19
-11 42 1 34 6 -4 8 -11 5 -16z m62 -5 c-9 -9 -28 6 -21 18 4 6 10 6 17 -1 6
-6 8 -13 4 -17z m323 2 c0 -3 -4 -8 -10 -11 -5 -3 -10 -1 -10 4 0 6 5 11 10
11 6 0 10 -2 10 -4z m-120 -10 c0 -3 -5 -8 -12 -12 -7 -4 -8 -3 -4 4 7 12 16
16 16 8z m30 -26 c0 -5 -4 -10 -10 -10 -5 0 -10 5 -10 10 0 6 5 10 10 10 6 0
10 -4 10 -10z m60 -12 c0 -6 -3 -8 -7 -5 -3 4 -13 1 -21 -6 -13 -11 -14 -9 -2
10 14 22 30 22 30 1z m20 -22 c0 -2 -7 -6 -15 -10 -8 -3 -15 -1 -15 4 0 6 7
10 15 10 8 0 15 -2 15 -4z m-75 -36 c0 -10 -12 -16 -37 -18 -25 -2 -38 1 -38
9 0 7 3 10 6 6 4 -3 13 1 21 9 19 18 48 14 48 -6z m-227 -12 c-3 -7 -13 -15
-24 -17 -16 -3 -17 -1 -5 13 16 19 34 21 29 4z m122 -28 c0 -5 -4 -10 -10 -10
-5 0 -10 5 -10 10 0 6 5 10 10 10 6 0 10 -4 10 -10z m-110 -5 c0 -3 -2 -5 -5
-5 -3 0 -5 2 -5 5 0 3 2 5 5 5 3 0 5 -2 5 -5z m286 -7 c9 -15 -27 -41 -40 -28
-6 6 -5 15 4 25 15 18 26 19 36 3z m-322 -6 c2 -4 -4 -9 -15 -9 -10 -1 -19 2
-19 8 0 11 27 12 34 1z m214 -9 c-10 -2 -26 -2 -35 0 -10 3 -2 5 17 5 19 0 27
-2 18 -5z m110 -40 c-5 -25 -28 -28 -28 -4 0 12 6 21 16 21 9 0 14 -7 12 -17z
m-354 -5 c-7 -12 -44 -10 -44 2 0 5 11 9 24 8 14 -1 22 -6 20 -10z m96 -18 c0
-5 -4 -10 -10 -10 -5 0 -10 5 -10 10 0 6 5 10 10 10 6 0 10 -4 10 -10z m200
-15 c0 -8 -7 -15 -15 -15 -8 0 -15 7 -15 15 0 8 7 15 15 15 8 0 15 -7 15 -15z
m85 -15 c3 -5 -1 -10 -9 -10 -9 0 -16 5 -16 10 0 6 4 10 9 10 6 0 13 -4 16
-10z"/>
<path d="M270 395 c0 -3 2 -5 5 -5 3 0 5 2 5 5 0 3 -2 5 -5 5 -3 0 -5 -2 -5
-5z"/>
<path d="M350 395 c0 -3 2 -5 5 -5 3 0 5 2 5 5 0 3 -2 5 -5 5 -3 0 -5 -2 -5
-5z"/>
<path d="M370 395 c0 -3 2 -5 5 -5 3 0 5 2 5 5 0 3 -2 5 -5 5 -3 0 -5 -2 -5
-5z"/>
<path d="M230 290 c0 -7 3 -10 7 -7 3 4 3 10 0 14 -4 3 -7 0 -7 -7z"/>
<path d="M190 195 c0 -3 2 -5 5 -5 3 0 5 2 5 5 0 3 -2 5 -5 5 -3 0 -5 -2 -5
-5z"/>
</g>
</svg>
