<?xml version="1.0" standalone="no"?>
<!DOCTYPE svg PUBLIC "-//W3C//DTD SVG 20010904//EN"
 "http://www.w3.org/TR/2001/REC-SVG-20010904/DTD/svg10.dtd">
<svg version="1.0" xmlns="http://www.w3.org/2000/svg"
 width="56.000000pt" height="56.000000pt" viewBox="0 0 56.000000 56.000000"
 preserveAspectRatio="xMidYMid meet">
<metadata>
Created by potrace 1.16, written by Peter Selinger 2001-2019
</metadata>
<g transform="translate(0.000000,56.000000) scale(0.100000,-0.100000)"
fill="#000000" stroke="none">
<path d="M194 467 c-23 -13 -104 -84 -104 -91 0 -3 8 -7 17 -9 17 -4 17 -5 1
-6 -21 -1 -24 -17 -5 -25 6 -3 1 -4 -13 -3 -21 2 -25 7 -25 32 0 23 6 31 25
36 21 6 22 7 4 8 -29 1 -44 -18 -44 -59 0 -24 7 -43 20 -55 14 -13 17 -22 10
-29 -17 -17 -11 -53 16 -85 21 -25 23 -34 14 -51 -6 -11 -8 -24 -5 -29 3 -5
-9 -14 -25 -20 -17 -5 -30 -17 -30 -26 0 -12 13 -15 75 -14 75 1 90 10 63 37
-17 17 -3 15 33 -4 25 -12 44 -14 98 -7 73 10 95 7 85 -9 -4 -6 -10 -5 -15 3
-7 11 -9 10 -9 -4 0 -16 8 -18 67 -15 74 3 95 21 44 39 -17 6 -28 15 -25 20 3
6 0 16 -6 24 -8 10 -9 19 -3 28 17 23 36 95 30 118 -4 13 1 35 11 51 15 26 15
31 1 56 -10 18 -23 27 -40 27 -15 1 -45 16 -69 35 -38 30 -51 34 -109 36 -37
2 -75 -2 -87 -9z m135 -11 c8 -9 8 -16 2 -20 -11 -7 -61 14 -61 26 0 14 47 9
59 -6z m-113 -12 c-26 -9 -46 -17 -44 -19 2 -3 20 1 40 7 44 13 84 4 98 -22
24 -44 -7 -72 -94 -85 -31 -5 -51 -3 -61 5 -19 16 -19 54 0 70 8 7 13 16 10
20 -9 14 38 40 70 39 26 0 24 -2 -19 -15z m184 -24 c0 -6 -7 -13 -15 -16 -20
-8 -48 3 -40 16 8 13 55 13 55 0z m90 -41 c12 -22 -1 -49 -24 -49 -17 0 -37
58 -22 64 23 9 36 5 46 -15z m-60 -10 c9 -16 8 -25 -6 -40 -9 -10 -24 -19 -33
-19 -14 0 -14 2 -1 10 13 8 12 10 -2 10 -21 0 -24 16 -5 23 7 3 5 6 -5 6 -10
1 -18 5 -18 9 0 29 55 30 70 1z m-60 -53 c5 -14 19 -26 32 -28 l23 -3 -22 -22
c-29 -29 -39 -29 -59 2 -14 21 -15 31 -6 50 14 31 20 31 32 1z m-295 -6 c3 -5
4 -10 1 -10 -3 0 -8 5 -11 10 -3 6 -4 10 -1 10 3 0 8 -4 11 -10z m192 -16 c26
-7 63 -61 63 -92 0 -23 -28 -45 -70 -57 -20 -6 -22 -5 -13 5 6 7 21 17 34 24
12 6 24 18 26 26 3 10 1 9 -7 -2 -9 -14 -25 -18 -75 -18 -35 0 -67 5 -70 10
-3 6 1 10 9 10 10 0 16 9 16 26 0 17 -4 23 -12 18 -8 -5 -8 -1 2 12 32 43 51
50 97 38z m-127 -41 c3 -3 -4 -11 -15 -19 -16 -12 -21 -12 -33 0 -19 19 -6 38
21 30 12 -3 24 -9 27 -11z m30 -28 c0 -3 -2 -5 -5 -5 -3 0 -5 2 -5 5 0 3 2 5
5 5 3 0 5 -2 5 -5z m-11 -104 c9 -16 6 -20 -14 -24 -29 -5 -38 4 -29 27 8 22
31 20 43 -3z m296 -11 c0 -8 -12 -17 -27 -21 -32 -8 -35 -3 -11 23 18 20 38
19 38 -2z m-310 -39 c-3 -6 -11 -9 -16 -6 -5 4 -9 2 -9 -3 0 -5 -7 -9 -15 -9
-27 0 -16 26 13 29 32 4 36 3 27 -11z m335 0 c0 -5 -11 -8 -25 -7 -38 4 -43
16 -7 16 18 0 32 -4 32 -9z m-400 -11 c0 -5 -2 -10 -4 -10 -3 0 -8 5 -11 10
-3 6 -1 10 4 10 6 0 11 -4 11 -10z m97 3 c-4 -3 -10 -3 -14 0 -3 4 0 7 7 7 7
0 10 -3 7 -7z m330 0 c-4 -3 -10 -3 -14 0 -3 4 0 7 7 7 7 0 10 -3 7 -7z"/>
<path d="M230 245 c-18 -22 -8 -50 19 -50 28 0 47 25 38 49 -8 20 -40 21 -57
1z m50 -10 c0 -8 -4 -15 -9 -15 -13 0 -22 16 -14 24 11 11 23 6 23 -9z m-35
-25 c3 -5 1 -10 -4 -10 -6 0 -11 5 -11 10 0 6 2 10 4 10 3 0 8 -4 11 -10z"/>
</g>
</svg>
