<?xml version="1.0" standalone="no"?>
<!DOCTYPE svg PUBLIC "-//W3C//DTD SVG 20010904//EN"
 "http://www.w3.org/TR/2001/REC-SVG-20010904/DTD/svg10.dtd">
<svg version="1.0" xmlns="http://www.w3.org/2000/svg"
 width="56.000000pt" height="56.000000pt" viewBox="0 0 56.000000 56.000000"
 preserveAspectRatio="xMidYMid meet">
<metadata>
Created by potrace 1.16, written by Peter Selinger 2001-2019
</metadata>
<g transform="translate(0.000000,56.000000) scale(0.100000,-0.100000)"
fill="#000000" stroke="none">
<path d="M412 468 c-51 -23 -77 -71 -66 -122 l6 -31 -26 28 c-14 15 -26 34
-26 41 0 16 -34 48 -47 44 -6 -2 -19 8 -30 21 -30 36 -106 38 -133 3 -21 -26
-26 -67 -11 -90 4 -7 3 -31 -2 -52 -14 -51 3 -73 50 -67 39 6 42 -5 8 -27 -31
-20 -32 -40 -2 -61 l22 -16 -22 -40 c-44 -80 1 -78 112 5 20 15 20 15 -4 16
l-23 0 23 20 c21 17 22 19 5 20 -15 0 -16 3 -6 15 19 23 54 18 84 -13 24 -26
25 -30 11 -42 -9 -7 -14 -19 -11 -27 3 -8 1 -11 -4 -8 -6 3 -10 -3 -10 -14 0
-12 4 -21 9 -21 21 0 41 13 41 27 0 8 5 11 12 7 15 -10 37 23 31 46 -6 22 11
27 23 8 12 -18 22 -88 13 -82 -5 3 -9 0 -9 -6 0 -21 55 -7 58 15 2 11 6 27 9
35 18 44 12 80 -10 61 -11 -8 -17 -3 -30 25 -23 47 -22 56 13 76 35 20 40 52
11 70 -16 10 -18 15 -8 26 9 11 6 19 -14 36 -26 22 -26 23 -8 45 19 23 25 52
12 50 -5 0 -27 -10 -51 -21z m31 -27 l-22 -28 27 -20 c23 -17 25 -22 14 -36
-11 -13 -10 -17 7 -27 27 -14 27 -46 1 -60 -17 -9 -22 -7 -30 17 -6 15 -16 39
-22 51 l-12 24 -9 -26 c-11 -34 -22 -33 -37 3 -20 48 2 97 53 119 23 11 44 17
46 15 3 -2 -5 -16 -16 -32z m-324 7 l-12 -21 28 21 c36 29 51 28 81 -5 14 -15
33 -28 41 -28 9 0 21 -8 27 -18 9 -14 7 -21 -7 -32 -21 -15 -6 -31 20 -21 10
4 21 -1 30 -14 8 -11 19 -17 25 -14 7 5 8 2 4 -5 -6 -9 -21 -10 -50 -6 -58 10
-73 20 -96 66 -23 44 -29 43 -61 -4 -22 -30 -22 -31 -2 -14 20 18 22 17 56
-12 35 -32 101 -50 166 -47 39 1 49 -12 72 -92 19 -66 2 -70 -59 -14 -30 28
-50 41 -46 30 5 -15 -1 -18 -36 -18 -30 0 -39 3 -34 13 3 6 -5 -1 -20 -18 -28
-33 -32 -45 -14 -45 6 0 3 -7 -8 -15 -23 -17 -38 -19 -28 -3 5 8 0 9 -14 6
-20 -5 -21 -3 -14 20 4 15 6 47 5 71 -1 25 3 52 10 60 7 9 -3 3 -22 -12 -58
-48 -101 -17 -67 48 15 29 10 78 -5 53 -6 -9 -9 -3 -9 17 0 32 24 75 41 75 6
0 5 -9 -2 -22z m64 -63 c-3 -9 -8 -14 -10 -11 -3 3 -2 9 2 15 9 16 15 13 8 -4z
m-83 -30 c0 -3 -2 -5 -5 -5 -3 0 -5 2 -5 5 0 3 2 5 5 5 3 0 5 -2 5 -5z m197
-2 c-4 -3 -10 -3 -14 0 -3 4 0 7 7 7 7 0 10 -3 7 -7z m-143 -164 c-20 -22 -34
-25 -34 -5 0 17 44 48 49 34 1 -5 -5 -18 -15 -29z m206 -35 c11 -12 10 -18 -6
-32 -10 -9 -13 -11 -7 -3 10 12 9 18 -4 33 -9 10 -11 18 -6 18 6 0 16 -7 23
-16z m-230 -89 c0 -3 -2 -5 -5 -5 -3 0 -5 2 -5 5 0 3 2 5 5 5 3 0 5 -2 5 -5z"/>
<path d="M100 415 c0 -3 2 -5 5 -5 3 0 5 2 5 5 0 3 -2 5 -5 5 -3 0 -5 -2 -5
-5z"/>
<path d="M143 325 c-3 -9 -3 -18 0 -21 9 -9 27 6 27 22 0 19 -19 18 -27 -1z
m17 0 c0 -3 -2 -5 -5 -5 -3 0 -5 2 -5 5 0 3 2 5 5 5 3 0 5 -2 5 -5z"/>
<path d="M114 268 c-4 -7 -3 -8 4 -4 12 7 16 16 8 16 -3 0 -8 -5 -12 -12z"/>
</g>
</svg>
