<?xml version="1.0" standalone="no"?>
<!DOCTYPE svg PUBLIC "-//W3C//DTD SVG 20010904//EN"
 "http://www.w3.org/TR/2001/REC-SVG-20010904/DTD/svg10.dtd">
<svg version="1.0" xmlns="http://www.w3.org/2000/svg"
 width="56.000000pt" height="56.000000pt" viewBox="0 0 56.000000 56.000000"
 preserveAspectRatio="xMidYMid meet">
<metadata>
Created by potrace 1.16, written by Peter Selinger 2001-2019
</metadata>
<g transform="translate(0.000000,56.000000) scale(0.100000,-0.100000)"
fill="#000000" stroke="none">
<path d="M170 535 c7 -9 15 -13 17 -11 7 7 -7 26 -19 26 -6 0 -6 -6 2 -15z"/>
<path d="M270 530 c-14 -11 -33 -17 -42 -14 -23 7 -23 -4 -1 -28 17 -19 16
-20 -5 -37 -22 -16 -21 -31 2 -31 6 0 4 5 -4 10 -13 8 -12 10 5 11 43 3 48 4
52 17 3 6 0 12 -7 12 -6 0 -8 -5 -4 -12 5 -7 3 -8 -5 -4 -7 5 -10 10 -7 14 3
3 -2 10 -11 17 -14 11 -14 12 1 18 9 4 14 3 11 -2 -7 -12 12 -24 25 -16 8 5 7
11 -1 21 -9 12 -6 12 20 3 52 -18 172 -149 171 -188 -1 -9 -12 -29 -25 -46
-24 -29 -24 -29 -46 -10 -12 11 -19 15 -16 8 4 -6 12 -35 17 -65 12 -63 39
-128 54 -128 6 0 6 -4 -2 -12 -9 -9 -17 -6 -37 12 -14 13 -23 25 -20 28 2 2
-6 19 -19 36 -13 17 -33 49 -45 71 -12 22 -21 32 -21 22 0 -19 -30 -23 -61 -7
-40 22 -124 -61 -155 -154 -9 -25 -22 -46 -30 -46 -17 0 -18 23 -4 51 12 22
-4 64 -21 54 -5 -4 -9 -2 -9 3 0 18 14 22 30 7 15 -14 18 -12 28 22 6 21 14
55 17 76 5 32 12 41 40 53 19 8 55 14 79 14 25 0 56 5 70 11 19 9 29 9 39 1
10 -9 15 1 23 52 10 70 8 72 -46 38 -39 -25 -55 -28 -44 -9 5 8 3 8 -9 -2 -9
-7 -26 -11 -37 -8 -11 3 -18 1 -14 -4 3 -5 20 -9 39 -9 l34 0 -17 -30 c-14
-24 -24 -30 -51 -30 -33 0 -34 1 -15 15 10 8 14 15 9 15 -6 0 -10 27 -9 66 2
58 -1 70 -21 90 -33 33 -73 41 -93 18 -16 -17 -16 -17 1 -5 15 12 20 11 37 -4
24 -22 25 -38 5 -55 -12 -10 -16 -9 -20 2 -4 11 -19 2 -56 -34 -46 -45 -49
-51 -43 -84 3 -19 7 -47 8 -62 2 -33 13 -53 29 -51 41 7 59 -31 33 -67 -14
-18 -15 -18 -22 -1 -6 17 -7 17 -21 -2 -12 -18 -12 -25 0 -48 8 -17 12 -46 9
-70 -4 -43 -4 -43 28 -43 26 0 31 3 26 17 -15 39 47 153 84 153 14 0 21 -63 9
-74 -9 -8 -10 -8 -5 2 4 6 2 12 -3 12 -17 0 -13 -18 8 -39 11 -11 21 -30 23
-43 2 -18 10 -24 34 -26 l31 -3 -13 53 c-18 67 -17 82 1 118 23 45 54 40 93
-15 30 -43 31 -44 10 -51 -20 -6 -19 -8 14 -25 23 -12 40 -30 47 -49 9 -26 15
-31 38 -28 39 4 41 32 5 72 -34 39 -67 118 -59 141 4 8 14 15 24 15 13 0 14
-3 5 -12 -19 -19 -14 -35 17 -48 36 -15 71 -10 84 12 8 12 4 26 -17 58 l-28
42 22 23 c16 17 20 29 14 47 -10 33 -51 95 -66 101 -7 3 -2 6 12 7 l25 1 -24
20 c-14 11 -31 17 -42 14 -11 -4 -34 6 -60 25 -49 35 -74 37 -109 10z m109
-21 c24 -17 49 -28 57 -25 8 3 21 3 29 0 14 -6 13 -8 -2 -19 -15 -12 -15 -13
3 -23 29 -15 69 -101 57 -120 -5 -9 -14 -17 -19 -19 -11 -3 -67 113 -68 142
-1 14 -7 19 -21 18 -11 -1 -23 3 -26 9 -4 6 -30 21 -58 33 -28 12 -48 24 -45
28 15 15 53 5 93 -24z m-194 -29 c7 -21 -28 -90 -46 -90 -5 0 -18 -15 -29 -32
-11 -18 -20 -26 -20 -18 0 9 7 26 16 38 21 30 0 28 -31 -3 -31 -30 -32 -67 -4
-111 18 -30 15 -47 -5 -27 -4 4 -15 8 -23 8 -9 0 -18 6 -21 14 -3 9 0 11 8 6
9 -5 10 -3 2 11 -5 11 -12 38 -16 62 -6 41 -4 44 36 82 23 21 45 34 49 29 8
-14 32 -2 48 23 12 19 11 23 -10 40 l-24 19 32 -15 c17 -9 34 -25 38 -36z m45
25 c0 -3 -2 -5 -5 -5 -3 0 -5 2 -5 5 0 3 2 5 5 5 3 0 5 -2 5 -5z m67 -122 c-4
-3 -10 -3 -14 0 -3 4 0 7 7 7 7 0 10 -3 7 -7z m12 -26 c8 -11 5 -17 -15 -26
-32 -14 -39 -9 -24 18 12 24 23 26 39 8z m-199 -42 c0 -3 -2 -5 -5 -5 -3 0 -5
2 -5 5 0 3 2 5 5 5 3 0 5 -2 5 -5z m426 -109 c6 -19 -10 -36 -36 -36 -12 1
-12 3 2 14 16 12 16 14 -7 26 -28 15 -31 30 -13 48 10 10 16 8 30 -10 10 -13
20 -31 24 -42z m-289 -130 c4 -24 2 -36 -6 -36 -14 0 -26 31 -35 90 l-7 45 21
-32 c12 -17 24 -48 27 -67z m-189 19 c-3 -3 -9 2 -12 12 -6 14 -5 15 5 6 7 -7
10 -15 7 -18z m322 0 c0 -3 -2 -5 -5 -5 -3 0 -5 2 -5 5 0 3 2 5 5 5 3 0 5 -2
5 -5z"/>
<path d="M41 469 c-7 -12 -10 -23 -8 -26 3 -3 11 5 17 17 15 28 8 35 -9 9z"/>
</g>
</svg>
