<?xml version="1.0" standalone="no"?>
<!DOCTYPE svg PUBLIC "-//W3C//DTD SVG 20010904//EN"
 "http://www.w3.org/TR/2001/REC-SVG-20010904/DTD/svg10.dtd">
<svg version="1.0" xmlns="http://www.w3.org/2000/svg"
 width="56.000000pt" height="56.000000pt" viewBox="0 0 56.000000 56.000000"
 preserveAspectRatio="xMidYMid meet">
<metadata>
Created by potrace 1.16, written by Peter Selinger 2001-2019
</metadata>
<g transform="translate(0.000000,56.000000) scale(0.100000,-0.100000)"
fill="#000000" stroke="none">
<path d="M125 429 c-11 -32 28 -63 70 -55 80 16 113 18 119 7 4 -6 0 -11 -10
-11 -42 0 -157 -46 -172 -68 -14 -21 -14 -26 1 -52 17 -28 17 -28 -19 -55 -42
-32 -44 -69 -4 -71 14 -1 44 -11 68 -24 48 -25 106 -22 151 7 17 11 39 14 77
11 40 -3 55 -1 59 10 11 29 4 52 -19 68 -29 18 -24 48 6 41 21 -6 34 14 24 39
-5 13 -9 14 -21 4 -13 -11 -21 -8 -46 16 l-30 28 16 -32 c9 -17 14 -36 10 -42
-11 -18 -21 -11 -20 16 0 35 -28 53 -55 36 -49 -30 -94 4 -51 40 32 25 52 23
122 -13 34 -17 63 -28 66 -26 2 3 -4 8 -15 11 -14 5 -18 13 -15 26 9 35 -7 70
-40 90 -38 24 -85 25 -152 5 -50 -16 -94 -13 -106 7 -4 6 -10 0 -14 -13z m270
-9 c14 -12 14 -15 0 -30 -9 -10 -24 -17 -33 -16 -21 4 -13 21 9 20 9 -1 16 5
16 12 0 9 -4 10 -11 5 -6 -5 -34 -7 -62 -5 -34 3 -62 -1 -80 -11 -16 -8 -37
-15 -47 -15 -26 0 -57 18 -57 34 0 11 7 12 33 4 25 -8 45 -6 83 5 55 18 126
16 149 -3z m-185 -95 c-7 -8 -19 -15 -26 -15 -8 0 -23 -9 -34 -20 -21 -21 -26
-16 -10 10 5 8 24 20 42 27 43 15 42 15 28 -2z m-6 -34 c3 -5 -1 -11 -9 -15
-9 -3 -15 0 -15 9 0 16 16 20 24 6z m173 -7 c8 -22 -13 -42 -29 -26 -9 9 -9
12 2 12 7 0 10 3 7 6 -4 4 -13 1 -22 -6 -12 -10 -15 -10 -15 2 0 8 3 18 7 21
12 13 44 7 50 -9z m-96 -18 c-10 -12 -9 -14 7 -10 22 6 47 -20 38 -41 -7 -20
-22 -19 -43 3 -14 13 -29 16 -71 12 -42 -5 -52 -3 -50 9 3 17 60 39 102 40 23
1 26 -1 17 -13z m186 -18 c-3 -8 -6 -5 -6 6 -1 11 2 17 5 13 3 -3 4 -12 1 -19z
m-126 -51 c-7 -7 -7 -14 1 -24 19 -23 -5 -58 -50 -71 -52 -16 -67 -15 -103 4
-31 15 -34 35 -8 42 12 3 12 2 0 -6 -11 -8 -10 -12 7 -21 28 -15 85 -14 103 2
46 38 42 42 -54 43 -77 1 -93 4 -95 18 -8 37 68 42 165 11 16 -5 23 -2 29 17
4 14 9 18 12 10 2 -8 -1 -19 -7 -25z m94 -9 c32 -14 31 -20 -2 -35 -22 -11
-31 -10 -51 3 -19 12 -21 18 -11 30 14 17 30 18 64 2z m-305 -8 c0 -5 -5 -10
-11 -10 -5 0 -7 5 -4 10 3 6 8 10 11 10 2 0 4 -4 4 -10z m-20 -42 c0 -5 -4 -8
-10 -8 -5 0 -10 10 -10 23 0 18 2 19 10 7 5 -8 10 -18 10 -22z m177 5 c-4 -3
-10 -3 -14 0 -3 4 0 7 7 7 7 0 10 -3 7 -7z m173 -2 c0 -6 -4 -13 -10 -16 -5
-3 -10 1 -10 9 0 9 5 16 10 16 6 0 10 -4 10 -9z"/>
<path d="M390 405 c0 -3 2 -5 5 -5 3 0 5 2 5 5 0 3 -2 5 -5 5 -3 0 -5 -2 -5
-5z"/>
<path d="M350 385 c0 -3 2 -5 5 -5 3 0 5 2 5 5 0 3 -2 5 -5 5 -3 0 -5 -2 -5
-5z"/>
<path d="M370 385 c0 -3 2 -5 5 -5 3 0 5 2 5 5 0 3 -2 5 -5 5 -3 0 -5 -2 -5
-5z"/>
<path d="M170 245 c0 -3 2 -5 5 -5 3 0 5 2 5 5 0 3 -2 5 -5 5 -3 0 -5 -2 -5
-5z"/>
<path d="M300 235 c0 -3 2 -5 5 -5 3 0 5 2 5 5 0 3 -2 5 -5 5 -3 0 -5 -2 -5
-5z"/>
<path d="M170 185 c0 -3 2 -5 5 -5 3 0 5 2 5 5 0 3 -2 5 -5 5 -3 0 -5 -2 -5
-5z"/>
<path d="M220 185 c0 -3 2 -5 5 -5 3 0 5 2 5 5 0 3 -2 5 -5 5 -3 0 -5 -2 -5
-5z"/>
</g>
</svg>
