<?xml version="1.0" standalone="no"?>
<!DOCTYPE svg PUBLIC "-//W3C//DTD SVG 20010904//EN"
 "http://www.w3.org/TR/2001/REC-SVG-20010904/DTD/svg10.dtd">
<svg version="1.0" xmlns="http://www.w3.org/2000/svg"
 width="56.000000pt" height="56.000000pt" viewBox="0 0 56.000000 56.000000"
 preserveAspectRatio="xMidYMid meet">
<metadata>
Created by potrace 1.16, written by Peter Selinger 2001-2019
</metadata>
<g transform="translate(0.000000,56.000000) scale(0.100000,-0.100000)"
fill="#000000" stroke="none">
<path d="M280 545 c-6 -8 -9 -23 -5 -34 4 -14 -2 -25 -22 -39 l-29 -20 -2 21
c-1 12 -2 30 -3 40 0 9 -8 17 -18 17 -9 0 -22 5 -27 10 -7 7 -19 6 -37 -2 -31
-15 -33 -21 -13 -37 8 -7 12 -21 9 -32 -5 -19 -7 -19 -30 -4 -32 22 -40 12
-24 -28 7 -18 13 -39 12 -47 -2 -19 -9 -83 -10 -90 -1 -3 -10 6 -21 20 -18 23
-19 24 -26 6 -4 -11 -2 -39 4 -62 11 -40 10 -46 -13 -80 -50 -73 -18 -151 69
-173 101 -25 255 -5 270 36 5 11 12 8 32 -16 29 -35 46 -37 89 -12 65 38 97
137 60 187 -9 12 -12 32 -8 56 4 30 1 41 -19 61 -24 24 -25 25 -6 48 12 16 18
38 16 64 -1 22 2 48 7 59 17 39 -5 51 -104 52 -50 1 -95 4 -98 8 -11 11 -40 6
-53 -9z m50 1 c0 -11 -19 -15 -25 -6 -3 5 1 10 9 10 9 0 16 -2 16 -4z m-127
-42 c-2 -7 0 -15 6 -19 6 -3 11 -11 11 -17 0 -6 -3 -8 -7 -5 -3 4 -15 -1 -25
-10 -17 -15 -20 -15 -28 -3 -11 16 -13 73 -5 82 10 10 53 -16 48 -28z m243 26
c8 -8 19 -7 38 1 31 14 53 1 42 -26 -7 -19 -27 -16 -34 5 -3 9 1 11 14 6 15
-6 17 -5 6 5 -10 11 -15 10 -27 -2 -14 -13 -14 -18 0 -46 17 -35 12 -75 -13
-95 -13 -11 -15 -10 -10 14 3 15 2 25 -3 23 -4 -3 -14 -2 -23 1 -15 6 -15 7 0
18 26 20 14 60 -19 64 -18 2 -29 -2 -33 -12 -7 -17 -41 -21 -63 -7 -10 6 -6
11 15 19 21 7 24 11 10 11 -27 1 -14 12 26 21 48 11 63 11 74 0z m-309 -17
c-4 -3 -10 -3 -14 0 -3 4 0 7 7 7 7 0 10 -3 7 -7z m301 -46 c4 -20 -25 -34
-40 -19 -15 15 -1 44 19 40 10 -2 19 -11 21 -21z m-278 -37 c9 -4 21 1 32 14
l17 21 1 -27 c0 -15 -7 -31 -17 -37 -10 -6 -13 -11 -6 -11 6 0 20 12 30 26 16
22 21 24 31 11 17 -20 -7 -44 -54 -53 -28 -5 -38 -2 -49 12 -13 18 -14 17 -25
-8 -7 -15 -10 -34 -7 -43 9 -22 36 -30 50 -15 9 10 9 11 -2 5 -16 -9 -31 11
-31 45 0 25 0 25 20 -5 11 -16 20 -24 20 -17 0 6 6 12 13 12 7 0 30 9 51 20
43 21 64 17 44 -8 -8 -12 -5 -11 10 2 l23 20 -3 -37 c-2 -34 -6 -38 -47 -52
-34 -11 -47 -12 -58 -3 -11 9 -16 9 -22 -1 -11 -17 -58 -4 -76 22 -10 15 -11
25 -4 39 6 11 12 34 14 51 2 18 1 26 -2 19 -6 -16 -33 3 -33 24 0 10 7 10 33
-3 17 -9 39 -19 47 -23z m219 4 c36 -21 68 -38 69 -40 6 -5 -29 -73 -45 -85
-12 -10 -16 -10 -24 2 -8 10 -9 8 -4 -8 4 -15 -1 -29 -14 -42 -13 -13 -16 -21
-8 -24 14 -4 -100 -33 -169 -42 -76 -11 -135 25 -117 72 4 10 2 14 -4 10 -6
-4 -13 3 -17 16 -10 36 -7 40 11 18 13 -15 34 -23 71 -28 28 -3 53 -11 54 -17
0 -6 1 -18 2 -26 1 -20 27 -24 51 -6 16 12 17 16 6 30 -11 13 -10 17 10 25 13
4 39 12 58 16 29 6 33 5 28 -9 -4 -9 -2 -16 3 -16 6 0 10 2 10 4 0 2 3 12 7
22 4 11 3 15 -5 10 -6 -3 -14 -1 -17 5 -5 6 0 10 11 8 28 -3 51 9 70 39 12 18
13 23 3 15 -11 -9 -18 -8 -33 3 -10 7 -42 21 -70 30 -64 21 -82 34 -64 45 25
17 62 9 127 -27z m-99 -19 c0 -3 -2 -5 -5 -5 -3 0 -5 2 -5 5 0 3 2 5 5 5 3 0
5 -2 5 -5z m70 -19 c0 -3 -4 -8 -10 -11 -5 -3 -10 -1 -10 4 0 6 5 11 10 11 6
0 10 -2 10 -4z m155 -90 c26 -39 4 -71 -63 -90 -59 -16 -68 -14 -74 19 -2 13
2 19 11 17 20 -4 63 28 58 43 -3 7 0 18 6 24 18 18 45 13 62 -13z m-269 -63
c-8 -9 -46 32 -46 50 0 7 12 -1 27 -15 15 -15 23 -31 19 -35z m133 -60 c13
-36 13 -37 -21 -69 -45 -40 -133 -52 -218 -29 -58 15 -80 35 -80 70 0 34 17
44 57 33 38 -10 102 -4 180 17 68 19 68 19 82 -22z m136 -3 c3 -5 -1 -10 -9
-10 -11 0 -8 -7 9 -25 14 -13 25 -32 24 -42 0 -14 -2 -13 -9 5 -12 29 -18 28
-13 -2 4 -17 -2 -28 -18 -40 -25 -17 -59 -22 -59 -7 0 5 -13 23 -29 40 -32 34
-32 34 39 68 53 25 57 26 65 13z m-413 -115 c12 0 22 -4 21 -10 -1 -5 10 -10
23 -10 30 0 30 3 2 16 -22 9 -22 9 2 4 14 -2 38 -5 53 -5 20 0 26 -4 21 -13
-6 -8 -3 -8 9 1 9 8 25 11 38 7 36 -12 7 -26 -67 -32 -59 -5 -76 -2 -112 16
-45 23 -67 53 -57 79 5 14 10 10 25 -18 13 -25 25 -35 42 -35z m298 25 c0 -23
-10 -26 -28 -8 -18 18 -15 28 8 28 13 0 20 -7 20 -20z m-305 -10 c3 -5 1 -10
-4 -10 -6 0 -11 5 -11 10 0 6 2 10 4 10 3 0 8 -4 11 -10z m225 -14 c0 -11 -19
-15 -25 -6 -3 5 1 10 9 10 9 0 16 -2 16 -4z m50 -11 c0 -5 -56 -35 -66 -35
-12 0 41 39 54 40 6 0 12 -2 12 -5z m60 -11 c0 -9 -5 -14 -12 -12 -18 6 -21
28 -4 28 9 0 16 -7 16 -16z m-140 -29 c0 -3 -2 -5 -5 -5 -3 0 -5 2 -5 5 0 3 2
5 5 5 3 0 5 -2 5 -5z"/>
<path d="M410 465 c0 -3 2 -5 5 -5 3 0 5 2 5 5 0 3 -2 5 -5 5 -3 0 -5 -2 -5
-5z"/>
<path d="M273 343 c4 -3 10 -3 14 0 3 4 0 7 -7 7 -7 0 -10 -3 -7 -7z"/>
<path d="M300 439 c0 -5 5 -7 10 -4 6 3 10 8 10 11 0 2 -4 4 -10 4 -5 0 -10
-5 -10 -11z"/>
<path d="M370 245 c0 -3 2 -5 5 -5 3 0 5 2 5 5 0 3 -2 5 -5 5 -3 0 -5 -2 -5
-5z"/>
<path d="M334 181 c-8 -7 -100 -41 -111 -41 -3 0 -1 10 2 23 5 17 4 19 -4 7
-21 -29 -11 -46 34 -62 45 -17 75 -15 75 4 0 7 -5 6 -14 -1 -16 -13 -80 5 -70
21 3 5 12 7 20 4 8 -3 14 -2 14 3 0 13 39 20 47 8 4 -6 10 -1 15 13 9 26 6 34
-8 21z"/>
<path d="M79 164 c-10 -12 -9 -13 3 -9 9 4 22 0 29 -8 8 -7 19 -15 24 -16 18
-5 17 -9 -5 -16 -12 -4 -28 -1 -38 6 -16 12 -16 12 0 -6 15 -16 20 -16 47 -5
35 14 34 20 -13 48 -30 18 -36 19 -47 6z"/>
<path d="M178 155 c5 -11 12 -27 15 -35 5 -13 6 -13 6 1 1 8 -6 24 -15 35 -15
19 -15 19 -6 -1z"/>
<path d="M238 43 c7 -3 16 -2 19 1 4 3 -2 6 -13 5 -11 0 -14 -3 -6 -6z"/>
</g>
</svg>
