<?xml version="1.0" standalone="no"?>
<!DOCTYPE svg PUBLIC "-//W3C//DTD SVG 20010904//EN"
 "http://www.w3.org/TR/2001/REC-SVG-20010904/DTD/svg10.dtd">
<svg version="1.0" xmlns="http://www.w3.org/2000/svg"
 width="56.000000pt" height="56.000000pt" viewBox="0 0 56.000000 56.000000"
 preserveAspectRatio="xMidYMid meet">
<metadata>
Created by potrace 1.16, written by Peter Selinger 2001-2019
</metadata>
<g transform="translate(0.000000,56.000000) scale(0.100000,-0.100000)"
fill="#000000" stroke="none">
<path d="M200 395 c-13 -15 -7 -30 11 -30 23 0 -1 -75 -27 -87 -29 -14 -30
-29 -5 -52 16 -14 23 -15 38 -6 16 10 16 10 -4 5 -25 -7 -32 9 -8 18 17 7 31
-11 27 -34 -3 -18 24 -33 40 -23 5 3 8 15 5 25 -4 15 0 19 19 19 13 0 32 8 42
18 22 22 49 25 49 5 0 -10 -3 -10 -16 0 -12 10 -13 9 -6 -2 6 -10 4 -12 -5 -6
-9 5 -11 4 -6 -3 11 -17 36 -15 43 4 4 10 -1 22 -12 30 -17 12 -16 14 9 25 31
14 33 30 7 53 -15 13 -24 15 -37 8 -13 -7 -24 -6 -40 5 -13 8 -38 13 -56 11
-23 -2 -33 1 -33 11 0 21 -20 24 -35 6z m27 -2 c-4 -3 -1 -13 6 -22 10 -14 10
-14 -4 -4 -9 7 -20 9 -25 5 -4 -4 -2 1 5 11 7 9 16 17 19 17 3 0 2 -3 -1 -7z
m89 -35 c15 -24 12 -70 -7 -89 -26 -26 -55 -24 -75 6 -21 32 -10 63 29 80 40
18 44 18 53 3z m74 -7 c0 -11 -31 -24 -39 -16 -3 3 1 10 9 15 19 12 30 12 30
1z m18 -23 c-3 -7 -13 -15 -24 -17 -16 -3 -17 -1 -5 13 16 19 34 21 29 4z
m-211 -75 c-9 -9 -19 -14 -23 -11 -10 10 6 28 24 28 15 0 15 -1 -1 -17z m63
-28 c0 -3 -2 -5 -5 -5 -3 0 -5 2 -5 5 0 3 2 5 5 5 3 0 5 -2 5 -5z m10 -21 c0
-8 -19 -13 -24 -6 -3 5 1 9 9 9 8 0 15 -2 15 -3z"/>
<path d="M250 316 c-27 -33 18 -72 48 -42 13 13 14 20 6 34 -15 23 -38 26 -54
8z m48 -19 c4 -20 -25 -34 -40 -19 -15 15 -1 44 19 40 10 -2 19 -11 21 -21z"/>
<path d="M260 295 c0 -3 2 -5 5 -5 3 0 5 2 5 5 0 3 -2 5 -5 5 -3 0 -5 -2 -5
-5z"/>
</g>
</svg>
