<?xml version="1.0" standalone="no"?>
<!DOCTYPE svg PUBLIC "-//W3C//DTD SVG 20010904//EN"
 "http://www.w3.org/TR/2001/REC-SVG-20010904/DTD/svg10.dtd">
<svg version="1.0" xmlns="http://www.w3.org/2000/svg"
 width="56.000000pt" height="56.000000pt" viewBox="0 0 56.000000 56.000000"
 preserveAspectRatio="xMidYMid meet">
<metadata>
Created by potrace 1.16, written by Peter Selinger 2001-2019
</metadata>
<g transform="translate(0.000000,56.000000) scale(0.100000,-0.100000)"
fill="#000000" stroke="none">
<path d="M255 506 c-16 -11 -17 -17 -7 -29 11 -13 10 -16 -8 -22 -11 -4 -27
-17 -36 -30 l-15 -23 -39 41 c-37 40 -40 41 -56 25 -17 -17 -17 -19 11 -48 34
-36 29 -49 -9 -19 -21 17 -29 19 -41 9 -24 -20 -17 -36 23 -54 24 -11 38 -24
39 -37 1 -12 -3 -18 -10 -16 -7 3 -11 11 -9 18 1 8 -4 5 -13 -5 -20 -26 -19
-39 5 -61 15 -13 17 -22 9 -36 -5 -10 -9 -34 -8 -51 2 -18 -3 -43 -10 -56 -15
-28 -7 -56 14 -48 8 3 15 1 15 -4 0 -22 30 -8 45 20 9 17 20 30 26 30 5 0 22
12 37 27 33 33 69 39 77 12 7 -21 53 -49 82 -49 10 0 27 -14 38 -30 20 -31 39
-38 50 -20 11 17 -5 32 -21 19 -8 -6 -14 -8 -14 -4 0 4 8 13 17 20 13 9 22 10
35 2 13 -9 21 -8 30 2 11 10 7 18 -19 39 -24 21 -30 33 -26 53 3 15 0 36 -6
47 -12 22 -1 36 28 37 23 0 24 22 1 45 -24 24 -45 22 -45 -6 0 -16 -7 -19 -39
-17 -48 3 -49 4 -35 37 8 17 18 25 28 21 18 -5 121 40 121 53 0 5 -6 15 -14
21 -11 9 -22 7 -50 -10 -44 -26 -49 -8 -9 33 25 27 26 29 10 45 -16 16 -19 15
-54 -19 -38 -35 -38 -35 -65 -19 -22 14 -25 20 -15 30 9 10 8 15 -7 27 -25 18
-37 18 -61 0z m52 -4 c8 -5 -1 -8 -22 -8 -21 0 -30 3 -22 8 6 4 17 8 22 8 6 0
16 -4 22 -8z m149 -23 c8 -14 -11 -33 -25 -25 -11 7 -4 36 9 36 5 0 12 -5 16
-11z m-159 -5 c-3 -3 -12 -4 -19 -1 -8 3 -5 6 6 6 11 1 17 -2 13 -5z m-152
-42 c24 -31 25 -34 5 -16 -14 12 -30 20 -37 17 -14 -5 -26 13 -18 27 10 16 18
11 50 -28z m184 13 c24 -12 30 -22 33 -62 6 -59 -5 -83 -32 -76 -11 3 -20 12
-20 19 0 20 28 17 33 -3 4 -17 5 -17 6 0 1 24 -29 34 -43 15 -11 -14 -17 -14
-64 1 -32 10 -52 22 -52 31 1 25 26 62 51 76 31 17 54 17 88 -1z m87 -24 c-4
-5 -13 -8 -22 -4 -11 4 -12 8 -3 20 14 16 36 2 25 -16z m89 -12 c10 -15 -1
-23 -20 -15 -9 3 -13 10 -10 16 8 13 22 13 30 -1z m-419 -10 c10 -17 -13 -36
-27 -22 -12 12 -4 33 11 33 5 0 12 -5 16 -11z m374 -9 c0 -5 -5 -10 -11 -10
-5 0 -7 5 -4 10 3 6 8 10 11 10 2 0 4 -4 4 -10z m-310 -25 c0 -3 -2 -5 -5 -5
-3 0 -5 2 -5 5 0 3 2 5 5 5 3 0 5 -2 5 -5z m40 -35 c0 -13 14 -27 41 -40 32
-17 38 -24 29 -35 -8 -10 -6 -17 12 -29 12 -9 19 -16 15 -17 -31 -5 -45 0 -68
22 -14 14 -29 28 -35 30 -5 2 -19 18 -30 35 l-22 30 22 11 c31 16 36 15 36 -7z
m40 -5 c0 -8 -7 -15 -15 -15 -8 0 -15 7 -15 15 0 8 7 15 15 15 8 0 15 -7 15
-15z m253 -26 c10 -11 16 -23 13 -27 -7 -6 -46 27 -46 40 0 14 15 9 33 -13z
m-383 -20 c0 -5 -4 -9 -10 -9 -5 0 -10 7 -10 16 0 8 5 12 10 9 6 -3 10 -10 10
-16z m45 -19 c-11 -18 -22 -11 -19 13 4 33 4 33 15 14 5 -9 7 -22 4 -27z m185
35 c0 -3 -2 -5 -5 -5 -3 0 -5 2 -5 5 0 3 2 5 5 5 3 0 5 -2 5 -5z m16 -20 c-4
-12 -2 -13 14 -2 44 27 113 -46 95 -99 -6 -15 -16 -29 -23 -32 -11 -3 -11 -1
0 17 17 27 0 56 -32 56 -50 0 -51 -66 -1 -73 18 -3 20 -6 10 -18 -13 -16 -54
-20 -44 -3 9 14 -24 49 -46 49 -23 0 -32 15 -24 41 5 14 12 18 25 14 20 -6 35
9 25 25 -4 6 -16 3 -31 -6 -13 -9 -27 -14 -31 -11 -3 4 6 11 21 17 15 5 29 17
32 25 4 8 8 15 11 15 3 0 3 -7 -1 -15z m110 -12 c-10 -10 -19 5 -10 18 6 11 8
11 12 0 2 -7 1 -15 -2 -18z m-236 -45 c22 -24 27 -35 19 -45 -15 -17 -32 -5
-26 18 7 25 0 24 -14 -3 -9 -18 -8 -24 6 -34 15 -11 15 -13 -5 -24 -18 -10
-24 -8 -34 6 -7 9 -24 18 -37 19 -33 2 -38 46 -10 74 31 31 67 27 101 -11z
m205 -38 c0 -18 -6 -26 -23 -28 -24 -4 -38 18 -28 44 3 9 15 14 28 12 17 -2
23 -10 23 -28z m-150 11 c3 -5 1 -12 -5 -16 -5 -3 -10 1 -10 9 0 18 6 21 15 7z
m65 -46 c0 -8 -7 -15 -15 -15 -8 0 -15 7 -15 15 0 8 7 15 15 15 8 0 15 -7 15
-15z m130 -15 c0 -5 -9 -10 -21 -10 -11 0 -17 5 -14 10 3 6 13 10 21 10 8 0
14 -4 14 -10z m-350 -4 c0 -3 -4 -8 -10 -11 -5 -3 -10 -1 -10 4 0 6 5 11 10
11 6 0 10 -2 10 -4z m40 -1 c0 -2 -5 -16 -12 -30 -11 -25 -28 -34 -28 -15 0 6
5 10 10 10 6 0 9 3 9 8 -3 18 2 32 11 32 6 0 10 -2 10 -5z m340 -9 c0 -3 -4
-8 -10 -11 -5 -3 -10 -1 -10 4 0 6 5 11 10 11 6 0 10 -2 10 -4z m-400 -26 c0
-5 -4 -10 -10 -10 -5 0 -10 5 -10 10 0 6 5 10 10 10 6 0 10 -4 10 -10z"/>
<path d="M250 415 c-26 -32 13 -81 48 -59 22 14 27 41 12 59 -16 19 -44 19
-60 0z m55 -25 c0 -18 -6 -26 -23 -28 -13 -2 -25 3 -28 12 -10 26 4 48 28 44
17 -2 23 -10 23 -28z"/>
<path d="M270 385 c0 -3 2 -5 5 -5 3 0 5 2 5 5 0 3 -2 5 -5 5 -3 0 -5 -2 -5
-5z"/>
<path d="M320 325 c0 -3 2 -5 5 -5 3 0 5 2 5 5 0 3 -2 5 -5 5 -3 0 -5 -2 -5
-5z"/>
<path d="M210 325 c0 -3 2 -5 5 -5 3 0 5 2 5 5 0 3 -2 5 -5 5 -3 0 -5 -2 -5
-5z"/>
<path d="M221 184 c0 -11 3 -14 6 -6 3 7 2 16 -1 19 -3 4 -6 -2 -5 -13z"/>
<path d="M390 185 c0 -3 2 -5 5 -5 3 0 5 2 5 5 0 3 -2 5 -5 5 -3 0 -5 -2 -5
-5z"/>
<path d="M320 145 c0 -3 2 -5 5 -5 3 0 5 2 5 5 0 3 -2 5 -5 5 -3 0 -5 -2 -5
-5z"/>
</g>
</svg>
