<?xml version="1.0" standalone="no"?>
<!DOCTYPE svg PUBLIC "-//W3C//DTD SVG 20010904//EN"
 "http://www.w3.org/TR/2001/REC-SVG-20010904/DTD/svg10.dtd">
<svg version="1.0" xmlns="http://www.w3.org/2000/svg"
 width="56.000000pt" height="56.000000pt" viewBox="0 0 56.000000 56.000000"
 preserveAspectRatio="xMidYMid meet">
<metadata>
Created by potrace 1.16, written by Peter Selinger 2001-2019
</metadata>
<g transform="translate(0.000000,56.000000) scale(0.100000,-0.100000)"
fill="#000000" stroke="none">
<path d="M160 505 c0 -13 43 -95 48 -91 2 3 -4 23 -15 46 -25 49 -13 53 16 5
11 -19 32 -40 45 -45 26 -10 46 -38 46 -66 0 -16 -1 -16 -18 -1 -20 18 -48 22
-56 9 -2 -4 8 -8 22 -7 23 0 27 -4 27 -30 0 -22 -5 -30 -20 -32 -11 -2 -14 0
-7 3 21 10 13 34 -14 45 -25 9 -26 11 -10 28 24 26 21 49 -3 27 -18 -17 -20
-17 -30 1 -9 16 -10 15 -11 -9 0 -15 7 -34 16 -42 23 -24 4 -19 -22 5 -26 25
-44 18 -44 -17 0 -14 -4 -22 -10 -19 -16 10 -11 44 9 64 21 21 20 21 -53 45
-10 4 -17 9 -14 11 3 3 24 -2 48 -10 47 -17 59 -14 57 15 -2 28 -44 67 -57 54
-7 -7 -2 -18 15 -34 36 -34 31 -41 -16 -25 -40 14 -59 13 -59 -5 0 -5 16 -14
35 -20 31 -10 34 -14 24 -32 -6 -11 -9 -33 -7 -50 4 -23 2 -28 -11 -22 -60 24
-64 -9 -5 -39 l47 -24 -37 -28 c-54 -41 -44 -86 18 -84 17 0 26 3 19 5 -8 4
-2 15 16 32 15 15 18 19 6 10 -25 -21 -71 -39 -79 -31 -15 15 -3 38 39 75 26
23 42 45 39 53 -6 16 31 39 47 29 6 -4 16 0 21 7 8 11 9 10 4 -4 -4 -14 2 -21
24 -29 25 -8 28 -13 19 -24 -6 -8 -17 -14 -23 -14 -6 0 -4 5 4 10 12 8 11 10
-6 10 -22 0 -72 -46 -61 -57 4 -4 -4 -19 -19 -34 -17 -18 -22 -29 -14 -34 7
-4 -8 -17 -39 -31 -76 -37 -70 -43 52 -59 34 -5 55 -2 70 8 12 7 36 19 54 24
28 10 34 9 54 -13 21 -22 28 -24 88 -18 62 6 91 17 79 29 -9 9 -121 36 -126
30 -3 -3 0 -5 6 -5 6 0 23 -5 39 -12 15 -6 35 -10 45 -9 9 1 19 -3 23 -8 8
-15 -43 -10 -75 6 -14 7 -34 13 -44 13 -18 0 -18 2 4 25 20 21 31 25 74 23 45
-3 51 -1 51 17 0 11 -10 25 -23 31 -21 10 -21 12 -5 18 12 5 14 9 6 14 -8 5
-6 22 7 62 26 74 25 94 -7 151 -28 48 -45 60 -59 38 -4 -8 -13 -1 -23 17 l-16
29 -5 -50 c-5 -45 -7 -47 -14 -23 -4 15 -14 32 -22 39 -11 9 -14 6 -14 -17 0
-23 2 -26 11 -14 9 12 10 12 5 -3 -3 -10 -6 -22 -6 -25 0 -4 -10 11 -23 32
-28 50 -41 54 -57 16 -16 -39 -23 -38 -49 5 -11 19 -27 35 -36 35 -8 0 -15 -2
-15 -5z m-14 -37 l19 -21 -27 18 c-29 18 -34 25 -20 25 5 0 17 -10 28 -22z
m257 -3 c4 -8 2 -17 -3 -20 -6 -4 -10 3 -10 14 0 25 6 27 13 6z m40 -22 c-4
-10 -20 -41 -35 -71 -16 -30 -27 -59 -25 -65 3 -7 18 18 35 54 39 87 59 100
52 35 -2 -21 -45 -102 -68 -128 -8 -10 -11 -18 -5 -18 16 0 39 31 65 90 23 49
26 52 33 31 4 -13 2 -28 -4 -34 -6 -6 -11 -17 -11 -25 0 -27 -52 -82 -87 -91
-45 -13 -59 -6 -72 31 -9 24 -7 39 7 72 11 22 26 47 35 55 10 7 17 18 17 24 0
15 41 57 56 57 9 0 11 -6 7 -17z m-73 -35 c0 -5 -4 -8 -10 -8 -5 0 -10 10 -10
23 0 18 2 19 10 7 5 -8 10 -18 10 -22z m-63 5 c-4 -3 -7 0 -7 7 0 7 3 10 7 7
3 -4 3 -10 0 -14z m33 -18 c0 -3 -2 -5 -5 -5 -3 0 -5 2 -5 5 0 3 2 5 5 5 3 0
5 -2 5 -5z m0 -24 c0 -6 -4 -13 -10 -16 -5 -3 -10 1 -10 9 0 9 5 16 10 16 6 0
10 -4 10 -9z m-187 -31 c-3 -11 -7 -20 -9 -20 -2 0 -4 9 -4 20 0 11 4 20 9 20
5 0 7 -9 4 -20z m14 -27 c-4 -3 -7 0 -7 7 0 7 3 10 7 7 3 -4 3 -10 0 -14z
m-73 -18 c20 -8 36 -20 36 -25 0 -6 -2 -10 -5 -10 -12 0 -75 35 -75 42 0 11 2
10 44 -7z m212 -72 c-3 -3 -12 -3 -21 1 -13 5 -14 8 -3 20 11 12 14 12 21 -1
5 -8 6 -17 3 -20z m-14 -13 c68 -19 110 -40 79 -40 -27 0 -171 43 -171 52 0
12 12 10 92 -12z m118 -15 c0 -3 -2 -5 -5 -5 -3 0 -5 2 -5 5 0 3 2 5 5 5 3 0
5 -2 5 -5z m-92 -31 c9 -7 -22 -46 -48 -59 -24 -12 -35 -13 -53 -4 -46 24 -47
29 -15 58 29 26 35 27 72 18 23 -5 42 -11 44 -13z m158 -4 c0 -12 -4 -16 -9
-11 -5 5 -6 14 -3 20 10 15 12 14 12 -9z m-253 -97 c-20 -15 -49 -17 -58 -4
-3 5 4 13 16 16 11 4 18 9 16 11 -3 3 -22 -2 -42 -10 -22 -10 -48 -13 -63 -9
-24 6 -25 7 -7 14 11 4 38 9 60 10 36 2 37 3 10 7 -25 4 -27 6 -11 11 12 5 34
0 58 -13 34 -19 36 -22 21 -33z m167 12 c29 -11 32 -14 17 -20 -20 -8 -67 9
-67 25 0 12 6 12 50 -5z"/>
</g>
</svg>
