<?xml version="1.0" standalone="no"?>
<!DOCTYPE svg PUBLIC "-//W3C//DTD SVG 20010904//EN"
 "http://www.w3.org/TR/2001/REC-SVG-20010904/DTD/svg10.dtd">
<svg version="1.0" xmlns="http://www.w3.org/2000/svg"
 width="56.000000pt" height="56.000000pt" viewBox="0 0 56.000000 56.000000"
 preserveAspectRatio="xMidYMid meet">
<metadata>
Created by potrace 1.16, written by Peter Selinger 2001-2019
</metadata>
<g transform="translate(0.000000,56.000000) scale(0.100000,-0.100000)"
fill="#000000" stroke="none">
<path d="M326 449 c-27 -21 -33 -48 -15 -66 7 -7 1 -10 -20 -9 -17 1 -31 4
-31 8 0 4 -14 15 -32 24 -29 15 -34 15 -64 0 -37 -17 -52 -55 -36 -90 7 -16 6
-29 -3 -46 -36 -70 -23 -97 15 -34 16 25 28 34 44 32 11 -2 21 -9 21 -15 0 -7
10 -19 22 -28 13 -9 19 -22 16 -34 -3 -10 0 -28 6 -39 9 -16 6 -21 -16 -31
-24 -11 -25 -13 -10 -28 15 -15 18 -15 36 1 16 14 23 15 41 6 30 -16 40 -2 14
19 -33 27 -48 60 -34 76 10 12 16 12 42 -1 21 -11 33 -12 42 -5 14 11 26 5 26
-13 0 -6 -5 -4 -10 4 -5 8 -10 10 -10 4 0 -6 6 -17 14 -23 11 -9 18 -6 33 15
15 20 22 24 28 14 6 -9 4 -11 -5 -5 -9 5 -11 4 -6 -3 10 -17 26 -15 26 2 0 8
-14 24 -30 36 -29 21 -32 21 -56 5 -19 -12 -29 -14 -37 -6 -7 7 -7 11 -1 11 5
0 17 13 26 28 16 26 16 31 2 50 -16 23 -11 42 10 42 19 0 46 34 46 58 0 18
-42 62 -60 62 -4 0 -19 -9 -34 -21z m55 0 c20 -10 20 -11 3 -24 -15 -10 -16
-16 -6 -27 16 -19 4 -30 -19 -18 -10 6 -23 9 -30 8 -6 -2 -14 3 -16 10 -3 7 1
10 10 6 20 -7 32 13 17 30 -10 13 -5 19 18 25 2 1 12 -4 23 -10z m-51 -24 c0
-3 -2 -5 -5 -5 -3 0 -5 2 -5 5 0 3 2 5 5 5 3 0 5 -2 5 -5z m60 -10 c0 -3 -2
-5 -5 -5 -3 0 -5 2 -5 5 0 3 2 5 5 5 3 0 5 -2 5 -5z m-165 -21 c30 -20 33 -34
5 -27 -27 7 -39 -25 -16 -43 17 -12 16 -13 -4 -24 -18 -10 -24 -8 -34 6 -7 9
-18 14 -25 10 -15 -9 -25 18 -17 47 5 21 35 44 59 46 4 1 19 -6 32 -15z m125
-22 c0 -5 -13 -21 -30 -37 -35 -34 -40 -25 -7 15 22 29 37 37 37 22z m-59 -25
c-13 -13 -26 -3 -16 12 3 6 11 8 17 5 6 -4 6 -10 -1 -17z m-71 8 c0 -3 -2 -5
-5 -5 -3 0 -5 2 -5 5 0 3 2 5 5 5 3 0 5 -2 5 -5z m-50 -57 c-1 -14 -50 -78
-50 -66 0 4 8 23 17 43 17 35 33 46 33 23z m90 -35 c28 -20 53 -26 44 -12 -3
5 -10 6 -16 3 -7 -5 -8 -2 -3 6 6 9 4 11 -6 5 -8 -5 -10 -4 -6 0 12 14 35 14
47 1 7 -9 4 -18 -10 -31 -27 -24 -83 -10 -88 23 -4 27 5 28 38 5z m-140 -48
c0 -3 -2 -5 -5 -5 -3 0 -5 2 -5 5 0 3 2 5 5 5 3 0 5 -2 5 -5z m282 -47 c-6 -6
-7 0 -4 19 5 21 7 23 10 9 2 -10 0 -22 -6 -28z m-147 -68 c-3 -5 -13 -6 -21
-3 -12 4 -13 8 -3 14 15 9 32 2 24 -11z"/>
<path d="M147 373 c-11 -10 -8 -43 3 -43 15 0 24 30 13 41 -5 5 -12 6 -16 2z
m13 -8 c0 -3 -2 -5 -5 -5 -3 0 -5 2 -5 5 0 3 2 5 5 5 3 0 5 -2 5 -5z"/>
<path d="M280 355 c0 -3 2 -5 5 -5 3 0 5 2 5 5 0 3 -2 5 -5 5 -3 0 -5 -2 -5
-5z"/>
<path d="M305 260 c3 -5 8 -10 11 -10 3 0 2 5 -1 10 -3 6 -8 10 -11 10 -3 0
-2 -4 1 -10z"/>
<path d="M240 105 c0 -3 2 -5 5 -5 3 0 5 2 5 5 0 3 -2 5 -5 5 -3 0 -5 -2 -5
-5z"/>
</g>
</svg>
