<?xml version="1.0" standalone="no"?>
<!DOCTYPE svg PUBLIC "-//W3C//DTD SVG 20010904//EN"
 "http://www.w3.org/TR/2001/REC-SVG-20010904/DTD/svg10.dtd">
<svg version="1.0" xmlns="http://www.w3.org/2000/svg"
 width="56.000000pt" height="56.000000pt" viewBox="0 0 56.000000 56.000000"
 preserveAspectRatio="xMidYMid meet">
<metadata>
Created by potrace 1.16, written by Peter Selinger 2001-2019
</metadata>
<g transform="translate(0.000000,56.000000) scale(0.100000,-0.100000)"
fill="#000000" stroke="none">
<path d="M190 525 c-16 -17 -27 -22 -34 -15 -15 15 -41 12 -59 -8 -24 -26 -21
-55 8 -82 14 -13 25 -31 25 -39 0 -11 -8 -6 -25 14 -23 29 -36 18 -16 -14 7
-10 3 -23 -10 -39 -21 -27 -24 -54 -9 -81 6 -13 3 -34 -11 -71 -30 -80 -20
-93 24 -32 20 29 49 57 63 63 22 8 30 6 50 -16 25 -27 26 -26 -40 -29 -40 -1
-53 -26 -31 -59 10 -16 22 -24 29 -20 6 4 19 6 28 5 9 -2 22 7 29 20 12 23 28
38 42 38 11 0 8 -17 -10 -58 -9 -20 -16 -39 -15 -42 0 -3 -15 -4 -34 -2 -31 4
-64 -10 -64 -27 0 -3 12 -11 26 -18 23 -11 30 -10 52 8 25 19 25 19 47 -1 20
-19 45 -27 45 -14 0 3 -9 17 -19 30 -18 23 -18 28 -5 59 8 19 14 45 14 58 0
38 19 49 48 27 14 -11 37 -20 53 -20 23 0 30 -7 44 -45 19 -49 45 -79 45 -52
0 9 -5 28 -10 43 -15 39 -7 39 34 4 49 -44 49 -14 -1 41 -30 33 -37 48 -34 76
1 19 -3 41 -9 49 -10 11 -10 14 -1 14 7 0 9 5 6 10 -3 6 -17 10 -31 10 -29 0
-23 17 10 30 18 8 17 9 -12 9 -19 1 -35 -5 -38 -13 -8 -20 -41 -26 -55 -10 -9
11 -2 24 35 64 53 57 57 85 15 109 -23 12 -29 12 -59 -2 -32 -16 -33 -16 -17
1 21 23 21 32 3 32 -7 0 -21 -10 -29 -22 -9 -13 -16 -18 -16 -11 -1 6 4 15 9
18 22 14 8 30 -28 33 -30 2 -43 -3 -62 -23z m66 -1 c-3 -9 -6 -19 -6 -24 0
-11 -57 -40 -64 -32 -11 10 -6 35 11 54 21 23 68 25 59 2z m-98 -26 c17 -17
15 -67 -4 -75 -8 -3 -26 -1 -40 5 -39 19 -27 82 16 82 9 0 21 -5 28 -12z m237
-11 c23 -18 14 -63 -16 -72 -16 -5 -27 0 -45 21 -29 36 -29 42 -1 54 31 12 41
12 62 -3z m-117 -25 c9 9 17 7 34 -9 l22 -22 -26 -10 c-32 -12 -45 -31 -22
-31 34 0 5 -11 -35 -14 -33 -3 -44 1 -52 16 -6 11 -8 22 -5 26 3 3 6 0 6 -7 0
-7 5 -9 12 -5 7 4 8 3 4 -4 -4 -7 0 -12 10 -12 15 0 14 4 -7 26 l-24 26 25 20
c21 17 25 18 35 4 9 -12 14 -13 23 -4z m22 -57 c0 -3 -2 -5 -5 -5 -3 0 -5 2
-5 5 0 3 2 5 5 5 3 0 5 -2 5 -5z m-135 -35 c3 -5 4 -10 1 -10 -3 0 -8 5 -11
10 -3 6 -4 10 -1 10 3 0 8 -4 11 -10z m95 -14 c0 -7 -7 -29 -15 -47 l-14 -34
-1 48 c0 35 4 47 15 47 8 0 15 -6 15 -14z m-144 -21 c-7 -20 3 -19 26 2 20 18
32 12 42 -23 6 -18 1 -22 -26 -28 -30 -6 -31 -8 -15 -20 28 -21 -5 -28 -42
-10 -33 16 -39 40 -21 75 13 23 45 27 36 4z m190 -31 c2 -11 -1 -12 -10 -5
-10 8 -12 2 -11 -28 1 -25 -3 -38 -12 -38 -10 0 -10 3 0 15 10 13 7 12 -19 -1
-40 -20 -50 -11 -21 19 12 13 31 32 41 43 20 22 28 21 32 -5z m77 -26 c5 -18
8 -19 21 -9 26 22 46 6 42 -31 -5 -55 -80 -79 -110 -36 -21 30 -20 54 4 78 26
26 36 25 43 -2z m-213 -3 c0 -3 -2 -5 -5 -5 -3 0 -5 2 -5 5 0 3 2 5 5 5 3 0 5
-2 5 -5z m-56 -33 c3 -5 -7 -26 -21 -48 -41 -62 -46 -63 -24 -4 12 30 21 56
21 58 0 6 19 1 24 -6z m380 -92 c20 -22 36 -42 36 -45 0 -11 -89 61 -89 73 -1
22 16 13 53 -28z m-344 9 c0 -5 4 -8 10 -4 5 3 5 -7 -1 -25 -13 -37 -24 -40
-14 -3 5 23 4 25 -9 14 -13 -11 -16 -11 -16 1 0 8 3 18 7 21 10 10 23 8 23 -4z
m41 -32 c-10 -9 -11 -8 -5 6 3 10 9 15 12 12 3 -3 0 -11 -7 -18z m60 -50 c-10
-9 -11 -8 -5 6 3 10 9 15 12 12 3 -3 0 -11 -7 -18z m-81 -37 c-20 -13 -33 -13
-25 0 3 6 14 10 23 10 15 0 15 -2 2 -10z m40 7 c0 -2 -10 -12 -22 -23 l-23
-19 19 23 c18 21 26 27 26 19z m61 -24 c13 -16 12 -17 -3 -4 -10 7 -18 15 -18
17 0 8 8 3 21 -13z"/>
<path d="M80 299 c0 -11 4 -18 10 -14 5 3 7 12 3 20 -7 21 -13 19 -13 -6z"/>
<path d="M290 315 c0 -3 2 -5 5 -5 3 0 5 2 5 5 0 3 -2 5 -5 5 -3 0 -5 -2 -5
-5z"/>
<path d="M220 245 c0 -3 2 -5 5 -5 3 0 5 2 5 5 0 3 -2 5 -5 5 -3 0 -5 -2 -5
-5z"/>
<path d="M352 210 c5 -15 44 -24 52 -12 3 5 0 9 -7 9 -7 0 -20 4 -31 8 -13 6
-17 4 -14 -5z"/>
</g>
</svg>
