<?xml version="1.0" standalone="no"?>
<!DOCTYPE svg PUBLIC "-//W3C//DTD SVG 20010904//EN"
 "http://www.w3.org/TR/2001/REC-SVG-20010904/DTD/svg10.dtd">
<svg version="1.0" xmlns="http://www.w3.org/2000/svg"
 width="56.000000pt" height="56.000000pt" viewBox="0 0 56.000000 56.000000"
 preserveAspectRatio="xMidYMid meet">
<metadata>
Created by potrace 1.16, written by Peter Selinger 2001-2019
</metadata>
<g transform="translate(0.000000,56.000000) scale(0.100000,-0.100000)"
fill="#000000" stroke="none">
<path d="M245 483 c-16 -24 -16 -29 -2 -52 10 -17 30 -30 58 -37 53 -13 69
-42 45 -79 -22 -33 -32 -32 -40 5 -7 39 -47 79 -85 86 -22 5 -33 15 -44 42
l-14 36 -8 -32 c-4 -18 -19 -40 -36 -53 -36 -26 -57 -64 -61 -114 -2 -31 1
-41 17 -49 27 -14 28 -90 2 -130 -14 -21 -16 -30 -6 -42 16 -20 45 -17 67 6
17 18 21 19 58 6 76 -26 111 -36 131 -36 23 0 48 24 39 38 -3 6 8 15 24 22 41
17 88 72 95 113 8 39 -11 89 -51 142 -33 44 -23 61 26 44 29 -11 35 -10 47 6
19 27 16 62 -7 85 -30 30 -54 25 -93 -20 l-36 -39 -31 39 c-38 48 -70 52 -95
13z m98 -29 c30 -38 36 -42 41 -26 4 10 19 31 35 46 23 22 35 27 56 22 14 -4
23 -11 20 -15 -3 -5 0 -11 7 -13 10 -4 10 -10 2 -29 -9 -20 -18 -24 -54 -24
-67 0 -74 -23 -23 -78 52 -56 62 -101 37 -154 -19 -37 -74 -83 -100 -83 -8 0
-28 16 -45 35 -18 19 -34 33 -36 31 -6 -5 16 -46 34 -64 18 -18 16 -29 -6 -41
-27 -15 -52 8 -62 55 l-8 39 2 -42 c3 -49 -1 -50 -60 -23 -45 20 -83 69 -83
108 0 27 11 28 28 2 16 -27 38 -25 57 4 11 16 22 22 38 19 34 -7 53 20 39 52
-7 14 -17 24 -24 23 -7 -2 -12 6 -13 17 0 11 -7 20 -15 20 -8 0 -14 -8 -14
-17 1 -10 -10 -21 -27 -27 -30 -10 -31 -9 -33 24 -1 26 -31 26 -31 1 0 -24
-23 -33 -31 -13 -7 19 20 73 43 85 12 7 21 4 35 -12 l18 -21 20 24 c20 23 22
24 54 9 21 -10 37 -28 45 -50 7 -18 17 -43 22 -56 8 -21 64 -62 84 -62 6 0 1
6 -10 12 -11 6 -30 17 -43 25 l-23 14 26 30 c28 34 29 38 15 73 -6 17 -17 26
-32 26 -42 0 -65 11 -79 37 -12 22 -11 27 4 37 9 7 14 16 10 19 -3 4 5 7 19 7
18 0 35 -13 61 -46z m-167 -71 c-12 -30 -29 2 -21 39 l8 33 9 -28 c6 -15 7
-35 4 -44z m-56 -58 c0 -3 -2 -5 -5 -5 -3 0 -5 2 -5 5 0 3 2 5 5 5 3 0 5 -2 5
-5z m90 0 c0 -3 -2 -5 -5 -5 -3 0 -5 2 -5 5 0 3 2 5 5 5 3 0 5 -2 5 -5z m-121
-79 c-13 -14 -33 9 -25 30 6 16 8 16 21 -2 8 -12 10 -23 4 -28z m47 29 c8 -19
30 -19 38 0 3 8 17 15 31 15 22 0 24 -3 15 -19 -5 -11 -10 -23 -10 -28 1 -4 8
5 16 21 13 22 18 26 25 15 13 -21 -27 -52 -51 -39 -29 15 -37 12 -49 -17 l-11
-28 5 29 c5 22 3 27 -9 23 -15 -6 -50 26 -39 36 11 12 33 7 39 -8z m-5 -183
c-8 -15 -66 -27 -59 -13 2 3 10 18 17 34 13 25 15 26 32 11 13 -12 16 -22 10
-32z"/>
<path d="M253 443 c4 -3 10 -3 14 0 3 4 0 7 -7 7 -7 0 -10 -3 -7 -7z"/>
<path d="M483 443 c4 -3 10 -3 14 0 3 4 0 7 -7 7 -7 0 -10 -3 -7 -7z"/>
<path d="M116 362 c-3 -5 1 -9 9 -9 8 0 12 4 9 9 -3 4 -7 8 -9 8 -2 0 -6 -4
-9 -8z"/>
<path d="M206 362 c-3 -5 1 -9 9 -9 8 0 12 4 9 9 -3 4 -7 8 -9 8 -2 0 -6 -4
-9 -8z"/>
<path d="M290 65 c0 -3 2 -5 5 -5 3 0 5 2 5 5 0 3 -2 5 -5 5 -3 0 -5 -2 -5 -5z"/>
</g>
</svg>
