<?xml version="1.0" standalone="no"?>
<!DOCTYPE svg PUBLIC "-//W3C//DTD SVG 20010904//EN"
 "http://www.w3.org/TR/2001/REC-SVG-20010904/DTD/svg10.dtd">
<svg version="1.0" xmlns="http://www.w3.org/2000/svg"
 width="56.000000pt" height="56.000000pt" viewBox="0 0 56.000000 56.000000"
 preserveAspectRatio="xMidYMid meet">
<metadata>
Created by potrace 1.16, written by Peter Selinger 2001-2019
</metadata>
<g transform="translate(0.000000,56.000000) scale(0.100000,-0.100000)"
fill="#000000" stroke="none">
<path d="M185 499 c-22 -18 -26 -27 -21 -52 6 -30 6 -30 -14 -12 -19 17 -20
17 -27 -1 -4 -11 -17 -34 -30 -53 -26 -39 -29 -63 -9 -80 20 -17 13 -77 -14
-113 -12 -16 -20 -37 -18 -46 4 -25 76 -58 97 -45 12 8 25 4 50 -13 51 -34
129 -50 175 -34 74 24 145 113 146 180 0 92 -70 177 -207 248 -44 23 -85 42
-91 42 -5 0 -22 -10 -37 -21z m125 -30 c45 -23 96 -59 119 -84 40 -44 71 -120
71 -177 0 -87 -108 -170 -198 -153 -61 11 -118 43 -145 83 -26 37 -63 147 -47
137 4 -3 10 1 13 7 3 9 9 8 19 -5 13 -17 15 -17 38 10 14 15 18 22 10 16 -16
-11 -79 -11 -99 1 -6 4 -11 14 -11 23 0 11 7 14 28 9 15 -3 22 -3 15 0 -7 3
-9 12 -6 21 4 10 2 14 -4 10 -7 -4 -10 0 -8 10 1 11 10 17 21 16 11 -2 29 2
40 8 29 15 60 -3 78 -45 10 -24 29 -40 71 -61 58 -30 105 -75 105 -102 0 -11
-6 -9 -20 8 l-20 24 17 -33 c16 -28 16 -34 3 -42 -23 -15 -28 -12 -35 20 -4
16 -11 32 -16 35 -5 4 -5 -5 1 -20 13 -35 13 -45 -4 -45 -7 0 -19 12 -25 28
-6 15 -23 41 -36 57 -17 21 -13 10 11 -32 38 -65 37 -65 106 -54 11 1 38 57
38 76 0 9 -10 26 -23 39 -23 23 -23 24 -5 46 37 45 18 66 -78 86 -37 8 -69 12
-72 9 -2 -2 14 -7 37 -11 53 -8 59 -19 22 -39 -42 -21 -46 -20 -70 20 -11 19
-32 40 -46 47 -36 16 -44 56 -15 80 12 10 27 18 32 18 6 0 45 -18 88 -41z
m-156 -60 c-10 -16 -24 -9 -24 12 0 18 2 19 15 9 8 -7 12 -16 9 -21z m261 -88
c-11 -36 -38 -43 -86 -23 l-43 18 60 20 c64 21 80 18 69 -15z m-255 -46 c0 -3
-2 -5 -5 -5 -3 0 -5 2 -5 5 0 3 2 5 5 5 3 0 5 -2 5 -5z m-38 -120 c2 -32 -1
-40 -16 -43 -15 -3 -18 0 -13 19 5 22 5 22 -7 7 -7 -10 -16 -15 -19 -11 -12
12 -7 34 15 64 25 34 35 26 40 -36z"/>
<path d="M250 449 c-12 -8 -10 -9 8 -4 15 4 35 -1 58 -14 50 -30 57 -26 9 4
-45 28 -53 29 -75 14z"/>
<path d="M174 369 c-10 -17 13 -36 27 -22 12 12 4 33 -11 33 -5 0 -12 -5 -16
-11z m26 -4 c0 -3 -2 -5 -5 -5 -3 0 -5 2 -5 5 0 3 2 5 5 5 3 0 5 -2 5 -5z"/>
</g>
</svg>
