<?xml version="1.0" standalone="no"?>
<!DOCTYPE svg PUBLIC "-//W3C//DTD SVG 20010904//EN"
 "http://www.w3.org/TR/2001/REC-SVG-20010904/DTD/svg10.dtd">
<svg version="1.0" xmlns="http://www.w3.org/2000/svg"
 width="56.000000pt" height="56.000000pt" viewBox="0 0 56.000000 56.000000"
 preserveAspectRatio="xMidYMid meet">
<metadata>
Created by potrace 1.16, written by Peter Selinger 2001-2019
</metadata>
<g transform="translate(0.000000,56.000000) scale(0.100000,-0.100000)"
fill="#000000" stroke="none">
<path d="M365 470 c-4 -6 -15 -8 -24 -5 -25 8 -45 -18 -32 -42 16 -32 0 -41
-61 -35 -32 2 -55 8 -52 13 3 5 -8 23 -25 40 l-31 31 -30 -31 c-29 -28 -30
-32 -17 -53 21 -33 40 -122 33 -155 -3 -15 -2 -34 3 -42 6 -9 5 -24 -1 -40 -8
-22 -5 -29 19 -49 26 -21 34 -22 128 -17 55 3 116 6 135 5 20 0 44 6 54 13 16
12 16 15 -3 60 -11 26 -18 53 -15 61 3 8 0 34 -7 57 -15 56 -20 137 -8 144 17
11 9 23 -23 39 -37 19 -35 19 -43 6z m25 -10 c0 -5 -4 -10 -10 -10 -5 0 -10 5
-10 10 0 6 5 10 10 10 6 0 10 -4 10 -10z m-224 -27 c25 -25 26 -27 8 -40 -19
-14 -60 -10 -77 7 -7 6 24 51 40 59 1 1 14 -11 29 -26z m232 14 c43 2 40 -4
-9 -26 -23 -10 -35 -21 -28 -23 8 -3 9 -7 3 -11 -13 -8 -57 50 -49 64 4 6 16
7 28 2 12 -4 37 -7 55 -6z m-148 -76 c0 -19 -28 -33 -48 -22 -17 9 -20 7 -25
-17 -4 -23 -4 -25 8 -9 11 16 15 15 59 -9 35 -19 50 -23 60 -15 7 6 16 8 19 4
4 -3 7 6 7 20 0 30 -21 33 -32 4 -10 -24 -43 -18 -43 8 0 16 6 20 33 19 21 -1
32 4 32 13 0 12 3 11 16 -2 11 -10 25 -14 40 -11 28 7 29 1 9 -48 -16 -39 -24
-43 -43 -24 -9 9 -12 8 -13 -5 -1 -9 -3 -21 -4 -27 -1 -5 -4 -25 -5 -42 l-2
-33 -8 30 -8 30 -1 -34 c-1 -25 -11 -44 -41 -73 -46 -46 -83 -50 -88 -8 -2 22
-1 23 8 8 26 -43 82 2 96 79 3 18 12 33 20 35 18 4 4 24 -23 32 -20 6 -23 4
-24 -21 -2 -75 -18 -108 -40 -86 -12 12 4 53 21 53 6 0 10 15 10 34 0 30 -4
35 -30 41 -16 4 -38 4 -48 1 -19 -6 -42 27 -42 61 0 13 3 13 28 -2 15 -10 23
-14 19 -9 -4 4 3 14 15 21 27 14 68 17 68 4z m180 -132 c0 -3 -7 -12 -15 -19
-8 -7 -15 -19 -15 -26 0 -19 -5 -18 -34 10 -27 24 -36 59 -13 50 7 -2 21 2 32
10 18 13 21 13 33 -1 6 -9 12 -20 12 -24z m-250 -36 c0 -26 -2 -44 -4 -42 -8
9 -13 98 -5 93 5 -3 9 -26 9 -51z m-30 -3 c0 -5 -2 -10 -4 -10 -3 0 -8 5 -11
10 -3 6 -1 10 4 10 6 0 11 -4 11 -10z m271 -33 c-13 -13 -15 1 -4 30 7 17 8
17 11 -1 2 -10 -1 -23 -7 -29z m-61 13 c0 -5 12 -16 28 -24 32 -18 18 -21 -27
-5 -31 11 -37 19 -24 32 10 10 23 8 23 -3z m-204 -57 c-2 -3 -9 -2 -15 2 -8 4
-7 13 1 28 l13 22 3 -23 c2 -13 1 -26 -2 -29z m179 -2 c-3 -6 -11 -11 -17 -11
-6 0 -6 6 2 15 14 17 26 13 15 -4z m55 -6 c0 -3 -2 -5 -5 -5 -3 0 -5 2 -5 5 0
3 2 5 5 5 3 0 5 -2 5 -5z m27 -12 c-4 -3 -10 -3 -14 0 -3 4 0 7 7 7 7 0 10 -3
7 -7z"/>
<path d="M120 405 c0 -3 2 -5 5 -5 3 0 5 2 5 5 0 3 -2 5 -5 5 -3 0 -5 -2 -5
-5z"/>
<path d="M140 326 c0 -8 4 -17 9 -20 5 -4 7 3 4 14 -6 23 -13 26 -13 6z"/>
<path d="M270 335 c0 -3 2 -5 5 -5 3 0 5 2 5 5 0 3 -2 5 -5 5 -3 0 -5 -2 -5
-5z"/>
</g>
</svg>
