<?xml version="1.0" standalone="no"?>
<!DOCTYPE svg PUBLIC "-//W3C//DTD SVG 20010904//EN"
 "http://www.w3.org/TR/2001/REC-SVG-20010904/DTD/svg10.dtd">
<svg version="1.0" xmlns="http://www.w3.org/2000/svg"
 width="56.000000pt" height="56.000000pt" viewBox="0 0 56.000000 56.000000"
 preserveAspectRatio="xMidYMid meet">
<metadata>
Created by potrace 1.16, written by Peter Selinger 2001-2019
</metadata>
<g transform="translate(0.000000,56.000000) scale(0.100000,-0.100000)"
fill="#000000" stroke="none">
<path d="M351 544 c-15 -11 -21 -23 -18 -36 4 -14 2 -18 -9 -14 -9 3 -12 1 -9
-4 3 -6 15 -10 25 -10 11 0 34 -16 51 -35 29 -31 33 -33 44 -18 10 14 13 12
24 -17 7 -20 8 -37 2 -43 -11 -11 -46 7 -55 28 -3 9 -10 13 -16 10 -5 -3 -10
1 -10 10 0 11 -5 15 -14 12 -8 -3 -17 1 -20 9 -5 12 -11 12 -43 -4 -25 -13
-45 -17 -58 -11 -11 4 -33 7 -50 7 l-30 -1 30 -4 c56 -9 72 -37 28 -48 -52
-13 -94 -15 -88 -5 4 7 -3 7 -20 0 -63 -24 -61 0 3 28 26 12 41 21 34 22 -23
0 -90 -39 -111 -66 -27 -35 -26 -57 4 -90 15 -16 25 -39 26 -58 0 -17 4 -40 9
-51 7 -16 9 -12 16 24 l7 44 14 -27 c13 -24 12 -30 -2 -52 -8 -13 -20 -24 -25
-24 -15 0 -80 -61 -80 -75 0 -21 57 -35 145 -36 182 -3 329 1 393 9 16 3 15
27 -2 42 -8 6 -12 18 -10 25 3 7 -2 25 -11 38 -9 14 -18 46 -20 72 -4 39 -2
45 13 43 14 -3 18 6 20 52 2 30 8 60 13 67 20 24 -2 71 -65 137 -68 70 -92 80
-135 50z m84 -10 c35 -23 57 -70 40 -84 -11 -9 -12 -7 -9 8 3 10 -4 29 -14 43
l-20 24 -26 -24 c-27 -25 -52 -23 -63 5 -7 19 21 44 49 44 10 0 30 -7 43 -16z
m102 -114 c10 -21 10 -28 -2 -39 -12 -13 -18 -13 -40 -1 -27 14 -32 39 -13 58
18 18 41 11 55 -18z m-240 -37 c-4 -3 -7 0 -7 7 0 7 3 10 7 7 3 -4 3 -10 0
-14z m57 4 c12 -9 18 -27 18 -60 1 -26 5 -50 10 -53 4 -3 8 -14 8 -26 0 -17
-2 -19 -16 -7 -13 10 -17 10 -25 -2 -5 -8 -9 -18 -9 -22 0 -13 27 -37 34 -30
3 4 6 -1 6 -10 0 -10 5 -14 15 -11 10 4 15 0 15 -15 0 -31 34 -65 59 -58 12 3
24 1 27 -4 3 -5 10 -6 16 -3 6 4 8 2 5 -3 -8 -12 -72 -6 -100 9 -10 5 -21 8
-23 5 -7 -6 98 -51 118 -50 10 0 15 -3 13 -7 -8 -13 -72 -2 -121 19 -58 26
-78 26 -120 1 -47 -29 -153 -33 -183 -6 -12 11 -19 26 -16 34 4 12 3 13 -10 2
-12 -10 -13 -16 -4 -26 15 -18 -17 -32 -34 -15 -8 8 -5 16 11 32 31 28 61 33
55 9 -7 -25 28 -42 75 -38 30 2 38 8 46 31 15 42 -7 173 -33 201 -23 24 -19
36 12 36 24 0 17 10 -10 15 -29 6 -29 6 -8 15 37 16 58 12 52 -10 -3 -13 0
-20 9 -20 7 0 21 -12 31 -27 9 -16 25 -36 35 -46 17 -17 18 -17 18 8 0 14 3
24 8 21 4 -2 12 6 18 19 10 21 7 28 -18 57 -17 18 -25 25 -18 16 7 -10 9 -29
5 -47 l-7 -31 -34 28 c-19 15 -34 32 -34 39 0 18 19 26 35 13 10 -9 15 -7 20
9 7 24 24 27 49 8z m-219 -37 c3 -6 -1 -13 -9 -16 -21 -8 -20 -24 1 -24 22 0
4 -20 -23 -25 -11 -2 -19 -4 -19 -5 0 -1 -8 -3 -18 -5 -21 -4 -40 29 -32 56 5
14 12 18 26 14 10 -4 27 -2 36 4 23 13 30 13 38 1z m300 -97 c11 -7 28 -12 38
-9 14 3 16 1 7 -9 -11 -13 -60 -27 -58 -16 1 3 -6 22 -14 41 -9 19 -18 51 -22
70 -5 29 -3 26 12 -14 10 -26 27 -55 37 -63z m14 18 c-7 -2 -18 4 -26 15 -22
30 -15 39 13 13 16 -15 21 -25 13 -28z m78 -13 c-3 -7 -5 -2 -5 12 0 14 2 19
5 13 2 -7 2 -19 0 -25z m-440 -55 c-3 -10 -5 -4 -5 12 0 17 2 24 5 18 2 -7 2
-21 0 -30z m323 8 c0 -6 -4 -13 -10 -16 -5 -3 -10 1 -10 9 0 9 5 16 10 16 6 0
10 -4 10 -9z m55 -51 c10 -11 16 -23 12 -26 -9 -9 -47 16 -47 31 0 21 14 19
35 -5z m-252 -52 c-6 -12 -31 -9 -39 4 -4 6 1 17 12 25 16 12 19 11 25 -4 4
-10 5 -21 2 -25z m117 -43 c0 -3 -2 -5 -5 -5 -3 0 -5 2 -5 5 0 3 2 5 5 5 3 0
5 -2 5 -5z"/>
<path d="M235 290 c-7 -12 2 -180 11 -212 8 -26 23 -22 30 8 5 18 9 22 15 13
5 -8 10 0 14 24 5 27 1 55 -16 104 -24 66 -40 85 -54 63z m55 -118 c0 -5 -9
-17 -20 -27 -19 -18 -20 -17 -20 2 0 11 3 23 7 26 9 10 33 9 33 -1z"/>
<path d="M370 105 c0 -3 2 -5 5 -5 3 0 5 2 5 5 0 3 -2 5 -5 5 -3 0 -5 -2 -5
-5z"/>
<path d="M480 85 c0 -3 2 -5 5 -5 3 0 5 2 5 5 0 3 -2 5 -5 5 -3 0 -5 -2 -5 -5z"/>
<path d="M470 45 c0 -3 2 -5 5 -5 3 0 5 2 5 5 0 3 -2 5 -5 5 -3 0 -5 -2 -5 -5z"/>
<path d="M269 483 c-13 -17 -13 -17 6 -3 11 8 22 16 24 17 2 2 0 3 -6 3 -6 0
-17 -8 -24 -17z"/>
<path d="M250 446 c0 -8 4 -17 9 -20 5 -4 7 3 4 14 -6 23 -13 26 -13 6z"/>
</g>
</svg>
