<?xml version="1.0" standalone="no"?>
<!DOCTYPE svg PUBLIC "-//W3C//DTD SVG 20010904//EN"
 "http://www.w3.org/TR/2001/REC-SVG-20010904/DTD/svg10.dtd">
<svg version="1.0" xmlns="http://www.w3.org/2000/svg"
 width="56.000000pt" height="56.000000pt" viewBox="0 0 56.000000 56.000000"
 preserveAspectRatio="xMidYMid meet">
<metadata>
Created by potrace 1.16, written by Peter Selinger 2001-2019
</metadata>
<g transform="translate(0.000000,56.000000) scale(0.100000,-0.100000)"
fill="#000000" stroke="none">
<path d="M190 446 c0 -8 5 -18 10 -21 6 -3 10 -1 10 6 0 7 8 5 21 -7 13 -12
33 -18 57 -17 37 2 36 2 -7 -8 -37 -9 -46 -8 -53 4 -6 12 -15 14 -39 7 -45
-13 -48 -20 -5 -13 46 7 48 -10 4 -33 -18 -9 -40 -23 -50 -31 -24 -21 -33 2
-13 35 l16 27 -20 -24 c-24 -27 -26 -39 -6 -65 12 -16 12 -21 0 -40 -19 -26
-19 -46 0 -82 9 -18 15 -23 15 -12 0 9 -4 20 -10 23 -13 8 -13 45 0 65 7 11 8
6 4 -17 -4 -20 -2 -39 5 -47 8 -9 10 -28 5 -50 -4 -23 -2 -42 6 -51 14 -16 65
-20 74 -6 3 5 15 7 27 4 18 -5 48 1 131 27 16 5 30 4 34 -1 12 -20 24 -7 24
24 0 18 4 58 10 88 5 30 12 75 14 101 l6 47 -62 37 c-55 32 -63 34 -74 20 -16
-23 -77 -21 -99 4 -21 24 -35 26 -35 6z m20 -1 c0 -3 -2 -5 -5 -5 -3 0 -5 2
-5 5 0 3 2 5 5 5 3 0 5 -2 5 -5z m141 -22 c1 -5 -5 -9 -14 -11 -12 -3 -15 1
-11 13 6 15 18 14 25 -2z m64 -27 c33 -20 37 -26 23 -31 -10 -4 -18 -13 -18
-20 0 -7 -7 -18 -15 -25 -13 -11 -14 -10 -9 6 4 10 11 24 16 30 5 7 -1 17 -16
28 -28 18 -43 20 -48 8 -1 -5 -24 -23 -50 -40 -26 -18 -60 -48 -75 -67 -33
-41 -47 -43 -68 -11 -31 47 22 92 137 116 32 6 60 16 63 21 9 13 16 12 60 -15z
m-20 -27 c9 -13 -39 -110 -65 -134 -19 -18 -104 -29 -93 -12 2 4 -1 7 -6 7
-35 0 15 72 83 121 40 30 70 37 81 18z m48 -42 c-4 -7 -8 -25 -9 -42 -7 -108
-27 -151 -72 -160 -15 -3 -41 -10 -58 -15 -17 -6 -41 -9 -55 -9 -25 1 19 14
89 26 25 4 40 15 58 44 30 48 30 50 -5 36 -29 -11 -61 -5 -61 12 0 6 24 34 53
63 28 29 51 56 49 61 -1 5 2 6 8 2 6 -3 7 -12 3 -18z m-237 -98 c10 -17 -13
-36 -27 -22 -12 12 -4 33 11 33 5 0 12 -5 16 -11z m89 -38 c7 -12 -12 -24 -25
-16 -11 7 -4 25 10 25 5 0 11 -4 15 -9z m-91 -44 c10 -7 16 -22 14 -33 -5 -27
-71 -28 -76 -1 -9 44 24 61 62 34z"/>
<path d="M420 375 c0 -3 2 -5 5 -5 3 0 5 2 5 5 0 3 -2 5 -5 5 -3 0 -5 -2 -5
-5z"/>
<path d="M406 285 c-11 -8 -15 -15 -9 -15 6 0 16 7 23 15 16 19 11 19 -14 0z"/>
<path d="M190 215 c0 -3 2 -5 5 -5 3 0 5 2 5 5 0 3 -2 5 -5 5 -3 0 -5 -2 -5
-5z"/>
<path d="M280 185 c0 -3 2 -5 5 -5 3 0 5 2 5 5 0 3 -2 5 -5 5 -3 0 -5 -2 -5
-5z"/>
<path d="M169 133 c-13 -16 -12 -17 4 -4 16 13 21 21 13 21 -2 0 -10 -8 -17
-17z"/>
</g>
</svg>
