<?xml version="1.0" standalone="no"?>
<!DOCTYPE svg PUBLIC "-//W3C//DTD SVG 20010904//EN"
 "http://www.w3.org/TR/2001/REC-SVG-20010904/DTD/svg10.dtd">
<svg version="1.0" xmlns="http://www.w3.org/2000/svg"
 width="56.000000pt" height="56.000000pt" viewBox="0 0 56.000000 56.000000"
 preserveAspectRatio="xMidYMid meet">
<metadata>
Created by potrace 1.16, written by Peter Selinger 2001-2019
</metadata>
<g transform="translate(0.000000,56.000000) scale(0.100000,-0.100000)"
fill="#000000" stroke="none">
<path d="M214 525 c-38 -14 -58 -26 -56 -34 2 -8 -3 -18 -10 -22 -19 -12 -28
-11 -28 5 0 12 -70 66 -86 66 -4 0 10 -15 32 -34 37 -32 38 -35 22 -52 -16
-16 -18 -14 -47 32 -17 26 -31 44 -31 40 0 -14 43 -80 57 -89 9 -6 5 -18 -17
-49 -33 -44 -40 -95 -15 -104 11 -5 14 -15 10 -38 -5 -23 -1 -39 14 -58 25
-31 27 -61 6 -78 -8 -7 -15 -19 -15 -27 0 -24 30 -27 54 -4 25 23 46 27 63 10
14 -14 47 -4 38 11 -5 8 -11 8 -20 0 -8 -7 -15 -7 -19 -1 -4 5 2 11 11 14 10
2 -3 4 -29 3 -25 0 -44 -3 -42 -5 7 -8 -17 -41 -31 -41 -19 0 -19 24 0 40 21
17 19 47 -5 77 -11 14 -20 33 -19 42 0 14 1 14 7 1 12 -28 67 -90 78 -90 6 0
17 7 24 15 15 18 -2 45 -29 45 -43 0 -77 101 -36 108 18 2 18 2 2 -8 -29 -19
-19 -28 29 -27 40 0 47 4 56 26 11 29 37 61 50 61 5 0 4 -9 -2 -19 -15 -29
-13 -32 16 -25 18 5 34 0 53 -14 16 -11 32 -17 37 -12 10 9 100 -12 115 -27
15 -15 1 -40 -34 -62 -18 -11 -44 -30 -58 -42 -32 -26 -107 -36 -139 -19 -39
21 -45 -4 -8 -35 18 -16 25 -26 15 -22 -16 6 -16 4 -2 -23 20 -39 48 -38 75 0
16 22 27 29 40 25 14 -4 23 2 33 21 l14 26 36 -32 c54 -47 90 -27 48 27 -21
26 -19 46 10 78 9 11 27 41 39 67 l21 46 -20 39 c-12 21 -28 48 -37 61 -15 20
-15 22 0 22 8 0 25 18 36 41 21 40 21 69 1 69 -20 0 -82 -63 -77 -77 3 -8 -1
-16 -10 -20 -21 -8 -29 4 -14 22 7 9 11 17 9 19 -2 2 -38 14 -80 27 l-75 24
-60 -20z m83 -117 c-25 -16 6 -7 34 9 16 10 27 23 25 30 -8 21 22 15 37 -7
l14 -20 26 20 c14 12 24 27 21 34 -5 13 49 66 67 66 21 0 2 -34 -52 -92 -16
-18 -29 -36 -29 -40 0 -13 18 -9 23 5 2 6 9 -5 16 -26 9 -26 10 -42 2 -50 -7
-9 -4 -16 11 -26 17 -11 22 -10 29 1 6 9 9 9 9 1 0 -21 -19 -24 -45 -7 -21 14
-32 15 -71 5 -35 -9 -49 -9 -60 0 -8 6 -14 9 -14 6 0 -3 -15 10 -34 29 -19 19
-41 34 -50 34 -9 0 -34 -16 -56 -36 -35 -32 -44 -35 -77 -29 -27 4 -44 1 -58
-9 -11 -9 -23 -16 -27 -16 -14 0 -9 40 8 73 19 36 34 48 47 40 5 -3 6 4 3 15
-8 26 8 37 24 17 16 -20 26 -19 47 4 10 11 31 25 47 31 28 10 29 10 23 -22 -8
-44 8 -10 24 52 l12 45 18 -65 c13 -48 15 -67 6 -72z m-46 103 c-12 -21 -70
-36 -84 -22 -8 8 36 27 91 40 1 1 -2 -7 -7 -18z m103 -13 c-9 -15 -43 -8 -53
11 -10 18 -8 18 24 8 19 -5 32 -14 29 -19z m107 -304 c-27 -34 -27 -59 1 -78
17 -12 19 -19 11 -27 -9 -9 -21 -4 -47 19 -33 29 -37 30 -64 16 -16 -7 -37
-23 -47 -34 -10 -11 -30 -21 -44 -21 -17 -1 -20 -3 -8 -6 9 -2 15 -9 12 -14
-9 -14 -32 -11 -39 6 -4 10 3 17 22 21 15 4 41 20 59 37 23 22 43 31 69 31 23
1 39 7 42 16 5 15 42 60 49 60 3 0 -5 -12 -16 -26z"/>
<path d="M150 400 c-11 -11 -20 -26 -19 -32 0 -7 5 -3 11 10 13 26 38 30 38 5
0 -16 1 -16 16 -1 18 17 11 38 -12 38 -8 0 -23 -9 -34 -20z"/>
<path d="M270 405 c0 -3 2 -5 5 -5 3 0 5 2 5 5 0 3 -2 5 -5 5 -3 0 -5 -2 -5
-5z"/>
<path d="M346 395 c-11 -8 -15 -15 -9 -15 7 0 15 5 18 10 9 15 25 12 25 -4 0
-7 7 -19 16 -27 14 -11 15 -9 12 17 -4 34 -32 42 -62 19z"/>
<path d="M450 385 c0 -3 2 -5 5 -5 3 0 5 2 5 5 0 3 -2 5 -5 5 -3 0 -5 -2 -5
-5z"/>
<path d="M320 346 c0 -2 7 -6 15 -10 8 -3 15 -1 15 4 0 6 -7 10 -15 10 -8 0
-15 -2 -15 -4z"/>
<path d="M202 285 c-24 -13 -51 -24 -60 -23 -9 1 -27 0 -39 0 -22 -2 -22 -3
-6 -22 10 -11 25 -20 35 -20 23 0 63 -56 46 -64 -7 -3 -3 -3 9 0 12 3 32 0 44
-6 35 -19 103 -3 151 36 67 54 68 54 68 62 0 14 -63 32 -75 22 -14 -12 -40 -4
-74 22 -31 24 -47 23 -99 -7z m72 -6 c-3 -5 -10 -7 -15 -3 -5 3 -7 10 -3 15 3
5 10 7 15 3 5 -3 7 -10 3 -15z m-39 -19 c-4 -6 1 -7 11 -3 11 4 15 2 12 -7 -7
-22 -23 -22 -49 -1 l-24 20 28 1 c16 0 26 -4 22 -10z m94 1 c11 -7 9 -11 -8
-20 -22 -12 -41 -7 -41 11 0 5 7 7 16 4 8 -3 12 -2 9 4 -8 12 5 13 24 1z m-18
-62 c-13 -11 -31 -17 -38 -14 -8 3 -20 5 -26 6 -16 1 54 27 73 28 10 0 7 -6
-9 -20z"/>
<path d="M300 205 c0 -3 2 -5 5 -5 3 0 5 2 5 5 0 3 -2 5 -5 5 -3 0 -5 -2 -5
-5z"/>
</g>
</svg>
