<?xml version="1.0" standalone="no"?>
<!DOCTYPE svg PUBLIC "-//W3C//DTD SVG 20010904//EN"
 "http://www.w3.org/TR/2001/REC-SVG-20010904/DTD/svg10.dtd">
<svg version="1.0" xmlns="http://www.w3.org/2000/svg"
 width="56.000000pt" height="56.000000pt" viewBox="0 0 56.000000 56.000000"
 preserveAspectRatio="xMidYMid meet">
<metadata>
Created by potrace 1.16, written by Peter Selinger 2001-2019
</metadata>
<g transform="translate(0.000000,56.000000) scale(0.100000,-0.100000)"
fill="#000000" stroke="none">
<path d="M160 495 c0 -3 2 -5 5 -5 3 0 5 2 5 5 0 3 -2 5 -5 5 -3 0 -5 -2 -5
-5z"/>
<path d="M190 475 c0 -3 2 -5 5 -5 3 0 5 2 5 5 0 3 -2 5 -5 5 -3 0 -5 -2 -5
-5z"/>
<path d="M210 471 c0 -6 4 -13 10 -16 6 -3 7 1 4 9 -7 18 -14 21 -14 7z"/>
<path d="M260 475 c0 -3 2 -5 5 -5 3 0 5 2 5 5 0 3 -2 5 -5 5 -3 0 -5 -2 -5
-5z"/>
<path d="M130 465 c0 -3 2 -5 5 -5 3 0 5 2 5 5 0 3 -2 5 -5 5 -3 0 -5 -2 -5
-5z"/>
<path d="M240 465 c0 -3 2 -5 5 -5 3 0 5 2 5 5 0 3 -2 5 -5 5 -3 0 -5 -2 -5
-5z"/>
<path d="M300 465 c0 -3 2 -5 5 -5 3 0 5 2 5 5 0 3 -2 5 -5 5 -3 0 -5 -2 -5
-5z"/>
<path d="M261 452 c-1 -7 -5 -11 -9 -8 -5 3 -9 0 -10 -7 0 -7 -3 -24 -5 -39
-2 -16 2 -33 9 -39 12 -10 13 -4 9 30 -5 38 6 54 20 31 3 -5 2 -10 -3 -10 -10
0 -9 -30 2 -48 6 -11 -4 -16 -20 -9 -4 1 -10 -7 -15 -18 -6 -17 -8 -17 -8 -2
-1 9 -6 17 -12 17 -5 0 -8 -4 -5 -8 3 -5 -1 -9 -9 -9 -11 0 -12 3 -3 14 9 11
7 15 -10 20 -23 6 -28 18 -13 28 16 9 8 43 -9 40 -8 -1 -15 -6 -15 -12 0 -5
-8 -17 -17 -27 -10 -9 -15 -24 -11 -34 3 -9 3 -14 -2 -10 -4 4 -15 2 -23 -5
-9 -6 -13 -7 -9 -1 3 6 0 11 -7 11 -8 0 -12 -6 -9 -14 3 -7 -2 -13 -11 -13
-13 0 -15 -7 -10 -42 5 -29 4 -39 -4 -34 -8 5 -10 1 -5 -9 4 -12 8 -13 13 -5
10 16 20 -1 25 -40 3 -19 0 -30 -8 -30 -8 0 -7 -3 2 -9 8 -5 20 -7 27 -4 6 2
15 -1 19 -6 3 -6 11 -8 17 -5 7 4 8 2 4 -5 -6 -9 -11 -9 -21 -1 -9 8 -15 8
-20 0 -6 -10 -5 -11 15 -14 6 0 14 -5 18 -11 4 -5 14 -11 22 -13 11 -2 11 1
-3 12 -15 12 -15 14 -2 19 10 4 17 -2 21 -19 4 -14 9 -22 12 -19 3 3 13 -2 22
-10 15 -13 17 -13 17 0 0 8 -2 13 -5 11 -2 -2 -13 5 -24 16 -11 11 -17 22 -14
26 4 3 12 -3 20 -13 12 -17 16 -18 32 -5 11 9 15 10 10 2 -4 -6 -2 -12 3 -12
6 0 11 7 11 16 0 12 3 14 13 6 10 -8 16 -6 26 10 9 15 9 18 0 13 -8 -5 -10 -4
-5 3 4 7 19 9 35 6 18 -4 32 -1 36 7 5 7 4 10 -2 6 -13 -8 -49 30 -39 41 4 4
14 -2 22 -12 7 -11 17 -16 21 -13 3 4 3 7 -1 7 -4 0 -2 9 4 21 9 15 15 18 25
9 10 -8 15 -8 21 1 4 7 3 9 -3 6 -6 -4 -17 1 -24 10 -12 14 -12 16 2 11 23 -9
47 8 33 22 -9 9 -14 9 -18 1 -4 -6 -12 -11 -18 -11 -6 0 -3 9 7 20 15 16 21
18 34 7 14 -11 14 -10 2 5 -11 14 -17 15 -35 6 -18 -10 -19 -9 -8 4 13 16 6
52 -8 43 -11 -7 -33 22 -26 34 3 5 -1 12 -10 15 -22 8 -26 8 -19 -3 3 -5 1
-12 -4 -15 -5 -3 -12 11 -16 32 -6 31 -9 34 -15 17 -8 -19 -8 -19 -18 5 -6 14
-11 19 -11 12z m-94 -59 c-11 -11 -17 -13 -17 -5 0 7 5 12 11 12 6 0 8 7 4 18
-5 14 -4 15 6 4 11 -10 10 -15 -4 -29z m131 -2 c-1 -16 -5 -28 -9 -25 -4 2 -6
12 -4 22 2 9 4 20 4 25 1 4 3 7 6 7 3 0 4 -13 3 -29z m-153 -21 c3 -5 4 -10 1
-10 -3 0 -8 5 -11 10 -3 6 -4 10 -1 10 3 0 8 -4 11 -10z m39 -19 c-3 -3 -9 -6
-12 -6 -13 0 -52 -32 -46 -37 3 -3 1 -9 -4 -12 -5 -3 -9 5 -8 17 0 12 6 22 13
22 7 0 17 5 23 11 6 6 17 11 25 11 8 0 12 -3 9 -6z m153 -31 c-6 -47 -21 -68
-56 -81 -19 -8 -29 -6 -44 9 -18 19 -18 20 35 66 29 25 57 46 62 46 5 0 6 -18
3 -40z m53 8 c0 -4 -4 -8 -9 -8 -6 0 -12 4 -15 8 -3 5 1 9 9 9 8 0 15 -4 15
-9z m-290 -14 c0 -8 -5 -12 -10 -9 -6 4 -8 11 -5 16 9 14 15 11 15 -7z m80 11
c0 -3 -2 -5 -5 -5 -3 0 -5 2 -5 5 0 3 2 5 5 5 3 0 5 -2 5 -5z m-110 -10 c0 -3
-2 -5 -5 -5 -3 0 -5 2 -5 5 0 3 2 5 5 5 3 0 5 -2 5 -5z m145 -5 c3 -5 4 -10 1
-10 -3 0 -8 5 -11 10 -3 6 -4 10 -1 10 3 0 8 -4 11 -10z m155 -15 c0 -8 -4
-16 -9 -19 -5 -3 -8 5 -7 18 1 25 16 26 16 1z m-210 11 c0 -2 -8 -10 -17 -17
-16 -13 -17 -12 -4 4 13 16 21 21 21 13z m20 -1 c0 -3 -2 -5 -5 -5 -3 0 -5 2
-5 5 0 3 2 5 5 5 3 0 5 -2 5 -5z m1 -32 c13 -16 12 -17 -3 -4 -10 7 -18 15
-18 17 0 8 8 3 21 -13z m-31 -21 c40 -20 44 -33 13 -47 -12 -5 -24 -16 -25
-24 -2 -8 -12 -15 -23 -16 -14 -1 -20 5 -21 23 -2 18 2 22 15 18 14 -5 14 -4
-1 7 -10 8 -22 26 -28 41 -9 26 -9 27 12 21 13 -4 39 -14 58 -23z m270 24 c0
-3 -5 -8 -12 -12 -7 -4 -8 -3 -4 4 7 12 16 16 16 8z m-200 -117 c17 -31 7 -33
-20 -4 -19 20 -20 25 -7 25 9 0 21 -9 27 -21z m-50 -4 c0 -3 -2 -5 -5 -5 -3 0
-5 2 -5 5 0 3 2 5 5 5 3 0 5 -2 5 -5z m-50 -20 c0 -3 -2 -5 -5 -5 -3 0 -5 2
-5 5 0 3 2 5 5 5 3 0 5 -2 5 -5z"/>
<path d="M250 250 c0 -7 3 -10 7 -7 3 4 3 10 0 14 -4 3 -7 0 -7 -7z"/>
<path d="M160 230 c0 -7 3 -10 7 -7 3 4 3 10 0 14 -4 3 -7 0 -7 -7z"/>
<path d="M375 450 c3 -5 8 -10 11 -10 3 0 2 5 -1 10 -3 6 -8 10 -11 10 -3 0
-2 -4 1 -10z"/>
<path d="M140 445 c0 -3 2 -5 5 -5 3 0 5 2 5 5 0 3 -2 5 -5 5 -3 0 -5 -2 -5
-5z"/>
<path d="M202 427 c1 -16 7 -23 15 -20 17 7 16 18 -2 33 -13 11 -15 9 -13 -13z
m18 -2 c0 -3 -2 -5 -5 -5 -3 0 -5 2 -5 5 0 3 2 5 5 5 3 0 5 -2 5 -5z"/>
<path d="M313 441 c4 -18 27 -27 27 -11 0 6 -4 9 -9 6 -5 -4 -12 0 -15 6 -4 9
-5 8 -3 -1z"/>
<path d="M355 429 c-4 -6 -5 -12 -2 -15 2 -3 7 2 10 11 7 17 1 20 -8 4z"/>
<path d="M390 425 c0 -3 2 -5 5 -5 3 0 5 2 5 5 0 3 -2 5 -5 5 -3 0 -5 -2 -5
-5z"/>
<path d="M440 425 c0 -3 2 -5 5 -5 3 0 5 2 5 5 0 3 -2 5 -5 5 -3 0 -5 -2 -5
-5z"/>
<path d="M120 415 c0 -3 2 -5 5 -5 3 0 5 2 5 5 0 3 -2 5 -5 5 -3 0 -5 -2 -5
-5z"/>
<path d="M414 408 c-4 -7 -3 -8 4 -4 12 7 16 16 8 16 -3 0 -8 -5 -12 -12z"/>
<path d="M390 405 c0 -3 2 -5 5 -5 3 0 5 2 5 5 0 3 -2 5 -5 5 -3 0 -5 -2 -5
-5z"/>
<path d="M90 395 c0 -3 2 -5 5 -5 3 0 5 2 5 5 0 3 -2 5 -5 5 -3 0 -5 -2 -5 -5z"/>
<path d="M220 390 c0 -5 -7 -6 -17 -3 -24 9 -7 -14 20 -28 17 -9 20 -9 10 1
-6 7 -9 19 -6 26 3 8 2 14 -1 14 -3 0 -6 -4 -6 -10z"/>
<path d="M364 378 c-4 -7 -3 -8 4 -4 12 7 16 16 8 16 -3 0 -8 -5 -12 -12z"/>
<path d="M390 385 c0 -3 2 -5 5 -5 3 0 5 2 5 5 0 3 -2 5 -5 5 -3 0 -5 -2 -5
-5z"/>
<path d="M440 365 c0 -3 2 -5 5 -5 3 0 5 2 5 5 0 3 -2 5 -5 5 -3 0 -5 -2 -5
-5z"/>
<path d="M400 355 c0 -3 2 -5 5 -5 3 0 5 2 5 5 0 3 -2 5 -5 5 -3 0 -5 -2 -5
-5z"/>
<path d="M414 338 c-4 -7 -3 -8 4 -4 7 4 12 9 12 12 0 8 -9 4 -16 -8z"/>
<path d="M444 318 c-4 -7 -3 -8 4 -4 7 4 12 9 12 12 0 8 -9 4 -16 -8z"/>
<path d="M460 295 c0 -3 2 -5 5 -5 3 0 5 2 5 5 0 3 -2 5 -5 5 -3 0 -5 -2 -5
-5z"/>
<path d="M490 295 c0 -3 2 -5 5 -5 3 0 5 2 5 5 0 3 -2 5 -5 5 -3 0 -5 -2 -5
-5z"/>
<path d="M440 225 c0 -3 2 -5 5 -5 3 0 5 2 5 5 0 3 -2 5 -5 5 -3 0 -5 -2 -5
-5z"/>
<path d="M56 197 c3 -10 9 -15 12 -12 3 3 0 11 -7 18 -10 9 -11 8 -5 -6z"/>
<path d="M380 205 c0 -3 2 -5 5 -5 3 0 5 2 5 5 0 3 -2 5 -5 5 -3 0 -5 -2 -5
-5z"/>
<path d="M400 200 c0 -7 3 -10 7 -7 3 4 3 10 0 14 -4 3 -7 0 -7 -7z"/>
<path d="M435 190 c3 -5 8 -10 11 -10 3 0 2 5 -1 10 -3 6 -8 10 -11 10 -3 0
-2 -4 1 -10z"/>
<path d="M410 175 c0 -3 2 -5 5 -5 3 0 5 2 5 5 0 3 -2 5 -5 5 -3 0 -5 -2 -5
-5z"/>
<path d="M388 161 c1 -3 -8 -11 -20 -19 -13 -7 -16 -11 -7 -8 9 2 21 0 25 -4
5 -5 14 -6 20 -2 8 5 6 12 -5 22 -9 8 -15 13 -13 11z m12 -26 c0 -3 -2 -5 -5
-5 -3 0 -5 2 -5 5 0 3 2 5 5 5 3 0 5 -2 5 -5z"/>
<path d="M420 155 c0 -3 2 -5 5 -5 3 0 5 2 5 5 0 3 -2 5 -5 5 -3 0 -5 -2 -5
-5z"/>
<path d="M324 128 c-4 -7 -3 -8 4 -4 7 4 12 9 12 12 0 8 -9 4 -16 -8z"/>
<path d="M366 103 c-6 -14 -5 -15 5 -6 7 7 10 15 7 18 -3 3 -9 -2 -12 -12z"/>
<path d="M335 100 c-3 -5 -1 -10 4 -10 6 0 11 5 11 10 0 6 -2 10 -4 10 -3 0
-8 -4 -11 -10z"/>
<path d="M240 95 c0 -3 2 -5 5 -5 3 0 5 2 5 5 0 3 -2 5 -5 5 -3 0 -5 -2 -5 -5z"/>
<path d="M265 90 c3 -5 8 -10 11 -10 3 0 2 5 -1 10 -3 6 -8 10 -11 10 -3 0 -2
-4 1 -10z"/>
<path d="M250 75 c0 -3 2 -5 5 -5 3 0 5 2 5 5 0 3 -2 5 -5 5 -3 0 -5 -2 -5 -5z"/>
<path d="M210 45 c0 -3 2 -5 5 -5 3 0 5 2 5 5 0 3 -2 5 -5 5 -3 0 -5 -2 -5 -5z"/>
</g>
</svg>
