<?xml version="1.0" standalone="no"?>
<!DOCTYPE svg PUBLIC "-//W3C//DTD SVG 20010904//EN"
 "http://www.w3.org/TR/2001/REC-SVG-20010904/DTD/svg10.dtd">
<svg version="1.0" xmlns="http://www.w3.org/2000/svg"
 width="56.000000pt" height="56.000000pt" viewBox="0 0 56.000000 56.000000"
 preserveAspectRatio="xMidYMid meet">
<metadata>
Created by potrace 1.16, written by Peter Selinger 2001-2019
</metadata>
<g transform="translate(0.000000,56.000000) scale(0.100000,-0.100000)"
fill="#000000" stroke="none">
<path d="M346 481 c-23 -24 -37 -29 -93 -34 -46 -3 -74 -12 -97 -28 -19 -14
-26 -16 -17 -6 8 10 12 19 10 21 -6 6 -88 46 -93 46 -2 0 4 -28 15 -62 23 -77
23 -71 -1 -65 -23 6 -24 1 -5 -33 19 -34 19 -50 -2 -50 -15 -1 -13 -5 9 -24
25 -22 25 -24 7 -29 -23 -6 -36 -34 -21 -49 8 -8 15 -8 24 -1 7 6 27 12 44 15
41 5 39 -11 -5 -56 -35 -36 -37 -70 -4 -64 10 1 24 -1 31 -5 17 -12 32 0 48
40 20 46 8 60 -25 31 l-26 -23 23 27 24 26 36 -21 c21 -12 40 -26 44 -32 4 -5
8 -1 8 11 0 11 10 29 23 40 l22 19 -18 -22 c-10 -12 -17 -30 -15 -40 4 -20 37
-30 47 -14 5 8 16 8 39 0 18 -6 30 -15 27 -19 -3 -4 4 -6 15 -3 22 6 26 18 10
28 -17 10 -12 22 18 40 l27 18 -23 -26 -24 -25 22 -12 c12 -7 20 -8 17 -2 -4
5 4 14 17 20 21 9 24 18 24 56 -1 53 -19 76 -43 56 -13 -11 -14 -10 -9 5 5 12
1 23 -12 32 -18 15 -18 15 3 9 32 -10 38 11 8 27 l-26 13 37 48 c20 26 34 50
31 52 -3 3 -22 1 -44 -5 -63 -18 -64 -17 -57 44 8 65 -6 72 -50 26z m-216 -96
c0 -3 -2 -5 -5 -5 -3 0 -5 2 -5 5 0 3 2 5 5 5 3 0 5 -2 5 -5z m210 -36 c0 -38
-52 -78 -76 -58 -11 9 -14 9 -14 -1 0 -8 -3 -11 -6 -7 -8 8 33 60 54 69 26 10
42 9 42 -3z m17 -63 c-8 -25 -16 -34 -19 -25 -3 8 2 32 10 54 20 49 28 24 9
-29z m-213 23 c16 -8 22 -17 18 -28 -5 -14 -3 -14 10 -3 13 11 18 11 24 0 4
-7 4 -10 -1 -6 -4 4 -14 3 -22 -3 -15 -13 -37 1 -54 33 -11 21 -8 22 25 7z
m180 -84 c-6 -25 -7 -25 -25 -9 -18 16 -19 16 -19 -5 0 -13 -4 -19 -10 -16 -6
4 -8 16 -4 28 9 30 11 32 29 17 13 -11 15 -8 15 16 1 24 2 26 11 12 5 -10 7
-29 3 -43z m-134 -26 c0 -14 -3 -12 -45 33 l-40 42 43 -33 c23 -18 42 -37 42
-42z m230 66 c0 -3 -2 -5 -5 -5 -3 0 -5 2 -5 5 0 3 2 5 5 5 3 0 5 -2 5 -5z
m-10 -20 c0 -3 -2 -5 -5 -5 -3 0 -5 2 -5 5 0 3 2 5 5 5 3 0 5 -2 5 -5z m-180
-21 c0 10 5 16 10 14 6 -1 10 -6 10 -10 0 -5 0 -18 0 -29 0 -18 -2 -19 -15 -9
-12 10 -15 10 -15 -1 0 -17 -29 22 -30 40 0 11 5 10 20 -4 19 -17 20 -17 20
-1z m167 -11 c-4 -3 -7 0 -7 7 0 7 3 10 7 7 3 -4 3 -10 0 -14z m-257 -8 c0 -3
-2 -5 -5 -5 -3 0 -5 2 -5 5 0 3 2 5 5 5 3 0 5 -2 5 -5z m250 -15 c0 -5 -7 -7
-15 -4 -8 4 -15 8 -15 10 0 2 7 4 15 4 8 0 15 -4 15 -10z m33 -22 c-10 -18
-30 -35 -46 -39 -30 -8 -33 -3 -13 24 14 18 14 18 18 0 3 -15 8 -12 28 15 30
41 37 41 13 0z m-73 18 c0 -3 -5 -8 -12 -12 -7 -4 -8 -3 -4 4 7 12 16 16 16 8z"/>
<path d="M265 300 c3 -5 8 -10 11 -10 2 0 4 5 4 10 0 6 -5 10 -11 10 -5 0 -7
-4 -4 -10z"/>
<path d="M160 495 c0 -3 2 -5 5 -5 3 0 5 2 5 5 0 3 -2 5 -5 5 -3 0 -5 -2 -5
-5z"/>
<path d="M220 475 c0 -3 2 -5 5 -5 3 0 5 2 5 5 0 3 -2 5 -5 5 -3 0 -5 -2 -5
-5z"/>
<path d="M270 475 c0 -3 2 -5 5 -5 3 0 5 2 5 5 0 3 -2 5 -5 5 -3 0 -5 -2 -5
-5z"/>
<path d="M290 475 c0 -3 2 -5 5 -5 3 0 5 2 5 5 0 3 -2 5 -5 5 -3 0 -5 -2 -5
-5z"/>
<path d="M150 465 c0 -3 2 -5 5 -5 3 0 5 2 5 5 0 3 -2 5 -5 5 -3 0 -5 -2 -5
-5z"/>
<path d="M420 465 c0 -3 2 -5 5 -5 3 0 5 2 5 5 0 3 -2 5 -5 5 -3 0 -5 -2 -5
-5z"/>
<path d="M450 455 c0 -3 2 -5 5 -5 3 0 5 2 5 5 0 3 -2 5 -5 5 -3 0 -5 -2 -5
-5z"/>
<path d="M430 435 c0 -3 2 -5 5 -5 3 0 5 2 5 5 0 3 -2 5 -5 5 -3 0 -5 -2 -5
-5z"/>
<path d="M450 435 c0 -3 2 -5 5 -5 3 0 5 2 5 5 0 3 -2 5 -5 5 -3 0 -5 -2 -5
-5z"/>
<path d="M50 395 c0 -3 2 -5 5 -5 3 0 5 2 5 5 0 3 -2 5 -5 5 -3 0 -5 -2 -5 -5z"/>
<path d="M470 335 c0 -3 2 -5 5 -5 3 0 5 2 5 5 0 3 -2 5 -5 5 -3 0 -5 -2 -5
-5z"/>
<path d="M70 145 c-21 -22 -22 -27 -9 -40 13 -13 19 -10 50 25 l36 40 -27 0
c-15 0 -36 -10 -50 -25z"/>
<path d="M250 105 c0 -3 2 -5 5 -5 3 0 5 2 5 5 0 3 -2 5 -5 5 -3 0 -5 -2 -5
-5z"/>
<path d="M337 86 c-16 -12 -15 -14 13 -26 38 -16 46 -9 23 18 -16 18 -20 20
-36 8z"/>
</g>
</svg>
