<?xml version="1.0" standalone="no"?>
<!DOCTYPE svg PUBLIC "-//W3C//DTD SVG 20010904//EN"
 "http://www.w3.org/TR/2001/REC-SVG-20010904/DTD/svg10.dtd">
<svg version="1.0" xmlns="http://www.w3.org/2000/svg"
 width="56.000000pt" height="56.000000pt" viewBox="0 0 56.000000 56.000000"
 preserveAspectRatio="xMidYMid meet">
<metadata>
Created by potrace 1.16, written by Peter Selinger 2001-2019
</metadata>
<g transform="translate(0.000000,56.000000) scale(0.100000,-0.100000)"
fill="#000000" stroke="none">
<path d="M153 478 c12 -29 11 -37 -7 -67 -14 -24 -21 -58 -24 -115 -4 -78 -3
-83 28 -126 24 -34 25 -38 6 -17 -24 25 -27 26 -33 10 -3 -10 -12 -25 -20 -34
-12 -14 -10 -18 17 -29 18 -8 44 -10 67 -5 36 7 37 7 18 22 -22 17 -15 15 28
-7 25 -12 30 -12 38 1 7 12 9 12 9 -1 0 -12 2 -13 9 -1 7 11 9 11 14 0 4 -10
8 -11 14 -3 4 6 27 21 50 33 23 11 47 29 52 38 6 10 11 13 11 7 0 -14 -27 -37
-68 -58 l-33 -17 49 -33 c35 -25 56 -33 75 -29 32 6 31 2 11 64 -15 44 -15 52
-1 67 41 47 59 122 21 91 -22 -18 -37 30 -16 54 14 16 13 17 -8 17 -22 0 -22
1 -6 19 17 18 16 20 -4 26 -18 6 -19 9 -8 23 11 13 10 15 -11 9 -22 -6 -22 -4
8 27 36 38 31 52 -11 30 -37 -19 -96 -10 -77 12 14 17 5 18 -23 3 -17 -9 -23
-8 -30 5 -9 16 -11 16 -35 1 -18 -12 -28 -13 -38 -5 -9 8 -14 6 -19 -6 -6 -15
-9 -15 -29 5 -32 30 -39 26 -24 -11z m37 -145 c0 -7 -6 -13 -14 -13 -15 0 -26
21 -26 47 0 14 3 14 20 -2 11 -10 20 -24 20 -32z m120 -2 c0 -23 -42 -41 -48
-21 -3 9 -6 9 -13 -1 -7 -11 -9 -11 -9 -1 0 10 46 38 68 42 1 0 2 -9 2 -19z
m26 -66 c-9 -14 -20 -25 -25 -25 -8 0 -25 31 -19 34 16 10 54 23 57 20 2 -2
-4 -15 -13 -29z m-119 1 c14 2 28 -4 38 -18 8 -13 15 -17 15 -11 0 7 -5 15
-10 18 -11 7 -4 25 9 25 4 0 13 -11 19 -25 10 -22 9 -25 -12 -31 -27 -6 -66
10 -66 29 0 9 -3 8 -9 -1 -6 -10 -13 -6 -26 15 -18 27 -18 28 1 12 10 -9 29
-15 41 -13z m220 -53 c-4 -3 -7 0 -7 7 0 7 3 10 7 7 3 -4 3 -10 0 -14z m-134
-13 c-20 -12 -36 -32 -42 -52 -7 -26 -9 -28 -10 -10 -1 25 48 82 71 82 7 0 -1
-9 -19 -20z"/>
<path d="M170 340 c0 -7 3 -10 7 -7 3 4 3 10 0 14 -4 3 -7 0 -7 -7z"/>
<path d="M320 270 c0 -7 3 -10 7 -7 3 4 3 10 0 14 -4 3 -7 0 -7 -7z"/>
<path d="M220 256 c0 -2 8 -10 18 -17 15 -13 16 -12 3 4 -13 16 -21 21 -21 13z"/>
<path d="M69 301 c-16 -16 -29 -34 -29 -39 0 -18 29 -34 50 -27 16 5 20 15 20
51 0 24 -3 44 -6 44 -3 0 -19 -13 -35 -29z"/>
</g>
</svg>
