<?xml version="1.0" standalone="no"?>
<!DOCTYPE svg PUBLIC "-//W3C//DTD SVG 20010904//EN"
 "http://www.w3.org/TR/2001/REC-SVG-20010904/DTD/svg10.dtd">
<svg version="1.0" xmlns="http://www.w3.org/2000/svg"
 width="56.000000pt" height="56.000000pt" viewBox="0 0 56.000000 56.000000"
 preserveAspectRatio="xMidYMid meet">
<metadata>
Created by potrace 1.16, written by Peter Selinger 2001-2019
</metadata>
<g transform="translate(0.000000,56.000000) scale(0.100000,-0.100000)"
fill="#000000" stroke="none">
<path d="M135 540 c-4 -6 -4 -24 0 -40 4 -19 1 -37 -10 -54 -12 -18 -15 -36
-11 -61 8 -40 25 -56 20 -20 -3 30 -1 30 17 8 11 -13 11 -15 1 -9 -9 5 -13 3
-11 -5 1 -8 -1 -22 -6 -32 -13 -31 10 -65 56 -78 41 -13 42 -12 70 19 16 18
29 39 29 48 0 13 5 12 29 -5 16 -12 34 -21 41 -21 6 0 20 -10 30 -22 17 -21
17 -23 -7 -41 -17 -14 -23 -27 -20 -43 3 -15 -1 -24 -9 -24 -7 0 -21 -10 -31
-23 -11 -14 -26 -21 -41 -19 -13 2 -32 -4 -43 -14 -18 -16 -20 -16 -37 -1 -10
10 -24 17 -31 17 -18 0 -56 51 -53 71 1 9 -4 22 -13 29 -8 7 -13 22 -11 34 2
11 1 15 -1 9 -5 -15 -23 -18 -23 -4 0 5 6 14 14 20 18 15 19 81 0 81 -24 0
-71 -107 -54 -124 5 -5 6 -22 3 -39 -4 -20 -1 -34 9 -41 8 -6 14 -24 14 -41
-1 -24 4 -31 29 -40 16 -5 40 -21 51 -35 13 -15 34 -25 55 -27 19 -2 51 -6 72
-9 43 -7 77 15 77 50 0 15 3 17 12 8 29 -29 98 8 98 52 0 9 16 33 36 51 29 28
35 39 29 57 -8 28 -8 32 1 85 6 36 3 44 -19 65 -13 13 -45 42 -69 65 -50 47
-86 60 -116 44 -14 -8 -29 -8 -47 -1 -14 5 -39 10 -55 10 -22 0 -30 6 -39 30
-10 30 -25 38 -36 20z m40 -83 c7 -28 12 -53 10 -55 -6 -6 -34 65 -40 103 -9
55 11 23 30 -48z m55 8 c11 -13 15 -13 21 -3 7 10 9 10 9 -2 -1 -29 -58 -76
-61 -50 -9 66 4 87 31 55z m-83 -53 c-17 -21 -31 3 -16 29 12 23 12 23 19 4 4
-11 3 -26 -3 -33z m277 19 c19 -20 19 -90 1 -81 -5 3 -9 10 -7 15 2 6 -2 4 -9
-2 -10 -10 -16 -9 -31 4 -23 21 -23 43 0 43 9 0 24 5 32 10 11 8 8 9 -12 4
-26 -6 -37 4 -21 19 11 12 29 7 47 -12z m-114 -17 c0 -8 -7 -14 -15 -14 -15 0
-21 21 -9 33 10 9 24 -2 24 -19z m-62 -39 c1 -16 -4 -28 -14 -32 -24 -9 -36
18 -17 39 22 24 28 23 31 -7z m-70 -45 c-4 -45 -4 -44 24 -29 25 14 21 -9 -5
-25 -23 -15 -51 4 -54 35 -2 21 -2 22 6 4 7 -17 9 -14 15 18 9 49 19 47 14 -3z
m329 -4 c3 -23 1 -36 -7 -36 -6 0 -8 -4 -5 -10 3 -5 0 -7 -7 -5 -8 3 -19 19
-25 35 -10 26 -9 32 10 45 25 18 28 16 34 -29z m-212 24 c-3 -5 -13 -10 -21
-10 -8 0 -12 5 -9 10 3 6 13 10 21 10 8 0 12 -4 9 -10z m-58 -97 c-4 -3 -10
-3 -14 0 -3 4 0 7 7 7 7 0 10 -3 7 -7z m251 -45 c18 -18 15 -26 -18 -43 -38
-20 -40 -19 -40 8 0 24 17 47 35 47 6 0 16 -5 23 -12z m-378 -8 c0 -12 -40
-34 -47 -26 -9 8 17 36 33 36 8 0 14 -4 14 -10z m28 -82 c-7 -19 -35 -21 -41
-3 -5 11 0 15 19 15 16 0 24 -5 22 -12z m301 -13 c2 -13 -1 -16 -12 -12 -11 4
-14 1 -10 -9 3 -7 0 -14 -6 -14 -12 0 -14 20 -5 45 8 20 28 14 33 -10z m-240
-9 c17 -20 -13 -43 -34 -26 -8 7 -15 19 -15 26 0 18 34 18 49 0z m107 -57 c10
-8 11 -16 5 -22 -12 -12 -33 1 -24 16 3 7 -3 4 -14 -6 -19 -16 -21 -16 -37 2
-10 11 -15 24 -12 30 7 11 60 -2 82 -20z m-26 -24 c0 -3 -2 -5 -5 -5 -3 0 -5
2 -5 5 0 3 2 5 5 5 3 0 5 -2 5 -5z"/>
<path d="M200 425 c0 -3 2 -5 5 -5 3 0 5 2 5 5 0 3 -2 5 -5 5 -3 0 -5 -2 -5
-5z"/>
<path d="M215 371 c-3 -5 0 -13 6 -17 7 -4 9 -3 5 4 -3 5 0 13 6 15 9 4 10 6
1 6 -6 1 -14 -3 -18 -8z"/>
<path d="M460 335 c0 -3 2 -5 5 -5 3 0 5 2 5 5 0 3 -2 5 -5 5 -3 0 -5 -2 -5
-5z"/>
<path d="M180 75 c0 -3 2 -5 5 -5 3 0 5 2 5 5 0 3 -2 5 -5 5 -3 0 -5 -2 -5 -5z"/>
</g>
</svg>
