<?xml version="1.0" standalone="no"?>
<!DOCTYPE svg PUBLIC "-//W3C//DTD SVG 20010904//EN"
 "http://www.w3.org/TR/2001/REC-SVG-20010904/DTD/svg10.dtd">
<svg version="1.0" xmlns="http://www.w3.org/2000/svg"
 width="56.000000pt" height="56.000000pt" viewBox="0 0 56.000000 56.000000"
 preserveAspectRatio="xMidYMid meet">
<metadata>
Created by potrace 1.16, written by Peter Selinger 2001-2019
</metadata>
<g transform="translate(0.000000,56.000000) scale(0.100000,-0.100000)"
fill="#000000" stroke="none">
<path d="M170 488 c-11 -18 -23 -54 -26 -81 -5 -37 -9 -45 -19 -37 -15 12 -62
4 -72 -13 -3 -5 -7 -23 -9 -38 -3 -21 2 -32 19 -40 12 -7 33 -24 47 -39 14
-15 32 -29 40 -32 13 -4 12 -10 -4 -40 -15 -27 -16 -39 -8 -55 9 -16 8 -24 -3
-33 -8 -7 -15 -19 -15 -26 0 -18 126 -20 132 -3 3 9 25 9 88 0 100 -13 170
-14 170 -2 0 5 -7 46 -16 91 -8 45 -12 90 -8 99 4 9 8 21 9 27 0 6 6 18 13 26
10 12 9 21 -2 43 -15 29 -54 61 -63 51 -4 -3 -1 -6 5 -6 7 0 12 -4 12 -10 0
-23 -17 -7 -37 33 -12 26 -19 54 -16 73 6 41 -8 49 -49 28 -40 -21 -129 -20
-141 2 -12 22 -26 17 -47 -18z m44 7 c3 -8 2 -15 -2 -15 -5 0 -17 -7 -28 -14
-15 -12 -9 -11 28 2 35 12 54 14 75 6 23 -8 34 -6 62 13 18 12 38 20 45 16 7
-5 4 -9 -9 -11 -39 -8 -65 -52 -31 -52 15 0 29 -29 32 -65 1 -11 4 -27 8 -36
5 -12 1 -18 -13 -22 -28 -7 -26 -25 3 -36 13 -5 26 -17 29 -25 9 -22 -9 -20
-23 2 -10 14 -11 14 -6 0 2 -9 -4 -24 -15 -34 -17 -15 -24 -16 -39 -6 -25 15
-53 15 -68 0 -6 -6 -14 -9 -18 -6 -12 12 17 47 60 72 46 27 78 59 38 37 -31
-17 -50 -13 -24 5 12 8 22 20 22 25 0 6 -7 3 -16 -5 -17 -18 -50 -21 -59 -6
-3 6 -12 10 -18 10 -7 0 -4 -5 6 -11 16 -10 16 -12 -3 -40 -21 -28 -70 -42
-70 -19 0 6 0 13 -1 18 0 4 10 10 23 14 17 6 14 6 -9 3 -31 -4 -33 -3 -33 25
0 19 5 30 14 30 24 0 30 21 7 27 -17 4 -20 11 -17 38 8 60 36 94 50 60z m-47
-112 c-4 -3 -10 -3 -14 0 -3 4 0 7 7 7 7 0 10 -3 7 -7z m23 2 c0 -3 -2 -5 -5
-5 -3 0 -5 2 -5 5 0 3 2 5 5 5 3 0 5 -2 5 -5z m230 -15 c0 -5 -7 -10 -15 -10
-8 0 -15 5 -15 10 0 6 7 10 15 10 8 0 15 -4 15 -10z m-300 -14 c0 -8 -6 -14
-12 -13 -33 1 -49 -4 -43 -13 3 -5 1 -10 -4 -10 -13 0 -14 10 -2 29 5 7 14 10
20 7 6 -4 11 -2 11 3 0 6 7 11 15 11 8 0 15 -6 15 -14z m370 -6 c0 -5 -2 -10
-4 -10 -3 0 -8 5 -11 10 -3 6 -1 10 4 10 6 0 11 -4 11 -10z m-340 -30 c0 -5
-4 -10 -10 -10 -5 0 -10 5 -10 10 0 6 5 10 10 10 6 0 10 -4 10 -10z m290 -15
c18 -21 10 -25 -33 -18 -41 6 -49 19 -14 26 12 2 25 5 28 6 4 0 12 -6 19 -14z
m70 5 c0 -5 -4 -10 -10 -10 -5 0 -10 5 -10 10 0 6 5 10 10 10 6 0 10 -4 10
-10z m-440 -4 c0 -3 -4 -8 -10 -11 -5 -3 -10 -1 -10 4 0 6 5 11 10 11 6 0 10
-2 10 -4z m377 -122 c-3 -3 -12 -4 -19 -1 -8 3 -5 6 6 6 11 1 17 -2 13 -5z
m23 -9 c0 -3 -2 -5 -5 -5 -3 0 -5 2 -5 5 0 3 2 5 5 5 3 0 5 -2 5 -5z m-228
-85 c24 -11 37 -20 30 -20 -39 0 -102 56 -102 90 1 8 7 0 15 -18 10 -22 28
-39 57 -52z m158 65 c0 -3 -2 -5 -5 -5 -3 0 -5 2 -5 5 0 3 2 5 5 5 3 0 5 -2 5
-5z m34 -16 c-3 -5 -10 -7 -15 -3 -5 3 -7 10 -3 15 3 5 10 7 15 3 5 -3 7 -10
3 -15z m-47 -21 c-3 -8 -6 -5 -6 6 -1 11 2 17 5 13 3 -3 4 -12 1 -19z m109
-59 c3 -5 -6 -9 -20 -9 -14 0 -26 6 -27 13 0 10 -2 10 -6 0 -2 -7 -12 -13 -21
-13 -15 1 -15 2 1 14 18 14 63 10 73 -5z m-359 -6 c-4 -3 -7 0 -7 7 0 7 3 10
7 7 3 -4 3 -10 0 -14z m43 7 c0 -5 -7 -10 -15 -10 -8 0 -15 5 -15 10 0 6 7 10
15 10 8 0 15 -4 15 -10z"/>
<path d="M275 390 c4 -6 -1 -7 -11 -3 -12 4 -15 2 -12 -8 5 -14 45 -16 75 -4
23 8 4 25 -28 25 -17 0 -28 -4 -24 -10z m48 -7 c-7 -2 -19 -2 -25 0 -7 3 -2 5
12 5 14 0 19 -2 13 -5z"/>
<path d="M176 352 c-3 -5 8 -6 25 -4 16 2 29 6 29 8 0 8 -49 4 -54 -4z"/>
<path d="M230 305 c0 -3 2 -5 5 -5 3 0 5 2 5 5 0 3 -2 5 -5 5 -3 0 -5 -2 -5
-5z"/>
</g>
</svg>
