<?xml version="1.0" standalone="no"?>
<!DOCTYPE svg PUBLIC "-//W3C//DTD SVG 20010904//EN"
 "http://www.w3.org/TR/2001/REC-SVG-20010904/DTD/svg10.dtd">
<svg version="1.0" xmlns="http://www.w3.org/2000/svg"
 width="56.000000pt" height="56.000000pt" viewBox="0 0 56.000000 56.000000"
 preserveAspectRatio="xMidYMid meet">
<metadata>
Created by potrace 1.16, written by Peter Selinger 2001-2019
</metadata>
<g transform="translate(0.000000,56.000000) scale(0.100000,-0.100000)"
fill="#000000" stroke="none">
<path d="M194 505 c-9 -25 -21 -45 -27 -45 -17 0 -56 -41 -51 -54 2 -7 -11
-17 -29 -24 -19 -7 -42 -21 -52 -32 -17 -18 -17 -26 -6 -88 7 -38 9 -81 5 -95
-3 -15 -2 -33 3 -40 15 -21 9 -44 -17 -66 -25 -21 -25 -21 -5 -36 33 -26 63
-28 118 -8 46 16 52 22 52 47 0 23 6 31 39 44 35 14 41 14 70 -2 17 -10 40
-31 51 -49 30 -47 65 -63 112 -52 27 7 39 16 41 31 3 23 -41 94 -82 133 -32
30 -33 51 -2 51 13 0 29 7 36 15 7 8 23 15 36 15 23 0 54 23 54 41 0 5 -9 27
-19 48 -18 35 -18 39 -4 54 15 14 15 18 0 41 -9 13 -32 29 -52 36 -30 10 -34
15 -29 36 7 29 -4 30 -54 6 -52 -26 -119 -19 -134 14 -17 36 -34 29 -54 -21z
m47 -9 c-13 -16 118 -13 147 3 35 19 37 7 9 -51 -14 -29 -29 -66 -34 -82 -11
-41 -38 -56 -60 -33 -16 16 -15 17 15 23 42 9 36 29 -9 29 -31 0 -34 -3 -37
-32 -4 -38 -50 -82 -64 -61 -12 20 -10 46 8 80 15 29 15 32 -3 49 -18 19 -19
19 -20 -1 -1 -11 2 -22 7 -25 5 -3 3 -20 -5 -38 -11 -27 -11 -36 1 -59 16 -30
25 -33 52 -19 9 6 34 13 54 16 22 3 49 18 67 35 34 35 41 37 41 12 0 -17 -37
-48 -52 -44 -4 1 1 -14 12 -33 15 -27 17 -35 6 -35 -8 0 -21 -3 -30 -6 -11 -4
-16 -1 -16 11 0 15 -1 15 -16 1 -17 -17 -25 -19 -48 -10 -9 3 -12 13 -9 22 5
14 3 14 -9 -1 -13 -18 -17 -18 -52 -3 -34 14 -36 17 -26 38 10 21 10 22 -4 5
-14 -18 -15 -18 -26 3 -9 17 -9 29 -1 49 10 23 10 24 -3 8 -12 -16 -14 -16
-20 -2 -3 9 -1 26 5 37 6 11 8 22 5 26 -7 7 23 42 36 42 6 0 7 -17 3 -39 -4
-22 -3 -47 2 -55 5 -9 8 2 9 32 0 27 11 69 25 100 21 46 26 50 36 35 8 -10 9
-21 4 -27z m221 -36 c36 -11 67 -45 52 -58 -4 -4 -9 -1 -12 7 -4 11 -6 11 -13
0 -7 -11 -9 -9 -9 5 0 19 0 19 -14 1 -30 -42 -77 -15 -61 35 7 23 8 23 57 10z
m-252 -55 c0 -3 -2 -5 -5 -5 -3 0 -5 2 -5 5 0 3 2 5 5 5 3 0 5 -2 5 -5z m190
-5 c0 -5 -4 -10 -10 -10 -5 0 -10 5 -10 10 0 6 5 10 10 10 6 0 10 -4 10 -10z
m-295 -47 c0 -20 -6 -29 -25 -34 -15 -4 -18 -7 -8 -8 20 -1 38 -30 38 -63 0
-13 9 -38 20 -56 l21 -34 -21 7 c-23 7 -28 -13 -8 -33 9 -9 9 -12 1 -12 -7 0
-19 10 -27 22 -9 12 -16 18 -16 12 0 -5 5 -15 12 -22 9 -9 9 -12 0 -12 -6 0
-16 8 -22 18 -11 16 -11 16 -6 -1 4 -12 2 -17 -6 -14 -8 2 -12 18 -10 41 2 21
-2 62 -8 92 -14 67 -8 86 33 107 17 8 32 16 32 16 1 1 1 -11 0 -26z m185 22
c0 -3 -2 -5 -5 -5 -3 0 -5 2 -5 5 0 3 2 5 5 5 3 0 5 -2 5 -5z m47 -1 c-3 -3
-12 -4 -19 -1 -8 3 -5 6 6 6 11 1 17 -2 13 -5z m153 -44 c13 7 20 4 28 -15 8
-17 8 -26 -1 -33 -19 -15 -57 -24 -57 -14 0 5 -3 25 -6 43 -5 27 -4 32 6 22 9
-8 19 -9 30 -3z m-86 -45 c-5 -19 -2 -25 11 -25 13 0 16 6 11 25 -4 14 -2 25
3 25 16 0 19 -13 10 -37 -12 -33 -59 -32 -59 0 0 25 7 37 22 37 5 0 6 -11 2
-25z m-236 -57 c8 -10 13 -18 9 -18 -3 0 -12 -3 -20 -6 -10 -4 -19 8 -30 40
-17 51 -10 70 11 29 8 -15 21 -36 30 -45z m252 47 c0 -3 -2 -5 -5 -5 -3 0 -5
2 -5 5 0 3 2 5 5 5 3 0 5 -2 5 -5z m-156 -83 c29 -18 48 -23 72 -19 27 5 34 2
34 -11 0 -14 2 -14 9 -3 7 12 15 8 40 -17 37 -37 38 -47 7 -67 -23 -15 -27
-15 -67 12 -24 15 -51 36 -61 46 -24 22 -34 22 -92 -8 -27 -14 -55 -25 -61
-25 -7 0 -18 -7 -25 -15 -16 -19 -44 -19 -61 1 -18 21 1 32 48 27 30 -3 34 -1
29 15 -6 16 -2 19 19 14 26 -5 33 6 14 25 -6 6 -8 17 -4 24 6 9 11 7 22 -6 10
-15 13 -16 13 -3 0 8 -10 28 -22 43 l-21 27 34 -17 c19 -10 52 -29 73 -43z
m-131 -135 c46 1 47 -4 2 -23 -40 -16 -90 -20 -65 -4 8 5 10 10 5 10 -6 0 -16
-5 -23 -12 -6 -6 -15 -8 -19 -4 -4 4 -1 11 7 16 8 6 10 10 5 10 -6 0 -16 -5
-23 -12 -9 -9 -12 -9 -12 0 0 17 41 32 65 24 11 -4 37 -6 58 -5z m343 4 c-19
-7 -19 -8 0 -15 19 -8 19 -8 -1 -16 -28 -12 -83 -12 -90 0 -3 6 -5 10 -3 10 2
0 21 7 43 15 41 15 87 20 51 6z"/>
<path d="M373 481 c-29 -14 -31 -18 -16 -27 14 -9 21 -6 36 13 25 31 19 35
-20 14z"/>
<path d="M130 415 c0 -3 2 -5 5 -5 3 0 5 2 5 5 0 3 -2 5 -5 5 -3 0 -5 -2 -5
-5z"/>
<path d="M313 343 c4 -3 10 -3 14 0 3 4 0 7 -7 7 -7 0 -10 -3 -7 -7z"/>
<path d="M430 433 c0 -4 5 -15 10 -23 8 -13 10 -13 10 2 0 9 -4 20 -10 23 -5
3 -10 3 -10 -2z"/>
<path d="M438 33 c7 -3 16 -2 19 1 4 3 -2 6 -13 5 -11 0 -14 -3 -6 -6z"/>
</g>
</svg>
