<?xml version="1.0" standalone="no"?>
<!DOCTYPE svg PUBLIC "-//W3C//DTD SVG 20010904//EN"
 "http://www.w3.org/TR/2001/REC-SVG-20010904/DTD/svg10.dtd">
<svg version="1.0" xmlns="http://www.w3.org/2000/svg"
 width="56.000000pt" height="56.000000pt" viewBox="0 0 56.000000 56.000000"
 preserveAspectRatio="xMidYMid meet">
<metadata>
Created by potrace 1.16, written by Peter Selinger 2001-2019
</metadata>
<g transform="translate(0.000000,56.000000) scale(0.100000,-0.100000)"
fill="#000000" stroke="none">
<path d="M218 464 c-22 -12 -31 -12 -48 -2 -25 16 -48 -4 -56 -47 -3 -16 -12
-34 -21 -40 -15 -11 -15 -14 0 -36 10 -13 17 -28 17 -34 -1 -5 -8 1 -16 15
-10 17 -13 18 -8 5 3 -11 7 -49 8 -85 1 -36 7 -75 14 -87 17 -31 61 -63 87
-63 34 0 37 11 10 36 -25 23 -35 74 -15 74 6 0 10 -7 10 -15 0 -18 12 -19 28
-3 31 31 -9 98 -57 98 -12 0 -20 4 -17 9 3 5 -1 14 -9 21 -8 7 -12 16 -9 21 3
5 0 9 -6 9 -7 0 -5 10 4 29 11 21 12 31 4 39 -17 17 -1 27 17 12 12 -10 13
-16 4 -26 -6 -8 -9 -14 -6 -14 3 0 2 -13 -3 -30 -5 -16 -5 -32 -1 -34 9 -6 34
22 45 49 7 16 9 17 15 5 5 -14 30 -21 71 -21 41 0 66 7 72 21 5 12 8 10 14 -7
3 -13 10 -23 14 -23 4 0 11 -7 14 -16 6 -15 4 -15 -18 0 -26 17 -49 13 -78
-12 -16 -13 -20 -13 -35 0 -30 25 -53 29 -79 11 l-25 -16 29 -12 c29 -13 150
-13 188 0 13 4 25 2 28 -4 5 -7 -2 -11 -17 -11 -47 0 -85 -68 -55 -98 16 -16
28 -15 28 3 0 8 5 15 10 15 21 0 9 -52 -16 -75 -22 -20 -24 -26 -11 -31 9 -3
24 -4 34 -1 15 4 14 5 -3 6 -21 1 -21 2 5 30 21 23 28 26 34 14 5 -8 3 -21 -5
-31 -9 -12 -5 -11 11 3 36 31 45 55 48 125 1 36 5 80 7 98 4 23 1 34 -9 38 -8
4 -15 16 -15 29 0 13 -9 33 -19 46 -17 21 -22 22 -41 11 -16 -10 -25 -10 -43
0 -32 17 -98 19 -129 2z m39 -11 c-4 -3 -7 0 -7 7 0 7 3 10 7 7 3 -4 3 -10 0
-14z m50 0 c-4 -3 -7 0 -7 7 0 7 3 10 7 7 3 -4 3 -10 0 -14z m-129 -16 c2 -12
-1 -15 -12 -11 -19 7 -22 38 -3 32 6 -3 13 -12 15 -21z m232 14 c0 -13 -26
-32 -33 -24 -8 7 11 33 24 33 5 0 9 -4 9 -9z m-270 -6 c0 -3 -2 -5 -5 -5 -3 0
-5 2 -5 5 0 3 2 5 5 5 3 0 5 -2 5 -5z m290 0 c0 -3 -2 -5 -5 -5 -3 0 -5 2 -5
5 0 3 2 5 5 5 3 0 5 -2 5 -5z m-160 -10 c0 -3 -2 -5 -5 -5 -3 0 -5 2 -5 5 0 3
2 5 5 5 3 0 5 -2 5 -5z m94 -27 c18 -19 18 -19 33 1 8 12 19 21 26 21 6 0 0
-12 -15 -27 -20 -20 -30 -24 -40 -16 -9 8 -23 8 -50 -2 -31 -10 -45 -10 -75 0
-23 8 -42 10 -47 4 -6 -5 -14 -9 -19 -9 -6 0 2 12 16 26 27 27 57 27 57 0 0
-17 24 -28 45 -20 13 5 20 24 16 46 -1 12 33 -4 53 -24z m-237 -20 c-3 -8 -6
-5 -6 6 -1 11 2 17 5 13 3 -3 4 -12 1 -19z m310 0 c-3 -8 -6 -5 -6 6 -1 11 2
17 5 13 3 -3 4 -12 1 -19z m-9 -49 c-5 -4 -3 -9 6 -12 9 -4 16 -1 16 5 0 6 3
9 6 5 3 -3 1 -14 -5 -24 -7 -11 -11 -13 -11 -4 0 8 -6 11 -17 7 -10 -4 -15 -4
-11 -1 3 4 2 19 -2 35 -10 36 0 48 16 18 8 -15 9 -25 2 -29z m-311 25 c-3 -3
-12 -4 -19 -1 -8 3 -5 6 6 6 11 1 17 -2 13 -5z m350 0 c-3 -3 -12 -4 -19 -1
-8 3 -5 6 6 6 11 1 17 -2 13 -5z m-233 -44 c32 -12 34 -30 4 -30 -30 0 -52 15
-44 29 9 13 8 13 40 1z m132 -1 c3 -6 0 -15 -7 -20 -19 -12 -59 -11 -59 1 0 6
10 15 23 20 30 12 35 12 43 -1z m-236 -33 c0 -2 -7 -6 -15 -10 -8 -3 -15 -1
-15 4 0 6 7 10 15 10 8 0 15 -2 15 -4z m330 -6 c0 -5 -7 -7 -15 -4 -8 4 -15 8
-15 10 0 2 7 4 15 4 8 0 15 -4 15 -10z m-333 -32 c-3 -8 -6 -5 -6 6 -1 11 2
17 5 13 3 -3 4 -12 1 -19z m103 -32 c0 -31 -11 -39 -26 -18 -8 11 -9 22 -3 35
13 22 29 13 29 -17z m126 -11 c-4 -14 -11 -23 -16 -20 -11 7 -13 48 -3 59 13
13 26 -13 19 -39z m-239 -7 c-3 -7 -5 -2 -5 12 0 14 2 19 5 13 2 -7 2 -19 0
-25z m63 -71 c16 -20 18 -27 7 -27 -19 0 -68 39 -62 50 9 15 33 5 55 -23z"/>
<path d="M220 405 c0 -3 2 -5 5 -5 3 0 5 2 5 5 0 3 -2 5 -5 5 -3 0 -5 -2 -5
-5z"/>
<path d="M330 405 c0 -3 2 -5 5 -5 3 0 5 2 5 5 0 3 -2 5 -5 5 -3 0 -5 -2 -5
-5z"/>
</g>
</svg>
