<?xml version="1.0" standalone="no"?>
<!DOCTYPE svg PUBLIC "-//W3C//DTD SVG 20010904//EN"
 "http://www.w3.org/TR/2001/REC-SVG-20010904/DTD/svg10.dtd">
<svg version="1.0" xmlns="http://www.w3.org/2000/svg"
 width="56.000000pt" height="56.000000pt" viewBox="0 0 56.000000 56.000000"
 preserveAspectRatio="xMidYMid meet">
<metadata>
Created by potrace 1.16, written by Peter Selinger 2001-2019
</metadata>
<g transform="translate(0.000000,56.000000) scale(0.100000,-0.100000)"
fill="#000000" stroke="none">
<path d="M144 541 c-43 -26 -70 -64 -89 -124 -9 -29 -25 -68 -35 -87 -25 -49
-25 -151 1 -157 27 -7 35 -44 13 -60 -10 -7 -19 -21 -21 -32 -4 -27 74 -27 82
0 5 14 11 17 23 10 24 -12 119 -13 127 -1 8 13 62 13 70 0 8 -12 103 -11 127
1 12 7 18 4 23 -10 4 -14 15 -18 45 -18 46 0 49 18 12 55 l-23 23 29 27 c25
23 30 35 30 77 0 30 -7 64 -18 85 -10 19 -26 59 -35 88 -29 91 -112 163 -152
131 -29 -25 -43 -72 -33 -115 14 -59 11 -86 -5 -44 l-13 35 -7 -42 c-4 -24
-11 -43 -15 -43 -4 0 -11 19 -15 43 l-7 42 -14 -35 -14 -35 7 50 c10 73 7 95
-15 124 -25 33 -40 36 -78 12z m67 -15 c7 -14 9 -40 5 -62 l-7 -37 -20 32
c-10 17 -25 31 -32 31 -26 0 -59 -33 -83 -84 -18 -37 -23 -43 -19 -21 10 53
49 119 84 142 43 29 59 29 72 -1z m171 1 c-6 -7 -14 -32 -18 -55 -6 -38 -8
-40 -20 -25 -18 24 -17 58 2 77 19 20 52 22 36 3z m-35 -139 c-3 -8 -6 -5 -6
6 -1 11 2 17 5 13 3 -3 4 -12 1 -19z m-90 -60 c-2 -13 -4 -3 -4 22 0 25 2 35
4 23 2 -13 2 -33 0 -45z m50 0 c-2 -13 -4 -3 -4 22 0 25 2 35 4 23 2 -13 2
-33 0 -45z m50 15 c-4 -3 -7 0 -7 7 0 7 3 10 7 7 3 -4 3 -10 0 -14z m-310 -21
c1 -15 -7 -38 -17 -52 l-20 -25 0 23 c0 19 25 82 33 82 1 0 3 -12 4 -28z m323
3 c0 -3 -2 -5 -5 -5 -3 0 -5 2 -5 5 0 3 2 5 5 5 3 0 5 -2 5 -5z m26 -60 c1
-43 7 -73 19 -91 9 -15 12 -23 6 -20 -6 4 -35 -5 -64 -19 -67 -31 -89 -31
-152 0 -45 22 -47 30 -5 26 10 -1 11 1 4 6 -6 4 -8 17 -4 27 5 14 9 16 14 7 6
-9 11 -9 22 0 11 9 14 8 14 -8 0 -15 7 -19 30 -19 23 0 30 4 30 19 0 16 3 17
14 8 11 -9 16 -9 21 0 6 8 10 7 17 -5 5 -9 7 -20 4 -24 -2 -4 5 -9 17 -9 13
-1 17 1 10 5 -12 7 -43 73 -43 89 0 8 38 73 42 73 2 0 4 -29 4 -65z m-226 41
c0 -7 -13 -40 -30 -72 -19 -39 -26 -62 -19 -70 7 -8 2 -13 -17 -17 -26 -5 -26
-4 -22 49 4 45 11 61 38 89 36 37 50 43 50 21z m124 -14 c2 -4 -4 -8 -14 -8
-10 0 -16 4 -14 8 3 4 9 8 14 8 5 0 11 -4 14 -8z m-230 -32 c-18 -36 -34 -47
-34 -25 0 25 19 55 35 55 11 0 11 -5 -1 -30z m186 11 c12 -23 13 -41 3 -41
-16 0 -30 16 -37 38 -9 28 19 31 34 3z m94 -3 c-9 -32 -44 -53 -44 -27 0 20
21 49 36 49 11 0 14 -6 8 -22z m166 18 c0 -2 -7 -7 -16 -10 -8 -3 -12 -2 -9 4
6 10 25 14 25 6z m17 -33 c-4 -3 -7 0 -7 7 0 7 3 10 7 7 3 -4 3 -10 0 -14z
m-503 -58 c3 -8 1 -15 -4 -15 -6 0 -10 7 -10 15 0 8 2 15 4 15 2 0 6 -7 10
-15z m517 -8 c-10 -9 -11 -8 -5 6 3 10 9 15 12 12 3 -3 0 -11 -7 -18z m-90
-51 c-15 -8 -19 -15 -11 -18 7 -2 -1 -9 -16 -16 -27 -11 -27 -11 -10 3 11 8
16 15 10 15 -5 0 0 7 10 15 11 8 25 15 30 15 6 -1 0 -7 -13 -14z m-321 -13 c1
-5 7 -11 13 -15 8 -5 6 -8 -5 -8 -9 0 -20 5 -23 10 -3 6 0 10 7 10 10 0 9 3
-2 11 -8 6 -10 8 -4 5 6 -3 12 -9 14 -13z m78 1 c36 -15 36 -16 15 -26 -17 -8
-28 -7 -48 6 -25 17 -33 36 -15 36 6 0 27 -7 48 -16z m202 6 c0 -5 -11 -17
-25 -26 -20 -13 -31 -14 -48 -6 -21 10 -21 10 13 26 41 18 60 20 60 6z m100
-24 c0 -6 -7 -3 -14 7 -13 17 -14 16 -12 -8 0 -16 6 -23 14 -20 18 7 39 13 28
7 -4 -2 -3 -8 3 -12 7 -3 -2 -7 -20 -7 -23 0 -34 6 -42 24 -8 19 -8 26 3 33
16 10 40 -5 40 -24z m-448 2 c-7 -7 -12 -8 -12 -2 0 6 3 14 7 17 3 4 9 5 12 2
2 -3 -1 -11 -7 -17z m38 10 c0 -26 -20 -43 -51 -44 -18 -1 -26 1 -19 6 7 4 8
10 4 12 -11 6 11 0 33 -9 10 -4 14 -2 10 4 -8 13 2 43 14 43 5 0 9 -6 9 -12z"/>
<path d="M230 255 c0 -3 2 -5 5 -5 3 0 5 2 5 5 0 3 -2 5 -5 5 -3 0 -5 -2 -5
-5z"/>
<path d="M320 255 c0 -3 2 -5 5 -5 3 0 5 2 5 5 0 3 -2 5 -5 5 -3 0 -5 -2 -5
-5z"/>
</g>
</svg>
