<?xml version="1.0" standalone="no"?>
<!DOCTYPE svg PUBLIC "-//W3C//DTD SVG 20010904//EN"
 "http://www.w3.org/TR/2001/REC-SVG-20010904/DTD/svg10.dtd">
<svg version="1.0" xmlns="http://www.w3.org/2000/svg"
 width="56.000000pt" height="56.000000pt" viewBox="0 0 56.000000 56.000000"
 preserveAspectRatio="xMidYMid meet">
<metadata>
Created by potrace 1.16, written by Peter Selinger 2001-2019
</metadata>
<g transform="translate(0.000000,56.000000) scale(0.100000,-0.100000)"
fill="#000000" stroke="none">
<path d="M223 380 c-37 -22 -63 -67 -63 -107 0 -60 64 -123 125 -123 94 0 160
123 104 194 -44 56 -110 70 -166 36z m84 3 c-9 -2 -15 -8 -12 -13 3 -5 -4 -14
-16 -21 -20 -10 -21 -9 -16 10 6 25 -1 27 -18 4 -7 -10 -17 -13 -25 -8 -19 12
28 34 70 33 19 0 27 -2 17 -5z m28 -44 c0 -7 -8 -15 -17 -17 -10 -2 -18 2 -18
8 0 6 -6 8 -12 5 -7 -4 -4 1 7 9 22 18 40 16 40 -5z m-107 -10 c3 -11 2 -11
-7 1 -9 13 -11 13 -11 -1 0 -9 -7 -16 -15 -16 -18 0 -19 9 -3 25 15 15 30 11
36 -9z m97 -40 c22 -6 48 -18 57 -26 16 -14 16 -18 3 -44 -19 -37 -49 -52
-100 -52 -51 0 -81 15 -100 53 -19 37 -19 50 0 50 8 0 15 4 15 9 0 20 68 26
125 10z"/>
<path d="M255 190 c-4 -6 -4 -14 -1 -17 3 -4 6 -1 6 5 0 13 46 17 53 5 2 -5 3
-3 2 2 -2 14 -52 18 -60 5z"/>
</g>
</svg>
