<?xml version="1.0" standalone="no"?>
<!DOCTYPE svg PUBLIC "-//W3C//DTD SVG 20010904//EN"
 "http://www.w3.org/TR/2001/REC-SVG-20010904/DTD/svg10.dtd">
<svg version="1.0" xmlns="http://www.w3.org/2000/svg"
 width="56.000000pt" height="56.000000pt" viewBox="0 0 56.000000 56.000000"
 preserveAspectRatio="xMidYMid meet">
<metadata>
Created by potrace 1.16, written by Peter Selinger 2001-2019
</metadata>
<g transform="translate(0.000000,56.000000) scale(0.100000,-0.100000)"
fill="#000000" stroke="none">
<path d="M205 446 c-65 -28 -113 -119 -100 -190 14 -72 70 -128 143 -142 36
-7 122 13 122 28 0 5 4 7 9 4 5 -3 23 10 39 29 53 59 53 153 0 221 -44 55
-146 79 -213 50z m156 -19 c53 -27 91 -93 87 -146 -2 -28 -8 -36 -33 -44 -16
-6 -32 -13 -35 -16 -8 -9 -90 -7 -90 3 0 4 -11 6 -25 4 -14 -3 -25 -1 -25 5 0
5 -9 7 -20 4 -11 -3 -20 -1 -20 5 0 5 -4 6 -10 3 -5 -3 -10 -1 -10 6 0 7 -3 9
-7 6 -3 -4 -17 8 -30 25 -26 36 -32 30 -7 -8 12 -18 14 -28 6 -36 -17 -17 -34
28 -27 73 20 117 137 173 246 116z m-46 -267 c-20 -22 -33 -24 -54 -11 -22 14
-3 31 36 31 35 0 36 0 18 -20z"/>
<path d="M250 425 c0 -3 2 -5 5 -5 3 0 5 2 5 5 0 3 -2 5 -5 5 -3 0 -5 -2 -5
-5z"/>
<path d="M283 413 c4 -3 10 -3 14 0 3 4 0 7 -7 7 -7 0 -10 -3 -7 -7z"/>
<path d="M338 403 c6 -2 18 -2 25 0 6 3 1 5 -13 5 -14 0 -19 -2 -12 -5z"/>
<path d="M170 380 c0 -7 3 -10 7 -7 3 4 3 10 0 14 -4 3 -7 0 -7 -7z"/>
<path d="M197 325 c9 -19 20 -35 25 -35 4 0 -2 16 -13 35 -12 19 -23 35 -25
35 -2 0 4 -16 13 -35z"/>
<path d="M240 325 c0 -6 7 -21 16 -33 14 -21 16 -21 46 -6 17 9 39 14 49 11
11 -3 22 -1 25 4 9 15 -44 10 -76 -6 -28 -15 -30 -14 -44 12 -8 16 -15 23 -16
18z"/>
<path d="M180 280 c0 -7 3 -10 7 -7 3 4 3 10 0 14 -4 3 -7 0 -7 -7z"/>
<path d="M290 260 c0 -7 3 -10 7 -7 3 4 3 10 0 14 -4 3 -7 0 -7 -7z"/>
</g>
</svg>
