<?xml version="1.0" standalone="no"?>
<!DOCTYPE svg PUBLIC "-//W3C//DTD SVG 20010904//EN"
 "http://www.w3.org/TR/2001/REC-SVG-20010904/DTD/svg10.dtd">
<svg version="1.0" xmlns="http://www.w3.org/2000/svg"
 width="56.000000pt" height="56.000000pt" viewBox="0 0 56.000000 56.000000"
 preserveAspectRatio="xMidYMid meet">
<metadata>
Created by potrace 1.16, written by Peter Selinger 2001-2019
</metadata>
<g transform="translate(0.000000,56.000000) scale(0.100000,-0.100000)"
fill="#000000" stroke="none">
<path d="M202 504 c-48 -24 -53 -24 -74 -10 -32 22 -55 20 -83 -9 -34 -33 -32
-70 5 -105 26 -24 28 -32 23 -66 -3 -22 -14 -48 -24 -59 -58 -64 -47 -165 21
-200 40 -21 61 -19 102 9 26 17 39 21 53 14 9 -6 30 -8 45 -4 19 3 30 1 34 -9
9 -23 68 -55 102 -55 47 0 96 38 118 92 17 41 18 53 7 87 -6 22 -23 53 -36 69
-32 39 -31 54 4 90 34 33 46 70 37 108 -9 33 -50 74 -73 74 -11 -1 -4 -7 15
-15 l34 -15 -25 -30 c-14 -16 -27 -35 -29 -42 -4 -11 -8 -11 -20 0 -13 10 -17
10 -21 -2 -4 -10 -1 -13 9 -9 7 3 14 1 14 -4 0 -5 12 -9 28 -10 19 -1 22 0 9
5 -15 6 -16 10 -4 26 16 21 57 14 57 -10 0 -25 -29 -73 -51 -85 -30 -15 -49 3
-31 31 7 11 8 20 3 20 -12 0 -24 -37 -16 -50 13 -21 -27 -9 -52 16 -20 20 -24
31 -19 57 14 69 13 71 -34 95 -56 28 -65 28 -128 -4z m126 -4 c46 -21 49 -41
6 -38 -23 2 -24 4 -8 15 21 16 10 17 -17 2 -26 -13 -15 -29 21 -29 27 0 28 -2
23 -35 -5 -32 -2 -39 35 -73 l41 -38 -34 -13 c-29 -10 -52 -31 -106 -99 -6 -7
-16 -9 -22 -5 -17 11 -30 11 -46 -1 -10 -8 -15 -7 -19 2 -2 7 -15 26 -28 42
l-25 29 35 -6 c28 -4 39 -1 60 20 33 33 33 71 0 104 -19 19 -33 24 -55 21 -23
-4 -29 -1 -24 9 3 8 5 21 5 29 0 9 11 14 34 14 41 0 54 15 27 29 -28 16 -38
13 -15 -3 18 -13 17 -14 -14 -12 -30 2 -33 -1 -42 -36 -10 -34 -44 -67 -57
-54 -10 9 9 27 24 22 14 -6 13 5 -4 52 -5 10 9 17 21 10 2 -2 12 5 23 14 22
20 81 47 103 47 8 0 34 -8 58 -19z m-252 -9 c-4 -5 0 -11 6 -14 7 -2 9 -8 5
-13 -4 -5 -12 -2 -16 5 -6 9 -11 10 -15 2 -10 -16 21 -26 38 -12 23 19 30 -34
9 -64 -22 -30 -28 -30 -53 -5 -24 24 -21 77 6 97 21 15 27 17 20 4z m448 -27
c4 -10 1 -14 -6 -12 -15 5 -23 28 -10 28 5 0 13 -7 16 -16z m-328 -86 c5 -7 2
-8 -7 -3 -8 5 -12 6 -9 2 3 -3 10 -7 15 -8 6 -1 18 -13 28 -26 10 -13 23 -21
28 -18 18 11 9 -25 -11 -45 -44 -44 -117 -7 -107 54 5 28 5 29 -5 8 -8 -16 -8
-29 0 -47 11 -24 11 -25 -16 -19 -36 9 -35 8 -28 46 5 28 13 36 49 50 54 20
54 20 63 6z m55 -19 c6 -12 6 -19 0 -19 -12 0 -41 28 -41 40 0 15 30 -1 41
-21z m199 -54 c0 -3 -2 -5 -5 -5 -3 0 -5 2 -5 5 0 3 2 5 5 5 3 0 5 -2 5 -5z
m0 -27 c0 -6 3 -8 7 -5 9 9 43 -22 43 -40 0 -16 -17 -17 -24 0 -3 6 -3 1 0
-13 3 -14 0 -38 -6 -54 -9 -24 -15 -27 -37 -23 -26 5 -26 4 -8 -9 13 -9 22
-11 29 -4 5 5 21 11 36 11 16 1 19 3 8 6 -21 5 -22 16 -8 44 31 58 51 -28 22
-94 -31 -71 -97 -95 -163 -61 -82 42 -68 178 23 234 36 22 78 26 78 8z m-306
-19 c-2 -4 3 -13 12 -20 38 -32 54 -109 32 -152 -13 -26 -20 -15 -10 14 6 16
5 34 -4 54 -14 30 -14 30 -8 -12 8 -50 -14 -93 -47 -93 -26 0 -76 26 -81 42
-3 7 2 18 11 25 14 10 13 13 -8 30 -22 18 -23 22 -12 56 15 45 45 67 87 64 18
-1 30 -5 28 -8z m126 -79 c3 -1 9 -2 14 -1 5 1 4 -4 -2 -12 -7 -8 -8 -18 -4
-23 4 -4 0 -3 -10 4 -11 9 -18 10 -23 2 -5 -8 -11 -8 -21 1 -26 21 9 43 46 29z
m-230 -45 c10 -12 10 -15 -4 -15 -9 0 -16 7 -16 15 0 8 2 15 4 15 2 0 9 -7 16
-15z"/>
<path d="M237 413 c-3 -5 12 -8 33 -8 21 0 36 3 33 8 -2 4 -17 7 -33 7 -16 0
-31 -3 -33 -7z"/>
<path d="M40 453 c1 -14 30 -48 30 -34 0 7 -7 19 -15 27 -8 9 -15 12 -15 7z"/>
<path d="M182 328 c3 -7 13 -15 24 -17 16 -3 17 -1 5 13 -16 19 -34 21 -29 4z"/>
<path d="M460 255 c0 -3 2 -5 5 -5 3 0 5 2 5 5 0 3 -2 5 -5 5 -3 0 -5 -2 -5
-5z"/>
<path d="M341 226 c-2 -23 24 -76 38 -76 12 0 11 3 -2 18 -9 9 -20 29 -26 42
-5 14 -10 21 -10 16z"/>
<path d="M424 168 c-4 -7 -3 -8 4 -4 7 4 12 9 12 12 0 8 -9 4 -16 -8z"/>
<path d="M330 161 c0 -10 29 -36 34 -30 1 2 -6 12 -16 22 -10 9 -18 13 -18 8z"/>
<path d="M464 116 c-16 -9 -18 -14 -9 -23 9 -8 15 -6 24 9 15 25 12 28 -15 14z"/>
<path d="M420 115 c0 -3 2 -5 5 -5 3 0 5 2 5 5 0 3 -2 5 -5 5 -3 0 -5 -2 -5
-5z"/>
<path d="M350 91 c0 -19 73 -30 84 -12 3 4 -5 6 -18 4 -13 -3 -33 0 -45 6 -11
7 -21 8 -21 2z"/>
<path d="M460 65 c0 -3 2 -5 5 -5 3 0 5 2 5 5 0 3 -2 5 -5 5 -3 0 -5 -2 -5 -5z"/>
<path d="M104 162 c-11 -10 -19 -23 -16 -30 4 -14 28 -16 37 -2 3 6 -1 7 -9 4
-24 -9 -19 11 7 29 12 9 18 16 12 16 -5 0 -19 -7 -31 -17z"/>
<path d="M51 86 c2 -2 18 -6 34 -10 22 -5 26 -4 15 4 -14 9 -59 15 -49 6z"/>
<path d="M225 170 c-3 -5 -1 -11 4 -14 5 -4 12 -2 16 4 4 6 12 7 18 4 7 -4 8
-3 4 1 -11 12 -36 15 -42 5z m15 -5 c0 -3 -2 -5 -5 -5 -3 0 -5 2 -5 5 0 3 2 5
5 5 3 0 5 -2 5 -5z"/>
<path d="M405 506 c-19 -14 -28 -69 -10 -63 5 2 9 15 7 29 -2 17 4 28 20 36
13 6 18 11 12 11 -5 1 -19 -5 -29 -13z"/>
<path d="M370 412 c0 -5 7 -15 15 -22 8 -7 15 -8 15 -2 0 5 -7 15 -15 22 -8 7
-15 8 -15 2z"/>
<path d="M420 395 c0 -3 2 -5 5 -5 3 0 5 2 5 5 0 3 -2 5 -5 5 -3 0 -5 -2 -5
-5z"/>
</g>
</svg>
