<?xml version="1.0" standalone="no"?>
<!DOCTYPE svg PUBLIC "-//W3C//DTD SVG 20010904//EN"
 "http://www.w3.org/TR/2001/REC-SVG-20010904/DTD/svg10.dtd">
<svg version="1.0" xmlns="http://www.w3.org/2000/svg"
 width="56.000000pt" height="56.000000pt" viewBox="0 0 56.000000 56.000000"
 preserveAspectRatio="xMidYMid meet">
<metadata>
Created by potrace 1.16, written by Peter Selinger 2001-2019
</metadata>
<g transform="translate(0.000000,56.000000) scale(0.100000,-0.100000)"
fill="#000000" stroke="none">
<path d="M95 551 c-3 -6 3 -14 12 -20 14 -8 7 -10 -32 -11 -27 0 -56 -4 -64
-9 -17 -11 -6 -31 18 -31 28 0 33 -12 11 -27 -21 -15 -29 -39 -8 -27 8 5 9 2
4 -12 -26 -64 -26 -77 0 -111 14 -19 42 -42 62 -51 21 -9 38 -17 40 -18 2 -1
-21 -33 -52 -71 -57 -70 -83 -110 -75 -117 2 -2 30 -7 61 -10 55 -7 58 -6 95
27 32 29 42 33 63 25 14 -5 43 -7 65 -4 31 4 45 0 62 -16 30 -28 105 -36 138
-14 25 16 35 59 16 70 -16 10 -19 60 -6 86 18 37 26 89 16 108 -12 21 -19 44
-17 55 1 9 -42 36 -57 37 -5 0 5 -11 21 -25 23 -19 28 -30 24 -51 -3 -18 -1
-25 6 -20 6 3 13 2 17 -4 3 -5 -10 -17 -29 -26 -33 -16 -40 -44 -11 -44 21 0
28 -19 15 -35 -17 -20 -59 -19 -94 3 -28 17 -30 21 -27 77 1 33 5 62 7 64 9 9
84 -23 84 -36 0 -17 -27 -17 -33 0 -2 7 -3 6 -3 -3 1 -8 10 -15 21 -15 14 0
21 8 23 28 2 19 -1 27 -12 27 -9 0 -17 9 -17 20 -1 11 -2 26 -3 33 -1 6 -17
15 -36 18 l-35 6 35 1 c42 2 112 -36 116 -62 1 -10 7 -23 13 -29 15 -15 15 28
0 55 -10 19 -9 20 10 15 27 -7 26 -3 -5 39 l-26 34 27 0 c37 0 28 21 -20 43
-30 15 -53 17 -109 13 -119 -8 -183 -5 -213 12 -26 14 -89 16 -98 3z m108 -46
c20 -14 37 -22 37 -18 0 10 20 -19 20 -30 0 -5 -14 2 -31 15 -17 13 -43 31
-57 40 -15 10 -22 18 -17 18 6 0 27 -11 48 -25z m-33 -27 c17 -10 -75 -1 -131
12 -22 5 -8 6 41 3 41 -3 82 -10 90 -15z m274 3 c6 -9 -54 -25 -62 -16 -3 3 2
5 12 5 9 0 14 5 11 10 -3 6 3 10 14 10 11 0 22 -4 25 -9z m-84 -26 c0 -3 -2
-5 -5 -5 -3 0 -5 2 -5 5 0 3 2 5 5 5 3 0 5 -2 5 -5z m93 -2 c-7 -2 -19 -2 -25
0 -7 3 -2 5 12 5 14 0 19 -2 13 -5z m-56 -9 c-3 -3 -12 -4 -19 -1 -8 3 -5 6 6
6 11 1 17 -2 13 -5z m-277 -19 c7 -8 10 -21 7 -28 -3 -7 -2 -43 2 -80 8 -72 4
-76 -38 -53 -15 8 -20 16 -12 20 16 10 14 26 -5 26 -9 0 -12 -5 -8 -12 4 -7 3
-8 -5 -4 -6 4 -9 11 -6 16 3 5 -4 11 -15 15 -23 7 -27 25 -5 25 12 0 15 9 13
36 -3 49 43 74 72 39z m101 4 c-14 -5 -32 -15 -40 -22 -9 -6 -8 -2 3 11 11 12
29 22 40 21 19 0 19 -1 -3 -10z m-66 -46 l-7 -28 31 29 c27 26 35 28 78 23 85
-9 125 -85 90 -170 -18 -41 -37 -57 -81 -64 -83 -13 -127 43 -124 159 1 62 4
78 15 78 3 0 2 -12 -2 -27z m211 2 c16 -12 16 -14 3 -15 -9 0 -22 7 -29 15
-16 19 0 19 26 0z m-329 -17 c-3 -8 -6 -5 -6 6 -1 11 2 17 5 13 3 -3 4 -12 1
-19z m383 -9 c0 -6 -4 -7 -10 -4 -5 3 -10 11 -10 16 0 6 5 7 10 4 6 -3 10 -11
10 -16z m67 -96 c-4 -3 -10 -3 -14 0 -3 4 0 7 7 7 7 0 10 -3 7 -7z m-149 -95
c-12 -19 -26 -24 -72 -26 -31 -2 -64 1 -73 7 -13 7 0 8 42 4 51 -4 64 -2 85
16 32 26 36 26 18 -1z m77 2 c3 -6 -1 -13 -10 -16 -19 -8 -30 0 -20 15 8 14
22 14 30 1z m73 -8 c2 -7 -6 -12 -17 -12 -21 0 -27 11 -14 24 9 9 26 2 31 -12z
m-336 -14 c13 -13 17 -18 8 -12 -8 6 -24 16 -35 22 -11 6 -15 12 -8 12 7 0 22
-10 35 -22z m188 -30 c0 -23 -61 -34 -108 -20 -19 6 -39 9 -43 7 -4 -3 -5 3
-3 12 4 15 17 18 80 18 63 0 74 -3 74 -17z m146 -1 c19 -16 25 -29 21 -41 -4
-10 -11 -15 -16 -11 -5 3 -12 1 -16 -5 -3 -5 -21 -10 -40 -10 -19 0 -37 5 -40
10 -4 6 -10 8 -15 5 -4 -3 -13 1 -19 9 -9 11 -5 19 19 40 39 32 71 33 106 3z
m-356 -12 c17 -9 30 -18 30 -21 0 -2 -12 2 -27 9 -16 8 -35 17 -43 20 -10 4
-11 6 -2 6 7 1 26 -6 42 -14z m-67 -35 c-3 -11 -14 -20 -24 -20 -26 0 -24 19
4 30 12 5 23 9 24 9 0 1 -1 -8 -4 -19z m64 9 c6 -6 9 -18 6 -25 -7 -18 -46
-19 -40 -1 2 6 12 11 22 10 12 -1 14 2 6 10 -7 7 -16 5 -31 -8 -11 -10 -20
-15 -20 -10 0 8 30 34 41 35 3 0 10 -5 16 -11z"/>
<path d="M84 385 c-8 -19 4 -35 24 -34 15 1 15 2 0 6 -10 2 -18 11 -18 18 0 7
8 16 18 18 16 4 16 5 -1 6 -10 0 -20 -6 -23 -14z"/>
<path d="M100 375 c0 -3 2 -5 5 -5 3 0 5 2 5 5 0 3 -2 5 -5 5 -3 0 -5 -2 -5
-5z"/>
<path d="M210 362 c0 -5 -12 -13 -27 -19 l-28 -12 28 6 c20 4 27 1 27 -10 0
-10 -7 -15 -20 -12 -27 5 -25 -3 3 -15 18 -7 19 -9 3 -9 -13 -1 -16 -6 -11
-18 4 -10 10 -26 12 -35 8 -28 89 -25 98 2 4 12 11 17 18 13 7 -4 6 0 -2 10
-10 13 -17 14 -33 6 -25 -13 -99 -2 -77 11 12 8 24 90 13 90 -2 0 -4 -4 -4 -8z
m10 -112 c0 -5 -2 -10 -4 -10 -3 0 -8 5 -11 10 -3 6 -1 10 4 10 6 0 11 -4 11
-10z m70 6 c0 -3 -4 -8 -10 -11 -5 -3 -10 -1 -10 4 0 6 5 11 10 11 6 0 10 -2
10 -4z"/>
<path d="M274 340 c1 -25 6 -36 20 -38 10 -2 22 0 28 6 6 6 0 8 -16 7 -18 -2
-26 2 -26 12 0 12 7 14 33 9 23 -4 28 -3 17 4 -8 5 -22 10 -32 10 -9 0 -18 6
-21 13 -3 6 -4 -4 -3 -23z"/>
<path d="M392 114 c-12 -8 -22 -23 -21 -32 0 -14 2 -14 6 -2 16 44 63 51 98
15 14 -13 25 -20 25 -15 0 13 -51 50 -69 50 -9 0 -27 -7 -39 -16z"/>
<path d="M500 375 c0 -3 2 -5 5 -5 3 0 5 2 5 5 0 3 -2 5 -5 5 -3 0 -5 -2 -5
-5z"/>
<path d="M440 315 c0 -3 2 -5 5 -5 3 0 5 2 5 5 0 3 -2 5 -5 5 -3 0 -5 -2 -5
-5z"/>
</g>
</svg>
