<?xml version="1.0" standalone="no"?>
<!DOCTYPE svg PUBLIC "-//W3C//DTD SVG 20010904//EN"
 "http://www.w3.org/TR/2001/REC-SVG-20010904/DTD/svg10.dtd">
<svg version="1.0" xmlns="http://www.w3.org/2000/svg"
 width="56.000000pt" height="56.000000pt" viewBox="0 0 56.000000 56.000000"
 preserveAspectRatio="xMidYMid meet">
<metadata>
Created by potrace 1.16, written by Peter Selinger 2001-2019
</metadata>
<g transform="translate(0.000000,56.000000) scale(0.100000,-0.100000)"
fill="#000000" stroke="none">
<path d="M124 445 c-4 -8 0 -23 7 -32 11 -13 11 -17 1 -21 -16 -5 -42 -55 -42
-82 0 -26 25 -37 45 -20 14 11 15 8 9 -26 -4 -31 -1 -45 15 -66 12 -15 31 -29
44 -31 21 -4 21 -4 1 -6 -30 -2 -50 -27 -35 -44 14 -18 86 -41 100 -33 6 4 18
22 27 41 9 19 22 35 29 35 7 0 24 13 38 29 22 27 26 28 41 13 26 -26 41 -2 26
43 -7 20 -9 53 -6 73 12 72 12 77 -6 76 -13 -1 -18 6 -18 27 0 31 -16 47 -32
31 -6 -6 -17 -8 -24 -5 -8 3 -20 0 -27 -6 -10 -8 -22 -7 -45 1 -22 9 -40 9
-66 1 -28 -9 -38 -8 -47 3 -15 18 -28 18 -35 -1z m26 -10 c0 -8 -4 -15 -10
-15 -5 0 -10 7 -10 15 0 8 5 15 10 15 6 0 10 -7 10 -15z m238 -2 c-2 -10 -11
-19 -21 -21 -16 -3 -17 -1 -7 17 13 25 33 28 28 4z m-101 -8 c19 -13 22 -13
27 0 3 8 13 15 21 15 15 0 15 -2 1 -22 -22 -31 -20 -41 6 -27 18 10 24 8 40
-11 22 -27 23 -59 4 -66 -8 -3 -12 -12 -9 -19 8 -22 -16 -83 -35 -89 -16 -6
-46 -48 -64 -89 -11 -26 -30 -29 -72 -12 -47 20 -42 36 15 50 84 22 112 53
125 138 4 23 11 47 16 53 4 6 6 19 2 28 -10 26 -42 -23 -49 -73 -3 -23 -10
-52 -17 -64 -7 -12 -11 -26 -10 -30 1 -5 -2 -6 -7 -3 -5 3 -14 -1 -21 -9 -7
-8 -28 -15 -46 -15 -41 0 -69 36 -61 78 3 15 0 46 -6 69 -8 32 -8 47 2 66 22
42 99 60 138 32z m-168 -92 c-7 -21 -14 -32 -17 -25 -4 14 18 75 25 68 3 -3
-1 -22 -8 -43z m151 -147 c0 -3 -5 -8 -12 -12 -7 -4 -8 -3 -4 4 7 12 16 16 16
8z"/>
<path d="M254 392 c3 -5 -5 -17 -19 -26 -29 -19 -32 -42 -9 -74 15 -21 67 -31
77 -14 3 4 -11 7 -31 7 -19 0 -37 5 -39 11 -2 6 3 11 11 11 8 0 13 -4 10 -9
-8 -13 33 -9 43 5 6 6 13 24 17 40 5 21 2 29 -11 33 -10 3 -26 10 -37 15 -11
7 -16 7 -12 1z m16 -46 c0 -2 -8 -10 -17 -17 -16 -13 -17 -12 -4 4 13 16 21
21 21 13z m21 -39 c-8 -8 -11 -7 -11 4 0 20 13 34 18 19 3 -7 -1 -17 -7 -23z"/>
<path d="M210 233 c1 -18 18 -35 24 -24 4 6 4 16 1 21 -7 12 -25 13 -25 3z"/>
</g>
</svg>
