<?xml version="1.0" standalone="no"?>
<!DOCTYPE svg PUBLIC "-//W3C//DTD SVG 20010904//EN"
 "http://www.w3.org/TR/2001/REC-SVG-20010904/DTD/svg10.dtd">
<svg version="1.0" xmlns="http://www.w3.org/2000/svg"
 width="56.000000pt" height="56.000000pt" viewBox="0 0 56.000000 56.000000"
 preserveAspectRatio="xMidYMid meet">
<metadata>
Created by potrace 1.16, written by Peter Selinger 2001-2019
</metadata>
<g transform="translate(0.000000,56.000000) scale(0.100000,-0.100000)"
fill="#000000" stroke="none">
<path d="M268 510 c-9 -6 -36 -11 -60 -11 -24 -1 -49 -6 -55 -12 -7 -5 -33 -6
-58 -3 -36 6 -46 4 -51 -8 -9 -23 29 -81 52 -81 17 1 19 -7 20 -82 1 -86 17
-123 52 -123 10 0 12 -6 7 -18 -16 -39 -16 -53 0 -78 11 -17 23 -24 35 -21 11
3 21 -1 24 -9 8 -21 25 -17 37 10 8 17 22 25 51 29 22 3 46 1 52 -4 62 -50 76
-59 93 -59 23 0 53 30 53 52 0 8 -11 25 -25 38 l-24 23 19 25 c11 13 20 40 20
59 0 31 -2 33 -20 23 -12 -6 -33 -10 -47 -8 l-25 3 36 35 c20 19 36 43 36 52
0 9 5 20 10 23 16 10 12 51 -7 67 -50 43 -110 22 -98 -34 4 -16 2 -28 -4 -28
-16 0 -23 37 -11 60 15 28 5 40 -33 37 -28 -2 -32 1 -32 23 0 27 -20 36 -47
20z m42 -10 c0 -5 -10 -10 -22 -10 -19 0 -20 2 -8 10 19 13 30 13 30 0z m-140
-31 c-7 -11 -14 -19 -16 -16 -7 7 7 37 17 37 6 0 5 -9 -1 -21z m81 -8 c19 -18
28 -34 24 -41 -4 -7 13 0 39 15 26 15 49 25 53 22 3 -4 -6 -26 -21 -51 -17
-29 -22 -46 -14 -48 15 -5 4 -48 -23 -82 -18 -22 -86 -66 -104 -66 -3 0 -5 7
-5 15 0 8 -4 15 -10 15 -5 0 -2 12 7 28 12 21 23 27 51 27 29 0 39 6 51 27 12
21 13 30 4 39 -24 24 -143 -80 -143 -124 0 -10 -4 -17 -9 -17 -15 0 -34 98
-27 135 8 40 60 105 85 106 10 0 11 2 4 6 -15 5 -17 23 -4 23 6 0 24 -13 42
-29z m-124 9 c10 0 13 -8 9 -31 -2 -17 -8 -34 -12 -37 -4 -4 -4 2 -1 13 7 19
7 19 -7 1 -19 -24 -50 -14 -43 14 3 11 0 18 -6 17 -6 -1 -13 7 -15 17 -3 16 0
18 28 12 18 -3 39 -6 47 -6z m360 -42 c19 -15 16 -56 -5 -67 -14 -7 -26 -4
-50 15 -34 27 -39 43 -20 62 14 14 54 8 75 -10z m-42 -76 c-7 -8 -35 7 -35 18
0 6 7 6 20 -2 10 -7 17 -14 15 -16z m-29 -3 c3 -6 19 -9 35 -7 38 6 39 -19 2
-33 -16 -6 -36 -17 -45 -26 -16 -15 -16 -18 7 -58 26 -43 31 -70 16 -79 -5 -3
-18 21 -30 53 -12 32 -28 64 -36 71 -19 16 -19 40 1 68 16 24 39 29 50 11z
m-116 -5 c0 -23 -24 -44 -51 -44 -17 0 -28 4 -25 9 3 4 17 6 31 3 20 -3 25 0
25 17 0 11 5 21 10 21 6 0 10 -3 10 -6z m-40 -19 c0 -3 -2 -5 -5 -5 -3 0 -5 2
-5 5 0 3 2 5 5 5 3 0 5 -2 5 -5z m75 -78 c24 -18 10 -27 -65 -43 -37 -8 -45
-12 -25 -13 17 0 47 6 68 13 47 17 49 0 2 -20 -43 -17 -76 -18 -99 -1 -16 12
-14 15 23 32 23 10 46 24 52 32 14 16 21 16 44 0z m165 -6 c0 -14 -30 -41 -45
-41 -8 0 -19 9 -25 19 -9 17 -6 20 22 24 18 2 36 5 41 5 4 1 7 -2 7 -7z m-136
-60 c7 -11 -65 -41 -98 -41 -30 0 -56 9 -56 20 0 5 15 6 33 3 19 -3 47 2 67
10 43 19 47 19 54 8z m-173 -74 c-17 -17 -25 21 -10 51 l13 27 4 -34 c2 -18
-1 -38 -7 -44z m179 44 c0 -18 -44 -41 -77 -41 -36 0 -57 20 -21 20 13 1 37 7
53 15 37 17 45 18 45 6z"/>
</g>
</svg>
