<?xml version="1.0" standalone="no"?>
<!DOCTYPE svg PUBLIC "-//W3C//DTD SVG 20010904//EN"
 "http://www.w3.org/TR/2001/REC-SVG-20010904/DTD/svg10.dtd">
<svg version="1.0" xmlns="http://www.w3.org/2000/svg"
 width="56.000000pt" height="56.000000pt" viewBox="0 0 56.000000 56.000000"
 preserveAspectRatio="xMidYMid meet">
<metadata>
Created by potrace 1.16, written by Peter Selinger 2001-2019
</metadata>
<g transform="translate(0.000000,56.000000) scale(0.100000,-0.100000)"
fill="#000000" stroke="none">
<path d="M393 545 c-3 -9 -3 -18 0 -22 4 -3 -13 -15 -36 -27 -23 -11 -51 -36
-62 -53 -16 -26 -25 -32 -46 -27 -14 2 -51 7 -83 9 -32 2 -66 7 -76 10 -11 3
-29 1 -42 -6 l-22 -12 29 -23 c16 -13 27 -25 25 -26 -3 -2 -22 -11 -42 -21
-21 -9 -38 -21 -38 -27 0 -6 16 -18 35 -27 42 -20 44 -36 8 -52 -49 -22 10
-43 127 -45 l36 0 -18 -35 c-10 -19 -18 -41 -18 -48 0 -17 20 -27 32 -15 7 7
16 4 29 -9 10 -10 25 -19 33 -19 21 0 30 20 17 33 -17 17 -13 34 9 40 11 3 20
11 19 19 0 10 -2 10 -6 1 -6 -15 -33 -17 -33 -3 0 6 6 10 13 10 8 0 7 4 -3 10
-13 9 -10 14 15 35 25 21 37 24 77 20 54 -6 118 -31 118 -45 0 -18 -30 -23
-43 -8 -7 8 -25 23 -42 33 -24 15 -28 15 -17 2 8 -9 22 -19 33 -22 10 -4 22
-17 25 -31 3 -13 11 -21 17 -17 6 3 7 1 3 -6 -4 -6 -3 -18 3 -25 6 -7 9 -28 6
-46 -6 -47 17 -72 50 -56 18 8 26 22 31 54 6 37 3 46 -20 69 -31 31 -33 51 -6
96 18 31 19 40 9 80 -9 38 -8 49 6 71 13 20 15 35 9 63 -4 21 -8 51 -8 67 -1
40 -29 56 -55 32 -19 -17 -22 -18 -45 -2 -32 20 -45 20 -53 1z m60 -15 l35
-21 5 22 c9 35 41 20 43 -21 1 -19 4 -52 7 -72 5 -34 4 -36 -16 -29 -27 10
-33 29 -13 37 14 5 12 10 -10 31 -15 14 -33 22 -42 18 -19 -7 -62 21 -62 40 0
20 12 19 53 -5z m-24 -39 c9 -6 11 -17 6 -32 -7 -23 -7 -23 8 -4 17 22 19 19
31 -37 7 -31 -7 -37 -23 -10 -6 9 -11 13 -11 9 0 -4 7 -18 16 -32 12 -18 13
-28 4 -44 -6 -12 -15 -21 -21 -21 -6 0 -7 -5 -3 -12 4 -7 3 -8 -5 -4 -6 4 -9
11 -6 16 5 9 -28 20 -62 20 -22 0 -28 9 -23 39 2 19 -21 32 -43 25 -18 -6 -18
-4 -2 26 27 52 97 84 134 61z m-335 -67 c12 -5 13 -10 4 -24 -11 -17 -14 -17
-35 -3 -18 12 -21 18 -11 24 16 10 22 11 42 3z m172 -25 c18 -5 39 -18 48 -28
16 -18 16 -21 0 -57 l-17 -39 -8 35 c-8 37 -32 60 -61 60 -24 0 -58 -35 -58
-60 0 -24 33 -60 58 -61 22 -1 -46 -27 -74 -28 -32 -1 -72 36 -79 73 -7 35 22
109 47 120 16 6 103 -2 144 -15z m64 -14 c0 -3 -2 -5 -5 -5 -3 0 -5 2 -5 5 0
3 2 5 5 5 3 0 5 -2 5 -5z m-268 -64 c-4 -27 -6 -29 -28 -19 -30 14 -30 22 -1
36 32 16 34 15 29 -17z m193 9 c0 -18 -33 -26 -47 -12 -6 6 -7 15 -3 22 10 16
50 8 50 -10z m115 -10 c0 -5 -2 -10 -4 -10 -3 0 -8 5 -11 10 -3 6 -1 10 4 10
6 0 11 -4 11 -10z m35 0 c3 -6 -1 -7 -9 -4 -18 7 -21 14 -7 14 6 0 13 -4 16
-10z m102 -25 c9 -25 -2 -27 -22 -5 -17 18 -17 20 -1 20 9 0 19 -7 23 -15z
m-411 -83 c-3 -2 -19 -1 -37 3 l-33 7 25 14 c21 11 26 11 36 -3 7 -9 11 -18 9
-21z m129 -42 c7 -11 -25 -70 -37 -70 -11 0 -10 11 3 49 11 32 23 39 34 21z
m42 -59 c16 -28 12 -35 -15 -27 -22 7 -36 32 -27 47 10 14 28 6 42 -20z m283
-21 c0 -24 -5 -31 -27 -36 -16 -4 -31 -12 -35 -18 -4 -6 -6 3 -5 19 2 25 6 29
26 27 16 -3 24 2 28 17 8 30 13 26 13 -9z m-13 -57 c-4 -3 -7 0 -7 7 0 7 3 10
7 7 3 -4 3 -10 0 -14z m-17 -2 c0 -6 -4 -13 -10 -16 -5 -3 -10 1 -10 9 0 9 5
16 10 16 6 0 10 -4 10 -9z"/>
<path d="M371 446 c-23 -25 -21 -46 4 -46 18 0 49 46 40 60 -10 15 -19 12 -44
-14z m29 -12 c0 -8 -4 -13 -9 -10 -5 4 -11 0 -14 -6 -2 -7 -7 -10 -11 -7 -4 4
0 14 9 23 20 20 25 20 25 0z"/>
</g>
</svg>
