<?xml version="1.0" standalone="no"?>
<!DOCTYPE svg PUBLIC "-//W3C//DTD SVG 20010904//EN"
 "http://www.w3.org/TR/2001/REC-SVG-20010904/DTD/svg10.dtd">
<svg version="1.0" xmlns="http://www.w3.org/2000/svg"
 width="56.000000pt" height="56.000000pt" viewBox="0 0 56.000000 56.000000"
 preserveAspectRatio="xMidYMid meet">
<metadata>
Created by potrace 1.16, written by Peter Selinger 2001-2019
</metadata>
<g transform="translate(0.000000,56.000000) scale(0.100000,-0.100000)"
fill="#000000" stroke="none">
<path d="M205 497 c-9 -14 -15 -32 -13 -39 3 -8 11 -1 21 17 l16 30 -5 -35 -5
-35 16 27 c16 29 53 54 63 43 3 -3 1 -18 -5 -33 -25 -62 -24 -65 10 -27 19 22
39 36 43 32 11 -10 -22 -63 -59 -97 -17 -15 -27 -32 -23 -38 17 -27 60 -4 61
32 2 28 31 66 52 66 20 0 16 -10 -22 -67 -55 -82 -125 -106 -152 -53 -10 21
-10 26 2 28 18 4 20 28 3 38 -6 4 -8 3 -4 -4 3 -6 2 -13 -3 -16 -4 -3 -9 11
-10 32 -3 84 -5 94 -17 77 -8 -11 -20 -14 -37 -10 -33 9 -41 -8 -22 -46 9 -17
15 -32 13 -33 -2 -1 -15 -7 -31 -14 -61 -26 -58 -93 5 -132 18 -11 27 -20 20
-20 -23 0 -52 -40 -52 -70 0 -78 71 -128 140 -100 36 15 65 53 57 74 -3 7 8
26 24 42 16 15 29 22 29 15 0 -8 12 -12 33 -11 50 3 57 1 57 -15 0 -8 11 -22
26 -31 17 -12 22 -20 15 -27 -22 -22 -12 -38 22 -35 26 2 33 8 35 29 2 19 -4
31 -22 43 -24 15 -39 55 -15 41 13 -9 49 23 49 43 0 8 -19 33 -41 56 l-42 41
37 3 c53 5 46 28 -19 59 -37 18 -55 33 -55 45 0 10 -6 21 -14 24 -8 3 -16 15
-19 26 -4 15 -12 19 -26 15 -13 -3 -21 1 -24 14 -6 22 -26 24 -52 5 -17 -12
-21 -12 -31 2 -10 14 -13 12 -29 -11z m-57 -43 c19 -5 22 -12 20 -37 -4 -43
-21 -44 -41 -2 -24 50 -23 50 21 39z m170 -81 c-2 -9 -11 -17 -20 -19 -15 -2
-16 1 -8 17 13 23 33 25 28 2z m139 -10 c24 -10 43 -21 43 -25 0 -12 -108 -9
-115 2 -7 11 11 40 24 40 3 0 25 -8 48 -17z m-311 -1 c13 -8 34 -46 34 -61 0
-16 -30 -41 -51 -41 -27 0 -59 35 -59 65 0 34 46 57 76 37z m213 -88 c-9 -11
-15 -12 -26 -2 -13 10 -12 13 4 19 25 9 36 0 22 -17z m71 6 c0 -5 -10 -15 -22
-21 -23 -12 -23 -12 -4 10 21 23 26 26 26 11z m-105 -21 c4 -5 -1 -19 -10 -29
-16 -18 -17 -18 -37 2 -16 16 -18 22 -7 29 19 12 46 11 54 -2z m-65 -29 c24
-15 7 -18 -20 -3 -14 7 -18 13 -10 13 8 0 22 -4 30 -10z m215 -2 c29 -13 31
-21 11 -37 -11 -10 -17 -7 -30 11 -27 38 -22 45 19 26z m-37 -19 c2 -11 -6
-18 -23 -21 -19 -4 -25 -1 -25 12 0 9 3 20 7 24 12 11 38 2 41 -15z m-58 -9
c0 -14 -7 -20 -22 -20 -20 0 -21 1 -3 20 10 11 20 20 22 20 1 0 3 -9 3 -20z
m-162 -6 c26 -18 27 -31 7 -70 -24 -46 -81 -58 -115 -24 -62 62 34 146 108 94z
m222 -44 c0 -5 6 -10 14 -10 8 0 18 -5 21 -11 12 -19 -3 -21 -29 -4 -26 18
-34 35 -16 35 6 0 10 -4 10 -10z m27 -67 c-4 -3 -10 -3 -14 0 -3 4 0 7 7 7 7
0 10 -3 7 -7z"/>
<path d="M218 308 c6 -6 18 -8 28 -6 14 3 12 5 -9 10 -19 3 -25 2 -19 -4z"/>
</g>
</svg>
