<?xml version="1.0" standalone="no"?>
<!DOCTYPE svg PUBLIC "-//W3C//DTD SVG 20010904//EN"
 "http://www.w3.org/TR/2001/REC-SVG-20010904/DTD/svg10.dtd">
<svg version="1.0" xmlns="http://www.w3.org/2000/svg"
 width="56.000000pt" height="56.000000pt" viewBox="0 0 56.000000 56.000000"
 preserveAspectRatio="xMidYMid meet">
<metadata>
Created by potrace 1.16, written by Peter Selinger 2001-2019
</metadata>
<g transform="translate(0.000000,56.000000) scale(0.100000,-0.100000)"
fill="#000000" stroke="none">
<path d="M177 434 c-15 -8 -32 -12 -37 -9 -5 3 -25 -1 -44 -9 -75 -31 -55
-124 40 -182 15 -10 17 -14 7 -25 -7 -7 -13 -18 -13 -24 0 -5 12 8 26 30 18
28 23 32 18 15 -4 -14 -14 -34 -22 -45 -15 -20 -15 -20 -43 7 -48 49 -109 32
-109 -30 0 -25 58 -75 77 -68 8 3 11 1 8 -4 -3 -6 4 -10 15 -10 l22 0 -20 -34
c-11 -19 -18 -37 -15 -40 13 -12 95 -5 118 10 21 13 41 15 123 9 l98 -7 36 39
c30 34 37 38 46 24 8 -14 12 -12 22 14 21 54 23 92 5 144 -17 52 -54 91 -86
91 -14 0 -19 7 -19 29 0 37 -36 80 -70 83 -19 2 -24 -1 -22 -15 3 -16 0 -16
-30 3 -39 23 -92 25 -131 4z m107 0 c13 -5 12 -9 -7 -25 -16 -14 -17 -17 -4
-13 31 11 67 -4 67 -29 -1 -67 -50 -147 -92 -147 -7 0 -2 6 12 13 14 7 26 23
28 35 3 18 -4 26 -32 37 -41 17 -102 20 -111 5 -7 -12 -35 5 -35 21 0 16 52
84 73 96 24 13 76 17 101 7z m119 -26 c9 -11 17 -30 17 -42 0 -31 -33 -91 -50
-91 -12 0 -15 15 -14 75 0 42 -4 79 -10 83 -6 5 0 5 14 2 14 -4 33 -16 43 -27z
m-263 0 c0 -6 -3 -8 -7 -5 -7 8 -43 -47 -43 -67 0 -7 10 -26 22 -41 20 -25 20
-27 2 -23 -10 2 -28 19 -38 39 -25 45 -16 84 21 97 38 14 43 14 43 0z m342
-99 c24 -13 48 -67 48 -106 -1 -27 -1 -27 -21 10 -20 38 -41 51 -32 19 2 -10
-2 -24 -10 -31 -12 -10 -19 -7 -36 15 -22 28 -25 44 -15 82 7 24 33 29 66 11z
m-113 -85 c28 -35 27 -54 -3 -54 -14 0 -27 -4 -30 -9 -11 -16 -86 -51 -112
-51 -36 0 -25 23 14 31 39 8 85 37 77 49 -3 4 -23 -1 -44 -13 -41 -23 -56 -21
-45 6 6 17 61 40 75 31 5 -2 14 4 21 16 17 26 22 25 47 -6z m-319 -24 c0 -6
-7 -13 -15 -16 -20 -8 -19 -33 2 -58 18 -21 18 -21 -4 -2 -23 19 -28 41 -17
70 7 18 34 22 34 6z m14 -31 c-3 -5 -10 -7 -15 -3 -5 3 -7 10 -3 15 3 5 10 7
15 3 5 -3 7 -10 3 -15z m336 -19 c11 -7 3 -10 -30 -11 l-45 -2 45 -6 c40 -5
45 -9 48 -33 5 -44 -14 -68 -53 -68 -24 0 -38 6 -45 19 -34 65 24 137 80 101z
m-330 -45 c0 -3 -2 -5 -5 -5 -3 0 -5 2 -5 5 0 3 2 5 5 5 3 0 5 -2 5 -5z m214
-32 c-24 -18 -89 -17 -104 2 -14 17 -12 17 45 16 22 -1 47 3 55 8 23 15 27 -9
4 -26z m-111 1 c13 -13 -14 -44 -38 -44 -28 0 -29 3 -15 31 10 18 40 26 53 13z
m137 -29 c0 -3 -2 -5 -5 -5 -3 0 -5 2 -5 5 0 3 2 5 5 5 3 0 5 -2 5 -5z m-162
-32 c-10 -2 -28 -2 -40 0 -13 2 -5 4 17 4 22 1 32 -1 23 -4z"/>
<path d="M285 380 c-8 -13 3 -30 20 -30 20 0 30 21 14 31 -18 11 -26 11 -34
-1z m15 -5 c0 -3 -2 -5 -5 -5 -3 0 -5 2 -5 5 0 3 2 5 5 5 3 0 5 -2 5 -5z"/>
<path d="M166 371 c-3 -5 9 -11 27 -14 36 -5 42 -3 32 12 -8 13 -52 15 -59 2z"/>
<path d="M150 340 c0 -5 7 -10 16 -10 8 0 12 5 9 10 -3 6 -10 10 -16 10 -5 0
-9 -4 -9 -10z"/>
<path d="M190 340 c0 -5 7 -10 16 -10 8 0 12 5 9 10 -3 6 -10 10 -16 10 -5 0
-9 -4 -9 -10z"/>
<path d="M446 208 c3 -5 10 -6 15 -3 13 9 11 12 -6 12 -8 0 -12 -4 -9 -9z"/>
<path d="M344 85 c-9 -22 22 -53 37 -38 15 15 7 47 -14 51 -9 2 -20 -4 -23
-13z m16 0 c0 -3 -2 -5 -5 -5 -3 0 -5 2 -5 5 0 3 2 5 5 5 3 0 5 -2 5 -5z"/>
</g>
</svg>
