<?xml version="1.0" standalone="no"?>
<!DOCTYPE svg PUBLIC "-//W3C//DTD SVG 20010904//EN"
 "http://www.w3.org/TR/2001/REC-SVG-20010904/DTD/svg10.dtd">
<svg version="1.0" xmlns="http://www.w3.org/2000/svg"
 width="56.000000pt" height="56.000000pt" viewBox="0 0 56.000000 56.000000"
 preserveAspectRatio="xMidYMid meet">
<metadata>
Created by potrace 1.16, written by Peter Selinger 2001-2019
</metadata>
<g transform="translate(0.000000,56.000000) scale(0.100000,-0.100000)"
fill="#000000" stroke="none">
<path d="M80 500 c0 -5 5 -10 11 -10 5 0 7 5 4 10 -3 6 -8 10 -11 10 -2 0 -4
-4 -4 -10z"/>
<path d="M447 493 c-8 -18 -1 -36 15 -39 20 -3 44 21 29 30 -5 4 -12 2 -16 -4
-4 -6 -11 -8 -16 -4 -5 3 -7 10 -4 15 4 5 4 9 1 9 -3 0 -7 -3 -9 -7z m43 -17
c0 -3 -5 -8 -12 -12 -7 -4 -8 -3 -4 4 7 12 16 16 16 8z m-30 -11 c0 -3 -2 -5
-5 -5 -3 0 -5 2 -5 5 0 3 2 5 5 5 3 0 5 -2 5 -5z"/>
<path d="M153 478 c-13 -17 -11 -40 4 -45 19 -7 35 33 19 46 -10 8 -16 8 -23
-1z m21 -7 c3 -5 -1 -14 -8 -20 -12 -10 -14 -9 -11 6 2 10 4 19 4 21 2 5 10 2
15 -7z"/>
<path d="M160 465 c0 -3 2 -5 5 -5 3 0 5 2 5 5 0 3 -2 5 -5 5 -3 0 -5 -2 -5
-5z"/>
<path d="M257 479 c7 -7 15 -10 18 -7 3 3 -2 9 -12 12 -14 6 -15 5 -6 -5z"/>
<path d="M346 471 c-6 -8 4 -20 32 -36 11 -6 12 -3 3 13 -14 26 -28 35 -35 23z
m19 -11 c3 -5 4 -10 1 -10 -3 0 -8 5 -11 10 -3 6 -4 10 -1 10 3 0 8 -4 11 -10z"/>
<path d="M420 465 c0 -3 2 -5 5 -5 3 0 5 2 5 5 0 3 -2 5 -5 5 -3 0 -5 -2 -5
-5z"/>
<path d="M248 442 c-15 -20 -72 -46 -103 -47 -15 0 -19 -6 -17 -25 5 -45 2
-74 -8 -84 -15 -15 -12 -40 8 -58 36 -34 56 -68 32 -53 -5 3 -10 2 -10 -4 0
-15 21 -25 54 -27 16 -1 33 -9 38 -18 11 -20 27 -20 50 0 14 14 20 15 33 4 13
-11 24 -4 72 45 49 50 55 60 45 76 -7 10 -12 27 -12 36 0 10 -6 30 -14 44 -9
18 -10 32 -4 43 10 18 -5 46 -26 46 -6 0 -5 -4 3 -9 11 -7 11 -9 0 -13 -8 -3
-20 1 -27 9 -7 7 -22 13 -32 13 -10 0 -20 9 -23 20 -6 25 -41 26 -59 2z m32
-12 c0 -19 -11 -26 -23 -14 -8 8 3 34 14 34 5 0 9 -9 9 -20z m-130 -62 c0 -16
-3 -19 -11 -11 -6 6 -8 16 -5 22 11 17 16 13 16 -11z m156 11 c8 -14 -16 -60
-28 -53 -4 3 -8 -1 -8 -8 0 -9 -3 -9 -10 2 -8 12 -10 12 -10 1 0 -11 -5 -10
-20 4 -23 21 -25 36 -8 53 15 15 74 16 84 1z m-128 -19 c-7 -10 -14 -17 -17
-15 -4 4 18 35 25 35 2 0 -1 -9 -8 -20z m157 -40 c3 -6 -5 -14 -19 -20 -14 -5
-26 -14 -26 -19 0 -6 6 -8 14 -5 17 6 31 -12 16 -21 -5 -3 -20 1 -31 9 -19 13
-25 13 -50 0 -33 -16 -39 -17 -39 -5 0 5 9 13 20 16 11 4 18 11 14 16 -3 5
-14 7 -24 4 -22 -7 -38 13 -16 21 8 3 26 -2 41 -12 25 -16 27 -16 53 4 31 24
38 26 47 12z m-208 -57 c-4 -3 -7 0 -7 7 0 7 3 10 7 7 3 -4 3 -10 0 -14z m313
-23 c0 -5 -4 -10 -9 -10 -6 0 -13 5 -16 10 -3 6 1 10 9 10 9 0 16 -4 16 -10z
m-204 -11 c3 -6 2 -15 -4 -21 -12 -12 -55 8 -47 23 8 12 42 12 51 -2z m111 -6
c5 -13 -43 -30 -54 -20 -3 4 -3 13 1 22 7 19 47 17 53 -2z m0 -50 c-9 -9 -20
-13 -24 -9 -4 4 -1 11 7 16 25 16 35 11 17 -7z m-97 -3 c0 -5 -8 -10 -17 -10
-15 0 -16 2 -3 10 19 12 20 12 20 0z m60 0 c0 -5 -12 -10 -27 -9 l-28 1 25 8
c14 4 26 8 28 9 1 1 2 -3 2 -9z m50 -24 c0 -3 -5 -8 -12 -12 -7 -4 -8 -3 -4 4
7 12 16 16 16 8z m-83 -23 c-4 -3 -10 -3 -14 0 -3 4 0 7 7 7 7 0 10 -3 7 -7z"/>
<path d="M248 373 c-10 -2 -18 -8 -18 -13 0 -10 44 -7 46 3 2 11 -9 15 -28 10z"/>
<path d="M210 225 c0 -3 2 -5 5 -5 3 0 5 2 5 5 0 3 -2 5 -5 5 -3 0 -5 -2 -5
-5z"/>
<path d="M300 225 c0 -3 2 -5 5 -5 3 0 5 2 5 5 0 3 -2 5 -5 5 -3 0 -5 -2 -5
-5z"/>
<path d="M88 438 c-11 -6 -11 -8 0 -8 9 0 10 -5 2 -19 -10 -21 3 -40 15 -21 3
5 3 10 -2 10 -4 0 -2 4 6 9 8 5 16 16 17 24 2 15 -18 18 -38 5z m27 -8 c3 -5
4 -10 1 -10 -3 0 -8 5 -11 10 -3 6 -4 10 -1 10 3 0 8 -4 11 -10z m-15 -35 c0
-3 -2 -5 -5 -5 -3 0 -5 2 -5 5 0 3 2 5 5 5 3 0 5 -2 5 -5z"/>
<path d="M415 430 c-2 -4 4 -15 14 -24 16 -14 20 -15 30 -2 9 11 9 16 -1 22
-18 12 -37 14 -43 4z m40 -12 c4 -3 2 -9 -3 -12 -5 -3 -15 1 -21 8 -10 11 -9
14 3 12 9 -1 18 -5 21 -8z"/>
<path d="M440 415 c0 -3 2 -5 5 -5 3 0 5 2 5 5 0 3 -2 5 -5 5 -3 0 -5 -2 -5
-5z"/>
<path d="M486 401 c-4 -5 -2 -12 3 -15 5 -4 12 -2 15 3 4 5 2 12 -3 15 -5 4
-12 2 -15 -3z m14 -6 c0 -3 -2 -5 -5 -5 -3 0 -5 2 -5 5 0 3 2 5 5 5 3 0 5 -2
5 -5z"/>
<path d="M466 382 c2 -2 -1 -13 -7 -23 -7 -13 -6 -19 1 -19 15 0 25 30 13 39
-6 5 -9 6 -7 3z"/>
<path d="M426 371 c-4 -5 -2 -12 3 -15 5 -4 12 -2 15 3 4 5 2 12 -3 15 -5 4
-12 2 -15 -3z m14 -6 c0 -3 -2 -5 -5 -5 -3 0 -5 2 -5 5 0 3 2 5 5 5 3 0 5 -2
5 -5z"/>
<path d="M55 360 c-7 -12 22 -33 35 -25 6 4 9 12 7 18 -4 13 -35 18 -42 7z
m35 -6 c0 -8 -19 -13 -24 -6 -3 5 1 9 9 9 8 0 15 -2 15 -3z"/>
<path d="M465 300 c-3 -5 -2 -10 2 -12 13 -7 33 -3 36 6 3 12 -31 17 -38 6z
m15 -5 c0 -3 -2 -5 -5 -5 -3 0 -5 2 -5 5 0 3 2 5 5 5 3 0 5 -2 5 -5z m20 0 c0
-3 -2 -5 -5 -5 -3 0 -5 2 -5 5 0 3 2 5 5 5 3 0 5 -2 5 -5z"/>
<path d="M40 281 c0 -5 7 -14 15 -21 16 -13 45 -7 45 10 0 7 -6 8 -19 0 -14
-7 -22 -7 -27 2 -4 6 -3 8 4 4 6 -3 13 -3 16 2 2 4 -4 9 -15 9 -10 1 -19 -2
-19 -6z"/>
<path d="M100 215 c0 -3 2 -5 5 -5 3 0 5 2 5 5 0 3 -2 5 -5 5 -3 0 -5 -2 -5
-5z"/>
<path d="M130 205 c-1 -5 -2 -14 -1 -19 1 -5 -4 -4 -13 3 -10 8 -16 9 -21 1
-9 -14 24 -25 37 -12 6 6 8 16 5 24 -3 7 -6 9 -7 3z m-20 -20 c0 -3 -2 -5 -5
-5 -3 0 -5 2 -5 5 0 3 2 5 5 5 3 0 5 -2 5 -5z"/>
<path d="M440 155 c-9 -11 -16 -12 -25 -5 -9 7 -15 7 -19 1 -4 -5 -2 -13 4
-16 7 -4 7 -12 2 -18 -15 -22 -2 -57 21 -53 21 3 38 17 31 27 -4 6 -11 6 -20
-2 -8 -6 -15 -9 -15 -5 -5 25 -4 33 9 48 11 13 19 15 27 8 13 -11 43 15 31 27
-3 3 -6 1 -6 -7 0 -9 -3 -10 -14 -1 -10 9 -16 8 -26 -4z m25 -5 c3 -5 4 -10 1
-10 -3 0 -8 5 -11 10 -3 6 -4 10 -1 10 3 0 8 -4 11 -10z m-50 -10 c3 -5 4 -10
1 -10 -3 0 -8 5 -11 10 -3 6 -4 10 -1 10 3 0 8 -4 11 -10z m-5 -35 c0 -3 -2
-5 -5 -5 -3 0 -5 2 -5 5 0 3 2 5 5 5 3 0 5 -2 5 -5z m5 -25 c3 -5 4 -10 1 -10
-3 0 -8 5 -11 10 -3 6 -4 10 -1 10 3 0 8 -4 11 -10z m35 6 c0 -3 -5 -8 -12
-12 -7 -4 -8 -3 -4 4 7 12 16 16 16 8z"/>
<path d="M110 132 c0 -5 -8 -9 -17 -8 -10 0 -19 -3 -20 -9 -4 -12 18 -14 33
-3 7 5 16 2 23 -6 9 -11 9 -16 0 -22 -8 -5 -9 -3 -4 7 7 11 6 12 -7 2 -8 -7
-19 -9 -23 -5 -5 4 -5 1 -1 -5 10 -18 45 -16 53 3 3 9 -3 23 -16 35 -11 11
-21 16 -21 11z m-30 -17 c0 -3 -2 -5 -5 -5 -3 0 -5 2 -5 5 0 3 2 5 5 5 3 0 5
-2 5 -5z m20 0 c0 -3 -2 -5 -5 -5 -3 0 -5 2 -5 5 0 3 2 5 5 5 3 0 5 -2 5 -5z"/>
<path d="M167 113 c-10 -16 11 -39 23 -27 8 8 7 14 -4 23 -8 7 -17 8 -19 4z
m18 -13 c3 -5 4 -10 1 -10 -3 0 -8 5 -11 10 -3 6 -4 10 -1 10 3 0 8 -4 11 -10z"/>
<path d="M325 90 c-3 -5 -3 -10 1 -10 4 0 -1 -7 -12 -16 -18 -15 -18 -15 3 -4
27 12 36 27 24 34 -5 4 -12 2 -16 -4z m15 -5 c0 -3 -2 -5 -5 -5 -3 0 -5 2 -5
5 0 3 2 5 5 5 3 0 5 -2 5 -5z"/>
<path d="M276 81 c-4 -5 -2 -12 3 -15 5 -4 12 -2 15 3 4 5 2 12 -3 15 -5 4
-12 2 -15 -3z m14 -6 c0 -3 -2 -5 -5 -5 -3 0 -5 2 -5 5 0 3 2 5 5 5 3 0 5 -2
5 -5z"/>
<path d="M230 75 c0 -3 2 -5 5 -5 3 0 5 2 5 5 0 3 -2 5 -5 5 -3 0 -5 -2 -5 -5z"/>
</g>
</svg>
