<?xml version="1.0" standalone="no"?>
<!DOCTYPE svg PUBLIC "-//W3C//DTD SVG 20010904//EN"
 "http://www.w3.org/TR/2001/REC-SVG-20010904/DTD/svg10.dtd">
<svg version="1.0" xmlns="http://www.w3.org/2000/svg"
 width="56.000000pt" height="56.000000pt" viewBox="0 0 56.000000 56.000000"
 preserveAspectRatio="xMidYMid meet">
<metadata>
Created by potrace 1.16, written by Peter Selinger 2001-2019
</metadata>
<g transform="translate(0.000000,56.000000) scale(0.100000,-0.100000)"
fill="#000000" stroke="none">
<path d="M470 525 c-18 -21 -3 -32 16 -13 10 9 12 18 6 22 -5 3 -15 -1 -22 -9z
m20 1 c0 -3 -5 -8 -12 -12 -7 -4 -8 -3 -4 4 7 12 16 16 16 8z"/>
<path d="M66 512 c-4 -4 -12 -7 -17 -7 -17 0 -14 -18 3 -21 20 -2 44 21 30 30
-5 3 -12 2 -16 -2z m14 -6 c0 -3 -5 -8 -12 -12 -7 -4 -8 -3 -4 4 7 12 16 16
16 8z"/>
<path d="M347 500 c-29 -42 -95 -45 -111 -5 -7 20 -35 19 -58 -2 -10 -9 -38
-18 -61 -19 -23 0 -45 -2 -50 -3 -4 0 -6 -14 -5 -30 1 -15 -6 -40 -15 -54 -21
-32 -22 -51 -3 -67 12 -9 13 -17 4 -36 -9 -20 -8 -28 5 -41 13 -13 19 -14 30
-4 12 10 17 6 26 -20 10 -29 1 -69 -15 -69 -3 0 -3 4 0 9 4 5 -2 8 -11 7 -17
-3 -21 -14 -5 -18 4 -1 12 -11 17 -22 6 -12 19 -23 30 -25 11 -2 32 -14 47
-26 28 -24 95 -49 159 -60 26 -5 39 -2 49 9 7 9 10 19 7 23 -4 3 1 12 10 18
12 9 22 10 34 2 34 -21 66 32 37 62 -11 10 -8 17 15 35 30 24 36 53 12 62 -18
7 -19 37 -3 64 17 27 0 54 -35 58 -38 5 -77 62 -43 62 16 0 46 37 46 57 0 45
-87 70 -113 33z m39 -7 c-2 -10 -9 -18 -17 -18 -8 -1 -13 -7 -11 -14 1 -7 -2
-10 -8 -6 -6 3 -7 12 -3 18 4 7 8 15 9 20 1 4 2 9 3 12 3 14 29 2 27 -12z
m-172 0 c-5 -5 -12 -12 -16 -18 -4 -6 -8 -2 -8 8 0 9 7 17 17 17 9 0 12 -3 7
-7z m-128 -50 c-10 -10 -19 5 -10 18 6 11 8 11 12 0 2 -7 1 -15 -2 -18z m81
20 c-4 -3 -10 -3 -14 0 -3 4 0 7 7 7 7 0 10 -3 7 -7z m-37 -8 c0 -3 -2 -5 -5
-5 -3 0 -5 2 -5 5 0 3 2 5 5 5 3 0 5 -2 5 -5z m175 -5 c-11 -5 -27 -9 -35 -9
-9 0 -8 4 5 9 11 5 27 9 35 9 9 0 8 -4 -5 -9z m115 4 c0 -8 -19 -13 -24 -6 -3
5 1 9 9 9 8 0 15 -2 15 -3z m-230 -24 c0 -12 -40 -34 -47 -26 -9 8 17 36 33
36 8 0 14 -4 14 -10z m155 -1 c11 -16 -1 -22 -30 -15 -14 4 -23 11 -20 16 8
13 42 13 50 -1z m-265 -29 c-6 -11 -13 -20 -16 -20 -2 0 0 9 6 20 6 11 13 20
16 20 2 0 0 -9 -6 -20z m127 3 c-4 -3 -7 0 -7 7 0 7 3 10 7 7 3 -4 3 -10 0
-14z m38 7 c3 -6 -1 -7 -9 -4 -18 7 -21 14 -7 14 6 0 13 -4 16 -10z m129 1 c3
-4 -3 -16 -13 -25 -15 -14 -20 -14 -30 -3 -9 12 -7 14 11 13 14 0 22 4 21 12
-3 14 3 16 11 3z m-184 -16 c0 -3 -2 -5 -5 -5 -3 0 -5 2 -5 5 0 3 2 5 5 5 3 0
5 -2 5 -5z m-60 -20 c0 -16 -27 -32 -37 -21 -7 7 16 36 28 36 5 0 9 -7 9 -15z
m90 10 c0 -3 -2 -5 -5 -5 -3 0 -5 2 -5 5 0 3 2 5 5 5 3 0 5 -2 5 -5z m84 -7
c4 4 6 0 4 -8 -1 -8 3 -14 11 -15 8 0 15 -7 17 -16 2 -21 -19 -19 -44 4 -10 9
-21 15 -24 12 -3 -3 -11 2 -19 12 -8 9 -9 14 -2 10 6 -4 15 -3 18 3 5 8 11 8
19 1 7 -6 16 -7 20 -3z m-104 -1 c0 -2 -10 -12 -22 -23 l-23 -19 19 23 c18 21
26 27 26 19z m-148 -39 c-7 -7 -12 -8 -12 -2 0 14 12 26 19 19 2 -3 -1 -11 -7
-17z m88 7 c0 -3 -2 -5 -5 -5 -3 0 -5 2 -5 5 0 3 2 5 5 5 3 0 5 -2 5 -5z m345
-15 c12 -19 -5 -31 -27 -19 -15 8 -19 8 -14 0 8 -13 4 -14 -19 -4 -15 5 -14 8
6 19 29 16 46 17 54 4z m-358 -6 c-3 -3 -12 -4 -19 -1 -8 3 -5 6 6 6 11 1 17
-2 13 -5z m20 -21 c-14 -14 -19 -15 -29 -4 -11 10 -10 11 4 6 12 -5 20 -1 24
9 4 9 9 14 12 11 3 -3 -2 -13 -11 -22z m24 -10 c-12 -20 -14 -14 -5 12 4 9 9
14 11 11 3 -2 0 -13 -6 -23z m-97 -28 c-4 -8 -10 -12 -15 -9 -11 6 -2 24 11
24 5 0 7 -7 4 -15z m110 -1 c9 -3 16 -14 16 -23 0 -11 3 -12 8 -4 4 7 13 9 21
4 9 -6 10 -11 2 -15 -17 -11 -50 3 -61 25 -12 21 -10 22 14 13z m228 -22 c17
-17 18 -40 1 -53 -8 -7 -13 -8 -12 -3 1 5 0 12 -1 17 -1 4 -3 13 -4 20 0 6 -7
13 -13 13 -22 2 -24 4 -19 13 8 12 33 8 48 -7z m-243 -70 c1 -7 -3 -10 -9 -7
-5 3 -10 18 -9 33 0 24 1 25 9 7 5 -11 9 -26 9 -33z m130 35 c3 6 22 3 46 -8
33 -15 37 -19 22 -25 -23 -8 -87 20 -86 38 0 10 2 9 6 -1 3 -7 8 -9 12 -4z
m201 -3 c0 -8 -4 -12 -10 -9 -5 3 -10 10 -10 16 0 5 5 9 10 9 6 0 10 -7 10
-16z m-305 -24 c3 -5 4 -10 1 -10 -3 0 -8 5 -11 10 -3 6 -4 10 -1 10 3 0 8 -4
11 -10z m25 -15 c0 -3 -2 -5 -5 -5 -3 0 -5 2 -5 5 0 3 2 5 5 5 3 0 5 -2 5 -5z
m-140 -10 c0 -3 -2 -5 -5 -5 -3 0 -5 2 -5 5 0 3 2 5 5 5 3 0 5 -2 5 -5z m110
0 c0 -3 -2 -5 -5 -5 -3 0 -5 2 -5 5 0 3 2 5 5 5 3 0 5 -2 5 -5z m-70 -9 c0 -3
-5 -8 -12 -12 -7 -4 -8 -3 -4 4 7 12 16 16 16 8z m90 -1 c0 -3 -2 -5 -5 -5 -3
0 -5 2 -5 5 0 3 2 5 5 5 3 0 5 -2 5 -5z m45 -5 c3 -5 4 -10 1 -10 -3 0 -8 5
-11 10 -3 6 -4 10 -1 10 3 0 8 -4 11 -10z m-25 -5 c0 -3 -2 -5 -5 -5 -3 0 -5
2 -5 5 0 3 2 5 5 5 3 0 5 -2 5 -5z m57 -30 c-2 -29 -4 -32 -15 -21 -11 11 -11
18 -3 35 16 30 21 26 18 -14z m-70 -7 c38 -36 27 -50 -17 -21 -22 15 -40 30
-40 35 0 16 34 8 57 -14z m249 11 c7 -12 -15 -31 -28 -23 -9 6 1 34 12 34 5 0
12 -5 16 -11z m-156 -4 c0 -3 -2 -5 -5 -5 -3 0 -5 2 -5 5 0 3 2 5 5 5 3 0 5
-2 5 -5z"/>
<path d="M370 485 c0 -3 2 -5 5 -5 3 0 5 2 5 5 0 3 -2 5 -5 5 -3 0 -5 -2 -5
-5z"/>
<path d="M150 415 c0 -3 2 -5 5 -5 3 0 5 2 5 5 0 3 -2 5 -5 5 -3 0 -5 -2 -5
-5z"/>
<path d="M340 385 c0 -3 2 -5 5 -5 3 0 5 2 5 5 0 3 -2 5 -5 5 -3 0 -5 -2 -5
-5z"/>
<path d="M110 375 c0 -3 2 -5 5 -5 3 0 5 2 5 5 0 3 -2 5 -5 5 -3 0 -5 -2 -5
-5z"/>
<path d="M264 368 c-4 -7 -3 -10 1 -5 5 4 19 -2 31 -14 17 -16 24 -18 30 -7 4
7 3 10 -1 5 -5 -4 -19 2 -31 14 -17 16 -24 18 -30 7z"/>
<path d="M370 245 c0 -3 2 -5 5 -5 3 0 5 2 5 5 0 3 -2 5 -5 5 -3 0 -5 -2 -5
-5z"/>
<path d="M396 240 c5 -8 9 -18 9 -22 0 -3 3 -9 7 -13 3 -4 5 0 4 9 -1 9 -8 22
-16 29 -10 10 -11 9 -4 -3z"/>
<path d="M440 95 c0 -3 2 -5 5 -5 3 0 5 2 5 5 0 3 -2 5 -5 5 -3 0 -5 -2 -5 -5z"/>
<path d="M506 511 c-4 -5 -2 -12 3 -15 5 -4 12 -2 15 3 4 5 2 12 -3 15 -5 4
-12 2 -15 -3z m14 -6 c0 -3 -2 -5 -5 -5 -3 0 -5 2 -5 5 0 3 2 5 5 5 3 0 5 -2
5 -5z"/>
<path d="M525 470 c-4 -6 -10 -8 -15 -5 -5 3 -11 1 -15 -5 -10 -16 23 -24 40
-10 8 7 15 16 15 21 0 12 -17 11 -25 -1z m15 -4 c0 -3 -5 -8 -12 -12 -7 -4 -8
-3 -4 4 7 12 16 16 16 8z m-30 -11 c0 -3 -2 -5 -5 -5 -3 0 -5 2 -5 5 0 3 2 5
5 5 3 0 5 -2 5 -5z"/>
<path d="M35 421 c-3 -6 -12 -8 -18 -5 -8 5 -8 3 1 -7 9 -10 15 -10 24 -1 6 6
9 14 6 17 -3 4 -9 1 -13 -4z"/>
<path d="M85 190 c3 -5 8 -10 11 -10 3 0 2 5 -1 10 -3 6 -8 10 -11 10 -3 0 -2
-4 1 -10z"/>
<path d="M36 181 c-4 -5 -2 -12 3 -15 5 -4 12 -2 15 3 4 5 2 12 -3 15 -5 4
-12 2 -15 -3z m14 -6 c0 -3 -2 -5 -5 -5 -3 0 -5 2 -5 5 0 3 2 5 5 5 3 0 5 -2
5 -5z"/>
<path d="M516 161 c-17 -19 -17 -19 0 -17 9 2 18 10 20 19 3 21 1 21 -20 -2z
m14 -6 c0 -3 -2 -5 -5 -5 -3 0 -5 2 -5 5 0 3 2 5 5 5 3 0 5 -2 5 -5z"/>
<path d="M36 121 c-4 -5 -2 -12 3 -15 5 -4 12 -2 15 3 4 5 2 12 -3 15 -5 4
-12 2 -15 -3z m14 -6 c0 -3 -2 -5 -5 -5 -3 0 -5 2 -5 5 0 3 2 5 5 5 3 0 5 -2
5 -5z"/>
<path d="M60 95 c-7 -8 -17 -12 -24 -8 -6 3 -7 2 -3 -2 4 -5 14 -10 22 -11 18
-3 40 22 27 30 -6 3 -15 -1 -22 -9z m20 1 c0 -3 -5 -8 -12 -12 -7 -4 -8 -3 -4
4 7 12 16 16 16 8z"/>
<path d="M525 81 c-3 -6 -10 -9 -14 -7 -4 3 -8 -1 -8 -7 0 -16 34 -20 43 -5 3
5 2 14 -4 20 -6 6 -12 6 -17 -1z m15 -5 c0 -3 -5 -8 -12 -12 -7 -4 -8 -3 -4 4
7 12 16 16 16 8z"/>
<path d="M95 50 c-2 -3 0 -12 5 -19 9 -15 30 -6 30 13 0 13 -28 18 -35 6z m20
-10 c3 -5 4 -10 1 -10 -3 0 -8 5 -11 10 -3 6 -4 10 -1 10 3 0 8 -4 11 -10z"/>
<path d="M166 41 c-9 -13 22 -34 40 -27 8 3 12 11 9 16 -5 8 -11 7 -21 -1 -13
-10 -18 -6 -15 14 1 10 -7 9 -13 -2z m44 -16 c0 -3 -2 -5 -5 -5 -3 0 -5 2 -5
5 0 3 2 5 5 5 3 0 5 -2 5 -5z"/>
<path d="M464 28 c-3 -4 -4 -8 -2 -9 26 -6 39 -5 47 5 7 9 3 12 -15 12 -14 0
-28 -4 -30 -8z m16 -3 c0 -3 -2 -5 -5 -5 -3 0 -5 2 -5 5 0 3 2 5 5 5 3 0 5 -2
5 -5z m20 0 c0 -3 -2 -5 -5 -5 -3 0 -5 2 -5 5 0 3 2 5 5 5 3 0 5 -2 5 -5z"/>
</g>
</svg>
