<?xml version="1.0" standalone="no"?>
<!DOCTYPE svg PUBLIC "-//W3C//DTD SVG 20010904//EN"
 "http://www.w3.org/TR/2001/REC-SVG-20010904/DTD/svg10.dtd">
<svg version="1.0" xmlns="http://www.w3.org/2000/svg"
 width="56.000000pt" height="56.000000pt" viewBox="0 0 56.000000 56.000000"
 preserveAspectRatio="xMidYMid meet">
<metadata>
Created by potrace 1.16, written by Peter Selinger 2001-2019
</metadata>
<g transform="translate(0.000000,56.000000) scale(0.100000,-0.100000)"
fill="#000000" stroke="none">
<path d="M255 520 c-20 -38 -51 -56 -70 -40 -18 15 -35 4 -35 -22 l0 -21 -23
21 c-29 27 -37 20 -37 -33 0 -25 -6 -48 -14 -55 -8 -6 -20 -26 -26 -45 -7 -21
-17 -32 -28 -31 -14 1 -17 -9 -19 -58 -2 -46 3 -70 25 -114 14 -30 37 -61 49
-69 18 -12 21 -19 12 -29 -15 -19 12 -29 39 -15 11 6 22 8 25 5 11 -12 47 8
47 26 0 20 17 36 27 26 4 -4 1 -12 -5 -18 -20 -20 -13 -29 21 -26 18 1 38 -1
44 -5 6 -4 25 -4 42 -1 26 5 35 15 53 55 11 27 25 49 30 49 5 0 19 -10 31 -22
56 -56 120 -10 115 82 -2 34 -7 44 -18 42 -10 -3 -9 2 5 18 12 13 15 24 9 28
-6 4 -13 15 -17 25 -7 19 -42 23 -52 7 -5 -8 -11 -8 -19 -1 -7 6 -16 7 -21 3
-4 -4 -2 3 4 16 12 22 25 23 79 6 6 -2 12 1 12 6 0 6 -6 10 -13 10 -16 0 -47
72 -47 110 0 31 -13 37 -40 20 -11 -7 -17 -1 -27 22 -13 30 -14 30 -33 13 -11
-10 -20 -21 -20 -25 0 -4 20 -15 45 -24 25 -10 45 -21 45 -25 0 -5 -9 -19 -20
-33 -17 -23 -18 -27 -4 -46 14 -20 13 -23 -8 -33 -33 -14 -70 2 -103 45 -23
30 -25 39 -15 51 12 14 6 20 -15 15 -27 -6 -65 -5 -65 1 0 3 7 12 15 19 8 7
20 30 25 51 6 22 15 39 21 39 19 0 22 -32 6 -60 -16 -26 -16 -28 3 -33 11 -3
20 -1 20 3 0 5 9 11 19 15 11 3 22 13 25 21 4 11 2 15 -8 11 -7 -3 -23 7 -35
24 -27 37 -37 36 -56 -1z m-65 -55 c9 -11 10 -18 1 -28 -6 -8 -8 -17 -5 -20 9
-8 -46 -29 -60 -23 -6 3 -1 8 12 11 17 6 22 15 22 41 0 37 10 43 30 19z m-60
-24 c0 -4 -7 -16 -15 -27 -13 -18 -14 -16 -15 20 0 33 2 37 15 26 8 -7 15 -16
15 -19z m107 23 c-3 -3 -12 -4 -19 -1 -8 3 -5 6 6 6 11 1 17 -2 13 -5z m-7
-73 c0 -31 11 -51 27 -51 11 0 13 7 9 26 -5 17 -3 23 4 19 5 -3 10 -15 10 -26
0 -13 4 -18 12 -13 7 5 9 2 5 -9 -3 -9 0 -18 9 -21 16 -6 13 -29 -8 -73 -21
-43 -178 -135 -178 -105 0 23 43 62 67 62 30 0 63 26 63 48 0 9 9 26 21 38 15
16 18 27 12 39 -8 14 -16 11 -60 -24 -35 -27 -53 -50 -58 -71 -4 -17 -13 -34
-20 -36 -7 -3 -20 -23 -29 -44 -12 -31 -20 -38 -41 -36 -14 0 -25 6 -25 11 0
6 -9 18 -20 28 -12 10 -20 29 -20 49 l0 33 15 -30 c15 -29 41 -55 56 -55 13 0
40 70 34 89 -3 10 1 24 10 31 8 7 15 18 15 25 0 7 12 25 26 40 23 25 30 40 33
68 2 17 31 5 31 -12z m270 -33 c0 -4 -7 -5 -15 -2 -8 4 -15 16 -15 27 0 20 0
20 15 1 8 -10 15 -22 15 -26z m-366 16 c19 -7 21 -24 3 -24 -7 0 -29 -18 -50
-39 l-37 -39 23 -15 c18 -12 20 -19 11 -34 -19 -32 -48 -28 -62 10 -16 45 -15
60 4 53 11 -4 20 5 31 32 25 61 39 71 77 56z m300 -95 c-7 -12 -41 -12 -49 0
-6 11 23 20 42 13 7 -2 10 -8 7 -13z m-228 -57 c-11 -12 -16 -13 -16 -4 0 8
-5 10 -12 6 -13 -9 -3 12 21 40 15 18 16 18 19 -4 2 -12 -3 -30 -12 -38z m316
26 c-30 -9 -52 -4 -52 11 0 14 32 18 57 6 22 -10 22 -10 -5 -17z m-126 -54
c19 -15 19 -15 -1 -6 -11 5 -27 12 -35 15 -13 5 -13 6 1 6 8 1 24 -6 35 -15z
m151 -1 c-4 -3 -7 0 -7 7 0 7 3 10 7 7 3 -4 3 -10 0 -14z m-310 -50 c-8 -9
-20 -12 -27 -8 -9 6 -6 13 11 26 27 20 40 6 16 -18z m117 4 c11 -8 15 -19 10
-30 -7 -19 -20 -22 -29 -7 -3 6 -16 10 -27 10 -20 0 -21 1 -3 20 21 24 26 24
49 7z m-74 -7 c0 -5 -5 -10 -11 -10 -5 0 -7 5 -4 10 3 6 8 10 11 10 2 0 4 -4
4 -10z m-20 -25 c0 -3 -2 -5 -5 -5 -3 0 -5 2 -5 5 0 3 2 5 5 5 3 0 5 -2 5 -5z
m65 -38 c29 -22 11 -35 -35 -27 -46 8 -55 14 -45 29 9 15 58 14 80 -2z m-179
-12 c-34 -9 -55 -11 -68 -4 -10 5 -18 11 -18 12 0 1 30 3 68 4 l67 2 -49 -14z
m114 -25 c0 -5 -9 -10 -21 -10 -11 0 -17 5 -14 10 3 6 13 10 21 10 8 0 14 -4
14 -10z m-85 -10 c3 -5 -1 -10 -9 -10 -9 0 -16 5 -16 10 0 6 4 10 9 10 6 0 13
-4 16 -10z m145 0 c0 -5 -7 -10 -15 -10 -8 0 -15 5 -15 10 0 6 7 10 15 10 8 0
15 -4 15 -10z m-213 -17 c-4 -3 -10 -3 -14 0 -3 4 0 7 7 7 7 0 10 -3 7 -7z"/>
<path d="M350 462 c0 -7 -4 -10 -10 -7 -15 9 -12 -39 3 -54 10 -10 7 -10 -15
-2 -18 7 -28 7 -28 1 0 -6 6 -10 14 -10 8 0 21 -2 28 -5 8 -3 32 8 54 26 30
24 34 30 15 24 -19 -6 -28 -2 -42 16 -10 13 -19 18 -19 11z"/>
</g>
</svg>
