<?xml version="1.0" standalone="no"?>
<!DOCTYPE svg PUBLIC "-//W3C//DTD SVG 20010904//EN"
 "http://www.w3.org/TR/2001/REC-SVG-20010904/DTD/svg10.dtd">
<svg version="1.0" xmlns="http://www.w3.org/2000/svg"
 width="56.000000pt" height="56.000000pt" viewBox="0 0 56.000000 56.000000"
 preserveAspectRatio="xMidYMid meet">
<metadata>
Created by potrace 1.16, written by Peter Selinger 2001-2019
</metadata>
<g transform="translate(0.000000,56.000000) scale(0.100000,-0.100000)"
fill="#000000" stroke="none">
<path d="M83 500 c4 -16 2 -32 -3 -35 -5 -3 -6 -13 -3 -23 6 -15 5 -15 -11 -3
-26 21 -43 0 -28 -34 17 -37 15 -72 -7 -103 -30 -43 -35 -79 -11 -92 15 -8 26
-7 45 6 l25 16 -12 -33 c-6 -19 -17 -43 -25 -54 -18 -27 -16 -58 5 -86 10 -13
21 -32 25 -42 9 -24 77 -23 128 4 31 15 44 17 54 9 8 -6 39 -14 69 -17 43 -4
60 -2 74 10 14 13 24 14 60 4 81 -21 108 32 51 100 -61 71 -65 77 -50 68 11
-6 13 -4 8 8 -3 9 -2 19 3 22 19 12 10 52 -19 88 -15 20 -32 33 -37 29 -5 -4
-2 1 5 10 7 9 10 22 6 28 -3 5 1 10 9 10 26 0 18 20 -12 33 -16 7 -27 17 -25
24 7 19 -15 25 -52 14 -30 -8 -37 -7 -45 8 -5 10 -6 27 -3 39 7 29 -21 29 -62
2 -38 -25 -71 -25 -113 0 -45 28 -56 26 -49 -10z m33 5 c8 -21 -6 -41 -17 -24
-12 19 -11 39 1 39 6 0 13 -7 16 -15z m179 5 c-3 -5 -14 -10 -24 -10 -20 0
-48 -27 -38 -36 3 -3 21 -7 40 -9 44 -4 84 -30 103 -66 16 -31 18 -43 6 -35
-4 2 -9 -4 -9 -15 -1 -11 2 -17 7 -14 11 7 62 -18 79 -38 7 -10 8 -17 2 -21
-5 -4 -12 -2 -16 4 -3 5 -17 10 -30 10 -12 0 -26 7 -29 16 -6 15 -9 15 -29 -2
-15 -14 -18 -14 -9 -2 10 13 10 17 0 20 -10 4 -10 8 2 22 13 16 12 20 -3 31
-9 6 -14 15 -11 18 3 3 -5 11 -18 17 -18 10 -21 10 -11 0 6 -7 9 -19 6 -26 -3
-9 2 -14 17 -14 11 0 18 -4 15 -10 -3 -5 -14 -10 -23 -10 -10 0 -53 -18 -97
-40 -44 -22 -87 -40 -96 -40 -26 0 -69 39 -69 63 l0 21 16 -22 c16 -23 58 -30
70 -10 4 7 3 8 -4 4 -19 -12 -35 3 -21 20 6 7 15 11 20 8 21 -12 7 14 -21 41
-17 16 -30 36 -30 44 0 11 6 9 20 -9 l19 -25 9 25 c9 23 7 25 -27 30 -35 5
-34 6 27 19 34 7 65 11 69 8 3 -4 19 5 35 18 29 25 65 35 53 15z m90 -60 c-11
-5 -27 -9 -35 -9 -9 0 -8 4 5 9 11 5 27 9 35 9 9 0 8 -4 -5 -9z m-290 -50 c29
-29 36 -43 28 -51 -17 -17 -37 -1 -22 17 9 12 9 13 -3 9 -10 -4 -23 4 -37 23
-40 57 -20 58 34 2z m341 10 c16 -1 15 -3 -6 -15 -34 -19 -45 -19 -29 2 12 15
12 16 -3 10 -19 -7 -33 7 -23 24 5 7 13 5 24 -5 10 -9 26 -16 37 -16z m-6 -44
c0 -2 -7 -7 -16 -10 -8 -3 -12 -2 -9 4 6 10 25 14 25 6z m-370 -76 c12 -23 -7
-63 -27 -56 -6 3 -14 0 -17 -7 -3 -7 -3 2 1 18 6 31 21 65 28 65 2 0 9 -9 15
-20z m189 -7 c-13 -15 -12 -16 9 -11 12 4 22 4 22 2 0 -9 -75 -34 -99 -33 -19
1 -14 4 17 11 33 7 41 12 33 22 -12 15 -5 26 17 26 12 0 12 -2 1 -17z m131 12
c0 -3 -2 -5 -5 -5 -3 0 -5 2 -5 5 0 3 2 5 5 5 3 0 5 -2 5 -5z m68 -37 c18 -18
15 -25 -20 -37 -26 -9 -35 -9 -47 4 -15 15 -14 18 3 31 24 17 48 18 64 2z
m-243 -33 c39 -2 77 2 85 8 8 6 12 7 8 3 -4 -5 -3 -15 3 -23 14 -16 12 -16
-68 -13 -89 2 -101 -4 -129 -66 -14 -31 -30 -54 -39 -54 -22 0 -19 46 4 69 11
11 17 21 15 24 -2 2 1 18 7 36 9 24 15 30 28 25 9 -4 48 -8 86 -9z m155 5 c0
-5 -5 -10 -11 -10 -5 0 -7 5 -4 10 3 6 8 10 11 10 2 0 4 -4 4 -10z m-313 -17
c-4 -3 -10 -3 -14 0 -3 4 0 7 7 7 7 0 10 -3 7 -7z m333 -13 c0 -5 -4 -10 -10
-10 -5 0 -10 5 -10 10 0 6 5 10 10 10 6 0 10 -4 10 -10z m-117 -16 c3 -4 2
-15 -4 -25 -8 -15 -21 -19 -69 -19 -46 0 -60 3 -60 15 0 7 8 19 18 24 19 11
105 15 115 5z m147 -4 c0 -5 -4 -10 -10 -10 -5 0 -10 5 -10 10 0 6 5 10 10 10
6 0 10 -4 10 -10z m-17 -17 c27 -14 29 -18 13 -21 -11 -2 -32 -16 -47 -31 -27
-28 -79 -35 -87 -12 -6 17 26 61 51 71 31 12 34 12 70 -7z m-155 -58 c-20 -45
-108 -29 -108 19 0 3 27 6 60 6 l60 0 -12 -25z m202 -21 c0 -21 -17 -17 -34 8
-23 33 -20 41 9 22 14 -9 25 -23 25 -30z m86 -1 c4 -26 -16 -46 -32 -32 -7 6
-23 8 -35 4 -18 -6 -21 -4 -16 10 4 9 7 21 7 26 0 20 31 8 40 -16 5 -14 12
-25 15 -25 2 0 0 11 -5 24 -6 17 -5 26 3 29 15 5 20 1 23 -20z m-212 -18 c-9
-22 -44 -40 -44 -22 0 17 20 37 37 37 7 0 10 -7 7 -15z m69 8 c12 -11 -14 -33
-39 -33 -23 0 -32 19 -17 33 8 9 48 9 56 0z m-143 -13 c0 -12 -27 -12 -55 0
-16 7 -13 9 18 9 20 1 37 -3 37 -9z m-115 -30 c5 -8 11 -8 20 0 14 12 48 3 40
-11 -7 -10 -95 -10 -95 1 0 19 25 26 35 10z"/>
<path d="M223 393 c-21 -23 -25 -24 -20 -8 7 20 7 20 -8 1 -17 -23 -18 -26 -7
-43 6 -10 17 -9 50 4 40 15 53 35 32 48 -6 4 -8 11 -5 16 13 20 -18 7 -42 -18z
m43 -4 c10 -17 -13 -36 -27 -22 -12 12 -4 33 11 33 5 0 12 -5 16 -11z m-61
-29 c3 -5 1 -10 -4 -10 -6 0 -11 5 -11 10 0 6 2 10 4 10 3 0 8 -4 11 -10z"/>
<path d="M103 283 c4 -3 10 -3 14 0 3 4 0 7 -7 7 -7 0 -10 -3 -7 -7z"/>
<path d="M143 283 c4 -3 10 -3 14 0 3 4 0 7 -7 7 -7 0 -10 -3 -7 -7z"/>
<path d="M264 212 c4 -3 14 -7 22 -8 9 -1 13 0 10 4 -4 3 -14 7 -22 8 -9 1
-13 0 -10 -4z"/>
<path d="M510 95 c0 -3 2 -5 5 -5 3 0 5 2 5 5 0 3 -2 5 -5 5 -3 0 -5 -2 -5 -5z"/>
</g>
</svg>
