<?xml version="1.0" standalone="no"?>
<!DOCTYPE svg PUBLIC "-//W3C//DTD SVG 20010904//EN"
 "http://www.w3.org/TR/2001/REC-SVG-20010904/DTD/svg10.dtd">
<svg version="1.0" xmlns="http://www.w3.org/2000/svg"
 width="56.000000pt" height="56.000000pt" viewBox="0 0 56.000000 56.000000"
 preserveAspectRatio="xMidYMid meet">
<metadata>
Created by potrace 1.16, written by Peter Selinger 2001-2019
</metadata>
<g transform="translate(0.000000,56.000000) scale(0.100000,-0.100000)"
fill="#000000" stroke="none">
<path d="M280 505 c-14 -8 -56 -17 -93 -21 -57 -6 -65 -9 -50 -19 42 -28 77
-25 122 11 48 37 74 41 126 20 24 -10 36 -23 40 -43 16 -74 35 -109 60 -111
26 -2 34 12 13 24 -7 4 -8 3 -4 -4 4 -7 3 -12 -3 -12 -22 0 -19 18 5 29 28 12
24 31 -6 31 -11 0 -32 18 -49 44 -43 61 -107 82 -161 51z m-50 -35 c-8 -5 -31
-9 -50 -9 l-35 1 30 8 c17 4 39 8 50 9 16 1 17 -1 5 -9z"/>
<path d="M284 455 c-4 -8 -10 -13 -14 -10 -5 3 -7 -3 -5 -12 2 -10 4 -24 4
-30 1 -15 37 -18 45 -4 4 5 -6 14 -21 19 -20 7 -22 11 -9 11 11 1 16 6 13 15
-3 8 -1 17 6 20 9 3 8 5 -1 5 -7 1 -15 -6 -18 -14z"/>
<path d="M340 431 c-6 -12 -6 -22 -1 -26 12 -7 24 12 17 24 -4 5 0 12 6 14 10
4 10 6 1 6 -7 1 -17 -8 -23 -18z"/>
<path d="M133 394 c-38 -37 -40 -40 -7 -13 22 19 49 39 60 46 10 6 14 12 7 12
-6 1 -33 -20 -60 -45z"/>
<path d="M213 403 c26 -7 21 -20 -20 -48 -21 -14 -33 -25 -27 -25 5 0 16 6 23
13 11 10 15 8 25 -7 22 -37 58 -76 69 -76 6 0 1 7 -11 16 -26 18 -55 71 -47
84 10 16 27 12 54 -12 l26 -23 -20 24 -20 24 25 -7 c24 -6 24 -6 -3 9 -15 9
-31 13 -36 11 -5 -3 -11 1 -15 9 -3 8 -13 14 -23 14 -17 -1 -17 -2 0 -6z m57
-28 c0 -3 -2 -5 -5 -5 -3 0 -5 2 -5 5 0 3 2 5 5 5 3 0 5 -2 5 -5z"/>
<path d="M173 393 c4 -3 10 -3 14 0 3 4 0 7 -7 7 -7 0 -10 -3 -7 -7z"/>
<path d="M363 393 c4 -3 10 -3 14 0 3 4 0 7 -7 7 -7 0 -10 -3 -7 -7z"/>
<path d="M400 388 c0 -4 11 -28 25 -54 39 -73 34 -110 -22 -177 -58 -67 -101
-91 -168 -91 -58 0 -126 31 -150 68 -25 37 -30 124 -11 171 13 33 13 36 1 21
-34 -44 -30 -154 7 -201 11 -14 19 -27 17 -29 -2 -2 -14 -9 -26 -15 -13 -6
-23 -19 -23 -28 0 -13 9 -15 63 -9 92 9 245 11 253 3 17 -17 43 -3 93 47 42
43 53 59 48 77 -3 12 -1 41 5 64 10 38 9 45 -10 73 -16 21 -28 29 -42 25 -14
-4 -25 4 -39 28 -12 19 -21 31 -21 27z m80 -63 c0 -3 -2 -5 -5 -5 -3 0 -5 2
-5 5 0 3 2 5 5 5 3 0 5 -2 5 -5z m24 -70 c-1 -20 -7 -42 -14 -48 -10 -10 -11
-6 -8 18 3 17 9 39 13 50 l8 20 -16 -20 c-9 -11 -17 -15 -17 -8 0 6 -3 19 -6
27 -5 13 -2 15 17 7 20 -7 24 -15 23 -46z m-10 -87 c13 -21 -16 -55 -69 -84
-32 -17 -36 -17 -51 -2 -15 15 -13 20 27 62 44 49 72 56 93 24z m-369 -103 c0
-5 -15 -11 -32 -13 -32 -3 -45 11 -20 22 19 8 52 2 52 -9z"/>
<path d="M310 325 c0 -3 2 -5 5 -5 3 0 5 2 5 5 0 3 -2 5 -5 5 -3 0 -5 -2 -5
-5z"/>
<path d="M190 260 c-11 -8 -8 -9 13 -4 20 4 34 1 50 -12 l22 -19 -19 23 c-21
24 -42 28 -66 12z"/>
<path d="M170 235 c0 -3 2 -5 5 -5 3 0 5 2 5 5 0 3 -2 5 -5 5 -3 0 -5 -2 -5
-5z"/>
<path d="M150 194 c-16 -40 -12 -63 15 -89 26 -27 49 -31 88 -16 55 21 72 65
42 108 -16 22 -16 22 -35 3 -30 -30 -115 -22 -96 9 4 6 5 11 1 11 -3 0 -10
-12 -15 -26z m120 -31 c0 -38 -101 -71 -114 -37 -16 42 -8 49 54 49 40 0 60
-4 60 -12z"/>
</g>
</svg>
