<?xml version="1.0" standalone="no"?>
<!DOCTYPE svg PUBLIC "-//W3C//DTD SVG 20010904//EN"
 "http://www.w3.org/TR/2001/REC-SVG-20010904/DTD/svg10.dtd">
<svg version="1.0" xmlns="http://www.w3.org/2000/svg"
 width="56.000000pt" height="56.000000pt" viewBox="0 0 56.000000 56.000000"
 preserveAspectRatio="xMidYMid meet">
<metadata>
Created by potrace 1.16, written by Peter Selinger 2001-2019
</metadata>
<g transform="translate(0.000000,56.000000) scale(0.100000,-0.100000)"
fill="#000000" stroke="none">
<path d="M185 491 c-11 -5 -25 -6 -32 -4 -37 14 -89 -58 -78 -108 4 -17 1 -43
-6 -60 -8 -22 -9 -33 -1 -41 8 -8 8 -17 1 -30 -5 -10 -7 -23 -4 -28 3 -5 0
-19 -7 -30 -12 -19 -9 -25 22 -51 41 -35 77 -46 93 -30 6 6 19 11 29 11 9 0
21 7 26 16 9 15 12 15 40 1 18 -8 41 -13 53 -10 19 5 20 4 9 -16 -15 -28 2
-51 36 -51 25 0 64 49 64 81 0 19 23 31 44 23 18 -7 31 13 19 29 -5 7 -8 48
-8 92 1 51 -3 90 -12 108 -11 22 -11 32 -3 42 18 22 2 37 -31 30 -21 -5 -40
-1 -65 14 -28 17 -40 19 -55 10 -15 -7 -29 -7 -51 0 -35 13 -55 13 -83 2z
m110 -14 c11 0 28 3 39 8 14 6 18 5 14 -6 -5 -15 -53 -18 -104 -6 -25 6 -35 3
-58 -18 -33 -31 -39 -31 -31 -2 5 17 -2 14 -30 -17 -19 -22 -35 -44 -35 -50 0
-6 5 -3 11 7 5 9 19 17 30 17 20 0 20 0 0 -26 -26 -34 -26 -46 0 -70 12 -10
27 -31 35 -46 8 -16 28 -32 47 -38 l32 -10 -35 5 c-19 3 -39 12 -45 21 -5 9
-24 34 -41 55 -40 48 -50 98 -30 138 15 28 47 47 63 38 5 -3 17 -1 28 4 11 5
36 6 55 3 19 -4 44 -7 55 -7z m77 -37 c-18 -11 -40 -20 -50 -21 -9 0 6 -11 35
-24 47 -22 93 -68 81 -81 -3 -2 -13 7 -22 22 -10 14 -43 37 -74 51 l-57 26 32
13 c17 7 34 18 38 24 3 5 16 10 28 10 19 0 18 -3 -11 -20z m98 12 c0 -7 -63
-42 -75 -42 -14 0 -2 17 23 32 29 19 52 23 52 10z m-223 -20 c6 -4 13 -21 15
-37 2 -22 12 -35 38 -48 l35 -18 -35 6 c-39 8 -60 28 -60 60 0 12 -5 26 -12
33 -13 13 0 16 19 4z m-55 -24 c-7 -7 -12 -27 -12 -46 0 -19 -4 -31 -10 -27
-24 15 -5 85 24 85 6 0 5 -5 -2 -12z m278 -28 c0 -5 -7 -7 -15 -4 -8 4 -12 10
-9 15 6 11 24 2 24 -11z m-235 -30 c9 -16 11 -30 6 -30 -11 0 -31 32 -31 49 0
19 9 12 25 -19z m224 -16 c17 -28 19 -42 12 -67 l-9 -32 -1 33 c-1 18 -8 48
-15 67 -19 45 -14 45 13 -1z m-306 0 c4 -23 3 -24 -10 -11 -9 8 -12 20 -9 26
10 16 13 14 19 -15z m44 4 c-3 -8 -6 -5 -6 6 -1 11 2 17 5 13 3 -3 4 -12 1
-19z m168 12 c3 -5 2 -10 -4 -10 -5 0 -13 5 -16 10 -3 6 -2 10 4 10 5 0 13 -4
16 -10z m-263 -54 c7 5 8 2 4 -5 -5 -7 0 -18 10 -26 11 -8 15 -15 10 -15 -15
0 26 -40 41 -40 8 0 11 -5 8 -11 -4 -6 -14 -8 -22 -4 -27 10 6 -24 40 -41 16
-9 27 -18 24 -20 -10 -10 -89 47 -84 60 6 14 -11 36 -26 36 -5 0 -7 -7 -3 -15
4 -13 2 -14 -14 -5 -22 12 -26 25 -10 35 6 3 10 1 10 -6 0 -8 4 -8 16 2 14 11
13 14 -10 26 -28 15 -30 21 -19 50 7 16 8 16 11 -5 2 -13 8 -20 14 -16z m125
-2 c8 -21 -13 -42 -28 -27 -13 13 -5 43 11 43 6 0 13 -7 17 -16z m99 -25 c16
-26 32 -39 47 -40 12 0 16 -3 9 -6 -27 -11 -62 8 -81 45 -11 21 -20 30 -21 20
0 -22 -19 -33 -32 -20 -17 17 -2 40 27 40 20 0 32 -10 51 -39z m58 12 c4 -5
-3 -7 -14 -4 -23 6 -26 13 -6 13 8 0 17 -4 20 -9z m56 -20 c0 -11 12 -34 26
-51 26 -30 27 -50 3 -34 -7 4 -35 9 -63 11 -63 5 -118 22 -111 34 4 5 16 3 28
-5 12 -7 46 -16 75 -19 49 -6 52 -5 42 13 -25 47 -30 70 -15 70 8 0 15 -9 15
-19z m-154 -58 c16 -21 18 -37 4 -28 -13 8 -33 45 -24 45 4 0 13 -8 20 -17z
m134 -37 c0 -3 -5 -8 -12 -12 -7 -4 -8 -3 -4 4 7 12 16 16 16 8z m-33 -13 c-4
-3 -10 -3 -14 0 -3 4 0 7 7 7 7 0 10 -3 7 -7z m12 -19 c9 -8 -45 -2 -64 6 -14
7 -8 8 20 3 22 -3 42 -7 44 -9z"/>
<path d="M80 225 c0 -3 2 -5 5 -5 3 0 5 2 5 5 0 3 -2 5 -5 5 -3 0 -5 -2 -5 -5z"/>
<path d="M210 285 c0 -3 2 -5 5 -5 3 0 5 2 5 5 0 3 -2 5 -5 5 -3 0 -5 -2 -5
-5z"/>
<path d="M260 285 c0 -3 2 -5 5 -5 3 0 5 2 5 5 0 3 -2 5 -5 5 -3 0 -5 -2 -5
-5z"/>
</g>
</svg>
