<?xml version="1.0" standalone="no"?>
<!DOCTYPE svg PUBLIC "-//W3C//DTD SVG 20010904//EN"
 "http://www.w3.org/TR/2001/REC-SVG-20010904/DTD/svg10.dtd">
<svg version="1.0" xmlns="http://www.w3.org/2000/svg"
 width="56.000000pt" height="56.000000pt" viewBox="0 0 56.000000 56.000000"
 preserveAspectRatio="xMidYMid meet">
<metadata>
Created by potrace 1.16, written by Peter Selinger 2001-2019
</metadata>
<g transform="translate(0.000000,56.000000) scale(0.100000,-0.100000)"
fill="#000000" stroke="none">
<path d="M84 497 c-34 -34 -64 -72 -68 -84 -10 -31 10 -63 39 -63 14 0 25 -7
27 -17 3 -15 5 -14 10 5 5 19 2 22 -21 22 -29 0 -51 16 -51 37 0 10 5 11 19 3
11 -5 30 -10 43 -10 13 0 46 -3 75 -6 45 -5 53 -3 65 15 16 27 34 27 48 1 14
-26 5 -57 -18 -64 -9 -4 -27 -23 -39 -45 -28 -49 -69 -63 -95 -31 -10 12 -18
30 -18 39 0 10 5 7 13 -9 16 -32 61 -39 76 -12 7 14 6 25 -5 40 -14 20 -14 22
0 22 10 0 16 -9 17 -22 0 -14 3 -17 6 -9 3 7 14 22 24 32 11 11 19 27 19 36 0
14 -3 13 -16 -5 -12 -18 -25 -22 -66 -22 -37 0 -54 -5 -64 -17 -7 -11 -26 -18
-46 -18 -22 0 -33 -5 -34 -15 0 -8 -4 -22 -7 -30 -12 -31 -3 -65 18 -65 12 0
25 -11 33 -29 15 -35 -2 -102 -33 -128 -15 -13 -17 -19 -8 -28 13 -14 153 -8
243 9 44 9 58 8 77 -4 27 -18 163 -21 163 -4 0 6 -5 19 -10 29 -7 14 -5 27 9
52 30 53 45 108 32 121 -6 6 -11 21 -11 33 0 37 -19 37 -36 1 l-16 -34 -24 24
c-13 12 -28 23 -34 23 -5 0 -10 9 -10 20 0 11 -4 20 -10 20 -5 0 -10 7 -10 16
0 9 -9 18 -20 21 -23 6 -25 14 -8 31 6 6 8 15 4 19 -4 4 -11 1 -16 -7 -7 -11
-9 -9 -7 9 1 14 17 36 39 54 21 16 35 34 32 39 -3 5 -29 8 -57 7 -51 -1 -146
26 -170 50 -21 21 -42 10 -103 -52z m86 44 c0 -5 -9 -11 -20 -14 -20 -5 -26 3
-13 16 9 10 33 8 33 -2z m102 -39 c23 -23 -5 -47 -59 -52 -27 -3 -62 -13 -77
-23 -32 -21 -101 -20 -101 2 0 8 25 32 55 53 51 36 59 38 113 35 31 -2 63 -9
69 -15z m133 -20 c-51 -44 -98 -73 -110 -68 -29 11 -14 49 25 65 30 12 98 14
85 3z m-175 -51 c0 -14 -30 -41 -45 -41 -9 0 -12 6 -9 15 4 9 0 15 -7 16 -18
1 21 17 44 18 9 1 17 -3 17 -8z m-83 -28 c-4 -3 -7 0 -7 7 0 7 3 10 7 7 3 -4
3 -10 0 -14z m217 -84 c-3 -5 -10 -7 -15 -3 -5 3 -7 10 -3 15 3 5 10 7 15 3 5
-3 7 -10 3 -15z m-53 -20 c-13 -14 -26 -19 -37 -15 -20 8 -10 22 21 29 35 8
36 7 16 -14z m-230 -6 c12 -15 12 -16 -4 -10 -10 4 -25 7 -33 7 -9 0 -12 5 -9
10 9 15 31 12 46 -7z m315 -11 c1 -26 -11 -20 -19 8 -3 14 -1 20 6 17 7 -2 13
-13 13 -25z m-116 -22 c0 -16 -18 -11 -29 8 -6 9 -11 12 -11 7 0 -6 5 -16 12
-23 9 -9 7 -12 -10 -12 -25 0 -26 3 -12 31 9 15 15 17 30 9 11 -6 20 -15 20
-20z m70 15 c0 -10 -10 -15 -32 -15 -31 1 -32 1 -14 15 25 19 46 19 46 0z
m-276 -4 c6 -9 -43 -35 -52 -27 -2 3 -2 12 1 21 7 16 42 21 51 6z m457 -47 c6
-7 4 -16 -6 -24 -12 -10 -15 -10 -15 0 0 8 -3 11 -6 8 -3 -3 0 -15 8 -27 11
-18 10 -24 -11 -43 l-23 -23 13 23 c13 22 12 25 -8 39 l-21 14 24 36 c13 20
25 41 25 47 1 6 4 0 6 -14 3 -14 9 -30 14 -36z m-434 21 c-4 -8 -11 -15 -17
-15 -6 0 -6 7 2 20 14 22 24 19 15 -5z m275 -10 c2 10 8 12 17 6 22 -14 5 -41
-25 -41 -27 0 -64 24 -64 42 0 4 15 2 34 -6 30 -12 35 -12 38 -1z m80 -17
c-15 -15 -26 -4 -18 18 5 13 9 15 18 6 9 -9 9 -15 0 -24z m-302 12 c20 13 37
13 24 0 -5 -5 -19 -11 -31 -13 -30 -4 -36 -12 -28 -37 4 -13 12 -19 23 -16 9
3 28 -2 42 -10 23 -14 13 -13 -25 2 -11 4 -15 0 -15 -15 0 -12 -4 -21 -10 -21
-5 0 -10 9 -10 20 0 11 -4 20 -10 20 -11 0 -14 63 -3 73 3 4 11 3 17 -3 7 -5
17 -5 26 0z m146 -5 c14 -13 14 -17 0 -30 -20 -20 -29 -19 -21 4 3 11 0 23 -6
27 -8 5 -9 3 -4 -6 6 -10 2 -12 -15 -7 -17 4 -20 3 -11 -6 16 -16 14 -25 -10
-37 -25 -14 -109 7 -109 27 0 7 6 10 13 8 6 -3 39 4 72 14 75 24 73 24 91 6z
m-241 -5 c-3 -5 -13 -10 -21 -10 -8 0 -14 5 -14 10 0 6 9 10 21 10 11 0 17 -4
14 -10z m35 -14 c0 -8 -4 -18 -10 -21 -5 -3 -10 3 -10 14 0 12 5 21 10 21 6 0
10 -6 10 -14z m280 -26 c8 -5 15 -19 15 -32 0 -15 10 -27 28 -36 15 -7 27 -17
27 -21 0 -13 -22 -29 -45 -33 -15 -2 -19 2 -17 15 7 40 -55 65 -87 35 -11 -11
-13 -7 -7 21 3 19 11 40 17 48 13 15 47 17 69 3z m110 -10 c8 -5 11 -12 7 -16
-4 -4 -13 -2 -19 4 -9 9 -14 6 -23 -11 -13 -26 -48 -29 -53 -5 -2 12 7 20 30
27 43 12 41 12 58 1z m-205 -46 c0 -28 -5 -35 -29 -44 -40 -14 -78 -12 -100 5
-20 15 -20 15 0 30 24 18 38 19 65 3 18 -11 23 -10 40 11 10 12 16 28 12 35
-3 6 -2 7 3 3 5 -5 9 -24 9 -43z m-30 27 c3 -6 -4 -15 -15 -21 -16 -8 -20 -8
-20 3 0 25 23 36 35 18z m-155 -56 c-15 -18 1 -20 19 -2 10 10 12 8 9 -8 -4
-24 -33 -32 -41 -10 -4 8 -1 28 5 43 9 22 12 24 15 9 3 -10 -1 -24 -7 -32z
m380 30 c0 -3 -2 -5 -5 -5 -3 0 -5 2 -5 5 0 3 2 5 5 5 3 0 5 -2 5 -5z m-112
-37 c-3 -25 -43 -37 -60 -20 -19 19 0 42 32 42 27 0 31 -3 28 -22z m-118 -28
c-8 -5 -22 -9 -30 -9 -10 0 -8 3 5 9 27 12 43 12 25 0z m-134 -17 l39 -18 -54
-3 c-61 -4 -74 3 -47 24 24 17 16 17 62 -3z m364 -8 c24 -14 22 -14 -39 -15
-55 0 -62 2 -51 15 16 19 57 19 90 0z"/>
<path d="M187 204 c-11 -11 3 -24 24 -24 12 0 19 5 17 13 -5 14 -31 21 -41 11z
m23 -9 c0 -3 -2 -5 -5 -5 -3 0 -5 2 -5 5 0 3 2 5 5 5 3 0 5 -2 5 -5z"/>
<path d="M53 373 c4 -3 10 -3 14 0 3 4 0 7 -7 7 -7 0 -10 -3 -7 -7z"/>
</g>
</svg>
