<?xml version="1.0" standalone="no"?>
<!DOCTYPE svg PUBLIC "-//W3C//DTD SVG 20010904//EN"
 "http://www.w3.org/TR/2001/REC-SVG-20010904/DTD/svg10.dtd">
<svg version="1.0" xmlns="http://www.w3.org/2000/svg"
 width="56.000000pt" height="56.000000pt" viewBox="0 0 56.000000 56.000000"
 preserveAspectRatio="xMidYMid meet">
<metadata>
Created by potrace 1.16, written by Peter Selinger 2001-2019
</metadata>
<g transform="translate(0.000000,56.000000) scale(0.100000,-0.100000)"
fill="#000000" stroke="none">
<path d="M156 403 c-3 -3 -6 -16 -6 -27 0 -12 -7 -30 -15 -40 -8 -11 -15 -28
-15 -38 0 -9 -9 -22 -20 -28 -22 -12 -27 -45 -7 -57 6 -4 39 -8 72 -8 l60 0
-3 -40 c-3 -35 0 -42 26 -57 45 -27 74 -22 111 16 28 29 32 40 27 63 -4 15 -7
42 -6 60 1 34 -28 63 -62 63 -24 0 -23 9 4 37 17 18 19 26 10 35 -9 9 -18 6
-39 -14 -25 -24 -30 -25 -47 -12 -11 8 -30 14 -43 14 -13 0 -23 6 -23 14 0 17
-14 28 -24 19z m43 -43 c15 0 36 -6 47 -14 17 -13 22 -12 47 12 15 14 27 21
27 16 0 -6 -11 -21 -25 -34 -33 -31 -32 -40 8 -40 41 0 70 -20 65 -46 -4 -23
-34 -26 -30 -2 1 9 -3 18 -10 21 -7 2 -5 3 5 1 9 -1 15 2 11 7 -11 18 -66 9
-96 -16 -29 -24 -76 -35 -63 -15 14 23 -15 8 -34 -17 -17 -24 -19 -25 -15 -6
5 18 1 22 -23 25 l-28 4 35 10 c24 7 35 16 35 30 0 10 -6 18 -13 16 -10 -2
-10 2 -2 18 6 11 14 20 19 20 5 0 7 10 6 23 -1 12 0 14 2 5 3 -12 14 -18 32
-18z m-59 -75 c0 -3 -2 -5 -5 -5 -3 0 -5 2 -5 5 0 3 2 5 5 5 3 0 5 -2 5 -5z
m144 -50 c-7 -17 -43 -40 -51 -32 -2 3 4 8 15 11 11 4 23 13 26 21 3 8 8 15
10 15 3 0 3 -7 0 -15z m11 -28 c-12 -10 -14 -16 -7 -21 20 -12 15 -39 -5 -32
-10 4 -14 3 -9 -1 4 -4 18 -8 29 -8 30 0 28 -29 -2 -33 -35 -5 -71 17 -71 44
0 14 11 29 33 42 36 23 61 29 32 9z m49 -12 c-10 -8 -23 -15 -28 -15 -6 0 -1
7 10 15 10 8 23 15 28 15 6 0 1 -7 -10 -15z m25 -41 c10 -9 -35 -3 -49 6 -11
8 -7 9 15 4 17 -4 32 -8 34 -10z"/>
<path d="M194 315 c-10 -25 4 -45 31 -45 21 0 25 5 25 30 0 25 -4 30 -25 30
-14 0 -28 -7 -31 -15z m46 -17 c0 -17 -3 -19 -9 -9 -5 7 -15 17 -22 22 -10 6
-8 9 9 9 16 0 22 -6 22 -22z m-30 -13 c0 -3 -2 -5 -5 -5 -3 0 -5 2 -5 5 0 3 2
5 5 5 3 0 5 -2 5 -5z"/>
<path d="M344 248 c-4 -7 -3 -8 4 -4 12 7 16 16 8 16 -3 0 -8 -5 -12 -12z"/>
</g>
</svg>
