<?xml version="1.0" standalone="no"?>
<!DOCTYPE svg PUBLIC "-//W3C//DTD SVG 20010904//EN"
 "http://www.w3.org/TR/2001/REC-SVG-20010904/DTD/svg10.dtd">
<svg version="1.0" xmlns="http://www.w3.org/2000/svg"
 width="56.000000pt" height="56.000000pt" viewBox="0 0 56.000000 56.000000"
 preserveAspectRatio="xMidYMid meet">
<metadata>
Created by potrace 1.16, written by Peter Selinger 2001-2019
</metadata>
<g transform="translate(0.000000,56.000000) scale(0.100000,-0.100000)"
fill="#000000" stroke="none">
<path d="M310 506 c0 -7 7 -29 15 -49 l14 -35 -36 -7 c-20 -3 -49 -19 -65 -35
l-28 -28 0 58 c0 57 -11 82 -26 58 -4 -6 -7 -48 -7 -92 1 -44 -3 -89 -8 -98
-9 -17 -12 -16 -37 13 -14 18 -40 40 -57 50 -18 12 -24 19 -14 19 9 0 32 -11
51 -24 l35 -24 -9 40 c-5 22 -15 56 -23 75 -19 44 -19 48 0 33 8 -7 22 -36 32
-66 9 -30 18 -52 21 -50 8 9 -29 104 -47 120 -29 26 -33 5 -11 -53 26 -68 25
-74 -10 -56 -33 17 -60 20 -60 5 0 -5 13 -16 29 -25 35 -17 92 -85 84 -98 -3
-5 4 -22 16 -38 l22 -29 -28 -10 c-15 -6 -34 -13 -40 -15 -20 -7 -16 -23 12
-51 35 -35 64 -28 91 20 26 45 62 70 81 54 9 -7 10 -16 3 -28 -16 -29 -12 -49
15 -75 29 -30 75 -33 99 -6 44 48 74 208 47 250 -6 9 -4 23 6 38 8 12 12 30 9
39 -6 15 -10 14 -32 -6 l-25 -24 16 43 c32 92 10 153 -23 66 -12 -31 -22 -64
-23 -73 0 -10 -9 7 -20 37 -19 53 -44 91 -61 91 -4 0 -8 -6 -8 -14z m53 -70
c4 4 7 2 7 -4 0 -10 -97 -112 -107 -112 -2 0 1 9 7 20 6 12 8 29 5 39 -5 15 1
21 24 26 17 4 35 4 41 0 14 -9 12 10 -5 52 -8 19 -15 41 -14 47 0 6 8 -8 18
-32 9 -23 20 -40 24 -36z m58 -50 l-29 -89 -7 44 c-5 24 -10 39 -12 32 -2 -6
0 -28 6 -47 8 -33 7 -36 -11 -36 -21 0 -21 -3 -2 90 l7 35 11 -33 11 -32 25
77 c13 43 25 71 27 63 2 -8 -10 -55 -26 -104z m-232 0 c-9 -8 -10 -5 -5 14 3
14 7 36 8 50 1 14 3 8 5 -14 3 -22 -1 -43 -8 -50z m58 -49 c-22 -32 -35 -60
-51 -111 -5 -14 -9 -16 -21 -6 -18 15 -10 35 37 91 39 48 48 66 26 53 -9 -5
-8 -2 1 10 26 32 33 0 8 -37z m220 10 c-29 -44 -109 -127 -123 -127 -24 0 -15
29 10 36 24 6 56 42 56 64 0 15 64 71 68 59 2 -5 -3 -20 -11 -32z m-147 -13
c-11 -25 -17 -50 -14 -55 3 -5 22 -7 42 -4 l37 6 -33 -15 c-29 -13 -33 -20
-29 -43 2 -16 2 -22 0 -15 -4 10 -9 8 -19 -7 -9 -12 -26 -21 -40 -21 -21 0
-29 -9 -47 -50 -24 -55 -44 -63 -77 -30 -27 27 -25 37 9 45 33 7 66 39 57 54
-12 18 15 23 34 6 34 -31 68 0 56 50 l-6 24 -25 -25 c-42 -41 -66 -25 -40 27
12 23 22 30 36 26 10 -3 19 -1 19 3 0 9 49 70 56 70 2 0 -6 -21 -16 -46z
m-123 -11 c-3 -10 -5 -4 -5 12 0 17 2 24 5 18 2 -7 2 -21 0 -30z m89 -108 c-3
-8 -13 -14 -23 -14 -17 1 -17 2 0 6 10 3 16 11 13 18 -2 7 -2 16 2 20 9 9 15
-13 8 -30z m168 -21 c-2 -67 -26 -122 -61 -135 -58 -22 -103 34 -69 85 14 23
14 25 -2 30 -9 2 1 2 23 -1 46 -6 65 -19 65 -42 0 -18 -18 -41 -32 -41 -13 0
-9 28 5 33 9 3 9 8 1 16 -9 10 -15 8 -28 -4 -21 -21 -20 -28 4 -50 23 -21 46
-14 62 20 9 20 8 28 -5 43 -13 14 -14 21 -5 30 10 10 13 21 17 65 1 5 7 7 14
4 7 -2 12 -22 11 -53z m-59 6 c-3 -5 -13 -10 -21 -10 -8 0 -12 5 -9 10 3 6 13
10 21 10 8 0 12 -4 9 -10z"/>
<path d="M250 375 c0 -3 2 -5 5 -5 3 0 5 2 5 5 0 3 -2 5 -5 5 -3 0 -5 -2 -5
-5z"/>
<path d="M142 118 c6 -16 36 -34 44 -25 9 9 -15 37 -33 37 -8 0 -13 -5 -11
-12z"/>
</g>
</svg>
