<?xml version="1.0" standalone="no"?>
<!DOCTYPE svg PUBLIC "-//W3C//DTD SVG 20010904//EN"
 "http://www.w3.org/TR/2001/REC-SVG-20010904/DTD/svg10.dtd">
<svg version="1.0" xmlns="http://www.w3.org/2000/svg"
 width="56.000000pt" height="56.000000pt" viewBox="0 0 56.000000 56.000000"
 preserveAspectRatio="xMidYMid meet">
<metadata>
Created by potrace 1.16, written by Peter Selinger 2001-2019
</metadata>
<g transform="translate(0.000000,56.000000) scale(0.100000,-0.100000)"
fill="#000000" stroke="none">
<path d="M241 465 c-46 -24 -89 -41 -96 -39 -18 7 -59 -66 -46 -79 18 -18 13
-49 -11 -75 l-23 -24 24 -19 c13 -10 33 -19 45 -19 11 -1 32 -7 46 -15 14 -8
39 -15 55 -15 25 -1 27 -2 12 -11 -12 -7 -28 -6 -53 3 -37 13 -58 7 -78 -25
-15 -23 4 -51 37 -55 14 -2 33 -14 41 -28 19 -28 56 -32 100 -9 34 18 60 19
85 3 15 -9 23 -9 35 1 27 23 18 52 -28 95 l-45 41 30 60 c24 47 29 67 24 97
-9 50 -48 82 -92 75 -18 -3 -35 -1 -38 4 -4 5 -16 9 -28 9 -19 1 -20 2 -5 10
20 12 50 2 41 -14 -3 -6 13 7 36 29 22 21 41 40 41 42 0 10 -36 -3 -109 -42z
m76 18 c-4 -3 -10 -3 -14 0 -3 4 0 7 7 7 7 0 10 -3 7 -7z m-22 -13 c3 -6 -4
-10 -17 -10 -18 0 -20 2 -8 10 19 12 18 12 25 0z m-50 -50 c3 -5 0 -10 -7 -10
-7 0 -24 -3 -38 -7 -22 -6 -24 -5 -11 10 15 19 46 23 56 7z m112 -15 c23 -16
38 -74 27 -107 -6 -21 -7 -21 -19 3 -10 18 -10 26 -2 31 8 5 5 8 -7 8 -13 0
-16 5 -12 17 4 10 4 14 0 10 -10 -9 -35 13 -28 24 3 5 0 8 -7 7 -6 -2 -14 3
-16 10 -7 17 38 16 64 -3z m-169 -27 c19 -27 63 -20 79 12 11 21 13 22 19 6 4
-9 2 -22 -5 -29 -15 -15 -14 -27 3 -21 13 5 66 -38 66 -54 0 -14 -31 -52 -42
-52 -6 0 -19 -7 -29 -16 -30 -27 -52 -10 -47 36 2 22 0 36 -5 31 -14 -14 -3
-73 15 -85 13 -8 22 -6 37 9 25 22 37 15 21 -14 -9 -18 -17 -20 -53 -15 -81
13 -113 38 -123 100 -5 37 -4 41 23 53 l28 13 -30 25 c-16 14 -25 22 -18 19 6
-4 14 -2 18 4 8 12 25 3 43 -22z m49 5 c0 -7 -8 -13 -18 -13 -22 0 -34 17 -17
22 23 8 35 5 35 -9z m-99 -31 c3 -9 -2 -13 -14 -10 -9 1 -19 9 -22 16 -3 9 2
13 14 10 9 -1 19 -9 22 -16z m-21 -79 c-4 -3 0 -17 8 -30 14 -21 14 -23 0 -23
-9 0 -15 9 -16 23 0 20 -1 20 -8 3 -5 -14 -10 -16 -15 -7 -8 13 10 41 27 41 6
0 7 -3 4 -7z m108 -115 c11 -1 28 2 37 6 20 9 58 -25 58 -52 0 -35 -25 -55
-71 -56 -42 -1 -44 0 -42 27 2 26 0 28 -23 23 -28 -7 -64 8 -64 27 0 25 24 39
55 32 17 -3 39 -7 50 -7z m149 -23 c34 -31 36 -70 4 -61 -13 3 -31 6 -41 6
-15 0 -16 3 -7 20 8 14 8 26 0 40 -16 29 10 26 44 -5z"/>
<path d="M245 320 c-3 -5 0 -7 8 -4 8 3 31 -5 51 -16 20 -12 36 -20 36 -17 0
7 -69 47 -80 47 -5 0 -12 -4 -15 -10z"/>
<path d="M286 278 c10 -14 21 -24 23 -22 3 3 -6 15 -18 27 l-24 22 19 -27z"/>
<path d="M252 260 c0 -19 2 -27 5 -17 2 9 2 25 0 35 -3 9 -5 1 -5 -18z"/>
<path d="M113 353 c4 -3 10 -3 14 0 3 4 0 7 -7 7 -7 0 -10 -3 -7 -7z"/>
</g>
</svg>
