<?xml version="1.0" standalone="no"?>
<!DOCTYPE svg PUBLIC "-//W3C//DTD SVG 20010904//EN"
 "http://www.w3.org/TR/2001/REC-SVG-20010904/DTD/svg10.dtd">
<svg version="1.0" xmlns="http://www.w3.org/2000/svg"
 width="56.000000pt" height="56.000000pt" viewBox="0 0 56.000000 56.000000"
 preserveAspectRatio="xMidYMid meet">
<metadata>
Created by potrace 1.16, written by Peter Selinger 2001-2019
</metadata>
<g transform="translate(0.000000,56.000000) scale(0.100000,-0.100000)"
fill="#000000" stroke="none">
<path d="M135 530 c-13 -15 -22 -17 -36 -9 -40 21 -81 -27 -94 -111 -5 -38 -3
-50 16 -73 15 -21 28 -27 43 -23 20 5 21 1 21 -64 0 -76 13 -102 40 -80 14 11
14 15 0 30 -10 11 -12 19 -4 27 8 8 7 13 -2 18 -8 6 -10 4 -4 -6 5 -8 4 -10 0
-6 -16 14 -13 35 6 53 21 19 61 12 41 -8 -7 -7 -12 -19 -12 -28 0 -8 10 0 21
19 l21 35 19 -25 c10 -13 19 -21 19 -17 0 4 -14 24 -32 43 -26 30 -29 38 -17
46 25 16 45 11 23 -6 -19 -15 -19 -15 1 -8 18 6 19 5 6 -11 -13 -15 -12 -17
13 -12 14 3 24 1 22 -3 -3 -4 -8 -21 -11 -37 -3 -16 -14 -63 -25 -104 -17 -69
-19 -72 -21 -35 l-2 40 -6 -46 c-4 -26 -13 -54 -20 -63 -17 -20 -56 -21 -73 0
-30 36 -46 52 -59 57 -22 9 10 27 46 26 l30 -1 -30 -13 c-16 -8 -25 -14 -18
-15 7 0 24 5 38 12 18 8 22 14 13 20 -21 13 -63 9 -84 -7 -19 -15 -19 -15 1
-30 11 -8 23 -18 27 -22 39 -44 51 -53 72 -53 13 0 29 7 36 15 8 10 17 12 29
6 9 -5 39 -12 66 -16 28 -4 58 -14 68 -23 16 -14 19 -13 40 6 17 16 26 19 34
11 18 -18 35 0 28 28 -5 21 -3 24 13 19 12 -4 25 0 33 10 11 14 10 19 -10 35
-23 19 -23 19 -54 -21 -31 -38 -76 -60 -125 -60 -29 0 -72 42 -72 70 l0 21 26
-20 c15 -12 36 -20 48 -20 20 1 20 2 1 6 -29 7 -65 43 -65 65 0 10 17 37 38
60 37 40 40 41 85 34 53 -8 83 -33 96 -81 l9 -30 1 30 c1 22 16 44 58 87 31
32 54 60 51 64 -4 3 -31 -2 -62 -12 -68 -22 -86 -12 -67 34 18 42 11 72 -22
96 -24 17 -32 19 -58 9 -28 -11 -33 -10 -54 15 -20 24 -25 25 -50 14 -30 -14
-45 -9 -45 17 0 19 -18 41 -35 41 -7 0 -20 -9 -30 -20z m53 -17 c5 -34 25 -46
56 -32 28 13 56 -1 56 -27 0 -11 -58 -44 -77 -44 -11 0 11 22 31 30 16 7 17 9
4 9 -9 1 -26 -11 -38 -26 -27 -35 -45 -18 -44 40 1 36 0 38 -8 18 -5 -16 -5
-36 2 -54 13 -37 13 -34 -6 -41 -26 -10 -64 20 -64 50 0 70 79 139 88 77z
m-89 -2 c10 -6 11 -13 2 -29 -6 -11 -11 -31 -11 -44 0 -18 -2 -20 -10 -8 -5 8
-10 10 -10 4 0 -7 8 -20 18 -31 9 -10 13 -13 8 -6 -14 21 -1 15 20 -9 10 -12
13 -18 7 -14 -7 4 -13 2 -13 -3 0 -24 -41 -9 -60 22 -11 17 -20 27 -20 21 0
-6 9 -23 20 -37 l20 -26 -21 -6 c-30 -10 -41 11 -33 65 9 65 32 105 64 109 3
0 11 -3 19 -8z m309 -67 c29 -20 28 -56 -3 -91 -29 -33 -34 -12 -5 24 11 14
20 33 20 42 -1 9 -7 2 -14 -15 -15 -35 -31 -48 -46 -39 -6 3 -5 15 2 31 9 19
9 27 -1 37 -10 9 -11 8 -6 -5 9 -22 -12 -59 -29 -52 -7 3 -12 15 -11 27 1 12
0 14 -2 5 -5 -20 -20 -23 -43 -8 -17 10 -18 9 40 37 55 26 69 28 98 7z m97
-164 c-27 -27 -55 -50 -62 -50 -17 0 -27 25 -19 46 5 14 9 13 27 -7 20 -24 20
-24 7 -1 -11 19 -11 24 1 32 10 6 19 3 28 -8 12 -16 13 -16 7 0 -4 13 1 21 17
27 44 18 43 11 -6 -39z m-39 -161 c9 -16 -10 -31 -30 -23 -13 5 -14 9 -5 20
14 17 25 18 35 3z m-50 -76 c-12 -12 -29 15 -21 34 7 17 8 16 18 -5 5 -12 7
-25 3 -29z m-58 -9 c-9 -9 -21 -13 -27 -10 -20 13 -11 26 16 26 25 0 26 -1 11
-16z"/>
<path d="M220 305 c0 -3 2 -5 5 -5 3 0 5 2 5 5 0 3 -2 5 -5 5 -3 0 -5 -2 -5
-5z"/>
<path d="M119 273 c-13 -16 -12 -17 4 -4 9 7 17 15 17 17 0 8 -8 3 -21 -13z"/>
<path d="M180 255 c-7 -9 -11 -17 -9 -20 3 -2 10 5 17 15 14 24 10 26 -8 5z"/>
<path d="M327 212 c-32 -35 -15 -82 28 -82 43 0 71 60 43 88 -18 18 -53 15
-71 -6z m71 -23 c4 -31 -18 -52 -50 -47 -15 2 -24 11 -26 26 -5 32 16 54 47
50 20 -2 27 -9 29 -29z"/>
<path d="M342 194 c-16 -18 -9 -44 11 -44 20 0 40 27 33 45 -7 19 -27 19 -44
-1z"/>
<path d="M120 215 c0 -3 2 -5 5 -5 3 0 5 2 5 5 0 3 -2 5 -5 5 -3 0 -5 -2 -5
-5z"/>
<path d="M251 179 c-1 -18 7 -32 24 -43 21 -14 25 -14 25 -2 0 7 -7 16 -15 20
-9 3 -20 16 -25 28 -9 23 -9 23 -9 -3z"/>
<path d="M141 147 c-8 -12 -21 -32 -29 -44 -8 -13 -12 -23 -9 -23 7 0 59 81
55 85 -2 2 -10 -6 -17 -18z"/>
</g>
</svg>
