<?xml version="1.0" standalone="no"?>
<!DOCTYPE svg PUBLIC "-//W3C//DTD SVG 20010904//EN"
 "http://www.w3.org/TR/2001/REC-SVG-20010904/DTD/svg10.dtd">
<svg version="1.0" xmlns="http://www.w3.org/2000/svg"
 width="56.000000pt" height="56.000000pt" viewBox="0 0 56.000000 56.000000"
 preserveAspectRatio="xMidYMid meet">
<metadata>
Created by potrace 1.16, written by Peter Selinger 2001-2019
</metadata>
<g transform="translate(0.000000,56.000000) scale(0.100000,-0.100000)"
fill="#000000" stroke="none">
<path d="M211 467 c-6 -6 -11 -16 -11 -21 0 -26 -22 -87 -36 -101 -9 -8 -25
-15 -38 -15 -12 0 -31 -6 -42 -14 -18 -14 -17 -16 25 -59 41 -43 62 -53 69
-32 2 6 -7 12 -20 15 -21 5 -21 7 -4 13 18 7 18 18 1 60 -5 12 -2 17 10 17 11
0 15 -5 12 -14 -4 -10 -1 -13 9 -9 7 3 14 14 14 24 0 21 34 27 46 7 5 -7 10
-4 15 10 10 27 29 29 24 2 -2 -11 1 -19 8 -17 6 1 13 -8 15 -21 3 -18 8 -21
30 -16 l27 7 -25 -21 -25 -21 32 -1 c60 0 50 -22 -21 -44 -19 -6 -19 -7 0 -20
23 -17 10 -35 -14 -19 -15 9 -18 7 -19 -9 -2 -28 -8 -31 -37 -24 -17 4 -23 11
-20 21 9 23 -9 18 -24 -6 -18 -28 -27 -17 -11 13 6 12 8 20 4 15 -5 -4 -16 0
-25 8 -16 14 -18 11 -29 -46 -11 -52 -10 -64 2 -76 13 -13 19 -13 48 2 19 10
44 26 56 37 21 20 24 20 96 4 76 -17 107 -14 107 10 0 8 -11 42 -25 74 l-25
60 20 41 c12 22 20 53 18 67 -3 24 -7 27 -43 27 -22 0 -49 -4 -61 -8 -22 -8
-53 15 -83 61 -19 27 -35 34 -50 19z m28 -89 c1 -11 -6 -18 -17 -18 -10 0 -24
-6 -31 -12 -12 -11 -13 -9 -6 7 4 11 11 36 17 55 17 63 21 67 29 25 4 -22 8
-48 8 -57z m151 -28 c-51 -46 -56 -47 -63 -21 -8 33 26 60 78 61 l30 0 -45
-40z m-240 -50 c10 -18 8 -20 -24 -20 -38 0 -57 17 -35 31 23 15 48 10 59 -11z
m36 -143 c-6 -43 -18 -77 -28 -77 -10 0 -5 47 8 93 7 24 23 12 20 -16z m229
-27 c35 -23 22 -24 -55 -6 -35 8 -56 18 -58 28 -3 14 3 15 40 6 24 -5 57 -18
73 -28z"/>
<path d="M230 311 c-35 -9 -50 -54 -26 -80 43 -47 89 -22 84 46 -3 41 -11 46
-58 34z m50 -51 c0 -15 -8 -34 -17 -41 -15 -11 -16 -11 -5 1 16 18 16 62 0 80
-11 12 -10 12 5 1 9 -7 17 -26 17 -41z m-40 21 c0 -5 -7 -11 -14 -14 -10 -4
-13 -1 -9 9 6 15 23 19 23 5z m17 -38 c-4 -3 -7 0 -7 7 0 7 3 10 7 7 3 -4 3
-10 0 -14z"/>
<path d="M310 245 c0 -3 2 -5 5 -5 3 0 5 2 5 5 0 3 -2 5 -5 5 -3 0 -5 -2 -5
-5z"/>
<path d="M290 215 c0 -3 2 -5 5 -5 3 0 5 2 5 5 0 3 -2 5 -5 5 -3 0 -5 -2 -5
-5z"/>
<path d="M270 185 c0 -3 2 -5 5 -5 3 0 5 2 5 5 0 3 -2 5 -5 5 -3 0 -5 -2 -5
-5z"/>
</g>
</svg>
