<?xml version="1.0" standalone="no"?>
<!DOCTYPE svg PUBLIC "-//W3C//DTD SVG 20010904//EN"
 "http://www.w3.org/TR/2001/REC-SVG-20010904/DTD/svg10.dtd">
<svg version="1.0" xmlns="http://www.w3.org/2000/svg"
 width="56.000000pt" height="56.000000pt" viewBox="0 0 56.000000 56.000000"
 preserveAspectRatio="xMidYMid meet">
<metadata>
Created by potrace 1.16, written by Peter Selinger 2001-2019
</metadata>
<g transform="translate(0.000000,56.000000) scale(0.100000,-0.100000)"
fill="#000000" stroke="none">
<path d="M242 495 c-11 -14 -23 -31 -25 -38 -3 -8 -13 -4 -30 12 -37 34 -57
22 -57 -33 0 -44 0 -44 -40 -51 -22 -4 -42 -10 -45 -15 -2 -4 9 -27 26 -50
l31 -42 -21 -22 c-26 -28 -26 -34 2 -64 14 -16 22 -36 22 -60 l0 -37 55 3 c49
2 59 0 80 -23 28 -30 47 -32 75 -5 18 17 26 18 62 8 57 -14 71 -6 79 42 4 22
10 40 13 40 4 0 16 6 27 14 18 14 18 16 -15 50 l-35 36 33 40 32 40 -23 9
c-13 5 -30 12 -39 14 -12 4 -15 17 -11 66 5 71 1 73 -68 36 -55 -29 -45 -33
11 -4 23 11 44 18 47 14 3 -3 -11 -22 -31 -43 l-37 -37 -17 25 c-10 13 -27 40
-38 59 -26 45 -38 48 -63 16z m51 -51 c32 -64 30 -80 -4 -35 -27 37 -44 39
-60 9 -7 -13 -17 -26 -23 -30 -13 -9 -32 -10 -23 -2 3 4 -3 24 -13 45 -24 46
-12 58 21 22 13 -14 18 -23 12 -19 -9 5 -13 0 -13 -16 0 -26 7 -19 41 45 10
20 23 37 27 37 4 0 20 -25 35 -56z m-28 -36 c8 -31 51 -51 75 -35 24 15 38 1
23 -23 -16 -24 4 -67 35 -75 30 -7 28 -21 -7 -33 -35 -12 -48 -45 -30 -78 16
-31 5 -42 -20 -20 -23 21 -56 9 -66 -24 -8 -26 -22 -26 -30 1 -8 25 -54 44
-69 29 -28 -28 -36 2 -8 33 10 12 11 17 3 12 -10 -6 -12 -4 -7 4 6 9 12 9 25
-3 46 -42 121 -1 121 65 0 31 -3 36 -18 32 -10 -2 -24 3 -31 11 -16 19 -62 21
-79 4 -15 -15 -15 -61 0 -76 7 -7 21 -13 33 -13 17 -1 18 -2 2 -6 -30 -8 -57
25 -57 68 0 21 6 41 13 46 21 13 58 14 73 2 11 -9 15 -8 20 5 6 15 9 15 30 -5
18 -17 24 -33 24 -68 0 -60 -28 -90 -84 -93 l-41 -1 39 -4 c32 -4 44 1 67 23
24 23 29 36 29 73 0 37 -6 51 -32 78 -25 26 -39 33 -67 32 l-36 -2 40 -7 40
-8 -42 1 c-22 1 -47 -4 -55 -10 -11 -9 -17 -8 -27 8 -15 25 -6 37 16 23 23
-14 60 5 68 34 3 12 10 22 15 22 5 0 12 -10 15 -22z m-130 -58 c4 -17 10 -28
13 -26 9 5 8 -142 -1 -151 -4 -3 -7 -15 -7 -25 0 -17 5 -19 33 -13 l32 6 -24
-21 c-13 -11 -34 -20 -47 -20 -29 0 -31 23 -9 85 20 54 19 62 -7 69 l-23 7 23
16 c12 8 22 23 22 31 0 12 -3 13 -12 4 -20 -20 -35 -14 -57 21 l-20 32 22 7
c44 13 55 9 62 -22z m329 -1 l39 -11 -31 -18 c-16 -10 -33 -23 -36 -29 -11
-16 -23 -13 -46 11 -18 20 -19 23 -3 40 19 21 25 22 77 7z m-264 -4 c0 -3 -2
-5 -5 -5 -3 0 -5 2 -5 5 0 3 2 5 5 5 3 0 5 -2 5 -5z m20 -65 c0 -5 -4 -10 -10
-10 -5 0 -10 5 -10 10 0 6 5 10 10 10 6 0 10 -4 10 -10z m-30 -5 c0 -3 -2 -5
-5 -5 -3 0 -5 2 -5 5 0 3 2 5 5 5 3 0 5 -2 5 -5z m-84 -53 c-31 -4 -41 2 -32
17 5 7 16 6 34 -2 l27 -12 -29 -3z m371 -4 c31 -29 29 -39 -7 -26 -33 11 -44
23 -35 38 9 15 16 13 42 -12z m-53 -62 c24 -75 23 -80 -25 -72 -44 7 -104 34
-95 43 3 3 20 0 37 -6 43 -15 56 -2 39 38 -10 25 -10 34 0 46 16 20 23 12 44
-49z"/>
<path d="M160 466 c0 -2 8 -10 18 -17 15 -13 16 -12 3 4 -13 16 -21 21 -21 13z"/>
<path d="M265 320 c-3 -5 1 -13 10 -16 22 -9 29 1 11 15 -10 8 -16 9 -21 1z"/>
<path d="M185 180 c3 -5 8 -10 11 -10 3 0 2 5 -1 10 -3 6 -8 10 -11 10 -3 0
-2 -4 1 -10z"/>
<path d="M140 205 c0 -3 2 -5 5 -5 3 0 5 2 5 5 0 3 -2 5 -5 5 -3 0 -5 -2 -5
-5z"/>
</g>
</svg>
