<?xml version="1.0" standalone="no"?>
<!DOCTYPE svg PUBLIC "-//W3C//DTD SVG 20010904//EN"
 "http://www.w3.org/TR/2001/REC-SVG-20010904/DTD/svg10.dtd">
<svg version="1.0" xmlns="http://www.w3.org/2000/svg"
 width="56.000000pt" height="56.000000pt" viewBox="0 0 56.000000 56.000000"
 preserveAspectRatio="xMidYMid meet">
<metadata>
Created by potrace 1.16, written by Peter Selinger 2001-2019
</metadata>
<g transform="translate(0.000000,56.000000) scale(0.100000,-0.100000)"
fill="#000000" stroke="none">
<path d="M103 434 c-13 -13 -23 -32 -23 -44 l0 -20 20 20 c11 11 27 20 36 20
27 0 54 -20 54 -40 0 -22 -10 -26 -26 -10 -22 22 -65 -24 -48 -52 11 -18 25
-6 22 20 -2 19 2 27 12 27 10 0 14 -8 12 -27 -3 -27 11 -42 38 -43 23 0 18
-30 -5 -31 -11 0 -32 -4 -48 -8 -18 -5 -32 -4 -42 4 -8 7 -15 9 -15 4 0 -5 -4
-2 -10 6 -5 8 -12 11 -17 7 -4 -5 -1 -13 7 -18 13 -9 13 -10 0 -6 -22 6 -18
32 5 33 38 2 40 5 16 23 -26 20 -20 47 8 36 13 -5 14 -4 3 6 -10 11 -15 10
-29 -4 -13 -13 -14 -20 -6 -28 9 -9 6 -16 -10 -30 -21 -17 -21 -19 -5 -35 13
-13 20 -14 30 -6 10 8 19 6 36 -7 21 -15 22 -20 11 -44 -6 -14 -21 -27 -33
-29 -40 -6 -22 -31 38 -50 32 -11 60 -17 63 -15 2 3 -17 11 -42 18 -39 12 -42
14 -24 21 14 6 30 3 43 -5 14 -9 41 -12 82 -9 l61 4 33 -41 c27 -35 38 -42 63
-39 17 2 32 9 35 16 2 7 -2 10 -10 7 -7 -3 -22 1 -33 9 -18 14 -16 15 31 9 64
-7 79 9 38 43 -21 17 -24 23 -13 24 25 0 45 28 30 43 -9 9 -6 16 11 29 l23 18
-32 26 c-21 16 -33 34 -33 50 0 34 -36 67 -66 61 -34 -6 -30 8 7 23 24 10 36
11 50 2 24 -15 26 4 5 34 -13 17 -28 19 -173 20 -151 0 -159 -1 -180 -22z
m227 6 c11 -6 25 -29 31 -53 6 -23 14 -36 16 -29 3 6 9 12 14 12 5 0 4 -9 -3
-20 -10 -15 -10 -24 -1 -38 9 -15 7 -21 -9 -31 -12 -8 -17 -18 -13 -31 5 -15
2 -17 -15 -13 -55 14 -96 -65 -45 -89 29 -13 97 8 73 23 -7 5 -21 6 -31 3 -10
-3 -19 1 -23 10 -3 9 -11 13 -16 10 -6 -4 -9 -1 -6 7 3 8 16 14 31 14 15 1 23
-3 19 -10 -3 -5 2 -4 11 4 9 7 17 19 17 26 0 8 6 15 13 18 6 2 8 8 4 13 -4 5
-12 2 -17 -6 -6 -9 -10 -10 -10 -3 0 22 23 26 37 8 7 -11 13 -24 13 -29 0 -6
-5 -4 -10 4 -8 13 -10 12 -10 -3 0 -11 5 -17 13 -14 6 2 11 11 11 20 -1 10 6
14 22 12 13 -1 21 2 18 7 -3 5 -12 7 -19 4 -20 -7 -41 22 -27 36 17 17 64 -29
57 -56 -3 -12 -2 -15 1 -8 7 14 34 17 34 3 0 -9 -33 -24 -55 -25 -17 -1 -21
-19 -5 -23 13 -4 13 -3 0 6 -8 6 -10 11 -4 11 5 0 19 -6 30 -14 15 -12 17 -17
7 -27 -10 -10 -16 -10 -24 -2 -7 7 -18 8 -28 4 -59 -30 -98 -41 -145 -41 -51
0 -54 2 -66 31 -8 18 -26 37 -44 45 -17 7 -26 13 -20 14 6 0 28 11 48 25 25
17 45 23 61 19 25 -6 91 11 100 26 3 5 -13 1 -35 -7 -28 -11 -48 -13 -68 -7
-27 9 -27 10 -14 34 13 24 13 24 9 2 -4 -18 -3 -21 8 -12 7 6 33 9 56 8 38 -3
44 0 44 17 0 24 -43 31 -52 9 -5 -15 -35 -19 -47 -7 -15 15 -51 13 -63 -4 -10
-13 -13 -13 -13 -2 0 28 31 104 47 117 20 15 67 16 93 2z m-3 -122 c-3 -8 -6
-5 -6 6 -1 11 2 17 5 13 3 -3 4 -12 1 -19z m-230 -35 c-4 -3 -10 -3 -14 0 -3
4 0 7 7 7 7 0 10 -3 7 -7z m71 -95 c-6 -18 -28 -21 -28 -4 0 9 7 16 16 16 9 0
14 -5 12 -12z m-48 -48 c-20 -13 -40 -13 -40 0 0 6 12 10 28 10 21 0 24 -2 12
-10z m353 -24 c21 -16 22 -26 1 -26 -8 0 -12 5 -9 10 3 6 -4 10 -17 10 -18 0
-20 -2 -8 -10 13 -9 13 -10 0 -9 -8 0 -24 4 -35 9 -19 8 -19 9 2 9 12 1 25 6
28 11 8 13 16 12 38 -4z"/>
<path d="M250 375 c0 -3 2 -5 5 -5 3 0 5 2 5 5 0 3 -2 5 -5 5 -3 0 -5 -2 -5
-5z"/>
<path d="M310 375 c0 -3 2 -5 5 -5 3 0 5 2 5 5 0 3 -2 5 -5 5 -3 0 -5 -2 -5
-5z"/>
<path d="M370 305 c0 -3 2 -5 5 -5 3 0 5 2 5 5 0 3 -2 5 -5 5 -3 0 -5 -2 -5
-5z"/>
<path d="M440 241 c0 -5 7 -11 14 -14 10 -4 13 -1 9 9 -6 15 -23 19 -23 5z"/>
<path d="M327 194 c6 -15 23 -19 23 -5 0 5 -7 11 -14 14 -10 4 -13 1 -9 -9z"/>
<path d="M460 180 c0 -5 5 -10 10 -10 6 0 10 5 10 10 0 6 -4 10 -10 10 -5 0
-10 -4 -10 -10z"/>
<path d="M140 340 c0 -5 5 -10 10 -10 6 0 10 5 10 10 0 6 -4 10 -10 10 -5 0
-10 -4 -10 -10z"/>
<path d="M80 320 c0 -5 5 -10 10 -10 6 0 10 5 10 10 0 6 -4 10 -10 10 -5 0
-10 -4 -10 -10z"/>
<path d="M190 270 c0 -5 5 -10 10 -10 6 0 10 5 10 10 0 6 -4 10 -10 10 -5 0
-10 -4 -10 -10z"/>
<path d="M228 103 c20 -8 14 -21 -10 -20 -13 1 -34 -3 -47 -7 -16 -6 -21 -5
-17 3 4 6 1 11 -8 11 -24 0 -31 -22 -11 -37 37 -26 145 -10 145 22 0 9 -12 20
-26 25 -25 10 -50 13 -26 3z"/>
</g>
</svg>
