<?xml version="1.0" standalone="no"?>
<!DOCTYPE svg PUBLIC "-//W3C//DTD SVG 20010904//EN"
 "http://www.w3.org/TR/2001/REC-SVG-20010904/DTD/svg10.dtd">
<svg version="1.0" xmlns="http://www.w3.org/2000/svg"
 width="56.000000pt" height="56.000000pt" viewBox="0 0 56.000000 56.000000"
 preserveAspectRatio="xMidYMid meet">
<metadata>
Created by potrace 1.16, written by Peter Selinger 2001-2019
</metadata>
<g transform="translate(0.000000,56.000000) scale(0.100000,-0.100000)"
fill="#000000" stroke="none">
<path d="M303 548 c-5 -7 -22 -35 -38 -63 -18 -31 -30 -44 -33 -35 -3 8 0 16
7 18 16 5 14 57 -4 72 -13 10 -19 10 -33 -3 -17 -15 -19 -15 -34 0 -15 15 -19
13 -50 -18 -18 -19 -41 -38 -51 -44 -23 -13 -66 -120 -67 -166 0 -19 6 -44 14
-54 12 -17 15 -13 40 41 32 71 49 90 99 116 30 15 38 24 34 39 -3 12 0 19 8
19 23 0 27 -18 14 -57 -9 -30 -13 -33 -21 -19 -13 23 -28 11 -28 -23 0 -20 -7
-31 -25 -39 -16 -7 -33 -30 -45 -58 -23 -53 -23 -54 -9 -54 6 0 25 -11 41 -26
17 -14 37 -23 44 -20 8 3 14 1 14 -5 0 -6 4 -7 10 -4 6 3 7 -1 4 -9 -4 -10 3
-20 20 -27 22 -10 29 -9 46 6 12 10 18 25 15 32 -3 9 0 11 7 7 7 -5 9 0 6 14
-4 12 -3 20 2 17 4 -2 7 -25 6 -50 -1 -44 -2 -46 -56 -74 -57 -30 -84 -70 -39
-58 14 4 30 0 40 -9 14 -13 20 -13 38 -2 18 11 23 11 30 0 4 -7 15 -10 24 -6
13 4 15 13 10 32 -3 15 -6 32 -6 39 0 9 -4 10 -12 3 -9 -7 -16 -6 -24 4 -16
19 3 30 28 16 31 -16 41 -12 77 26 33 34 34 35 34 11 0 -13 -7 -46 -15 -73 -8
-27 -15 -52 -15 -56 0 -32 83 40 112 96 13 25 22 63 23 96 1 30 5 69 9 87 7
26 4 36 -17 57 -16 16 -21 28 -14 35 5 5 11 21 12 34 2 14 8 34 14 45 20 38
14 45 -30 38 -22 -4 -58 -16 -80 -26 -40 -21 -52 -34 -21 -24 11 4 9 -1 -8
-16 -23 -19 -21 -19 20 3 50 28 110 44 110 29 0 -34 -94 -93 -168 -105 -10 -2
-28 -10 -42 -19 -14 -9 -46 -26 -72 -38 -26 -12 -50 -30 -53 -41 -3 -10 -17
-27 -31 -38 -22 -17 -23 -20 -7 -24 11 -3 8 -5 -10 -6 -33 -1 -46 22 -25 47
23 27 38 70 31 89 -4 11 -3 14 5 9 7 -4 21 12 36 41 24 46 32 43 27 -10 -1 -9
5 -20 14 -23 24 -10 102 16 122 39 16 20 16 20 1 8 -25 -19 -22 -2 3 25 21 22
21 23 1 17 -11 -2 -23 1 -27 8 -5 8 -4 10 4 5 16 -10 57 82 42 97 -7 7 -16 6
-29 -7 -19 -16 -20 -16 -25 4 -6 23 -20 26 -34 8z m25 -10 c1 -7 5 -28 8 -46
5 -26 1 -41 -22 -74 -24 -35 -29 -38 -32 -21 -2 11 6 44 17 73 11 30 19 55 17
58 -2 2 -12 -18 -22 -45 -19 -52 -41 -85 -29 -43 22 77 59 134 63 98z m-90
-20 c4 -19 -27 -33 -41 -19 -7 7 -6 16 3 26 15 18 34 15 38 -7z m146 0 c-3
-13 -13 -34 -20 -48 -13 -25 -13 -25 -14 11 0 33 14 59 33 59 4 0 5 -10 1 -22z
m-208 -43 c1 -39 -2 -45 -26 -55 -35 -15 -72 -54 -98 -105 l-21 -40 -1 32 c0
55 38 141 71 158 16 9 36 27 45 41 21 31 29 24 30 -31z m-36 35 c0 -5 -5 -10
-11 -10 -5 0 -7 5 -4 10 3 6 8 10 11 10 2 0 4 -4 4 -10z m370 -35 c-25 -7 -54
-16 -65 -20 -11 -5 -17 -5 -13 -1 10 12 80 35 103 35 11 -1 0 -7 -25 -14z
m-427 -10 c-12 -8 -29 -35 -39 -60 -9 -25 -19 -43 -21 -41 -7 7 36 99 50 108
22 14 32 8 10 -7z m435 -77 c-8 -13 -13 -32 -10 -43 5 -22 5 -40 -1 -140 -5
-76 -16 -112 -48 -156 -30 -42 -39 -35 -23 18 19 64 18 119 -2 127 -16 6 -49
-12 -40 -22 8 -7 -40 -42 -57 -42 -21 0 -38 25 -31 43 3 9 12 13 20 10 8 -3
33 2 55 11 23 9 44 14 47 12 5 -6 24 26 52 89 l17 40 -69 -1 c-78 -2 -78 5 -1
31 29 9 63 25 75 35 29 23 35 18 16 -12z m-341 -20 c-3 -7 -5 -2 -5 12 0 14 2
19 5 13 2 -7 2 -19 0 -25z m-160 -40 c-3 -8 -6 -5 -6 6 -1 11 2 17 5 13 3 -3
4 -12 1 -19z m163 17 c0 -3 -2 -5 -5 -5 -3 0 -5 2 -5 5 0 3 2 5 5 5 3 0 5 -2
5 -5z m-26 -49 c-6 -16 -8 -17 -16 -2 -11 19 0 42 13 29 6 -6 7 -18 3 -27z
m316 4 c-6 -11 -15 -20 -20 -20 -16 0 -11 18 8 29 24 14 24 14 12 -9z m70 -34
c-7 -25 -10 -56 -6 -70 6 -26 -2 -59 -13 -52 -11 7 -5 119 8 150 17 43 26 23
11 -28z m-425 -6 c-9 -10 -14 -23 -10 -29 4 -7 0 -8 -10 -5 -10 4 -12 10 -7
18 5 6 12 24 16 41 7 26 9 28 18 12 7 -14 6 -23 -7 -37z m302 42 c17 -11 -31
-67 -51 -59 -20 8 -20 31 0 51 17 17 32 20 51 8z m-170 -47 c-7 -17 -37 -21
-37 -4 0 6 7 9 15 5 10 -3 15 1 15 11 0 9 3 14 6 10 4 -3 4 -13 1 -22z m77 4
c-8 -14 -24 -10 -24 6 0 9 6 12 15 9 8 -4 12 -10 9 -15z m109 -12 c-3 -5 -10
-4 -15 1 -6 6 -7 16 -3 22 6 9 9 9 16 -1 4 -7 5 -17 2 -22z m-173 -16 c0 -7
-51 -31 -68 -31 -14 0 23 29 41 33 12 2 23 5 25 6 1 0 2 -3 2 -8z m-53 -48
c-4 -3 -10 -3 -14 0 -3 4 0 7 7 7 7 0 10 -3 7 -7z m43 -18 c0 -3 -2 -5 -5 -5
-3 0 -5 2 -5 5 0 3 2 5 5 5 3 0 5 -2 5 -5z m-40 -20 c0 -3 -2 -5 -5 -5 -3 0
-5 2 -5 5 0 3 2 5 5 5 3 0 5 -2 5 -5z m37 -11 c-3 -3 -12 -4 -19 -1 -8 3 -5 6
6 6 11 1 17 -2 13 -5z m33 -74 c0 -5 -15 -10 -32 -10 -25 0 -29 3 -18 10 20
13 50 13 50 0z m-75 -20 c3 -5 1 -10 -4 -10 -6 0 -11 5 -11 10 0 6 2 10 4 10
3 0 8 -4 11 -10z m75 -9 c0 -12 -20 -25 -27 -18 -7 7 6 27 18 27 5 0 9 -4 9
-9z m54 -12 c-3 -5 -10 -7 -15 -3 -5 3 -7 10 -3 15 3 5 10 7 15 3 5 -3 7 -10
3 -15z"/>
<path d="M460 350 c-21 -7 -21 -8 -5 -9 11 0 27 4 35 9 18 11 5 11 -30 0z"/>
<path d="M140 310 c0 -7 3 -10 7 -7 3 4 3 10 0 14 -4 3 -7 0 -7 -7z"/>
</g>
</svg>
