<?xml version="1.0" standalone="no"?>
<!DOCTYPE svg PUBLIC "-//W3C//DTD SVG 20010904//EN"
 "http://www.w3.org/TR/2001/REC-SVG-20010904/DTD/svg10.dtd">
<svg version="1.0" xmlns="http://www.w3.org/2000/svg"
 width="56.000000pt" height="56.000000pt" viewBox="0 0 56.000000 56.000000"
 preserveAspectRatio="xMidYMid meet">
<metadata>
Created by potrace 1.16, written by Peter Selinger 2001-2019
</metadata>
<g transform="translate(0.000000,56.000000) scale(0.100000,-0.100000)"
fill="#000000" stroke="none">
<path d="M192 500 c-32 -19 -82 -105 -82 -139 0 -11 -4 -10 -13 4 -18 23 -40
10 -33 -19 2 -11 -2 -30 -10 -40 -19 -26 -18 -40 2 -32 14 5 15 4 4 -9 -18
-21 -4 -32 21 -16 12 7 22 11 24 9 5 -6 15 -101 10 -96 -3 3 -10 25 -15 49
l-9 44 5 -52 c5 -52 4 -53 -28 -66 l-33 -13 33 -12 c32 -11 41 -25 22 -37 -25
-16 -7 -26 34 -20 24 4 46 3 49 -2 9 -15 227 -9 237 6 6 10 20 12 54 7 54 -8
60 3 19 39 l-28 24 23 16 c12 9 22 23 22 31 0 17 -5 17 -32 3 -29 -15 -40 0
-28 41 8 26 6 40 -6 59 -12 22 -11 21 10 -4 20 -23 28 -27 38 -17 9 9 6 19
-18 44 -16 19 -19 24 -6 14 18 -16 25 -17 35 -7 9 10 7 16 -12 32 -12 10 -26
17 -31 14 -4 -2 -5 7 -2 21 3 19 0 26 -14 30 -11 3 -28 21 -39 41 -11 20 -32
46 -48 57 -23 17 -32 19 -57 9 -18 -7 -32 -7 -36 -2 -8 14 -26 11 -62 -11z
m60 -15 c-2 -17 -1 -18 8 -4 15 25 58 32 86 14 24 -16 64 -83 64 -108 0 -8 -9
-22 -20 -32 -24 -21 -26 -48 -5 -65 8 -7 15 -17 15 -23 0 -6 7 -18 16 -28 13
-15 14 -23 4 -53 -6 -20 -16 -36 -21 -36 -5 0 -9 -9 -9 -21 0 -15 -5 -19 -16
-15 -8 3 -13 2 -10 -3 3 -5 -1 -12 -10 -15 -12 -5 -15 -2 -10 10 15 40 27 103
24 125 -3 19 -12 9 -45 -56 -50 -95 -54 -79 -13 45 34 101 35 114 16 185 l-13
50 -54 0 c-53 0 -54 -1 -65 -35 -13 -40 -24 -276 -12 -257 7 12 9 2 13 -81 2
-31 -8 -42 -20 -22 -3 5 -15 10 -26 10 -13 0 -18 4 -13 13 4 6 -2 4 -13 -5
-24 -22 -40 -24 -23 -3 15 18 -2 45 -29 45 -9 0 -1 8 18 17 28 14 35 15 39 4
2 -7 16 -26 31 -40 14 -15 19 -18 10 -6 -45 56 -56 118 -29 160 25 38 25 72 0
87 -25 16 -25 22 4 85 24 51 65 85 96 80 9 -2 14 -11 12 -22z m-17 -45 c3 -5
-1 -10 -10 -10 -9 0 -13 5 -10 10 3 6 8 10 10 10 2 0 7 -4 10 -10z m62 -7 c-4
-3 -10 -3 -14 0 -3 4 0 7 7 7 7 0 10 -3 7 -7z m-40 -20 c-4 -3 -7 0 -7 7 0 7
3 10 7 7 3 -4 3 -10 0 -14z m-21 -14 c10 -17 -13 -36 -27 -22 -12 12 -4 33 11
33 5 0 12 -5 16 -11z m54 -4 c-11 -13 -10 -14 6 -9 16 6 17 5 7 -7 -10 -9 -16
-10 -24 -2 -12 12 -4 33 13 33 6 0 6 -6 -2 -15z m-14 -36 c3 -6 -2 -18 -12
-27 -17 -16 -17 -16 -3 2 13 18 12 19 -8 14 -22 -6 -30 2 -16 15 10 11 31 8
39 -4z m-3 -51 c13 12 32 22 43 21 19 -1 18 -1 -26 -15 -12 -4 -12 -7 -1 -13
14 -9 7 -31 -11 -31 -6 0 -7 8 -3 18 5 13 3 14 -6 5 -16 -16 -5 -41 23 -53
l23 -9 -22 0 c-18 -1 -23 -7 -23 -28 0 -22 2 -25 10 -13 11 16 4 -25 -11 -66
-5 -14 -2 -26 7 -36 14 -13 12 -15 -13 -13 -15 1 -35 -3 -43 -9 -12 -8 -13 -8
-3 4 7 7 9 18 4 24 -12 16 -35 106 -28 112 12 13 26 -8 23 -34 -2 -15 2 -8 7
16 8 32 15 42 31 42 15 0 17 3 8 12 -9 9 -15 9 -24 0 -7 -7 -21 -12 -32 -11
-20 0 -20 1 2 9 36 15 39 40 9 66 -15 13 -27 26 -27 30 0 4 13 -5 30 -21 l30
-29 23 22z m-173 -13 c0 -3 -2 -5 -5 -5 -3 0 -5 2 -5 5 0 3 2 5 5 5 3 0 5 -2
5 -5z m110 -10 c0 -8 -4 -15 -10 -15 -5 0 -10 7 -10 15 0 8 5 15 10 15 6 0 10
-7 10 -15z m280 -115 c0 -6 -11 -16 -25 -22 l-26 -11 33 -34 33 -34 -44 7
c-34 6 -47 4 -56 -9 -8 -12 -22 -14 -53 -10 -48 6 -52 19 -22 73 23 42 25 36
5 -19 -17 -48 -8 -52 43 -21 18 11 38 34 44 50 5 17 14 27 19 24 5 -3 17 0 26
5 23 13 23 13 23 1z"/>
<path d="M210 485 c0 -3 2 -5 5 -5 3 0 5 2 5 5 0 3 -2 5 -5 5 -3 0 -5 -2 -5
-5z"/>
<path d="M300 485 c0 -3 2 -5 5 -5 3 0 5 2 5 5 0 3 -2 5 -5 5 -3 0 -5 -2 -5
-5z"/>
<path d="M140 220 c0 -7 3 -10 7 -7 3 4 3 10 0 14 -4 3 -7 0 -7 -7z"/>
<path d="M401 194 c0 -11 3 -14 6 -6 3 7 2 16 -1 19 -3 4 -6 -2 -5 -13z"/>
<path d="M140 190 c0 -7 3 -10 7 -7 3 4 3 10 0 14 -4 3 -7 0 -7 -7z"/>
<path d="M381 184 c0 -11 3 -14 6 -6 3 7 2 16 -1 19 -3 4 -6 -2 -5 -13z"/>
<path d="M150 155 c0 -3 2 -5 5 -5 3 0 5 2 5 5 0 3 -2 5 -5 5 -3 0 -5 -2 -5
-5z"/>
<path d="M370 140 c0 -7 3 -10 7 -7 3 4 3 10 0 14 -4 3 -7 0 -7 -7z"/>
<path d="M220 385 c0 -3 2 -5 5 -5 3 0 5 2 5 5 0 3 -2 5 -5 5 -3 0 -5 -2 -5
-5z"/>
<path d="M224 109 c-5 -8 14 -22 34 -25 9 -2 10 1 3 10 -6 7 -9 15 -6 18 3 2
-2 5 -10 5 -9 0 -18 -4 -21 -8z m21 -9 c3 -5 4 -10 1 -10 -3 0 -8 5 -11 10 -3
6 -4 10 -1 10 3 0 8 -4 11 -10z"/>
</g>
</svg>
