<?xml version="1.0" standalone="no"?>
<!DOCTYPE svg PUBLIC "-//W3C//DTD SVG 20010904//EN"
 "http://www.w3.org/TR/2001/REC-SVG-20010904/DTD/svg10.dtd">
<svg version="1.0" xmlns="http://www.w3.org/2000/svg"
 width="56.000000pt" height="56.000000pt" viewBox="0 0 56.000000 56.000000"
 preserveAspectRatio="xMidYMid meet">
<metadata>
Created by potrace 1.16, written by Peter Selinger 2001-2019
</metadata>
<g transform="translate(0.000000,56.000000) scale(0.100000,-0.100000)"
fill="#000000" stroke="none">
<path d="M104 453 c-60 -64 -67 -78 -59 -123 6 -35 9 -39 22 -29 12 10 16 10
24 -2 7 -12 9 -12 9 1 0 11 5 9 21 -7 17 -17 19 -24 10 -41 -15 -28 -14 -64 3
-88 20 -29 10 -64 -19 -64 -13 0 -33 -9 -46 -19 l-24 -19 25 -11 c36 -16 126
7 124 32 -1 11 5 17 18 17 31 0 111 -20 140 -36 30 -16 138 -27 138 -14 0 5
-14 17 -30 27 -16 9 -30 24 -30 31 0 9 -6 12 -17 8 -15 -6 -15 -4 2 14 22 24
29 26 21 5 -3 -8 -2 -15 3 -15 25 0 80 106 81 156 0 39 -24 74 -40 57 -7 -6
-15 -25 -19 -42 l-6 -30 -33 16 c-26 13 -30 18 -20 30 9 11 6 19 -15 39 -15
14 -27 28 -27 33 0 11 31 36 53 44 9 4 17 11 17 16 0 21 -20 20 -55 0 -43 -25
-64 -15 -45 21 14 26 6 38 -14 21 -9 -8 -13 -24 -11 -42 3 -23 -3 -33 -26 -50
-16 -11 -29 -16 -29 -11 0 6 -6 12 -14 15 -11 5 -12 -1 -3 -30 l11 -35 39 42
c21 23 40 40 41 38 37 -52 47 -71 40 -77 -10 -9 -107 -41 -124 -41 -6 0 -8 5
-5 10 10 16 -2 12 -21 -7 -13 -13 -16 -14 -12 -3 2 8 -6 23 -19 33 -25 20 -30
37 -11 37 6 0 26 16 44 36 18 20 38 33 44 29 5 -3 10 2 11 12 0 16 1 16 8 -1
5 -13 10 -16 15 -8 6 11 -9 52 -20 52 -2 0 -9 -11 -14 -25 -5 -14 -14 -25 -19
-25 -6 0 -8 6 -5 14 7 19 -34 46 -69 46 -19 0 -39 -11 -63 -37z m65 13 c15
-18 -4 -32 -23 -17 -7 6 -16 8 -19 4 -4 -3 -7 -1 -7 5 0 9 14 19 31 21 4 1 12
-5 18 -13z m31 3 c0 -5 4 -8 9 -4 5 3 12 2 15 -3 9 -14 -32 -11 -45 4 -9 11
-8 14 5 14 9 0 16 -5 16 -11z m123 -4 c-3 -9 -8 -14 -10 -11 -3 3 -2 9 2 15 9
16 15 13 8 -4z m97 -25 c0 -5 -4 -10 -10 -10 -5 0 -10 5 -10 10 0 6 5 10 10
10 6 0 10 -4 10 -10z m-51 -29 c-13 -11 -26 -17 -29 -14 -6 6 30 33 43 33 5 0
-1 -9 -14 -19z m-259 -18 c0 -13 -3 -13 -15 -3 -8 7 -15 16 -15 21 0 5 7 6 15
3 8 -4 15 -13 15 -21z m90 17 c0 -5 -4 -10 -10 -10 -5 0 -10 5 -10 10 0 6 5
10 10 10 6 0 10 -4 10 -10z m-10 -30 c0 -5 -7 -10 -15 -10 -7 0 -19 -8 -24
-17 -9 -16 -10 -16 -11 4 0 21 11 31 38 32 6 1 12 -3 12 -9z m-107 -6 c7 -7
-14 -44 -25 -44 -5 0 -8 11 -8 25 0 23 18 34 33 19z m247 -90 c0 -8 -4 -12
-10 -9 -5 3 -10 10 -10 16 0 5 5 9 10 9 6 0 10 -7 10 -16z m180 -16 c0 -23 -3
-29 -11 -21 -6 6 -8 20 -4 32 9 30 15 26 15 -11z m-253 5 c-4 -3 -10 -3 -14 0
-3 4 0 7 7 7 7 0 10 -3 7 -7z m-74 -25 c-38 -43 -39 -51 -6 -46 29 4 29 3 19
-24 -6 -15 -14 -28 -18 -28 -15 0 -48 40 -48 58 0 28 29 62 52 62 l21 0 -20
-22z m257 8 c0 -19 -14 -33 -30 -29 -15 4 -18 1 -13 -16 4 -16 1 -21 -15 -21
-27 0 -33 11 -19 31 19 25 77 52 77 35z m15 -39 c-8 -31 -40 -61 -54 -52 -7 4
1 16 19 31 16 14 29 28 29 32 -2 15 1 25 6 20 4 -3 3 -17 0 -31z m-155 -24 c0
-5 -4 -15 -10 -23 -11 -18 -25 -7 -17 15 6 15 27 21 27 8z m184 -8 c-6 -16
-24 -21 -24 -7 0 11 11 22 21 22 5 0 6 -7 3 -15z m-167 -32 c-9 -9 -17 -11
-21 -5 -3 6 2 18 11 28 12 12 18 13 21 4 2 -6 -2 -19 -11 -27z m37 -9 c9 -24
8 -27 -11 -20 -9 4 -20 1 -24 -6 -7 -10 -11 -10 -21 0 -9 9 -9 12 4 12 9 0 18
7 22 15 7 20 22 19 30 -1z m-184 -49 c0 -18 -44 -30 -67 -19 -15 6 -13 8 10
12 16 2 31 10 34 18 6 17 23 9 23 -11z m265 -15 l20 -9 -20 -1 -20 -1 20 -9
c28 -12 7 -12 -38 1 -21 5 -35 14 -32 20 7 11 43 11 70 -1z m-355 -4 c0 -3 -5
-8 -12 -12 -7 -4 -8 -3 -4 4 7 12 16 16 16 8z m27 -22 c-3 -3 -12 -4 -19 -1
-8 3 -5 6 6 6 11 1 17 -2 13 -5z m373 1 c0 -3 -2 -5 -5 -5 -3 0 -5 2 -5 5 0 3
2 5 5 5 3 0 5 -2 5 -5z"/>
<path d="M340 135 c0 -3 2 -5 5 -5 3 0 5 2 5 5 0 3 -2 5 -5 5 -3 0 -5 -2 -5
-5z"/>
<path d="M217 354 c5 -14 3 -16 -11 -11 -10 4 -15 3 -11 -3 3 -6 13 -10 21
-10 16 0 19 26 4 35 -6 4 -7 -1 -3 -11z"/>
<path d="M271 346 c-12 -15 4 -26 37 -26 15 0 15 2 2 10 -13 9 -13 11 0 20 12
8 11 10 -6 10 -12 0 -27 -6 -33 -14z m19 -11 c0 -3 -2 -5 -5 -5 -3 0 -5 2 -5
5 0 3 2 5 5 5 3 0 5 -2 5 -5z"/>
<path d="M250 305 c0 -3 2 -5 5 -5 3 0 5 2 5 5 0 3 -2 5 -5 5 -3 0 -5 -2 -5
-5z"/>
</g>
</svg>
