<?xml version="1.0" standalone="no"?>
<!DOCTYPE svg PUBLIC "-//W3C//DTD SVG 20010904//EN"
 "http://www.w3.org/TR/2001/REC-SVG-20010904/DTD/svg10.dtd">
<svg version="1.0" xmlns="http://www.w3.org/2000/svg"
 width="56.000000pt" height="56.000000pt" viewBox="0 0 56.000000 56.000000"
 preserveAspectRatio="xMidYMid meet">
<metadata>
Created by potrace 1.16, written by Peter Selinger 2001-2019
</metadata>
<g transform="translate(0.000000,56.000000) scale(0.100000,-0.100000)"
fill="#000000" stroke="none">
<path d="M192 494 c-15 -10 -21 -22 -17 -34 4 -12 -3 -23 -21 -35 -25 -16 -26
-16 -20 3 10 30 -8 35 -38 11 -41 -32 -49 -54 -32 -86 19 -34 119 -134 113
-113 -2 8 -2 12 0 8 8 -14 22 -9 32 11 10 18 8 19 -28 14 -23 -3 -41 -1 -45 6
-4 6 -2 11 3 11 6 0 21 10 33 22 l21 21 19 -26 c11 -15 27 -27 36 -28 12 0 10
-3 -5 -9 -13 -5 -23 -14 -23 -20 0 -6 -11 -15 -25 -20 -22 -8 -24 -12 -13 -30
12 -18 14 -18 37 -3 21 14 23 14 18 0 -4 -12 0 -15 21 -12 15 1 33 -2 39 -7 9
-7 15 -6 19 5 3 9 12 13 20 10 22 -8 -1 -40 -41 -53 -29 -9 -41 -8 -78 8 -49
22 -57 31 -67 76 l-6 31 -28 -28 c-22 -22 -26 -33 -21 -56 3 -17 2 -32 -4 -36
-19 -11 -12 -27 8 -20 16 5 18 2 14 -15 -7 -27 1 -25 51 10 42 30 42 30 86 15
25 -9 48 -23 53 -31 7 -11 12 -12 22 -4 7 6 22 10 32 8 11 -2 18 3 18 13 0 24
26 51 39 41 6 -5 24 -12 40 -16 23 -6 27 -4 23 9 -4 8 -2 27 4 42 10 28 -3 55
-16 32 -6 -8 -4 -10 5 -4 8 5 11 3 8 -5 -7 -21 -25 -23 -25 -3 -1 23 24 112
35 127 5 6 10 18 11 26 0 8 2 26 3 40 2 20 -4 29 -31 42 -42 21 -63 12 -32
-13 l22 -18 -21 -21 c-11 -11 -20 -25 -20 -31 0 -5 -4 -7 -10 -4 -5 3 -18 1
-27 -5 -15 -9 -14 -10 7 -4 28 7 26 2 -6 -14 -30 -16 -28 16 3 49 16 17 21 29
14 33 -14 9 -33 -2 -26 -14 3 -5 0 -12 -6 -16 -8 -4 -9 -3 -5 4 4 7 2 12 -4
12 -8 0 -4 13 8 33 24 42 13 74 -19 56 -12 -6 -18 -17 -15 -26 4 -9 1 -13 -6
-10 -7 2 -25 -3 -40 -11 -22 -13 -32 -13 -53 -4 -22 10 -24 14 -13 32 18 29
-1 44 -30 24z m17 -24 c-10 -7 -10 -11 0 -24 14 -17 5 -40 -28 -70 -20 -19
-51 -16 -51 4 0 6 14 24 31 40 20 17 28 33 24 41 -5 7 -1 18 11 26 13 10 20
10 23 2 2 -6 -2 -15 -10 -19z m149 -36 c-11 -18 -17 -38 -13 -44 11 -17 -24
-49 -60 -56 -21 -4 -44 0 -64 10 -27 14 -30 19 -21 37 6 11 23 25 38 31 15 6
38 15 51 22 13 6 31 11 40 11 9 0 15 6 13 14 -4 18 20 34 29 19 4 -6 -2 -26
-13 -44z m-237 -11 c-6 -11 -11 -13 -11 -5 0 7 -5 10 -12 6 -7 -4 -8 -3 -4 5
4 6 12 9 17 6 5 -4 9 -1 9 6 0 7 3 10 6 6 3 -3 1 -14 -5 -24z m375 -4 c6 -11
-4 -49 -14 -48 -25 4 -34 -3 -29 -21 3 -11 1 -20 -4 -20 -5 0 -9 2 -9 4 0 2
-3 11 -6 19 -3 8 5 24 18 37 l23 21 -25 20 -25 19 33 -11 c17 -6 35 -15 38
-20z m-413 -20 c-6 -6 -9 -19 -6 -28 4 -12 3 -13 -6 -5 -13 12 -5 44 12 44 8
0 8 -3 0 -11z m83 -71 c4 4 2 -1 -5 -10 -21 -28 -40 -22 -39 12 1 29 1 29 18
10 9 -11 21 -16 26 -12z m279 -7 c11 -14 14 -21 8 -17 -7 4 -13 4 -13 -1 0 -4
-4 -15 -9 -22 -8 -12 -13 -11 -29 9 -19 24 -19 24 2 41 11 10 21 17 21 16 0
-1 9 -13 20 -26z m-170 -21 c-8 -12 -44 -8 -49 5 -2 7 7 10 25 7 16 -2 27 -8
24 -12z m119 -12 c20 -28 20 -38 1 -38 -8 0 -20 -9 -27 -20 -15 -24 -22 -25
-42 -4 -21 20 -20 26 5 58 25 32 43 33 63 4z m38 -70 c-7 -7 -12 -8 -12 -2 0
14 12 26 19 19 2 -3 -1 -11 -7 -17z m-292 -2 c0 -7 9 -25 20 -38 22 -28 18
-38 -17 -38 -31 0 -50 39 -34 69 13 24 31 28 31 7z m281 -26 c5 0 9 -7 9 -15
0 -19 -19 -20 -26 -1 -3 8 -14 12 -27 9 -18 -4 -19 -3 -7 6 8 6 21 9 28 6 8
-3 18 -5 23 -5z m44 -40 c3 -5 4 -10 1 -10 -3 0 -8 5 -11 10 -3 6 -4 10 -1 10
3 0 8 -4 11 -10z m-355 -14 c0 -3 -5 -8 -12 -12 -7 -4 -8 -3 -4 4 7 12 16 16
16 8z m30 -31 c-7 -9 -15 -13 -17 -11 -7 7 7 26 19 26 6 0 6 -6 -2 -15z m230
5 c0 -5 -2 -10 -4 -10 -3 0 -8 5 -11 10 -3 6 -1 10 4 10 6 0 11 -4 11 -10z
m-53 -17 c-4 -3 -7 0 -7 7 0 7 3 10 7 7 3 -4 3 -10 0 -14z"/>
</g>
</svg>
