<?xml version="1.0" standalone="no"?>
<!DOCTYPE svg PUBLIC "-//W3C//DTD SVG 20010904//EN"
 "http://www.w3.org/TR/2001/REC-SVG-20010904/DTD/svg10.dtd">
<svg version="1.0" xmlns="http://www.w3.org/2000/svg"
 width="56.000000pt" height="56.000000pt" viewBox="0 0 56.000000 56.000000"
 preserveAspectRatio="xMidYMid meet">
<metadata>
Created by potrace 1.16, written by Peter Selinger 2001-2019
</metadata>
<g transform="translate(0.000000,56.000000) scale(0.100000,-0.100000)"
fill="#000000" stroke="none">
<path d="M242 525 c-17 -14 -36 -24 -44 -23 -8 2 -12 -5 -10 -21 3 -28 -14
-52 -33 -45 -7 3 -16 0 -20 -5 -3 -6 -11 -9 -16 -5 -13 8 -39 -15 -39 -34 0
-9 -14 -27 -32 -42 l-31 -26 28 -58 c17 -36 38 -62 56 -72 35 -17 36 -25 8
-50 -12 -10 -30 -38 -41 -61 -10 -23 -23 -45 -28 -48 -21 -13 3 -25 51 -25 33
0 51 5 55 14 6 16 93 14 137 -3 35 -14 124 -14 132 -1 3 5 -5 15 -18 21 -17 8
-23 17 -20 30 3 10 -2 30 -11 44 -19 29 -21 41 -3 27 17 -14 92 -25 116 -17
25 7 38 60 20 81 -7 8 -18 13 -24 10 -7 -2 -17 0 -21 4 -11 11 -56 1 -49 -10
2 -4 -4 -15 -15 -25 -13 -12 -20 -14 -20 -6 0 19 57 69 83 73 12 2 21 9 19 17
-5 24 8 48 34 60 20 9 23 15 15 24 -7 10 -5 21 7 43 19 32 16 94 -5 101 -6 3
-19 -9 -27 -25 -8 -16 -22 -32 -31 -36 -9 -3 -14 -10 -11 -15 7 -10 -28 -44
-37 -35 -3 3 -13 -8 -22 -25 -18 -36 -13 -35 -58 -16 -20 8 -48 15 -62 15 -14
0 -25 4 -25 10 0 5 6 7 14 4 20 -8 28 12 11 26 -16 13 -11 53 9 80 14 19 14
62 0 67 -6 2 -25 -8 -42 -22z m48 7 c0 -4 -4 -12 -9 -17 -14 -14 -41 -122 -41
-161 0 -17 -9 -42 -20 -55 l-20 -24 -20 23 c-23 28 -21 73 4 100 9 11 14 26
10 35 -3 10 2 20 16 27 12 6 19 18 16 25 -3 8 7 23 21 35 27 21 43 26 43 12z
m-70 -54 c0 -13 -23 -5 -28 10 -2 7 2 10 12 6 9 -3 16 -11 16 -16z m306 -35
c-3 -26 -21 -73 -40 -104 -26 -44 -31 -60 -22 -69 8 -10 6 -12 -11 -7 -13 3
-24 -1 -27 -9 -3 -8 -10 -14 -16 -14 -16 0 -12 37 10 72 24 39 26 60 5 52 -8
-4 -15 -1 -15 6 0 6 4 9 9 6 4 -3 16 3 26 14 14 16 20 18 27 8 6 -10 10 -10
18 2 5 8 8 21 5 28 -6 16 15 62 28 62 6 0 7 -19 3 -47z m-336 -25 c0 -5 -4 -7
-9 -4 -5 4 -11 1 -13 -6 -2 -6 -10 -8 -16 -4 -20 12 -14 24 13 24 14 0 25 -5
25 -10z m297 6 c-3 -3 -12 -4 -19 -1 -8 3 -5 6 6 6 11 1 17 -2 13 -5z m-367
-23 c0 -23 -16 -36 -25 -21 -9 14 1 40 15 40 5 0 10 -9 10 -19z m-53 -67 c-15
-13 -24 -24 -19 -24 12 0 37 -58 29 -66 -3 -3 -15 13 -28 37 l-21 43 28 23
c37 29 47 18 11 -13z m90 19 c-4 -3 -10 -3 -14 0 -3 4 0 7 7 7 7 0 10 -3 7 -7z
m172 -14 c35 -12 39 -23 14 -38 -10 -6 -14 -11 -9 -11 16 0 -16 -30 -34 -30
-9 0 -25 -9 -35 -20 -22 -24 -38 -25 -55 -5 -10 12 -7 20 20 45 22 21 31 36
27 50 -6 24 20 27 72 9z m-168 -28 c17 -29 17 -29 -21 -66 -28 -27 -44 -36
-57 -31 -17 7 -17 8 0 17 9 6 17 16 17 24 0 16 35 29 51 19 8 -4 9 -3 5 5 -5
8 -19 10 -37 6 -33 -8 -50 15 -29 40 20 24 53 18 71 -14z m84 -131 c-10 -16
-54 -11 -64 8 -5 9 -7 29 -4 43 l5 25 34 -33 c20 -18 32 -37 29 -43z m47 52
c-7 -2 -10 -8 -6 -13 3 -5 -2 -9 -11 -9 -13 0 -14 4 -5 20 6 12 16 18 23 13 8
-5 8 -8 -1 -11z m38 -6 c0 -19 -17 -29 -25 -16 -3 5 -1 10 5 10 6 0 8 5 5 10
-3 6 -1 10 4 10 6 0 11 -6 11 -14z m120 -18 c0 -7 -4 -19 -9 -27 -11 -17 -25
3 -17 24 7 18 26 20 26 3z m45 -21 c0 -26 -20 -25 -23 2 -3 16 1 22 10 19 7
-3 13 -12 13 -21z m-330 -6 c-3 -6 -11 -11 -17 -11 -6 0 -6 6 2 15 14 17 26
13 15 -4z m110 9 c3 -5 1 -10 -4 -10 -6 0 -11 5 -11 10 0 6 2 10 4 10 3 0 8
-4 11 -10z m32 -7 c-4 -3 -10 -3 -14 0 -3 4 0 7 7 7 7 0 10 -3 7 -7z m-52 -25
c38 8 44 8 34 -4 -6 -8 -20 -14 -30 -14 -10 0 -30 -5 -44 -12 -30 -14 -52 1
-41 27 5 14 9 15 21 5 10 -9 27 -9 60 -2z m-96 -17 c8 -14 6 -23 -10 -37 -18
-16 -21 -17 -36 -1 -16 15 -15 18 2 37 23 25 32 25 44 1z m288 2 c-4 -3 -10
-3 -14 0 -3 4 0 7 7 7 7 0 10 -3 7 -7z m-133 -22 c4 -5 -3 -7 -13 -4 -11 3
-33 -4 -50 -16 -33 -24 -57 -27 -64 -8 -6 19 116 46 127 28z m34 -34 c-10 -20
-10 -21 5 -8 20 16 23 1 6 -31 -9 -17 -8 -19 8 -14 10 3 24 2 32 -3 9 -6 2 -9
-23 -9 -20 0 -39 4 -42 9 -3 5 0 9 6 9 7 0 5 10 -4 29 -11 20 -12 31 -4 39 18
18 29 3 16 -21z m-228 -1 c9 -12 7 -17 -9 -28 -27 -16 -27 -28 -1 -21 11 3 20
1 20 -5 0 -6 -21 -10 -46 -9 -42 0 -45 2 -28 14 10 8 19 19 20 26 3 32 5 37
18 37 7 0 19 -6 26 -14z m165 -14 c-3 -3 -11 0 -18 7 -9 10 -8 11 6 5 10 -3
15 -9 12 -12z m-55 -11 c0 -9 -41 -23 -48 -16 -2 2 -1 8 3 14 8 13 45 15 45 2z"/>
<path d="M176 341 c-9 -15 23 -36 36 -23 5 5 7 15 4 21 -9 13 -33 14 -40 2z
m34 -11 c0 -5 -4 -10 -9 -10 -6 0 -13 5 -16 10 -3 6 1 10 9 10 9 0 16 -4 16
-10z"/>
<path d="M273 294 c0 -16 13 -19 21 -5 3 5 0 11 -7 14 -8 3 -14 -1 -14 -9z"/>
</g>
</svg>
