<?xml version="1.0" standalone="no"?>
<!DOCTYPE svg PUBLIC "-//W3C//DTD SVG 20010904//EN"
 "http://www.w3.org/TR/2001/REC-SVG-20010904/DTD/svg10.dtd">
<svg version="1.0" xmlns="http://www.w3.org/2000/svg"
 width="56.000000pt" height="56.000000pt" viewBox="0 0 56.000000 56.000000"
 preserveAspectRatio="xMidYMid meet">
<metadata>
Created by potrace 1.16, written by Peter Selinger 2001-2019
</metadata>
<g transform="translate(0.000000,56.000000) scale(0.100000,-0.100000)"
fill="#000000" stroke="none">
<path d="M92 548 c-7 -7 -12 -16 -12 -21 0 -5 -11 -20 -25 -33 -28 -26 -33
-65 -10 -84 20 -17 19 -29 -6 -48 -25 -21 -38 -95 -19 -107 8 -5 11 -4 7 2 -7
10 40 49 49 41 2 -3 -7 -20 -21 -38 -29 -39 -31 -60 -10 -99 17 -34 45 -49 38
-21 -3 11 5 35 17 55 18 29 21 45 16 78 -11 76 -14 137 -6 137 4 0 10 -14 14
-32 3 -17 13 -40 22 -49 21 -23 38 -98 38 -169 1 -52 2 -55 28 -58 26 -3 34 5
53 54 0 1 10 5 23 8 29 9 29 -14 1 -82 -26 -62 -21 -82 22 -82 28 0 31 2 25
25 -7 27 4 48 67 129 46 59 91 147 102 196 4 19 18 45 31 57 31 29 33 59 3 43
-11 -7 -27 -9 -35 -6 -10 4 -14 -2 -14 -19 0 -13 -4 -26 -9 -29 -5 -3 -5 13 1
37 8 39 7 44 -17 64 -35 30 -128 56 -173 49 -77 -12 -143 -12 -154 1 -13 16
-30 17 -46 1z m21 -16 c-20 -21 -28 -20 -20 3 4 8 13 15 22 15 13 0 12 -3 -2
-18z m49 -11 c12 6 18 6 18 -1 0 -5 8 -10 17 -10 14 0 14 -3 5 -12 -10 -10
-15 -10 -21 1 -11 17 -31 6 -31 -18 0 -9 -6 -23 -12 -31 -7 -8 -2 -6 11 5 23
19 24 19 18 2 -4 -10 -7 -23 -7 -28 0 -6 -7 -6 -19 0 -19 11 -33 0 -60 -44
-12 -19 -12 -19 -7 4 2 13 0 31 -7 41 -8 14 -8 22 3 35 13 16 15 16 21 -2 3
-10 2 -25 -4 -33 -6 -8 3 -2 21 14 31 29 44 69 21 64 -6 -2 -14 3 -16 11 -4
10 -1 11 13 3 12 -7 25 -7 36 -1z m75 -39 c-24 -25 -43 -76 -50 -132 l-3 -25
-13 27 c-21 42 -6 96 41 143 46 45 69 33 25 -13z m78 -32 c-10 -17 -21 -12
-33 15 -21 46 -14 59 14 26 14 -17 23 -35 19 -41z m-238 30 c-14 -11 -28 -30
-30 -43 -4 -19 -4 -18 -6 5 -1 29 22 58 46 58 11 0 8 -6 -10 -20z m380 -16
c17 -23 17 -39 -2 -54 -9 -8 -12 -22 -8 -42 4 -21 3 -29 -5 -24 -5 3 -12 2
-14 -4 -2 -7 -13 -6 -30 2 -32 15 -35 23 -12 32 13 5 13 11 -7 45 -12 22 -19
46 -16 54 8 22 76 15 94 -9z m-350 -6 c-3 -8 -6 -5 -6 6 -1 11 2 17 5 13 3 -3
4 -12 1 -19z m243 -2 c0 -13 6 -26 13 -29 6 -2 0 -4 -14 -4 -22 0 -25 3 -21
28 5 35 22 39 22 5z m-76 -21 c-4 -16 3 -42 20 -77 14 -29 28 -66 31 -83 3
-16 2 -23 -1 -15 -4 8 -24 34 -45 57 -43 47 -51 93 -22 125 21 24 25 23 17 -7z
m276 1 c0 -8 -31 -36 -41 -36 -16 0 -9 28 9 33 26 7 32 7 32 3z m-173 -43 c-4
-3 -7 0 -7 7 0 7 3 10 7 7 3 -4 3 -10 0 -14z m-149 -35 c2 -18 7 -37 12 -42 6
-6 10 -15 10 -20 -1 -6 -10 0 -20 13 -20 23 -26 61 -13 74 9 10 8 11 11 -25z
m228 -57 c-10 -11 -29 -24 -44 -31 -15 -6 -40 -28 -56 -48 l-29 -37 7 30 c10
41 29 60 75 74 21 6 42 19 45 28 4 9 9 13 13 9 3 -3 -2 -14 -11 -25z m-218
-123 c10 -8 13 -8 9 -1 -11 18 12 27 30 12 13 -12 12 -14 -12 -21 -34 -9 -65
9 -65 38 0 31 15 40 18 11 2 -14 11 -31 20 -39z m152 -25 c-11 -16 -32 -46
-47 -68 -33 -52 -32 -50 -44 -38 -17 17 18 89 54 112 47 30 63 27 37 -6z"/>
<path d="M406 464 c-4 -9 -2 -22 4 -28 7 -7 14 -6 22 2 10 10 9 16 -4 28 -14
14 -16 14 -22 -2z m24 -14 c0 -5 -4 -10 -10 -10 -5 0 -10 5 -10 10 0 6 5 10
10 10 6 0 10 -4 10 -10z"/>
</g>
</svg>
