<?xml version="1.0" standalone="no"?>
<!DOCTYPE svg PUBLIC "-//W3C//DTD SVG 20010904//EN"
 "http://www.w3.org/TR/2001/REC-SVG-20010904/DTD/svg10.dtd">
<svg version="1.0" xmlns="http://www.w3.org/2000/svg"
 width="56.000000pt" height="56.000000pt" viewBox="0 0 56.000000 56.000000"
 preserveAspectRatio="xMidYMid meet">
<metadata>
Created by potrace 1.16, written by Peter Selinger 2001-2019
</metadata>
<g transform="translate(0.000000,56.000000) scale(0.100000,-0.100000)"
fill="#000000" stroke="none">
<path d="M97 514 c-3 -4 -4 -19 -1 -34 6 -27 -29 -187 -48 -224 -16 -30 6 -42
38 -21 21 13 28 14 34 4 12 -19 -11 -49 -50 -65 -33 -15 -34 -16 -16 -30 11
-8 26 -14 33 -14 24 0 14 -30 -14 -41 -20 -7 -23 -13 -15 -21 13 -13 62 4 62
22 0 5 14 1 32 -10 l31 -19 40 34 c21 18 45 31 53 28 21 -8 6 -23 -24 -23 -15
0 -22 -4 -16 -8 7 -4 13 -16 15 -27 3 -15 13 -19 42 -20 21 -1 42 4 48 12 9
10 15 11 26 2 10 -9 18 -7 34 7 12 11 24 17 28 15 3 -2 9 11 12 30 7 40 41
110 63 128 19 16 12 31 -13 31 -11 0 -25 15 -36 41 -17 37 -48 70 -90 94 -17
10 -17 13 -1 42 29 57 16 69 -35 32 l-29 -20 0 25 c0 36 -17 41 -34 9 -8 -15
-18 -26 -22 -23 -4 3 -11 -7 -15 -22 -5 -21 -4 -28 7 -28 31 0 83 -68 100
-129 16 -57 19 -60 43 -56 14 3 9 -1 -11 -8 -49 -16 -57 -26 -34 -43 11 -8 15
-14 9 -14 -23 0 -23 -32 -1 -51 21 -18 22 -20 3 -17 -13 2 -25 19 -38 53 -22
61 -49 90 -73 81 -16 -6 -15 -9 9 -29 14 -12 29 -35 33 -50 l7 -29 -30 16
c-35 17 -43 33 -43 82 0 42 -41 89 -71 81 -23 -6 -23 -4 -4 33 15 30 61 60 89
60 16 0 13 5 -58 83 -32 35 -55 45 -69 31z m55 -24 c27 -21 55 -76 44 -87 -3
-3 -6 0 -6 7 0 8 -20 33 -46 57 -45 43 -39 61 8 23z m144 -28 c3 -10 12 -8 35
8 38 27 45 21 24 -20 -13 -25 -14 -35 -4 -46 9 -11 8 -19 -7 -35 -18 -20 -18
-20 8 -10 21 8 29 6 42 -8 19 -21 41 -80 32 -88 -10 -10 -36 18 -37 41 0 11
-4 30 -9 41 -7 14 -8 10 -4 -16 8 -50 -12 -59 -31 -13 -8 20 -35 56 -60 80
-25 25 -45 52 -45 60 0 8 4 12 10 9 5 -3 16 6 22 21 11 24 13 25 16 8 2 -10 5
-25 8 -32z m-153 0 c9 -9 20 -28 25 -42 7 -20 5 -28 -14 -42 -12 -10 -26 -27
-29 -37 -5 -18 -33 -36 -42 -27 -4 3 17 97 23 105 2 2 16 -4 31 -13 l28 -17
-27 23 c-16 13 -28 34 -28 46 0 27 11 28 33 4z m298 -144 c11 -21 17 -43 14
-48 -4 -6 8 -10 26 -10 61 0 21 -11 -50 -14 -53 -2 -71 0 -71 10 0 21 22 28
35 11 7 -10 22 -17 33 -17 20 0 21 2 7 39 -7 22 -22 52 -32 68 -17 27 -17 27
0 14 10 -8 27 -32 38 -53z m-336 -25 c-4 -10 -8 -24 -9 -31 -1 -8 -9 -18 -17
-23 -17 -11 -39 -12 -24 -1 6 4 10 13 11 20 1 6 2 18 3 26 0 8 9 17 19 19 9 3
19 5 21 6 2 0 0 -7 -4 -16z m75 -13 c37 -37 18 -143 -24 -127 -21 8 -21 25 2
23 21 -1 28 43 12 75 -9 15 -19 20 -36 16 -25 -4 -35 17 -11 26 23 10 37 7 57
-13z m300 -55 c-7 -8 -22 -16 -34 -16 -17 -1 -17 -2 -3 -6 20 -5 20 -5 6 -37
-8 -16 -17 -22 -28 -18 -14 5 -14 3 -3 -11 8 -9 12 -24 10 -34 -2 -15 -9 -11
-38 21 -33 37 -34 39 -10 32 l25 -7 -25 15 c-14 9 -20 16 -15 16 6 0 3 4 -5
10 -8 5 -11 12 -7 16 8 9 95 32 121 33 15 1 16 -2 6 -14z m-220 -5 c11 -6 26
-33 35 -64 22 -75 51 -95 82 -56 9 12 14 13 24 2 11 -10 10 -15 -3 -28 -10
-10 -21 -13 -29 -8 -8 4 -22 9 -32 9 -10 1 -23 8 -28 16 -5 8 -9 9 -9 3 0 -6
7 -17 15 -24 21 -17 12 -24 -14 -10 -14 7 -21 7 -21 0 0 -5 -4 -10 -10 -10
-19 0 -10 39 10 45 14 4 19 13 16 23 -3 9 -8 29 -12 45 -3 15 -18 36 -31 47
-28 22 -24 26 7 10z m-140 -44 c-5 -15 -7 -38 -4 -50 6 -26 -18 -56 -44 -56
-12 0 -9 4 8 13 19 10 24 20 23 43 -2 16 2 42 8 57 15 35 23 29 9 -7z m-45
-16 c-3 -5 -1 -10 6 -10 7 0 10 -2 7 -5 -3 -3 -13 -2 -22 1 -14 5 -15 9 -4 15
17 11 20 11 13 -1z m168 -32 c-6 -12 -51 -10 -58 2 -4 6 -1 17 5 25 10 12 15
12 35 -3 13 -9 21 -20 18 -24z m-98 22 c3 -5 -1 -10 -9 -10 -9 0 -16 5 -16 10
0 6 4 10 9 10 6 0 13 -4 16 -10z m21 -35 c-25 -19 -36 -19 -36 0 0 10 10 15
28 15 26 -1 26 -1 8 -15z m44 -13 c0 -20 -23 -31 -43 -20 -16 8 -17 12 -6 19
18 11 49 12 49 1z"/>
<path d="M73 253 c4 -3 10 -3 14 0 3 4 0 7 -7 7 -7 0 -10 -3 -7 -7z"/>
<path d="M388 193 c7 -3 16 -2 19 1 4 3 -2 6 -13 5 -11 0 -14 -3 -6 -6z"/>
<path d="M385 90 c3 -5 8 -10 11 -10 3 0 2 5 -1 10 -3 6 -8 10 -11 10 -3 0 -2
-4 1 -10z"/>
<path d="M222 348 c-7 -7 -12 -19 -11 -27 0 -10 4 -7 9 7 11 27 36 29 50 3 25
-49 0 -90 -32 -51 -10 12 -18 18 -18 13 0 -6 9 -18 20 -28 39 -35 68 25 34 73
-17 25 -34 28 -52 10z"/>
<path d="M250 315 c0 -3 2 -5 5 -5 3 0 5 2 5 5 0 3 -2 5 -5 5 -3 0 -5 -2 -5
-5z"/>
</g>
</svg>
