<?xml version="1.0" standalone="no"?>
<!DOCTYPE svg PUBLIC "-//W3C//DTD SVG 20010904//EN"
 "http://www.w3.org/TR/2001/REC-SVG-20010904/DTD/svg10.dtd">
<svg version="1.0" xmlns="http://www.w3.org/2000/svg"
 width="56.000000pt" height="56.000000pt" viewBox="0 0 56.000000 56.000000"
 preserveAspectRatio="xMidYMid meet">
<metadata>
Created by potrace 1.16, written by Peter Selinger 2001-2019
</metadata>
<g transform="translate(0.000000,56.000000) scale(0.100000,-0.100000)"
fill="#000000" stroke="none">
<path d="M277 540 c-8 -12 -24 -28 -35 -34 -11 -6 -28 -16 -39 -23 -19 -11
-20 -10 -19 25 2 56 -25 48 -42 -13 l-14 -49 -15 27 c-20 40 -36 23 -28 -29
l6 -44 -37 25 c-54 37 -67 34 -38 -10 9 -14 13 -32 10 -41 -4 -9 -1 -23 5 -30
6 -7 9 -19 6 -26 -2 -7 2 -20 10 -29 12 -14 12 -21 -1 -50 -8 -19 -17 -41 -20
-49 -3 -8 -12 -23 -18 -32 -9 -13 -10 -23 -2 -35 18 -28 31 -26 57 12 22 33
25 34 38 18 12 -15 12 -16 -6 -10 -20 7 -20 7 -1 -8 34 -26 69 -15 95 30 10
17 11 12 6 -28 -6 -46 -5 -49 39 -92 52 -52 73 -56 139 -21 25 14 47 20 49 15
2 -6 10 -11 18 -13 8 -1 25 -8 38 -14 19 -11 23 -10 28 3 6 14 8 14 25 -1 17
-15 19 -15 25 0 3 9 3 33 0 54 -3 20 -7 42 -7 47 -1 6 2 31 6 58 7 44 6 47
-15 47 -19 0 -20 -2 -10 -15 23 -28 -9 -17 -36 12 l-25 27 33 18 c42 22 47 22
41 -1 -3 -10 -1 -21 4 -24 5 -3 8 7 7 21 0 17 -7 28 -19 30 -15 3 -17 11 -11
50 3 25 13 53 21 62 15 17 11 30 -9 30 -6 0 -4 -4 4 -10 11 -7 9 -11 -14 -19
-15 -6 -36 -16 -46 -21 -17 -9 -22 -5 -35 26 -8 21 -14 38 -12 40 14 14 80 54
84 50 3 -2 0 -13 -6 -24 -14 -26 -14 -42 0 -42 5 0 7 4 4 10 -3 5 -1 19 5 31
16 30 -3 49 -27 27 -27 -23 -80 -48 -87 -41 -3 4 1 15 10 24 16 17 15 19 0 25
-16 6 -16 8 0 25 25 28 12 33 -47 16 -48 -14 -54 -14 -64 0 -11 14 -14 13 -28
-7z m33 -20 c5 0 19 4 32 9 13 4 37 11 53 15 l30 8 -23 -25 -24 -25 23 -4 c23
-3 23 -3 -5 -21 -26 -17 -29 -17 -46 -2 -15 14 -25 15 -56 6 -21 -6 -40 -9
-42 -6 -2 2 6 21 19 42 18 28 25 34 27 21 2 -10 7 -18 12 -18z m-130 -2 c-1
-13 -7 -41 -15 -63 -8 -22 -15 -52 -15 -66 0 -27 -25 -57 -37 -46 -3 4 7 49
23 102 27 91 44 120 44 73z m66 -37 c0 -11 -5 -17 -13 -14 -14 6 -17 16 -6 26
11 12 19 7 19 -12z m-138 -61 l0 -25 -8 25 c-4 14 -8 36 -8 50 l0 25 8 -25 c4
-14 8 -36 8 -50z m292 -27 c0 -7 -12 -13 -26 -13 -14 0 -34 -5 -46 -11 -27
-14 -36 -2 -12 16 19 14 19 15 -1 20 -12 4 -27 15 -33 26 -11 18 -9 21 20 34
32 14 34 13 65 -23 18 -20 32 -43 33 -49z m-152 57 c38 -23 41 -40 8 -40 -13
0 -38 -3 -55 -6 -34 -7 -37 -1 -21 40 11 31 25 32 68 6z m-173 -70 c4 -6 1
-17 -5 -25 -10 -13 -3 -19 44 -40 31 -14 56 -29 56 -33 0 -5 -21 1 -47 14 -53
26 -76 31 -50 12 11 -9 14 -18 8 -27 -7 -11 -10 -9 -16 8 -4 13 -11 18 -18 14
-7 -4 -6 1 2 11 13 15 13 19 0 26 -8 5 -14 22 -14 39 0 24 3 28 17 20 9 -5 20
-14 23 -19z m244 16 c-2 -2 -40 -6 -84 -9 -49 -4 -68 -3 -50 2 30 9 142 14
134 7z m121 -41 c-6 -7 -5 -16 2 -23 8 -8 8 -15 -2 -27 -11 -13 -9 -15 13 -15
14 0 27 -6 30 -12 3 -8 -4 -13 -18 -13 -13 0 -21 3 -19 6 2 4 -3 10 -11 13
-12 4 -13 10 -6 25 13 23 -11 52 -25 30 -5 -8 -3 -9 6 -4 9 6 11 4 5 -4 -5 -9
-10 -10 -18 -2 -8 8 -4 18 13 36 17 18 26 22 31 13 4 -7 4 -17 -1 -23z m75 -9
c-4 -20 -12 -36 -17 -36 -6 0 -5 -7 2 -16 12 -13 10 -14 -13 -3 -15 7 -27 16
-27 20 0 4 -3 16 -6 26 -5 15 -4 15 5 3 9 -13 11 -12 11 6 0 24 26 40 34 21 2
-7 5 -3 5 7 1 11 4 17 7 14 3 -3 2 -22 -1 -42z m-415 29 c0 -3 -2 -5 -5 -5 -3
0 -5 2 -5 5 0 3 2 5 5 5 3 0 5 -2 5 -5z m190 -20 c0 -7 -8 -18 -17 -24 -16 -8
-15 -11 10 -20 16 -6 37 -11 48 -11 33 0 11 -19 -36 -31 -25 -6 -43 -15 -40
-19 2 -4 -7 -12 -20 -18 -31 -14 -32 -3 -3 33 20 26 20 27 1 17 -31 -17 -43
-36 -36 -60 4 -15 9 -19 17 -13 7 6 19 4 35 -8 l23 -18 -25 -52 -25 -52 22 -9
c16 -7 17 -9 4 -9 -33 -2 -49 27 -42 79 7 56 -8 74 -26 30 -12 -29 -53 -51
-67 -36 -4 3 3 6 14 6 31 0 68 66 54 97 -6 12 -8 29 -5 37 3 8 -4 20 -15 28
-12 8 -18 18 -13 23 4 4 -2 5 -14 1 -11 -3 -28 0 -40 9 -10 8 -14 15 -8 15 6
0 14 -3 18 -7 9 -10 59 -11 66 -2 3 4 16 10 29 14 17 5 22 4 19 -6 -3 -8 -12
-13 -21 -11 -8 1 -18 -2 -22 -8 -11 -18 4 -28 33 -21 15 4 25 9 23 12 -2 2 1
14 8 27 13 24 51 30 51 7z m-138 -107 c-9 -9 -12 -7 -12 12 0 19 3 21 12 12 9
-9 9 -15 0 -24z m252 16 c12 -4 13 -11 4 -29 -12 -28 -48 -37 -74 -18 -10 7
-23 13 -28 13 -6 -1 1 -7 15 -15 27 -14 27 -15 10 -49 -9 -20 -19 -35 -23 -36
-4 0 -14 16 -22 35 -8 19 -22 38 -31 41 -24 10 -18 24 11 24 19 0 25 4 21 14
-6 14 -2 16 85 24 9 1 23 -1 32 -4z m-323 -25 c-2 -8 -3 -24 -3 -37 0 -12 -4
-25 -9 -27 -4 -3 -6 12 -3 32 3 28 1 34 -6 23 -5 -8 -10 -26 -11 -40 -1 -18
-3 -20 -6 -7 -6 24 17 79 31 74 6 -3 9 -11 7 -18z m81 -9 c5 0 8 -10 6 -22 -2
-16 -10 -23 -25 -22 -18 0 -20 -3 -12 -18 5 -10 6 -18 2 -18 -4 0 -13 12 -20
26 -15 32 0 69 24 60 8 -3 19 -6 25 -6z m313 -20 c11 -17 -5 -32 -21 -19 -7 6
-11 15 -8 20 7 12 21 11 29 -1z m-29 -65 c-5 -14 -9 -15 -21 -5 -12 10 -13 16
-4 27 15 18 34 1 25 -22z m-156 -10 c4 -5 3 -19 -1 -30 -9 -18 -9 -18 -5 3 2
12 0 20 -4 17 -13 -8 -21 11 -13 31 5 14 8 15 11 3 3 -7 8 -18 12 -24z m55 6
c-3 -12 -11 -21 -16 -21 -6 0 -8 3 -6 8 2 4 7 16 11 26 9 25 20 13 11 -13z
m-309 -21 c3 0 3 7 0 16 -3 8 -2 13 3 9 5 -3 12 1 14 7 3 7 6 8 6 2 2 -18 -26
-47 -37 -40 -7 4 -12 17 -11 29 l0 22 9 -22 c5 -13 12 -23 16 -23z m474 29 c0
-5 -4 -7 -10 -4 -5 3 -10 0 -10 -8 0 -8 -7 -21 -17 -28 -15 -13 -15 -11 1 19
16 31 36 43 36 21z m-94 -54 c-8 -23 -25 -9 -19 16 4 13 9 17 16 10 5 -5 7
-17 3 -26z m90 -42 c-8 -27 -15 -42 -15 -35 -1 7 -5 10 -11 7 -5 -3 -3 10 5
29 8 20 15 46 15 58 1 20 2 21 11 6 7 -12 5 -32 -5 -65z m-232 45 c6 -22 7
-22 21 -4 14 18 45 16 45 -3 0 -14 -46 -25 -61 -15 -8 4 -9 3 -5 -4 4 -7 20
-12 36 -12 34 0 47 -15 30 -35 -25 -30 -104 -5 -84 26 14 22 14 41 -1 36 -9
-4 -11 1 -8 14 7 26 19 24 27 -3z m207 -30 c-11 -29 -41 -45 -41 -23 0 16 39
60 46 52 3 -2 0 -15 -5 -29z m67 -32 c-3 -21 -4 -22 -19 -7 -13 12 -14 22 -7
41 8 23 10 23 19 7 6 -10 9 -28 7 -41z"/>
<path d="M430 365 c0 -3 2 -5 5 -5 3 0 5 2 5 5 0 3 -2 5 -5 5 -3 0 -5 -2 -5
-5z"/>
<path d="M180 260 c0 -7 3 -10 7 -7 3 4 3 10 0 14 -4 3 -7 0 -7 -7z"/>
<path d="M221 179 c0 -15 -3 -42 -6 -60 l-5 -34 11 34 c5 18 8 45 6 60 l-4 26
-2 -26z"/>
<path d="M70 245 c0 -3 2 -5 5 -5 3 0 5 2 5 5 0 3 -2 5 -5 5 -3 0 -5 -2 -5 -5z"/>
</g>
</svg>
