<?xml version="1.0" standalone="no"?>
<!DOCTYPE svg PUBLIC "-//W3C//DTD SVG 20010904//EN"
 "http://www.w3.org/TR/2001/REC-SVG-20010904/DTD/svg10.dtd">
<svg version="1.0" xmlns="http://www.w3.org/2000/svg"
 width="56.000000pt" height="56.000000pt" viewBox="0 0 56.000000 56.000000"
 preserveAspectRatio="xMidYMid meet">
<metadata>
Created by potrace 1.16, written by Peter Selinger 2001-2019
</metadata>
<g transform="translate(0.000000,56.000000) scale(0.100000,-0.100000)"
fill="#000000" stroke="none">
<path d="M55 551 c-3 -5 0 -21 6 -34 9 -21 7 -30 -20 -67 -17 -24 -31 -49 -31
-57 0 -17 58 -53 88 -53 29 0 28 -5 -9 -84 -19 -40 -29 -76 -27 -91 4 -17 -2
-31 -18 -46 -12 -11 -28 -34 -35 -51 -19 -47 -2 -54 75 -31 59 18 70 19 118 7
29 -8 62 -14 74 -14 12 0 50 -7 84 -16 50 -13 67 -13 91 -4 23 10 32 10 44 0
12 -10 21 -10 42 -1 l26 12 -31 32 c-18 18 -32 37 -32 43 0 5 -8 20 -17 34
-21 29 -24 57 -10 88 14 30 -3 48 -31 33 -16 -9 -21 -7 -25 9 -3 11 -13 20
-22 20 -28 0 -75 30 -75 48 0 10 -7 27 -15 38 -15 19 -15 19 -30 -1 -26 -35
-37 -46 -42 -41 -8 8 28 108 50 137 35 48 -11 107 -62 80 -16 -9 -26 -8 -46 5
-21 14 -30 15 -52 5 -18 -8 -29 -9 -37 -1 -12 12 -23 13 -31 1z m50 -31 c15
-16 33 -26 38 -23 6 4 1 14 -11 24 -19 15 -20 18 -5 23 20 8 55 -3 48 -15 -8
-12 22 -11 46 2 26 14 59 2 59 -21 0 -25 -38 -46 -53 -31 -8 8 -8 14 1 23 10
10 15 10 22 -2 6 -9 10 -10 10 -3 0 19 -20 26 -35 13 -21 -18 -18 -47 5 -60
23 -12 27 -40 6 -40 -21 0 -30 -19 -16 -35 8 -10 8 -19 1 -34 -27 -50 -9 -91
60 -133 15 -10 29 -29 32 -47 7 -33 40 -50 62 -31 12 10 18 10 30 0 20 -17 40
-3 23 18 -11 13 -11 14 7 5 27 -15 61 -53 47 -53 -21 0 -13 -20 11 -29 12 -5
30 -18 40 -29 16 -18 16 -20 2 -26 -19 -7 -58 12 -127 61 -27 20 -51 33 -53
31 -3 -3 18 -19 45 -37 80 -52 61 -73 -42 -46 -109 28 -176 90 -132 122 10 7
13 13 8 13 -14 0 -34 -22 -34 -36 0 -7 11 -26 25 -42 14 -17 25 -32 25 -35 0
-8 -80 12 -111 29 -33 16 -69 68 -69 98 0 10 15 51 33 92 26 59 36 74 54 74
12 0 27 9 33 20 10 18 9 19 -25 5 -19 -8 -49 -15 -67 -14 -28 1 -25 3 22 16
30 8 59 18 64 23 5 5 -13 2 -39 -6 -63 -19 -114 -18 -121 1 -8 19 43 98 56 90
15 -9 11 18 -5 39 -33 44 -11 48 30 6z m195 -163 c0 -17 -27 -54 -34 -46 -7 7
16 59 27 59 4 0 7 -6 7 -13z m-50 -48 c0 -5 10 -13 21 -20 15 -8 19 -8 15 0
-4 6 1 14 10 18 10 4 19 2 22 -5 2 -7 10 -12 18 -12 8 0 28 -14 44 -32 26 -29
32 -30 55 -20 31 14 35 15 35 3 0 -18 -100 -83 -117 -77 -14 6 -14 8 3 20 10
8 22 12 26 10 5 -3 8 0 8 5 0 6 0 14 0 19 0 12 -24 9 -42 -6 -15 -13 -25 -11
-15 1 1 2 -5 12 -13 23 -13 17 -13 17 10 -1 l25 -20 -19 22 c-10 13 -21 21
-25 19 -3 -2 -24 6 -46 17 -41 22 -55 44 -29 44 8 0 14 -4 14 -8z m120 -94 c0
-3 -2 -5 -5 -5 -3 0 -5 2 -5 5 0 3 2 5 5 5 3 0 5 -2 5 -5z m20 0 c0 -3 -2 -5
-5 -5 -3 0 -5 2 -5 5 0 3 2 5 5 5 3 0 5 -2 5 -5z m-299 -161 c-25 -18 -81 -28
-81 -14 0 15 19 50 38 72 13 16 16 15 36 -15 20 -29 21 -33 7 -43z"/>
<path d="M164 448 c-40 -10 -54 -38 -19 -38 18 0 23 4 19 15 -4 8 -1 15 5 15
6 0 11 -5 11 -12 0 -9 3 -9 11 -1 19 19 6 30 -27 21z m-14 -23 c0 -3 -2 -5 -5
-5 -3 0 -5 2 -5 5 0 3 2 5 5 5 3 0 5 -2 5 -5z"/>
<path d="M50 389 c0 -5 5 -7 10 -4 6 3 10 8 10 11 0 2 -4 4 -10 4 -5 0 -10 -5
-10 -11z"/>
<path d="M172 249 c2 -7 10 -15 17 -17 8 -3 12 1 9 9 -2 7 -10 15 -17 17 -8 3
-12 -1 -9 -9z"/>
<path d="M216 211 c-3 -5 1 -14 8 -20 16 -13 32 2 21 19 -8 12 -22 13 -29 1z"/>
<path d="M272 129 c2 -7 10 -15 17 -17 8 -3 12 1 9 9 -2 7 -10 15 -17 17 -8 3
-12 -1 -9 -9z"/>
<path d="M380 110 c0 -5 7 -10 15 -10 8 0 15 5 15 10 0 6 -7 10 -15 10 -8 0
-15 -4 -15 -10z"/>
<path d="M335 70 c3 -5 13 -10 21 -10 8 0 12 5 9 10 -3 6 -13 10 -21 10 -8 0
-12 -4 -9 -10z"/>
<path d="M330 215 c0 -3 2 -5 5 -5 3 0 5 2 5 5 0 3 -2 5 -5 5 -3 0 -5 -2 -5
-5z"/>
</g>
</svg>
