<?xml version="1.0" standalone="no"?>
<!DOCTYPE svg PUBLIC "-//W3C//DTD SVG 20010904//EN"
 "http://www.w3.org/TR/2001/REC-SVG-20010904/DTD/svg10.dtd">
<svg version="1.0" xmlns="http://www.w3.org/2000/svg"
 width="56.000000pt" height="56.000000pt" viewBox="0 0 56.000000 56.000000"
 preserveAspectRatio="xMidYMid meet">
<metadata>
Created by potrace 1.16, written by Peter Selinger 2001-2019
</metadata>
<g transform="translate(0.000000,56.000000) scale(0.100000,-0.100000)"
fill="#000000" stroke="none">
<path d="M390 434 c-10 -26 -11 -26 -25 -8 -12 16 -17 17 -35 6 -13 -8 -33
-11 -52 -7 -24 6 -30 3 -35 -13 -3 -13 -11 -18 -23 -15 -25 7 -33 -11 -21 -53
12 -44 3 -66 -39 -91 -31 -18 -39 -46 -17 -60 15 -9 106 -22 212 -29 62 -4 85
-2 100 9 20 15 20 16 -4 69 -13 29 -23 67 -22 83 9 98 6 130 -11 133 -12 2
-21 -6 -28 -24z m40 -8 c0 -27 -26 -94 -45 -116 -21 -24 -14 -70 12 -76 12 -3
26 -4 30 -1 5 3 10 -5 11 -19 2 -23 -13 -34 -20 -14 -2 6 -21 4 -48 -4 l-45
-14 50 -4 c46 -4 45 -5 -16 -6 -50 -2 -68 2 -72 12 -4 10 4 19 21 25 l27 11
-30 -6 c-42 -9 -117 -10 -138 -1 -16 6 -13 12 23 47 43 42 44 45 23 114 -4 15
-2 18 12 12 12 -4 18 0 22 14 5 17 11 20 33 15 16 -4 37 -1 49 7 18 11 23 10
36 -7 8 -11 13 -29 10 -40 -4 -20 -4 -20 10 -1 8 11 15 32 15 48 0 18 5 28 15
28 9 0 15 -9 15 -24z"/>
<path d="M310 385 c0 -3 2 -5 5 -5 3 0 5 2 5 5 0 3 -2 5 -5 5 -3 0 -5 -2 -5
-5z"/>
<path d="M300 354 c-30 -13 -48 -23 -40 -23 18 -1 100 36 100 44 0 3 -1 4 -2
4 -2 -1 -28 -12 -58 -25z"/>
<path d="M260 365 c0 -3 2 -5 5 -5 3 0 5 2 5 5 0 3 -2 5 -5 5 -3 0 -5 -2 -5
-5z"/>
</g>
</svg>
