<?xml version="1.0" standalone="no"?>
<!DOCTYPE svg PUBLIC "-//W3C//DTD SVG 20010904//EN"
 "http://www.w3.org/TR/2001/REC-SVG-20010904/DTD/svg10.dtd">
<svg version="1.0" xmlns="http://www.w3.org/2000/svg"
 width="56.000000pt" height="56.000000pt" viewBox="0 0 56.000000 56.000000"
 preserveAspectRatio="xMidYMid meet">
<metadata>
Created by potrace 1.16, written by Peter Selinger 2001-2019
</metadata>
<g transform="translate(0.000000,56.000000) scale(0.100000,-0.100000)"
fill="#000000" stroke="none">
<path d="M326 430 c-56 -32 -108 -31 -162 1 -17 11 -39 19 -48 19 -22 0 -21
-37 2 -75 18 -29 19 -59 6 -116 -4 -21 1 -34 25 -60 58 -64 60 -66 49 -77 -6
-6 -8 -18 -4 -27 11 -30 48 -12 84 40 40 59 57 63 57 15 0 -25 5 -36 18 -38
30 -6 47 17 47 65 0 30 7 53 20 70 11 14 20 37 20 52 0 14 9 45 20 69 17 38
18 44 4 49 -8 3 -26 1 -39 -5 -21 -10 -24 -8 -27 15 -4 35 -14 36 -72 3z m44
0 c-13 -24 -57 -47 -68 -35 -4 4 -2 9 3 11 6 2 24 13 40 23 38 25 38 25 25 1z
m-220 -10 c17 -32 1 -44 -21 -16 -23 29 -24 36 -4 36 8 0 19 -9 25 -20z m306
-38 c-8 -15 -24 -36 -35 -46 -19 -18 -23 -18 -37 -5 -8 9 -12 23 -8 33 7 19
51 45 77 46 16 0 16 -2 3 -28z m-176 -2 c45 -45 4 -111 -69 -109 -32 0 -33 1
-13 9 31 13 28 22 -4 10 -19 -7 -31 -7 -40 1 -19 15 -18 30 1 23 22 -9 32 26
11 41 -16 12 -16 14 6 29 31 22 84 20 108 -4z m-113 -47 c-4 -3 -7 0 -7 7 0 7
3 10 7 7 3 -4 3 -10 0 -14z m63 -68 c45 0 55 -3 58 -18 4 -18 -14 -47 -29 -47
-5 0 -5 8 -2 17 5 12 0 10 -16 -6 -31 -31 -76 -26 -75 8 1 22 0 23 -12 6 -12
-16 -13 -16 -19 8 -9 33 2 51 24 40 9 -4 41 -8 71 -8z m144 -78 c24 -18 18
-62 -9 -62 -16 0 -20 7 -20 37 0 42 3 44 29 25z m-166 -25 c6 -18 -15 -14 -22
4 -4 10 -1 14 6 12 6 -2 14 -10 16 -16z m51 -6 c9 -11 9 -19 -1 -35 -7 -12
-15 -21 -18 -22 -3 0 -13 -2 -22 -4 -10 -2 -18 1 -18 5 0 12 34 70 41 70 4 0
12 -6 18 -14z"/>
<path d="M229 344 c-10 -13 -10 -17 2 -25 20 -12 35 -11 48 4 8 10 7 17 -1 25
-16 16 -33 15 -49 -4z m41 -4 c0 -5 -2 -10 -4 -10 -3 0 -8 5 -11 10 -3 6 -1
10 4 10 6 0 11 -4 11 -10z"/>
<path d="M183 303 c4 -3 10 -3 14 0 3 4 0 7 -7 7 -7 0 -10 -3 -7 -7z"/>
</g>
</svg>
