<?xml version="1.0" standalone="no"?>
<!DOCTYPE svg PUBLIC "-//W3C//DTD SVG 20010904//EN"
 "http://www.w3.org/TR/2001/REC-SVG-20010904/DTD/svg10.dtd">
<svg version="1.0" xmlns="http://www.w3.org/2000/svg"
 width="56.000000pt" height="56.000000pt" viewBox="0 0 56.000000 56.000000"
 preserveAspectRatio="xMidYMid meet">
<metadata>
Created by potrace 1.16, written by Peter Selinger 2001-2019
</metadata>
<g transform="translate(0.000000,56.000000) scale(0.100000,-0.100000)"
fill="#000000" stroke="none">
<path d="M81 454 c-24 -31 -27 -71 -7 -99 7 -11 16 -32 20 -47 3 -15 19 -42
34 -60 44 -51 47 -68 15 -94 -23 -18 -26 -25 -15 -35 6 -7 12 -23 12 -35 0
-12 7 -27 15 -34 21 -17 50 -8 48 15 -3 27 16 72 33 79 14 5 18 -5 14 -33 -2
-19 50 -60 78 -61 27 0 28 11 2 35 -19 17 -28 65 -12 65 10 0 36 -42 37 -60 0
-8 10 -16 22 -18 12 -2 27 -10 33 -18 15 -16 56 -19 66 -3 3 6 -6 24 -22 40
-26 27 -26 30 -11 47 9 10 17 23 17 28 0 5 12 32 27 61 24 45 26 56 15 73 -10
17 -10 24 3 43 16 22 20 59 8 70 -3 4 -25 -4 -49 -18 -39 -23 -44 -24 -58 -9
-9 8 -16 20 -16 25 0 13 -38 49 -51 49 -8 0 -10 -14 -6 -40 3 -22 2 -40 -2
-40 -4 0 -22 16 -41 35 -19 19 -38 35 -42 35 -12 0 -10 -45 3 -73 9 -20 7 -28
-16 -53 -25 -27 -28 -28 -52 -14 -44 25 -50 45 -25 79 23 32 16 47 -19 36 -17
-6 -20 -3 -17 21 4 37 -15 41 -41 8z m29 -24 c0 -28 11 -51 21 -44 12 7 11 -3
-1 -26 -7 -13 -5 -21 6 -31 24 -20 43 -64 35 -78 -13 -20 -46 3 -61 41 -6 18
-18 45 -26 60 -17 31 -18 62 -3 89 12 23 29 16 29 -11z m175 -68 c-6 -15 -8
-14 -20 8 -8 14 -14 36 -14 50 -1 24 0 24 20 -8 13 -19 18 -39 14 -50z m88 41
c-5 -12 -3 -14 8 -8 12 8 12 6 0 -8 -17 -22 -16 -22 -19 14 -1 18 2 28 7 24 6
-3 7 -13 4 -22z m133 -37 c-7 -27 -40 -51 -56 -41 -5 3 5 21 23 39 36 37 42
38 33 2z m-166 -33 c0 -15 2 -15 19 1 18 16 22 17 41 3 l22 -15 -21 -12 c-12
-6 -18 -16 -15 -22 4 -6 3 -8 -4 -4 -6 3 -13 2 -17 -4 -3 -5 3 -10 14 -10 12
0 21 -4 21 -10 0 -5 -7 -10 -15 -10 -8 0 -15 -4 -15 -10 0 -5 -11 -10 -24 -10
-47 0 -75 78 -38 106 23 18 32 17 32 -3z m-74 -28 c-14 -21 -14 -25 -2 -25 18
0 36 -30 36 -59 0 -22 14 -28 25 -11 9 15 51 12 65 -5 6 -8 9 -19 5 -25 -9
-15 -71 -12 -89 5 -8 8 -19 15 -23 15 -5 0 -19 13 -31 30 -16 22 -21 37 -16
57 9 38 13 43 31 43 14 0 14 -3 -1 -25z m234 -29 c0 -17 -24 -28 -45 -20 -29
12 -12 31 28 33 9 1 17 -5 17 -13z m-260 -60 c8 -22 7 -33 -4 -45 -23 -26 -47
-80 -44 -99 2 -11 -4 -17 -17 -17 -15 0 -21 8 -23 30 -2 16 -8 33 -14 36 -6 4
-7 12 -4 18 10 15 29 14 20 -1 -5 -10 -4 -10 7 0 8 7 13 30 12 54 -1 22 2 49
8 59 8 16 13 17 29 7 11 -7 24 -26 30 -42z m215 32 c29 -13 30 -17 11 -44 -14
-19 -15 -19 -40 5 -20 19 -23 27 -15 38 14 16 12 16 44 1z m-23 -110 c-7 -7
-12 -8 -12 -2 0 14 12 26 19 19 2 -3 -1 -11 -7 -17z m-51 -9 c32 -11 89 -55
89 -69 0 -13 -49 -4 -67 12 -10 8 -24 13 -32 10 -8 -3 -12 1 -9 9 3 8 -1 22
-10 32 -18 20 -16 21 29 6z"/>
<path d="M300 296 c0 -15 18 -31 26 -23 7 7 -7 37 -17 37 -5 0 -9 -6 -9 -14z
m20 -11 c0 -3 -2 -5 -5 -5 -3 0 -5 2 -5 5 0 3 2 5 5 5 3 0 5 -2 5 -5z"/>
<path d="M333 243 c4 -3 10 -3 14 0 3 4 0 7 -7 7 -7 0 -10 -3 -7 -7z"/>
</g>
</svg>
