<?xml version="1.0" standalone="no"?>
<!DOCTYPE svg PUBLIC "-//W3C//DTD SVG 20010904//EN"
 "http://www.w3.org/TR/2001/REC-SVG-20010904/DTD/svg10.dtd">
<svg version="1.0" xmlns="http://www.w3.org/2000/svg"
 width="56.000000pt" height="56.000000pt" viewBox="0 0 56.000000 56.000000"
 preserveAspectRatio="xMidYMid meet">
<metadata>
Created by potrace 1.16, written by Peter Selinger 2001-2019
</metadata>
<g transform="translate(0.000000,56.000000) scale(0.100000,-0.100000)"
fill="#000000" stroke="none">
<path d="M153 456 c-13 -16 -23 -40 -23 -55 -1 -14 -7 -37 -14 -50 -8 -14 -12
-31 -9 -38 3 -8 2 -13 -3 -12 -5 1 -20 1 -33 0 -23 -1 -23 -2 -7 -19 15 -18
15 -20 -4 -37 -30 -27 -24 -37 18 -29 l37 7 -24 -26 -23 -25 27 -4 27 -3 -22
-27 c-12 -15 -18 -32 -15 -38 12 -20 46 -9 64 21 12 19 21 26 26 19 4 -6 -1
-22 -10 -36 -21 -32 -13 -56 17 -52 15 2 33 21 54 60 l32 56 -24 23 -23 22 -9
-24 c-5 -13 -11 -31 -14 -39 -4 -10 -11 -3 -23 22 -17 34 -20 36 -39 22 -38
-27 -52 -16 -20 17 l29 32 -30 -7 c-16 -4 -39 -10 -50 -13 -16 -4 -15 0 9 26
26 27 28 31 10 32 -13 0 -15 2 -5 6 8 3 19 -1 25 -9 14 -19 50 -38 71 -38 26
0 115 44 115 57 0 21 34 32 80 26 l45 -6 -35 -13 c-19 -7 -46 -13 -60 -13 -24
-1 -23 -3 15 -37 l40 -35 -32 6 c-28 6 -32 4 -26 -10 5 -15 3 -16 -15 -6 -20
11 -22 9 -23 -16 -1 -39 -5 -65 -14 -85 -6 -15 -2 -18 19 -18 20 0 29 8 41 36
18 44 37 36 33 -14 -2 -28 1 -37 15 -40 26 -5 47 16 47 47 0 15 6 35 13 45 13
17 15 17 46 1 51 -26 49 -9 -3 44 l-49 49 42 21 c45 23 53 41 20 41 -21 0 -20
1 6 36 30 39 28 52 -5 34 -31 -17 -34 -8 -9 34 29 49 17 57 -24 18 -18 -18
-36 -30 -38 -27 -3 3 -16 -6 -29 -20 -16 -17 -34 -25 -54 -24 -26 0 -28 2 -11
9 11 5 17 9 13 9 -4 1 5 13 20 29 l27 27 -34 3 c-42 4 -131 -52 -131 -83 0
-16 3 -15 18 10 19 30 67 63 78 53 3 -3 -11 -16 -31 -28 -32 -20 -35 -25 -30
-54 5 -24 1 -39 -16 -59 -12 -16 -27 -26 -35 -23 -7 3 -16 1 -19 -4 -9 -15
-32 -12 -49 6 -18 17 -22 39 -6 29 13 -8 13 11 0 35 -8 15 -5 23 19 39 31 23
46 27 36 11 -3 -5 -2 -10 2 -10 16 0 33 23 33 44 0 16 -3 17 -12 8 -20 -20
-27 -14 -30 25 l-3 38 -22 -29z m312 -43 c-38 -66 -55 -83 -79 -83 -44 0 -46
15 -8 45 20 17 40 29 43 28 3 -1 19 11 34 27 16 17 31 30 33 30 2 0 -8 -21
-23 -47z m16 -62 l-32 -40 28 -3 c25 -3 23 -5 -23 -22 l-52 -19 57 -53 56 -54
-60 26 c-66 29 -82 39 -95 65 -8 14 -3 22 25 39 19 12 33 25 30 30 -3 5 6 17
20 28 13 11 21 23 17 27 -4 5 -1 5 5 1 7 -4 21 -2 30 3 27 16 27 14 -6 -28z
m-151 5 c0 -3 -5 -8 -12 -12 -7 -4 -8 -3 -4 4 7 12 16 16 16 8z m-210 -131 c0
-3 -2 -5 -5 -5 -3 0 -5 2 -5 5 0 3 2 5 5 5 3 0 5 -2 5 -5z m21 -104 c-11 -20
-54 -26 -48 -6 4 11 49 36 55 30 2 -2 -1 -12 -7 -24z m259 4 c7 -8 10 -21 7
-29 -7 -17 -42 -15 -41 2 3 37 5 42 13 42 5 0 14 -7 21 -15z m-200 -34 c0 -20
-5 -29 -15 -27 -25 4 -29 15 -10 36 24 26 25 25 25 -9z"/>
<path d="M384 368 l-29 -33 33 29 c30 28 37 36 29 36 -2 0 -16 -15 -33 -32z"/>
<path d="M80 325 c0 -8 2 -15 4 -15 2 0 6 7 10 15 3 8 1 15 -4 15 -6 0 -10 -7
-10 -15z"/>
<path d="M202 324 c-12 -8 -22 -19 -22 -25 0 -15 37 -10 54 7 33 33 9 47 -32
18z m8 -9 c0 -3 -2 -5 -5 -5 -3 0 -5 2 -5 5 0 3 2 5 5 5 3 0 5 -2 5 -5z"/>
<path d="M143 273 c4 -3 10 -3 14 0 3 4 0 7 -7 7 -7 0 -10 -3 -7 -7z"/>
</g>
</svg>
