<?xml version="1.0" standalone="no"?>
<!DOCTYPE svg PUBLIC "-//W3C//DTD SVG 20010904//EN"
 "http://www.w3.org/TR/2001/REC-SVG-20010904/DTD/svg10.dtd">
<svg version="1.0" xmlns="http://www.w3.org/2000/svg"
 width="56.000000pt" height="56.000000pt" viewBox="0 0 56.000000 56.000000"
 preserveAspectRatio="xMidYMid meet">
<metadata>
Created by potrace 1.16, written by Peter Selinger 2001-2019
</metadata>
<g transform="translate(0.000000,56.000000) scale(0.100000,-0.100000)"
fill="#000000" stroke="none">
<path d="M194 496 c-10 -8 -24 -11 -32 -9 -17 7 -90 -70 -98 -103 -4 -13 -4
-34 -1 -45 3 -12 1 -31 -5 -44 -14 -30 -4 -67 26 -102 l24 -28 -31 -26 c-22
-18 -29 -31 -24 -44 8 -19 14 -19 150 1 l48 7 -3 -29 c-3 -25 1 -29 25 -32 29
-3 91 20 102 38 3 6 19 10 35 10 16 0 41 11 57 24 26 22 27 25 13 51 -11 21
-12 30 -2 45 19 31 14 47 -22 75 l-35 27 35 30 c36 32 68 93 60 114 -8 21 -53
22 -71 2 -12 -14 -20 -17 -29 -9 -9 8 -19 4 -36 -14 l-24 -25 -12 27 c-10 25
-9 30 10 45 25 21 29 20 -65 24 -53 2 -82 -1 -95 -10z m91 -5 c3 -5 1 -12 -5
-16 -6 -4 -8 -11 -5 -16 4 -5 0 -9 -9 -9 -8 0 -29 -12 -47 -27 l-33 -28 27 48
c29 49 25 59 -13 29 -13 -11 -23 -33 -27 -60 -3 -23 -10 -42 -15 -42 -10 0 -7
50 6 85 5 13 2 11 -8 -5 -18 -30 -20 -64 -5 -91 8 -16 6 -30 -10 -63 -12 -23
-21 -50 -21 -59 0 -23 -23 -21 -45 3 -20 22 -13 82 8 61 6 -6 15 -11 19 -11 4
0 -1 9 -12 20 -21 21 -26 60 -11 89 19 34 71 83 84 78 7 -3 21 1 32 9 21 16
81 19 90 5z m57 -7 c-18 -12 -20 -19 -11 -35 15 -28 -17 -94 -54 -110 -32 -14
-42 -7 -50 36 -7 38 0 51 36 64 16 6 25 15 22 21 -3 5 1 10 10 10 9 0 14 4 11
9 -7 11 10 19 39 20 18 1 18 0 -3 -15z m168 -34 c0 -4 -6 -23 -14 -41 -15 -35
-42 -63 -88 -92 -53 -33 -46 -16 19 48 37 35 64 67 61 70 -3 3 -30 -5 -60 -18
-41 -18 -58 -32 -67 -56 -17 -39 -31 -40 -28 -2 1 16 3 28 5 26 2 -1 18 12 36
31 23 24 36 30 43 23 8 -8 16 -6 30 8 17 18 63 20 63 3z m-264 -126 c19 -13
30 -15 49 -6 18 9 24 8 29 -4 3 -8 -1 -14 -9 -14 -24 0 -66 -23 -62 -34 2 -6
14 -13 28 -17 l24 -6 -28 -12 c-16 -6 -38 -11 -50 -11 -18 0 -19 2 -7 11 12 8
10 9 -7 4 -23 -6 -43 17 -43 51 0 16 1 16 14 -2 18 -24 34 -10 18 17 -23 37 2
50 44 23z m-46 -29 c0 -3 -2 -5 -5 -5 -3 0 -5 2 -5 5 0 3 2 5 5 5 3 0 5 -2 5
-5z m251 -16 c31 -22 36 -39 17 -69 -10 -15 -9 -24 2 -45 13 -25 13 -29 -9
-46 -13 -10 -34 -19 -46 -19 l-23 0 25 73 c24 67 24 74 10 100 -19 32 -15 34
24 6z m-240 -65 c40 -20 88 -12 129 23 27 22 35 24 56 15 28 -13 31 -38 8 -70
-34 -49 -148 -76 -202 -48 -60 31 -92 102 -60 134 10 10 15 7 25 -13 8 -13 27
-32 44 -41z m79 61 c0 -3 -2 -5 -5 -5 -3 0 -5 2 -5 5 0 3 2 5 5 5 3 0 5 -2 5
-5z m-132 -137 c12 -30 3 -37 -55 -44 -48 -6 -51 14 -7 52 41 34 44 34 62 -8z
m173 -39 c14 -28 -1 -43 -46 -45 -39 -3 -40 -2 -24 29 22 42 52 49 70 16z m31
-21 c-7 -7 -12 -8 -12 -2 0 14 12 26 19 19 2 -3 -1 -11 -7 -17z"/>
<path d="M310 452 c0 -7 -15 -19 -34 -27 -19 -8 -38 -20 -41 -26 -4 -6 7 -4
23 5 17 9 38 16 46 16 20 0 27 13 15 30 -6 11 -9 12 -9 2z m10 -17 c0 -3 -2
-5 -5 -5 -3 0 -5 2 -5 5 0 3 2 5 5 5 3 0 5 -2 5 -5z"/>
<path d="M70 105 c0 -3 2 -5 5 -5 3 0 5 2 5 5 0 3 -2 5 -5 5 -3 0 -5 -2 -5 -5z"/>
</g>
</svg>
