<?xml version="1.0" standalone="no"?>
<!DOCTYPE svg PUBLIC "-//W3C//DTD SVG 20010904//EN"
 "http://www.w3.org/TR/2001/REC-SVG-20010904/DTD/svg10.dtd">
<svg version="1.0" xmlns="http://www.w3.org/2000/svg"
 width="56.000000pt" height="56.000000pt" viewBox="0 0 56.000000 56.000000"
 preserveAspectRatio="xMidYMid meet">
<metadata>
Created by potrace 1.16, written by Peter Selinger 2001-2019
</metadata>
<g transform="translate(0.000000,56.000000) scale(0.100000,-0.100000)"
fill="#000000" stroke="none">
<path d="M375 488 c-3 -7 -16 -44 -29 -83 -21 -59 -25 -65 -25 -38 -1 23 -12
45 -37 73 -30 33 -43 40 -73 40 -45 0 -83 -24 -74 -47 4 -11 3 -14 -5 -9 -23
14 -36 -39 -23 -86 11 -40 10 -48 -13 -93 -16 -32 -22 -55 -16 -64 5 -10 1
-30 -12 -54 -10 -21 -17 -45 -14 -53 7 -17 77 -19 94 -2 7 7 36 11 73 9 60 -2
63 -2 107 41 44 42 44 43 38 14 -9 -39 25 -76 70 -76 28 0 34 5 53 49 37 86
23 131 -38 131 -41 0 -56 44 -52 157 2 71 -1 103 -9 103 -6 0 -13 -6 -15 -12z
m3 -95 c-11 -59 -16 -71 -27 -63 -13 7 -11 20 9 86 29 90 35 81 18 -23z m-128
56 c0 -11 4 -18 9 -14 11 6 51 -42 51 -61 0 -7 -7 -29 -17 -48 -15 -33 -18
-34 -37 -20 -24 16 -79 19 -106 4 -17 -9 -21 -6 -28 22 -5 18 -5 43 -1 54 4
12 5 25 1 28 -3 4 5 3 18 -2 32 -12 34 -47 3 -46 -12 0 -20 -3 -17 -8 8 -13
30 -9 44 7 13 16 10 26 -17 65 -10 13 -12 21 -5 16 7 -4 15 -1 18 8 4 11 19
16 45 16 33 0 39 -3 39 -21z m110 -139 c11 -6 26 -22 33 -37 12 -22 12 -30 0
-53 -7 -16 -24 -35 -36 -43 -22 -14 -23 -14 -19 20 4 34 5 34 26 16 l21 -18
-21 25 c-31 36 -46 69 -40 86 6 17 11 17 36 4z m-115 -9 c3 -6 0 -31 -6 -56
-8 -33 -19 -50 -36 -58 -30 -13 -38 -5 -55 56 -11 41 -10 49 2 57 20 13 87 13
95 1z m75 -31 c9 -16 6 -22 -20 -35 -34 -18 -36 -15 -15 25 18 35 21 36 35 10z
m-181 -39 c1 -11 -2 -11 -16 0 -10 7 -6 0 9 -17 22 -23 25 -33 16 -42 -16 -16
-28 -15 -49 4 -17 15 -17 18 4 60 17 36 23 41 29 27 3 -10 7 -24 7 -32z m310
-12 c17 -6 31 -13 31 -14 0 -2 -5 -27 -11 -55 -11 -50 -11 -50 -50 -50 -38 0
-39 1 -33 28 13 60 25 102 28 102 2 0 17 -5 35 -11z m-184 -75 c0 -8 -59 -22
-95 -23 -22 -1 -44 15 -36 27 7 12 131 8 131 -4z m-139 -36 c-13 -9 -56 -11
-56 -2 0 3 5 14 10 25 10 19 12 19 34 2 16 -12 20 -20 12 -25z m154 13 c-37
-11 -115 -23 -109 -16 7 7 86 23 114 23 15 0 14 -1 -5 -7z"/>
<path d="M230 405 c-28 -34 18 -69 50 -40 19 17 19 19 4 37 -21 22 -37 23 -54
3z m48 -18 c4 -20 -25 -34 -40 -19 -15 15 -1 44 19 40 10 -2 19 -11 21 -21z"/>
<path d="M240 380 c0 -5 5 -10 10 -10 6 0 10 5 10 10 0 6 -4 10 -10 10 -5 0
-10 -4 -10 -10z"/>
<path d="M140 380 c0 -5 5 -10 10 -10 6 0 10 5 10 10 0 6 -4 10 -10 10 -5 0
-10 -4 -10 -10z"/>
</g>
</svg>
