<?xml version="1.0" standalone="no"?>
<!DOCTYPE svg PUBLIC "-//W3C//DTD SVG 20010904//EN"
 "http://www.w3.org/TR/2001/REC-SVG-20010904/DTD/svg10.dtd">
<svg version="1.0" xmlns="http://www.w3.org/2000/svg"
 width="56.000000pt" height="56.000000pt" viewBox="0 0 56.000000 56.000000"
 preserveAspectRatio="xMidYMid meet">
<metadata>
Created by potrace 1.16, written by Peter Selinger 2001-2019
</metadata>
<g transform="translate(0.000000,56.000000) scale(0.100000,-0.100000)"
fill="#000000" stroke="none">
<path d="M264 413 c-12 -2 -36 -20 -55 -39 -31 -32 -34 -40 -34 -99 -1 -54 -4
-66 -24 -83 -19 -14 -22 -24 -16 -38 5 -10 9 -26 9 -34 1 -19 45 -22 70 -4 15
10 24 10 40 1 39 -21 92 -17 117 10 20 21 22 26 10 45 -12 19 -10 23 18 45 59
47 49 140 -21 183 -31 19 -65 23 -114 13z m106 -18 c7 -4 9 -18 6 -34 l-6 -26
15 25 16 25 -4 -28 c-4 -23 -2 -25 11 -15 13 11 14 10 10 -2 -3 -8 -14 -14
-24 -12 -10 2 -24 4 -31 4 -7 1 -10 5 -7 10 3 5 3 21 -1 36 -4 18 -9 22 -14
13 -6 -9 -11 -10 -15 -2 -4 6 -11 11 -17 11 -5 0 -1 -8 9 -18 11 -12 20 -15
25 -8 5 6 5 0 2 -14 -4 -14 -12 -29 -18 -35 -7 -7 -8 -6 -2 3 10 19 -21 49
-59 58 l-31 8 35 7 c39 7 83 5 100 -6z m-64 -36 c25 -21 15 -30 -16 -14 -31
16 -76 20 -84 7 -2 -4 10 -6 27 -4 35 3 102 -32 92 -48 -3 -5 -20 -1 -38 10
-33 20 -82 27 -91 12 -3 -5 8 -7 23 -4 31 4 91 -22 91 -39 0 -7 -7 -8 -17 -3
-10 5 -39 8 -65 9 -47 0 -50 4 -39 43 1 1 0 4 -1 6 -2 2 6 14 17 26 15 17 27
21 53 16 19 -3 40 -10 48 -17z m64 -47 c0 -4 -4 -12 -9 -17 -5 -6 -11 -21 -13
-35 -4 -22 -5 -23 -13 -7 -4 11 -2 28 5 43 13 23 30 33 30 16z m56 -18 c-6
-31 -13 -40 -23 -30 -4 4 -2 11 6 15 10 7 9 10 -3 14 -10 4 -16 1 -16 -7 0 -8
-7 -16 -15 -20 -22 -8 -18 4 11 30 33 31 46 30 40 -2z m-136 -29 c32 -17 43
-49 13 -38 -10 3 -24 10 -30 16 -7 5 -31 7 -53 5 -37 -3 -51 7 -33 25 12 12
73 7 103 -8z m117 -23 c-9 -2 -14 -8 -11 -14 4 -6 -2 -5 -15 1 -24 13 -29 26
-6 17 8 -3 15 -1 15 4 0 5 8 6 18 2 16 -6 16 -7 -1 -10z m-190 -48 c3 -18 2
-18 -6 1 -9 19 -10 20 -10 1 -1 -15 -4 -17 -12 -9 -13 13 -2 36 14 30 7 -2 13
-12 14 -23z m79 15 c3 -6 1 -16 -5 -22 -8 -8 -11 -6 -12 9 0 18 -1 18 -9 -1
-6 -15 -9 -16 -9 -4 -2 27 22 39 35 18z m75 -35 c16 -19 4 -44 -21 -44 -21 0
-29 20 -7 20 6 0 4 5 -6 11 -10 6 -21 8 -24 5 -4 -3 -1 -6 5 -6 6 0 9 -7 6
-15 -4 -8 -11 -12 -17 -8 -6 3 -7 1 -3 -6 4 -6 11 -9 15 -7 4 3 13 1 20 -4 22
-13 -61 -6 -85 7 -16 9 -25 9 -40 -1 -10 -7 -30 -13 -43 -14 -22 -1 -23 0 -5
19 14 15 15 22 5 32 -10 9 -11 8 -5 -7 5 -14 3 -17 -7 -14 -8 3 -15 12 -17 21
-4 20 30 37 36 19 5 -15 34 -16 49 -1 8 8 17 7 32 -2 17 -12 23 -11 36 2 18
18 58 14 76 -7z"/>
<path d="M184 128 c-4 -7 -3 -8 4 -4 12 7 16 16 8 16 -3 0 -8 -5 -12 -12z"/>
<path d="M275 130 c3 -5 8 -10 11 -10 3 0 2 5 -1 10 -3 6 -8 10 -11 10 -3 0
-2 -4 1 -10z"/>
</g>
</svg>
