<?xml version="1.0" standalone="no"?>
<!DOCTYPE svg PUBLIC "-//W3C//DTD SVG 20010904//EN"
 "http://www.w3.org/TR/2001/REC-SVG-20010904/DTD/svg10.dtd">
<svg version="1.0" xmlns="http://www.w3.org/2000/svg"
 width="56.000000pt" height="56.000000pt" viewBox="0 0 56.000000 56.000000"
 preserveAspectRatio="xMidYMid meet">
<metadata>
Created by potrace 1.16, written by Peter Selinger 2001-2019
</metadata>
<g transform="translate(0.000000,56.000000) scale(0.100000,-0.100000)"
fill="#000000" stroke="none">
<path d="M293 503 c-10 -28 -26 -33 -45 -17 -19 18 -38 11 -38 -15 0 -10 -9
-26 -19 -35 -11 -10 -25 -30 -31 -46 l-12 -29 -23 27 c-19 22 -26 25 -36 14
-11 -10 -11 -26 2 -87 8 -41 11 -75 7 -75 -5 0 -11 14 -15 30 -5 29 -7 30 -24
14 -20 -18 -25 -59 -9 -69 6 -4 5 -13 -3 -26 -10 -18 -9 -23 13 -40 14 -13 33
-19 47 -16 15 3 22 0 20 -7 -2 -6 -16 -11 -32 -11 -39 0 -41 -16 -5 -50 l30
-29 68 22 c85 27 130 29 128 5 -1 -24 57 -30 89 -9 15 10 26 12 30 6 10 -16
40 -12 57 8 17 19 23 98 8 107 -6 3 -13 -1 -16 -9 -3 -9 -10 -13 -15 -10 -6 3
-7 -5 -3 -20 4 -16 2 -26 -4 -26 -19 0 -25 21 -13 44 8 14 9 30 3 46 -6 16 -4
39 5 69 17 53 11 132 -12 167 -8 13 -15 30 -15 38 0 21 -18 30 -34 17 -15 -12
-59 -1 -71 18 -10 16 -25 13 -32 -6z m38 -9 c12 -14 11 -16 -5 -13 -11 2 -21
10 -24 17 -5 17 13 15 29 -4z m-74 -26 c26 -24 30 -48 9 -48 -16 0 -46 37 -46
57 0 19 10 16 37 -9z m161 -19 c1 -45 -7 -49 -10 -6 -1 15 -6 27 -11 27 -4 0
-5 5 -2 10 13 21 23 8 23 -31z m-36 14 c8 -10 19 -31 22 -48 l8 -30 12 24 13
23 8 -33 c13 -52 11 -72 -5 -76 -13 -4 -13 -3 0 6 13 9 13 11 -2 11 -9 0 -18
-8 -20 -17 -3 -15 -5 -14 -10 5 -3 12 -3 20 1 17 5 -2 17 2 27 10 17 13 17 14
1 9 -10 -4 -25 0 -36 10 -10 9 -20 14 -23 11 -3 -3 -3 6 -1 20 3 14 -2 36 -11
50 -19 28 -7 34 16 8z m-77 -3 c4 -6 15 -8 24 -5 28 9 46 -20 32 -51 -12 -28
-7 -44 15 -44 8 0 14 -4 14 -10 0 -5 -2 -10 -4 -10 -2 0 -12 -3 -21 -6 -12 -5
-16 -2 -13 12 2 11 -2 18 -8 17 -7 -1 -20 7 -29 17 -10 11 -25 20 -33 20 -12
0 -12 3 -1 16 10 12 10 20 1 35 -10 15 -9 19 2 19 8 0 18 -5 21 -10z m-75 -42
c0 -5 -9 -8 -19 -8 -11 0 -22 -4 -25 -9 -4 -5 5 -6 21 -2 36 10 87 -6 114 -35
28 -30 15 -53 -15 -26 -28 26 -95 45 -112 31 -6 -5 -10 -19 -7 -29 3 -13 0
-20 -8 -21 -8 0 -5 -4 6 -9 13 -6 15 -9 5 -9 -30 -1 -42 15 -35 48 4 19 11 29
18 24 6 -4 8 0 4 10 -8 22 33 74 44 55 5 -7 9 -16 9 -20z m-104 -43 c12 -19
15 -37 10 -74 -5 -37 -3 -51 9 -61 8 -7 15 -27 15 -45 0 -21 9 -45 25 -63 24
-29 24 -30 5 -47 -23 -21 -85 -15 -109 11 -15 15 -14 16 8 11 31 -8 51 8 51
39 0 13 -11 67 -25 120 -27 104 -30 134 -15 134 5 0 17 -11 26 -25z m106 -22
c18 -16 25 -43 11 -43 -12 0 -43 33 -43 47 0 17 10 17 32 -4z m71 -21 c25 -22
21 -35 -8 -28 -14 4 -26 2 -26 -4 -1 -5 -2 -16 -3 -22 -1 -17 -35 -23 -49 -9
-8 8 -7 11 5 11 9 0 24 7 33 16 15 15 15 18 0 41 -16 24 -16 25 7 18 12 -4 31
-14 41 -23z m57 -21 c0 -6 -4 -13 -10 -16 -5 -3 -10 1 -10 9 0 9 5 16 10 16 6
0 10 -4 10 -9z m20 4 c0 -3 -2 -5 -5 -5 -3 0 -5 2 -5 5 0 3 2 5 5 5 3 0 5 -2
5 -5z m-183 -41 c3 -8 1 -20 -6 -27 -8 -8 -11 -5 -12 14 0 22 -1 22 -9 4 -6
-15 -9 -16 -9 -4 -2 30 25 40 36 13z m138 -8 c0 -28 -25 -32 -26 -4 -1 23 -1
23 -8 -2 -5 -18 -9 -21 -15 -12 -13 21 2 44 26 40 15 -2 23 -10 23 -22z m-247
-28 c13 -16 13 -18 -1 -24 -23 -8 -37 3 -37 30 0 27 13 43 19 24 2 -7 10 -21
19 -30z m339 -24 c13 -21 14 -30 4 -45 -6 -11 -9 -24 -6 -29 9 -14 -19 -12
-33 2 -9 9 -9 15 0 25 8 10 8 17 0 25 -8 8 -14 4 -23 -16 -11 -23 -10 -29 9
-49 29 -30 28 -45 -4 -53 -18 -5 -32 0 -49 16 l-24 23 20 29 c14 18 19 37 15
52 -4 17 0 26 17 34 36 17 55 14 74 -14z m-199 -17 c2 -11 -3 -17 -17 -17 -23
0 -35 15 -26 31 10 15 39 6 43 -14z m72 4 c0 -17 -18 -31 -41 -31 -10 0 -12
33 -2 43 14 15 43 7 43 -12z m-213 -28 c15 -32 11 -38 -16 -23 -21 11 -27 30
-14 43 11 12 18 8 30 -20z m10 0 c-4 -3 -7 0 -7 7 0 7 3 10 7 7 3 -4 3 -10 0
-14z m127 -30 c4 -9 4 -18 1 -21 -7 -8 -45 29 -39 39 7 12 31 0 38 -18z m76 8
c0 -14 -28 -33 -40 -26 -20 12 -10 35 15 35 14 0 25 -4 25 -9z"/>
<path d="M390 400 c0 -7 3 -10 7 -7 3 4 3 10 0 14 -4 3 -7 0 -7 -7z"/>
<path d="M424 378 c-4 -7 -3 -8 4 -4 7 4 12 9 12 12 0 8 -9 4 -16 -8z"/>
<path d="M341 433 c7 -12 15 -20 18 -17 3 2 -3 12 -13 22 -17 16 -18 16 -5 -5z"/>
<path d="M301 427 c2 -1 15 -11 29 -22 l25 -20 -19 23 c-11 12 -24 22 -29 22
-6 0 -8 -1 -6 -3z"/>
<path d="M360 345 c0 -3 2 -5 5 -5 3 0 5 2 5 5 0 3 -2 5 -5 5 -3 0 -5 -2 -5
-5z"/>
</g>
</svg>
