<?xml version="1.0" standalone="no"?>
<!DOCTYPE svg PUBLIC "-//W3C//DTD SVG 20010904//EN"
 "http://www.w3.org/TR/2001/REC-SVG-20010904/DTD/svg10.dtd">
<svg version="1.0" xmlns="http://www.w3.org/2000/svg"
 width="56.000000pt" height="56.000000pt" viewBox="0 0 56.000000 56.000000"
 preserveAspectRatio="xMidYMid meet">
<metadata>
Created by potrace 1.16, written by Peter Selinger 2001-2019
</metadata>
<g transform="translate(0.000000,56.000000) scale(0.100000,-0.100000)"
fill="#000000" stroke="none">
<path d="M241 425 c-47 -22 -111 -85 -111 -109 0 -8 -9 -16 -19 -19 -30 -8
-38 -68 -14 -109 21 -36 62 -55 48 -22 -5 11 -9 36 -10 57 l-2 38 24 -30 c14
-17 34 -36 46 -42 16 -7 14 -4 -5 11 -32 24 -36 60 -12 85 9 8 14 22 11 29 -6
16 35 57 79 79 29 15 36 15 88 0 33 -9 56 -21 56 -29 0 -8 5 -14 10 -14 6 0
10 -14 10 -31 0 -40 20 -28 21 14 2 27 2 28 6 7 6 -32 -12 -91 -39 -125 -27
-34 -92 -65 -138 -65 -45 0 -113 31 -134 61 -9 13 -16 19 -16 13 0 -33 94 -84
157 -85 37 0 38 0 16 -16 -51 -35 -7 -46 55 -14 46 24 76 56 69 74 -3 8 5 36
19 63 36 72 31 122 -19 176 -23 25 -32 28 -87 26 -39 -1 -79 -10 -109 -23z
m-61 -120 c0 -3 -2 -5 -5 -5 -3 0 -5 2 -5 5 0 3 2 5 5 5 3 0 5 -2 5 -5z m-60
-61 c0 -25 5 -54 10 -65 7 -13 7 -19 1 -19 -20 0 -43 61 -36 96 9 49 25 42 25
-12z m310 -67 c0 -17 -25 -39 -67 -61 -63 -32 -67 -16 -7 29 64 48 74 52 74
32z"/>
<path d="M281 246 c-17 -20 13 -43 34 -26 12 10 13 16 4 26 -6 8 -15 14 -19
14 -4 0 -13 -6 -19 -14z m19 -11 c0 -3 -2 -5 -5 -5 -3 0 -5 2 -5 5 0 3 2 5 5
5 3 0 5 -2 5 -5z"/>
</g>
</svg>
