<?xml version="1.0" standalone="no"?>
<!DOCTYPE svg PUBLIC "-//W3C//DTD SVG 20010904//EN"
 "http://www.w3.org/TR/2001/REC-SVG-20010904/DTD/svg10.dtd">
<svg version="1.0" xmlns="http://www.w3.org/2000/svg"
 width="56.000000pt" height="56.000000pt" viewBox="0 0 56.000000 56.000000"
 preserveAspectRatio="xMidYMid meet">
<metadata>
Created by potrace 1.16, written by Peter Selinger 2001-2019
</metadata>
<g transform="translate(0.000000,56.000000) scale(0.100000,-0.100000)"
fill="#000000" stroke="none">
<path d="M100 493 c0 -14 2 -15 9 -5 6 11 17 9 53 -9 41 -19 46 -26 51 -62 7
-50 -4 -84 -14 -47 -6 21 -7 22 -8 4 -1 -11 13 -33 30 -48 40 -36 32 -43 -19
-17 -48 25 -51 29 -73 106 -10 33 -18 53 -18 44 -2 -27 27 -110 44 -129 13
-14 14 -22 4 -43 -7 -15 -16 -24 -20 -21 -12 7 -11 -13 1 -36 8 -15 18 -18 43
-14 l32 5 -38 -21 c-26 -15 -37 -26 -33 -36 3 -9 6 -18 6 -20 0 -3 5 -2 11 2
8 5 8 1 0 -14 -9 -17 -6 -21 20 -32 16 -7 28 -15 25 -17 -2 -3 -13 0 -24 6
-22 12 -74 1 -80 -17 -6 -18 41 -25 88 -12 38 10 41 13 27 28 -8 9 -17 29 -21
43 -5 22 -2 28 16 32 31 9 54 -8 63 -45 l7 -33 11 28 c6 15 17 27 25 27 12 0
12 3 2 15 -18 22 -5 30 26 16 26 -11 26 -12 9 -31 -21 -23 -22 -21 32 -49 36
-18 46 -19 63 -9 11 7 20 16 20 21 0 7 -8 11 -48 23 -11 3 -10 8 3 20 9 10 14
25 12 35 -3 10 1 20 9 23 21 8 74 122 74 160 0 44 -33 87 -52 68 -11 -11 -10
-12 4 -7 29 11 50 -61 32 -110 -6 -13 -9 -14 -16 -3 -6 9 -7 5 -3 -11 5 -17 4
-22 -5 -16 -8 5 -11 4 -6 -3 10 -17 -16 -62 -45 -78 -33 -16 -43 -18 -34 -5 3
6 -3 14 -12 20 -17 10 -17 10 2 11 18 1 19 1 3 11 -27 15 -21 34 17 52 23 11
33 21 29 31 -3 8 2 28 10 45 18 35 20 45 6 36 -7 -4 -7 3 0 20 13 34 13 85 0
85 -6 0 -29 -9 -51 -21 -35 -17 -46 -19 -69 -9 -15 6 -43 10 -61 7 l-34 -4 36
-1 c58 -3 64 -19 42 -109 -14 -56 -24 -79 -36 -81 -24 -5 -49 59 -51 129 -1
38 -5 55 -13 52 -6 -2 -29 5 -52 16 -49 26 -61 26 -61 4z m334 -58 c-8 -33
-19 -68 -25 -79 -8 -14 -7 -21 3 -28 10 -7 8 -8 -5 -4 -10 3 -31 -1 -47 -9
-43 -22 -52 -18 -25 10 14 13 24 34 24 47 -2 22 -2 23 -6 1 -5 -24 -33 -53
-33 -34 0 6 5 11 11 11 6 0 9 6 6 14 -11 27 31 95 71 115 20 10 38 18 39 17 1
-1 -4 -29 -13 -61z m-204 -95 c0 -5 -2 -10 -4 -10 -3 0 -8 5 -11 10 -3 6 -1
10 4 10 6 0 11 -4 11 -10z m130 -45 c0 -3 -2 -5 -5 -5 -3 0 -5 2 -5 5 0 3 2 5
5 5 3 0 5 -2 5 -5z m-104 -15 c8 0 14 -5 14 -11 0 -15 -53 -6 -58 10 -3 10 0
12 12 8 10 -4 24 -7 32 -7z m79 -10 c-3 -5 -16 -10 -27 -10 -11 0 -26 -7 -33
-17 -8 -11 -18 -14 -31 -8 -15 6 -16 8 -4 12 8 2 24 8 35 13 49 21 69 24 60
10z m-144 -33 c-10 -9 -11 -8 -5 6 3 10 9 15 12 12 3 -3 0 -11 -7 -18z m-31
-2 c0 -8 -2 -15 -4 -15 -2 0 -6 7 -10 15 -3 8 -1 15 4 15 6 0 10 -7 10 -15z
m175 5 c-3 -5 -15 -10 -26 -10 -10 0 -19 -4 -19 -9 0 -5 -3 -17 -7 -27 -4 -12
-3 -15 5 -10 7 4 12 5 12 2 0 -17 -22 -13 -29 6 -6 17 -4 28 8 40 17 18 67 25
56 8z m14 -35 c3 -12 -13 -9 -17 4 -2 7 0 11 6 7 5 -3 10 -8 11 -11z m-39 0
c0 -3 -2 -5 -5 -5 -3 0 -5 2 -5 5 0 3 2 5 5 5 3 0 5 -2 5 -5z m-109 -20 c-18
-8 -38 -15 -45 -15 -19 1 38 29 59 29 14 0 10 -4 -14 -14z m59 -10 c0 -3 -2
-5 -5 -5 -3 0 -5 2 -5 5 0 3 2 5 5 5 3 0 5 -2 5 -5z m130 -50 c0 -3 -2 -5 -5
-5 -3 0 -5 2 -5 5 0 3 2 5 5 5 3 0 5 -2 5 -5z m55 -31 c-9 -9 -19 -13 -23 -10
-3 4 0 11 8 16 24 15 33 11 15 -6z m-285 -26 c0 -11 -22 -10 -39 1 -10 7 -7 9
12 8 15 -1 27 -5 27 -9z"/>
<path d="M492 360 c0 -19 2 -27 5 -17 2 9 2 25 0 35 -3 9 -5 1 -5 -18z"/>
<path d="M452 352 c-7 -12 -10 -27 -7 -32 3 -5 -3 -32 -14 -59 -10 -28 -16
-49 -11 -46 12 8 52 125 48 143 -3 14 -6 14 -16 -6z m5 -29 c-4 -3 -7 0 -7 7
0 7 3 10 7 7 3 -4 3 -10 0 -14z"/>
<path d="M72 338 c-7 -7 -12 -17 -12 -22 0 -6 5 -3 11 7 13 22 21 22 36 -2 9
-15 10 -28 2 -50 -8 -23 -7 -43 5 -85 9 -30 20 -57 24 -60 5 -3 1 18 -9 47
-23 67 -23 84 0 99 18 11 18 13 -7 45 -30 37 -33 38 -50 21z"/>
<path d="M90 294 c0 -8 5 -12 10 -9 6 4 8 11 5 16 -9 14 -15 11 -15 -7z"/>
<path d="M53 265 c0 -22 2 -30 4 -17 2 12 2 30 0 40 -3 9 -5 -1 -4 -23z"/>
<path d="M80 260 c0 -7 3 -10 7 -7 3 4 3 10 0 14 -4 3 -7 0 -7 -7z"/>
<path d="M60 212 c0 -23 39 -91 59 -102 33 -17 35 -11 6 12 -15 12 -36 40 -46
62 -10 23 -19 35 -19 28z"/>
</g>
</svg>
