<?xml version="1.0" standalone="no"?>
<!DOCTYPE svg PUBLIC "-//W3C//DTD SVG 20010904//EN"
 "http://www.w3.org/TR/2001/REC-SVG-20010904/DTD/svg10.dtd">
<svg version="1.0" xmlns="http://www.w3.org/2000/svg"
 width="56.000000pt" height="56.000000pt" viewBox="0 0 56.000000 56.000000"
 preserveAspectRatio="xMidYMid meet">
<metadata>
Created by potrace 1.16, written by Peter Selinger 2001-2019
</metadata>
<g transform="translate(0.000000,56.000000) scale(0.100000,-0.100000)"
fill="#000000" stroke="none">
<path d="M76 477 c-9 -12 -22 -42 -31 -67 -8 -24 -22 -51 -31 -61 -8 -9 -12
-24 -8 -33 7 -19 20 -21 30 -4 5 7 3 8 -7 3 -11 -7 -11 -5 1 10 14 17 13 18
-5 11 -16 -6 -18 -5 -7 5 9 10 15 10 24 1 7 -7 8 -12 4 -12 -5 0 -3 -7 4 -15
9 -11 16 -12 25 -5 9 7 16 6 25 -5 20 -24 -8 -76 -37 -69 -31 8 -60 -47 -43
-84 8 -19 14 -22 22 -14 16 16 35 15 35 -2 0 -8 -5 -14 -11 -13 -6 1 -10 -4
-8 -11 1 -8 -2 -11 -7 -8 -5 4 -12 2 -16 -4 -4 -6 -10 -8 -15 -5 -15 9 -21
-12 -11 -39 12 -30 64 -59 92 -51 10 4 28 23 38 42 10 20 36 48 57 62 25 18
41 37 44 55 5 28 5 28 23 8 11 -12 17 -31 15 -49 -2 -22 -8 -28 -28 -28 -28 0
-50 -11 -50 -26 0 -5 5 -9 11 -9 5 0 8 4 4 9 -3 5 -1 13 5 16 6 4 9 1 8 -7 -2
-7 2 -12 9 -11 13 3 12 -22 -2 -34 -4 -4 -5 -2 0 6 6 10 4 12 -5 6 -9 -6 -11
-4 -5 6 7 12 5 12 -6 1 -23 -21 10 -35 38 -17 20 14 30 13 97 -10 86 -29 135
-31 177 -9 l31 15 -46 49 c-47 50 -56 76 -34 98 9 9 7 12 -10 12 -15 0 -26 9
-32 25 -11 28 -20 31 -39 13 -11 -11 -12 -8 -5 12 5 14 8 40 8 57 0 23 5 34
17 38 20 7 79 70 79 85 0 19 -55 45 -96 45 -33 0 -41 -3 -36 -15 4 -11 0 -10
-16 4 -30 26 -28 30 13 23 19 -3 35 -2 35 4 0 5 -21 9 -47 9 l-47 0 29 -30
c20 -21 32 -27 40 -20 13 11 75 -6 75 -20 0 -15 -62 -31 -75 -20 -9 7 -16 6
-24 -4 -21 -25 -135 -36 -173 -15 -10 5 -32 34 -49 64 -17 30 -33 55 -35 55
-2 0 -10 -10 -18 -23z m88 -94 l37 -30 -26 -17 c-20 -13 -30 -15 -40 -6 -8 6
-23 9 -35 5 -26 -8 -25 2 2 34 19 21 17 20 -9 -3 -18 -16 -36 -26 -40 -22 -11
11 -12 35 -2 42 5 3 9 11 9 18 0 8 7 31 16 51 l16 38 18 -40 c9 -21 34 -53 54
-70z m290 5 c-11 -11 -31 -26 -45 -34 -21 -10 -25 -19 -22 -39 7 -32 -20 -73
-53 -81 -25 -6 -24 -8 22 -30 27 -13 57 -24 66 -24 11 0 27 -19 43 -53 14 -30
25 -56 25 -59 0 -12 -63 -28 -87 -22 -24 6 -24 7 -6 28 39 43 47 61 18 34 -32
-28 -75 -48 -103 -48 -11 1 -8 6 11 16 36 19 35 25 -3 11 -37 -14 -49 -3 -25
24 21 22 21 20 -29 83 l-29 37 28 29 c41 43 23 55 -45 30 -30 -10 -48 -19 -39
-20 9 0 33 7 54 16 49 20 53 13 10 -20 -34 -26 -45 -58 -25 -71 19 -12 10 -33
-35 -76 -24 -23 -49 -55 -56 -71 -6 -15 -19 -30 -30 -33 -18 -6 -85 22 -76 32
3 3 16 -2 29 -11 25 -18 42 -21 33 -7 -3 5 0 13 6 17 8 5 9 3 4 -6 -6 -9 -4
-11 4 -6 7 5 10 14 7 22 -3 8 0 13 7 11 7 -1 11 6 11 15 -1 10 2 15 7 12 9 -5
13 11 9 31 -1 6 2 7 5 3 8 -8 45 33 45 49 0 4 -4 2 -9 -6 -8 -12 -14 -12 -41
-1 -25 10 -39 10 -71 1 -23 -7 -43 -10 -46 -7 -3 3 0 19 7 36 11 26 17 30 37
25 19 -4 25 0 33 20 5 14 14 25 20 25 7 0 8 6 0 19 -13 25 -13 41 0 41 6 0 15
-11 20 -25 5 -14 11 -25 13 -25 2 0 19 14 37 31 25 25 34 28 41 18 6 -10 9 -8
9 8 0 14 6 22 18 22 49 2 74 9 93 27 22 19 22 19 17 -3 -7 -25 15 -33 29 -10
4 7 20 18 36 24 15 7 27 18 28 25 0 10 2 10 6 0 3 -7 -3 -22 -13 -34z m-387
-75 c-4 -3 -7 0 -7 7 0 7 3 10 7 7 3 -4 3 -10 0 -14z m33 -168 c0 -3 -2 -5 -5
-5 -3 0 -5 2 -5 5 0 3 2 5 5 5 3 0 5 -2 5 -5z m-67 -72 c-3 -7 -9 -10 -14 -7
-14 8 -11 21 5 21 8 0 12 -6 9 -14z m237 2 c0 -3 -2 -5 -5 -5 -3 0 -5 2 -5 5
0 3 2 5 5 5 3 0 5 -2 5 -5z"/>
<path d="M266 334 c-4 -11 -1 -14 11 -12 9 2 18 9 21 16 6 18 -25 15 -32 -4z"/>
<path d="M162 227 c-19 -19 -24 -20 -32 -7 -6 9 -10 10 -10 3 0 -15 32 -33 57
-32 10 0 13 3 6 6 -15 6 -17 33 -3 33 6 0 10 -5 10 -12 0 -6 3 -9 6 -5 3 3 2
13 -3 21 -8 14 -12 13 -31 -7z m-2 -22 c0 -3 -2 -5 -5 -5 -3 0 -5 2 -5 5 0 3
2 5 5 5 3 0 5 -2 5 -5z"/>
<path d="M70 200 c0 -5 4 -10 9 -10 6 0 13 5 16 10 3 6 -1 10 -9 10 -9 0 -16
-4 -16 -10z"/>
</g>
</svg>
