<?xml version="1.0" standalone="no"?>
<!DOCTYPE svg PUBLIC "-//W3C//DTD SVG 20010904//EN"
 "http://www.w3.org/TR/2001/REC-SVG-20010904/DTD/svg10.dtd">
<svg version="1.0" xmlns="http://www.w3.org/2000/svg"
 width="56.000000pt" height="56.000000pt" viewBox="0 0 56.000000 56.000000"
 preserveAspectRatio="xMidYMid meet">
<metadata>
Created by potrace 1.16, written by Peter Selinger 2001-2019
</metadata>
<g transform="translate(0.000000,56.000000) scale(0.100000,-0.100000)"
fill="#000000" stroke="none">
<path d="M271 505 c-17 -27 -29 -50 -27 -53 3 -2 20 1 39 7 59 20 119 -12 103
-54 -3 -9 0 -12 10 -8 56 21 99 -51 70 -120 -8 -20 -19 -37 -24 -37 -4 0 -18
18 -31 40 -28 51 -45 61 -20 13 33 -64 17 -158 -27 -169 -37 -9 -102 12 -109
36 -4 11 -15 20 -27 20 -17 0 -19 4 -14 33 17 92 18 108 7 121 -18 22 6 31 29
11 12 -11 20 -13 25 -5 3 5 10 8 15 5 5 -3 15 3 22 15 17 26 30 25 58 -5 24
-25 40 -25 40 2 0 10 -6 14 -20 10 -15 -4 -26 2 -37 19 -10 16 -19 22 -26 15
-10 -10 -85 38 -100 65 -6 11 -13 12 -28 4 -16 -9 -19 -7 -19 15 0 26 -14 33
-26 13 -5 -7 -10 -4 -16 11 -8 22 -9 22 -55 -18 -66 -59 -76 -76 -69 -119 8
-53 18 -198 17 -260 -1 -43 3 -57 23 -77 29 -29 54 -31 160 -10 102 19 161 46
180 82 10 20 27 33 55 42 41 12 41 11 56 85 2 11 0 25 -5 31 -7 8 0 30 20 66
16 30 30 59 30 65 0 7 -20 15 -44 18 -24 4 -50 14 -57 22 -7 8 -26 22 -43 31
-17 8 -48 31 -68 50 l-37 36 -30 -48z m-144 -11 c-3 -20 1 -27 18 -34 13 -5
29 -17 35 -27 10 -16 11 -16 6 -1 -3 11 2 22 14 28 24 13 25 8 4 -38 -33 -77
-40 -85 -73 -99 -43 -18 -76 -10 -98 23 -15 23 -15 30 -2 68 11 33 21 43 49
53 19 7 29 12 21 12 -11 1 -10 6 4 21 24 26 28 25 22 -6z m43 -14 c0 -13 -5
-18 -15 -14 -12 5 -13 10 -4 20 15 19 19 18 19 -6z m170 -85 c0 -3 -2 -5 -5
-5 -3 0 -5 2 -5 5 0 3 2 5 5 5 3 0 5 -2 5 -5z m-30 -12 c-1 -18 -18 -35 -24
-24 -4 6 -2 11 4 11 6 0 8 5 5 10 -3 6 -1 10 4 10 6 0 11 -3 11 -7z m-40 -33
c0 -5 -2 -10 -4 -10 -3 0 -8 5 -11 10 -3 6 -1 10 4 10 6 0 11 -4 11 -10z m130
5 c0 -3 -2 -5 -5 -5 -3 0 -5 2 -5 5 0 3 2 5 5 5 3 0 5 -2 5 -5z m87 -113 c-14
-3 -16 -7 -6 -18 7 -9 8 -14 1 -14 -15 0 -23 16 -16 33 3 10 12 13 22 9 15 -6
15 -7 -1 -10z m-37 -27 c0 -3 -2 -5 -5 -5 -3 0 -5 2 -5 5 0 3 2 5 5 5 3 0 5
-2 5 -5z m-250 -14 c0 -5 -3 -17 -6 -26 -6 -14 -8 -14 -26 2 -18 16 -18 18 -1
24 25 11 33 10 33 0z m-28 -38 c13 -12 21 -12 38 -3 12 6 24 9 27 6 8 -8 -23
-47 -32 -38 -4 4 -3 -3 4 -15 15 -29 6 -48 -34 -73 -63 -39 -135 -14 -135 46
0 38 16 62 58 83 38 19 44 19 74 -6z m98 -58 c0 -2 -9 -9 -19 -14 -14 -8 -20
-7 -25 4 -4 11 2 15 19 15 14 0 25 -2 25 -5z"/>
<path d="M66 414 c-20 -20 -20 -27 2 -47 24 -22 35 -21 57 3 17 19 17 21 0 40
-22 24 -38 25 -59 4z m54 -14 c0 -5 -4 -10 -10 -10 -5 0 -10 5 -10 10 0 6 5
10 10 10 6 0 10 -4 10 -10z"/>
<path d="M106 124 c-20 -19 -20 -29 0 -48 19 -20 29 -20 48 0 20 19 20 29 0
48 -19 20 -29 20 -48 0z m44 -14 c0 -5 -4 -10 -10 -10 -5 0 -10 5 -10 10 0 6
5 10 10 10 6 0 10 -4 10 -10z"/>
<path d="M311 447 c2 -2 18 -11 34 -21 l30 -17 -24 20 c-13 12 -28 21 -34 21
-6 0 -8 -1 -6 -3z"/>
<path d="M422 375 c4 -6 12 -22 17 -36 6 -15 10 -18 10 -8 1 9 -7 25 -16 36
-10 10 -15 14 -11 8z"/>
<path d="M330 355 c0 -3 2 -5 5 -5 3 0 5 2 5 5 0 3 -2 5 -5 5 -3 0 -5 -2 -5
-5z"/>
</g>
</svg>
