<?xml version="1.0" standalone="no"?>
<!DOCTYPE svg PUBLIC "-//W3C//DTD SVG 20010904//EN"
 "http://www.w3.org/TR/2001/REC-SVG-20010904/DTD/svg10.dtd">
<svg version="1.0" xmlns="http://www.w3.org/2000/svg"
 width="56.000000pt" height="56.000000pt" viewBox="0 0 56.000000 56.000000"
 preserveAspectRatio="xMidYMid meet">
<metadata>
Created by potrace 1.16, written by Peter Selinger 2001-2019
</metadata>
<g transform="translate(0.000000,56.000000) scale(0.100000,-0.100000)"
fill="#000000" stroke="none">
<path d="M0 544 c0 -8 5 -24 10 -35 7 -13 7 -19 0 -19 -13 0 -13 -37 0 -45 6
-4 5 -13 -3 -26 -10 -17 -9 -22 6 -34 12 -9 15 -15 7 -20 -8 -5 -7 -12 4 -24
9 -10 13 -21 9 -24 -3 -4 3 -17 14 -30 11 -12 23 -37 27 -56 l6 -34 -21 19
c-21 19 -21 19 -40 -5 -37 -46 -16 -114 41 -126 29 -6 29 -7 15 -35 -8 -16
-15 -34 -15 -41 0 -19 77 -2 118 26 46 31 60 31 149 -1 58 -21 81 -25 119 -19
53 8 99 45 110 89 16 63 -24 146 -83 172 -33 15 -35 18 -15 21 24 5 30 31 10
51 -9 9 -8 12 8 12 33 0 47 21 27 42 -14 15 -14 18 -1 18 8 0 23 9 32 19 16
18 16 20 -3 33 -21 15 -21 15 4 26 36 16 35 62 0 62 -34 0 -202 -85 -217 -110
-7 -11 -18 -20 -25 -20 -19 0 -16 14 7 28 55 34 -2 43 -74 12 -35 -16 -50 -18
-65 -10 -47 25 -58 11 -36 -42 4 -10 3 -18 -1 -18 -5 0 -26 36 -46 80 -28 62
-41 80 -57 80 -12 0 -21 -6 -21 -16z m77 -79 c22 -47 36 -88 31 -91 -4 -3 -15
10 -23 28 -8 18 -14 27 -15 19 0 -18 39 -81 51 -81 5 0 9 -5 9 -12 0 -6 -7 -4
-18 5 -27 24 -35 21 -17 -6 14 -22 14 -24 -11 -36 -22 -10 -26 -9 -21 3 4 10
1 13 -9 9 -17 -6 -19 13 -2 23 7 5 4 10 -11 16 -25 9 -18 32 8 24 12 -5 11 -2
-3 9 -11 8 -23 15 -28 15 -4 0 -8 7 -8 15 0 18 5 18 33 4 19 -10 18 -7 -5 18
-28 29 -36 53 -19 53 6 0 17 -10 25 -22 9 -12 16 -19 16 -15 0 5 -11 25 -25
45 -28 41 -32 62 -12 62 7 0 31 -38 54 -85z m473 67 c0 -13 -19 -27 -60 -47
-66 -32 -73 -40 -18 -23 45 14 76 5 58 -17 -7 -8 -22 -15 -34 -15 -11 -1 -34
-7 -51 -15 l-30 -14 32 6 c33 6 68 -11 57 -28 -3 -5 -24 -9 -47 -9 l-42 -1 28
-15 c51 -27 26 -60 -26 -33 l-22 12 23 -25 c12 -13 22 -30 22 -36 0 -17 -25
-15 -40 3 -7 8 -17 15 -23 15 -7 0 -7 -4 1 -12 15 -15 16 -48 0 -48 -6 0 -21
8 -32 17 -20 17 -20 17 -7 0 19 -24 5 -34 -22 -18 -18 11 -20 11 -9 0 16 -18
15 -29 -3 -29 -9 0 -18 7 -22 17 -6 14 -7 13 -14 -4 -6 -17 -18 -22 -59 -24
-58 -4 -70 4 -46 30 9 10 16 26 16 36 0 12 -8 6 -25 -19 -14 -20 -25 -42 -25
-48 0 -6 -9 -3 -20 7 -25 23 -25 45 -1 72 11 12 17 24 13 27 -3 4 2 4 12 0 12
-5 17 -4 13 3 -6 10 26 43 43 43 6 0 10 -9 10 -20 0 -10 8 -23 17 -29 15 -8
15 -12 4 -28 -8 -10 4 1 27 23 25 26 45 58 52 85 22 82 26 87 117 133 96 49
133 57 133 28z m-244 -61 c-7 -11 -98 -43 -104 -37 -2 3 11 14 29 25 34 21 85
29 75 12z m-137 -27 c18 -13 21 -22 16 -43 -7 -29 -21 -41 -50 -41 -15 0 -12
5 14 21 l34 20 -34 29 c-37 32 -21 42 20 14z m121 -25 c11 -8 5 -9 -25 -5 -27
4 -35 2 -25 -4 8 -5 13 -10 10 -11 -3 0 -13 -2 -23 -4 -9 -2 -15 1 -11 6 3 5
-1 9 -8 10 -19 1 24 17 47 18 11 0 27 -4 35 -10z m10 -24 c0 -11 -31 -79 -41
-91 -12 -15 -49 -6 -49 12 0 8 9 22 20 31 11 10 20 21 20 26 0 5 -7 1 -16 -7
-14 -14 -54 -23 -54 -12 0 21 15 31 45 30 19 -1 38 2 41 7 6 10 34 13 34 4z
m-213 -132 c-4 -3 -7 0 -7 7 0 7 3 10 7 7 3 -4 3 -10 0 -14z m378 -38 c16 -15
25 -36 25 -55 0 -31 -30 -70 -54 -70 -12 0 -124 54 -135 66 -9 9 40 45 69 50
16 4 30 13 30 20 0 22 39 16 65 -11z m69 -40 c9 -18 16 -41 15 -52 -1 -13 -3
-11 -8 7 -7 22 -8 21 -14 -17 -13 -77 -62 -90 -168 -46 -58 25 -76 28 -193 28
-114 1 -130 3 -142 20 -18 24 -18 56 1 81 14 18 16 17 54 -23 22 -24 46 -44
53 -44 7 -1 45 -2 83 -3 59 -1 83 -7 153 -40 71 -34 85 -38 107 -28 28 13 45
49 44 90 -1 31 -5 22 -14 -30 -5 -33 -10 -38 -41 -44 -28 -5 -50 0 -107 27
-60 28 -84 34 -144 34 -82 0 -97 7 -53 25 43 18 90 7 185 -40 88 -44 126 -46
145 -10 14 27 12 72 -5 96 -8 12 -11 24 -8 28 10 9 40 -21 57 -59z m-206 -117
c26 -12 72 -24 102 -28 l55 -6 -39 -8 c-30 -7 -54 -3 -116 18 -95 32 -106 32
-151 2 -33 -23 -109 -45 -109 -33 0 24 29 59 59 72 47 20 137 13 199 -17z"/>
<path d="M358 457 c-20 -16 -32 -39 -42 -85 -8 -35 -20 -70 -27 -78 -10 -13
-8 -13 16 -4 42 16 49 22 34 31 -11 6 -8 14 11 34 22 23 22 25 5 20 -14 -5
-11 2 13 24 18 17 29 31 24 31 -4 0 -13 -5 -20 -12 -23 -23 -25 2 -3 32 26 36
24 37 -11 7z"/>
</g>
</svg>
