<?xml version="1.0" standalone="no"?>
<!DOCTYPE svg PUBLIC "-//W3C//DTD SVG 20010904//EN"
 "http://www.w3.org/TR/2001/REC-SVG-20010904/DTD/svg10.dtd">
<svg version="1.0" xmlns="http://www.w3.org/2000/svg"
 width="56.000000pt" height="56.000000pt" viewBox="0 0 56.000000 56.000000"
 preserveAspectRatio="xMidYMid meet">
<metadata>
Created by potrace 1.16, written by Peter Selinger 2001-2019
</metadata>
<g transform="translate(0.000000,56.000000) scale(0.100000,-0.100000)"
fill="#000000" stroke="none">
<path d="M177 521 c-10 -23 -16 -28 -25 -19 -9 9 -13 7 -18 -6 -6 -16 -9 -15
-30 5 -39 37 -42 17 -9 -65 7 -16 5 -17 -15 -11 -19 6 -22 4 -17 -9 4 -10 1
-16 -8 -16 -22 0 -18 -11 17 -47 27 -28 29 -33 14 -39 -12 -4 -14 -10 -6 -19
7 -8 3 -15 -15 -23 l-25 -11 30 -45 c17 -24 30 -47 30 -50 0 -4 -19 3 -41 15
-65 33 -71 7 -6 -29 56 -32 71 -52 62 -83 -7 -22 12 -34 30 -19 19 16 37 3 30
-20 -8 -26 12 -35 24 -11 14 26 14 40 0 21 -9 -13 -10 -13 -5 0 41 122 40 119
24 137 -10 11 -13 25 -9 37 6 16 9 14 20 -15 7 -19 17 -42 22 -52 6 -10 7 -28
4 -40 -5 -20 -5 -20 5 -4 9 13 9 27 1 49 -15 41 -13 48 3 18 14 -24 14 -24 24
20 6 27 10 35 11 21 1 -13 -4 -42 -11 -64 -10 -32 -10 -41 0 -45 7 -2 12 -11
12 -20 0 -12 3 -13 12 -4 9 9 9 15 0 24 -7 7 -12 17 -12 22 1 13 40 -32 40
-46 0 -5 -4 -6 -10 -3 -6 4 -7 -1 -4 -12 5 -15 4 -16 -6 -3 -9 12 -10 10 -5
-10 5 -19 4 -22 -4 -10 -14 20 -14 4 0 -21 13 -25 32 -14 23 14 -6 20 -5 20
10 8 9 -8 19 -11 22 -8 7 7 -31 80 -50 96 -14 12 -14 54 1 70 2 3 29 -20 60
-50 54 -52 55 -53 50 -24 -3 17 -9 38 -13 49 -6 16 -4 17 14 7 33 -17 48 -14
29 7 -20 21 -6 42 28 42 11 0 27 5 35 10 12 7 8 11 -19 16 l-34 7 34 19 34 19
-40 -5 -40 -4 39 17 c32 14 36 19 22 24 -10 4 -32 7 -49 7 l-32 1 45 25 45 25
-44 -5 -44 -4 49 49 c26 26 45 52 41 55 -4 4 -42 -9 -84 -29 -43 -19 -93 -38
-111 -42 l-34 -7 17 34 c10 18 24 41 33 51 8 9 12 20 8 24 -3 4 -35 -21 -69
-55 -35 -35 -66 -59 -70 -56 -4 4 -7 36 -7 70 0 71 -14 90 -33 45z m23 -33 c0
-49 -1 -51 -15 -31 -12 16 -12 27 -4 52 6 17 13 31 15 31 2 0 4 -24 4 -52z
m-48 -43 c11 -15 10 -19 -12 -33 -18 -11 -21 -9 -34 21 -7 19 -17 45 -21 58
-7 23 -6 23 26 -6 19 -16 37 -34 41 -40z m186 48 c-14 -17 -58 -91 -58 -98 0
-9 121 30 172 56 31 16 61 29 65 29 4 0 -26 -34 -67 -75 l-74 -75 69 -1 70 -1
-79 -27 -79 -27 79 -16 79 -15 -67 -8 -66 -7 14 -34 c25 -60 15 -59 -52 6 -37
36 -64 60 -61 55 3 -6 2 -26 -2 -45 l-8 -35 -11 27 c-6 14 -17 29 -24 33 -10
6 -11 5 0 -6 6 -7 12 -20 12 -29 -1 -9 -7 -4 -15 12 -12 22 -13 32 -3 53 7 15
17 24 25 20 7 -3 20 -8 28 -11 8 -3 15 -1 15 5 0 6 -3 10 -7 9 -5 -1 -21 2
-36 7 -26 7 -27 9 -12 24 8 10 15 23 15 30 0 13 39 30 85 37 27 5 26 3 -13
-18 l-42 -24 31 -18 c38 -22 31 -32 -12 -17 -42 14 -56 14 -42 0 7 -7 33 -13
60 -15 l48 -4 -33 29 -33 28 30 13 c17 7 36 18 42 26 9 11 7 14 -13 14 -65 0
-181 -61 -159 -83 6 -6 -8 -34 -37 -73 -25 -35 -47 -62 -50 -60 -2 3 14 38 36
80 l39 75 -29 27 c-32 31 -34 39 -13 48 8 3 14 2 13 -2 -1 -4 5 -20 15 -37 26
-48 20 -20 -13 52 -17 36 -28 68 -26 70 6 7 71 -101 68 -114 -1 -6 28 20 64
58 62 63 98 93 62 52z m-212 -124 c6 -5 15 -5 19 -1 5 4 5 2 1 -5 -3 -6 -2
-14 3 -17 7 -5 8 -37 2 -79 -2 -17 -53 -28 -69 -15 -11 10 -11 5 3 -17 26 -41
27 -43 23 -21 -1 10 3 21 11 24 8 3 11 0 7 -7 -4 -6 -9 -30 -11 -54 -3 -28 -1
-37 5 -27 8 12 10 12 10 1 0 -11 5 -10 20 4 11 10 23 16 26 13 3 -3 -6 -15
-20 -25 -20 -16 -24 -25 -18 -47 l7 -27 35 38 c34 37 35 38 3 9 -31 -28 -33
-28 -33 -9 0 23 15 38 47 45 17 5 21 2 17 -15 -2 -11 -13 -30 -24 -42 -16 -17
-17 -24 -7 -35 10 -12 9 -12 -4 -2 -18 14 -39 13 -52 -3 -5 -5 -6 0 -2 12 9
33 -10 60 -68 93 -59 34 -57 41 3 10 50 -25 58 -12 25 40 -14 22 -23 45 -20
50 3 5 21 14 41 20 l36 12 -48 50 -49 50 35 -7 c19 -4 40 -11 46 -16z m114
-39 c0 -5 -2 -10 -4 -10 -3 0 -8 5 -11 10 -3 6 -1 10 4 10 6 0 11 -4 11 -10z
m-44 -121 c-8 -19 -15 -29 -15 -22 -1 18 19 67 25 61 3 -3 -2 -21 -10 -39z
m-31 -18 c-8 -17 -20 -31 -25 -31 -15 0 -12 9 11 42 27 37 36 30 14 -11z m189
-137 c3 -8 2 -12 -4 -9 -6 3 -10 10 -10 16 0 14 7 11 14 -7z m-167 -41 c-4 -3
-7 0 -7 7 0 7 3 10 7 7 3 -4 3 -10 0 -14z m140 0 c-4 -3 -7 0 -7 7 0 7 3 10 7
7 3 -4 3 -10 0 -14z"/>
<path d="M223 89 c-15 -38 -2 -79 23 -75 10 2 21 11 25 22 7 18 8 18 9 -1 1
-18 2 -18 11 3 6 15 5 30 -2 43 -10 19 -11 19 -30 -3 -12 -13 -19 -16 -16 -8
2 8 1 23 -2 33 -5 14 -9 12 -18 -14z m14 -61 c-3 -8 -6 -5 -6 6 -1 11 2 17 5
13 3 -3 4 -12 1 -19z m20 0 c-3 -8 -6 -5 -6 6 -1 11 2 17 5 13 3 -3 4 -12 1
-19z"/>
</g>
</svg>
