<?xml version="1.0" standalone="no"?>
<!DOCTYPE svg PUBLIC "-//W3C//DTD SVG 20010904//EN"
 "http://www.w3.org/TR/2001/REC-SVG-20010904/DTD/svg10.dtd">
<svg version="1.0" xmlns="http://www.w3.org/2000/svg"
 width="56.000000pt" height="56.000000pt" viewBox="0 0 56.000000 56.000000"
 preserveAspectRatio="xMidYMid meet">
<metadata>
Created by potrace 1.16, written by Peter Selinger 2001-2019
</metadata>
<g transform="translate(0.000000,56.000000) scale(0.100000,-0.100000)"
fill="#000000" stroke="none">
<path d="M155 550 c-4 -6 -10 -8 -15 -5 -5 3 -14 -4 -20 -15 -9 -17 -8 -27 5
-46 9 -14 24 -27 33 -30 34 -11 47 -21 59 -52 17 -42 2 -48 -33 -12 -16 16
-36 30 -45 30 -9 0 -28 11 -43 25 -15 14 -31 25 -36 25 -4 0 -19 -16 -31 -36
-29 -47 -32 -129 -7 -203 22 -66 22 -67 1 -50 -13 11 -15 11 -9 1 4 -7 26 -27
48 -43 39 -27 38 -32 -4 -32 -10 0 -18 -4 -18 -9 0 -5 -6 -6 -12 -2 -10 5 -10
4 -1 -6 7 -7 17 -9 25 -4 7 5 18 9 23 10 6 1 17 3 25 5 9 3 14 -2 12 -11 -3
-12 -1 -12 15 1 34 30 47 34 40 13 -7 -18 -7 -18 8 0 8 11 15 25 15 31 0 19
39 50 49 39 15 -16 23 -54 12 -54 -6 0 -11 -5 -11 -11 0 -5 6 -7 13 -3 6 4 4
-2 -6 -14 -11 -11 -16 -26 -12 -32 5 -8 15 -3 31 16 23 28 24 29 39 10 23 -30
17 -44 -6 -16 -20 23 -20 23 -8 2 15 -24 35 -27 32 -4 0 8 5 11 13 8 22 -8 25
10 4 29 -10 9 -24 14 -30 10 -11 -7 -29 10 -30 26 0 4 16 9 35 11 39 5 57 -8
75 -57 11 -28 12 -29 25 -12 12 16 17 14 68 -33 30 -27 58 -50 61 -50 14 0 4
24 -29 67 -19 25 -35 41 -35 36 0 -6 7 -16 15 -23 8 -7 15 -17 15 -23 0 -6 -9
-2 -21 10 -25 25 -19 55 19 90 28 26 39 76 32 138 -2 11 -1 27 1 35 2 8 -3 14
-11 15 -9 0 -14 9 -13 20 4 35 -5 49 -22 35 -13 -10 -19 -9 -35 5 -11 10 -17
21 -15 25 3 4 -8 13 -24 20 -33 13 -83 6 -120 -17 -19 -12 -21 -17 -10 -24 10
-7 8 -8 -9 -6 -39 6 -48 23 -29 56 9 16 17 37 18 48 0 16 1 16 9 -2 5 -11 9
-15 9 -9 1 6 14 17 29 23 25 10 34 9 66 -10 24 -14 47 -20 67 -17 40 6 49 -15
20 -46 l-22 -23 22 -6 c28 -8 43 1 30 17 -7 8 -4 16 10 24 33 21 21 63 -23 87
-37 20 -38 20 -55 0 -13 -13 -13 -15 -2 -7 13 10 19 8 33 -6 32 -37 -28 -45
-83 -11 -29 17 -38 19 -63 8 -24 -10 -31 -9 -48 6 -12 11 -26 14 -39 10 -22
-7 -47 -43 -37 -53 3 -3 6 0 6 6 0 7 9 12 20 12 24 0 26 -13 5 -30 -13 -11
-21 -10 -43 7 -31 23 -37 59 -10 57 10 -1 15 2 12 7 -7 12 -21 11 -29 -1z m34
-77 l34 -23 13 26 c16 29 11 44 -14 45 -13 0 -11 3 6 11 14 7 26 8 31 2 10
-11 -4 -62 -24 -88 -14 -18 -16 -18 -33 -3 -10 9 -26 17 -35 17 -22 0 -49 43
-41 64 6 15 8 14 18 -6 6 -12 27 -33 45 -45z m-131 -123 c-9 -48 -9 -63 2 -73
10 -9 11 -9 6 1 -11 18 3 106 19 129 11 15 13 7 10 -57 -2 -56 -1 -66 5 -40 5
19 16 49 25 65 17 30 17 30 11 3 -3 -15 -2 -30 4 -33 6 -3 8 -18 5 -33 -5 -24
-4 -23 9 6 16 33 24 41 23 20 0 -7 1 -24 2 -38 l2 -25 14 25 c14 24 14 24 15
3 0 -12 10 -27 21 -34 17 -9 19 -13 8 -20 -8 -4 -14 -12 -13 -16 1 -4 -3 -21
-8 -36 -8 -22 -13 -25 -24 -16 -12 10 -13 9 -8 -5 8 -20 -12 -45 -43 -57 -19
-7 -33 -3 -63 17 -22 15 -38 30 -35 34 3 4 -2 27 -11 51 -16 45 -25 179 -11
179 4 0 7 6 7 13 0 7 5 18 12 25 21 21 28 -21 16 -88z m352 95 c0 -3 -2 -5 -5
-5 -3 0 -5 2 -5 5 0 3 2 5 5 5 3 0 5 -2 5 -5z m-51 -19 c9 -11 6 -14 -16 -14
-36 0 -49 8 -32 19 20 12 35 11 48 -5z m71 9 c0 -3 -2 -5 -5 -5 -3 0 -5 2 -5
5 0 3 2 5 5 5 3 0 5 -2 5 -5z m75 -94 c0 -48 0 -49 -20 -33 -11 9 -14 10 -7 2
6 -8 12 -21 12 -29 -1 -14 -2 -14 -13 -1 -7 8 -21 22 -32 30 -18 14 -19 14 -7
-1 10 -13 10 -19 -2 -29 -18 -14 -39 -2 -80 46 -30 36 -35 55 -8 31 10 -10 22
-14 27 -10 4 5 5 3 2 -3 -4 -6 1 -20 9 -30 9 -10 12 -13 9 -6 -4 7 -8 24 -10
38 l-2 25 25 -23 c14 -13 21 -16 16 -8 -21 36 1 51 29 20 9 -11 8 -11 -7 0
-18 14 -18 14 -5 -7 11 -19 15 -20 22 -8 4 8 5 21 1 28 -6 9 -4 9 8 -1 13 -10
17 -10 22 3 9 24 11 18 11 -34z m-177 -28 c28 -24 38 -61 19 -69 -12 -4 -13
-12 -6 -36 11 -39 5 -48 -30 -48 -35 0 -55 22 -49 55 3 14 -1 33 -8 42 -40 53
23 100 74 56z m150 -67 c7 -4 10 -12 7 -17 -4 -5 1 -12 10 -15 13 -5 14 -9 4
-15 -7 -4 -23 0 -36 8 -13 8 -32 13 -43 10 -24 -6 -27 8 -4 17 8 3 13 10 9 15
-6 11 35 9 53 -3z m-14 -52 c20 -19 20 -28 1 -44 -13 -10 -15 -9 -15 9 0 15
-6 21 -21 21 -12 0 -19 -5 -16 -12 2 -7 9 -12 14 -11 5 1 10 -9 11 -23 2 -31
-12 -31 -43 1 -31 30 -31 40 -3 59 29 20 52 20 72 0z m-125 -98 c10 -12 8 -13
-8 -9 -12 3 -18 9 -15 14 7 12 10 11 23 -5z m68 -13 c-4 -3 -7 0 -7 7 0 7 3
10 7 7 3 -4 3 -10 0 -14z m-154 -8 c-3 -9 -8 -14 -10 -11 -3 3 -2 9 2 15 9 16
15 13 8 -4z m272 -35 c3 -5 4 -10 1 -10 -3 0 -8 5 -11 10 -3 6 -4 10 -1 10 3
0 8 -4 11 -10z"/>
<path d="M323 423 c4 -3 10 -3 14 0 3 4 0 7 -7 7 -7 0 -10 -3 -7 -7z"/>
<path d="M59 506 c29 -31 35 -33 22 -7 -6 10 -18 22 -28 25 -13 5 -11 1 6 -18z"/>
<path d="M290 451 c-19 -16 -32 -32 -27 -37 4 -4 7 -2 7 4 0 6 17 23 37 37 21
14 33 25 27 25 -5 0 -25 -13 -44 -29z"/>
<path d="M520 445 c0 -3 2 -5 5 -5 3 0 5 2 5 5 0 3 -2 5 -5 5 -3 0 -5 -2 -5
-5z"/>
</g>
</svg>
