<?xml version="1.0" standalone="no"?>
<!DOCTYPE svg PUBLIC "-//W3C//DTD SVG 20010904//EN"
 "http://www.w3.org/TR/2001/REC-SVG-20010904/DTD/svg10.dtd">
<svg version="1.0" xmlns="http://www.w3.org/2000/svg"
 width="56.000000pt" height="56.000000pt" viewBox="0 0 56.000000 56.000000"
 preserveAspectRatio="xMidYMid meet">
<metadata>
Created by potrace 1.16, written by Peter Selinger 2001-2019
</metadata>
<g transform="translate(0.000000,56.000000) scale(0.100000,-0.100000)"
fill="#000000" stroke="none">
<path d="M213 434 c-29 -19 -53 -41 -53 -47 0 -7 -9 -18 -21 -25 -37 -24 -18
-59 49 -88 2 -1 -8 -19 -23 -39 -34 -52 -32 -80 10 -122 31 -31 40 -35 72 -30
19 4 44 14 55 24 16 14 22 15 39 5 30 -19 57 -6 79 38 25 49 25 62 0 91 -14
17 -18 19 -14 7 3 -10 3 -25 0 -34 -5 -13 -11 -10 -31 15 -31 36 -57 46 -85
31 -28 -15 -27 8 1 44 l21 27 23 -21 c30 -29 49 -17 42 25 -3 21 0 40 8 52 8
10 15 21 15 26 0 13 -45 7 -68 -9 -18 -13 -26 -13 -38 -3 -13 10 -12 15 6 34
45 48 -16 47 -87 -1z m82 6 c-18 -20 -41 -28 -31 -11 4 5 -4 7 -16 4 -22 -4
-23 -4 -4 11 11 9 31 16 44 16 24 0 25 -1 7 -20z m-75 -35 c0 -3 -2 -5 -5 -5
-3 0 -5 2 -5 5 0 3 2 5 5 5 3 0 5 -2 5 -5z m154 -20 c-8 -13 -13 -29 -10 -34
12 -19 -15 -22 -41 -5 l-27 17 28 23 c15 13 36 24 47 24 18 0 19 -1 3 -25z
m-94 -15 c0 -5 -4 -10 -10 -10 -5 0 -10 5 -10 10 0 6 5 10 10 10 6 0 10 -4 10
-10z m-102 -22 c14 -14 16 -45 2 -53 -15 -9 -50 14 -50 34 0 31 25 42 48 19z
m68 -134 c-13 -50 18 -69 62 -38 20 14 22 14 22 -4 0 -57 -86 -100 -135 -68
-54 35 -57 89 -8 146 l27 32 19 -23 c11 -14 16 -31 13 -45z m144 -76 c13 4 13
3 1 -11 -17 -21 -35 -22 -51 -2 -17 21 -2 40 18 22 10 -8 24 -12 32 -9z"/>
<path d="M330 350 c8 -5 20 -10 25 -10 6 0 3 5 -5 10 -8 5 -19 10 -25 10 -5 0
-3 -5 5 -10z"/>
</g>
</svg>
