<?xml version="1.0" standalone="no"?>
<!DOCTYPE svg PUBLIC "-//W3C//DTD SVG 20010904//EN"
 "http://www.w3.org/TR/2001/REC-SVG-20010904/DTD/svg10.dtd">
<svg version="1.0" xmlns="http://www.w3.org/2000/svg"
 width="56.000000pt" height="56.000000pt" viewBox="0 0 56.000000 56.000000"
 preserveAspectRatio="xMidYMid meet">
<metadata>
Created by potrace 1.16, written by Peter Selinger 2001-2019
</metadata>
<g transform="translate(0.000000,56.000000) scale(0.100000,-0.100000)"
fill="#000000" stroke="none">
<path d="M77 490 c-10 -27 -18 -84 -21 -142 -3 -66 15 -94 58 -86 18 4 26 0
29 -14 3 -11 14 -22 24 -25 10 -2 27 -23 38 -46 25 -52 72 -84 133 -92 26 -4
57 -11 70 -18 21 -10 27 -7 58 27 19 20 34 46 34 56 0 18 -2 17 -25 -4 -15
-14 -33 -22 -44 -19 -9 2 -23 -3 -30 -11 -12 -14 -17 -13 -51 4 -45 23 -60 49
-25 42 56 -10 146 45 171 105 28 67 10 151 -41 191 -50 40 -126 22 -183 -42
l-33 -37 5 55 c7 69 -7 80 -46 37 -33 -37 -59 -35 -95 8 -17 20 -23 23 -26 11z
m23 -30 c0 -10 -4 -21 -9 -25 -5 -3 -9 8 -9 24 1 32 18 33 18 1z m140 16 c0
-8 -10 -22 -22 -31 l-23 -17 23 7 c26 8 30 -9 5 -24 -10 -6 -12 -11 -5 -11 15
0 15 -10 2 -30 -9 -13 -12 -12 -25 4 -21 27 -19 59 6 90 23 29 39 34 39 12z
m209 -22 c52 -37 67 -137 28 -195 -27 -42 -98 -79 -150 -79 -21 0 -56 9 -77
20 -35 18 -38 23 -28 39 14 23 4 51 -21 58 -12 3 -17 11 -14 19 3 8 8 12 12
10 4 -3 13 9 20 25 7 17 15 28 18 26 2 -3 -3 -19 -11 -36 -16 -29 -15 -31 6
-45 13 -8 40 -22 61 -31 35 -14 41 -14 62 -1 26 17 41 64 26 79 -8 8 -25 4
-56 -11 -81 -39 -108 -26 -76 35 45 88 139 129 200 87z m-314 -22 c6 -4 16
-15 23 -24 12 -15 11 -20 -7 -39 -25 -27 -27 -47 -6 -56 14 -5 14 -8 -1 -24
-21 -23 -57 -25 -74 -4 -10 12 -10 21 0 45 9 22 10 33 1 44 -8 10 -6 19 10 40
21 26 36 32 54 18z m35 -71 c0 -5 -7 -12 -16 -15 -14 -5 -15 -4 -4 9 14 17 20
19 20 6z m210 -30 c0 -42 -35 -76 -65 -65 -13 5 -13 9 0 34 8 16 20 30 27 33
21 9 38 8 38 -2z m-210 -71 c0 -5 -4 -10 -10 -10 -5 0 -10 5 -10 10 0 6 5 10
10 10 6 0 10 -4 10 -10z m115 -130 c7 0 18 -7 25 -15 7 -8 9 -15 4 -15 -18 0
-88 45 -92 59 -3 10 5 7 23 -7 15 -12 33 -22 40 -22z m185 -5 c0 -3 -2 -5 -5
-5 -3 0 -5 2 -5 5 0 3 2 5 5 5 3 0 5 -2 5 -5z m-30 -15 c0 -5 -4 -10 -10 -10
-5 0 -10 5 -10 10 0 6 5 10 10 10 6 0 10 -4 10 -10z"/>
<path d="M84 399 c-10 -17 23 -46 37 -32 7 7 9 19 6 27 -7 18 -33 21 -43 5z
m36 -15 c0 -17 -22 -14 -28 4 -2 7 3 12 12 12 9 0 16 -7 16 -16z"/>
</g>
</svg>
