<?xml version="1.0" standalone="no"?>
<!DOCTYPE svg PUBLIC "-//W3C//DTD SVG 20010904//EN"
 "http://www.w3.org/TR/2001/REC-SVG-20010904/DTD/svg10.dtd">
<svg version="1.0" xmlns="http://www.w3.org/2000/svg"
 width="56.000000pt" height="56.000000pt" viewBox="0 0 56.000000 56.000000"
 preserveAspectRatio="xMidYMid meet">
<metadata>
Created by potrace 1.16, written by Peter Selinger 2001-2019
</metadata>
<g transform="translate(0.000000,56.000000) scale(0.100000,-0.100000)"
fill="#000000" stroke="none">
<path d="M24 525 c-4 -9 -2 -32 4 -49 6 -17 8 -43 5 -58 -4 -20 3 -40 26 -74
17 -26 31 -51 31 -55 0 -4 -18 -14 -40 -23 -66 -26 -48 -85 21 -66 51 15 51
14 44 -40 -6 -44 -4 -52 19 -75 16 -16 36 -25 55 -25 20 0 39 -9 54 -26 30
-32 61 -29 65 7 2 18 12 28 35 37 20 8 33 9 35 2 15 -45 87 -75 112 -46 14 18
-11 83 -35 92 -14 6 -14 9 4 28 32 34 61 109 66 173 5 46 1 69 -17 113 -27 64
-42 70 -46 19 l-3 -37 -51 55 c-34 35 -58 53 -71 51 -11 -2 -33 -28 -53 -61
-19 -32 -30 -56 -25 -52 6 3 22 28 37 55 17 31 34 50 45 50 18 0 124 -109 114
-118 -3 -3 -27 15 -53 41 -26 26 -51 47 -56 47 -5 0 -26 -20 -48 -45 -22 -25
-43 -43 -46 -41 -3 3 -11 1 -18 -5 -11 -9 -15 -7 -20 7 -4 11 -15 38 -24 61
-13 30 -15 44 -7 52 13 13 13 12 -33 16 -39 4 -70 -17 -70 -47 0 -28 -24 -17
-28 13 -5 33 -20 46 -28 24z m35 -72 c6 -13 9 -23 7 -23 -11 0 -36 60 -35 82
1 19 2 18 8 -7 4 -16 13 -40 20 -52z m77 66 c4 -8 9 -8 17 0 6 6 15 11 21 11
5 0 1 -6 -9 -14 -11 -8 -25 -29 -31 -47 -7 -19 -13 -26 -13 -16 -1 10 4 27 9
38 13 23 -2 26 -24 3 -13 -12 -16 -12 -16 -2 0 15 19 38 31 38 4 0 11 -5 15
-11z m54 -73 c0 -6 -7 -1 -15 10 -8 10 -14 26 -14 34 0 16 28 -28 29 -44z
m328 -87 c3 -38 0 -51 -17 -68 -42 -42 -114 -36 -83 7 31 42 52 101 53 147 l1
50 20 -45 c12 -25 23 -66 26 -91z m-147 76 c11 -42 13 -45 45 -45 38 0 41 -8
18 -51 -13 -26 -18 -29 -31 -17 -8 7 -31 14 -51 15 -19 1 -38 6 -43 10 -4 4 1
33 11 63 21 65 26 56 6 -11 l-14 -45 33 15 c26 13 31 20 25 36 -12 34 -21 75
-15 75 2 0 10 -20 16 -45z m-258 13 c5 -18 8 -19 22 -8 11 9 19 10 26 3 7 -7
2 -19 -15 -38 -33 -36 -33 -47 1 -43 19 2 29 10 34 28 6 20 7 21 8 5 0 -11 -2
-31 -6 -43 -4 -18 -8 -20 -14 -10 -6 9 -8 5 -7 -11 2 -19 -3 -27 -25 -35 -24
-9 -31 -7 -43 8 -8 11 -12 30 -10 43 4 21 -4 28 -27 24 -5 -1 -6 3 -2 9 3 5 1
10 -4 10 -6 0 -11 9 -11 19 0 12 7 18 18 17 9 0 18 6 18 14 3 28 4 30 18 30 7
0 16 -10 19 -22z m57 -52 c0 -8 -4 -17 -8 -20 -4 -2 -8 4 -8 15 0 10 4 19 8
19 4 0 8 -6 8 -14z m160 -74 c38 -18 46 -45 17 -50 -19 -4 -97 44 -97 59 0 15
43 10 80 -9z m57 1 c-4 -3 -10 -3 -14 0 -3 4 0 7 7 7 7 0 10 -3 7 -7z m-158
-45 c17 -18 31 -39 31 -45 0 -19 -45 -44 -90 -50 -40 -6 -40 -5 -40 26 0 31
42 101 61 101 4 0 22 -15 38 -32z m171 27 c0 -3 -2 -5 -5 -5 -3 0 -5 2 -5 5 0
3 2 5 5 5 3 0 5 -2 5 -5z m0 -19 c0 -3 -5 -8 -12 -12 -7 -4 -8 -3 -4 4 7 12
16 16 16 8z m-324 -41 c-22 -17 -36 -19 -36 -7 0 14 12 22 34 22 21 -1 21 -1
2 -15z m-46 0 c0 -3 -2 -5 -5 -5 -3 0 -5 2 -5 5 0 3 2 5 5 5 3 0 5 -2 5 -5z
m344 -16 c15 -12 26 -30 26 -44 0 -26 -33 -55 -62 -55 -24 0 -58 35 -58 60 0
23 33 60 54 60 7 0 25 -9 40 -21z m-329 -28 c-6 -5 -25 10 -25 20 0 5 6 4 14
-3 8 -7 12 -15 11 -17z m225 -1 c0 -17 -57 -40 -97 -39 l-38 0 48 13 c27 7 53
18 60 25 14 14 27 14 27 1z m-19 -51 c-25 -20 -86 -26 -96 -9 -4 6 7 10 27 10
18 1 44 7 58 15 33 18 41 8 11 -16z m29 -9 c0 -13 -34 -30 -62 -30 -20 0 -18
3 12 19 42 22 50 24 50 11z m-120 -47 c0 -19 -18 -16 -30 6 -17 33 -12 46 10
26 11 -10 20 -24 20 -32z m268 5 c16 -16 15 -48 -2 -48 -20 0 -39 27 -32 45 7
18 18 19 34 3z m56 -52 c-3 -7 -17 -13 -32 -13 l-27 0 30 13 c17 7 31 13 32
14 1 0 0 -6 -3 -14z"/>
<path d="M130 315 c0 -3 2 -5 5 -5 3 0 5 2 5 5 0 3 -2 5 -5 5 -3 0 -5 -2 -5
-5z"/>
<path d="M100 305 c0 -3 2 -5 5 -5 3 0 5 2 5 5 0 3 -2 5 -5 5 -3 0 -5 -2 -5
-5z"/>
</g>
</svg>
