<?xml version="1.0" standalone="no"?>
<!DOCTYPE svg PUBLIC "-//W3C//DTD SVG 20010904//EN"
 "http://www.w3.org/TR/2001/REC-SVG-20010904/DTD/svg10.dtd">
<svg version="1.0" xmlns="http://www.w3.org/2000/svg"
 width="56.000000pt" height="56.000000pt" viewBox="0 0 56.000000 56.000000"
 preserveAspectRatio="xMidYMid meet">
<metadata>
Created by potrace 1.16, written by Peter Selinger 2001-2019
</metadata>
<g transform="translate(0.000000,56.000000) scale(0.100000,-0.100000)"
fill="#000000" stroke="none">
<path d="M56 548 c-3 -7 -7 -29 -10 -48 -4 -25 -3 -31 4 -20 5 8 10 27 10 43
0 32 13 35 34 6 10 -14 20 -19 34 -15 10 4 26 4 35 0 13 -5 14 -10 6 -26 -7
-13 -7 -18 -1 -14 6 3 16 22 22 42 15 44 45 44 45 -1 0 -17 4 -48 8 -70 5 -25
4 -52 -3 -70 -8 -20 -8 -31 0 -39 8 -8 10 -7 5 4 -4 12 1 16 22 14 15 -1 38
-2 51 -3 20 -1 21 -4 12 -22 -7 -11 -9 -27 -6 -34 9 -23 -18 -37 -48 -24 -20
9 -29 9 -41 -1 -20 -16 -45 3 -44 34 0 20 1 21 9 1 8 -19 9 -19 9 -1 1 20 1
20 17 0 15 -18 15 -17 1 6 -15 25 -24 27 -97 17 -14 -2 -35 -9 -46 -15 -31
-16 -59 6 -52 41 3 15 2 24 -2 22 -4 -3 -11 7 -14 21 -5 18 -1 33 11 48 l18
21 -22 -19 c-27 -22 -28 -36 -9 -90 23 -67 59 -80 124 -47 l38 19 2 -24 c2
-25 -31 -88 -41 -78 -3 3 -1 17 4 31 19 51 2 31 -20 -22 -20 -48 -22 -64 -15
-113 8 -51 12 -58 42 -71 17 -8 32 -18 32 -23 0 -13 -18 -9 -23 5 -4 9 -6 9
-6 -1 -2 -27 49 -33 128 -17 112 24 121 24 131 5 11 -21 92 -22 112 -2 11 11
9 17 -10 32 -12 10 -27 20 -32 22 -6 2 -2 20 10 43 11 21 20 56 20 77 0 21 5
38 11 38 14 0 39 63 39 100 0 66 -51 131 -102 130 -7 0 6 -9 29 -19 54 -25 73
-76 52 -142 -8 -23 -20 -44 -26 -47 -18 -5 -16 29 2 52 22 29 18 61 -9 93 -21
24 -26 26 -41 13 -18 -15 -17 -24 14 -114 24 -67 26 -93 10 -133 l-11 -28 -13
40 c-8 22 -25 49 -38 61 -14 12 -29 42 -37 72 -11 47 -10 56 9 95 19 39 19 40
1 19 -11 -13 -22 -39 -26 -58 -8 -41 -17 -37 -43 21 -10 24 -32 51 -48 61 -15
10 -30 20 -33 22 -3 2 -5 20 -5 39 0 46 -29 68 -50 39 -19 -26 -80 -29 -101
-4 -20 21 -33 23 -38 6z m219 -106 c16 -11 55 -63 55 -73 0 -19 -27 -8 -46 19
-35 47 -39 76 -9 54z m229 -54 c19 -26 20 -51 5 -80 -11 -20 -13 -18 -31 25
-29 66 -9 105 26 55z m-232 -20 c-15 -15 -26 -4 -18 18 5 13 9 15 18 6 9 -9 9
-15 0 -24z m88 -50 c0 -9 4 -8 10 2 7 11 8 5 4 -20 -4 -28 -3 -32 6 -20 9 12
10 11 5 -8 -4 -13 -1 -30 6 -39 33 -39 3 -179 -41 -190 -13 -4 -13 -3 0 6 13
9 13 11 -3 11 -24 0 -33 27 -14 48 8 9 24 35 35 57 l20 40 -23 32 c-12 18 -24
31 -26 28 -4 -4 -4 39 -1 58 3 12 22 8 22 -5z m-240 -8 c-8 -5 -19 -10 -25
-10 -5 0 -3 5 5 10 8 5 20 10 25 10 6 0 3 -5 -5 -10z m83 -112 c-16 -45 -42
-56 -44 -19 0 9 -5 3 -10 -14 -12 -39 -4 -59 21 -52 23 6 26 -5 7 -21 -21 -18
-67 31 -67 71 0 42 16 68 29 48 7 -11 10 -9 16 8 3 11 13 28 22 37 13 13 18
13 30 2 11 -12 11 -21 -4 -60z m97 58 c33 -4 40 -15 28 -42 -9 -19 -9 -33 0
-57 11 -32 11 -32 -6 -9 -41 54 -52 67 -46 50 6 -18 -11 -58 -26 -58 -17 0
-31 76 -20 105 8 22 15 26 33 20 12 -4 29 -8 37 -9z m147 -62 c14 -29 15 -40
5 -67 -11 -29 -10 -34 11 -52 13 -11 32 -25 42 -31 11 -6 15 -15 11 -22 -11
-18 -33 -14 -55 9 -11 12 -25 19 -33 16 -9 -4 -7 -6 5 -6 20 -1 24 -31 3 -31
-20 0 -36 74 -24 116 10 38 3 90 -16 113 -9 12 -8 12 12 2 13 -7 30 -28 39
-47z m-85 -20 c-7 -14 -17 -22 -22 -19 -13 8 -13 41 2 68 l11 22 10 -23 c7
-15 7 -30 -1 -48z m-110 -51 c22 -24 48 -31 48 -13 0 6 8 10 17 10 15 0 14 -2
-3 -19 -10 -10 -29 -17 -41 -16 -12 1 -24 -4 -27 -11 -8 -21 -20 -17 -34 14
-26 53 -26 57 2 27 l28 -30 -21 29 c-21 29 -27 57 -14 70 4 4 11 -3 16 -16 4
-13 18 -33 29 -45z m40 23 c2 -5 -5 -10 -15 -12 -15 -2 -16 0 -6 12 12 15 15
15 21 0z m-112 -11 c0 -8 -7 -15 -15 -15 -8 0 -15 7 -15 15 0 8 7 15 15 15 8
0 15 -7 15 -15z m-30 -61 c0 -16 -16 -19 -25 -4 -8 13 4 32 16 25 5 -4 9 -13
9 -21z m58 4 c-6 -18 -28 -21 -28 -4 0 9 7 16 16 16 9 0 14 -5 12 -12z m117
-18 c3 -5 -1 -10 -9 -10 -9 0 -16 5 -16 10 0 6 4 10 9 10 6 0 13 -4 16 -10z
m-42 -14 c18 -14 18 -14 0 -20 -56 -16 -93 -18 -93 -4 0 8 12 19 28 25 37 15
44 15 65 -1z"/>
<path d="M243 213 c4 -3 10 -3 14 0 3 4 0 7 -7 7 -7 0 -10 -3 -7 -7z"/>
<path d="M280 145 c0 -3 2 -5 5 -5 3 0 5 2 5 5 0 3 -2 5 -5 5 -3 0 -5 -2 -5
-5z"/>
<path d="M430 445 c0 -3 2 -5 5 -5 3 0 5 2 5 5 0 3 -2 5 -5 5 -3 0 -5 -2 -5
-5z"/>
<path d="M111 394 c-17 -14 -31 -33 -31 -42 0 -11 3 -13 8 -5 4 6 12 10 17 10
6 -1 11 8 13 21 2 15 9 22 17 18 7 -2 16 2 19 10 8 21 -9 17 -43 -12z"/>
<path d="M64 388 c-4 -7 -3 -8 4 -4 7 4 12 9 12 12 0 8 -9 4 -16 -8z"/>
<path d="M134 358 c-4 -7 -3 -8 4 -4 7 4 12 9 12 12 0 8 -9 4 -16 -8z"/>
<path d="M267 323 c-4 -3 -7 -11 -7 -17 0 -6 5 -5 12 2 6 6 9 14 7 17 -3 3 -9
2 -12 -2z"/>
<path d="M160 300 c0 -7 3 -10 7 -7 3 4 3 10 0 14 -4 3 -7 0 -7 -7z"/>
</g>
</svg>
