<?xml version="1.0" standalone="no"?>
<!DOCTYPE svg PUBLIC "-//W3C//DTD SVG 20010904//EN"
 "http://www.w3.org/TR/2001/REC-SVG-20010904/DTD/svg10.dtd">
<svg version="1.0" xmlns="http://www.w3.org/2000/svg"
 width="56.000000pt" height="56.000000pt" viewBox="0 0 56.000000 56.000000"
 preserveAspectRatio="xMidYMid meet">
<metadata>
Created by potrace 1.16, written by Peter Selinger 2001-2019
</metadata>
<g transform="translate(0.000000,56.000000) scale(0.100000,-0.100000)"
fill="#000000" stroke="none">
<path d="M370 462 c-29 -23 -20 -39 25 -48 41 -7 49 -17 41 -49 -6 -25 -43
-52 -54 -40 -3 3 -5 21 -4 40 3 36 -5 41 -42 26 -13 -5 -16 -10 -9 -14 7 -4
14 -3 18 3 14 22 21 7 20 -42 0 -50 -1 -53 -40 -75 -47 -27 -68 -28 -100 -7
-21 14 -26 14 -55 -1 -25 -13 -30 -20 -24 -38 3 -12 11 -27 16 -34 5 -7 5 -14
-1 -17 -15 -9 -43 51 -36 75 4 12 19 22 36 26 27 5 29 9 24 35 -4 17 -2 35 5
43 10 12 10 19 -1 32 -13 15 -11 16 11 11 14 -3 45 -3 70 1 41 7 38 8 -27 8
l-71 -1 2 -57 c3 -53 1 -58 -21 -64 -13 -3 -28 -16 -34 -29 -15 -32 11 -80 54
-103 l32 -16 -32 -9 c-52 -14 -49 -28 6 -28 32 0 62 7 83 19 l32 20 22 -25
c16 -16 34 -24 58 -24 48 0 54 16 11 34 -40 17 -45 40 -13 66 l23 18 -39 22
-38 23 29 23 c15 13 36 23 46 24 10 0 32 13 48 29 39 39 41 100 4 136 -29 30
-45 31 -75 7z m70 -12 c29 -29 27 -94 -5 -125 -13 -14 -32 -25 -42 -25 -13 0
-8 6 14 20 36 21 52 62 34 84 -7 8 -27 17 -46 20 -38 8 -44 20 -17 35 25 15
40 13 62 -9z m-210 -210 c11 -7 9 -11 -13 -19 -30 -12 -33 -21 -14 -40 10 -10
8 -12 -8 -9 -27 5 -53 57 -34 69 18 11 50 11 69 -1z m120 -25 c36 -18 36 -21
9 -36 -12 -6 -19 -7 -15 -1 3 5 -1 15 -8 21 -12 10 -13 7 -3 -24 7 -25 7 -39
0 -46 -16 -16 -36 0 -30 22 3 11 1 17 -4 13 -5 -3 -9 -12 -9 -20 0 -19 -19
-18 -42 3 -26 23 -22 38 15 61 40 25 50 26 87 7z m-120 -15 c0 -5 -7 -10 -15
-10 -8 0 -15 5 -15 10 0 6 7 10 15 10 8 0 15 -4 15 -10z m151 -95 l34 -15 -39
2 c-22 2 -41 9 -44 16 -5 16 8 15 49 -3z"/>
<path d="M203 325 c-3 -9 -3 -19 1 -22 3 -4 6 1 6 10 0 10 4 17 8 17 5 0 8
-10 8 -21 -1 -12 5 -24 12 -26 16 -6 16 29 0 45 -16 16 -27 15 -35 -3z m37
-20 c0 -3 -2 -5 -5 -5 -3 0 -5 2 -5 5 0 3 2 5 5 5 3 0 5 -2 5 -5z"/>
<path d="M302 328 c-16 -16 -16 -51 1 -45 6 2 12 14 11 26 -1 23 12 29 19 9 2
-9 4 -8 3 1 -1 19 -19 24 -34 9z m8 -23 c0 -3 -2 -5 -5 -5 -3 0 -5 2 -5 5 0 3
2 5 5 5 3 0 5 -2 5 -5z"/>
</g>
</svg>
